<svg width="13" height="16" viewBox="0 0 13 16" fill="none" xmlns="http://www.w3.org/2000/svg">
<path d="M13 3.00053H12V14.5001C12 14.7084 11.9609 14.9037 11.8828 15.086C11.8047 15.2683 11.6979 15.4271 11.5625 15.5625C11.4271 15.6979 11.2682 15.8047 11.0859 15.8828C10.9036 15.9609 10.7083 16 10.5 16H2.5C2.29167 16 2.09635 15.9609 1.91406 15.8828C1.73177 15.8047 1.57292 15.6979 1.4375 15.5625C1.30208 15.4271 1.19531 15.2683 1.11719 15.086C1.03906 14.9037 1 14.7084 1 14.5001V3.00053H0V2.00057H4V1.00061C4 0.859991 4.02604 0.729788 4.07812 0.610001C4.13021 0.490215 4.20052 0.386052 4.28906 0.297514C4.3776 0.208976 4.48438 0.136062 4.60938 0.0787728C4.73438 0.0214835 4.86458 -0.00455711 5 0.000651015H8C8.14062 0.000651015 8.27083 0.0266916 8.39062 0.0787728C8.51042 0.130854 8.61458 0.201164 8.70312 0.289702C8.79167 0.37824 8.86458 0.485006 8.92188 0.610001C8.97917 0.734996 9.00521 0.865199 9 1.00061V2.00057H13V3.00053ZM5 2.00057H8V1.00061H5V2.00057ZM11 3.00053H2V14.5001C2 14.6355 2.04948 14.7527 2.14844 14.8516C2.2474 14.9506 2.36458 15 2.5 15H10.5C10.6354 15 10.7526 14.9506 10.8516 14.8516C10.9505 14.7527 11 14.6355 11 14.5001V3.00053ZM5 13.0001H4V5.00045H5V13.0001ZM7 13.0001H6V5.00045H7V13.0001ZM9 13.0001H8V5.00045H9V13.0001Z" fill="#E6224A"/>
</svg>
