<svg width="20" height="20" viewBox="0 0 20 20" fill="none" xmlns="http://www.w3.org/2000/svg">
<g clip-path="url(#clip0_257_12646)">
<path d="M17.5003 11.6665C17.1707 11.6665 16.8485 11.7643 16.5744 11.9474C16.3003 12.1305 16.0867 12.3908 15.9605 12.6954C15.8344 12.9999 15.8014 13.335 15.8657 13.6583C15.93 13.9816 16.0887 14.2786 16.3218 14.5117C16.5549 14.7448 16.8519 14.9035 17.1752 14.9678C17.4985 15.0321 17.8336 14.9991 18.1381 14.873C18.4427 14.7468 18.703 14.5332 18.8861 14.2591C19.0692 13.985 19.167 13.6628 19.167 13.3332M15.8337 8.33317V1.6665H5.83366V11.6665H11.667V5.83317H1.66699V15.8332H8.33366L15.8337 8.33317ZM11.667 19.1665L16.667 14.1665L11.667 19.1665Z" stroke="#E6224A" stroke-width="2"/>
</g>
<defs>
<clipPath id="clip0_257_12646">
<rect width="20" height="20" fill="white"/>
</clipPath>
</defs>
</svg>
