<svg width="824" height="614" viewBox="0 0 824 614" fill="none" xmlns="http://www.w3.org/2000/svg">
<path d="M824 539.584H0V539.996H824V539.584Z" fill="#EBEBEB"/>
<path d="M741.435 566.097H705.707V566.509H741.435V566.097Z" fill="#EBEBEB"/>
<path d="M568.016 557.545H511.803V557.957H568.016V557.545Z" fill="#EBEBEB"/>
<path d="M726.966 550.806H653.58V551.218H726.966V550.806Z" fill="#EBEBEB"/>
<path d="M285.137 559.111H266.778V559.523H285.137V559.111Z" fill="#EBEBEB"/>
<path d="M252.094 559.111H188.828V559.523H252.094V559.111Z" fill="#EBEBEB"/>
<path d="M154.928 552.157H109.279V552.569H154.928V552.157Z" fill="#EBEBEB"/>
<path d="M390.593 466.09H72.3803C67.1891 466.09 62.9702 461.872 62.9702 456.681V9.40914C62.9702 4.21846 67.1891 0 72.3803 0H390.609C395.8 0 400.019 4.21846 400.019 9.40914V456.681C400.003 461.872 395.784 466.09 390.593 466.09ZM72.3803 0.411959C67.4198 0.411959 63.3822 4.44916 63.3822 9.40914V456.681C63.3822 461.641 67.4198 465.678 72.3803 465.678H390.609C395.57 465.678 399.607 461.641 399.607 456.681V9.40914C399.607 4.44916 395.57 0.411959 390.609 0.411959H72.3803Z" fill="#EBEBEB"/>
<path d="M747.055 466.09H428.826C423.635 466.09 419.416 461.872 419.416 456.681V9.40914C419.416 4.21846 423.635 0 428.826 0H747.055C752.246 0 756.465 4.21846 756.465 9.40914V456.681C756.465 461.872 752.246 466.09 747.055 466.09ZM428.826 0.411959C423.866 0.411959 419.828 4.44916 419.828 9.40914V456.681C419.828 461.641 423.866 465.678 428.826 465.678H747.055C752.015 465.678 756.053 461.641 756.053 456.681V9.40914C756.053 4.44916 752.015 0.411959 747.055 0.411959H428.826Z" fill="#EBEBEB"/>
<path d="M189.487 197.197C208.521 197.197 223.946 181.773 223.946 162.74C223.946 143.708 208.521 128.284 189.487 128.284H185.251V197.197H189.487Z" fill="#E0E0E0"/>
<path d="M185.252 197.197C204.283 197.197 219.711 181.77 219.711 162.74C219.711 143.711 204.283 128.284 185.252 128.284C166.22 128.284 150.792 143.711 150.792 162.74C150.792 181.77 166.22 197.197 185.252 197.197Z" fill="#F5F5F5"/>
<path d="M183.67 167.074C158.241 167.074 137.542 146.377 137.542 120.951V93.3992C137.542 91.0099 139.487 89.0654 141.876 89.0654C144.266 89.0654 146.21 91.0099 146.21 93.3992V120.951C146.21 141.615 163.02 158.406 183.67 158.406C186.059 158.406 188.004 160.351 188.004 162.74C188.004 165.146 186.076 167.074 183.67 167.074Z" fill="#E0E0E0"/>
<path d="M103.544 117.655H180.209C185.466 117.655 189.289 112.679 187.954 107.604L181.296 82.4907C180.374 78.9808 177.193 76.542 173.551 76.542H110.202C106.576 76.542 103.395 78.9808 102.456 82.4907L95.8147 107.604C94.4633 112.679 98.2867 117.655 103.544 117.655Z" fill="#F5F5F5"/>
<path d="M676.141 197.197C695.176 197.197 710.601 181.773 710.601 162.74C710.601 143.708 695.176 128.284 676.141 128.284H671.923V197.197H676.141Z" fill="#E0E0E0"/>
<path d="M671.906 197.197C690.938 197.197 706.366 181.77 706.366 162.74C706.366 143.711 690.938 128.284 671.906 128.284C652.874 128.284 637.446 143.711 637.446 162.74C637.446 181.77 652.874 197.197 671.906 197.197Z" fill="#F5F5F5"/>
<path d="M670.324 167.074C644.895 167.074 624.197 146.377 624.197 120.951V93.3992C624.197 91.0099 626.141 89.0654 628.531 89.0654C630.92 89.0654 632.865 91.0099 632.865 93.3992V120.951C632.865 141.615 649.675 158.406 670.324 158.406C672.714 158.406 674.658 160.351 674.658 162.74C674.658 165.146 672.73 167.074 670.324 167.074Z" fill="#E0E0E0"/>
<path d="M590.198 117.655H666.863C672.12 117.655 675.944 112.679 674.609 107.604L667.951 82.4907C667.028 78.9808 663.847 76.542 660.205 76.542H596.84C593.214 76.542 590.034 78.9808 589.094 82.4907L582.436 107.604C581.118 112.679 584.941 117.655 590.198 117.655Z" fill="#F5F5F5"/>
<path d="M220.797 429.923H245.863V332.816H220.797V429.923Z" fill="#E6E6E6"/>
<path d="M152.852 429.92H236.027L248.584 316.269H165.41L152.852 429.92Z" fill="#F0F0F0"/>
<path d="M143.837 429.92H229.764L242.322 316.269H156.412L143.837 429.92Z" fill="#F5F5F5"/>
<path d="M223.551 420.973L234.131 325.217H162.608L152.028 420.973H223.551Z" fill="white"/>
<path d="M208.785 397.754L209.214 393.849C211.867 369.824 196.87 348.418 177.391 348.418L176.962 352.324C174.293 376.349 189.289 397.754 208.785 397.754Z" fill="#F5F5F5"/>
<path d="M97.3747 539.578H171.271V429.915H97.3747L97.3747 539.578Z" fill="#E6E6E6"/>
<path d="M104.796 539.584H97.3638V518.442H112.591L104.796 539.584Z" fill="#F0F0F0"/>
<path d="M304.478 539.578H378.374V429.915H304.478V539.578Z" fill="#E6E6E6"/>
<path d="M97.37 526.606H310.967V429.927H97.37V526.606Z" fill="#F0F0F0"/>
<path d="M303.528 539.584H310.961V518.442H295.733L303.528 539.584Z" fill="#F0F0F0"/>
<path d="M103.138 474.982H305.199V435.962H103.138V474.982Z" fill="#E6E6E6"/>
<path d="M190.69 461.41H217.635C229.336 461.41 240.526 456.599 248.584 448.096H159.741C167.799 456.582 178.989 461.41 190.69 461.41Z" fill="#F0F0F0"/>
<path d="M103.138 520.303H305.199V481.282H103.138V520.303Z" fill="#E6E6E6"/>
<path d="M190.69 506.726H217.635C229.336 506.726 240.526 501.914 248.584 493.411H159.741C167.799 501.914 178.989 506.726 190.69 506.726Z" fill="#F0F0F0"/>
<path d="M297.431 425.455H299.343C299.327 421.516 299.36 411.547 299.541 388.692C299.887 347.265 300.546 344.727 300.546 344.727L295.998 363.859C293.114 385.033 296.838 406.323 297.431 425.455Z" fill="#E6E6E6"/>
<path d="M293.657 361.008C287.115 353.214 273.14 350.94 258.835 348.995C253.215 348.237 273.601 361.074 283.555 370.186C291.301 377.272 296.245 379.233 298.371 386.286C299.475 377.486 299.293 367.715 293.657 361.008Z" fill="#E6E6E6"/>
<path d="M302.342 374.932C308.885 367.138 322.86 364.864 337.164 362.919C342.784 362.161 322.398 374.998 312.444 384.11C304.699 391.196 299.755 393.157 297.629 400.21C296.525 391.427 296.706 381.655 302.342 374.932Z" fill="#E6E6E6"/>
<path d="M299.541 342.898C304.452 333.588 316.795 324.805 330.638 321.476C336.077 320.174 318.048 338.68 311.192 350.626C305.869 359.904 298.799 370.796 297.711 378.623C296.047 363.101 294.63 352.208 299.541 342.898Z" fill="#E6E6E6"/>
<path d="M298.947 429.92C293.097 429.92 288.268 426.987 287.939 423.247L286.966 416.836H310.928L309.956 423.247C309.626 426.987 304.798 429.92 298.947 429.92Z" fill="#F0F0F0"/>
<path d="M312.494 419.308H285.417L284.643 412.173H313.268L312.494 419.308Z" fill="#F0F0F0"/>
<path d="M279.395 283.048L543.421 283.048V42.2494L279.395 42.2494L279.395 283.048Z" fill="#E6E6E6"/>
<path d="M273.475 283.048L540.847 283.048V42.2494L273.475 42.2494L273.475 283.048Z" fill="#F5F5F5"/>
<path d="M530.18 272.268V53.0403L284.134 53.0403V272.268L530.18 272.268Z" fill="#FAFAFA"/>
<path d="M499.986 272.256L403.15 53.0439H370.256L467.092 272.256H499.986Z" fill="white"/>
<path d="M457.765 272.256L360.928 53.0439H338.285L435.121 272.256H457.765Z" fill="white"/>
<path d="M375.493 272.258L375.493 53.0298H362.771L362.771 272.258H375.493Z" fill="#E6E6E6"/>
<path d="M460.067 272.259L460.067 53.0305H447.345L447.345 272.259H460.067Z" fill="#E6E6E6"/>
<path d="M373.188 279.104L373.188 45.0125H357.104L357.104 279.104H373.188Z" fill="#F5F5F5"/>
<path d="M457.763 279.105L457.763 45.0132H441.678L441.678 279.105H457.763Z" fill="#F5F5F5"/>
<path d="M285.259 272.263L285.259 53.0352H284.122L284.122 272.263H285.259Z" fill="#E6E6E6"/>
<path d="M268.986 28.3757H555.03C555.788 28.3757 556.397 29.0019 556.397 29.7434C556.397 30.5014 555.771 31.1111 555.03 31.1111H268.986C268.228 31.1111 267.618 30.485 267.618 29.7434C267.602 29.0019 268.228 28.3757 268.986 28.3757Z" fill="#E6E6E6"/>
<path d="M543.428 37.4553C544.449 37.4553 545.29 36.6149 545.29 35.5932V31.6055C545.29 30.5838 544.449 29.7434 543.428 29.7434C542.406 29.7434 541.565 30.5838 541.565 31.6055V35.5932C541.565 36.6149 542.406 37.4553 543.428 37.4553Z" fill="#E6E6E6"/>
<path d="M289.718 37.4553C290.74 37.4553 291.58 36.6149 291.58 35.5932V31.6055C291.58 30.5838 290.74 29.7434 289.718 29.7434C288.696 29.7434 287.856 30.5838 287.856 31.6055V35.5932C287.872 36.6149 288.696 37.4553 289.718 37.4553Z" fill="#E6E6E6"/>
<path opacity="0.6" d="M269.422 218.333L536.612 218.333V29.7542L269.422 29.7542V218.333Z" fill="#E0E0E0"/>
<path d="M560.798 376.893H514.736C509.842 376.893 505.87 372.922 505.87 368.028V346.705C505.87 341.811 509.842 337.839 514.736 337.839H560.798C565.693 337.839 569.664 341.811 569.664 346.705V368.028C569.664 372.922 565.693 376.893 560.798 376.893Z" fill="#FAFAFA"/>
<path d="M566.681 338.993H508.836C507.188 338.993 505.854 337.658 505.854 336.01V333.604C505.854 331.957 507.188 330.622 508.836 330.622H566.681C568.329 330.622 569.664 331.957 569.664 333.604V336.01C569.664 337.658 568.329 338.993 566.681 338.993Z" fill="#E6E6E6"/>
<path d="M506.793 420.198C506.793 420.198 507.633 447.651 539.638 447.651C571.642 447.651 572.482 420.198 572.482 420.198H506.793Z" fill="#F0F0F0"/>
<path d="M579.766 420.198C579.766 420.198 580.607 447.651 612.611 447.651C644.615 447.651 645.456 420.198 645.456 420.198H579.766Z" fill="#F0F0F0"/>
<path d="M629.618 376.893H566.319C559.595 376.893 554.124 371.439 554.124 364.699V332.336C554.124 325.596 559.578 320.142 566.319 320.142H629.618C636.342 320.142 641.814 325.596 641.814 332.336V364.699C641.797 371.439 636.342 376.893 629.618 376.893Z" fill="#F0F0F0"/>
<path d="M637.71 321.723H558.211C555.953 321.723 554.124 319.894 554.124 317.637V314.325C554.124 312.067 555.953 310.238 558.211 310.238H637.71C639.968 310.238 641.797 312.067 641.797 314.325V317.637C641.797 319.894 639.968 321.723 637.71 321.723Z" fill="#F5F5F5"/>
<path d="M482.683 539.58H490.989V403.403H482.683V539.58Z" fill="#E6E6E6"/>
<path d="M722.516 376.893H677.542V403.39H722.516V376.893Z" fill="#E6E6E6"/>
<path d="M453.932 403.393H677.533V376.896H453.932V403.393Z" fill="#F5F5F5"/>
<path d="M722.516 447.667H677.542V474.165H722.516V447.667Z" fill="#E6E6E6"/>
<path d="M453.932 474.156H677.532V447.658H453.932V474.156Z" fill="#F5F5F5"/>
<path d="M706.287 539.58H714.593V403.403H706.287V539.58Z" fill="#E6E6E6"/>
<path d="M669.231 539.58H677.537V403.403H669.231V539.58Z" fill="#F5F5F5"/>
<path d="M453.927 539.58H462.233V403.403H453.927V539.58Z" fill="#F5F5F5"/>
<path d="M412 614C588.472 614 731.531 605.648 731.531 595.346C731.531 585.044 588.472 576.693 412 576.693C235.528 576.693 92.4692 585.044 92.4692 595.346C92.4692 605.648 235.528 614 412 614Z" fill="#F5F5F5"/>
<path d="M429.156 511.719H218.92C211.966 511.719 206.049 506.083 205.687 499.146L186.883 134.068C186.521 127.114 191.86 121.495 198.815 121.495H409.05C415.988 121.495 421.921 127.13 422.283 134.068L441.104 499.146C441.45 506.1 436.11 511.719 429.156 511.719Z" fill="#407BFF"/>
<path opacity="0.8" d="M429.156 511.719H218.92C211.966 511.719 206.049 506.083 205.687 499.146L186.883 134.068C186.521 127.114 191.86 121.495 198.815 121.495H409.05C415.988 121.495 421.921 127.13 422.283 134.068L441.104 499.146C441.45 506.1 436.11 511.719 429.156 511.719Z" fill="white"/>
<path d="M388.302 109.581H365.048V111.229H388.302V109.581Z" fill="#DE7E32"/>
<path d="M356.99 109.581H348.47V111.229H356.99V109.581Z" fill="#DE7E32"/>
<path d="M438.203 488.567H237.131C230.489 488.567 224.82 483.178 224.474 476.538L206.478 127.378C206.132 120.737 211.241 115.348 217.882 115.348H418.955C425.596 115.348 431.265 120.737 431.611 127.378L449.607 476.538C449.954 483.178 444.845 488.567 438.203 488.567Z" fill="url(#paint0_linear_44_183)"/>
<path d="M438.203 480.542H237.131C234.791 480.542 232.632 478.482 232.5 476.142L214.504 126.966C214.438 125.697 214.949 124.873 215.394 124.395C215.839 123.934 216.63 123.374 217.882 123.374H418.955C421.295 123.374 423.454 125.433 423.586 127.79L441.582 476.95C441.648 478.219 441.137 479.042 440.692 479.52C440.247 479.982 439.472 480.542 438.203 480.542ZM217.899 123.802C216.778 123.802 216.086 124.28 215.707 124.692C215.311 125.104 214.866 125.829 214.932 126.949L232.928 476.109C233.044 478.251 235.005 480.13 237.147 480.13H438.203C439.324 480.13 440.016 479.652 440.395 479.24C440.791 478.828 441.236 478.103 441.17 476.983L423.174 127.823C423.058 125.681 421.097 123.802 418.955 123.802H217.899Z" fill="white"/>
<path opacity="0.3" d="M367.883 250.628C390.751 227.163 389.261 188.627 364.555 164.555C339.85 140.484 301.284 139.991 278.417 163.456C255.549 186.921 257.039 225.456 281.745 249.528C306.45 273.6 345.016 274.092 367.883 250.628Z" fill="white"/>
<path d="M372.398 207.067C372.843 215.57 371.097 223.562 367.652 230.516C360.137 245.857 344.399 256.304 325.678 256.304C306.956 256.304 290.147 245.873 281.05 230.516C276.897 223.545 274.326 215.57 273.898 207.067C272.497 179.861 293.41 157.83 320.602 157.83C347.794 157.83 370.998 179.861 372.398 207.067Z" fill="white"/>
<path d="M367.669 230.532C360.154 245.873 344.416 256.321 325.694 256.321C306.973 256.321 290.163 245.89 281.066 230.532C293.031 222.243 307.665 217.415 323.684 217.415C339.702 217.415 354.831 222.243 367.669 230.532Z" fill="#DE7E32"/>
<path d="M338.405 205.916C346.644 197.463 346.104 183.576 337.2 174.9C328.295 166.224 314.398 166.044 306.159 174.498C297.921 182.952 298.461 196.838 307.365 205.514C316.269 214.19 330.167 214.37 338.405 205.916Z" fill="#DE7E32"/>
<path d="M409.38 352.752H251.946C249.128 352.752 246.739 350.478 246.59 347.66L245.404 324.525C245.255 321.707 247.414 319.433 250.232 319.433H407.666C410.484 319.433 412.873 321.707 413.022 324.525L414.208 347.66C414.357 350.478 412.198 352.752 409.38 352.752Z" fill="white"/>
<path opacity="0.3" d="M361.176 306.728H295.42C292.602 306.728 290.213 304.454 290.064 301.636L289.817 296.726C289.669 293.908 291.828 291.634 294.646 291.634H360.401C363.219 291.634 365.609 293.908 365.757 296.726L366.004 301.636C366.136 304.454 363.977 306.728 361.176 306.728Z" fill="black"/>
<path opacity="0.3" d="M385.616 463.618H287.131C282.335 463.618 278.265 459.73 278.018 454.951L277.424 443.597C277.177 438.802 280.852 434.93 285.648 434.93H384.132C388.928 434.93 392.999 438.819 393.246 443.597L393.839 454.951C394.086 459.746 390.411 463.618 385.616 463.618Z" fill="black"/>
<path d="M412.263 408.498H254.83C252.012 408.498 249.622 406.224 249.474 403.406L248.287 380.271C248.139 377.453 250.298 375.179 253.116 375.179H410.55C413.368 375.179 415.757 377.453 415.906 380.271L417.092 403.406C417.224 406.224 415.065 408.498 412.263 408.498Z" fill="white"/>
<path d="M271.969 336.092C272.134 339.207 269.744 341.728 266.63 341.728C263.515 341.728 260.862 339.207 260.697 336.092C260.532 332.978 262.922 330.457 266.036 330.457C269.151 330.457 271.804 332.978 271.969 336.092Z" fill="#263238"/>
<path d="M289.29 336.092C289.455 339.207 287.065 341.728 283.951 341.728C280.836 341.728 278.183 339.207 278.018 336.092C277.853 332.978 280.243 330.457 283.357 330.457C286.472 330.457 289.125 332.978 289.29 336.092Z" fill="#263238"/>
<path d="M306.594 336.092C306.759 339.207 304.369 341.728 301.254 341.728C298.14 341.728 295.486 339.207 295.322 336.092C295.157 332.978 297.546 330.457 300.661 330.457C303.776 330.457 306.429 332.978 306.594 336.092Z" fill="#263238"/>
<path d="M323.915 336.092C324.079 339.207 321.69 341.728 318.575 341.728C315.46 341.728 312.807 339.207 312.642 336.092C312.478 332.978 314.867 330.457 317.982 330.457C321.097 330.457 323.75 332.978 323.915 336.092Z" fill="#263238"/>
<path d="M274.837 391.855C275.002 394.97 272.612 397.491 269.497 397.491C266.383 397.491 263.729 394.97 263.565 391.855C263.4 388.741 265.789 386.22 268.904 386.22C272.019 386.22 274.672 388.741 274.837 391.855Z" fill="#263238"/>
<path d="M292.157 391.855C292.322 394.97 289.932 397.491 286.818 397.491C283.703 397.491 281.05 394.97 280.885 391.855C280.72 388.741 283.11 386.22 286.224 386.22C289.339 386.22 291.993 388.741 292.157 391.855Z" fill="#263238"/>
<path d="M309.478 391.855C309.643 394.97 307.253 397.491 304.139 397.491C301.024 397.491 298.371 394.97 298.206 391.855C298.041 388.741 300.431 386.22 303.545 386.22C306.66 386.22 309.313 388.741 309.478 391.855Z" fill="#263238"/>
<path d="M326.782 391.855C326.947 394.97 324.557 397.491 321.442 397.491C318.328 397.491 315.674 394.97 315.51 391.855C315.345 388.741 317.734 386.22 320.849 386.22C323.98 386.22 326.633 388.741 326.782 391.855Z" fill="#263238"/>
<path d="M344.103 391.855C344.267 394.97 341.878 397.491 338.763 397.491C335.648 397.491 332.995 394.97 332.83 391.855C332.666 388.741 335.055 386.22 338.17 386.22C341.285 386.22 343.938 388.741 344.103 391.855Z" fill="#263238"/>
<path d="M361.423 391.855C361.588 394.97 359.198 397.491 356.083 397.491C352.969 397.491 350.315 394.97 350.151 391.855C349.986 388.741 352.375 386.22 355.49 386.22C358.605 386.22 361.258 388.741 361.423 391.855Z" fill="#263238"/>
<path d="M548.833 200.492C549.245 201.102 549.46 201.448 549.723 201.876L550.465 203.112C550.943 203.92 551.355 204.744 551.783 205.551C552.607 207.182 553.382 208.814 554.09 210.462C555.508 213.757 556.661 217.119 557.667 220.513C559.694 227.286 560.93 234.223 561.572 241.177L561.704 242.479C561.721 242.66 561.737 242.957 561.754 243.27L561.787 244.16C561.803 245.33 561.754 246.483 561.589 247.587C561.276 249.795 560.682 251.839 559.957 253.717C558.474 257.474 556.447 260.671 554.255 263.571C549.789 269.355 544.713 273.986 538.912 278.089L534.38 272.766C538.451 268.053 542.406 262.83 545.323 257.623C546.806 255.019 547.96 252.35 548.668 249.845C548.998 248.593 549.179 247.39 549.212 246.319C549.245 245.775 549.212 245.264 549.163 244.786L549.113 244.44C549.097 244.341 549.097 244.209 549.048 243.995L548.833 242.842C547.762 236.662 546.279 230.582 544.351 224.715C543.411 221.766 542.225 218.931 541.038 216.13C540.445 214.729 539.802 213.362 539.143 212.044L538.121 210.116L537.61 209.193L537.198 208.468L548.833 200.492Z" fill="#803E3C"/>
<path d="M533.458 278.188L539.423 290.794L544.153 280.149C544.153 280.149 539.967 270.921 534.282 271.761L533.458 278.188Z" fill="#7F3E3B"/>
<path d="M543.691 291.42L548.438 283.642L544.153 280.132L539.423 290.794L543.691 291.42Z" fill="#7F3E3B"/>
<path d="M516.862 582.114C518.131 582.114 519.532 581.851 520.504 581.62C520.636 581.587 520.735 581.488 520.751 581.356C520.768 581.225 520.718 581.093 520.603 581.027C520.125 580.714 515.939 578.011 514.324 578.736C514.077 578.852 513.747 579.099 513.681 579.659C513.583 580.384 513.764 580.977 514.225 581.389C514.835 581.933 515.807 582.114 516.862 582.114ZM519.581 581.159C517.175 581.637 515.379 581.554 514.67 580.911C514.374 580.648 514.258 580.252 514.341 579.742C514.374 579.461 514.505 579.379 514.621 579.33C515.461 578.951 517.884 580.121 519.581 581.159Z" fill="#407BFF"/>
<path d="M520.438 581.637C520.488 581.637 520.553 581.62 520.603 581.587C520.702 581.521 520.768 581.422 520.768 581.307C520.768 581.142 520.751 577.171 519.252 575.836C518.856 575.49 518.378 575.342 517.867 575.391C517.043 575.49 516.829 576.001 516.763 576.298C516.45 577.847 518.955 580.829 520.273 581.571C520.323 581.62 520.389 581.637 520.438 581.637ZM518.082 576.034C518.345 576.034 518.592 576.133 518.807 576.314C519.697 577.105 520.01 579.33 520.092 580.664C518.774 579.61 517.208 577.385 517.406 576.429C517.439 576.281 517.521 576.083 517.95 576.034C517.999 576.051 518.049 576.034 518.082 576.034Z" fill="#407BFF"/>
<path d="M501.305 575.391C501.387 575.309 501.404 575.194 501.371 575.078C501.338 574.946 501.206 574.848 501.074 574.848C500.382 574.815 494.466 574.568 493.131 576.018C493.098 576.051 493.081 576.084 493.048 576.116C492.834 576.413 492.785 576.776 492.9 577.138C493.114 577.748 493.526 578.16 494.103 578.341C496.015 578.934 499.393 576.792 501.239 575.457C501.272 575.424 501.288 575.408 501.305 575.391ZM493.625 576.446C494.367 575.655 497.613 575.441 500.069 575.474C497.498 577.221 495.388 578.044 494.301 577.715C493.922 577.6 493.674 577.336 493.526 576.924C493.46 576.759 493.477 576.627 493.576 576.512C493.592 576.479 493.609 576.463 493.625 576.446Z" fill="#407BFF"/>
<path d="M501.305 575.391C501.322 575.375 501.338 575.358 501.355 575.325C501.42 575.227 501.42 575.095 501.355 574.996C501.272 574.864 499.443 571.618 497.251 571.025C496.592 570.843 495.949 570.926 495.372 571.272C494.581 571.733 494.548 572.26 494.647 572.623C495.076 574.155 499.278 575.49 501.074 575.49C501.157 575.507 501.239 575.457 501.305 575.391ZM495.389 572.096C495.455 572.03 495.554 571.947 495.702 571.849C496.13 571.601 496.575 571.535 497.086 571.667C498.52 572.046 499.871 573.892 500.465 574.798C498.52 574.567 495.537 573.364 495.273 572.458C495.257 572.409 495.224 572.277 495.389 572.096Z" fill="#407BFF"/>
<path d="M519.449 152.227C517.851 160.417 514.242 178.279 519.96 183.75C519.96 183.75 517.719 192.055 502.508 192.055C485.764 192.055 494.515 183.75 494.515 183.75C503.645 181.575 503.414 174.786 501.816 168.425L519.449 152.227Z" fill="#7F3E3B"/>
<path d="M491.565 132.914C491.664 132.914 491.763 132.898 491.862 132.849C492.191 132.684 492.323 132.288 492.158 131.975C490.543 128.745 487.544 128.366 487.412 128.35C487.05 128.301 486.736 128.564 486.687 128.927C486.654 129.289 486.901 129.602 487.264 129.652C487.363 129.668 489.703 129.981 490.988 132.568C491.087 132.766 491.318 132.914 491.565 132.914Z" fill="#263238"/>
<path d="M486.572 140.066C486.572 140.066 484.116 144.598 481.76 146.625C483.045 148.174 485.6 147.844 485.6 147.844L486.572 140.066Z" fill="#630F0F"/>
<path d="M487.791 138.286C487.66 139.39 486.951 140.214 486.242 140.132C485.517 140.05 485.039 139.077 485.188 137.973C485.319 136.869 486.028 136.045 486.737 136.128C487.445 136.21 487.923 137.182 487.791 138.286Z" fill="#263238"/>
<path d="M487.05 136.227L484.495 135.139C484.479 135.139 485.583 137.38 487.05 136.227Z" fill="#263238"/>
<path d="M515.857 572.261L502.409 575.408L494.235 544.495L507.683 541.347L515.857 572.261Z" fill="#7F3E3B"/>
<path d="M536.49 581.307H522.68L523.767 549.339H537.578L536.49 581.307Z" fill="#7F3E3B"/>
<path d="M521.592 579.709H537.099C537.66 579.709 538.121 580.104 538.204 580.648L539.967 592.924C540.148 594.193 539.061 595.396 537.759 595.38C532.353 595.281 529.749 594.968 522.927 594.968C518.724 594.968 512.594 595.396 506.809 595.396C501.14 595.396 500.712 589.662 503.118 589.151C513.929 586.827 515.643 583.614 519.285 580.549C519.944 580.005 520.768 579.709 521.592 579.709Z" fill="#263238"/>
<path d="M501.222 573.348L515.313 566.872C515.824 566.641 516.4 566.806 516.714 567.268L523.454 577.682C524.146 578.769 523.668 580.318 522.465 580.829C517.521 583.004 515.016 583.812 508.82 586.663C505.013 588.409 497.3 592.446 492.043 594.852C486.901 597.225 484.1 592.199 486.077 590.716C494.927 584.075 497.465 579.396 499.492 575.078C499.838 574.304 500.464 573.694 501.222 573.348Z" fill="#263238"/>
<path opacity="0.2" d="M494.251 544.494L498.619 561.055L511.902 557.298L507.699 541.364L494.251 544.494Z" fill="black"/>
<path opacity="0.2" d="M537.577 549.355H523.767L523.223 565.834H537.033L537.577 549.355Z" fill="black"/>
<path d="M543.774 186.881C549.509 188.133 555.639 208.764 555.639 208.764L539.423 226.001C539.423 226.001 525.975 206.622 528.711 199.504C531.562 192.088 537 185.398 543.774 186.881Z" fill="#263238"/>
<path opacity="0.4" d="M534.677 200.014C531.777 197.361 529.815 198.152 528.48 200.262C527.162 206.392 534.974 219.228 538.121 224.089C539.572 218.289 541.236 206.046 534.677 200.014Z" fill="black"/>
<path d="M471.179 187.277C471.179 187.277 464.604 189.6 477.771 270.591C500.019 270.591 523.009 270.591 533.836 270.591C532.897 247.769 532.864 233.713 543.774 186.881C543.774 186.881 532.024 184.327 519.96 183.75C510.534 183.289 502.788 182.992 494.499 183.75C483.572 184.739 471.179 187.277 471.179 187.277Z" fill="#263238"/>
<path opacity="0.4" d="M470.668 218.371C471.031 222.31 471.509 226.742 472.135 231.752C476.733 227.616 480.474 215.85 479.106 208.995C475.893 211.384 472.926 215.076 470.668 218.371Z" fill="black"/>
<path d="M476.668 206.095C473.619 213.79 470.257 221.123 466.483 228.44C462.709 235.739 458.671 242.907 453.315 249.861L452.261 251.163L451.733 251.806C451.552 252.02 451.404 252.218 451.124 252.514C450.102 253.635 448.998 254.607 447.861 255.415C445.586 257.029 443.246 258.068 440.972 258.859C436.423 260.391 432.007 260.935 427.722 261.198C419.103 261.544 410.962 260.754 402.738 258.974L403.645 252.036C407.435 252.053 411.407 251.971 415.23 251.723C419.086 251.526 422.893 251.114 426.552 250.455C430.194 249.845 433.721 248.922 436.671 247.637C438.121 246.994 439.39 246.203 440.313 245.412C440.774 245.017 441.153 244.621 441.433 244.226C441.499 244.176 441.648 243.946 441.763 243.781L442.142 243.237L442.917 242.149C446.971 236.135 450.547 229.165 453.942 222.194C457.287 215.191 460.517 207.924 463.533 200.822L476.668 206.095Z" fill="#803E3C"/>
<path d="M471.18 187.277C464.324 188.941 455.87 207.776 455.87 207.776L470.108 228.703C470.108 228.703 489.06 204.843 486.819 197.543C484.462 189.963 479.502 185.25 471.18 187.277Z" fill="#263238"/>
<path d="M407.6 253.042L395.718 247.554L394.531 259.369C394.531 259.369 404.452 262.286 409.347 259.304L407.6 253.042Z" fill="#7F3E3B"/>
<path d="M388.615 246.368L387.478 255.349L394.531 259.369L395.718 247.554L388.615 246.368Z" fill="#7F3E3B"/>
<path d="M525.415 139.094C522.91 152.557 522.119 158.308 514.406 164.438C502.805 173.632 486.802 167.601 485.253 153.661C483.853 141.104 488.187 121.198 502.145 117.441C515.89 113.734 527.92 125.631 525.415 139.094Z" fill="#7F3E3B"/>
<path d="M495.833 141.928C495.059 148.8 494.762 166.629 509.858 167.189C528.348 167.882 533.886 152.079 532.238 145.768C541.846 137.94 543.246 124.478 532.435 114.179C521.625 103.88 497.827 109.631 491.186 119.666C482.93 132.124 495.833 141.928 495.833 141.928Z" fill="#263238"/>
<path d="M514.341 118.199C513.451 110.965 514.143 105.956 520.916 105.956C527.689 105.956 536.968 108.411 540.363 115.365C543.757 122.302 544.038 133.145 534.562 132.058C525.086 130.937 515.412 126.867 514.341 118.199Z" fill="#DE7E32"/>
<path d="M524.855 116.453C523.24 107.818 530.936 83.4959 549.723 81.914C558.425 81.1889 562.446 90.5487 557.897 92.0811C566.121 91.9823 571.411 102.874 563.731 104.506C569.812 108.395 568.296 116.37 559.644 120.292C553.25 123.192 527.08 128.399 524.855 116.453Z" fill="#263238"/>
<path d="M544.911 125.73C538.863 125.73 532.551 124.84 528.629 122.22C526.256 120.622 524.954 118.513 524.756 115.942C524.74 115.711 524.904 115.513 525.135 115.497C525.382 115.481 525.564 115.645 525.58 115.876C525.761 118.183 526.931 120.078 529.09 121.528C536.539 126.521 553.777 124.906 559.183 123.143C563.83 121.627 566.978 118.694 567.604 115.283C568.065 112.778 567.077 110.422 564.852 108.609C564.671 108.461 564.654 108.214 564.786 108.032C564.934 107.851 565.181 107.835 565.363 107.966C567.818 109.944 568.922 112.663 568.412 115.431C567.736 119.139 564.374 122.319 559.446 123.917C556.612 124.857 550.893 125.73 544.911 125.73Z" fill="#263238"/>
<path d="M491.631 140.116C489.983 142.406 489.505 145.257 489.868 147.547C490.411 151.008 493.79 151.239 496.229 149.014C498.421 147.02 500.777 142.818 498.981 139.951C497.201 137.133 493.51 137.496 491.631 140.116Z" fill="#7F3E3B"/>
<path d="M492.57 270.591C492.57 270.591 500.58 365.325 508.886 418.715C515.593 461.839 520.899 562.637 520.899 562.637H539.72C539.72 562.637 546.41 464.854 542.999 422.192C534.38 314.259 553.612 305.476 533.82 270.575H492.57V270.591Z" fill="#DE7E32"/>
<path opacity="0.4" d="M516.269 306.399C508.671 314.16 502.887 323.437 498.487 333.225C500.679 354.515 503.282 378.145 506.051 398.842C514.621 377.206 521.954 343.92 516.269 306.399Z" fill="black"/>
<path d="M479.403 269.998C479.403 269.998 462.016 373.466 459.281 420.099C466.103 463.223 494.021 554.382 494.021 554.382L511.143 548.186C511.143 548.186 501.667 448.788 491.318 421.582C514.505 343.524 531.546 323.8 526.585 270.608C514.752 270.591 479.403 269.998 479.403 269.998Z" fill="#DE7E32"/>
<path d="M491.73 558.929L514.868 552.635L513.55 543.423L488.78 550.114L491.73 558.929Z" fill="#263238"/>
<path d="M518.329 563.016H542.307L543.559 554.596L518.197 553.739L518.329 563.016Z" fill="#263238"/>
<path d="M534.677 267.296L537.199 272.321C537.396 272.717 536.935 273.112 536.292 273.112H477.491C476.981 273.112 476.569 272.865 476.536 272.552L476.025 267.543C475.992 267.197 476.42 266.9 476.981 266.9H533.754C534.183 266.884 534.545 267.048 534.677 267.296Z" fill="#407BFF"/>
<path d="M534.677 267.296L537.199 272.321C537.396 272.717 536.935 273.112 536.292 273.112H477.491C476.981 273.112 476.569 272.865 476.536 272.552L476.025 267.543C475.992 267.197 476.42 266.9 476.981 266.9H533.754C534.183 266.884 534.545 267.048 534.677 267.296Z" fill="url(#paint1_linear_44_183)"/>
<path d="M527.046 273.64H528.563C528.859 273.64 529.09 273.491 529.074 273.294L528.365 266.768C528.348 266.57 528.085 266.422 527.772 266.422H526.255C525.959 266.422 525.728 266.57 525.744 266.768L526.453 273.294C526.486 273.491 526.75 273.64 527.046 273.64Z" fill="#407BFF"/>
<path d="M506.644 225.622C506.265 225.622 505.952 225.375 505.853 225.012C500.481 205.156 489.307 188.809 483.968 186.288C483.375 186.008 482.88 185.925 482.584 186.057C482.172 186.239 481.677 186.057 481.496 185.645C481.315 185.233 481.496 184.739 481.908 184.558C482.683 184.212 483.605 184.294 484.677 184.805C490.362 187.491 501.635 203.64 507.271 223.974C511.308 223.925 517.538 223.414 519.054 223.298C520.933 221.057 534.759 203.788 529.585 184.904C529.469 184.459 529.716 184.014 530.161 183.899C530.59 183.783 531.051 184.03 531.167 184.475C536.918 205.502 520.24 224.468 520.059 224.65C519.927 224.798 519.73 224.897 519.515 224.913C519.449 224.913 511.226 225.622 506.644 225.622Z" fill="#DE7E32"/>
<path d="M533.935 237.272C524.954 220.431 521.279 219.261 519.68 213.84C519.68 213.84 521.13 209.753 524.805 205.617C523.701 205.304 521.378 204.843 519.911 204.562C520.076 203.821 520.24 203.096 520.422 202.404C519.202 202.074 516.681 202.42 515.395 202.634L515.346 200.97C515.346 200.97 510.797 200.064 508.952 200.558C509.133 201.316 509.314 202.124 509.496 202.931C507.897 203.244 505.326 203.755 504.123 204.085C507.617 208.023 508.886 212.225 509.149 213.263C504.304 221.568 485.484 275.073 516.104 279.094C546.724 283.131 542.917 254.113 533.935 237.272Z" fill="#407BFF"/>
<path d="M533.935 237.272C524.954 220.431 521.279 219.261 519.68 213.84C519.68 213.84 521.13 209.753 524.805 205.617C523.701 205.304 521.378 204.843 519.911 204.562C520.076 203.821 520.24 203.096 520.422 202.404C519.202 202.074 516.681 202.42 515.395 202.634L515.346 200.97C515.346 200.97 510.797 200.064 508.952 200.558C509.133 201.316 509.314 202.124 509.496 202.931C507.897 203.244 505.326 203.755 504.123 204.085C507.617 208.023 508.886 212.225 509.149 213.263C504.304 221.568 485.484 275.073 516.104 279.094C546.724 283.131 542.917 254.113 533.935 237.272Z" fill="#DFBDA2"/>
<path d="M508.012 211.681C507.782 212.093 507.798 213.642 507.765 214.252C507.732 214.878 509.38 215.29 511.226 215.455C513.088 215.619 520.735 215.932 520.504 215.076C520.257 214.219 520.883 213.049 520.916 212.324C520.949 211.599 517.867 211.566 515.28 211.665C512.693 211.763 508.523 210.758 508.012 211.681Z" fill="#DE7E32"/>
<path d="M490.197 273.64H491.713C492.01 273.64 492.241 273.491 492.224 273.294L491.516 266.768C491.499 266.57 491.236 266.422 490.922 266.422H489.406C489.11 266.422 488.879 266.57 488.895 266.768L489.604 273.294C489.62 273.491 489.884 273.64 490.197 273.64Z" fill="url(#paint2_linear_44_183)"/>
<defs>
<linearGradient id="paint0_linear_44_183" x1="439.631" y1="450.612" x2="204.43" y2="446.807" gradientUnits="userSpaceOnUse">
<stop stop-color="#E6224A"/>
<stop offset="1" stop-color="#E6224A" stop-opacity="0.9"/>
</linearGradient>
<linearGradient id="paint1_linear_44_183" x1="534.729" y1="272.481" x2="478.842" y2="258.806" gradientUnits="userSpaceOnUse">
<stop stop-color="#E6224A"/>
<stop offset="1" stop-color="#E6224A" stop-opacity="0.9"/>
</linearGradient>
<linearGradient id="paint2_linear_44_183" x1="492.088" y1="272.906" x2="488.866" y2="272.869" gradientUnits="userSpaceOnUse">
<stop stop-color="#E6224A"/>
<stop offset="1" stop-color="#E6224A" stop-opacity="0.9"/>
</linearGradient>
</defs>
</svg>
