<svg width="17" height="13" viewBox="0 0 17 13" fill="none" xmlns="http://www.w3.org/2000/svg">
<path d="M15.4181 0H1.58194C0.708259 0 0 0.710863 0 1.58776C0 2.11863 0.264345 2.61438 0.704439 2.90885L7.15287 7.22361C7.25484 7.29184 7.36067 7.35154 7.46939 7.40271C8.23045 7.76092 9.13334 7.70122 9.84713 7.22361L16.2956 2.90885C16.7357 2.61438 17 2.11863 17 1.58776C17 0.710863 16.2917 0 15.4181 0Z" fill="#747274"/>
<path d="M0.404762 5.6875C0.404762 5.51786 0.422027 5.35227 0.454891 5.1924C0.547592 4.74145 1.08004 4.62493 1.46176 4.88035L6.47931 8.23767C7.70294 9.05643 9.29706 9.05643 10.5207 8.23767L15.5382 4.88035C15.92 4.62493 16.4524 4.74145 16.5451 5.1924C16.578 5.35227 16.5952 5.51786 16.5952 5.6875V11.375C16.5952 12.2725 15.8704 13 14.9762 13H2.02381C1.12963 13 0.404762 12.2725 0.404762 11.375V5.6875Z" fill="#747274"/>
</svg>
