<svg width="7" height="23" viewBox="0 0 7 23" fill="none" xmlns="http://www.w3.org/2000/svg">
<path d="M3.5 8.78125C4.94922 8.78125 6.125 9.99902 6.125 11.5C6.125 13.001 4.94922 14.2188 3.5 14.2188C2.05078 14.2188 0.875 13.001 0.875 11.5C0.875 9.99902 2.05078 8.78125 3.5 8.78125ZM0.875 2.89062C0.875 4.3916 2.05078 5.60938 3.5 5.60938C4.94922 5.60938 6.125 4.3916 6.125 2.89062C6.125 1.38965 4.94922 0.171875 3.5 0.171875C2.05078 0.171875 0.875 1.38965 0.875 2.89062ZM0.875 20.1094C0.875 21.6104 2.05078 22.8281 3.5 22.8281C4.94922 22.8281 6.125 21.6104 6.125 20.1094C6.125 18.6084 4.94922 17.3906 3.5 17.3906C2.05078 17.3906 0.875 18.6084 0.875 20.1094Z" fill="#E6224A"/>
</svg>
