<svg xmlns="http://www.w3.org/2000/svg" xmlns:xlink="http://www.w3.org/1999/xlink" width="37.653" height="35.035" viewBox="0 0 37.653 35.035">
  <path id="image_1_traced_" data-name="image 1 (traced)" d="M40.018,48.164c-.147.147-.164.27-.164,1.309v1.145h-1.8c-2.291,0-2.127-.115-2.127,1.473v1.145h-1.8c-1.694,0-1.808.008-1.964.164S32,53.67,32,61.745s0,8.182.164,8.345.27.164,1.964.164h1.8V71.4c0,1.587-.164,1.473,2.127,1.473h1.8v1.145c0,1.039.016,1.162.164,1.309s.27.164,4.254.164h4.091V78.6c0,3,.008,3.117.164,3.273s.27.164,1.8.164,1.644-.008,1.8-.164.164-.27.164-3.273V75.49h4.091c3.984,0,4.1-.008,4.254-.164s.164-.27.164-1.309V72.872h1.8c2.291,0,2.127.115,2.127-1.473V70.254h1.8c1.694,0,1.808-.008,1.964-.164s.164-.27.164-8.345,0-8.182-.164-8.345-.27-.164-1.964-.164h-1.8V52.091c0-1.587.164-1.473-2.127-1.473H60.8V49.473c0-1.039-.016-1.162-.164-1.309C60.472,48,60.365,48,50.327,48S40.182,48,40.018,48.164ZM59.49,61.745V74.181h-7.2V73.69c0-.671-.147-.818-.818-.818h-.491V69.6h.278a9.366,9.366,0,0,0,2.348-.63,8.038,8.038,0,0,0,4.483-5.784,10.485,10.485,0,0,0-.065-3.158,7.993,7.993,0,0,0-5.694-5.907,10.57,10.57,0,0,0-3.993,0,7.964,7.964,0,0,0-5.3,4.631,8.3,8.3,0,0,0-.434,1.383,10.667,10.667,0,0,0-.049,3.019,7.9,7.9,0,0,0,5.907,6.283,6,6,0,0,0,.949.164h.262v3.273h-.491c-.671,0-.818.147-.818.818v.491h-7.2V49.309H59.49Zm-23.563,0v7.2H33.309v-14.4h2.618Zm31.417,0v7.2H64.726v-14.4h2.618Zm-16.167-4.32a1.9,1.9,0,0,1,.515,2.994l-.262.27.245.18a3.289,3.289,0,0,1,.941,1.039,6.813,6.813,0,0,1,.327,2.88v1.538H47.709V64.789a6.814,6.814,0,0,1,.327-2.88,3.29,3.29,0,0,1,.941-1.039l.245-.18-.262-.27a1.911,1.911,0,0,1,.507-2.994A1.809,1.809,0,0,1,51.178,57.425Z" transform="translate(-31.5 -47.5)" stroke="currentColor" stroke-width="1" fill="currentColor"/>
</svg>
