<svg id="Group_2611" data-name="Group 2611" xmlns="http://www.w3.org/2000/svg" width="59.022" height="59.022" viewBox="0 0 59.022 59.022">
  <g id="Group_1668" data-name="Group 1668">
    <rect id="Rectangle_1708" data-name="Rectangle 1708" width="59.022" height="59.022" rx="12" transform="translate(0)" fill="#e9ecf5" style="mix-blend-mode: luminosity;isolation: isolate"/>
    <path id="face-id_1_Traced_" data-name="face-id 1 (Traced)" d="M3.866.143A5.122,5.122,0,0,0,.513,2.864C.038,3.84,0,4.083,0,6.382,0,8.3.006,8.393.141,8.564a.793.793,0,0,0,1.029.149c.3-.2.308-.249.349-2.333a7.249,7.249,0,0,1,.19-2.41A3.784,3.784,0,0,1,3.9,1.746c.456-.18.5-.184,2.467-.221,2.086-.039,2.1-.041,2.348-.347A.936.936,0,0,0,8.805.743a.583.583,0,0,0-.2-.533l-.2-.2L6.387.014A11.123,11.123,0,0,0,3.866.143ZM16.389.181a.745.745,0,0,0,.085,1.212c.193.117.372.129,1.967.13,1.962,0,2.349.056,3.05.43a3.735,3.735,0,0,1,1.755,2.034c.168.443.176.532.213,2.465.035,1.843.049,2.017.169,2.15a.8.8,0,0,0,1.214-.083c.124-.2.134-.358.134-2.063a7.459,7.459,0,0,0-.392-3.317A5.331,5.331,0,0,0,21.434.233c-.543-.183-.579-.186-2.69-.209L16.6,0Zm-15.95,16a.914.914,0,0,0-.292.246C0,16.6,0,16.672,0,18.609c0,2.3.033,2.524.536,3.556a3.74,3.74,0,0,0,.941,1.273,4.666,4.666,0,0,0,2.015,1.3l.6.215,2.15.023L8.395,25l.206-.206a.589.589,0,0,0,.206-.526c0-.749-.121-.792-2.25-.793-1.905,0-2.354-.061-3.036-.406a3.966,3.966,0,0,1-1.55-1.509c-.417-.793-.458-1.065-.458-3.021,0-1.984-.032-2.154-.443-2.325A.714.714,0,0,0,.44,16.178Zm23.39.067a.947.947,0,0,0-.292.27,11.609,11.609,0,0,0-.073,1.885,8.535,8.535,0,0,1-.136,2.28,3.627,3.627,0,0,1-2.315,2.57c-.46.175-.53.181-2.479.218-1.811.035-2.019.051-2.144.164a.78.78,0,0,0-.006,1.178l.209.176h1.939c2.226,0,2.667-.067,3.606-.543a5.007,5.007,0,0,0,2.324-2.381c.455-.938.515-1.354.515-3.56,0-2.057,0-2.077-.414-2.289A.66.66,0,0,0,23.83,16.244Z" transform="translate(17.021 17.013)" fill="#004c97" fill-rule="evenodd" style="mix-blend-mode: luminosity;isolation: isolate"/>
  </g>
  <g id="Group_1745" data-name="Group 1745" transform="translate(17.123 17.055)">
    <path id="face-id_1_Traced_2" data-name="face-id 1 (Traced)" d="M3.849.142A5.1,5.1,0,0,0,.511,2.852C.037,3.823,0,4.066,0,6.355c0,1.907.005,2,.139,2.173a.79.79,0,0,0,1.025.149c.3-.2.307-.248.347-2.323a7.219,7.219,0,0,1,.189-2.4A3.768,3.768,0,0,1,3.888,1.739c.454-.179.5-.183,2.457-.22,2.077-.039,2.09-.041,2.338-.345A.932.932,0,0,0,8.768.74a.581.581,0,0,0-.2-.531l-.2-.2L6.36.014A11.076,11.076,0,0,0,3.849.142ZM16.32.18A.742.742,0,0,0,16.4,1.387c.192.117.371.129,1.958.13,1.954,0,2.339.056,3.037.428a3.719,3.719,0,0,1,1.748,2.026c.168.441.175.53.212,2.455.035,1.835.049,2.009.169,2.141a.8.8,0,0,0,1.209-.082c.123-.2.133-.357.133-2.054a7.428,7.428,0,0,0-.39-3.3A5.308,5.308,0,0,0,21.344.232C20.8.05,20.767.047,18.665.024L16.534,0ZM7.689,7.372c-.4.18-.435.373-.412,2.276l.02,1.679.224.2a.752.752,0,0,0,1.049,0l.2-.2V7.754l-.188-.209A.753.753,0,0,0,7.689,7.372Zm4.385,0c-.408.183-.426.3-.426,2.938,0,2.844.057,2.675-.979,2.888a.763.763,0,0,0-.46.737.652.652,0,0,0,.2.48c.19.213.223.224.668.218a2.044,2.044,0,0,0,1.87-1.21l.208-.416V7.754l-.188-.209A.753.753,0,0,0,12.074,7.372Zm4.385,0c-.4.18-.435.373-.412,2.276l.02,1.679.224.2a.752.752,0,0,0,1.049,0l.2-.2V7.754l-.188-.209A.753.753,0,0,0,16.459,7.372ZM.438,16.109a.91.91,0,0,0-.291.245C0,16.535,0,16.6,0,18.531c0,2.293.033,2.513.534,3.541A3.724,3.724,0,0,0,1.47,23.34a4.646,4.646,0,0,0,2.006,1.292l.6.214,2.141.023,2.141.023.205-.205a.586.586,0,0,0,.205-.524c0-.746-.121-.788-2.241-.79-1.9,0-2.344-.061-3.023-.4a3.949,3.949,0,0,1-1.543-1.5c-.415-.789-.456-1.06-.456-3.008,0-1.975-.032-2.145-.441-2.316A.711.711,0,0,0,.438,16.109Zm7.943.066a.654.654,0,0,0-.344.75c.03.27.084.359.367.618a5.977,5.977,0,0,0,2.536,1.349,8.221,8.221,0,0,0,3.072-.029c1.383-.373,2.844-1.415,2.844-2.028a.818.818,0,0,0-.454-.7c-.368-.154-.617-.075-1.122.355a3.966,3.966,0,0,1-2.844,1,4.08,4.08,0,0,1-2.81-.945C8.961,15.991,8.775,15.936,8.381,16.176Zm15.348,0a.943.943,0,0,0-.291.269,11.56,11.56,0,0,0-.073,1.877,8.5,8.5,0,0,1-.136,2.271,3.612,3.612,0,0,1-2.305,2.559c-.458.174-.528.18-2.468.217-1.8.035-2.011.05-2.135.163a.777.777,0,0,0-.006,1.173l.208.175h1.93c2.216,0,2.656-.067,3.591-.541a4.986,4.986,0,0,0,2.314-2.371c.453-.934.513-1.348.513-3.545,0-2.048,0-2.069-.412-2.28A.657.657,0,0,0,23.729,16.176Z" transform="translate(0)" fill="rgba(0,76,150,0.48)" fill-rule="evenodd" style="mix-blend-mode: luminosity;isolation: isolate"/>
  </g>
</svg>
