<svg xmlns="http://www.w3.org/2000/svg" width="176" height="122.197" viewBox="0 0 176 122.197">
  <g id="Group_743" data-name="Group 743" transform="translate(-100 -301.803)">
    <text id="Demobank" transform="translate(100 413)" fill="#d51827" font-size="32" font-family="Poppins-SemiBold, Poppins" font-weight="600" letter-spacing="-0.02em"><tspan x="0" y="0">Demobank</tspan></text>
    <path id="Icon_map-bank" data-name="Icon map-bank" d="M44,35.627Q40.966,33.232,34.89,31.8l-3.108-.733V17.8l.421.172a7.849,7.849,0,0,1,4.249,6.678H47.03c-.193-5.63-2.273-9.793-6.241-12.735a21.571,21.571,0,0,0-9.008-3.845V.72H21.93V7.842q-6.834.844-10.822,4.414A15.139,15.139,0,0,0,5.9,24.014q0,7.754,5.324,11.4c1.987,1.378,5.569,2.657,10.707,3.842V53.635a8.465,8.465,0,0,1-4.376-2.6,8.914,8.914,0,0,1-2.007-5.281H5.04c0,5.63,1.986,9.669,5.959,12.8a22.041,22.041,0,0,0,10.93,4.229v5.488h9.852V62.884a20.847,20.847,0,0,0,11.347-4.51,15.118,15.118,0,0,0,5.581-11.99Q48.709,39.343,44,35.627ZM18.647,27.439a4.523,4.523,0,0,1-2.564-4.222,5.442,5.442,0,0,1,2.6-4.8,9.966,9.966,0,0,1,3.246-1.333V28.661A16.97,16.97,0,0,1,18.647,27.439ZM33.391,53.347a13.708,13.708,0,0,1-1.609.431V41.537a17.578,17.578,0,0,1,4.008,1.638A4.517,4.517,0,0,1,38.1,47.221C38.1,50.2,36.526,52.25,33.391,53.347Z" transform="translate(160.742 301.083)" fill="#d51827"/>
  </g>
</svg>
