<svg xmlns="http://www.w3.org/2000/svg" width="23.127" height="23.146" viewBox="0 0 23.127 23.146">
  <path id="face-id_1_Traced_" data-name="face-id 1 (Traced)" d="M3.5.129A4.64,4.64,0,0,0,.465,2.595C.034,3.478,0,3.7,0,5.781,0,7.516.006,7.6.127,7.758a.719.719,0,0,0,.932.135c.273-.182.279-.225.316-2.113A6.567,6.567,0,0,1,1.547,3.6a3.428,3.428,0,0,1,1.99-2.015c.413-.163.455-.167,2.235-.2,1.89-.035,1.9-.037,2.127-.314A.848.848,0,0,0,7.977.673.529.529,0,0,0,7.8.19L7.614.008l-1.828,0A10.077,10.077,0,0,0,3.5.129ZM14.847.164a.675.675,0,0,0,.077,1.1c.174.106.337.117,1.781.118,1.777,0,2.128.051,2.763.389a3.383,3.383,0,0,1,1.59,1.843c.153.4.16.482.193,2.233.032,1.669.045,1.827.153,1.948a.729.729,0,0,0,1.1-.075c.112-.184.121-.325.121-1.869a6.757,6.757,0,0,0-.355-3A4.829,4.829,0,0,0,19.417.211C18.925.045,18.892.043,16.98.021L15.041,0ZM6.995,6.706c-.364.163-.4.339-.375,2.07L6.638,10.3l.2.182a.684.684,0,0,0,.954,0l.182-.182V7.054l-.171-.19A.685.685,0,0,0,6.995,6.706Zm3.989,0c-.371.167-.387.277-.387,2.672,0,2.587.052,2.433-.89,2.627a.694.694,0,0,0-.419.67.593.593,0,0,0,.182.436c.173.194.2.2.608.2a1.859,1.859,0,0,0,1.7-1.1l.189-.379V7.054l-.171-.19A.685.685,0,0,0,10.984,6.706Zm3.989,0c-.364.163-.4.339-.375,2.07l.019,1.527.2.182a.684.684,0,0,0,.954,0l.182-.182V7.054l-.171-.19A.685.685,0,0,0,14.973,6.706ZM.4,14.655a.828.828,0,0,0-.265.223C0,15.042,0,15.1,0,16.858c0,2.086.03,2.286.485,3.221a3.388,3.388,0,0,0,.852,1.153,4.227,4.227,0,0,0,1.825,1.175l.546.195,1.948.021,1.948.021.187-.187a.533.533,0,0,0,.187-.476c0-.678-.11-.717-2.038-.719-1.726,0-2.133-.056-2.751-.367a3.593,3.593,0,0,1-1.4-1.367c-.377-.718-.415-.964-.415-2.737,0-1.8-.029-1.951-.4-2.106A.647.647,0,0,0,.4,14.655Zm7.226.06a.6.6,0,0,0-.313.682c.028.245.076.327.334.562a5.437,5.437,0,0,0,2.307,1.227,7.479,7.479,0,0,0,2.795-.027c1.258-.339,2.587-1.287,2.587-1.845a.744.744,0,0,0-.413-.635c-.335-.14-.561-.069-1.021.323a3.608,3.608,0,0,1-2.587.908,3.712,3.712,0,0,1-2.556-.86C8.152,14.547,7.983,14.5,7.624,14.715Zm13.963,0a.858.858,0,0,0-.265.245,10.517,10.517,0,0,0-.066,1.707,7.731,7.731,0,0,1-.123,2.066,3.286,3.286,0,0,1-2.1,2.328c-.417.158-.48.164-2.246.2-1.641.032-1.829.046-1.942.149a.707.707,0,0,0-.005,1.067l.19.16h1.756c2.016,0,2.416-.061,3.267-.492a4.536,4.536,0,0,0,2.106-2.157c.412-.85.467-1.226.467-3.225,0-1.863,0-1.882-.375-2.074A.6.6,0,0,0,21.587,14.715Z" transform="translate(0.25 0.251)" fill="#456efe" stroke="#456efe" stroke-width="0.5" fill-rule="evenodd"/>
</svg>
