<svg xmlns="http://www.w3.org/2000/svg" xmlns:xlink="http://www.w3.org/1999/xlink" width="144" height="101" viewBox="0 0 144 101"><defs><style>.a,.g{fill:#fff;}.a{stroke:#707070;}.b{clip-path:url(#a);}.c,.d{fill:#6c63ff;}.c,.n,.p{opacity:0.1;}.e{fill:#444053;}.f{fill:#3f3d56;}.h{fill:#fa5959;}.h,.i,.j{opacity:0.8;}.i{fill:#fed253;}.j{fill:#8ccf4d;}.k{opacity:0.05;}.l{fill:url(#b);}.m{fill:#fbbebe;}.o{fill:#33313f;}</style><clipPath id="a"><rect class="a" width="144" height="101" transform="translate(704 168)"/></clipPath><linearGradient id="b" y1="0.5" x2="1" y2="0.5" gradientUnits="objectBoundingBox"><stop offset="0" stop-color="gray" stop-opacity="0.251"/><stop offset="0.54" stop-color="gray" stop-opacity="0.122"/><stop offset="1" stop-color="gray" stop-opacity="0.102"/></linearGradient></defs><g class="b" transform="translate(-704 -168)"><g transform="translate(704 168.696)"><path class="c" d="M83.77,20.046c-9.23.012-18.115-2.6-26.613-5.511S40.227,8.374,31.169,6.994c-5.826-.887-12.451-.805-17,2.414-4.384,3.1-5.653,8.223-6.265,12.958-.461,3.562-.673,7.3,1.052,10.56,1.2,2.262,3.248,4.127,4.692,6.283,5.043,7.5,2.01,17.081-2.891,24.755-2.3,3.6-4.99,7.052-6.727,10.859S1.575,82.947,3.347,86.7c1.756,3.724,5.722,6.427,9.978,8.273,8.644,3.756,18.707,4.561,28.5,4.871,21.678.688,43.4-.715,65.061-2.118a193.807,193.807,0,0,0,23.919-2.544c4.359-.833,8.847-2.071,11.938-4.782a9.867,9.867,0,0,0,1.871-13.1c-4.787-6.777-17.411-8.055-20.844-15.387-1.893-4.037-.261-8.666,2.144-12.557,5.157-8.349,14.032-15.827,14.182-25.164.1-6.412-4.513-12.668-11.407-15.455-7.226-2.919-17.079-2.168-22.141,3.272C101.343,17.616,91.92,20.038,83.77,20.046Z" transform="translate(-2.32 -6.511)"/><path class="d" d="M138.16,94.995a3.356,3.356,0,0,0-3.022-.289s.463.892,2.367.808Z" transform="translate(-15.602 -15.305)"/><path class="d" d="M138.6,95.114a3.355,3.355,0,0,1-.7,2.955s-.7-.725,0-2.5Z" transform="translate(-15.847 -15.371)"/><path class="d" d="M140.419,93.117s-.112-1.5-3.49-1a1.611,1.611,0,0,0,1.169,1.421A1.95,1.95,0,0,0,140.419,93.117Z" transform="translate(-15.781 -15.061)"/><path class="d" d="M140.932,93.228s1.427.458.154,3.625a1.615,1.615,0,0,1-1.111-1.471A1.936,1.936,0,0,1,140.932,93.228Z" transform="translate(-16.082 -15.182)"/><path class="d" d="M142.8,90.623s.194-2.461-3.257-2.209c0,0-.247,2.223,2.649,2.8Z" transform="translate(-16.042 -14.699)"/><path class="d" d="M145.259,87.549s-.473-2.789-3.923-1.958c0,0-.012,2.412,3.36,2.623Z" transform="translate(-16.222 -14.403)"/><path class="d" d="M147.079,84.364s-.793-2.717-4.211-1.9a3.95,3.95,0,0,0,3.983,2.405Z" transform="translate(-16.375 -14.09)"/><path class="d" d="M148.853,81.238s-.774-2.819-4.075-1.976a4.024,4.024,0,0,0,3.856,2.452Z" transform="translate(-16.566 -13.77)"/><path class="d" d="M150.031,78.2s-.6-3.448-3.672-2.684c0,0,.894,3.136,3.446,3.187Z" transform="translate(-16.724 -13.401)"/><path class="d" d="M151.077,74.643s-.715-3.475-3.828-2.47c0,0,1.22,3.285,3.607,2.945Z" transform="translate(-16.813 -13.059)"/><path class="d" d="M151.762,71.233s-1.135-3.476-3.541-3.382c0,0,1.16,3.671,3.34,4.075Z" transform="translate(-16.91 -12.645)"/><path class="d" d="M152.223,67.929s-1.235-4.184-3.193-3.861c0,0,.854,3.2,3.124,4.513Z" transform="translate(-16.991 -12.265)"/><path class="d" d="M152.474,64.081s-1.158-3.486-3.087-3.625c0,0,.788,3.43,3.049,4.532Z" transform="translate(-17.027 -11.905)"/><path class="d" d="M152.774,60.471s-1.443-3.49-2.717-3.569c0,0,.627,3.436,2.593,4.142Z" transform="translate(-17.094 -11.55)"/><path class="d" d="M153.013,57.047s-.888-3.79-2.163-4.1c0,0,.174,3.1,2.035,4.389Z" transform="translate(-17.173 -11.154)"/><path class="d" d="M153.57,52.71s-.934-3.022-1.967-3.482c0,0,.2,3.562,1.729,4.221Z" transform="translate(-17.248 -10.782)"/><path class="d" d="M154.145,49.624l.188-5.327s-1.932,4.016-.327,6.262Z" transform="translate(-17.425 -10.289)"/><path class="d" d="M155.805,43.872a29.188,29.188,0,0,1,1.729-4.107s-2.729,2.524-2.462,5.77Z" transform="translate(-17.593 -9.836)"/><path class="d" d="M143.2,90.849s2.447-.32,2.375,3.139c0,0-2.212.361-2.934-2.5Z" transform="translate(-16.352 -14.944)"/><path class="d" d="M145.761,87.679s2.828-.009,2.593,3.532c0,0-2.375.425-3.157-2.862Z" transform="translate(-16.608 -14.628)"/><path class="d" d="M147.552,84.821s2.567-1.2,4.209,1.9a3.95,3.95,0,0,1-4.437-1.4Z" transform="translate(-16.821 -14.319)"/><path class="d" d="M149.345,81.474s2.629-1.281,4.172,1.755a4.025,4.025,0,0,1-4.39-1.274Z" transform="translate(-17.001 -13.98)"/><path class="d" d="M150.389,78.48s2.53-2.417,4.549.027c0,0-2.584,1.989-4.665.511Z" transform="translate(-17.115 -13.601)"/><path class="d" d="M151.333,74.727s2.545-2.47,4.548.114c0,0-2.856,2.029-4.639.405Z" transform="translate(-17.212 -13.226)"/><path class="d" d="M151.872,71.222s1.961-3.087,4.27-2.4c0,0-2.035,3.269-4.248,3.123Z" transform="translate(-17.275 -12.732)"/><path class="d" d="M152.508,67.973s1.976-3.887,3.845-3.21c0,0-1.425,2.988-3.9,3.866Z" transform="translate(-17.334 -12.328)"/><path class="d" d="M152.644,63.957s2.031-3.06,3.934-2.686c0,0-1.661,3.1-4.132,3.571Z" transform="translate(-17.333 -11.984)"/><path class="d" d="M152.842,60.408s1.574-3.434,2.854-3.457c0,0-.756,3.409-2.747,4.04Z" transform="translate(-17.372 -11.555)"/><path class="d" d="M153.185,57.034s1.75-3.477,3.065-3.485c0,0-.9,2.973-3.007,3.79Z" transform="translate(-17.407 -11.215)"/><path class="d" d="M153.477,52.982s1.309-2.877,2.393-3.2c0,0-.654,3.507-2.249,3.966Z" transform="translate(-17.436 -10.838)"/><path class="d" d="M154.357,49.6l2.925-4.456s-.75,4.4-3.353,5.31Z" transform="translate(-17.481 -10.374)"/><path class="d" d="M156.478,44.425A29.433,29.433,0,0,0,160,41.7s-1.729,3.286-4.939,3.866Z" transform="translate(-17.594 -10.03)"/><path class="d" d="M156.851,43.138s3.9-3.753,4.9-3.749a6.372,6.372,0,0,0-4.994,3.549Z" transform="translate(-17.764 -9.799)"/><path class="e" d="M153.519,52.882l.142.019c.733-5.741,1.8-9.138,3.01-9.554l-.047-.136C155.344,43.656,154.268,47,153.519,52.882Z" transform="translate(-17.44 -10.181)"/><path class="e" d="M152.32,67.638l.215.017c.046-.536.08-1.084.1-1.631.2-4.752.522-9.115.94-12.386l-.123-.154c-.419,3.278-.826,7.773-1.031,12.532C152.4,66.559,152.366,67.1,152.32,67.638Z" transform="translate(-17.32 -11.208)"/><path class="e" d="M134.032,95.164a27.969,27.969,0,0,0,7.745-5.733,31.144,31.144,0,0,0,5.662-8.026,36.36,36.36,0,0,0,3.292-12.649l-.224.1a33.026,33.026,0,0,1-8.926,20.356,27.677,27.677,0,0,1-7.664,5.68Z" transform="translate(-15.48 -12.735)"/><path class="f" d="M131.626,18.205H12.976a1.057,1.057,0,0,0-1.057,1.057v3.08H132.683v-3.08A1.057,1.057,0,0,0,131.626,18.205Z" transform="translate(-3.28 -7.68)"/><path class="g" d="M11.919,22.8V92.1a2.131,2.131,0,0,0,2.131,2.131h116.5a2.131,2.131,0,0,0,2.131-2.131V22.8Z" transform="translate(-3.28 -8.14)"/><circle class="h" cx="0.494" cy="0.494" r="0.494" transform="translate(10.057 12.068)"/><circle class="i" cx="0.494" cy="0.494" r="0.494" transform="translate(11.416 12.068)"/><circle class="j" cx="0.494" cy="0.494" r="0.494" transform="translate(12.774 12.068)"/><rect class="k" width="97.056" height="42.677" transform="translate(19.864 26.217)"/><rect class="f" width="95.574" height="41.736" transform="translate(20.605 26.54)"/><path class="d" d="M53.108,47.935a9.508,9.508,0,1,0,9.508,9.508,9.508,9.508,0,0,0-9.508-9.508Zm1.705,9.736v4.5H51.452v-4.5a2.784,2.784,0,1,1,3.361,0Z" transform="translate(-6.448 -10.653)"/><path class="k" d="M53.108,47.935a9.508,9.508,0,1,0,9.508,9.508,9.508,9.508,0,0,0-9.508-9.508Zm1.705,9.736v4.5H51.452v-4.5a2.784,2.784,0,1,1,3.361,0Z" transform="translate(-6.448 -10.653)"/><path class="d" d="M52.806,44.917A12.225,12.225,0,1,0,65.03,57.141,12.225,12.225,0,0,0,52.806,44.917ZM55,57.435v5.788H50.676V57.435a3.581,3.581,0,1,1,4.322,0Z" transform="translate(-6.146 -10.351)"/><rect class="g" width="39.514" height="4.198" transform="translate(63.947 45.186)"/><rect class="d" width="8.52" height="4.198" transform="translate(94.941 52.842)"/><path class="d" d="M77.5,58.884H76.78l.636-.635a.063.063,0,0,0,0-.088.062.062,0,0,0-.088,0l-.636.636v-.716a.062.062,0,0,0-.062-.062.063.063,0,0,0-.062.062V58.8l-.635-.64a.062.062,0,0,0-.088,0,.063.063,0,0,0,0,.088l.636.635h-.716a.063.063,0,0,0-.062.062.062.062,0,0,0,.062.062h.716l-.636.636a.063.063,0,0,0,0,.088.064.064,0,0,0,.088,0l.635-.636v.715a.062.062,0,1,0,.123,0v-.715l.636.636a.064.064,0,0,0,.088,0,.063.063,0,0,0,0-.088L76.78,59H77.5a.06.06,0,1,0,0-.12Z" transform="translate(-9.659 -11.662)"/><path class="d" d="M80.376,58.884h-.715l.636-.635a.063.063,0,0,0,0-.088.062.062,0,0,0-.088,0l-.636.636v-.716a.062.062,0,0,0-.062-.062.063.063,0,0,0-.062.062V58.8l-.635-.64a.062.062,0,0,0-.088,0,.063.063,0,0,0,0,.088l.636.635h-.716a.063.063,0,0,0-.062.062.062.062,0,0,0,.062.062h.716l-.636.636a.063.063,0,0,0,0,.088.064.064,0,0,0,.088,0l.635-.636v.715a.062.062,0,1,0,.123,0v-.715l.636.636a.064.064,0,0,0,.088,0,.063.063,0,0,0,0-.088L79.661,59h.715a.06.06,0,1,0,0-.12Z" transform="translate(-9.947 -11.662)"/><path class="d" d="M83.257,58.884h-.715l.636-.635a.063.063,0,0,0,0-.088.062.062,0,0,0-.088,0l-.636.636v-.716a.062.062,0,0,0-.062-.062.063.063,0,0,0-.062.062V58.8l-.635-.64a.062.062,0,0,0-.088,0,.063.063,0,0,0,0,.088l.636.635h-.716a.063.063,0,0,0-.062.062.062.062,0,0,0,.062.062h.716l-.636.636a.063.063,0,0,0,0,.088.064.064,0,0,0,.088,0l.635-.636v.715a.062.062,0,1,0,.123,0v-.715l.636.636a.064.064,0,0,0,.088,0,.063.063,0,0,0,0-.088L82.543,59h.715a.06.06,0,1,0,0-.12Z" transform="translate(-10.235 -11.662)"/><path class="d" d="M86.139,58.884h-.715l.636-.635a.063.063,0,0,0,0-.088.062.062,0,0,0-.088,0l-.636.636v-.716a.062.062,0,0,0-.062-.062.063.063,0,0,0-.062.062V58.8l-.635-.64a.062.062,0,0,0-.088,0,.063.063,0,0,0,0,.088l.636.635H84.41a.063.063,0,0,0-.062.062A.062.062,0,0,0,84.41,59h.716l-.636.636a.063.063,0,0,0,0,.088.064.064,0,0,0,.088,0l.635-.636v.715a.062.062,0,0,0,.123,0v-.715l.636.636a.064.064,0,0,0,.088,0,.063.063,0,0,0,0-.088L85.424,59h.715a.06.06,0,1,0,0-.12Z" transform="translate(-10.523 -11.662)"/><path class="d" d="M89.02,58.884H88.3l.636-.635a.063.063,0,0,0,0-.088.062.062,0,0,0-.088,0l-.636.636v-.716a.062.062,0,0,0-.062-.062.063.063,0,0,0-.062.062V58.8l-.635-.64a.062.062,0,0,0-.088,0,.063.063,0,0,0,0,.088l.636.635h-.716a.063.063,0,0,0-.062.062.062.062,0,0,0,.062.062h.716l-.636.636a.063.063,0,0,0,0,.088.064.064,0,0,0,.088,0l.635-.636v.715a.062.062,0,1,0,.123,0v-.715l.636.636a.064.064,0,0,0,.088,0,.063.063,0,0,0,0-.088L88.3,59h.715a.06.06,0,1,0,0-.12Z" transform="translate(-10.811 -11.662)"/><path class="d" d="M91.9,58.884h-.715l.636-.635a.063.063,0,0,0,0-.088.062.062,0,0,0-.088,0L91.1,58.8v-.716a.062.062,0,0,0-.062-.062.063.063,0,0,0-.062.062V58.8l-.635-.64a.062.062,0,0,0-.088,0,.063.063,0,0,0,0,.088l.636.635h-.716a.063.063,0,0,0-.062.062.062.062,0,0,0,.062.062h.716l-.636.636a.063.063,0,0,0,0,.088.064.064,0,0,0,.088,0l.635-.636v.715a.062.062,0,0,0,.123,0v-.715l.636.636a.064.064,0,0,0,.088,0,.063.063,0,0,0,0-.088L91.186,59H91.9a.06.06,0,1,0,0-.12Z" transform="translate(-11.099 -11.662)"/><path class="d" d="M94.782,58.884h-.715l.636-.635a.063.063,0,0,0,0-.088.062.062,0,0,0-.088,0l-.636.636v-.716a.062.062,0,0,0-.062-.062.063.063,0,0,0-.062.062V58.8l-.635-.64a.062.062,0,0,0-.088,0,.063.063,0,0,0,0,.088l.636.635h-.716a.063.063,0,0,0-.062.062.062.062,0,0,0,.062.062h.716l-.636.636a.063.063,0,0,0,0,.088.064.064,0,0,0,.088,0l.635-.636v.715a.062.062,0,1,0,.123,0v-.715l.636.636a.064.064,0,0,0,.088,0,.063.063,0,0,0,0-.088L94.067,59h.715a.06.06,0,1,0,0-.12Z" transform="translate(-11.387 -11.662)"/><path class="d" d="M97.664,58.884h-.715l.636-.635a.063.063,0,0,0,0-.088.062.062,0,0,0-.088,0l-.636.636v-.716a.062.062,0,0,0-.062-.062.063.063,0,0,0-.062.062V58.8l-.635-.64a.062.062,0,0,0-.088,0,.063.063,0,0,0,0,.088l.636.635h-.716a.063.063,0,0,0-.062.062.062.062,0,0,0,.062.062h.716l-.636.636a.063.063,0,0,0,0,.088.064.064,0,0,0,.088,0l.635-.636v.715a.062.062,0,1,0,.123,0v-.715l.636.636a.064.064,0,0,0,.088,0,.063.063,0,0,0,0-.088L96.949,59h.715a.06.06,0,1,0,0-.12Z" transform="translate(-11.675 -11.662)"/><path class="d" d="M100.545,58.884H99.83l.636-.635a.063.063,0,0,0,0-.088.062.062,0,0,0-.088,0l-.636.636v-.716a.062.062,0,0,0-.062-.062.063.063,0,0,0-.062.062V58.8l-.635-.64a.062.062,0,0,0-.088,0,.063.063,0,0,0,0,.088l.636.635h-.716a.063.063,0,0,0-.062.062.062.062,0,0,0,.062.062h.716l-.636.636a.063.063,0,0,0,0,.088.064.064,0,0,0,.088,0l.635-.636v.715a.062.062,0,1,0,.123,0v-.715l.636.636a.064.064,0,0,0,.088,0,.063.063,0,0,0,0-.088L99.83,59h.715a.06.06,0,1,0,0-.12Z" transform="translate(-11.963 -11.662)"/><path class="d" d="M103.426,58.884h-.715l.636-.635a.063.063,0,0,0,0-.088.062.062,0,0,0-.088,0l-.636.636v-.716a.062.062,0,0,0-.062-.062.063.063,0,0,0-.062.062V58.8l-.635-.64a.062.062,0,0,0-.088,0,.063.063,0,0,0,0,.088l.636.635H101.7a.063.063,0,0,0-.062.062A.062.062,0,0,0,101.7,59h.716l-.636.636a.063.063,0,0,0,0,.088.064.064,0,0,0,.088,0l.635-.636v.715a.062.062,0,0,0,.123,0v-.715l.636.636a.064.064,0,0,0,.088,0,.063.063,0,0,0,0-.088L102.711,59h.715a.06.06,0,1,0,0-.12Z" transform="translate(-12.252 -11.662)"/><path class="d" d="M106.307,58.884h-.715l.636-.635a.063.063,0,0,0,0-.088.062.062,0,0,0-.088,0l-.636.636v-.716a.062.062,0,0,0-.062-.062.063.063,0,0,0-.062.062V58.8l-.635-.64a.062.062,0,0,0-.088,0,.063.063,0,0,0,0,.088l.636.635h-.716a.063.063,0,0,0-.062.062.062.062,0,0,0,.062.062h.716l-.636.636a.063.063,0,0,0,0,.088.064.064,0,0,0,.088,0l.635-.636v.715a.062.062,0,1,0,.123,0v-.715l.636.636a.064.064,0,0,0,.088,0,.063.063,0,0,0,0-.088L105.592,59h.715a.06.06,0,1,0,0-.12Z" transform="translate(-12.54 -11.662)"/><path class="l" d="M126.511,74.515a2.21,2.21,0,0,0-.056-.443,1.439,1.439,0,0,0-.774-1.048,6.5,6.5,0,0,1-1.227-.519,20.349,20.349,0,0,0-.1-3.961,10.079,10.079,0,0,1-.382-1.4,6.192,6.192,0,0,0-.143-1.786,1.762,1.762,0,0,0-1.043-.9,5.56,5.56,0,0,0-1.392-.247c-.593-.048-2.512-.275-3.181.254h0a.7.7,0,0,0-.123.123h0a.5.5,0,0,0-.04.064l-.006.01a.5.5,0,0,0-.033.08h0a.625.625,0,0,0-.021.093v.222c.009.111.025.222.025.332a.715.715,0,0,1-.015.163,1.141,1.141,0,0,1-.2.4h0l-.022.032c-.014.02-.027.038-.04.058s-.022.035-.032.052-.02.028-.028.044a.6.6,0,0,0-.032.063c0,.012-.014.023-.019.036a.61.61,0,0,0-.037.1.689.689,0,0,0-.007.328,1.223,1.223,0,0,0,.169.389c.031.051.064.1.1.149l.086.117a2.665,2.665,0,0,0-.026.346,2.555,2.555,0,0,0,.975,2.008,7.564,7.564,0,0,1-.016,1.567c-.011.109-.025.219-.04.327s-.026.18-.041.27a1.253,1.253,0,0,1-.54-.041,2.547,2.547,0,0,0-.247-.1c-.359-.09-.726.268-1.082.159a.145.145,0,0,1-.016.049.484.484,0,0,0-.247-.073.9.9,0,0,1-.536-.307l-.47-.443a.52.52,0,0,1-.081-.091.641.641,0,0,1-.057-.152,1.75,1.75,0,0,0-.456-.653.309.309,0,0,0-.135-.1.208.208,0,0,0-.062,0,.544.544,0,0,0-.041-.049,1.162,1.162,0,0,0-.1-.1c-.225-.207-.247-.385-.442-.617a5.933,5.933,0,0,1-.462-.7c-.016-.13-.038-.263-.065-.4a5.116,5.116,0,0,0-.27-.9l-.247-.547-.028.028c-.179-.267-.37-.412-.542-.378-.288.059-.43.617-.384,1.347l.1.741a.228.228,0,0,0,.014.056,1.367,1.367,0,0,0-.027.267c0,.1.1.18.147.273a.772.772,0,0,1,.123.421c-.006.053-.022.1-.025.156a.6.6,0,0,0,.116.321l.617,1.037.123.217.007.01a.527.527,0,0,0,.165.19,2.262,2.262,0,0,0,.2.75c.021.047.044.091.069.136a4.368,4.368,0,0,0,.583.757l.294.33c.29.324.58.648.9.947a1.2,1.2,0,0,0,.4.28.453.453,0,0,0,.449-.065v.459a.258.258,0,0,1,.2.406,10.183,10.183,0,0,1-.914,1.934,4.116,4.116,0,0,1,.766.584,3.444,3.444,0,0,1,.4.54c.011.091.02.182.025.272a11.065,11.065,0,0,1-.988,4.335,3.378,3.378,0,0,0-.3,1.227,2.41,2.41,0,0,0-.277.2,1.831,1.831,0,0,1,.051.783,1.387,1.387,0,0,1-.1.494,3.474,3.474,0,0,1-.178.317,4.712,4.712,0,0,0-.454,1.879c-.038.389.112.864-.064,1.213a4.961,4.961,0,0,0-.617,1.9,1.9,1.9,0,0,1-.057.443c-.038.123-.106.228-.141.349a1.5,1.5,0,0,0-.025.494,4.727,4.727,0,0,1-.259,1.742,2.369,2.369,0,0,0-.2,1.366,1.925,1.925,0,0,0-.522,1.147,1.808,1.808,0,0,1-.04.327,1.591,1.591,0,0,1-.148.315,2.756,2.756,0,0,0-.336,1.482,4.122,4.122,0,0,0-.666,1.739c-.11.616-.158,1.243-.3,1.852a17.266,17.266,0,0,0-.594,2.444,1.721,1.721,0,0,0-.649,1.219,5.425,5.425,0,0,1-.285,1.392c-.1.225-.247.426-.343.656a3.011,3.011,0,0,0-.148.564,2.2,2.2,0,0,0-.038.926,1.4,1.4,0,0,1-.362.275c.02-.077.036-.153.049-.231-.319.289-.9.188-1.151.535a.521.521,0,0,0,.123.715.988.988,0,0,0,.256.11,4.084,4.084,0,0,0,1.887.291.563.563,0,0,0,.214-.068.687.687,0,0,0,.2-.23c.1-.151.19-.3.284-.452a5.863,5.863,0,0,0,.693.162c.023.2.041.4.049.593.123.025.289.032.347-.083a.3.3,0,0,0,.021-.137c0-.088.012-.2.02-.322h.025a2.346,2.346,0,0,0,1.093-.221,7.068,7.068,0,0,1,.682-3.2c.4-1.089.741-2.2,1.085-3.307.247-.78.52-1.536.762-2.318q.457-1.482.917-2.964c.133-.435.268-.864.421-1.3a20.2,20.2,0,0,1,1.145-2.547c.123-.233.247-.464.348-.706.123-.3.211-.6.31-.909a14.077,14.077,0,0,1,.775-1.825c.009-.016.015-.031.023-.046.1.409.2.824.267,1.235a4.692,4.692,0,0,1,.021,1.526,5.033,5.033,0,0,0-.158,1.035,6.39,6.39,0,0,0,.4,1.387,5.277,5.277,0,0,1,.138,1.062c.035.556.336,1.179.123,1.694-.661,1.631-.341,3.474-.717,5.186-.194.879-.788,1.705-.741,2.6q.049.957.168,1.909a1.817,1.817,0,0,0,.154.579,2.126,2.126,0,0,0,.169.277c-.054.021-.1.077-.14.194a.762.762,0,0,0,.274.864,1.2,1.2,0,0,0,.357.123,1.879,1.879,0,0,0,.516.072,1.206,1.206,0,0,0,.162-.02,5.886,5.886,0,0,0,.584.21,1.267,1.267,0,0,0,.016.152.189.189,0,0,0,.064.14.193.193,0,0,0,.1.017h.67V111.5a.552.552,0,0,0,.426-.138.659.659,0,0,0,.123-.257q.274-.93.545-1.861a5.95,5.95,0,0,0,.265-2.124c-.238-2.276.285-4.559.115-6.841a16.386,16.386,0,0,1,.21-4.1c.056-.306.123-.617.148-.922.054-.575-.012-1.157.028-1.729.014-.2.041-.4.065-.6a28.7,28.7,0,0,0,.265-3.723,11.732,11.732,0,0,0-.077-1.235.705.705,0,0,0,.337-.2.84.84,0,0,0,.08-.527,3.822,3.822,0,0,1,.332-1.262,15,15,0,0,0,.467-1.736A6.062,6.062,0,0,0,125.5,82.8q0-.074-.007-.148a.382.382,0,0,0,.114-.123.717.717,0,0,0,.059-.228c.044-.315.09-.631.135-.947q.049-.34.1-.678l.393-2.74c.033-.238.068-.475.1-.712l.1-.709c.011-.084.023-.168.032-.247C126.831,75.76,126.543,75.088,126.511,74.515Zm-3.276,10.259a2.257,2.257,0,0,1-.247-1.073h-.014a.551.551,0,0,0-.016-.348c-.038-.09-.1-.167-.146-.257a.941.941,0,0,1-.067-.346,9.425,9.425,0,0,1,.177-2.24c.016-.086.033-.174.049-.261a.644.644,0,0,0,.141-.11,1,1,0,0,0,.159-.247c.14-.28.267-.566.384-.856.038-.094.094-.2.189-.226a5.421,5.421,0,0,1-.24,2.112,1.336,1.336,0,0,0-.123.333c-.027.184.049.37.022.553-.014.1-.054.183-.07.277a.27.27,0,0,0,.072.262.216.216,0,0,0,.053.027c-.007.049-.014.1-.019.148-.01.1-.015.2-.021.256a7.964,7.964,0,0,0-.033.909c0,.327.012.654.007.988a.67.67,0,0,1-.047.28.487.487,0,0,1-.094.123A3.208,3.208,0,0,0,123.235,84.774Z" transform="translate(-12.864 -12.272)"/><ellipse class="m" cx="0.696" cy="1.972" rx="0.696" ry="1.972" transform="matrix(0.98, -0.201, 0.201, 0.98, 99.15, 54.451)"/><path class="f" d="M120.513,115.188a.748.748,0,0,0,.274.856,1.22,1.22,0,0,0,.354.123,1.869,1.869,0,0,0,.515.07c.214-.01.419-.094.632-.123a.1.1,0,0,1,.073.01.105.105,0,0,1,.027.086,3.265,3.265,0,0,0,.027.363.186.186,0,0,0,.064.14.193.193,0,0,0,.1.017h.669a6.527,6.527,0,0,0-.191-1.746.39.39,0,0,0-.049-.123.409.409,0,0,0-.214-.123,1.194,1.194,0,0,0-.517-.09,1.516,1.516,0,0,0-.58.284.884.884,0,0,1-.658.159C120.814,115.031,120.628,114.845,120.513,115.188Z" transform="translate(-14.135 -17.324)"/><path class="m" d="M109.507,114.618a1.852,1.852,0,0,1-.675.459l-.114.054a.079.079,0,0,0-.038.031.067.067,0,0,0,.012.056.8.8,0,0,0,.906.33.48.48,0,0,0,.2-.1.652.652,0,0,0,.153-.4.814.814,0,0,0-.019-.456C109.76,114.2,109.7,114.38,109.507,114.618Z" transform="translate(-12.956 -17.296)"/><path class="f" d="M111.988,116.147a.3.3,0,0,1-.021.137c-.058.114-.22.107-.346.083a8.311,8.311,0,0,0-.152-1.247c-.24-.011-.412.216-.541.42l-.331.525a.684.684,0,0,1-.2.23.585.585,0,0,1-.214.068,4.049,4.049,0,0,1-1.881-.291,1,1,0,0,1-.256-.109.522.522,0,0,1-.123-.714c.256-.346.83-.247,1.148-.533a2.874,2.874,0,0,1-.163.589c.426-.064.712-.454,1.056-.715a.65.65,0,0,1,.3-.143.663.663,0,0,1,.247.026,2.9,2.9,0,0,1,1.087.535,1.171,1.171,0,0,1,.389.405A3,3,0,0,1,111.988,116.147Z" transform="translate(-12.872 -17.304)"/><circle class="m" cx="2.551" cy="2.551" r="2.551" transform="translate(105.06 53)"/><path class="f" d="M127.178,84.88a6.05,6.05,0,0,1-.206,1.443,14.9,14.9,0,0,1-.467,1.729,3.8,3.8,0,0,0-.33,1.26.837.837,0,0,1-.081.526.768.768,0,0,1-.361.206.451.451,0,0,0-.3.27,1.908,1.908,0,0,1-.257-.566q-.332-1.017-.617-2.046a.265.265,0,0,1,.017-.247.306.306,0,0,1,.107-.06,1.111,1.111,0,0,0,.342-.22.5.5,0,0,0,.114-.147.666.666,0,0,0,.048-.279c0-.327,0-.653-.009-.98a8.193,8.193,0,0,1,.035-.905c0-.059.011-.154.021-.256.019-.194.056-.419.161-.494.157-.1.626.036.8.061.306.042.617.091.916.149A2.446,2.446,0,0,1,127.178,84.88Z" transform="translate(-14.541 -14.267)"/><path class="f" d="M115.716,71.123c-.1.2-.336.293-.519.417l-.626.43a.417.417,0,0,1-.31.106.407.407,0,0,1-.231-.216.042.042,0,0,0,0-.01l-.13-.217-.617-1.035a.589.589,0,0,1-.115-.319c0-.053.019-.1.023-.156a.747.747,0,0,0-.123-.42c-.049-.093-.148-.169-.146-.273a.988.988,0,0,1,.069-.4.808.808,0,0,1,.27-.289c.058-.042.117-.081.179-.123a.353.353,0,0,1,.107-.049c.1-.021.2.064.307.068.446.3.617.864.968,1.272.2.232.217.41.441.617.036.032.07.067.1.1a.717.717,0,0,1,.111.161C115.521,70.9,115.767,71.022,115.716,71.123Z" transform="translate(-13.38 -12.716)"/><path class="m" d="M120.764,70.861a2.3,2.3,0,0,1,.274,1.243.777.777,0,0,1-.107.327,1.057,1.057,0,0,1-.875.338.516.516,0,0,0-.38.123.346.346,0,0,0,.023.422.953.953,0,0,0,.378.247,3.345,3.345,0,0,0,1.626.361c.259-.025.511-.1.769-.138a8.077,8.077,0,0,1,.847-.047c.336-.012.67-.046,1.005-.079l.887-.088a.2.2,0,0,0,.132-.048c.065-.077-.019-.189-.1-.247-.47-.348-1.069-.588-1.337-1.111a6.54,6.54,0,0,1-.253-.808,6.786,6.786,0,0,1-.294-.779,5.163,5.163,0,0,1-.041-.719.964.964,0,0,0-.247-.657,1.03,1.03,0,0,0-.672-.216,2.174,2.174,0,0,0-1.637.531c-.112.112-.209.247-.325.348s-.274.131-.2.264.227.216.309.333a2.839,2.839,0,0,1,.216.4Z" transform="translate(-14.049 -12.758)"/><path class="f" d="M125.5,74.708a14.029,14.029,0,0,1-.756,2.782,10.479,10.479,0,0,0-.445,1.247c-.1.383-.077.793-.164,1.177-.109.478-.217.957-.3,1.439a9.431,9.431,0,0,0-.175,2.235.935.935,0,0,0,.067.344c.041.089.106.165.144.257a.617.617,0,0,1-.035.494,1.43,1.43,0,0,1-.254.385,15.791,15.791,0,0,1-3.581.3,14.4,14.4,0,0,1-3.312.1,2.625,2.625,0,0,1,.259-1.493,10.967,10.967,0,0,0,.988-4.322,4.48,4.48,0,0,0-.058-.51,6.76,6.76,0,0,1,.328-3.12,5.355,5.355,0,0,0,.141-1.949,3.559,3.559,0,0,1-.009-.638,1.122,1.122,0,0,1,.232-.6c0-.009.011-.017.017-.026a.17.17,0,0,1,.093,0h0a.079.079,0,0,0,.062,0l.014-.009a.031.031,0,0,1,.036,0c.028.017.044.077.106.088a2.463,2.463,0,0,0,.275.026,1.482,1.482,0,0,1,.328.047h.015a.964.964,0,0,0,.479-.041,1.273,1.273,0,0,0,.294-.114c.027-.03.2-.057.232-.078.112-.068.088-.386.111-.517a1.423,1.423,0,0,1,.093-.383.652.652,0,0,1,.528-.307,2.814,2.814,0,0,1,.633.057c.461.065.932.054,1.384.161a1.031,1.031,0,0,0,.684.03c.057.014.065.063.065.123a.79.79,0,0,1-.035.169c-.079.341.189.654.436.9a1.4,1.4,0,0,0,.364.29c.123.057.247.08.37.142a.674.674,0,0,1,.247.226.943.943,0,0,1,.141.359,2.149,2.149,0,0,1-.041.715Z" transform="translate(-13.752 -13.013)"/><path class="n" d="M125.625,74.85a14.029,14.029,0,0,1-.756,2.782,10.479,10.479,0,0,0-.445,1.247c-.1.383-.077.793-.164,1.177-.109.478-.217.957-.3,1.439-.026.015-.053.028-.08.041a1.9,1.9,0,0,1-.484.156,2.964,2.964,0,0,1-.9-.03l-1.762-.236a3.55,3.55,0,0,1-1.976-.687,4.216,4.216,0,0,1-.689-.941,4.479,4.479,0,0,0-.058-.51,6.76,6.76,0,0,1,.328-3.12,5.355,5.355,0,0,0,.141-1.949,3.56,3.56,0,0,1-.009-.638,1.122,1.122,0,0,1,.232-.6.881.881,0,0,1,.11-.025h0a.548.548,0,0,1,.075-.01h.036a.538.538,0,0,1,.123.015,2.233,2.233,0,0,1,.247.1h.015a.946.946,0,0,0,.328.047c.163,0,.331-.026.494-.037a.911.911,0,0,1,.585.1,3.509,3.509,0,0,1,.326.3,1.4,1.4,0,0,0,.411.224,4.37,4.37,0,0,0,3.287-.069.643.643,0,0,1,.33-.084.617.617,0,0,1,.237.1c.074.043.147.085.222.123a.943.943,0,0,1,.141.359A2.149,2.149,0,0,1,125.625,74.85Z" transform="translate(-13.882 -13.155)"/><path class="d" d="M126.582,74.006a6.59,6.59,0,0,1-1.408-.617.631.631,0,0,0-.237-.1.663.663,0,0,0-.331.084,4.368,4.368,0,0,1-3.286.069,1.429,1.429,0,0,1-.411-.224,3.692,3.692,0,0,0-.326-.3c-.406-.263-.968.046-1.423-.123a2.518,2.518,0,0,0-.247-.1c-.359-.09-.725.268-1.078.159a6.007,6.007,0,0,0-.29,1.1,12.008,12.008,0,0,0-.08,1.3c0,.261-.012.521,0,.782a.256.256,0,0,1,.2.405,10.123,10.123,0,0,1-.911,1.928,4.188,4.188,0,0,1,.763.583c.432.457.645,1.1,1.111,1.52a3.569,3.569,0,0,0,1.976.685l1.762.236a3.012,3.012,0,0,0,.905.031,1.9,1.9,0,0,0,.483-.157.864.864,0,0,0,.269-.178.987.987,0,0,0,.159-.247c.14-.279.267-.564.384-.853.041-.1.1-.222.214-.231.654-.59,1.272-1.2,1.926-1.786a4.268,4.268,0,0,0,.7-.741c.325-.48.03-1.161,0-1.741a2.2,2.2,0,0,0-.056-.441A1.415,1.415,0,0,0,126.582,74.006Z" transform="translate(-13.763 -13.128)"/><path class="n" d="M115.839,71.35c-.1.2-.336.293-.519.417l-.626.43a.417.417,0,0,1-.31.106.407.407,0,0,1-.231-.216V72a.828.828,0,0,1,.04-.3.92.92,0,0,1,.277-.356,2.265,2.265,0,0,1,.811-.494.278.278,0,0,1,.148-.015.2.2,0,0,1,.054.023.716.716,0,0,1,.111.161C115.644,71.124,115.89,71.249,115.839,71.35Z" transform="translate(-13.503 -12.943)"/><path class="d" d="M117.33,72.661a.9.9,0,0,1-.535-.306l-.468-.435a.437.437,0,0,1-.081-.091.641.641,0,0,1-.057-.152,1.742,1.742,0,0,0-.454-.652.3.3,0,0,0-.135-.1.27.27,0,0,0-.149.015,2.258,2.258,0,0,0-.811.494.922.922,0,0,0-.277.356.821.821,0,0,0-.04.3,2.267,2.267,0,0,0,.215.943c.021.046.044.091.069.136a4.277,4.277,0,0,0,.58.754l.294.328c.289.324.578.647.892.945a1.178,1.178,0,0,0,.4.279.447.447,0,0,0,.459-.074.664.664,0,0,0,.131-.235,4.618,4.618,0,0,0,.382-1.54,5.817,5.817,0,0,0-.027-.638C117.7,72.762,117.54,72.674,117.33,72.661Z" transform="translate(-13.52 -12.952)"/><path class="o" d="M124.332,91.429a28.534,28.534,0,0,1-.264,3.713c-.025.2-.052.4-.065.6-.041.577.026,1.156-.028,1.729-.028.31-.093.617-.147.92a16.357,16.357,0,0,0-.21,4.093c.17,2.276-.352,4.553-.115,6.822a5.515,5.515,0,0,1-.073,1.32,5.6,5.6,0,0,1-.191.8q-.27.927-.543,1.852a.642.642,0,0,1-.123.257.585.585,0,0,1-.463.137,5.341,5.341,0,0,1-2.03-.63.707.707,0,0,1-.2-.123c-.135-.14-.123-.359-.183-.543a5.171,5.171,0,0,0-.311-.546,1.782,1.782,0,0,1-.135-.562q-.124-.948-.168-1.9c-.047-.9.546-1.721.741-2.593.37-1.714.057-3.551.715-5.178.207-.514-.094-1.136-.123-1.689a5.357,5.357,0,0,0-.138-1.059,6.568,6.568,0,0,1-.4-1.383,5.08,5.08,0,0,1,.157-1.031,4.634,4.634,0,0,0-.021-1.523c-.065-.415-.165-.83-.265-1.235l-.022.046a13.952,13.952,0,0,0-.774,1.821c-.1.3-.185.611-.309.905-.1.247-.226.473-.348.705a20.248,20.248,0,0,0-1.142,2.538c-.153.427-.288.864-.421,1.293l-.915,2.964c-.247.779-.517,1.532-.759,2.31-.342,1.111-.684,2.213-1.082,3.3a7.127,7.127,0,0,0-.679,3.188,2.346,2.346,0,0,1-1.09.221,6.384,6.384,0,0,1-1.852-.449,1.44,1.44,0,0,1-.64-.38,1.513,1.513,0,0,1-.123-1.251,3.021,3.021,0,0,1,.148-.563c.094-.227.247-.428.343-.653a5.48,5.48,0,0,0,.283-1.387,1.711,1.711,0,0,1,.647-1.216,17.566,17.566,0,0,1,.593-2.438c.141-.609.188-1.235.3-1.852a4.068,4.068,0,0,1,.663-1.735,2.75,2.75,0,0,1,.336-1.482,1.62,1.62,0,0,0,.147-.315,1.81,1.81,0,0,0,.04-.326,1.927,1.927,0,0,1,.521-1.145,2.323,2.323,0,0,1,.2-1.358,4.719,4.719,0,0,0,.259-1.737,1.523,1.523,0,0,1,.023-.494c.035-.123.1-.228.142-.347a1.974,1.974,0,0,0,.056-.443,5.128,5.128,0,0,1,.617-1.894c.178-.348.027-.821.064-1.209a4.673,4.673,0,0,1,.454-1.873c.059-.106.123-.207.177-.317a1.374,1.374,0,0,0,.1-.494,1.819,1.819,0,0,0-.051-.78,4,4,0,0,1,2.421-.741,15.1,15.1,0,0,0,2.57-.142c.247-.056.494-.132.754-.169a4.881,4.881,0,0,1,1.776.182,2.115,2.115,0,0,0,.247,1.071,11.493,11.493,0,0,1,.915,4.411Z" transform="translate(-13.039 -14.434)"/><path class="n" d="M122.558,92.376l-1.419,3.191c-.065-.415-.165-.83-.265-1.235l-.022.046v-.067l.773-1.7Z" transform="translate(-14.173 -15.097)"/><path class="n" d="M127.254,84.88a.533.533,0,0,1-.282.1,1.369,1.369,0,0,1-.462-.063l-1.111-.278a.546.546,0,0,1-.1-.036c.019-.194.056-.419.161-.494.157-.1.626.036.8.061.306.042.617.091.916.149a2.446,2.446,0,0,1,.075.556Z" transform="translate(-14.618 -14.267)"/><path class="d" d="M128.181,76.763c.023.1.057.2.077.307a2.346,2.346,0,0,1-.026.764l-.1.706-.1.71-.391,2.733-.1.677-.136.945a.679.679,0,0,1-.059.227.473.473,0,0,1-.386.228A1.4,1.4,0,0,1,126.5,84l-1.111-.279a.348.348,0,0,1-.136-.056.268.268,0,0,1-.072-.261c.016-.094.057-.182.07-.275.027-.183-.049-.37-.022-.552a1.373,1.373,0,0,1,.123-.332,9.59,9.59,0,0,0,.282-2.663,4.038,4.038,0,0,1,.857-1.907,5.473,5.473,0,0,1,.946-.929,1.9,1.9,0,0,1,.532-.37C128.191,76.327,128.144,76.607,128.181,76.763Z" transform="translate(-14.605 -13.496)"/><path class="o" d="M119.043,64.918c-.081.259.046.545-.012.809-.063.291-.337.494-.415.787-.123.446.254.852.531,1.222,1.025,1.376.89,3.28.54,4.958a25.6,25.6,0,0,1-1.167,3.951,3.028,3.028,0,0,1-.629,1.1,3.25,3.25,0,0,1,1.741-.169c.721.2,1.343.9,2.074.741.44-.1.748-.488,1.143-.7a3.917,3.917,0,0,1,2.46-.02.966.966,0,0,0,.537-.027.893.893,0,0,0,.326-.3,3.045,3.045,0,0,0,.635-1.642,2.107,2.107,0,0,0-.606-1.621,3.468,3.468,0,0,1-.52-.494,1.534,1.534,0,0,1-.2-.748c-.1-1.358.233-2.745-.107-4.059a10.021,10.021,0,0,1-.379-1.4,6.19,6.19,0,0,0-.143-1.781,1.746,1.746,0,0,0-1.041-.9,5.7,5.7,0,0,0-1.388-.247C121.742,64.325,119.326,64.035,119.043,64.918Z" transform="translate(-13.877 -12.289)"/><g class="p" transform="translate(104.014 52.347)"><path d="M119.757,72.9a25.548,25.548,0,0,1-1.161,3.935c.085-.169.157-.347.225-.524a25.465,25.465,0,0,0,1.167-3.951c.352-1.679.487-3.581-.538-4.958a1.937,1.937,0,0,1-.553-1.069,1.316,1.316,0,0,0-.21.388c-.123.446.254.852.531,1.222C120.242,69.316,120.108,71.22,119.757,72.9Z" transform="translate(-117.962 -64.839)"/><path d="M119.17,65.641a1.2,1.2,0,0,0,.217-.416,2.116,2.116,0,0,0-.015-.551.594.594,0,0,0-.2.283A2.442,2.442,0,0,0,119.17,65.641Z" transform="translate(-118.016 -64.674)"/><path d="M126.405,78.059a.889.889,0,0,1-.326.3.943.943,0,0,1-.537.027,3.951,3.951,0,0,0-2.46.021c-.4.215-.7.605-1.145.7-.73.163-1.352-.537-2.073-.741a2.9,2.9,0,0,0-1.564.123,2.157,2.157,0,0,1-.409.59,3.25,3.25,0,0,1,1.741-.169c.721.2,1.343.9,2.074.741.44-.1.748-.488,1.143-.7a3.917,3.917,0,0,1,2.46-.02.966.966,0,0,0,.537-.027.893.893,0,0,0,.326-.3,3.319,3.319,0,0,0,.511-.978,3.591,3.591,0,0,1-.279.433Z" transform="translate(-117.891 -65.969)"/></g></g></g></svg>