<svg xmlns="http://www.w3.org/2000/svg" xmlns:xlink="http://www.w3.org/1999/xlink" width="184" height="112" viewBox="0 0 184 112">
  <defs>
    <clipPath id="clip-path">
      <rect id="Rectangle_779" data-name="Rectangle 779" width="184" height="112" transform="translate(1080 464)" fill="#fff" style="mix-blend-mode: screen;isolation: isolate"/>
    </clipPath>
  </defs>
  <g id="Mask_Group_3" data-name="Mask Group 3" transform="translate(-1080 -464)" clip-path="url(#clip-path)">
    <g id="undraw_Safe_re_kiil" transform="translate(1080 466.017)">
      <path id="Path_461" data-name="Path 461" d="M42.949,115.291a5.406,5.406,0,0,0,5-.835c1.752-1.393,2.3-3.689,2.748-5.814l1.322-6.287-2.767,1.806a19.857,19.857,0,0,0-5.4,4.519c-1.378,1.881-1.979,4.448-.872,6.483" transform="translate(-30.18 -15.276)" fill="#e6e6e6"/>
      <path id="Path_462" data-name="Path 462" d="M43.1,121.19a24.071,24.071,0,0,1-.372-5.845,8.9,8.9,0,0,1,1.871-4.82,8.318,8.318,0,0,1,2.171-1.864.191.191,0,0,1,.2.325,7.733,7.733,0,0,0-3.182,3.638,11.61,11.61,0,0,0-.684,5.263c.072,1.073.225,2.138.379,3.2a.193.193,0,0,1-.139.232.2.2,0,0,1-.245-.132Z" transform="translate(-30.091 -13.565)" fill="#f2f2f2"/>
      <path id="Path_2772" data-name="Path 2772" d="M90.658,87.072a1.654,1.654,0,0,1-.65.145l-20.875.543a3.11,3.11,0,1,1-.142-6.209l20.875-.543A1.561,1.561,0,0,1,91.5,82.486l.073,3.186a1.509,1.509,0,0,1-.911,1.4Z" transform="translate(-22.158 -21.098)" fill="#6c63ff"/>
      <path id="Path_2773" data-name="Path 2773" d="M65.628,124.871H62.264a1.557,1.557,0,0,1-1.6-1.512V96.8a1.557,1.557,0,0,1,1.6-1.512h3.363a1.557,1.557,0,0,1,1.6,1.512v26.564a1.557,1.557,0,0,1-1.6,1.512Z" transform="translate(-23.913 -17.205)" fill="#6c63ff"/>
      <path id="Path_2774" data-name="Path 2774" d="M72.277,124.871H68.914a1.557,1.557,0,0,1-1.6-1.512V96.8a1.557,1.557,0,0,1,1.6-1.512h3.363a1.557,1.557,0,0,1,1.6,1.512v26.564a1.557,1.557,0,0,1-1.6,1.512Z" transform="translate(-21.632 -17.205)" fill="#6c63ff"/>
      <ellipse id="Ellipse_173" data-name="Ellipse 173" cx="11.622" cy="11.013" rx="11.622" ry="11.013" transform="translate(33.205 28.438)" fill="#6c63ff"/>
      <path id="Path_2775" data-name="Path 2775" d="M74.28,109.958H65.919a9.976,9.976,0,0,1-8.578-4.673,8.924,8.924,0,0,1,.019-9.376L69.052,76.718a1.523,1.523,0,0,1,2.566,0l11.457,18.8a9.189,9.189,0,0,1,0,9.623,10.27,10.27,0,0,1-8.794,4.812Z" transform="translate(-25.508 -22.459)" fill="#2f2e41"/>
      <path id="Path_2776" data-name="Path 2776" d="M68.724,70.141a4.38,4.38,0,0,0,2.413-.545,1.731,1.731,0,0,0,.729-1.311,1.152,1.152,0,0,0-.424-.97,1.682,1.682,0,0,0-1.522-.208l.615-4.26-.452-.059L69.361,67.8l.377-.164a1.446,1.446,0,0,1,1.41.012.739.739,0,0,1,.263.625,1.308,1.308,0,0,1-.543.978,3.939,3.939,0,0,1-2.157.462Z" transform="translate(-21.154 -26.067)" fill="#2f2e41"/>
      <rect id="Rectangle_780" data-name="Rectangle 780" width="2.455" height="0.432" transform="translate(51.615 37.148)" fill="#2f2e41"/>
      <rect id="Rectangle_781" data-name="Rectangle 781" width="2.455" height="0.432" transform="translate(43.867 37.148)" fill="#2f2e41"/>
      <path id="Path_2777" data-name="Path 2777" d="M64.829,105.8a1.435,1.435,0,0,1-.153-.616L64.1,85.4a3.281,3.281,0,0,1,6.552-.135l.573,19.782a1.552,1.552,0,0,1-1.56,1.544l-3.363.069A1.61,1.61,0,0,1,64.829,105.8Z" transform="translate(-22.735 -20.765)" fill="#6c63ff"/>
      <path id="Path_2778" data-name="Path 2778" d="M69.51,60.628a6.855,6.855,0,0,0,6.023,2.646,5.147,5.147,0,0,0,4.584-3.888,6.188,6.188,0,0,0-1.777-5.656A10.633,10.633,0,0,0,72.2,50.988,15.863,15.863,0,0,0,60.27,54.53a13.931,13.931,0,0,0-3.8,4.832,12.929,12.929,0,0,0-1.179,5.847,14.187,14.187,0,0,0,6.356,11.474c.361.24.7-.321.345-.559a13.772,13.772,0,0,1-5.875-9.343,12.479,12.479,0,0,1,3.2-10.439,15.318,15.318,0,0,1,10.428-4.817c4-.165,9,1.527,9.745,5.745A4.438,4.438,0,0,1,77.249,62.1a5.711,5.711,0,0,1-6.04-.712A6.752,6.752,0,0,1,70.1,60.3c-.264-.327-.858,0-.59.327Z" transform="translate(-25.762 -29.318)" fill="#2f2e41"/>
      <path id="ab2e16f2-9798-47da-b25d-769524f3c86f" d="M0,0,99.52.738l.35,44.85L.35,44.85Z" transform="translate(62.746 16.054) rotate(-8.22)" fill="#f1f1f1"/>
      <path id="bf81c03f-68cf-4889-8697-1102f95f97bb" d="M0,0,93.829.7l.292,37.419-93.829-.7Z" transform="translate(66.145 19.47) rotate(-8.22)" fill="#fff"/>
      <path id="f065dccc-d150-492a-a09f-a7f3f89523f0" d="M0,0,99.52.738l.031,4.015L.031,4.015Z" transform="translate(62.314 13.498) rotate(-8.22)" fill="#e5e5e5"/>
      <ellipse id="bdbbf39c-df25-4682-8b85-5a6af4a1bd14" cx="0.784" cy="0.743" rx="0.784" ry="0.743" transform="translate(64.998 14.662)" fill="#fff"/>
      <ellipse id="abcd4292-0b1f-4102-9b5e-e8bbd87baabc" cx="0.784" cy="0.743" rx="0.784" ry="0.743" transform="translate(67.945 14.258)" fill="#fff"/>
      <ellipse id="a3fb731e-8b3d-41ca-96f2-91600dc0b434" cx="0.784" cy="0.743" rx="0.784" ry="0.743" transform="translate(70.892 13.855)" fill="#fff"/>
      <rect id="ab2e16f2-9798-47da-b25d-769524f3c86f-2" data-name="ab2e16f2-9798-47da-b25d-769524f3c86f" width="99.627" height="44.799" transform="translate(84.373 21.633)" fill="#e6e6e6"/>
      <rect id="bf81c03f-68cf-4889-8697-1102f95f97bb-2" data-name="bf81c03f-68cf-4889-8697-1102f95f97bb" width="93.929" height="37.377" transform="translate(87.222 25.475)" fill="#fff"/>
      <rect id="f065dccc-d150-492a-a09f-a7f3f89523f0-2" data-name="f065dccc-d150-492a-a09f-a7f3f89523f0" width="99.627" height="4.011" transform="translate(84.331 19.045)" fill="#cbcbcb"/>
      <ellipse id="bdbbf39c-df25-4682-8b85-5a6af4a1bd14-2" data-name="bdbbf39c-df25-4682-8b85-5a6af4a1bd14" cx="0.784" cy="0.743" rx="0.784" ry="0.743" transform="translate(86.692 20.66)" fill="#fff"/>
      <ellipse id="abcd4292-0b1f-4102-9b5e-e8bbd87baabc-2" data-name="abcd4292-0b1f-4102-9b5e-e8bbd87baabc" cx="0.784" cy="0.743" rx="0.784" ry="0.743" transform="translate(89.669 20.66)" fill="#fff"/>
      <ellipse id="a3fb731e-8b3d-41ca-96f2-91600dc0b434-2" data-name="a3fb731e-8b3d-41ca-96f2-91600dc0b434" cx="0.784" cy="0.743" rx="0.784" ry="0.743" transform="translate(92.647 20.66)" fill="#fff"/>
      <rect id="Rectangle_782" data-name="Rectangle 782" width="13.229" height="0.942" transform="translate(141.347 31.157)" fill="#e6e6e6"/>
      <rect id="Rectangle_783" data-name="Rectangle 783" width="20.428" height="0.942" transform="translate(141.347 33.923)" fill="#e6e6e6"/>
      <rect id="Rectangle_784" data-name="Rectangle 784" width="16.648" height="0.942" transform="translate(141.559 36.558)" fill="#e6e6e6"/>
      <rect id="Rectangle_785" data-name="Rectangle 785" width="9.719" height="0.942" transform="translate(141.347 39.448)" fill="#e6e6e6"/>
      <rect id="Rectangle_786" data-name="Rectangle 786" width="14.669" height="0.942" transform="translate(141.347 42.271)" fill="#e6e6e6"/>
      <rect id="Rectangle_787" data-name="Rectangle 787" width="1.62" height="1.535" transform="translate(135.317 30.861)" fill="#e6e6e6"/>
      <rect id="Rectangle_788" data-name="Rectangle 788" width="1.62" height="1.535" transform="translate(135.317 33.627)" fill="#e6e6e6"/>
      <rect id="Rectangle_789" data-name="Rectangle 789" width="1.62" height="1.535" transform="translate(135.317 36.261)" fill="#e6e6e6"/>
      <rect id="Rectangle_790" data-name="Rectangle 790" width="1.62" height="1.535" transform="translate(135.317 39.152)" fill="#e6e6e6"/>
      <rect id="Rectangle_791" data-name="Rectangle 791" width="1.62" height="1.535" transform="translate(135.317 41.975)" fill="#e6e6e6"/>
      <rect id="Rectangle_792" data-name="Rectangle 792" width="13.229" height="0.942" transform="translate(141.347 45.112)" fill="#e6e6e6"/>
      <rect id="Rectangle_793" data-name="Rectangle 793" width="20.428" height="0.942" transform="translate(141.347 47.878)" fill="#e6e6e6"/>
      <rect id="Rectangle_794" data-name="Rectangle 794" width="16.648" height="0.942" transform="translate(141.559 50.513)" fill="#e6e6e6"/>
      <rect id="Rectangle_795" data-name="Rectangle 795" width="9.719" height="0.942" transform="translate(141.347 53.403)" fill="#e6e6e6"/>
      <rect id="Rectangle_796" data-name="Rectangle 796" width="14.669" height="0.942" transform="translate(141.347 56.227)" fill="#e6e6e6"/>
      <rect id="Rectangle_797" data-name="Rectangle 797" width="1.62" height="1.535" transform="translate(135.317 44.816)" fill="#e6e6e6"/>
      <rect id="Rectangle_798" data-name="Rectangle 798" width="1.62" height="1.535" transform="translate(135.317 47.582)" fill="#e6e6e6"/>
      <rect id="Rectangle_799" data-name="Rectangle 799" width="1.62" height="1.535" transform="translate(135.317 50.216)" fill="#e6e6e6"/>
      <rect id="Rectangle_800" data-name="Rectangle 800" width="1.62" height="1.535" transform="translate(135.317 53.107)" fill="#e6e6e6"/>
      <rect id="Rectangle_801" data-name="Rectangle 801" width="1.62" height="1.535" transform="translate(135.317 55.93)" fill="#e6e6e6"/>
      <rect id="Rectangle_802" data-name="Rectangle 802" width="13.229" height="0.942" transform="translate(99.498 52.503)" fill="#e6e6e6"/>
      <rect id="Rectangle_803" data-name="Rectangle 803" width="16.648" height="0.942" transform="translate(97.728 54.952)" fill="#e6e6e6"/>
      <path id="Path_2779" data-name="Path 2779" d="M123.124,67.6a8.111,8.111,0,0,1-4.209,7.026,9.057,9.057,0,0,1-8.524.182l0,0a8.009,8.009,0,0,1-4.077-9.854,8.7,8.7,0,0,1,9.59-5.427,8.329,8.329,0,0,1,7.222,8.075Z" transform="translate(-8.414 -26.986)" fill="#e6e6e6"/>
      <ellipse id="Ellipse_174" data-name="Ellipse 174" cx="2.348" cy="2.225" rx="2.348" ry="2.225" transform="translate(103.769 35.77)" fill="#fff"/>
      <path id="Path_2780" data-name="Path 2780" d="M117.369,69.858a12.734,12.734,0,0,1-8.105-.03h0l1.749-3.272h4.7Z" transform="translate(-7.242 -25.04)" fill="#fff"/>
      <path id="Path_2781" data-name="Path 2781" d="M94.852,85.016a7.472,7.472,0,1,1,7.422-7.472A7.456,7.456,0,0,1,94.852,85.016Zm0-13.056a5.586,5.586,0,1,0,5.43,5.584,5.515,5.515,0,0,0-5.43-5.584Z" transform="translate(-14.732 -24.081)" fill="#6c63ff"/>
      <path id="Path_2782" data-name="Path 2782" d="M102.974,96.444H88.917a4.563,4.563,0,0,1-4.676-4.431V78.946a3.124,3.124,0,0,1,3.2-3.033h17.007a3.124,3.124,0,0,1,3.2,3.034V92.013A4.563,4.563,0,0,1,102.974,96.444Z" transform="translate(-15.826 -22.488)" fill="#3f3d56"/>
      <path id="Path_2783" data-name="Path 2783" d="M96.395,82.31a2.642,2.642,0,0,0-2.309-2.566,2.754,2.754,0,0,0-3.035,1.76,2.544,2.544,0,0,0,1.36,3.116v4.061H94.9V84.62a2.582,2.582,0,0,0,1.494-2.31Z" transform="translate(-13.536 -21.451)" fill="#fff"/>
      <path id="Path_2784" data-name="Path 2784" d="M120.351,118.86H33.53a.216.216,0,1,1,0-.432h86.821a.216.216,0,1,1,0,.432Z" transform="translate(-33.302 -10.893)" fill="#3f3d56"/>
    </g>
  </g>
</svg>
