<svg id="undraw_Terms_re_6ak4" xmlns="http://www.w3.org/2000/svg" width="155.718" height="143.435" viewBox="0 0 155.718 143.435">
  <path id="Path_2649" data-name="Path 2649" d="M411.537,236.742h-3.381v-.491H411.5a4.109,4.109,0,0,0,3.11-1.717c2.167-2.63,3.947-9.141.118-25.223a97.418,97.418,0,0,1,1.231-47.937,2.394,2.394,0,0,0-2.3-3.056H363.929a2.4,2.4,0,0,0-1.939.987c-.883,1.215-2.1,3.549-2.854,7.77l-.483-.087c.775-4.312,2.027-6.715,2.94-7.972a2.9,2.9,0,0,1,2.336-1.189h49.724a2.885,2.885,0,0,1,2.775,3.684A96.911,96.911,0,0,0,415.2,209.2c3.883,16.308,2.016,22.96-.233,25.668A4.653,4.653,0,0,1,411.537,236.742Z" transform="translate(-340.035 -157.826)" fill="#e6e6e6"/>
  <path id="Path_2650" data-name="Path 2650" d="M375.037,273.242h-3.381v-.491H375a4.109,4.109,0,0,0,3.11-1.717c2.167-2.63,3.947-9.141.118-25.223a97.418,97.418,0,0,1,1.231-47.937,2.394,2.394,0,0,0-2.3-3.056H327.429a2.4,2.4,0,0,0-1.939.987c-.883,1.215-2.1,3.549-2.854,7.77l-.483-.087c.775-4.312,2.027-6.715,2.94-7.972a2.9,2.9,0,0,1,2.336-1.189h49.724a2.885,2.885,0,0,1,2.775,3.684A96.91,96.91,0,0,0,378.7,245.7c3.883,16.308,2.016,22.96-.233,25.668A4.652,4.652,0,0,1,375.037,273.242Z" transform="translate(-312.494 -185.367)" fill="#ccc"/>
  <path id="Path_2651" data-name="Path 2651" d="M336.389,309.742H287.379a2.884,2.884,0,0,1-2.682-3.952c1.776-4.438,4.168-15.086.229-36.534-4.652-25.327-.487-34.48,1.519-37.24a2.9,2.9,0,0,1,2.336-1.189h49.724a2.885,2.885,0,0,1,2.775,3.684,96.909,96.909,0,0,0-1.225,47.687c3.883,16.308,2.016,22.96-.233,25.668A4.653,4.653,0,0,1,336.389,309.742Zm-47.608-78.426a2.4,2.4,0,0,0-1.939.987c-1.969,2.709-6.051,11.723-1.433,36.862,3.763,20.489,1.938,31.324-.256,36.805a2.354,2.354,0,0,0,.24,2.225,2.4,2.4,0,0,0,1.987,1.054h48.97a4.1,4.1,0,0,0,3.11-1.717c2.167-2.63,3.947-9.141.118-25.223a97.419,97.419,0,0,1,1.231-47.937,2.394,2.394,0,0,0-2.3-3.056Z" transform="translate(-282.806 -212.907)" fill="#3f3d56"/>
  <path id="Path_2652" data-name="Path 2652" d="M349.259,308.753H310.231a1.964,1.964,0,0,1,0-3.927h39.028a1.964,1.964,0,0,1,0,3.927Z" transform="translate(-302.017 -268.742)" fill="#456efe"/>
  <path id="Path_2653" data-name="Path 2653" d="M349.259,342.752H310.231a1.964,1.964,0,0,1,0-3.927h39.028a1.964,1.964,0,0,1,0,3.927Z" transform="translate(-302.017 -294.397)" fill="#ccc"/>
  <path id="Path_2654" data-name="Path 2654" d="M349.259,376.752H310.231a1.964,1.964,0,0,1,0-3.927h39.028a1.964,1.964,0,0,1,0,3.927Z" transform="translate(-302.017 -320.051)" fill="#ccc"/>
  <path id="Path_2655" data-name="Path 2655" d="M361.259,410.752H322.231a1.964,1.964,0,1,1,0-3.927h39.028a1.964,1.964,0,1,1,0,3.927Z" transform="translate(-311.072 -345.705)" fill="#ccc"/>
  <path id="Path_2656" data-name="Path 2656" d="M361.259,444.752H322.231a1.964,1.964,0,1,1,0-3.927h39.028a1.964,1.964,0,1,1,0,3.927Z" transform="translate(-311.072 -371.36)" fill="#ccc"/>
  <path id="Path_2657" data-name="Path 2657" d="M328.64,274.752h-18.41a1.964,1.964,0,0,1,0-3.927h18.41a1.964,1.964,0,1,1,0,3.927Z" transform="translate(-302.017 -243.088)" fill="#456efe"/>
  <path id="Path_2658" data-name="Path 2658" d="M379.366,492.58c.4-1.678,2.258-2.228,3.78-2.166a16.12,16.12,0,0,1,2.85.451c.978.219,1.946.478,2.91.753,1.767.5,3.516,1.113,5.312,1.507a9.227,9.227,0,0,0,4.611.068,4.374,4.374,0,0,0,3.039-2.981,2.985,2.985,0,0,0-1.486-3.55,2.478,2.478,0,0,0-3.394,1.027,3.729,3.729,0,0,0,1.088,4.163,12.189,12.189,0,0,0,2.022,1.536,7.533,7.533,0,0,0,2.421,1.085,3.5,3.5,0,0,0,3.844-1.5,2.535,2.535,0,0,0,.288-.991c.043-.472-.693-.469-.736,0-.124,1.351-1.706,1.984-2.889,1.835a5.873,5.873,0,0,1-2.24-.869,13.127,13.127,0,0,1-1.855-1.309c-1-.868-1.944-2.3-1.27-3.652a1.841,1.841,0,0,1,2.849-.381,2.594,2.594,0,0,1,.171,3.449,4.315,4.315,0,0,1-3.479,1.659,13.6,13.6,0,0,1-4.211-.66c-1.7-.482-3.377-1.021-5.082-1.475-.968-.258-1.943-.49-2.929-.671a9.666,9.666,0,0,0-2.84-.2,3.846,3.846,0,0,0-3.483,2.674C378.547,492.845,379.256,493.042,379.366,492.58Z" transform="translate(-355.12 -405.731)" fill="#3f3d56"/>
  <path id="Path_2659" data-name="Path 2659" d="M688.067,609.972a112.468,112.468,0,0,0,1.06,14.447c.023.168.049.336.072.5l45.263-.253c.133-.167.264-.336.391-.507.423-.566.818-1.148,1.182-1.75,1.747-2.9,2.547-6.3,1.746-8.64l-.014-.036a4.11,4.11,0,0,0-.8-1.394c-1.828-2.057-5.524-1.715-8.878-.054,3.008-3.293,5.4-7.448,5.586-11.157.178-3.618-1.713-6.2-3.765-8.4-.067-.073-.135-.143-.2-.214-.033-.036-.067-.071-.1-.107-1.6-1.674-3.467-3.324-6.168-3.124-2.963.219-6.247,2.7-8.55,5.592a48.357,48.357,0,0,0-5.385,9.376,37.838,37.838,0,0,1-5.726,9.222c3.376-4.27,6.1-9.128,7.1-13.854s.121-9.263-2.888-11.489a7.036,7.036,0,0,0-3.082-1.244c-.13-.022-.262-.039-.4-.055a12.353,12.353,0,0,0-8.94,2.949,20.581,20.581,0,0,0-6.351,9.862A33.634,33.634,0,0,0,688.067,609.972Z" transform="translate(-588.587 -481.488)" fill="#f2f2f2"/>
  <path id="Path_2660" data-name="Path 2660" d="M808.729,707.666l.865,0q.412-.258.828-.51c.172-.108.345-.213.519-.319q4.306-2.63,8.667-5.046t8.757-4.612a.363.363,0,0,0,.209-.415.106.106,0,0,0-.015-.03c-.041-.077-.132-.109-.266-.043-.36.18-.722.361-1.081.545q-4.412,2.232-8.786,4.688t-8.693,5.125l-.182.113Z" transform="translate(-679.635 -564.39)" fill="#fff"/>
  <path id="Path_2661" data-name="Path 2661" d="M763.264,642.467l.535,0c.121-.169.24-.338.36-.507q4.254-5.965,8.507-11.931,6.964-9.767,13.924-19.534a.346.346,0,0,0,.06-.118c.04-.144-.066-.229-.2-.214a.407.407,0,0,0-.283.18l-7.807,10.95-13.853,19.434-.881,1.236C763.5,642.129,763.383,642.3,763.264,642.467Z" transform="translate(-645.33 -499.128)" fill="#fff"/>
  <path id="Path_2662" data-name="Path 2662" d="M714.635,621.612c.027.9.087,1.79.165,2.669l.046.5.562,0c-.017-.168-.034-.336-.049-.5-.119-1.271-.2-2.555-.214-3.875a54.07,54.07,0,0,1,1.064-10.9,67.852,67.852,0,0,1,3.3-11.321,77.741,77.741,0,0,1,5.393-11.2.3.3,0,0,0,.049-.2c-.023-.16-.236-.208-.4-.055a.471.471,0,0,0-.081.1q-.389.668-.763,1.34a77.712,77.712,0,0,0-5.162,11.24,67.526,67.526,0,0,0-3.073,11.338A53.333,53.333,0,0,0,714.635,621.612Z" transform="translate(-608.625 -481.382)" fill="#fff"/>
  <path id="Path_2663" data-name="Path 2663" d="M491.132,508.887a.614.614,0,0,1,.334-1.082,10.134,10.134,0,0,1,3.975.407l13.087,4.042a1.35,1.35,0,1,1-.8,2.58l-13.087-4.042a10.137,10.137,0,0,1-3.512-1.9Z" transform="translate(-439.829 -421.863)" fill="#3f3d56"/>
  <path id="Path_2664" data-name="Path 2664" d="M699.79,531.452a2.637,2.637,0,0,1-1.195-3.863l-2.243-11.731,5.717-.446.345,11.474a2.651,2.651,0,0,1-2.624,4.565Z" transform="translate(-594.842 -427.639)" fill="#ffb8b8"/>
  <path id="Path_2665" data-name="Path 2665" d="M676.717,456.75l-5.823-27.119a4.3,4.3,0,0,1,8.4-1.8l5.823,27.119a1.106,1.106,0,0,1-.848,1.312l-6.24,1.34A1.1,1.1,0,0,1,676.717,456.75Z" transform="translate(-575.561 -358.992)" fill="#456efe"/>
  <path id="Path_2666" data-name="Path 2666" d="M359.519,536.383H356.51l-1.432-11.607h4.442Z" transform="translate(-267.92 -395.964)" fill="#ffb8b8"/>
  <path id="Path_2667" data-name="Path 2667" d="M340.921,568.561h5.8v3.654h-9.458A3.654,3.654,0,0,1,340.921,568.561Z" transform="translate(-254.481 -429.001)" fill="#2f2e41"/>
  <path id="Path_2668" data-name="Path 2668" d="M400.519,535.383H397.51l-1.432-11.607h4.442Z" transform="translate(-298.856 -395.21)" fill="#ffb8b8"/>
  <path id="Path_2669" data-name="Path 2669" d="M381.921,567.561h5.8v3.654h-9.458A3.654,3.654,0,0,1,381.921,567.561Z" transform="translate(-285.417 -428.247)" fill="#2f2e41"/>
  <path id="Path_2670" data-name="Path 2670" d="M629.3,594.736a1.1,1.1,0,0,1-.4-.752l-3.5-38.483a1.1,1.1,0,0,1,1.059-1.2l17.545-.658a1.1,1.1,0,0,1,1.145,1.144l-1.4,38.336a1.107,1.107,0,0,1-1,1.059l-3.538.322a1.1,1.1,0,0,1-1.2-1.027l-1.624-24.354a.352.352,0,0,0-.367-.343h0a.353.353,0,0,0-.366.346L634.2,593.641a1.1,1.1,0,0,1-.993,1.034l-3.091.309a1.1,1.1,0,0,1-.813-.247Z" transform="translate(-541.307 -456.482)" fill="#2f2e41"/>
  <circle id="Ellipse_163" data-name="Ellipse 163" cx="6.029" cy="6.029" r="6.029" transform="translate(88.714 47.718)" fill="#ffb8b8"/>
  <path id="Path_2671" data-name="Path 2671" d="M619.8,446.644a1.1,1.1,0,0,1-.258-.9c1.113-6.765.486-16.709-.237-23.861a10.85,10.85,0,0,1,4.478-9.892l3.149-2.7a1.122,1.122,0,0,1,.75-.266l7.822.223a1.1,1.1,0,0,1,.75.323l1.209,2.677.012.009a10.818,10.818,0,0,1,4.4,9.252L640.72,445.3a1.111,1.111,0,0,1-1.067,1.051l-18.986.667h-.037A1.1,1.1,0,0,1,619.8,446.644Z" transform="translate(-536.667 -347.364)" fill="#456efe"/>
  <path id="Path_2672" data-name="Path 2672" d="M528.707,492.575a2.637,2.637,0,0,1,3.035-2.671l9.785-6.848,2.747,5.034L533.946,493.1a2.651,2.651,0,0,1-5.239-.526Z" transform="translate(-468.347 -403.225)" fill="#ffb8b8"/>
  <path id="Path_2673" data-name="Path 2673" d="M547.771,451.767a1.1,1.1,0,0,1-.723-.438l-3.776-5.145a1.106,1.106,0,0,1,.237-1.544l22.36-16.412a4.3,4.3,0,0,1,5.084,6.926l-22.36,16.412a1.1,1.1,0,0,1-.651.214A1.118,1.118,0,0,1,547.771,451.767Z" transform="translate(-479.176 -361.226)" fill="#456efe"/>
  <path id="Path_2674" data-name="Path 2674" d="M647.177,354.548a3.2,3.2,0,0,0,.07-3.564,6.865,6.865,0,0,0-2.852-2.427,37,37,0,0,1-3.366-1.746c-1.055-.7-1.009-3.654-1.29-4.888l.67.223c-.257-.329-.34-1.3-.6-1.632.757.075,1.339.794,2.1.868l-.437-1.172c2.6-.16,4.209,1.644,6.8,1.484a5.84,5.84,0,0,1,3.74.607,4.949,4.949,0,0,1,1.689,2.825,9.528,9.528,0,0,1-.375,7.025c-1.132,2.121-3.74,3.55-6.019,2.784Z" transform="translate(-552.126 -295.435)" fill="#2f2e41"/>
  <path id="Path_2675" data-name="Path 2675" d="M534.44,740.316H627.96a.245.245,0,1,0,0-.491H534.44a.245.245,0,1,0,0,.491Z" transform="translate(-472.488 -596.967)" fill="#3f3d56"/>
</svg>
