<svg xmlns="http://www.w3.org/2000/svg" xmlns:xlink="http://www.w3.org/1999/xlink" width="112" height="88" viewBox="0 0 112 88"><defs><style>.a{fill:#fff;}.b{clip-path:url(#a);}.c{fill:#ffb8b8;}.d{fill:#2f2e41;}.e{fill:#f2f2f2;}.f{fill:#e6e6e6;}.g{fill:#ccc;}.h{fill:#3f3d56;}.i{fill:#6c63ff;}.j{opacity:0.2;}</style><clipPath id="a"><rect class="a" width="112" height="88" transform="translate(640 464)"/></clipPath></defs><g class="b" transform="translate(-640 -464)"><g transform="translate(640.205 464)"><path class="c" d="M50.644,30.95a1.443,1.443,0,0,0-1.226,1.842l-4.172,2.981,2.487.957,3.58-2.978a1.451,1.451,0,0,0-.669-2.8Z" transform="translate(-30.298 -20.57)"/><path class="d" d="M50.256,35.44l-5.175,5.207a4.29,4.29,0,0,1-2.643,1.238l-6.394.583a1.762,1.762,0,0,1-1.308-.411,1.721,1.721,0,0,1,.76-3.006l6.533-1.391,5.947-4.384a.544.544,0,0,1,.541,0l1.617,1.325a.531.531,0,0,1,.268.558A.519.519,0,0,1,50.256,35.44Z" transform="translate(-30.298 -20.57)"/><path class="e" d="M112.3,38.238a1.741,1.741,0,0,0-.964-1.75l-32.2-15.74a1.736,1.736,0,0,0-2.322.8h0L64.728,46.259a1.739,1.739,0,0,0,.8,2.323l32.2,15.74a1.739,1.739,0,0,0,2.323-.8l12.079-24.714a1.724,1.724,0,0,0,.166-.573Z" transform="translate(-30.298 -20.57)"/><path class="a" d="M93.432,93.09H51.644a1.987,1.987,0,0,1-1.984-1.984V34.377a1.987,1.987,0,0,1,1.984-1.984H93.432a1.987,1.987,0,0,1,1.984,1.984V91.106A1.987,1.987,0,0,1,93.432,93.09Z" transform="translate(-30.298 -20.57)"/><circle class="f" cx="2.726" cy="2.726" r="2.726" transform="translate(29.703 23.286)"/><path class="f" d="M58.573,54.034a7.811,7.811,0,0,0,1.205.555l.074.025a7.858,7.858,0,0,0,2.612.444c.179,0,.351-.006.513-.018a7.769,7.769,0,0,0,1.166-.161c.211-.046.421-.1.624-.163l.144-.044a7.918,7.918,0,0,0,2.3-1.194,3.559,3.559,0,0,0-.184-.308,3.935,3.935,0,0,0-3.3-1.78H62.3A3.948,3.948,0,0,0,58.707,53.7a3.583,3.583,0,0,0-.134.337Z" transform="translate(-30.298 -20.57)"/><path class="d" d="M63.653,54.812a.519.519,0,0,0-.255.09,7.629,7.629,0,0,0,1.144-.159Z" transform="translate(-30.298 -20.57)"/><path class="g" d="M62.893,39.185a7.973,7.973,0,0,0-3.978,14.883,7.84,7.84,0,0,0,1.267.59l.075.026a7.929,7.929,0,0,0,2.636.448c.174,0,.347-.006.518-.019a7.841,7.841,0,0,0,1.175-.162c.217-.047.429-.1.63-.165l.145-.044a7.974,7.974,0,0,0-2.468-15.556ZM67.519,53.13a7.559,7.559,0,0,1-2.289,1.207l-.136.043c-.191.059-.392.11-.6.155a7.351,7.351,0,0,1-1.112.155c-.162.011-.327.017-.491.017a7.539,7.539,0,0,1-2.5-.423l-.07-.024a7.352,7.352,0,0,1-1.257-.591,7.544,7.544,0,1,1,8.449-.538Z" transform="translate(-30.298 -20.57)"/><path class="e" d="M52.327,71.016" transform="translate(-30.298 -20.57)"/><path class="g" d="M93.432,93.09H51.644a1.987,1.987,0,0,1-1.984-1.984V34.377a1.987,1.987,0,0,1,1.984-1.984H93.432a1.987,1.987,0,0,1,1.984,1.984V91.106A1.987,1.987,0,0,1,93.432,93.09ZM51.644,32.627a1.753,1.753,0,0,0-1.751,1.751V91.106a1.753,1.753,0,0,0,1.751,1.751H93.432a1.753,1.753,0,0,0,1.751-1.751V34.377a1.753,1.753,0,0,0-1.751-1.751Z" transform="translate(-30.298 -20.57)"/><path class="f" d="M85.342,47.127H73.518a.935.935,0,1,1,0-1.871H85.342a.935.935,0,0,1,0,1.871Z" transform="translate(-30.298 -20.57)"/><path class="f" d="M89.2,50.284H73.518a.935.935,0,1,1,0-1.871H89.2a.935.935,0,1,1,0,1.871Z" transform="translate(-30.298 -20.57)"/><path class="f" d="M85.325,62.393H55.875a.935.935,0,0,1,0-1.871h29.45a.935.935,0,0,1,0,1.871Z" transform="translate(-30.298 -20.57)"/><path class="f" d="M89.184,65.55H55.875a.935.935,0,0,1,0-1.871H89.184a.935.935,0,0,1,0,1.871Z" transform="translate(-30.298 -20.57)"/><path class="f" d="M85.325,72.806H55.875a.935.935,0,1,1,0-1.871h29.45a.935.935,0,0,1,0,1.871Z" transform="translate(-30.298 -20.57)"/><path class="f" d="M89.184,75.963H55.875a.935.935,0,1,1,0-1.871H89.184a.935.935,0,1,1,0,1.871Z" transform="translate(-30.298 -20.57)"/><path class="f" d="M85.325,83.22H55.875a.935.935,0,1,1,0-1.871h29.45a.935.935,0,1,1,0,1.871Z" transform="translate(-30.298 -20.57)"/><path class="f" d="M89.184,86.377H55.875a.935.935,0,0,1,0-1.871H89.184a.935.935,0,0,1,0,1.871Z" transform="translate(-30.298 -20.57)"/><path class="a" d="M110.864,54.452a1.741,1.741,0,0,0-.964-1.75L77.7,36.962a1.736,1.736,0,0,0-2.322.8h0L63.293,62.473a1.739,1.739,0,0,0,.8,2.323l32.2,15.74a1.739,1.739,0,0,0,2.323-.8L110.7,55.025a1.724,1.724,0,0,0,.166-.573Z" transform="translate(-30.298 -20.57)"/><path class="h" d="M110.864,54.452a1.741,1.741,0,0,0-.964-1.75L77.7,36.962a1.736,1.736,0,0,0-2.322.8h0L63.293,62.473a1.739,1.739,0,0,0,.8,2.323l32.2,15.74a1.739,1.739,0,0,0,2.323-.8L110.7,55.025a1.724,1.724,0,0,0,.166-.573Zm-12.429,25.2a1.534,1.534,0,0,1-2.05.7l-32.2-15.74a1.534,1.534,0,0,1-.7-2.05L75.556,37.849a1.534,1.534,0,0,1,2.05-.7l32.2,15.74a1.534,1.534,0,0,1,.7,2.05Z" transform="translate(-30.298 -20.57)"/><path class="f" d="M107.351,55.576,98.917,72.833a.483.483,0,0,1-.647.222h0L68.976,58.737a.408.408,0,0,1-.06-.035.483.483,0,0,1-.162-.612l8.434-17.257a.483.483,0,0,1,.647-.222h0l29.295,14.318a.483.483,0,0,1,.222.647h0Z" transform="translate(-30.298 -20.57)"/><circle class="i" cx="4.243" cy="4.243" r="4.243" transform="translate(47.092 25.644)"/><path class="h" d="M87.844,68.045l-18.7-9.139a.424.424,0,0,1-.067-.04l16.331-11a.689.689,0,0,1,1.078.527L87.4,61.578l.044.631Z" transform="translate(-30.298 -20.57)"/><path class="j" d="M57.546,47.475l-6.384-3.12,5.359-3.02.386-.218.193-.109.044.631Z"/><path class="h" d="M98.256,73.134l-16.173-7.9,5.359-3.02.386-.218,6.983-3.936a.92.92,0,0,1,1.262.526.821.821,0,0,1,.023.1Z" transform="translate(-30.298 -20.57)"/><path class="c" d="M18.057,54.07h1.759l.837-6.785h-2.6Z"/><path class="d" d="M47.907,74.066h3.465a2.208,2.208,0,0,1,2.208,2.208v.072H47.907Z" transform="translate(-30.298 -20.57)"/><path class="c" d="M4.384,52.95l1.823.356,2.242-6.86-2.69-.526Z"/><path class="d" d="M34.333,72.834l3.589.7h0a2.331,2.331,0,0,1,1.84,2.735l-.015.074L33.871,75.2Z" transform="translate(-30.298 -20.57)"/><path class="c" d="M50.915,51.234a1.443,1.443,0,0,0-2.028-.884L45.22,46.766l-.506,2.616,3.56,3a1.451,1.451,0,0,0,2.641-1.151Z" transform="translate(-30.298 -20.57)"/><circle class="c" cx="3.524" cy="3.524" r="3.524" transform="translate(3.488 5.166)"/><path class="d" d="M36.57,32.839c.187.082.571-1.41.4-1.709-.255-.444-.24-.441-.41-.734a.851.851,0,0,1,.012-.954.5.5,0,0,1,.828.1c-.064-.615.544-1.11,1.147-1.249s1.239-.053,1.845-.176c.7-.144,1.435-.733,1.155-1.507a1.09,1.09,0,0,0-.213-.349,2.687,2.687,0,0,0-1.221-.671,8.089,8.089,0,0,0-2.844-.6,4.132,4.132,0,0,0-3.651,2.67,3.753,3.753,0,0,0-.155.578,3.873,3.873,0,0,0,2.4,4.254Z" transform="translate(-30.298 -20.57)"/><path class="d" d="M35.705,52.2a.539.539,0,0,1-.255-.533l-1.59-7.878-1.612-6.046h0a3.024,3.024,0,0,1,1.514-3.457l1.066-1.008,2.325,1,1.1,1.123a6.317,6.317,0,0,1,3.3,3.912l1.772,6.063,4.092,6.088a.541.541,0,0,1-.053.671C46.8,52.748,35.705,52.2,35.705,52.2Z" transform="translate(-30.298 -20.57)"/><path class="d" d="M46.426,51.64l-6.034-4.181a4.29,4.29,0,0,1-1.683-2.385l-1.7-6.193a1.762,1.762,0,0,1,.175-1.36,1.721,1.721,0,0,1,3.093.22L42.8,43.929l5.359,5.086a.544.544,0,0,1,.091.533l-1.021,1.825a.531.531,0,0,1-.5.362A.519.519,0,0,1,46.426,51.64Z" transform="translate(-30.298 -20.57)"/><path class="d" d="M33.89,72.47a.537.537,0,0,1-.064-.491l2.791-10.148.206-9.943,9.4-.644.046,0,2.83,5.13a13.2,13.2,0,0,1,1.593,5.2l.933,10.221a.533.533,0,0,1-.466.583l-2.833.269a.527.527,0,0,1-.585-.446L46.586,61.81l-4.14-6.994-1.39,7.364L38.178,72.348a.534.534,0,0,1-.5.348H34.324A.522.522,0,0,1,33.89,72.47Z" transform="translate(-30.298 -20.57)"/><path class="a" d="M105.84,105.844H35.033a4.741,4.741,0,0,1-4.735-4.735V62.223a4.741,4.741,0,0,1,4.735-4.735h8.681A4.724,4.724,0,0,1,46.9,58.719l9.415,6.723a3.326,3.326,0,0,0,2.247.871H106.28a4.735,4.735,0,0,1,4.735,4.8l-.44,30.061a4.755,4.755,0,0,1-4.735,4.666Z" transform="translate(-30.298 -20.57)"/><path class="e" d="M105.211,103.548H35.452a2.287,2.287,0,0,1-2.284-2.284V61.742a2.287,2.287,0,0,1,2.284-2.284,2.023,2.023,0,0,1,2.02,2.02V98.538a2.143,2.143,0,0,0,2.141,2.141h65.362a1.453,1.453,0,0,1,1.423,1.089,1.4,1.4,0,0,1-.618,1.6,1.09,1.09,0,0,1-.569.176Z" transform="translate(-30.298 -20.57)"/><path class="i" d="M70.966,84.568l-.184-.184a.2.2,0,0,1-.009-.278l.009-.009,1.611-1.613a.2.2,0,0,1,.278-.009l.009.009L74.292,84.1a.2.2,0,0,1,0,.282l0,0-.184.184a.2.2,0,0,1-.282,0l0,0-.953-1v2.383a.2.2,0,0,1-.2.2h-.267a.2.2,0,0,1-.2-.2h0v-2.38l-.953,1a.2.2,0,0,1-.282,0Z" transform="translate(-30.298 -20.57)"/><path class="h" d="M72.535,81.02a3.27,3.27,0,1,1-3.27,3.27h0a3.273,3.273,0,0,1,3.27-3.27m0-.43a3.7,3.7,0,1,0,3.7,3.7h0A3.7,3.7,0,0,0,72.535,80.589Z" transform="translate(-30.298 -20.57)"/><path class="h" d="M105.84,105.844H35.033a4.741,4.741,0,0,1-4.735-4.735V62.223a4.741,4.741,0,0,1,4.735-4.735h8.681A4.724,4.724,0,0,1,46.9,58.719l9.415,6.723a3.326,3.326,0,0,0,2.247.871H106.28a4.735,4.735,0,0,1,4.735,4.8l-.44,30.061a4.755,4.755,0,0,1-4.735,4.666ZM35.033,57.775a4.453,4.453,0,0,0-4.448,4.448v38.886a4.453,4.453,0,0,0,4.448,4.448H105.84a4.467,4.467,0,0,0,4.448-4.383l.44-30.061A4.448,4.448,0,0,0,106.28,66.6H58.561a3.613,3.613,0,0,1-2.434-.94l-9.415-6.723a4.438,4.438,0,0,0-3-1.162Z" transform="translate(-30.298 -20.57)"/><path class="c" d="M81.543,86.031H79.784l-.55-6.785h2.309Z"/><path class="d" d="M112.289,108.306h-5.672v-.072a2.208,2.208,0,0,1,2.208-2.208h3.464Z" transform="translate(-30.298 -20.57)"/><path class="c" d="M101.2,86.031H99.442L98.6,79.245h2.6Z"/><path class="d" d="M131.948,108.306h-5.672v-.072a2.208,2.208,0,0,1,2.208-2.208h3.464Z" transform="translate(-30.298 -20.57)"/><path class="c" d="M125.715,85.625a1.62,1.62,0,0,0,.042-2.052,1.334,1.334,0,0,0-.154-.157l1.325-4.892-2.208.733-.92,4.533a1.632,1.632,0,0,0,.146,1.786,1.133,1.133,0,0,0,1.769.048Z" transform="translate(-30.298 -20.57)"/><path class="i" d="M125.63,82.616a.561.561,0,0,1-.083-.006l-1.151-.174a.623.623,0,0,1-.432-.3.8.8,0,0,1-.1-.556l1.436-8.018-.974-5.151a2.08,2.08,0,0,1,1.127-2.329,1.539,1.539,0,0,1,1.506.193,2.054,2.054,0,0,1,.807,1.465l.689,6.568-.008.029-2.218,7.784A.642.642,0,0,1,125.63,82.616Z" transform="translate(-30.298 -20.57)"/><circle class="c" cx="3.524" cy="3.524" r="3.524" transform="translate(91.468 35.624)"/><path class="i" d="M123.486,76.1a.714.714,0,0,1-.257-.048l-5.57-2.143a.715.715,0,0,1-.454-.764l.224-1.678a3.8,3.8,0,0,1,.9-3.385l.136-.149,1.648-3.005a1.759,1.759,0,0,1,2.4-.69l2.91,1.626a1.756,1.756,0,0,1,.811.979,5.367,5.367,0,0,1-.082,3.615l-1.993,5.181a.722.722,0,0,1-.67.46Z" transform="translate(-30.298 -20.57)"/><path class="d" d="M108.887,104.935h-.008a.718.718,0,0,1-.563-.869L112.586,85.4a50.318,50.318,0,0,1,2.884-8.63l1.816-4.141,6.776,3.094.968,1.77a17.319,17.319,0,0,1,1.145,6.173l6.886,20.179a.717.717,0,0,1-.561.939l-3.769-.043a.581.581,0,0,1-.108.009.713.713,0,0,1-.663-.45l-7.871-20.4a.144.144,0,0,0-.138-.089.139.139,0,0,0-.13.094l-7.468,20.5a.714.714,0,0,1-.8.461Z" transform="translate(-30.298 -20.57)"/><path class="c" d="M114.04,81.989a1.443,1.443,0,0,0,.77-2.074l3.375-3.86-2.64-.36-2.8,3.721a1.451,1.451,0,0,0,1.3,2.574Z" transform="translate(-30.298 -20.57)"/><path class="i" d="M115.632,79.27a.719.719,0,0,1-.337-.084l-1.188-.634a.718.718,0,0,1-.268-1.018l4.387-6.913.761-5.217a2.014,2.014,0,1,1,3.949.769l-1.571,6.43L116.19,79a.715.715,0,0,1-.559.266Z" transform="translate(-30.298 -20.57)"/><path class="d" d="M122.118,56.811c.408-1.337,2.763-1.933,4.72-1.379a5.144,5.144,0,0,1,3.691,3.431c.725,3.148-3.056,5.7-2.371,8.853.453,2.083,3.076,4.053,6.029,4.529A15.883,15.883,0,0,1,123.941,70.7c-1.879-1.012-3.455-2.54-3.431-4.08a3.728,3.728,0,0,1,1.333-2.47c.726-.713,1.594-1.346,2.26-2.09a3.02,3.02,0,0,0,.933-2.579,3.185,3.185,0,0,0-2.51-2.2Z" transform="translate(-30.298 -20.57)"/><path class="g" d="M141.746,108.57H87.076a.143.143,0,1,1,0-.287h54.669a.143.143,0,1,1,0,.287Z" transform="translate(-30.298 -20.57)"/></g></g></svg>