<svg xmlns="http://www.w3.org/2000/svg" width="33.934" height="33.495" viewBox="0 0 33.934 33.495">
  <g id="Group_1175" data-name="Group 1175" transform="translate(0.5 0.5)">
    <path id="Path_4785" data-name="Path 4785" d="M275.165,246.867a1.011,1.011,0,0,0,1.01-1.01V227.666l4.669,4.886a1.01,1.01,0,1,0,1.461-1.4l-6.409-6.707a1.042,1.042,0,0,0-1.461,0l-6.409,6.707a1.01,1.01,0,1,0,1.461,1.4l4.669-4.886v18.191a1.011,1.011,0,0,0,1.01,1.01Z" transform="translate(-258.699 -214.372)" fill="#004c97" stroke="#004c97" stroke-width="1"/>
    <path id="Path_4786" data-name="Path 4786" d="M172.759,144.329q.261.24.531.469a1.01,1.01,0,0,0,1.306-1.542q-.238-.2-.467-.412a14.447,14.447,0,1,1,19.572,0,1.01,1.01,0,1,0,1.369,1.485,16.467,16.467,0,1,0-22.31,0Z" transform="translate(-167.449 -115.751)" fill="#004c97" stroke="#004c97" stroke-width="1"/>
  </g>
</svg>
