<svg xmlns="http://www.w3.org/2000/svg" width="59" height="59" viewBox="0 0 59 59">
  <g id="Group_2612" data-name="Group 2612" transform="translate(0.405 -0.119)">
    <rect id="Rectangle_1794" data-name="Rectangle 1794" width="59" height="59" rx="12" transform="translate(-0.405 0.119)" fill="#e9ecf5"/>
    <g id="Group_1666" data-name="Group 1666" transform="translate(16.082 16.082)">
      <path id="Path_2150" data-name="Path 2150" d="M167.39,604.6a13.1,13.1,0,0,0-3.125,11.4" transform="translate(-164 -599.789)" fill="none" stroke="#b2c5d8" stroke-linecap="round" stroke-linejoin="round" stroke-width="1.5"/>
      <path id="Path_2151" data-name="Path 2151" d="M189.692,598.467a13.384,13.384,0,0,0-15.906.32" transform="translate(-168.311 -596)" fill="none" stroke="#004c97" stroke-linecap="round" stroke-linejoin="round" stroke-width="1.5"/>
      <path id="Path_2152" data-name="Path 2152" d="M209.332,610.086a13.863,13.863,0,0,0-3.39-6.841" transform="translate(-182.475 -599.192)" fill="none" stroke="#b2c5d8" stroke-linecap="round" stroke-linejoin="round" stroke-width="1.5"/>
      <path id="Path_2153" data-name="Path 2153" d="M182.641,632.669A15.649,15.649,0,0,0,185.76,620" transform="translate(-172.211 -606.571)" fill="none" stroke="#b2c5d8" stroke-linecap="round" stroke-linejoin="round" stroke-width="1.5"/>
      <path id="Path_2154" data-name="Path 2154" d="M186.546,618.339q-.091-.782-.253-1.57l0,0a3.394,3.394,0,0,0-4-2.588,3.311,3.311,0,0,0-2.658,3.9,11.822,11.822,0,0,1-3.523,10.733" transform="translate(-169.337 -603.979)" fill="none" stroke="#b2c5d8" stroke-linecap="round" stroke-linejoin="round" stroke-width="1.5"/>
      <path id="Path_2155" data-name="Path 2155" d="M188.7,636.62a16.788,16.788,0,0,0,3.39-9.375" transform="translate(-174.879 -609.762)" fill="none" stroke="#004c97" stroke-linecap="round" stroke-linejoin="round" stroke-width="1.5"/>
      <path id="Path_2156" data-name="Path 2156" d="M173.8,616.377a7.335,7.335,0,0,0-.1,3.155l.007,0a8.9,8.9,0,0,1-2.713,8.249" transform="translate(-167.079 -604.975)" fill="none" stroke="#b2c5d8" stroke-linecap="round" stroke-linejoin="round" stroke-width="1.5"/>
      <path id="Path_2157" data-name="Path 2157" d="M188.7,626.976a20.108,20.108,0,0,0,1.817-13.477,6.835,6.835,0,0,0-8.135-5.112,6.96,6.96,0,0,0-3.935,2.213" transform="translate(-170.363 -601.385)" fill="none" stroke="#004c97" stroke-linecap="round" stroke-linejoin="round" stroke-width="1.5"/>
      <path id="Path_2158" data-name="Path 2158" d="M176.388,603.245a9.8,9.8,0,0,0-7.479,11.5h.005a4.892,4.892,0,0,1-1.653,4.721" transform="translate(-165.437 -599.192)" fill="none" stroke="#b2c5d8" stroke-linecap="round" stroke-linejoin="round" stroke-width="1.5"/>
      <path id="Path_2159" data-name="Path 2159" d="M197.525,621.4a25.744,25.744,0,0,0,.335-11.441h0a9.879,9.879,0,0,0-9.159-8.068" transform="translate(-174.879 -598.593)" fill="none" stroke="#b2c5d8" stroke-linecap="round" stroke-linejoin="round" stroke-width="1.5"/>
    </g>
  </g>
</svg>
