<svg xmlns="http://www.w3.org/2000/svg" width="48" height="48" viewBox="0 0 48 48">
  <g id="Group_758" data-name="Group 758" transform="translate(-21 -370)">
    <rect id="Rectangle_661" data-name="Rectangle 661" width="48" height="48" rx="10" transform="translate(21 370)" fill="#fff"/>
    <g id="notification_1_" data-name="notification (1)" transform="translate(-9.675 379)">
      <g id="Group_507" data-name="Group 507" transform="translate(42.675)">
        <g id="Group_506" data-name="Group 506" transform="translate(0)">
          <path id="Path_2012" data-name="Path 2012" d="M66.59,23.216l-2.06-3.282a9.426,9.426,0,0,1-1.454-5.016V12.042a8.1,8.1,0,0,0-6-7.69V2.294a2.4,2.4,0,0,0-4.8,0V4.352a8.1,8.1,0,0,0-6,7.69v2.875a9.432,9.432,0,0,1-1.453,5.015l-2.06,3.282a.551.551,0,0,0-.007.578.6.6,0,0,0,.521.291h22.8a.607.607,0,0,0,.522-.29A.553.553,0,0,0,66.59,23.216Z" transform="translate(-42.675)" fill="#456efe"/>
        </g>
      </g>
      <g id="Group_509" data-name="Group 509" transform="translate(50.564 25.389)">
        <g id="Group_508" data-name="Group 508">
          <path id="Path_2013" data-name="Path 2013" d="M188.815,469.333a4.542,4.542,0,0,0,8.221,0Z" transform="translate(-188.815 -469.333)" fill="#456efe"/>
        </g>
      </g>
    </g>
  </g>
</svg>
