<svg id="Illustration" xmlns="http://www.w3.org/2000/svg" xmlns:xlink="http://www.w3.org/1999/xlink" width="152.665" height="151.086" viewBox="0 0 152.665 151.086">
  <defs>
    <linearGradient id="linear-gradient" y1="0.5" x2="1" y2="0.5" gradientUnits="objectBoundingBox">
      <stop offset="0.494" stop-color="#ebeff2"/>
      <stop offset="1" stop-color="#fff"/>
    </linearGradient>
    <linearGradient id="linear-gradient-2" x1="1.152" y1="1.015" x2="0.811" y2="0.742" gradientUnits="objectBoundingBox">
      <stop offset="0" stop-color="#fff"/>
      <stop offset="0.996" stop-color="#ebeff2"/>
    </linearGradient>
    <linearGradient id="linear-gradient-3" x1="0.491" y1="0.736" x2="0.485" y2="0.908" xlink:href="#linear-gradient-2"/>
    <linearGradient id="linear-gradient-4" x1="0" y1="0.5" x2="1" y2="0.5" xlink:href="#linear-gradient-2"/>
    <linearGradient id="linear-gradient-6" y1="0.5" x2="1" y2="0.5" gradientUnits="objectBoundingBox">
      <stop offset="0" stop-color="#e9ecf5"/>
      <stop offset="1" stop-color="#004c97"/>
    </linearGradient>
    <linearGradient id="linear-gradient-7" x1="0.497" y1="0.135" x2="0.503" y2="1.291" gradientUnits="objectBoundingBox">
      <stop offset="0.004" stop-color="#f36f56"/>
      <stop offset="1" stop-color="#ffc444"/>
    </linearGradient>
    <linearGradient id="linear-gradient-8" x1="0.702" y1="-0.485" x2="0.375" y2="0.995" xlink:href="#linear-gradient-7"/>
    <linearGradient id="linear-gradient-9" x1="0.557" y1="0.025" x2="0.428" y2="1.045" gradientUnits="objectBoundingBox">
      <stop offset="0" stop-color="#444b8c"/>
      <stop offset="0.996" stop-color="#26264f"/>
    </linearGradient>
    <linearGradient id="linear-gradient-10" x1="1.76" y1="-3.575" x2="-0.269" y2="2.709" xlink:href="#linear-gradient-7"/>
    <linearGradient id="linear-gradient-11" x1="1.953" y1="-4.096" x2="-0.009" y2="2.202" xlink:href="#linear-gradient-7"/>
    <linearGradient id="linear-gradient-12" x1="0.493" y1="0.135" x2="0.509" y2="1.291" gradientUnits="objectBoundingBox">
      <stop offset="0" stop-color="#ff9085"/>
      <stop offset="1" stop-color="#fb6fbb"/>
    </linearGradient>
    <linearGradient id="linear-gradient-13" x1="0.5" y1="0.137" x2="0.505" y2="1.288" xlink:href="#linear-gradient-12"/>
    <linearGradient id="linear-gradient-14" x1="-3.668" y1="2.143" x2="-2.385" y2="0.164" gradientUnits="objectBoundingBox">
      <stop offset="0" stop-color="#051a2d"/>
      <stop offset="1" stop-color="#004c97"/>
    </linearGradient>
    <linearGradient id="linear-gradient-15" x1="-3.367" y1="2.323" x2="-2.564" y2="0.059" xlink:href="#linear-gradient-14"/>
    <linearGradient id="linear-gradient-16" x1="-18.713" y1="6.382" x2="-17.723" y2="6.382" xlink:href="#linear-gradient-9"/>
    <linearGradient id="linear-gradient-17" x1="-69.066" y1="4.323" x2="-67.759" y2="2.523" gradientUnits="objectBoundingBox">
      <stop offset="0" stop-color="#ffc444"/>
      <stop offset="0.996" stop-color="#f36f56"/>
    </linearGradient>
    <linearGradient id="linear-gradient-18" x1="-23.667" y1="13.303" x2="-22.701" y2="13.303" xlink:href="#linear-gradient-9"/>
    <linearGradient id="linear-gradient-19" x1="-65.874" y1="8.817" x2="-64.815" y2="6.928" xlink:href="#linear-gradient-17"/>
    <linearGradient id="linear-gradient-20" x1="11.929" y1="0.64" x2="10.873" y2="-0.033" gradientUnits="objectBoundingBox">
      <stop offset="0" stop-color="#444b8c"/>
      <stop offset="0.996" stop-color="#3e4177"/>
    </linearGradient>
    <linearGradient id="linear-gradient-21" x1="-0.198" y1="-0.965" x2="0.423" y2="1.248" xlink:href="#linear-gradient-14"/>
    <linearGradient id="linear-gradient-22" x1="4.982" y1="0.83" x2="5.787" y2="-0.839" xlink:href="#linear-gradient-20"/>
    <linearGradient id="linear-gradient-23" x1="18.499" y1="-1.099" x2="19.503" y2="-1.099" xlink:href="#linear-gradient-20"/>
    <linearGradient id="linear-gradient-24" x1="20.145" y1="-1.996" x2="21.074" y2="-1.996" xlink:href="#linear-gradient-20"/>
    <linearGradient id="linear-gradient-25" x1="-107.866" y1="-55.188" x2="-107.676" y2="-51.354" gradientUnits="objectBoundingBox">
      <stop offset="0" stop-color="#ffc444"/>
      <stop offset="1" stop-color="#f36f56"/>
    </linearGradient>
    <linearGradient id="linear-gradient-26" x1="20.436" y1="0.5" x2="21.436" y2="0.5" xlink:href="#linear-gradient-12"/>
    <linearGradient id="linear-gradient-27" x1="13.31" y1="-0.153" x2="13.367" y2="0.759" xlink:href="#linear-gradient-12"/>
    <linearGradient id="linear-gradient-28" x1="15.606" y1="0.5" x2="16.606" y2="0.5" xlink:href="#linear-gradient-12"/>
    <linearGradient id="linear-gradient-29" x1="2.754" y1="1.912" x2="0.569" y2="-0.592" gradientUnits="objectBoundingBox">
      <stop offset="0.105" stop-color="#051a2d"/>
      <stop offset="0.745" stop-color="#004c97"/>
    </linearGradient>
    <linearGradient id="linear-gradient-30" x1="0.344" y1="0.444" x2="1.411" y2="0.444" xlink:href="#linear-gradient-14"/>
    <linearGradient id="linear-gradient-31" x1="-1.334" y1="0.63" x2="-0.334" y2="0.63" xlink:href="#linear-gradient-14"/>
    <linearGradient id="linear-gradient-32" x1="-0.472" y1="0.5" x2="0.528" y2="0.5" xlink:href="#linear-gradient-14"/>
    <linearGradient id="linear-gradient-33" x1="-5.911" y1="1.534" x2="-6.41" y2="0.99" xlink:href="#linear-gradient-14"/>
    <linearGradient id="linear-gradient-34" x1="-7.076" y1="0.754" x2="-6.358" y2="1.522" xlink:href="#linear-gradient-14"/>
    <linearGradient id="linear-gradient-35" x1="0.24" y1="2.846" x2="0.606" y2="-0.259" xlink:href="#linear-gradient-9"/>
    <linearGradient id="linear-gradient-36" x1="0.438" y1="3.177" x2="0.516" y2="-0.32" gradientUnits="objectBoundingBox">
      <stop offset="0.1" stop-color="#311944"/>
      <stop offset="0.267" stop-color="#371b47"/>
      <stop offset="0.48" stop-color="#462150"/>
      <stop offset="0.719" stop-color="#612a5f"/>
      <stop offset="0.974" stop-color="#853774"/>
      <stop offset="1" stop-color="#893976"/>
    </linearGradient>
    <linearGradient id="linear-gradient-37" x1="0.987" y1="0.557" x2="18.386" y2="2.438" xlink:href="#linear-gradient-36"/>
    <linearGradient id="linear-gradient-38" x1="0.15" y1="2.889" x2="0.631" y2="-0.295" xlink:href="#linear-gradient-9"/>
    <linearGradient id="linear-gradient-39" x1="0.885" y1="7.141" x2="-0.954" y2="-22.481" gradientUnits="objectBoundingBox">
      <stop offset="0.1" stop-color="#311944"/>
      <stop offset="0.685" stop-color="#6d2f66"/>
      <stop offset="1" stop-color="#893976"/>
    </linearGradient>
    <linearGradient id="linear-gradient-40" x1="2.507" y1="0.836" x2="-0.59" y2="0.309" gradientUnits="objectBoundingBox">
      <stop offset="0" stop-color="#311944"/>
      <stop offset="1" stop-color="#893976"/>
    </linearGradient>
    <linearGradient id="linear-gradient-41" x1="-0.722" y1="0.099" x2="0.536" y2="0.581" xlink:href="#linear-gradient-40"/>
    <linearGradient id="linear-gradient-42" x1="0.437" y1="-0.479" x2="0.53" y2="0.935" xlink:href="#linear-gradient-39"/>
    <linearGradient id="linear-gradient-43" x1="0.203" y1="0.325" x2="0.951" y2="0.917" xlink:href="#linear-gradient-40"/>
    <linearGradient id="linear-gradient-44" x1="0.152" y1="0.495" x2="0.441" y2="0.472" xlink:href="#linear-gradient-39"/>
    <linearGradient id="linear-gradient-45" x1="0.592" y1="2.528" x2="0.488" y2="0.167" xlink:href="#linear-gradient-36"/>
    <linearGradient id="linear-gradient-46" x1="0.642" y1="3.142" x2="0.466" y2="-0.185" xlink:href="#linear-gradient-40"/>
    <linearGradient id="linear-gradient-47" x1="2.625" y1="1.518" x2="-0.622" y2="-0.008" xlink:href="#linear-gradient-17"/>
    <linearGradient id="linear-gradient-48" x1="-0.331" y1="0.234" x2="2.97" y2="1.286" xlink:href="#linear-gradient-17"/>
  </defs>
  <path id="Path_159" data-name="Path 159" d="M544.025,458.225a123.428,123.428,0,0,0-34.9-2.99c-10.287.69-21.948,2.572-30.227,9.316-3.945,3.214-8.65,8.988-9.94,14.083,0,0-6.793,26.815-20.378,32.561s-23.019,103.813,80,94.236c0,0,60.508-2.51,64.152-74.793.88-17.462.388-36.658-10.155-51.259-8.079-11.188-19.4-16.163-32.408-19.644Q547.126,458.918,544.025,458.225Z" transform="translate(-440.366 -455.003)" fill="#f4f7fa"/>
  <g id="Group_27" data-name="Group 27" transform="translate(17.088 53.28)">
    <path id="Path_160" data-name="Path 160" d="M915.173,2702.133,781.76,2700.96v3.47a1.839,1.839,0,0,0,1.37,1.885l37.725,6.832a5.166,5.166,0,0,0,1.353.064l91.514-7.79a1.747,1.747,0,0,0,1.45-1.84v-1.448Z" transform="translate(-780.427 -2633.05)" fill="#abc"/>
    <g id="Group_26" data-name="Group 26">
      <path id="Path_161" data-name="Path 161" d="M843.382,1505.869l-83.618,6.347a2.571,2.571,0,0,1-2.713-2.7v-64.208a2.814,2.814,0,0,1,2.713-2.9h83.618a2.45,2.45,0,0,1,2.23,2.623v58.042A2.687,2.687,0,0,1,843.382,1505.869Z" transform="translate(-757.05 -1442.41)" fill="#abc"/>
      <path id="Path_162" data-name="Path 162" d="M868.091,1505.869l-83.618,6.347a2.571,2.571,0,0,1-2.713-2.7v-64.208a2.814,2.814,0,0,1,2.713-2.9h83.619a2.45,2.45,0,0,1,2.23,2.623v58.042A2.687,2.687,0,0,1,868.091,1505.869Z" transform="translate(-780.427 -1442.41)" fill="#fff"/>
      <path id="Path_163" data-name="Path 163" d="M929.259,1567.138l-77.882,5.514a2.108,2.108,0,0,1-2.207-2.213v-56.214a2.305,2.305,0,0,1,2.207-2.379l77.882-.346a2.006,2.006,0,0,1,1.839,2.15v51.2A2.2,2.2,0,0,1,929.259,1567.138Z" transform="translate(-844.199 -1507.772)" fill="#bfc8d6"/>
      <path id="Path_164" data-name="Path 164" d="M1627.836,1456.03a.969.969,0,1,1-.962-1.08A1.03,1.03,0,0,1,1627.836,1456.03Z" transform="translate(-1579.027 -1454.273)" fill="#fff"/>
      <path id="Path_165" data-name="Path 165" d="M847.954,1488.259c-6.446-3.725-11.515.995-16.406-3.662-2.966-2.824-1.51-4.929-5.159-9.149-4.042-4.674-6.673-3.1-10.735-7.309-5.136-5.319-2.567-9.457-6.991-13.276-5.367-4.632-11.154-.345-16.264-4.788a13.67,13.67,0,0,1-4.044-7.665h-5a1.649,1.649,0,0,0-1.587,1.7v66.557a1.506,1.506,0,0,0,1.587,1.582l85.221-6.5a1.362,1.362,0,0,0,1.027-.674c-6.238-.244-10.071-2.491-12.521-4.813C852.291,1495.725,853.122,1491.245,847.954,1488.259Z" transform="translate(-780.436 -1442.41)" fill="#fff" opacity="0.48"/>
    </g>
    <path id="Path_166" data-name="Path 166" d="M871.424,2612.794l-89.664,6.681,39.1,7.08a5.156,5.156,0,0,0,1.353.064l92.964-7.913-42.323-5.867A6.694,6.694,0,0,0,871.424,2612.794Z" transform="translate(-780.427 -2549.623)" fill="url(#linear-gradient)"/>
    <path id="Path_167" data-name="Path 167" d="M1024.23,2641.075l74.648-5.645,23.1,3.177-74.005,6.034Z" transform="translate(-1009.813 -2571.055)" fill="#d8dee8"/>
  </g>
  <g id="Group_31" data-name="Group 31" transform="translate(31.416 28.169)">
    <g id="Group_29" data-name="Group 29" transform="translate(0)">
      <g id="Group_28" data-name="Group 28">
        <path id="Path_168" data-name="Path 168" d="M1022.58,1081.35v83.988a2.464,2.464,0,0,0,2.74,2.37l62.976-4.245a2.718,2.718,0,0,0,2.524-2.574v-79.347Z" transform="translate(-1022.58 -1075.722)" fill="#eaedf3"/>
        <path id="Path_169" data-name="Path 169" d="M1088.318,977.514l-62.955-.465a2.684,2.684,0,0,0-2.783,2.532v3.1l68.24.192v-2.925A2.509,2.509,0,0,0,1088.318,977.514Z" transform="translate(-1022.58 -977.049)" fill="#d8dee8"/>
      </g>
    </g>
    <path id="Path_170" data-name="Path 170" d="M1050.3,1081.4v83.888a2.458,2.458,0,0,0,2.732,2.368l62.629-4.236a2.536,2.536,0,0,0,2.318-2.571V1081.59Z" transform="translate(-1048.804 -1075.769)" fill="url(#linear-gradient-2)"/>
    <path id="Path_171" data-name="Path 171" d="M1095.34,1081.54v81.973a1.409,1.409,0,0,0,1.56,1.381l60.695-3.953a1.606,1.606,0,0,0,1.5-1.5V1081.72Z" transform="translate(-1091.414 -1075.902)" fill="url(#linear-gradient-3)"/>
    <path id="Path_172" data-name="Path 172" d="M1211.036,1215.82,1155.1,1216a.836.836,0,0,0-.854.8v45.732a.779.779,0,0,0,.839.767l55.95-2.346a.83.83,0,0,0,.794-.8v-43.581A.789.789,0,0,0,1211.036,1215.82Z" transform="translate(-1147.145 -1202.936)" fill="#d8dee8"/>
    <path id="Path_173" data-name="Path 173" d="M1115.682,977.683l-62.707-.465a2.587,2.587,0,0,0-2.675,2.529v3.092l67.679.191v-2.922A2.335,2.335,0,0,0,1115.682,977.683Z" transform="translate(-1048.804 -977.21)" fill="#bfc8d6"/>
    <path id="Path_174" data-name="Path 174" d="M1179.676,2259.028l-25.426,1.354v-4.011l25.426-1.271Z" transform="translate(-1147.145 -2186.137)" fill="#d8dee8"/>
    <path id="Path_175" data-name="Path 175" d="M1198.932,2346.959l-44.682,2.544V2347.1l44.682-2.457Z" transform="translate(-1147.145 -2270.845)" fill="#d8dee8"/>
    <path id="Path_176" data-name="Path 176" d="M1198.932,2422.159l-44.682,2.7v-2.406l44.682-2.611Z" transform="translate(-1147.145 -2341.988)" fill="#d8dee8"/>
    <g id="Group_30" data-name="Group 30" transform="translate(3.92 1.6)">
      <path id="Path_177" data-name="Path 177" d="M1097.77,1007.921a1.231,1.231,0,0,1-1.269,1.2,1.246,1.246,0,0,1-1.271-1.211,1.231,1.231,0,0,1,1.271-1.2A1.246,1.246,0,0,1,1097.77,1007.921Z" transform="translate(-1095.23 -1006.709)" fill="#fff"/>
      <path id="Path_178" data-name="Path 178" d="M1176.133,1008.4a1.224,1.224,0,0,1-1.26,1.194,1.24,1.24,0,0,1-1.263-1.207,1.224,1.224,0,0,1,1.263-1.194A1.24,1.24,0,0,1,1176.133,1008.4Z" transform="translate(-1169.38 -1007.164)" fill="#fff"/>
      <path id="Path_179" data-name="Path 179" d="M1253.955,1008.872a1.218,1.218,0,0,1-1.251,1.19,1.233,1.233,0,0,1-1.254-1.2,1.219,1.219,0,0,1,1.254-1.19A1.233,1.233,0,0,1,1253.955,1008.872Z" transform="translate(-1243.021 -1007.618)" fill="#fff"/>
    </g>
  </g>
  <g id="Group_35" data-name="Group 35" transform="translate(46.373 21.121)">
    <g id="Group_33" data-name="Group 33" transform="translate(0)">
      <g id="Group_32" data-name="Group 32">
        <path id="Path_180" data-name="Path 180" d="M1299.77,949.19v82.965a2.443,2.443,0,0,0,2.684,2.359l61.357-3.784a2.529,2.529,0,0,0,2.329-2.529V949.767Z" transform="translate(-1299.77 -943.645)" fill="#eaedf3"/>
        <path id="Path_181" data-name="Path 181" d="M1363.838,847.241l-61.414-.816a2.559,2.559,0,0,0-2.654,2.486v3.059l66.37.577v-2.891A2.36,2.36,0,0,0,1363.838,847.241Z" transform="translate(-1299.77 -846.425)" fill="#d8dee8"/>
      </g>
    </g>
    <path id="Path_182" data-name="Path 182" d="M1327.49,949.4v82.867a2.421,2.421,0,0,0,2.658,2.356l61.3-3.775a2.6,2.6,0,0,0,2.41-2.526V949.978Z" transform="translate(-1325.994 -943.844)" fill="#fff"/>
    <path id="Path_183" data-name="Path 183" d="M1372.53,949.81v80.977a1.36,1.36,0,0,0,1.485,1.374l59.1-3.512a1.42,1.42,0,0,0,1.3-1.472V950.348Z" transform="translate(-1368.604 -944.232)" fill="url(#linear-gradient-4)"/>
    <path id="Path_184" data-name="Path 184" d="M1483.274,1086.334l-54.545-.145a.752.752,0,0,0-.76.79v45.179a.786.786,0,0,0,.837.763l54.461-1.969c.414-.015.6-.365.6-.783v-43.078C1483.87,1086.675,1483.689,1086.336,1483.274,1086.334Z" transform="translate(-1421.052 -1073.252)" fill="#d8dee8"/>
    <path id="Path_185" data-name="Path 185" d="M1391.457,847.59l-61.3-.815a2.58,2.58,0,0,0-2.677,2.483v3.055l66.37.577V850A2.438,2.438,0,0,0,1391.457,847.59Z" transform="translate(-1325.984 -846.757)" fill="#bfc8d6"/>
    <path id="Path_186" data-name="Path 186" d="M1452.835,2116.342l-24.865,1.175v-3.963l24.865-1.094Z" transform="translate(-1421.052 -2044.146)" fill="#d8dee8"/>
    <path id="Path_187" data-name="Path 187" d="M1471.718,2205.521l-43.748,2.227v-2.377l43.748-2.141Z" transform="translate(-1421.052 -2130.018)" fill="#d8dee8"/>
    <path id="Path_188" data-name="Path 188" d="M1471.718,2279.842l-43.748,2.377v-2.378l43.748-2.291Z" transform="translate(-1421.052 -2200.328)" fill="#d8dee8"/>
    <g id="Group_34" data-name="Group 34" transform="translate(3.846 1.595)">
      <path id="Path_189" data-name="Path 189" d="M1373.529,877.192a1.2,1.2,0,0,1-1.239,1.176,1.232,1.232,0,0,1-1.24-1.2,1.2,1.2,0,0,1,1.24-1.176A1.232,1.232,0,0,1,1373.529,877.192Z" transform="translate(-1371.05 -875.988)" fill="#fff"/>
      <path id="Path_190" data-name="Path 190" d="M1449.992,878.108a1.193,1.193,0,0,1-1.23,1.173,1.225,1.225,0,0,1-1.232-1.2,1.194,1.194,0,0,1,1.232-1.173A1.225,1.225,0,0,1,1449.992,878.108Z" transform="translate(-1443.403 -876.859)" fill="#fff"/>
      <path id="Path_191" data-name="Path 191" d="M1525.955,879a1.187,1.187,0,0,1-1.222,1.169,1.219,1.219,0,0,1-1.224-1.2,1.187,1.187,0,0,1,1.224-1.169A1.22,1.22,0,0,1,1525.955,879Z" transform="translate(-1515.283 -877.71)" fill="#fff"/>
    </g>
  </g>
  <g id="Group_39" data-name="Group 39" transform="translate(62.264 12.302)">
    <g id="Group_37" data-name="Group 37">
      <g id="Group_36" data-name="Group 36">
        <path id="Path_192" data-name="Path 192" d="M1658.771,785.148v77.469a2.379,2.379,0,0,1-2.174,2.478l-59.8,3.237a2.334,2.334,0,0,1-2.522-2.349V784.1Z" transform="translate(-1594.27 -778.644)" fill="#eaedf3"/>
        <path id="Path_193" data-name="Path 193" d="M1658.78,686.638v2.856l-64.5-1.048v-3.019a2.454,2.454,0,0,1,2.549-2.436l59.787,1.247A2.273,2.273,0,0,1,1658.78,686.638Z" transform="translate(-1594.279 -682.989)" fill="#d8dee8"/>
      </g>
    </g>
    <path id="Path_194" data-name="Path 194" d="M1686.5,785.568v77.381a2.467,2.467,0,0,1-2.281,2.475l-59.684,3.229a2.345,2.345,0,0,1-2.534-2.347V784.52Z" transform="translate(-1620.504 -779.042)" fill="#fff"/>
    <path id="Path_195" data-name="Path 195" d="M1663.57,785.17V865.1a1.359,1.359,0,0,0,1.462,1.369l57.637-2.988a1.4,1.4,0,0,0,1.288-1.442v-75.88Z" transform="translate(-1659.831 -779.656)" fill="url(#linear-gradient-4)"/>
    <path id="Path_196" data-name="Path 196" d="M1769.675,920.872l-53.279-.542a.822.822,0,0,0-.846.774V965.7a.842.842,0,0,0,.886.76l53.2-1.518a.734.734,0,0,0,.694-.767V921.624A.686.686,0,0,0,1769.675,920.872Z" transform="translate(-1709.006 -907.523)" fill="#d8dee8"/>
    <path id="Path_197" data-name="Path 197" d="M1686.491,687.193v2.853L1621.99,689v-3.015a2.43,2.43,0,0,1,2.521-2.432l59.694,1.244A2.373,2.373,0,0,1,1686.491,687.193Z" transform="translate(-1620.494 -683.519)" fill="#bfc8d6"/>
    <path id="Path_198" data-name="Path 198" d="M1739.845,1940.652l-24.3.963V1937.7l24.3-.884Z" transform="translate(-1708.996 -1869.164)" fill="#d8dee8"/>
    <path id="Path_199" data-name="Path 199" d="M1758.353,2031.5l-42.813,1.848V2031l42.813-1.764Z" transform="translate(-1708.996 -1956.597)" fill="#d8dee8"/>
    <path id="Path_200" data-name="Path 200" d="M1758.353,2104.9l-42.813,1.995v-2.346l42.813-1.911Z" transform="translate(-1708.996 -2026.037)" fill="#d8dee8"/>
    <g id="Group_38" data-name="Group 38" transform="translate(3.693 1.592)">
      <path id="Path_201" data-name="Path 201" d="M1665.125,713.683a1.166,1.166,0,0,1-1.206,1.153,1.218,1.218,0,0,1-1.209-1.2,1.165,1.165,0,0,1,1.209-1.153A1.219,1.219,0,0,1,1665.125,713.683Z" transform="translate(-1662.71 -712.486)" fill="#fff"/>
      <path id="Path_202" data-name="Path 202" d="M1739.629,715.139a1.16,1.16,0,0,1-1.2,1.149,1.213,1.213,0,0,1-1.2-1.193,1.159,1.159,0,0,1,1.2-1.149A1.212,1.212,0,0,1,1739.629,715.139Z" transform="translate(-1733.209 -713.867)" fill="#fff"/>
      <path id="Path_203" data-name="Path 203" d="M1813.623,716.575a1.154,1.154,0,0,1-1.19,1.145,1.206,1.206,0,0,1-1.193-1.189,1.154,1.154,0,0,1,1.193-1.145A1.206,1.206,0,0,1,1813.623,716.575Z" transform="translate(-1803.225 -715.229)" fill="#fff"/>
    </g>
  </g>
  <path id="Path_204" data-name="Path 204" d="M1800.4,1526.327a8.532,8.532,0,0,0-5.818-7.571,58.436,58.436,0,0,0-40.208,1.645,9.433,9.433,0,0,0-5.921,8.568l-.1,9.522,52.753-1.885Z" transform="translate(-1677.782 -1458.685)" fill="url(#linear-gradient-6)"/>
  <path id="Path_205" data-name="Path 205" d="M2095.385,1298.4l-.868,6.567c-.252,4.175-4.338,5.9-4.338,5.9,4.794,5.551,13.85,4.921,16.984-.6-2.164-.742-4.6-4.071-4.694-6.458l-.22-5.539Z" transform="translate(-2001.157 -1252.768)" fill="url(#linear-gradient-7)"/>
  <g id="Group_40" data-name="Group 40" transform="translate(88.291 27.306)">
    <path id="Path_206" data-name="Path 206" d="M2135.866,1042.442c0,5.465-3.228,11.428-7.255,11.542-4.078.116-7.421-5.8-7.421-11.386s3.344-8.64,7.421-8.629C2132.638,1033.979,2135.866,1036.977,2135.866,1042.442Z" transform="translate(-2118.785 -1030.034)" fill="url(#linear-gradient-8)"/>
    <path id="Path_207" data-name="Path 207" d="M2078.8,975.023l1.233-.212a5.169,5.169,0,0,1,0-4.252,5.257,5.257,0,0,1,4.76-2.431c1.875.122,3,1,3.935.314a2.257,2.257,0,0,0,.756-1.614,5.144,5.144,0,0,0,.377,1.417c.694,1.615,1.867,1.946,2.5,3.01.429.716.708,1.917,0,4.043l1.059-.078a30.064,30.064,0,0,0,1.094-4.947c.411-3.063.693-5.169-.473-6.2-.233-.206-1.264-1.021-3.74-.269a8.581,8.581,0,0,0-3.7-2.341,7.776,7.776,0,0,0-6.839.895c-1.991,1.438-3.556,4.14-3.052,6.38.266,1.183.993,1.712,1.632,4A15.194,15.194,0,0,1,2078.8,975.023Z" transform="translate(-2076.617 -961.045)" fill="url(#linear-gradient-9)"/>
    <path id="Path_208" data-name="Path 208" d="M2374.6,1190.162s.463-2.4,1.868-2.178-.607,4.167-1.868,4.66Z" transform="translate(-2358.521 -1175.724)" fill="url(#linear-gradient-10)"/>
    <path id="Path_209" data-name="Path 209" d="M2095.213,1193.286s-.483-2.439-1.955-2.182.638,4.253,1.955,4.713Z" transform="translate(-2091.883 -1178.673)" fill="url(#linear-gradient-11)"/>
  </g>
  <path id="Path_210" data-name="Path 210" d="M2107.161,1520.66l-5.818,12.671-2.61,5.68-2.52-5.231-6.034-12.521a26.126,26.126,0,0,0,6.4.984,29.992,29.992,0,0,0,4.295-.177A27.815,27.815,0,0,0,2107.161,1520.66Z" transform="translate(-2001.157 -1463.158)" fill="#fff"/>
  <g id="Group_41" data-name="Group 41" transform="translate(95.074 58.732)">
    <path id="Path_211" data-name="Path 211" d="M2207.5,1610.7l-2.645,5.68-2.537-5.231,1.511-8.555,2.51-.153v0Z" transform="translate(-2202.32 -1599.257)" fill="url(#linear-gradient-12)"/>
    <path id="Path_212" data-name="Path 212" d="M2207.79,1543.643l1.137,3.142,2.423-.051.835-3.283Z" transform="translate(-2207.495 -1543.45)" fill="url(#linear-gradient-13)"/>
  </g>
  <path id="Path_213" data-name="Path 213" d="M1769.675,924.483l-53.279-.534a.822.822,0,0,0-.846.774v44.593a.842.842,0,0,0,.886.76l53.2-1.527a.735.735,0,0,0,.694-.768V925.236A.686.686,0,0,0,1769.675,924.483Z" transform="translate(-1646.742 -898.645)" fill="none"/>
  <path id="Path_214" data-name="Path 214" d="M1651.531,760.911a45.084,45.084,0,0,0-.276,6.214q.041,1.383.18,2.613l-54.578,2.951a2.389,2.389,0,0,1-2.587-2.349v-84.9a2.454,2.454,0,0,1,2.549-2.436l3.8.079a12.052,12.052,0,0,1,1.869,1.785,12.822,12.822,0,0,1,1.355,1.961,14.462,14.462,0,0,1,.85,1.8,20.8,20.8,0,0,1,1.3,7.227c.01.561.007,1.141-.015,1.745-.6,16.558.995,26.142,19.191,30.663,10.558,2.625,18.8,5.565,23.181,12.348C1651.319,745.2,1652.547,751.585,1651.531,760.911Z" transform="translate(-1532.006 -670.697)" fill="#fff" opacity="0.3"/>
  <g id="Group_42" data-name="Group 42" transform="translate(48.254 57.945)">
    <path id="Path_215" data-name="Path 215" d="M1335.078,1549.483l-.067,1.321s1.355.79,3.306,1.757c3.652,3.147,9.157,6.813,12.345,3.763a10.562,10.562,0,0,0,3.072-8.081,15.377,15.377,0,0,0-.732-4.42l-2.956.793c-4.472-8.668-13.925-15.747-13.925-15.747l-.658,13.012-.353,7-.469.136S1334.8,1549.188,1335.078,1549.483Z" transform="translate(-1334.64 -1528.87)" fill="url(#linear-gradient-14)"/>
    <path id="Path_216" data-name="Path 216" d="M1335.078,1776.574l-.067,1.321s1.355.791,3.306,1.757c3.652,3.147,9.157,6.813,12.345,3.764a10.563,10.563,0,0,0,3.072-8.081,2.705,2.705,0,0,0-3.072-2.261s-2.666-.661-5.938,2.126-2.456-5.032-7.739-6.184a3.73,3.73,0,0,0-1.522-.043l-.353,7-.469.136S1334.8,1776.279,1335.078,1776.574Z" transform="translate(-1334.64 -1755.961)" opacity="0.2" fill="url(#linear-gradient-15)"/>
  </g>
  <path id="Path_217" data-name="Path 217" d="M1013.578,3127.866c-.284.261-.3.87-.313,1.268a.972.972,0,0,0,.016.328c.172.447,1.059.441,2.453.5,2.2.09,2.866.223,3.017-.113.142-.315-.277-.792-.324-.844a2.009,2.009,0,0,0-1.119-.521c-1.054-.277-1.763-.421-1.978-.464C1013.989,3127.744,1013.765,3127.7,1013.578,3127.866Z" transform="translate(-982.349 -2983.547)" fill="url(#linear-gradient-16)"/>
  <path id="Path_218" data-name="Path 218" d="M1017.109,3088.89l.086,2.508a1.358,1.358,0,0,1-1.4.1l-.432-2.484Z" transform="translate(-984.334 -2946.767)" fill="url(#linear-gradient-17)"/>
  <path id="Path_219" data-name="Path 219" d="M1356.646,3117.652a1.235,1.235,0,0,0-.207,1.474c.287.369.761.129,2.063.237,1.395.117,1.742.466,2.7.255.389-.085,1.08-.307,1.082-.582,0-.193-.338-.311-1.469-.758a14.771,14.771,0,0,0-1.941-.74C1358.014,3117.348,1357.146,3117.156,1356.646,3117.652Z" transform="translate(-1306.854 -2973.679)" fill="url(#linear-gradient-18)"/>
  <path id="Path_220" data-name="Path 220" d="M1351.545,3081.84l.577,2.368a1.359,1.359,0,0,1-1.392.2l-.92-2.317Z" transform="translate(-1300.737 -2940.098)" fill="url(#linear-gradient-19)"/>
  <path id="Path_221" data-name="Path 221" d="M1096.909,2129.69a218.647,218.647,0,0,0,4.137,52.092l-2.72.578a22.774,22.774,0,0,1-5.967-10.5c-.7-2.965-.335-4.45-.687-8.071-.56-5.765-2.153-8.854-3.718-13.562a75.967,75.967,0,0,1-3.6-18.6Z" transform="translate(-1049.601 -2039.325)" fill="#272452"/>
  <path id="Path_222" data-name="Path 222" d="M1095.648,2180.729c-1-3.954-2.922-5-2.99-8.732-.048-2.64.9-2.856.837-5.383-.1-3.833-2.341-5.843-3.469-8.254-1.191-2.546-1.648-6.636,1.563-13.44l-7.249,1.122a75.984,75.984,0,0,0,3.6,18.6c1.565,4.708,3.158,7.8,3.718,13.562.352,3.62-.014,5.106.687,8.071a22.781,22.781,0,0,0,5.967,10.5l.692-.147a13.377,13.377,0,0,1-3.361-7.279C1095.308,2186.064,1096.655,2184.716,1095.648,2180.729Z" transform="translate(-1049.592 -2053.733)" opacity="0.3" fill="url(#linear-gradient-20)"/>
  <path id="Path_223" data-name="Path 223" d="M900.657,2117.914q-1.619,14.9-2.963,30.365-1,11.6-1.794,22.921l-2.757.192a31.928,31.928,0,0,1-2.463-7.526c-.766-3.962-.417-6.272-.628-10.347-.237-4.57-.881-5.6-1.81-11.4-1.884-11.769-2.826-17.654.162-21.123C889.373,2119.873,892.374,2117.077,900.657,2117.914Z" transform="translate(-862.412 -2028.039)" fill="#272452"/>
  <path id="Path_224" data-name="Path 224" d="M715.2,1485.159a85.952,85.952,0,0,1,3.355,8.554c.8,2.413,1.531,4.623,2.138,6.793a41.548,41.548,0,0,1,1.688,10.912c.022,1.406.009,5.34.241,11.124.15,3.75.308,5.9,1.554,6.46,1.3.583,2.353-1.208,5.5-2.273,2.313-.783,4.643-.573,9.211-.12,6.811.677,7.3,1.639,8.63.842,2.052-1.228,1.565-3.9,2.728-14.106.714-6.262,1.018-6.329,1.331-10.766a99.012,99.012,0,0,0,.161-10.963q-.744-4.149-1.482-8.3a59.558,59.558,0,0,0-30.858-.357q-.787.2-1.525.408A14.581,14.581,0,0,0,715.2,1485.159Z" transform="translate(-700.37 -1425.737)" fill="url(#linear-gradient-21)"/>
  <path id="Path_225" data-name="Path 225" d="M822.8,1798.573c-3.35-1.429-3.331-4.388-6.459-5.623-4.464-1.762-9.4,2.331-10.168,1.2-.8-1.181,5.09-4.8,4.307-8.373-.623-2.838-4.735-2.335-6.938-6.22-2.089-3.686-.064-7.093-1.914-8.374-.664-.459-1.834-.64-4.053.336a47.085,47.085,0,0,1,2.737,14.377c.022,1.407.007,5.34.239,11.125.151,3.75.309,5.9,1.555,6.459,1.3.582,2.353-1.207,5.5-2.273,2.313-.783,4.644-.573,9.211-.12,6.811.675,7.294,1.638,8.629.84.869-.52,1.283-1.3,1.559-2.8A8.325,8.325,0,0,1,822.8,1798.573Z" transform="translate(-778.296 -1699.807)" opacity="0.3" fill="url(#linear-gradient-22)"/>
  <path id="Path_226" data-name="Path 226" d="M992.75,1481.619c-.006,1.4,2.088,6.157,5.686,13.1,1,1.924,2.186,4.031,3.43,6.305a39.85,39.85,0,0,0,1.572-4.274v0a33.864,33.864,0,0,0,.546-14.719c-.021-.078-.306-.146-.306-.146A22.913,22.913,0,0,0,992.75,1481.619Z" transform="translate(-962.944 -1425.713)" fill="#fff"/>
  <g id="Group_44" data-name="Group 44" transform="translate(29.939 46.733)">
    <path id="Path_227" data-name="Path 227" d="M1000.9,1370.94a18.964,18.964,0,0,1-.541,3.773c-.25,1-.405,1.253-.6,1.455-.289.3-.714.549-3.071,1-1.282.246-1.445.229-1.48.353-.169.605,3.171,2.878,6.763,2.565,2.2-.192,4.25-1.33,4.164-1.991s-2.286-.428-2.872-1.653c-.408-.852.162-2,.813-2.942C1003.557,1372.385,1001.423,1372.057,1000.9,1370.94Z" transform="translate(-995.206 -1368.25)" fill="#ff9425"/>
    <g id="Group_43" data-name="Group 43" transform="translate(3.28 0)">
      <path id="Path_228" data-name="Path 228" d="M1061.836,1324.223a2.3,2.3,0,0,0-.419-2.6,2.5,2.5,0,0,0-1.893-.537,3.786,3.786,0,0,0-3.491,2.222c-.251.805.75,2.26.911,2.525.183.3.449.372.714.58.368.288.945.747,1.891,1.518a5.763,5.763,0,0,1,.18-.982,5.081,5.081,0,0,1,.5-1.2C1060.824,1324.768,1061.445,1324.935,1061.836,1324.223Z" transform="translate(-1055.993 -1321.078)" fill="url(#linear-gradient-23)"/>
      <path id="Path_229" data-name="Path 229" d="M1076.759,1370.7a3.118,3.118,0,0,0,2.913.985c1.6-.337,1.323-4,.179-4.625a2.067,2.067,0,0,0-1.628.021c-.319.14-.411.295-.937.514-.485.2-.635.167-.768.316-.167.187-.25.6.219,1.615a.89.89,0,0,0-.987-.174.563.563,0,0,0-.186.241C1075.4,1370.043,1075.852,1370.518,1076.759,1370.7Z" transform="translate(-1074.476 -1364.433)" fill="#ff9425"/>
      <path id="Path_230" data-name="Path 230" d="M1075.175,1381.661c.086.047-.11.372-.07.787a2,2,0,0,0,1.865,1.614c.5-.021.588-.336,1.384-.536a3.759,3.759,0,0,1,1.188-.1,1.967,1.967,0,0,1-.264,2.242,2.048,2.048,0,0,1-1.768.314,2.339,2.339,0,0,1-1.466-.785c-.493-.635-.166-1.107-.684-1.51a3.8,3.8,0,0,1-.932-.678,2.34,2.34,0,0,1-.208-.285C1074.575,1382.225,1075.05,1381.593,1075.175,1381.661Z" transform="translate(-1073.236 -1378.387)" fill="url(#linear-gradient-24)"/>
      <path id="Path_231" data-name="Path 231" d="M1145.374,1421.721a2,2,0,0,1-.933.285c-.03,0-.061.016-.063.031a.75.75,0,0,0,.762.11c.243-.108.406-.376.364-.432C1145.486,1421.691,1145.429,1421.7,1145.374,1421.721Z" transform="translate(-1139.61 -1416.272)" fill="url(#linear-gradient-25)"/>
    </g>
  </g>
  <path id="Path_232" data-name="Path 232" d="M1085.017,1537.24l-.388,2.295h-1.6l-1.327-2.168A15.843,15.843,0,0,0,1085.017,1537.24Z" transform="translate(-1047.094 -1478.843)" fill="url(#linear-gradient-26)"/>
  <g id="Group_45" data-name="Group 45" transform="translate(35.492 60.436)">
    <path id="Path_233" data-name="Path 233" d="M1098.13,1583.614q.453.872.941,1.8c.748,1.418,1.621,2.923,2.489,4.509a39.888,39.888,0,0,0,1.572-4.274h0l-2.863-10.2-.078-.163c0-.014-.023-.027-.03-.039-.2-.449-1.585,0-1.585,0Z" transform="translate(-1098.13 -1575.042)" fill="url(#linear-gradient-27)"/>
    <path id="Path_234" data-name="Path 234" d="M1115.57,1592.455c.748,1.418,1.621,2.923,2.489,4.509a39.865,39.865,0,0,0,1.572-4.273v0l-2.863-10.2c-.28.062-.93.357-.848,1.747.1,1.793,2.012,4.954.932,6.219A10.291,10.291,0,0,0,1115.57,1592.455Z" transform="translate(-1114.629 -1582.088)" opacity="0.3" fill="url(#linear-gradient-28)"/>
  </g>
  <path id="Path_235" data-name="Path 235" d="M470.706,1550.3c3.652,3.377,8.816,3.284,11.108,3.078.3-.752.6-1.5.909-2.254-3.86-2.835-6.029-7.052-5.177-10.655,1.05-4.443,6.4-6.71,8.447-7.438.326-.116.567-.194.7-.234,2.875-.915,3.858-.315,4.853-1.378,3.034-3.244-.7-15.117-6.231-15.9a3.358,3.358,0,0,0-.614-.029,4.067,4.067,0,0,0-1.525.408,14.63,14.63,0,0,0-2.674,1.788c-.645.5-1.339,1.069-2.107,1.656a26.2,26.2,0,0,0-8.632,10.028C467.643,1533.968,464.627,1544.672,470.706,1550.3Z" transform="translate(-465.67 -1458.258)" fill="url(#linear-gradient-29)"/>
  <g id="Group_46" data-name="Group 46" transform="translate(10.846 18.256)">
    <path id="Path_236" data-name="Path 236" d="M642.262,1727.144l-.51-.875a2.824,2.824,0,0,1,1.17-3.934l57.256-30.4,3.109,5.869-56.925,30.446A3.084,3.084,0,0,1,642.262,1727.144Z" transform="translate(-641.368 -1643.452)" fill="url(#linear-gradient-30)"/>
    <path id="Path_237" data-name="Path 237" d="M1643.307,859.344c-16.335,9.045-37.016,2.93-46.12-14.162-9.324-17.5-2.758-39.314,14.58-48.181,17.025-8.708,37.493-1.316,45.814,16C1665.713,829.923,1659.36,850.456,1643.307,859.344Zm-2.429-4.8c13.563-7.465,18.913-24.79,12.008-39.041-7.039-14.529-24.243-20.65-38.493-13.312-14.469,7.45-19.969,25.677-12.224,40.337C1609.76,856.9,1627.114,862.118,1640.878,854.542Z" transform="translate(-1541.598 -793.335)" fill="url(#linear-gradient-31)"/>
    <path id="Path_238" data-name="Path 238" d="M700.182,1691.94l-7.3,3.875a8.106,8.106,0,0,1-1.666,5.233c-3.278,4-9.225,1.514-15.779,6.734-3.289,2.619-2.349,3.689-5.523,5.689-5.247,3.308-8.459.791-13.091,3.773-4.686,3.017-4.313,7.468-7.232,7.88-1.249.176-3.017-.4-5.467-3.425l-1.2.635a2.823,2.823,0,0,0-1.17,3.934l.51.875a3.084,3.084,0,0,0,4.1,1.11l56.925-30.445Z" transform="translate(-641.373 -1643.452)" opacity="0.3" fill="url(#linear-gradient-32)"/>
    <path id="Path_239" data-name="Path 239" d="M1671,884.024c-16.335,9.045-37.015,2.931-46.12-14.162-9.323-17.5-2.758-39.314,14.58-48.181,17.025-8.708,37.492-1.316,45.814,16C1693.4,854.6,1687.05,875.135,1671,884.024Zm-2.429-4.8c13.563-7.465,18.913-24.791,12.008-39.04-7.04-14.529-24.243-20.649-38.493-13.312-14.469,7.45-19.969,25.676-12.224,40.337C1637.451,881.578,1654.8,886.8,1668.568,879.222Z" transform="translate(-1567.794 -816.683)" fill="url(#linear-gradient-33)"/>
    <path id="Path_240" data-name="Path 240" d="M1705.657,917.978c-15.427,8.524-34.93,2.723-43.5-13.408-8.761-16.5-2.573-37.035,13.746-45.4,16.042-8.224,35.355-1.286,43.226,15.044C1726.832,890.191,1720.833,909.592,1705.657,917.978Zm-1.572-3.107c13.563-7.465,18.913-24.791,12.008-39.04-7.04-14.529-24.243-20.649-38.493-13.312-14.469,7.45-19.969,25.677-12.224,40.337C1672.968,917.226,1690.321,922.446,1704.085,914.871Z" transform="translate(-1603.311 -852.332)" fill="url(#linear-gradient-34)"/>
  </g>
  <path id="Path_241" data-name="Path 241" d="M743.17,2173.428l.511-1.27a2.612,2.612,0,0,0,1.518-.44,1.972,1.972,0,0,1,1.227-.293c.192.053.918.022.091.417s-.821.688-.477,1.012a6,6,0,0,0,2.131,1.055c.473.034-.382.765-.859.858a2.942,2.942,0,0,1-2.225-.358C744.735,2174.2,743.17,2173.428,743.17,2173.428Z" transform="translate(-726.831 -2078.793)" fill="#ff8f00"/>
  <path id="Path_242" data-name="Path 242" d="M1604.126,1827.667a4.5,4.5,0,0,0,2.337-2.484c.647-1.8-.461-.058-2.02.4l-1.558.459s-1.653.425-1.46,1.083S1604.126,1827.667,1604.126,1827.667Z" transform="translate(-1538.761 -1750.492)" fill="#ff8f00"/>
  <g id="Group_49" data-name="Group 49" transform="translate(82.167 109.748)">
    <path id="Path_243" data-name="Path 243" d="M2333.051,2505.48s2.025.683,2.24,4.215c-.331-.027-1.1,0-1.1,0s.143-2.568-1.3-3.067A5.873,5.873,0,0,0,2333.051,2505.48Z" transform="translate(-2312.938 -2504.586)" fill="url(#linear-gradient-35)"/>
    <path id="Path_244" data-name="Path 244" d="M2198.15,2489.6q.076.964.152,1.929a14.448,14.448,0,0,1,3.272-.685,14.228,14.228,0,0,1,4.181.408,1.481,1.481,0,0,0,.228-.594,2.086,2.086,0,0,0-.086-1.013,12.218,12.218,0,0,0-2.065-.569A11.521,11.521,0,0,0,2198.15,2489.6Z" transform="translate(-2185.468 -2488.915)" fill="url(#linear-gradient-36)"/>
    <path id="Path_245" data-name="Path 245" d="M2196.392,2502.058c0-.232.02-.523.094-.557s.165.178.206.295a2.037,2.037,0,0,1,.078.542,3.012,3.012,0,0,1-.038.867c-.02.088-.05.221-.094.225s-.068-.081-.114-.244A3.878,3.878,0,0,1,2196.392,2502.058Z" transform="translate(-2183.805 -2500.819)" fill="url(#linear-gradient-37)"/>
    <path id="Path_246" data-name="Path 246" d="M2162.21,2511.269c.42.083,1.44.332,1.44.332s-.666-2.259.589-3.3a2.507,2.507,0,0,0,.026-.767,2.382,2.382,0,0,0-.15-.592C2163.583,2507.258,2162.424,2508.329,2162.21,2511.269Z" transform="translate(-2151.467 -2505.968)" fill="url(#linear-gradient-38)"/>
    <path id="Path_247" data-name="Path 247" d="M2001.37,2577.406s.051-1.186,1.8-1.186c.276.217.289,1.186.289,1.186Z" transform="translate(-1999.307 -2571.509)" fill="url(#linear-gradient-39)"/>
    <path id="Path_248" data-name="Path 248" d="M1963.635,2614.016l4.789,3.126,2.9-11.481-4.781-15.392-1.356.428-2.057,22.106A1.306,1.306,0,0,0,1963.635,2614.016Z" transform="translate(-1963.125 -2584.801)" fill="url(#linear-gradient-40)"/>
    <path id="Path_249" data-name="Path 249" d="M2007.507,2605.652l-4.781-15.392-1.356.428a32.283,32.283,0,0,1,.569,4.8c.32,5.241,1.385,6.7.869,10.355-.429,3.04-1.365,3.452-1.283,5.5a8.58,8.58,0,0,0,2.727,5.559l.353.23Z" transform="translate(-1999.307 -2584.792)" opacity="0.3" fill="url(#linear-gradient-41)"/>
    <path id="Path_250" data-name="Path 250" d="M2026.5,2590.26h26.3l4.14,24.4-28.557,2.475Z" transform="translate(-2023.08 -2584.792)" fill="url(#linear-gradient-42)"/>
    <g id="Group_47" data-name="Group 47" transform="translate(6.371 5.469)" opacity="0.2">
      <path id="Path_251" data-name="Path 251" d="M2104.536,2590.26h-8.859a17.768,17.768,0,0,1-.777,1.974c-3.962,8.517-13.031,9.59-12.867,10.99.245,2.092,20.441-.877,20.957,2,.249,1.388-4.016,4.542-8.472,5.736-5.336,1.43-9.257-.372-11.865,2.841a7.789,7.789,0,0,0-1.463,3.224l27.486-2.364Z" transform="translate(-2081.19 -2590.26)" fill="url(#linear-gradient-43)"/>
    </g>
    <path id="Path_252" data-name="Path 252" d="M2009.917,2576.187a1.91,1.91,0,0,0-1.161.246,1.851,1.851,0,0,0-.256.2l.207-.079a.828.828,0,0,1,.965.4,7.779,7.779,0,0,1,.333,1.978c.131,1.446.938,10.445.938,10.445a1.317,1.317,0,0,0,1.226,1.319l24.461-1.372a.849.849,0,0,0,.523-.194,1.244,1.244,0,0,0,.39-1.159l-1.24-10.717a1.17,1.17,0,0,0-1.075-1.058h-25.313Z" transform="translate(-2006.052 -2571.476)" fill="url(#linear-gradient-44)"/>
    <path id="Path_253" data-name="Path 253" d="M2015.268,2576.075a3.393,3.393,0,0,0-1.039.07,1.033,1.033,0,0,0-.349.155.979.979,0,0,1,1.144.533,8.833,8.833,0,0,1,.333,1.978c.131,1.446.938,10.444.938,10.444a1.317,1.317,0,0,0,1.226,1.319l24.737-.574a.848.848,0,0,0,.523-.194,1.244,1.244,0,0,0,.39-1.158l-1.515-11.516a1.17,1.17,0,0,0-1.075-1.058h-25.314Z" transform="translate(-2011.141 -2571.364)" fill="url(#linear-gradient-45)"/>
    <path id="Path_254" data-name="Path 254" d="M2043.171,2588.648l-1.515-11.515a1.171,1.171,0,0,0-1.075-1.058h-25.313a3.393,3.393,0,0,0-1.039.07,1.033,1.033,0,0,0-.349.155.979.979,0,0,1,1.144.533,2.126,2.126,0,0,1,.084.254c2.4.1,4.808.029,7.211.2,4.752.322,9.558.322,14.043,2.385,1.435.66,2.418,3.03,2.029,4.125-.28.79-1.238.727-1.572,1.763-.351,1.09.491,1.83.138,2.594-.371.8-1.5.419-3.318.992a8.465,8.465,0,0,0-2.254,1.111l10.873-.252a.847.847,0,0,0,.523-.194A1.244,1.244,0,0,0,2043.171,2588.648Z" transform="translate(-2011.141 -2571.364)" opacity="0.1" fill="url(#linear-gradient-46)"/>
    <g id="Group_48" data-name="Group 48" transform="translate(16.003 16.32)">
      <path id="Path_255" data-name="Path 255" d="M2263.888,2796.709l-3.1.8-.327.029a.639.639,0,0,1-.627-.68l-.136-3.811a.665.665,0,0,1,.577-.742l.329-.006,3.114.426c.3-.005.548-.175.562.2l.127,3.574C2264.422,2796.881,2264.185,2796.683,2263.888,2796.709Z" transform="translate(-2259.699 -2792.25)" fill="url(#linear-gradient-47)"/>
      <path id="Path_256" data-name="Path 256" d="M2268.135,2796.356l-3.432.3a.64.64,0,0,1-.628-.68l-.136-3.811a.665.665,0,0,1,.577-.743l3.441-.055a.643.643,0,0,1,.563.679l.127,3.574A.668.668,0,0,1,2268.135,2796.356Z" transform="translate(-2263.71 -2791.369)" fill="url(#linear-gradient-48)"/>
    </g>
  </g>
</svg>
