<svg id="Illustration" xmlns="http://www.w3.org/2000/svg" xmlns:xlink="http://www.w3.org/1999/xlink" width="157.414" height="161.031" viewBox="0 0 157.414 161.031">
  <defs>
    <linearGradient id="linear-gradient" y1="0.5" x2="1" y2="0.5" gradientUnits="objectBoundingBox">
      <stop offset="0" stop-color="#444b8c"/>
      <stop offset="0.996" stop-color="#26264f"/>
    </linearGradient>
    <linearGradient id="linear-gradient-2" x1="0.84" y1="-0.189" x2="0.22" y2="0.933" xlink:href="#linear-gradient"/>
    <linearGradient id="linear-gradient-3" x1="0.827" y1="-0.203" x2="0.365" y2="0.931" xlink:href="#linear-gradient"/>
    <linearGradient id="linear-gradient-4" x1="-5.994" y1="-5.195" x2="-4.715" y2="3.969" gradientUnits="objectBoundingBox">
      <stop offset="0" stop-color="#311944"/>
      <stop offset="1" stop-color="#893976"/>
    </linearGradient>
    <linearGradient id="linear-gradient-5" x1="-16.404" y1="2.445" x2="-16.342" y2="-1.732" gradientUnits="objectBoundingBox">
      <stop offset="0" stop-color="#ffc444"/>
      <stop offset="0.996" stop-color="#f36f56"/>
    </linearGradient>
    <linearGradient id="linear-gradient-6" x1="-2.595" y1="-6.601" x2="-1.316" y2="2.563" xlink:href="#linear-gradient-4"/>
    <linearGradient id="linear-gradient-7" x1="-4.313" y1="1.793" x2="-4.25" y2="-2.384" xlink:href="#linear-gradient-5"/>
    <linearGradient id="linear-gradient-8" x1="-3.123" y1="0.5" x2="-2.123" y2="0.5" xlink:href="#linear-gradient"/>
    <linearGradient id="linear-gradient-9" x1="-4.521" y1="0.5" x2="-3.074" y2="0.5" xlink:href="#linear-gradient"/>
    <linearGradient id="linear-gradient-10" x1="-0.973" y1="0.5" x2="0.027" y2="0.5" xlink:href="#linear-gradient"/>
    <linearGradient id="linear-gradient-11" x1="0.355" y1="1.234" x2="-0.854" y2="-0.018" gradientUnits="objectBoundingBox">
      <stop offset="0" stop-color="#051a2d"/>
      <stop offset="0.599" stop-color="#01468a"/>
      <stop offset="0.957" stop-color="#004b96"/>
      <stop offset="1" stop-color="#004a94"/>
      <stop offset="1" stop-color="#004c97"/>
    </linearGradient>
    <linearGradient id="linear-gradient-12" x1="0.99" y1="0.074" x2="1.203" y2="1.032" gradientUnits="objectBoundingBox">
      <stop offset="0" stop-color="#e9ecf5"/>
      <stop offset="1" stop-color="#145a9f" stop-opacity="0.702"/>
    </linearGradient>
    <linearGradient id="linear-gradient-13" x1="2.097" y1="1.604" x2="0.044" y2="0.089" gradientUnits="objectBoundingBox">
      <stop offset="0" stop-color="#051a2d"/>
      <stop offset="1" stop-color="#004c97"/>
    </linearGradient>
    <linearGradient id="linear-gradient-14" x1="-4.529" y1="1.739" x2="-5.231" y2="0.126" gradientUnits="objectBoundingBox">
      <stop offset="0" stop-color="#444b8c"/>
      <stop offset="0.996" stop-color="#3e4177"/>
    </linearGradient>
    <linearGradient id="linear-gradient-15" x1="4.35" y1="-3.524" x2="4.583" y2="6.385" xlink:href="#linear-gradient"/>
    <linearGradient id="linear-gradient-16" x1="11.912" y1="1.882" x2="11.557" y2="-8.957" xlink:href="#linear-gradient-5"/>
    <linearGradient id="linear-gradient-17" x1="5.451" y1="-1.189" x2="5.75" y2="2.684" xlink:href="#linear-gradient"/>
    <linearGradient id="linear-gradient-18" x1="6.233" y1="1.268" x2="6.055" y2="-3.814" xlink:href="#linear-gradient-5"/>
    <linearGradient id="linear-gradient-19" x1="2.069" y1="0.693" x2="3.472" y2="0.332" xlink:href="#linear-gradient"/>
    <linearGradient id="linear-gradient-20" x1="0.896" y1="0.5" x2="1.896" y2="0.5" gradientUnits="objectBoundingBox">
      <stop offset="0" stop-color="#aa80f9"/>
      <stop offset="0.996" stop-color="#6165d7"/>
    </linearGradient>
    <linearGradient id="linear-gradient-21" y1="0.5" x2="1" y2="0.5" gradientUnits="objectBoundingBox">
      <stop offset="0" stop-color="#e9ecf5"/>
      <stop offset="0.613" stop-color="#b3c7df"/>
      <stop offset="1" stop-color="#004c97"/>
    </linearGradient>
  </defs>
  <path id="Path_257" data-name="Path 257" d="M639.664,565.656c-7.959,21.178-24.462,32.291-30.78,36.042-32.547,19.322-81.405,13.415-106.38-17.589-15.993-19.853-16.2-42.574-16.039-49.045.884-35.135,26.766-73.844,64.929-79.391,42.246-6.14,71.256,31.027,74.071,34.762C628.873,494.957,653.519,528.787,639.664,565.656Z" transform="translate(-486.442 -454.989)" fill="#f4f7fa"/>
  <g id="Group_58" data-name="Group 58" transform="translate(5.756 3.217)">
    <path id="Path_258" data-name="Path 258" d="M696.867,739.672,591.156,733.8c-2.435-.114-4.626,2.437-4.626,4.58V869.1c0,2.971,3.16,3.569,5.6,3.33L696.868,862.16a3.875,3.875,0,0,0,3.458-3.756V743.252A3.638,3.638,0,0,0,696.867,739.672Z" transform="translate(-586.53 -720.979)" fill="#97a6b7"/>
    <path id="Path_259" data-name="Path 259" d="M727.1,735.822l-105.92-5a3.961,3.961,0,0,0-4.417,3.7V866.263c0,2.159,1.983,3.713,4.417,3.473L727.1,859.267a3.894,3.894,0,0,0,3.458-3.785V739.429A3.653,3.653,0,0,0,727.1,735.822Z" transform="translate(-615.021 -718.166)" fill="#d8dee8"/>
    <path id="Path_260" data-name="Path 260" d="M654.494,897.269a2.02,2.02,0,0,1-2.384-1.879V763.926a2.144,2.144,0,0,1,2.384-2l105.92,4.8a1.978,1.978,0,0,1,1.874,1.951V884.95A2.108,2.108,0,0,1,760.414,887Z" transform="translate(-648.338 -747.486)" fill="#fff" opacity="0.74"/>
    <path id="Path_261" data-name="Path 261" d="M931.954,1032.275l-90.594,8.382V919.37l90.594,3.276Z" transform="translate(-826.705 -895.88)" fill="#fff"/>
    <path id="Path_262" data-name="Path 262" d="M1193.206,774.854,1157,775.29l.812-7.842a2.157,2.157,0,0,1,1.838-2l6.132-.9a2.2,2.2,0,0,0,1.659-1.223l.665-1.387,16.038.951Z" transform="translate(-1124.192 -747.495)" fill="#97a6b7" opacity="0.3"/>
    <path id="Path_263" data-name="Path 263" d="M1212.541,533.2a1.913,1.913,0,0,0-1.844-1.55l-5.786-.249a4.535,4.535,0,0,1-4.455-4.757l.223-6.013a1.981,1.981,0,0,0-1.922-2.068l-1.9-.109a2.334,2.334,0,0,1-2.211-2.729,4.166,4.166,0,0,0-3.978-4.787,5.161,5.161,0,0,0-5.381,4.238,2.721,2.721,0,0,1-.4,1.071,3.011,3.011,0,0,1-2.668,1.368l-1.961-.113a2.588,2.588,0,0,0-2.618,1.859l-1.63,6.1a6.2,6.2,0,0,1-6.189,4.425l-6.346-.273a2.775,2.775,0,0,0-2.538,1.449l-3.825,7.287a.844.844,0,0,0,.755,1.263l55.036,1.755a1,1,0,0,0,1-1.131Zm-22.653-17.058a1.222,1.222,0,0,1-1.174-1.414,1.511,1.511,0,0,1,1.572-1.246,1.222,1.222,0,0,1,1.17,1.413A1.511,1.511,0,0,1,1189.888,516.142Z" transform="translate(-1124.192 -510.928)" fill="url(#linear-gradient)"/>
    <path id="Path_264" data-name="Path 264" d="M1218.2,536.031a1.914,1.914,0,0,0-1.844-1.55l-5.786-.249a4.534,4.534,0,0,1-4.455-4.757l.223-6.013a1.982,1.982,0,0,0-1.922-2.068l-1.9-.109a2.334,2.334,0,0,1-2.211-2.729,4.166,4.166,0,0,0-3.978-4.787,5.161,5.161,0,0,0-5.381,4.238,2.717,2.717,0,0,1-.4,1.071,3.01,3.01,0,0,1-2.668,1.368l-1.961-.113a2.589,2.589,0,0,0-2.618,1.859l-1.63,6.1a6.2,6.2,0,0,1-6.189,4.425l-6.346-.273a2.775,2.775,0,0,0-2.538,1.449l-3.824,7.287a.843.843,0,0,0,.755,1.263l55.036,1.756a1,1,0,0,0,1-1.131Zm-22.653-17.058a1.222,1.222,0,0,1-1.174-1.414,1.511,1.511,0,0,1,1.572-1.246,1.223,1.223,0,0,1,1.17,1.413A1.512,1.512,0,0,1,1195.548,518.973Z" transform="translate(-1129.527 -513.595)" fill="#97a6b7"/>
    <g id="Group_50" data-name="Group 50" transform="translate(33.134 9.61)">
      <path id="Path_265" data-name="Path 265" d="M1208.792,694.195c-4.909-2.911-8.676-.846-11.736-4.129-3.275-3.514-1.066-8.14-4.455-10.323-2.17-1.4-4.105-.165-6.629-.543a7.116,7.116,0,0,1-2.935-1.179l-1.36,5.09a6.2,6.2,0,0,1-6.189,4.426l-6.346-.273a2.775,2.775,0,0,0-2.538,1.449L1162.781,696a.844.844,0,0,0,.755,1.264l50.017,1.6A14.632,14.632,0,0,0,1208.792,694.195Z" transform="translate(-1162.671 -678.02)" fill="#fff" opacity="0.5"/>
    </g>
    <g id="Group_57" data-name="Group 57" transform="translate(25.847 32.585)">
      <g id="Group_51" data-name="Group 51" transform="translate(0.4 46.876)">
        <path id="Path_266" data-name="Path 266" d="M1051.384,1918.7v6.93l-7.673.249v-7l7.673-.181Zm.8-.819-9.274.219v8.607l9.274-.3v-8.525Z" transform="translate(-1042.91 -1916.426)" fill="#d8dee8"/>
        <path id="Path_267" data-name="Path 267" d="M1321.71,1900.573l-58.16,1.886v-8.5l58.16-1.373Z" transform="translate(-1250.861 -1892.59)" fill="#d8dee8"/>
      </g>
      <g id="Group_52" data-name="Group 52" transform="translate(0.4 58.508)">
        <path id="Path_268" data-name="Path 268" d="M1051.384,2134.69v6.929l-7.673.348v-7l7.673-.28Zm.8-.83-9.274.338v8.606l9.274-.42v-8.525Z" transform="translate(-1042.91 -2131.617)" fill="#d8dee8"/>
        <path id="Path_269" data-name="Path 269" d="M1321.71,2102.833l-58.16,2.631v-8.495l58.16-2.119Z" transform="translate(-1250.861 -2094.85)" fill="#d8dee8"/>
      </g>
      <g id="Group_53" data-name="Group 53" transform="translate(0.4 70.14)">
        <path id="Path_270" data-name="Path 270" d="M1051.384,2350.692v6.929l-7.673.446v-7l7.673-.378Zm.8-.842-9.274.457v8.607l9.274-.538v-8.525Z" transform="translate(-1042.91 -2346.817)" fill="#d8dee8"/>
        <path id="Path_271" data-name="Path 271" d="M1321.71,2305.093l-58.16,3.377v-8.495l58.16-2.865Z" transform="translate(-1250.861 -2297.11)" fill="#d8dee8"/>
      </g>
      <g id="Group_54" data-name="Group 54" transform="translate(0.4 81.772)">
        <path id="Path_272" data-name="Path 272" d="M1051.384,2566.692v6.928l-7.673.544v-7l7.673-.477Zm.8-.852-9.274.576v8.607l9.274-.657v-8.525Z" transform="translate(-1042.91 -2562.017)" fill="#d8dee8"/>
        <path id="Path_273" data-name="Path 273" d="M1321.71,2507.353l-58.16,4.123v-8.5l58.16-3.61Z" transform="translate(-1250.861 -2499.37)" fill="#d8dee8"/>
      </g>
      <path id="Path_274" data-name="Path 274" d="M1036.35,1118.486a.4.4,0,0,1-.4-.4v-40.169a.4.4,0,0,1,.121-.287.4.4,0,0,1,.29-.113l36.88.944a.4.4,0,0,1,.39.4v38.654a.4.4,0,0,1-.394.4l-36.88.57Zm.4-40.159v39.352l36.079-.558v-37.87Zm36.48,39.188h0Z" transform="translate(-1035.95 -1077.516)" fill="#d8dee8"/>
      <path id="Path_275" data-name="Path 275" d="M1813.067,1109.109l-28.177-.569v-5.06l28.177.722Z" transform="translate(-1741.818 -1101.987)" fill="#d8dee8"/>
      <path id="Path_276" data-name="Path 276" d="M1813.067,1345.74l-28.177-.231v-2.529l28.177.307Z" transform="translate(-1741.818 -1327.713)" fill="#d8dee8"/>
      <path id="Path_277" data-name="Path 277" d="M1813.067,1418.115l-28.177-.1v-2.53l28.177.181Z" transform="translate(-1741.818 -1396.043)" fill="#d8dee8"/>
      <path id="Path_278" data-name="Path 278" d="M1813.067,1490.489l-28.177.021v-2.53l28.177.055Z" transform="translate(-1741.818 -1464.374)" fill="#d8dee8"/>
      <g id="Group_56" data-name="Group 56" transform="translate(1.838 4.559)">
        <path id="Path_279" data-name="Path 279" d="M1229.729,1169.371a2.868,2.868,0,0,1-.949-1.247c-.312-.891.147-1.4.063-2.36-.082-.947-.591-1.217-1.142-2.259-.315-.6-1.45-2.744-.572-4.5a4.318,4.318,0,0,1,4.62-2.088c1.308.405,1.331,1.609,2.763,1.878,1.179.222,1.57-.519,2.748-.18a8.207,8.207,0,0,1,2.05,1.442c.843.682,1.267,1.028,1.424,1.367a3,3,0,0,1-.124,2.33c-.443,1.169-1,1.181-1.362,2.14-.5,1.322.335,1.906,0,2.8C1238.426,1170.894,1231.94,1171.223,1229.729,1169.371Z" transform="translate(-1217.664 -1156.794)" fill="url(#linear-gradient-2)"/>
        <path id="Path_280" data-name="Path 280" d="M1067.91,1489.971v-15.4l5.369-.744,22.935-.215,5.8.915v14.968Z" transform="translate(-1067.91 -1455.39)" fill="#d8dee8"/>
        <path id="Path_281" data-name="Path 281" d="M1174.1,1306.49q.4,3.548.8,7.092a1.394,1.394,0,0,0,1.3,1.2c2.688.22,5.36,1.1,8.018,1.32l-11.906,3.619-11.029-3.4a51.492,51.492,0,0,0,7.418-1.529,1.366,1.366,0,0,0,1.006-1.124q.277-2.2.553-4.391Z" transform="translate(-1155.91 -1297.881)" fill="#f94"/>
        <g id="Group_55" data-name="Group 55" transform="translate(10.866 3.289)">
          <path id="Path_282" data-name="Path 282" d="M1419.655,1315.162c-.171.766-1.031,1.686-1.363,1.617s-.464-.746-.292-1.513.58-1.331.913-1.261A.924.924,0,0,1,1419.655,1315.162Z" transform="translate(-1408.661 -1308.247)" fill="#f94"/>
          <path id="Path_283" data-name="Path 283" d="M1256.881,1313.146c.175.777,1.052,1.725,1.391,1.662s.472-.743.3-1.52-.59-1.356-.929-1.294A.909.909,0,0,0,1256.881,1313.146Z" transform="translate(-1256.849 -1306.354)" fill="#f94"/>
          <path id="Path_284" data-name="Path 284" d="M1279.931,1219.079c0,3.459-2.1,7.5-4.7,7.49s-4.749-4.121-4.749-7.614,2.132-5.022,4.749-4.974S1279.931,1215.62,1279.931,1219.079Z" transform="translate(-1269.696 -1213.981)" fill="#f94"/>
        </g>
        <path id="Path_285" data-name="Path 285" d="M1250.175,1199.506a2.5,2.5,0,0,0,1.371,2.021c.887.332,1.727-.221,5.715-1.6.692-.24.989-.335,1.351-.228,1.619.475,1.37,4.036,1.95,4.064.461.023,1.487-2.191.74-4.332a5.887,5.887,0,0,0-3.028-3.15c-.2-.1-3.306-1.541-5.909-.048C1251.988,1196.446,1249.95,1197.683,1250.175,1199.506Z" transform="translate(-1239.677 -1193.326)" fill="url(#linear-gradient-3)"/>
      </g>
      <path id="Path_286" data-name="Path 286" d="M1072.988,1921.884a.683.683,0,0,1-.59-.286l-2.334-3.43a.622.622,0,0,1,.228-.889.721.721,0,0,1,.957.185l1.725,2.539,3.338-5.359a.727.727,0,0,1,.94-.25.6.6,0,0,1,.245.865l-3.911,6.29a.73.73,0,0,1-.589.334Z" transform="translate(-1068.004 -1866.19)" fill="#00438c"/>
      <path id="Path_287" data-name="Path 287" d="M1072.988,2360.085a.665.665,0,0,1-.59-.271l-2.334-3.37a.631.631,0,0,1,.228-.895.713.713,0,0,1,.957.16l1.725,2.494,3.338-5.446a.74.74,0,0,1,.94-.274.593.593,0,0,1,.245.859l-3.911,6.392a.752.752,0,0,1-.589.35Z" transform="translate(-1068.004 -2279.093)" fill="#00438c"/>
      <path id="Path_288" data-name="Path 288" d="M1072.988,2141.964a.676.676,0,0,1-.59-.278l-2.334-3.4a.626.626,0,0,1,.228-.892.717.717,0,0,1,.957.172l1.725,2.517,3.338-5.4a.734.734,0,0,1,.94-.262.6.6,0,0,1,.245.862l-3.911,6.342a.742.742,0,0,1-.589.342Z" transform="translate(-1068.004 -2073.564)" fill="#00438c"/>
      <path id="Path_289" data-name="Path 289" d="M1072.988,2559.334a.657.657,0,0,1-.59-.264l-2.334-3.342a.634.634,0,0,1,.228-.9.71.71,0,0,1,.957.148l1.725,2.474,3.338-5.485a.746.746,0,0,1,.94-.286.589.589,0,0,1,.245.856l-3.911,6.438a.764.764,0,0,1-.589.357Z" transform="translate(-1068.004 -2466.839)" fill="#00438c"/>
    </g>
  </g>
  <path id="Path_290" data-name="Path 290" d="M1793.279,3146.58a18.554,18.554,0,0,0-.45,2.408c-.014.641,7.034,1.533,7.144,1.062s-1.07-1.331-1.922-1.668-3.351-1.259-3.351-1.259Z" transform="translate(-1717.698 -2991.785)" fill="url(#linear-gradient-4)"/>
  <path id="Path_291" data-name="Path 291" d="M1798.128,3113.914l-.4,2.209a1.614,1.614,0,0,1-1.556,0l-.168-2.453Z" transform="translate(-1720.686 -2960.767)" fill="url(#linear-gradient-5)"/>
  <path id="Path_292" data-name="Path 292" d="M1569.76,3179.48a18.493,18.493,0,0,0-.45,2.408c-.014.641,7.034,1.533,7.144,1.062s-1.07-1.331-1.922-1.669-3.351-1.258-3.351-1.258Z" transform="translate(-1507.033 -3022.792)" fill="url(#linear-gradient-6)"/>
  <path id="Path_293" data-name="Path 293" d="M1574.608,3146.814l-.4,2.209a1.614,1.614,0,0,1-1.556,0l-.168-2.454Z" transform="translate(-1510.021 -2991.775)" fill="url(#linear-gradient-7)"/>
  <path id="Path_294" data-name="Path 294" d="M1731.079,2077.6l2.055,5.17c-.1,9.514-.6,19.827-1.69,30.812-.812,8.173-1.871,15.892-3.083,23.12l-3.314-.419a33.294,33.294,0,0,1-2.552-14.247c.316-6.222,2.264-6.895,2.62-12.847.462-7.715-2.6-10.03-3.581-19.433a49.766,49.766,0,0,1,.53-13.832Z" transform="translate(-1650.263 -1982.699)" fill="url(#linear-gradient-8)"/>
  <path id="Path_295" data-name="Path 295" d="M1722.066,2075.93l4.868.906c2.534,5.362,2.93,10.763,2.223,13.081-1,3.28-3.019,4.195-3.181,7.556-.161,3.325,1.725,4.342,2.651,8.351.641,2.775.215,5.246-.663,10.074-1.769,9.725-4.377,12.533-2.651,15.906a7.257,7.257,0,0,0,3.341,3.117c-.1.6-.193,1.2-.292,1.787l-3.314-.419a33.292,33.292,0,0,1-2.552-14.247c.316-6.222,2.264-6.9,2.62-12.848.462-7.715-2.6-10.029-3.581-19.432A49.841,49.841,0,0,1,1722.066,2075.93Z" transform="translate(-1650.263 -1982.708)" opacity="0.3" fill="url(#linear-gradient-9)"/>
  <path id="Path_296" data-name="Path 296" d="M1516.134,2099.847c-2.205,8.247-4.279,17.1-6.1,26.513-2.2,11.369-3.745,22.128-4.817,32.148l-3.659-.189c-4.035-9.87-3.812-16.326-2.786-20.458a60.754,60.754,0,0,0,1.917-9.413,67.173,67.173,0,0,0,.349-8.849c-.046-6.657-.629-8.157-.324-13.222.286-4.754.459-7.156,1.926-8.45C1506.507,2094.52,1515.456,2099.464,1516.134,2099.847Z" transform="translate(-1439.955 -2002.317)" fill="url(#linear-gradient-10)"/>
  <path id="Path_297" data-name="Path 297" d="M1494.362,1510.372c1.321-1.841.006-3.825-.033-7.517-.045-4.185,1.611-4.748,3.745-11.506,1.419-4.494,2.782-8.809,1.988-14.05-.38-2.512-1.025-6.773-4.325-9.071-1.7-1.186-4.15-1.277-8.975-1.41-5.967-.166-8.95-.248-11.259.741-.338.145-7.372,3.271-8.315,9.21-.96,6.044,5.6,7.393,5.832,15.575.1,3.673-1.051,9.217-1.8,12.812-.719,3.452-1.094,4.321-.49,5.433,1.455,2.678,6.592,2.36,16.865,1.723C1491.625,1512.061,1493.377,1511.746,1494.362,1510.372Z" transform="translate(-1410.695 -1408.531)" fill="url(#linear-gradient-11)"/>
  <path id="Path_298" data-name="Path 298" d="M1480.311,1587.319c-.556,1.546-2.2,2.6-3.579,6.362-.3.812-2.426,6.591-.4,8.219,1.172.94,2.411-.563,5.435-.531,5.239.057,7.37,4.635,10.87,3.712a4.674,4.674,0,0,0,2.282-1.494,3.449,3.449,0,0,1-.558,2.488c-.986,1.374-2.737,1.69-6.767,1.94-10.274.637-15.41.955-16.865-1.723-.6-1.111-.229-1.979.49-5.432.749-3.6,1.905-9.139,1.8-12.812-.234-8.182-6.792-9.53-5.832-15.575a9.465,9.465,0,0,1,1.871-4.212C1477.191,1572.334,1482.06,1582.459,1480.311,1587.319Z" transform="translate(-1410.695 -1504.235)" opacity="0.128" fill="url(#linear-gradient-12)"/>
  <path id="Path_299" data-name="Path 299" d="M1494.825,2092.9l1.6,1.208a3.952,3.952,0,0,1,2.2-1.125c1.251-.172,2.631.329,2.633.724,0,.316-.884.565-1.02.6-1.1.31-1.874-.083-2.342.314a3.309,3.309,0,0,1-.84.636,2.435,2.435,0,0,1-.312.131c-.738.221-1.866-1.124-1.963-1.241Z" transform="translate(-1436.78 -1998.702)" fill="#ff9e57"/>
  <path id="Path_300" data-name="Path 300" d="M1322.9,1487.225c1.45-2.815,2.649-7.208,1.26-13.985-13.057,3.974-20.46,15.28-18.691,24.854,1.458,7.893,8.716,12.262,10.339,13.189l1.392-2.584c-1.78-2.333-3.724-5.727-3.118-9.374C1314.925,1494.269,1319.969,1492.925,1322.9,1487.225Z" transform="translate(-1258.125 -1414.679)" fill="url(#linear-gradient-13)"/>
  <path id="Path_301" data-name="Path 301" d="M1713.4,1363.85a13.585,13.585,0,0,1-1.1,3.809c-.741,1.449-4.084,2.129-4.773,2.41s1.135,1.412,3.031,1.757,7.388.349,8.429-.3-.737-.733-2.061-1.343-1.9-3.341-1.561-4.532S1713.4,1363.85,1713.4,1363.85Z" transform="translate(-1637.167 -1311.581)" fill="#ff9e57"/>
  <path id="Path_302" data-name="Path 302" d="M1778.373,1266.675c1.07-.895,1.217-1,1.352-1.326a3.254,3.254,0,0,0-1.7-3.818c-.07-.029-.968-.4-1.352-.026-.326.316.076.82-.186,1.458-.245.6-.78.6-1.829,1.326-.864.6-1.4.968-1.564,1.538a2.832,2.832,0,0,0,2.253,3.075C1775.812,1268.922,1775.956,1268.7,1778.373,1266.675Z" transform="translate(-1699.05 -1214.966)" fill="url(#linear-gradient-14)"/>
  <g id="Group_59" data-name="Group 59" transform="translate(75.337 50.79)">
    <path id="Path_303" data-name="Path 303" d="M1797.48,1341.462a2.825,2.825,0,0,0,2.6,1.012c1.466-.238,1.364-3.567.354-4.178a1.872,1.872,0,0,0-1.474-.048c-.294.114-.384.25-.869.426-.447.163-.582.125-.708.254-.159.162-.251.531.131,1.47a.807.807,0,0,0-.886-.2.513.513,0,0,0-.178.21C1796.276,1340.808,1796.667,1341.258,1797.48,1341.462Z" transform="translate(-1796.406 -1338.122)" fill="#ff9e57"/>
  </g>
  <path id="Path_304" data-name="Path 304" d="M2342.22,3188.19a8.383,8.383,0,0,1,.057,1.845c-.117.463-4.134.8-5.5.637s.812-1.554,1.681-1.815S2342.22,3188.19,2342.22,3188.19Z" transform="translate(-2229.952 -3031.001)" fill="url(#linear-gradient-15)"/>
  <path id="Path_305" data-name="Path 305" d="M2403.41,3146.074l.423,2.772s1.08.486,1.6.006l.057-2.9Z" transform="translate(-2293.164 -2991.191)" fill="url(#linear-gradient-16)"/>
  <path id="Path_306" data-name="Path 306" d="M2786.324,3142.949s-.852.633-.625,1.39a13.318,13.318,0,0,0,3.634,4.654c1.417.861.973-.933.561-2.052a21.45,21.45,0,0,0-1.878-3.993C2787.6,3142.536,2786.324,3142.949,2786.324,3142.949Z" transform="translate(-2653.43 -2988.189)" fill="url(#linear-gradient-17)"/>
  <path id="Path_307" data-name="Path 307" d="M2770.54,3092.99c.412,1.148.809,2.093,1.118,2.789a9.941,9.941,0,0,0,1.486,2.62c.37.437,1.247,1.368,1.482,1.213s-.4-1.29-1.638-4.607c-.179-.481-.746-2.016-.746-2.016h-1.7Z" transform="translate(-2639.18 -2941.276)" fill="url(#linear-gradient-18)"/>
  <path id="Path_308" data-name="Path 308" d="M2251.081,2257.152a71.742,71.742,0,0,0-.154,12.806c.55,7.085,1.966,11.569,3.743,19.124,1.086,4.617,2.549,11.413,3.873,19.911a3.737,3.737,0,0,0,2.375.466,3.616,3.616,0,0,0,1.427-.541c3.474-10.616,2.448-17.194.771-21.292a22.941,22.941,0,0,1-2.044-5.811c-.613-3.553.145-5.539,1.226-13.769.77-5.866.636-6.772.124-7.652C2260.373,2256.875,2254.108,2256.943,2251.081,2257.152Z" transform="translate(-2149.248 -2153.432)" fill="#272452"/>
  <path id="Path_309" data-name="Path 309" d="M1767.44,1680.881s-.488-1.912-1.3-2.417-1.958-1.044-2.221-1.266-.57.441.188.948l.757.507a.742.742,0,0,1-.031.325,1.141,1.141,0,0,1-1.035.651,8.262,8.262,0,0,1-3,.34c-.044-.013-.213-.068-.284.008-.114.12.092.5.179.636.526.8,2.351,1.152,3.717.524.5-.229.69-.476,1.054-.413.578.1.933.861,1.144,1.492Z" transform="translate(-1687.211 -1606.866)" fill="#f94"/>
  <path id="Path_310" data-name="Path 310" d="M2465.04,2279.94c2.129,10.99,4.216,16.763,5.8,20.028a54.9,54.9,0,0,1,2.919,7.127,58.03,58.03,0,0,1,1.774,6.789c.734,3.369,2.547,8.288,7.426,14.74a1.855,1.855,0,0,0,1.688.087,1.635,1.635,0,0,0,.683-.708c-.638-6.169-1.37-11.352-2.006-15.352-.133-.839-.72-4.51-1.642-9.36-.36-1.9-.888-4.679-1.521-7.535-.788-3.557-2-8.4-3.857-14.194Z" transform="translate(-2351.249 -2174.986)" fill="#272452"/>
  <path id="Path_311" data-name="Path 311" d="M1854.21,1488.645l1.66-1.475a8.374,8.374,0,0,0,7.284,2.213c2.843-.6,4.482-2.936,5.533-4.426,3.155-4.475,1.268-7.759,4.665-10.8.943-.844,2.793-1.867,4-1.555,2.883.743,4.542,9.411,1.752,16.229-.563,1.376-3.663,8.953-10.7,9.774C1862.732,1499.266,1856.71,1495.265,1854.21,1488.645Z" transform="translate(-1775.548 -1414.023)" fill="#fff"/>
  <path id="Path_312" data-name="Path 312" d="M2344.9,1293.43c-1.207-1.116-3.516-2.4-4.674-5.391-.348-.9-1.584-4.089.238-6.528a5.208,5.208,0,0,1,4.86-2.083c1.512.3,1.75,1.351,4.32,3.472a18.177,18.177,0,0,0,4.4,2.889c3.067,1.264,4.909.075,7.988.21,3.782.167,8.176,2.278,10.293,5.347,3.758,5.448-1.686,10.975,2.43,17.358,1.349,2.091,2.013,1.622,5.207,5.67s4.8,6.079,4.513,8.563c-.4,3.447-4.107,6.739-7.6,6.963-3.415.219-5.586-2.468-7.325-1.293-1.237.836-.53,2.463-1.844,4.418-1.694,2.521-5.024,3.023-5.562,3.1-4.991.753-11.722-5.1-14.581-12.035C2342.406,1311.591,2351.46,1299.5,2344.9,1293.43Z" transform="translate(-2232.921 -1231.948)" fill="#001b31"/>
  <path id="Path_313" data-name="Path 313" d="M2328.108,2291.139a22.934,22.934,0,0,1-2.044-5.811c-.613-3.553.145-5.54,1.225-13.769.77-5.866.636-6.772.124-7.652-1.113-1.911-3.472-2.759-5.879-3.106.032.124.064.247.091.366,1.263,5.768-3.558,9.289-1.383,15.629,1.072,3.126,2.782,3.842,3.181,7.469.374,3.4-.98,4.1-.691,7.192.433,4.615,3.711,5.733,4.564,9.267.555,2.3.087,5.655-3.961,10.516.067.419.135.839.2,1.266a3.735,3.735,0,0,0,2.375.466,3.618,3.618,0,0,0,1.427-.542C2330.81,2301.815,2329.784,2295.237,2328.108,2291.139Z" transform="translate(-2214.24 -2156.946)" opacity="0.3" fill="url(#linear-gradient-19)"/>
  <path id="Path_314" data-name="Path 314" d="M1876.719,1587.039c-5.2,4.106-4.619,11.98-7.814,12.379-.976.122-.923-.626-3.251-1.383-3.405-1.107-5,.011-7.4-.83a7.421,7.421,0,0,1-3.553-2.848l-.481.427c2.5,6.621,8.522,10.622,14.2,9.958,7.033-.821,10.133-8.4,10.7-9.774a20.877,20.877,0,0,0,1.322-9.809A10.837,10.837,0,0,0,1876.719,1587.039Z" transform="translate(-1775.558 -1520.163)" opacity="0.15" fill="url(#linear-gradient-20)"/>
  <path id="Path_315" data-name="Path 315" d="M2169.468,1449.209c.318-.495,1.331-1.866,5.628-2.876a24.739,24.739,0,0,1,11.261-.288,25.151,25.151,0,0,1,13.072,7.49,17.639,17.639,0,0,0-6.926,8.656c-.574,1.584-2.272,7,.155,12.073,1.4,2.923,3.872,5.118,5.751,6.785,2.818,2.5,4.278,2.884,5.223,5.124,1.029,2.439-.008,3.628,1.27,5.3,1.372,1.793,2.98.96,5.306,2.773,2.383,1.858,1.535,3.386,3.7,5.439,3.151,2.983,7.327,2.014,7.522,3.356.167,1.154-2.8,2.721-5.323,3.356a15.609,15.609,0,0,1-10.646-1.5c-3.586-1.8-2.967-2.968-5.7-4.342-4.578-2.3-7.708.259-18.137.523-5.647.143-8.5.175-10.067-1.736-1.428-1.745-.677-3.66.179-11.91.276-2.755.852-8.526.855-11.813,0-1.943-.671-5.117-2.019-11.466-.079-.374-.809-3.8-1.4-8.387C2168.646,1451.635,2168.723,1450.367,2169.468,1449.209Z" transform="translate(-2072.078 -1388.557)" fill="url(#linear-gradient-21)"/>
  <g id="Group_60" data-name="Group 60" transform="translate(111.681 64.509)">
    <path id="Path_316" data-name="Path 316" d="M2458.5,1623.3c-2.168-2.053-1.32-3.582-3.7-5.439-2.326-1.813-3.934-.98-5.306-2.773-1.278-1.67-.241-2.859-1.27-5.3-.945-2.24-2.4-2.624-5.222-5.124-1.879-1.667-4.353-3.862-5.751-6.785-2.427-5.073-.73-10.49-.155-12.073a17.64,17.64,0,0,1,6.925-8.656c-.13-.14-.283-.3-.447-.468-8.9,1.223-14.091,6.366-14.732,7.889-1.484,3.52.865,4.814.926,14.966.029,4.853-.494,6.769,1.08,8.795,1.8,2.317,3.876,1.6,6.48,4.629,2,2.327,1.68,3.8,3.549,4.783,2.009,1.054,3.289-.174,5.554.309,3.786.807,4.595,5.172,7.1,7.56,1.893,1.806,5.391,3.068,12.292,1.713a.959.959,0,0,0,.206-.672C2465.827,1625.31,2461.651,1626.279,2458.5,1623.3Z" transform="translate(-2428.348 -1576.68)" fill="url(#linear-gradient-12)"/>
  </g>
  <g id="Group_61" data-name="Group 61" transform="translate(102.545 56.966)">
    <path id="Path_317" data-name="Path 317" d="M2270.23,1461.515s9.751-12.732,15.293-14.125a23.921,23.921,0,0,0-14.536-1.289C2270.464,1447.777,2268.413,1454.875,2270.23,1461.515Z" transform="translate(-2269.493 -1445.519)" fill="#001b31"/>
  </g>
  <path id="Path_318" data-name="Path 318" d="M2481.682,1496.179c-.946,2.01,3.4,6.689,8.234,8.911.985.453,8.055,3.7,11.207.578,2.6-2.583.924-7.925.323-9.832-2.947-9.365-11.994-14.128-15.785-15.846-2.83,7.075-1.164,10.228-.507,11.213a37.741,37.741,0,0,0,4.628,5.091c1.428,1.338,2.318,1.99,2.2,2.2-.149.26-1.824-.231-8.328-3.4A2.533,2.533,0,0,0,2481.682,1496.179Z" transform="translate(-2366.811 -1421.041)" fill="#fff"/>
  <path id="Path_319" data-name="Path 319" d="M2310,1358.92s.449,3.589,1.773,4.411,3.466,1.9,3.7,2.187-8.205,1.2-12.389-.912c1.379-.288,1.754-.393,1.754-.393a7.762,7.762,0,0,0,1.772-.7,6.025,6.025,0,0,0,1.948-1.8l-.016-1.987Z" transform="translate(-2198.613 -1306.934)" fill="#f94"/>
  <path id="Path_320" data-name="Path 320" d="M2380.018,1326.919a1.986,1.986,0,0,1-2.218.691c-1.213-.442-.489-3.574.473-3.931a1.7,1.7,0,0,1,1.3.179,1.887,1.887,0,0,1,.593,2.122c.307-.089.576-.008.644.144.086.193-.173.454-.232.514A1.036,1.036,0,0,1,2380.018,1326.919Z" transform="translate(-2268.427 -1273.662)" fill="#f94"/>
  <path id="Path_321" data-name="Path 321" d="M2193.555,1557.236l11.514,1.078a.59.59,0,0,1,.511.424l4.3,15a.588.588,0,0,1-.617.748l-11.608-1.024a.589.589,0,0,1-.515-.428l-4.2-15.057A.588.588,0,0,1,2193.555,1557.236Z" transform="translate(-2094.771 -1493.843)" fill="#00346b"/>
  <path id="Path_322" data-name="Path 322" d="M2408.988,1676.057s-3.965-4.057-5.579-4.657-.186,3.68.76,4.283a4.435,4.435,0,0,0,2.052.926l.738.092.969.517S2409.173,1677.071,2408.988,1676.057Z" transform="translate(-2292.475 -1601.389)" fill="#f94"/>
  <path id="Path_323" data-name="Path 323" d="M2201.212,1570.2c-.434-2.372.9-4.211-.378-6.434-1.319-2.287-3.634-1.9-5.3-3.785a5.47,5.47,0,0,1-1.238-2.689l-.749-.07a.588.588,0,0,0-.622.744l4.2,15.057a.588.588,0,0,0,.515.428l5.895.52A6.677,6.677,0,0,1,2201.212,1570.2Z" transform="translate(-2094.765 -1493.833)" fill="#00264a" opacity="0.3"/>
</svg>
