<svg xmlns="http://www.w3.org/2000/svg" width="25.56" height="25.224" viewBox="0 0 25.56 25.224">
  <g id="Group_1388" data-name="Group 1388" transform="translate(0.2 0.2)">
    <path id="Path_4785" data-name="Path 4785" d="M5.668,17.355a.772.772,0,0,0,.772-.772V2.686l3.567,3.732a.772.772,0,1,0,1.116-1.066L6.226.228a.8.8,0,0,0-1.116,0L.214,5.352A.772.772,0,0,0,1.33,6.418L4.9,2.686v13.9a.772.772,0,0,0,.772.772Z" transform="translate(6.911 7.47)" fill="#008461" stroke="#008461" stroke-width="0.4"/>
    <path id="Path_4786" data-name="Path 4786" d="M4.057,21.831q.2.183.406.359a.772.772,0,1,0,1-1.178q-.182-.154-.357-.315a11.037,11.037,0,1,1,14.952,0A.772.772,0,1,0,21.1,21.833a12.58,12.58,0,1,0-17.044,0Z" transform="translate(0 0)" fill="#008461" stroke="#008461" stroke-width="0.4"/>
  </g>
</svg>
