<svg xmlns="http://www.w3.org/2000/svg" width="201.561" height="201.561" viewBox="0 0 201.561 201.561">
  <g id="Group_1000004573" data-name="Group 1000004573" transform="translate(0.631 1.5)">
    <circle id="Ellipse_49" data-name="Ellipse 49" cx="7.397" cy="7.397" r="7.397" transform="translate(143.099 9.373) rotate(30)" fill="#fff" stroke="#023362" stroke-width="3"/>
    <circle id="Ellipse_50" data-name="Ellipse 50" cx="5.988" cy="5.988" r="5.988" transform="translate(132.031 31.361) rotate(30)" fill="#fff" stroke="#023362" stroke-width="3"/>
    <circle id="Ellipse_51" data-name="Ellipse 51" cx="4.579" cy="4.579" r="4.579" transform="translate(122.602 50.511) rotate(30)" fill="#fff" stroke="#023362" stroke-width="3"/>
    <circle id="Ellipse_52" data-name="Ellipse 52" cx="3.17" cy="3.17" r="3.17" transform="translate(114.401 67.533) rotate(30)" fill="#fff" stroke="#023362" stroke-width="3"/>
    <circle id="Ellipse_53" data-name="Ellipse 53" cx="7.397" cy="7.397" r="7.397" transform="translate(189.806 142.439) rotate(120)" fill="#fff" stroke="#023362" stroke-width="3"/>
    <circle id="Ellipse_54" data-name="Ellipse 54" cx="5.988" cy="5.988" r="5.988" transform="translate(167.818 131.371) rotate(120)" fill="#fff" stroke="#023362" stroke-width="3"/>
    <circle id="Ellipse_55" data-name="Ellipse 55" cx="4.579" cy="4.579" r="4.579" transform="translate(148.668 121.942) rotate(120)" fill="#fff" stroke="#023362" stroke-width="3"/>
    <circle id="Ellipse_56" data-name="Ellipse 56" cx="3.17" cy="3.17" r="3.17" transform="translate(131.647 113.741) rotate(120)" fill="#fff" stroke="#023362" stroke-width="3"/>
    <circle id="Ellipse_57" data-name="Ellipse 57" cx="7.397" cy="7.397" r="7.397" transform="translate(56.629 188.728) rotate(-150)" fill="#fff" stroke="#023362" stroke-width="3"/>
    <circle id="Ellipse_58" data-name="Ellipse 58" cx="5.988" cy="5.988" r="5.988" transform="translate(67.697 166.74) rotate(-150)" fill="#fff" stroke="#023362" stroke-width="3"/>
    <circle id="Ellipse_59" data-name="Ellipse 59" cx="4.579" cy="4.579" r="4.579" transform="translate(77.126 147.59) rotate(-150)" fill="#fff" stroke="#023362" stroke-width="3"/>
    <circle id="Ellipse_60" data-name="Ellipse 60" cx="3.17" cy="3.17" r="3.17" transform="translate(85.327 130.568) rotate(-150)" fill="#fff" stroke="#023362" stroke-width="3"/>
    <circle id="Ellipse_61" data-name="Ellipse 61" cx="7.397" cy="7.397" r="7.397" transform="translate(10.451 55.969) rotate(-60)" fill="#fff" stroke="#023362" stroke-width="3"/>
    <circle id="Ellipse_62" data-name="Ellipse 62" cx="5.988" cy="5.988" r="5.988" transform="translate(32.439 67.037) rotate(-60)" fill="#fff" stroke="#023362" stroke-width="3"/>
    <circle id="Ellipse_63" data-name="Ellipse 63" cx="4.579" cy="4.579" r="4.579" transform="translate(51.589 76.466) rotate(-60)" fill="#fff" stroke="#023362" stroke-width="3"/>
    <circle id="Ellipse_64" data-name="Ellipse 64" cx="3.17" cy="3.17" r="3.17" transform="translate(68.611 84.667) rotate(-60)" fill="#fff" stroke="#023362" stroke-width="3"/>
    <circle id="Ellipse_65" data-name="Ellipse 65" cx="7.397" cy="7.397" r="7.397" transform="translate(182.277 42.97) rotate(60)" fill="#fff" stroke="#023362" stroke-width="3"/>
    <circle id="Ellipse_66" data-name="Ellipse 66" cx="5.988" cy="5.988" r="5.988" transform="translate(161.698 56.478) rotate(60)" fill="#fff" stroke="#023362" stroke-width="3"/>
    <circle id="Ellipse_67" data-name="Ellipse 67" cx="4.579" cy="4.579" r="4.579" transform="translate(143.957 68.348) rotate(60)" fill="#fff" stroke="#023362" stroke-width="3"/>
    <circle id="Ellipse_68" data-name="Ellipse 68" cx="3.17" cy="3.17" r="3.17" transform="translate(128.344 78.988) rotate(60)" fill="#fff" stroke="#023362" stroke-width="3"/>
    <circle id="Ellipse_69" data-name="Ellipse 69" cx="7.397" cy="7.397" r="7.397" transform="translate(156.195 181.561) rotate(150)" fill="#fff" stroke="#023362" stroke-width="3"/>
    <circle id="Ellipse_70" data-name="Ellipse 70" cx="5.988" cy="5.988" r="5.988" transform="translate(142.687 160.982) rotate(150)" fill="#fff" stroke="#023362" stroke-width="3"/>
    <circle id="Ellipse_71" data-name="Ellipse 71" cx="4.579" cy="4.579" r="4.579" transform="translate(130.817 143.241) rotate(150)" fill="#fff" stroke="#023362" stroke-width="3"/>
    <circle id="Ellipse_72" data-name="Ellipse 72" cx="3.17" cy="3.17" r="3.17" transform="translate(120.176 127.628) rotate(150)" fill="#fff" stroke="#023362" stroke-width="3"/>
    <circle id="Ellipse_73" data-name="Ellipse 73" cx="7.397" cy="7.397" r="7.397" transform="translate(17.716 155.061) rotate(-120)" fill="#fff" stroke="#023362" stroke-width="3"/>
    <circle id="Ellipse_74" data-name="Ellipse 74" cx="5.988" cy="5.988" r="5.988" transform="translate(38.295 141.553) rotate(-120)" fill="#fff" stroke="#023362" stroke-width="3"/>
    <circle id="Ellipse_75" data-name="Ellipse 75" cx="4.579" cy="4.579" r="4.579" transform="translate(56.036 129.684) rotate(-120)" fill="#fff" stroke="#023362" stroke-width="3"/>
    <circle id="Ellipse_76" data-name="Ellipse 76" cx="3.17" cy="3.17" r="3.17" transform="translate(71.648 119.042) rotate(-120)" fill="#fff" stroke="#023362" stroke-width="3"/>
    <circle id="Ellipse_77" data-name="Ellipse 77" cx="7.397" cy="7.397" r="7.397" transform="translate(44.103 16.999) rotate(-30)" fill="#fff" stroke="#023362" stroke-width="3"/>
    <circle id="Ellipse_78" data-name="Ellipse 78" cx="5.988" cy="5.988" r="5.988" transform="translate(57.612 37.578) rotate(-30)" fill="#fff" stroke="#023362" stroke-width="3"/>
    <circle id="Ellipse_79" data-name="Ellipse 79" cx="4.579" cy="4.579" r="4.579" transform="translate(69.481 55.319) rotate(-30)" fill="#fff" stroke="#023362" stroke-width="3"/>
    <circle id="Ellipse_80" data-name="Ellipse 80" cx="3.17" cy="3.17" r="3.17" transform="translate(80.122 70.932) rotate(-30)" fill="#fff" stroke="#023362" stroke-width="3"/>
    <circle id="Ellipse_81" data-name="Ellipse 81" cx="7.397" cy="7.397" r="7.397" transform="translate(92.447 0)" fill="#fff" stroke="#023362" stroke-width="3"/>
    <circle id="Ellipse_82" data-name="Ellipse 82" cx="5.988" cy="5.988" r="5.988" transform="translate(93.856 24.576)" fill="#fff" stroke="#023362" stroke-width="3"/>
    <circle id="Ellipse_83" data-name="Ellipse 83" cx="4.579" cy="4.579" r="4.579" transform="translate(95.265 45.875)" fill="#fff" stroke="#023362" stroke-width="3"/>
    <circle id="Ellipse_84" data-name="Ellipse 84" cx="3.17" cy="3.17" r="3.17" transform="translate(96.673 64.716)" fill="#fff" stroke="#023362" stroke-width="3"/>
    <circle id="Ellipse_85" data-name="Ellipse 85" cx="7.397" cy="7.397" r="7.397" transform="translate(199.43 91.884) rotate(90)" fill="#fff" stroke="#023362" stroke-width="3"/>
    <circle id="Ellipse_86" data-name="Ellipse 86" cx="5.988" cy="5.988" r="5.988" transform="translate(174.854 93.293) rotate(90)" fill="#fff" stroke="#023362" stroke-width="3"/>
    <circle id="Ellipse_87" data-name="Ellipse 87" cx="4.579" cy="4.579" r="4.579" transform="translate(153.555 94.702) rotate(90)" fill="#fff" stroke="#023362" stroke-width="3"/>
    <circle id="Ellipse_88" data-name="Ellipse 88" cx="3.17" cy="3.17" r="3.17" transform="translate(134.713 96.111) rotate(90)" fill="#fff" stroke="#023362" stroke-width="3"/>
    <circle id="Ellipse_89" data-name="Ellipse 89" cx="7.397" cy="7.397" r="7.397" transform="translate(107.24 198.561) rotate(180)" fill="#fff" stroke="#023362" stroke-width="3"/>
    <circle id="Ellipse_90" data-name="Ellipse 90" cx="5.988" cy="5.988" r="5.988" transform="translate(105.831 173.985) rotate(180)" fill="#fff" stroke="#023362" stroke-width="3"/>
    <circle id="Ellipse_91" data-name="Ellipse 91" cx="4.579" cy="4.579" r="4.579" transform="translate(104.422 152.686) rotate(180)" fill="#fff" stroke="#023362" stroke-width="3"/>
    <circle id="Ellipse_92" data-name="Ellipse 92" cx="3.17" cy="3.17" r="3.17" transform="translate(103.013 133.844) rotate(180)" fill="#fff" stroke="#023362" stroke-width="3"/>
    <circle id="Ellipse_93" data-name="Ellipse 93" cx="7.397" cy="7.397" r="7.397" transform="translate(0.869 106.677) rotate(-90)" fill="#fff" stroke="#023362" stroke-width="3"/>
    <circle id="Ellipse_94" data-name="Ellipse 94" cx="5.988" cy="5.988" r="5.988" transform="translate(25.445 105.268) rotate(-90)" fill="#fff" stroke="#023362" stroke-width="3"/>
    <circle id="Ellipse_95" data-name="Ellipse 95" cx="4.579" cy="4.579" r="4.579" transform="translate(46.744 103.86) rotate(-90)" fill="#fff" stroke="#023362" stroke-width="3"/>
    <circle id="Ellipse_96" data-name="Ellipse 96" cx="3.17" cy="3.17" r="3.17" transform="translate(65.585 102.451) rotate(-90)" fill="#fff" stroke="#023362" stroke-width="3"/>
    <path id="Path_4778" data-name="Path 4778" d="M120.124,106.393a5.61,5.61,0,0,0-3.779,2.346c-.143.216-.536.926-.874,1.578l-.612,1.187-2.093.025a8.2,8.2,0,0,0-2.573.176,5.45,5.45,0,0,0-3.357,2.73c-.584,1.15-.54.5-.567,8.4-.018,5.144,0,7.155.056,7.516a5.127,5.127,0,0,0,1.629,2.968,5.475,5.475,0,0,0,2.958,1.426c.616.1,25.136.1,25.757,0a5.538,5.538,0,0,0,3.092-1.554,5.062,5.062,0,0,0,1.5-2.84c.059-.36.074-2.372.056-7.516-.022-6.539-.033-7.051-.147-7.417a5.559,5.559,0,0,0-3.776-3.715,8.2,8.2,0,0,0-2.572-.176l-2.092-.025-.672-1.292a7.291,7.291,0,0,0-1.71-2.488,5.336,5.336,0,0,0-2.747-1.3,29.373,29.373,0,0,0-3.865-.092C121.936,106.341,120.313,106.367,120.124,106.393Zm7.2,2.663a3.424,3.424,0,0,1,.709.271c.613.344.851.671,1.8,2.481a20.037,20.037,0,0,0,1.077,1.9c.393.406.359.4,3.126.437l2.535.033.389.174a3.06,3.06,0,0,1,1.215,1.03c.434.648.422.407.4,7.959l-.019,6.852-.219.443a2.76,2.76,0,0,1-1.925,1.485c-.261.053-3.812.074-12.642.074-13.25,0-12.632.015-13.347-.333a2.958,2.958,0,0,1-1.174-1.226l-.219-.443-.019-6.852c-.021-7.561-.033-7.31.405-7.965a3.126,3.126,0,0,1,1.223-1.027l.377-.171,2.535-.033c2.767-.036,2.733-.031,3.126-.437a19.925,19.925,0,0,0,1.078-1.9c.949-1.809,1.187-2.135,1.819-2.49.6-.336.792-.352,4.188-.357A21.384,21.384,0,0,1,127.321,109.056Zm-4.01,6.309a6.808,6.808,0,0,0-5.575,3.613,6.417,6.417,0,0,0,4.4,9.126,8.274,8.274,0,0,0,3.3,0,6.353,6.353,0,0,0,3.123-10.849A6.992,6.992,0,0,0,123.311,115.365Zm1.4,2.723a4.278,4.278,0,0,1,2.488,1.719,3.475,3.475,0,0,1,.577,2.014,3.256,3.256,0,0,1-.532,1.937,4.1,4.1,0,0,1-5.489,1.371,4.166,4.166,0,0,1-1.815-2.192,4.242,4.242,0,0,1,0-2.232,4.071,4.071,0,0,1,4.772-2.616Z" transform="translate(-23.689 -23.901)" fill="#fff" fill-rule="evenodd"/>
  </g>
</svg>
