<svg xmlns="http://www.w3.org/2000/svg" xmlns:xlink="http://www.w3.org/1999/xlink" width="67" height="67" viewBox="0 0 67 67">
  <defs>
    <linearGradient id="linear-gradient" y1="0.827" x2="1" y2="0.864" gradientUnits="objectBoundingBox">
      <stop offset="0" stop-color="#051a2d"/>
      <stop offset="1" stop-color="#004c97"/>
    </linearGradient>
  </defs>
  <g id="Group_1188" data-name="Group 1188" transform="translate(-904 -467)">
    <g id="Group_1089" data-name="Group 1089" transform="translate(11004.994 6287.994)">
      <g id="Group_1085" data-name="Group 1085" transform="translate(-10101 -5821)">
        <circle id="Ellipse_48" data-name="Ellipse 48" cx="33.5" cy="33.5" r="33.5" transform="translate(0.006 0.006)" fill="url(#linear-gradient)"/>
      </g>
    </g>
    <path id="image_168_Traced_" data-name="image 168 (Traced)" d="M13.556.391a5.381,5.381,0,0,0-3.625,2.25c-.137.206-.514.887-.837,1.513L8.506,5.292,6.5,5.316a7.871,7.871,0,0,0-2.467.168A5.229,5.229,0,0,0,.812,8.1c-.56,1.1-.518.48-.544,8.058-.017,4.933,0,6.862.054,7.208a4.917,4.917,0,0,0,1.562,2.846,5.255,5.255,0,0,0,2.837,1.368c.59.092,24.105.092,24.7,0a5.308,5.308,0,0,0,2.964-1.49,4.855,4.855,0,0,0,1.434-2.724c.056-.346.071-2.275.054-7.208-.021-6.271-.031-6.762-.142-7.114a5.334,5.334,0,0,0-3.621-3.563,7.868,7.868,0,0,0-2.467-.168l-2.007-.024-.644-1.239a7,7,0,0,0-1.64-2.386A5.114,5.114,0,0,0,20.72.425,28.094,28.094,0,0,0,17.014.337C15.293.341,13.737.365,13.556.391Zm6.9,2.554a3.319,3.319,0,0,1,.679.259c.588.33.816.644,1.726,2.379A19.187,19.187,0,0,0,23.9,7.4c.377.389.344.385,3,.42l2.431.032.373.167a2.931,2.931,0,0,1,1.165.988c.417.622.4.39.385,7.633l-.018,6.571-.21.424a2.648,2.648,0,0,1-1.846,1.425c-.25.051-3.655.071-12.123.071-12.707,0-12.114.015-12.8-.32a2.831,2.831,0,0,1-1.126-1.176l-.21-.424L2.9,16.64C2.877,9.39,2.865,9.63,3.286,9a3,3,0,0,1,1.173-.985l.361-.164L7.25,7.82c2.654-.035,2.621-.03,3-.42a19.231,19.231,0,0,0,1.033-1.82c.91-1.735,1.138-2.048,1.744-2.388.573-.322.76-.338,4.016-.342A20.555,20.555,0,0,1,20.458,2.944Zm-3.846,6.05a6.532,6.532,0,0,0-5.347,3.464,6.155,6.155,0,0,0,4.223,8.752,5.145,5.145,0,0,0,1.585.16,5.142,5.142,0,0,0,1.577-.158,6.218,6.218,0,0,0,4.787-7.161,6.215,6.215,0,0,0-1.793-3.243A6.7,6.7,0,0,0,16.612,8.995Zm1.347,2.611a4.1,4.1,0,0,1,2.386,1.648,3.336,3.336,0,0,1,.553,1.932,3.119,3.119,0,0,1-.51,1.857,3.936,3.936,0,0,1-5.265,1.316,4,4,0,0,1-1.74-2.1,4.074,4.074,0,0,1,0-2.14,3.905,3.905,0,0,1,4.576-2.509Z" transform="translate(920.739 486.664)" fill="#fff" fill-rule="evenodd"/>
  </g>
</svg>
