<svg xmlns="http://www.w3.org/2000/svg" width="12.939" height="12.472" viewBox="0 0 12.939 12.472">
  <g id="Group_1749" data-name="Group 1749" transform="translate(316.678 -162.338) rotate(90)">
    <path id="Icon_ionic-ios-arrow-forward" data-name="Icon ionic-ios-arrow-forward" d="M16.415,12.664l-4.9-4.893a.921.921,0,0,1,0-1.306.932.932,0,0,1,1.31,0l5.548,5.544a.923.923,0,0,1,.027,1.275l-5.571,5.582a.925.925,0,1,1-1.31-1.306Z" transform="translate(156.166 297.542)" fill="#051a2d"/>
    <path id="Icon_ionic-ios-arrow-forward-2" data-name="Icon ionic-ios-arrow-forward" d="M15.1,11.019,11.449,7.37a.687.687,0,0,1,0-.974.7.7,0,0,1,.977,0l4.137,4.134a.688.688,0,0,1,.02.951l-4.154,4.162a.69.69,0,0,1-.977-.974Z" transform="translate(151.092 299.187)" fill="#051a2d" opacity="0.533"/>
  </g>
</svg>
