<svg id="group" xmlns="http://www.w3.org/2000/svg" width="22.83" height="22.4" viewBox="0 0 22.83 22.4">
  <path id="Path_4833" data-name="Path 4833" d="M11.211,2.91,3.3,9.244a3.85,3.85,0,0,0-1.267,3.321l1.518,9.085a3.641,3.641,0,0,0,3.47,2.933H19.805a3.662,3.662,0,0,0,3.47-2.933l1.518-9.085a3.914,3.914,0,0,0-1.267-3.321L15.617,2.921A3.681,3.681,0,0,0,11.211,2.91Z" transform="translate(-1.997 -2.184)" fill="#004c97"/>
  <path id="Path_4834" data-name="Path 4834" d="M12.353,16.207A2.853,2.853,0,1,0,9.5,13.353,2.853,2.853,0,0,0,12.353,16.207Z" transform="translate(-0.936 -1.008)" fill="#fff"/>
</svg>
