<svg xmlns="http://www.w3.org/2000/svg" width="61.674" height="61.997" viewBox="0 0 61.674 61.997">
  <g id="Group_2677" data-name="Group 2677" transform="translate(1.582 1.556)">
    <path id="Path_2150" data-name="Path 2150" d="M171.363,604.6a28.449,28.449,0,0,0-6.788,24.767" transform="translate(-164 -594.146)" fill="none" stroke="#84a8cc" stroke-linecap="round" stroke-linejoin="round" stroke-width="3"/>
    <path id="Path_2151" data-name="Path 2151" d="M208.336,601.36a29.072,29.072,0,0,0-34.55.694" transform="translate(-161.892 -596)" fill="none" stroke="#004c97" stroke-linecap="round" stroke-linejoin="round" stroke-width="3"/>
    <path id="Path_2152" data-name="Path 2152" d="M213.3,618.106a30.113,30.113,0,0,0-7.363-14.861" transform="translate(-154.965 -594.44)" fill="none" stroke="#84a8cc" stroke-linecap="round" stroke-linejoin="round" stroke-width="3"/>
    <path id="Path_2153" data-name="Path 2153" d="M182.641,647.52A33.992,33.992,0,0,0,189.416,620" transform="translate(-159.985 -590.83)" fill="none" stroke="#84a8cc" stroke-linecap="round" stroke-linejoin="round" stroke-width="3"/>
    <path id="Path_2154" data-name="Path 2154" d="M198.772,623.292q-.2-1.7-.551-3.409l.009,0a7.372,7.372,0,0,0-8.688-5.623,7.193,7.193,0,0,0-5.773,8.463c.213,1.738,2.532,14.035-7.653,23.315" transform="translate(-161.39 -592.099)" fill="none" stroke="#84a8cc" stroke-linecap="round" stroke-linejoin="round" stroke-width="3"/>
    <path id="Path_2155" data-name="Path 2155" d="M188.7,647.609a36.467,36.467,0,0,0,7.363-20.364" transform="translate(-158.68 -589.268)" fill="none" stroke="#004c97" stroke-linecap="round" stroke-linejoin="round" stroke-width="3"/>
    <path id="Path_2156" data-name="Path 2156" d="M177.089,616.377a15.931,15.931,0,0,0-.222,6.853l.016,0a19.329,19.329,0,0,1-5.892,17.919" transform="translate(-162.494 -591.609)" fill="none" stroke="#84a8cc" stroke-linecap="round" stroke-linejoin="round" stroke-width="3"/>
    <path id="Path_2157" data-name="Path 2157" d="M200.716,648.955a43.679,43.679,0,0,0,3.948-29.275c-.532-2.445-4.882-13.545-17.671-11.105a15.118,15.118,0,0,0-8.547,4.808" transform="translate(-160.888 -593.365)" fill="none" stroke="#004c97" stroke-linecap="round" stroke-linejoin="round" stroke-width="3"/>
    <path id="Path_2158" data-name="Path 2158" d="M187.087,603.245a21.3,21.3,0,0,0-16.245,24.972l.011,0a10.627,10.627,0,0,1-3.59,10.255" transform="translate(-163.297 -594.44)" fill="none" stroke="#84a8cc" stroke-linecap="round" stroke-linejoin="round" stroke-width="3"/>
    <path id="Path_2159" data-name="Path 2159" d="M207.871,644.266a55.921,55.921,0,0,0,.727-24.853h0A21.46,21.46,0,0,0,188.7,601.887" transform="translate(-158.68 -594.731)" fill="none" stroke="#84a8cc" stroke-linecap="round" stroke-linejoin="round" stroke-width="3"/>
  </g>
</svg>
