<svg xmlns="http://www.w3.org/2000/svg" width="48" height="48" viewBox="0 0 48 48">
  <g id="Group_754" data-name="Group 754" transform="translate(-32 -475)">
    <rect id="Rectangle_661" data-name="Rectangle 661" width="48" height="48" rx="10" transform="translate(32 475)" fill="#eff7ff"/>
    <g id="help_1_" data-name="help (1)" transform="translate(23.297 484)">
      <path id="Path_2014" data-name="Path 2014" d="M44.309,295.648a1.93,1.93,0,0,0-.8-.691,1.714,1.714,0,0,0-1.67.134l-3.355,2.188a4.329,4.329,0,0,1-.167.963,3.421,3.421,0,0,1-4.21,2.518l-3.317-1a.881.881,0,0,1-.541-1.058.76.76,0,0,1,.937-.611l3.367,1.019a1.9,1.9,0,0,0,2.342-1.527,2.2,2.2,0,0,0-1.352-2.646L30.4,293.378a3.422,3.422,0,0,0-2.9.432l-6.411,4.18a.927.927,0,0,0-.28,1.18l3.184,6.228a.785.785,0,0,0,.464.4.689.689,0,0,0,.58-.086l2.891-1.885,6.184.451a3.467,3.467,0,0,0,2.159-.57l7.479-4.877A2.328,2.328,0,0,0,44.309,295.648Z" transform="translate(0 -277.83)" fill="#456efe"/>
      <path id="Path_2015" data-name="Path 2015" d="M141.864,135.759h11.52a.864.864,0,0,0,.864-.864,6.623,6.623,0,0,0-2.948-5.507,5.319,5.319,0,0,1-7.353,0A6.623,6.623,0,0,0,141,134.9.864.864,0,0,0,141.864,135.759Z" transform="translate(-114.922 -122.416)" fill="#456efe"/>
      <circle id="Ellipse_49" data-name="Ellipse 49" cx="3.6" cy="3.6" r="3.6" transform="translate(29.102)" fill="#456efe"/>
    </g>
  </g>
</svg>
