<svg width="18" height="18" viewBox="0 0 18 18" fill="none" xmlns="http://www.w3.org/2000/svg">
<path d="M14.7754 8.625L14.4754 7.125L9.75039 8.1V3H8.25039V7.6125L3.03789 4.2375L2.21289 5.5125L7.91289 9.1875L3.52539 14.925L4.72539 15.825L8.96289 10.275L12.1129 15.0375L13.3879 14.2125L10.2379 9.525L14.7754 8.625Z" fill="#0078ad "/>
<path d="M9 11.625C10.4497 11.625 11.625 10.4497 11.625 9C11.625 7.55025 10.4497 6.375 9 6.375C7.55025 6.375 6.375 7.55025 6.375 9C6.375 10.4497 7.55025 11.625 9 11.625Z" fill="#0078ad "/>
<path d="M9 4.875C10.0355 4.875 10.875 4.03553 10.875 3C10.875 1.96447 10.0355 1.125 9 1.125C7.96447 1.125 7.125 1.96447 7.125 3C7.125 4.03553 7.96447 4.875 9 4.875Z" fill="#0078ad "/>
<path d="M14.625 9.75C15.6605 9.75 16.5 8.91053 16.5 7.875C16.5 6.83947 15.6605 6 14.625 6C13.5895 6 12.75 6.83947 12.75 7.875C12.75 8.91053 13.5895 9.75 14.625 9.75Z" fill="#0078ad "/>
<path d="M2.625 6.75C3.66053 6.75 4.5 5.91053 4.5 4.875C4.5 3.83947 3.66053 3 2.625 3C1.58947 3 0.75 3.83947 0.75 4.875C0.75 5.91053 1.58947 6.75 2.625 6.75Z" fill="#0078ad "/>
<path d="M4.125 17.25C5.16053 17.25 6 16.4105 6 15.375C6 14.3395 5.16053 13.5 4.125 13.5C3.08947 13.5 2.25 14.3395 2.25 15.375C2.25 16.4105 3.08947 17.25 4.125 17.25Z" fill="#0078ad "/>
<path d="M12.75 16.5C13.7855 16.5 14.625 15.6605 14.625 14.625C14.625 13.5895 13.7855 12.75 12.75 12.75C11.7145 12.75 10.875 13.5895 10.875 14.625C10.875 15.6605 11.7145 16.5 12.75 16.5Z" fill="#0078ad "/>
</svg>
