<svg width="18" height="16" viewBox="0 0 18 16" fill="none" xmlns="http://www.w3.org/2000/svg">
<path d="M1.73438 1.67188H13.1406V4.875H14.625V0.8125C14.625 0.466797 14.3457 0.1875 14 0.1875H0.875C0.529297 0.1875 0.25 0.466797 0.25 0.8125V15.1875C0.25 15.5332 0.529297 15.8125 0.875 15.8125H11.5V14.3281H1.73438V1.67188Z" fill="#0078ad "/>
<path d="M7.0918 3H5.9082C5.8418 3 5.7832 3.04297 5.75977 3.10547L3.27734 10.293C3.27148 10.3086 3.26953 10.3262 3.26953 10.3438C3.26953 10.4297 3.33984 10.5 3.42578 10.5H4.50195C4.56836 10.5 4.62695 10.457 4.65039 10.3945L5.28906 8.54688H9.12109L7.24219 3.10547C7.2168 3.04297 7.1582 3 7.0918 3ZM7.33398 7.45312H5.66406L6.5 5.03516L7.33398 7.45312ZM17.2812 8.3125H14.625V6.49609C14.625 6.41016 14.5547 6.33984 14.4688 6.33984H13.375C13.2891 6.33984 13.2188 6.41016 13.2188 6.49609V8.3125H10.5625C10.3027 8.3125 10.0938 8.52148 10.0938 8.78125V12.2188C10.0938 12.4785 10.3027 12.6875 10.5625 12.6875H13.2188V15.6562C13.2188 15.7422 13.2891 15.8125 13.375 15.8125H14.4688C14.5547 15.8125 14.625 15.7422 14.625 15.6562V12.6875H17.2812C17.541 12.6875 17.75 12.4785 17.75 12.2188V8.78125C17.75 8.52148 17.541 8.3125 17.2812 8.3125ZM13.2188 11.2812H11.5V9.71875H13.2188V11.2812ZM16.3438 11.2812H14.625V9.71875H16.3438V11.2812Z" fill="#0078ad "/>
</svg>
