<svg width="19" height="13" viewBox="0 0 19 13" fill="none" xmlns="http://www.w3.org/2000/svg">
<path fill-rule="evenodd" clip-rule="evenodd" d="M14.7303 0.21967C14.4374 -0.0732233 13.9625 -0.0732233 13.6696 0.21967C13.3767 0.512563 13.3767 0.987437 13.6696 1.28033L15.5786 3.18934H0.75C0.335786 3.18934 0 3.52513 0 3.93934C0 4.35355 0.335787 4.68934 0.75 4.68934H17.25C17.2867 4.68934 17.3228 4.6867 17.3581 4.6816C17.5579 4.68791 17.7598 4.61481 17.9123 4.46231C18.2052 4.16942 18.2052 3.69454 17.9123 3.40165L14.7303 0.21967Z" fill="#0078ad "/>
<path fill-rule="evenodd" clip-rule="evenodd" d="M3.40156 12.4698C3.69445 12.7627 4.16932 12.7627 4.46221 12.4698C4.75511 12.1769 4.75511 11.702 4.46221 11.4091L2.55321 9.50011H17.3818C17.796 9.50011 18.1318 9.16433 18.1318 8.75011C18.1318 8.3359 17.796 8.00011 17.3818 8.00011H0.881836C0.845121 8.00011 0.809023 8.00275 0.77372 8.00785C0.573919 8.00154 0.372078 8.07464 0.219574 8.22714C-0.0733185 8.52004 -0.0733185 8.99491 0.219574 9.2878L3.40156 12.4698Z" fill="#0078ad "/>
</svg>
