<svg width="11" height="20" viewBox="0 0 11 20" fill="none" xmlns="http://www.w3.org/2000/svg">
<path d="M10.4136 13.2254L10.4145 13.3021C10.4158 14.3638 10.0181 15.3873 9.30031 16.1696L9.30281 16.1663C8.55506 16.9899 7.54381 17.5273 6.44281 17.6863L6.41698 17.6896V19.6563C6.41698 19.7475 6.38072 19.8351 6.31617 19.8996C6.25163 19.9642 6.16409 20.0004 6.07281 20.0004H6.05865H6.05948H4.55365C4.45917 19.9993 4.36886 19.9613 4.30205 19.8945C4.23524 19.8277 4.19723 19.7374 4.19615 19.6429V17.6896C3.69397 17.6225 3.20054 17.5013 2.72448 17.3279L2.77365 17.3438C2.06254 17.1059 1.39533 16.7529 0.798645 16.2988L0.815312 16.3113C0.63306 16.1794 0.458082 16.0378 0.291145 15.8871L0.296978 15.8921C0.2042 15.8032 0.1392 15.7365 0.101978 15.6921C0.0417314 15.6322 0.00616106 15.5519 0.00230324 15.467C-0.00155458 15.3821 0.0265811 15.2989 0.0811448 15.2338L0.0803115 15.2346L1.22948 13.7279C1.26001 13.6886 1.29867 13.6563 1.34283 13.6333C1.38698 13.6103 1.43558 13.5971 1.48531 13.5946H1.48615C1.53556 13.5855 1.58652 13.5901 1.63352 13.6079C1.68051 13.6257 1.72176 13.6559 1.75281 13.6954L1.75365 13.6963L1.77531 13.7179C2.52878 14.4078 3.45092 14.8867 4.44865 15.1063L4.48698 15.1138C4.73531 15.1704 5.02031 15.2029 5.31281 15.2029L5.36448 15.2038C5.94031 15.2038 6.47365 15.0238 6.91281 14.7171L6.90365 14.7229C7.12515 14.5732 7.30458 14.3692 7.42479 14.1303C7.545 13.8915 7.60199 13.6259 7.59031 13.3588V13.3621C7.59031 13.1429 7.52781 12.9388 7.42031 12.7663L7.42281 12.7713C7.32123 12.5992 7.19582 12.4424 7.05031 12.3054L7.04948 12.3046C6.85577 12.1421 6.64277 12.0041 6.41531 11.8938L6.39698 11.8854C6.0992 11.7332 5.85476 11.614 5.66365 11.5279C5.47253 11.4418 5.17503 11.321 4.77115 11.1654C4.48115 11.0465 4.25226 10.9535 4.08448 10.8863C3.9167 10.819 3.68781 10.7204 3.39781 10.5904C3.10781 10.4604 2.87531 10.3452 2.70031 10.2446C2.52531 10.144 2.31503 10.0121 2.06948 9.84876C1.85436 9.71016 1.65315 9.55109 1.46864 9.37376L1.46948 9.3746C1.30203 9.20515 1.14348 9.02714 0.994478 8.84126L0.983645 8.82793C0.825835 8.63663 0.694902 8.42467 0.594478 8.19793L0.587812 8.18043C0.491019 7.95027 0.414344 7.71216 0.358645 7.46876L0.352812 7.43876C0.289056 7.15938 0.257186 6.87366 0.257812 6.5871V6.5671V6.5421C0.257812 5.50043 0.675312 4.55543 1.35281 3.8671L1.35198 3.86793C2.10715 3.08283 3.094 2.56035 4.16781 2.3771L4.19781 2.37293V0.36043V0.357096C4.19781 0.259596 4.23865 0.171263 4.30365 0.108763C4.33577 0.0752968 4.37433 0.0486702 4.417 0.0304832C4.45968 0.0122961 4.50559 0.00292385 4.55198 0.00292969H6.07448C6.26448 0.00292969 6.41865 0.157096 6.41865 0.347096V0.361263V0.36043V2.3246C6.87698 2.37293 7.29531 2.46376 7.69615 2.59376L7.65198 2.58126C8.03448 2.69793 8.35614 2.82543 8.66531 2.97376L8.62198 2.95543C8.89531 3.09126 9.12781 3.23043 9.34781 3.38543L9.33115 3.37376C9.55337 3.53043 9.69837 3.63821 9.76615 3.6971C9.83392 3.75599 9.88976 3.80793 9.93365 3.85293C9.99359 3.90453 10.0324 3.97646 10.0425 4.0549C10.0527 4.13334 10.0335 4.21277 9.98865 4.27793L9.98948 4.2771L9.08781 5.9071C9.06531 5.9572 9.02962 6.00025 8.98457 6.03166C8.93951 6.06307 8.88677 6.08165 8.83198 6.08543H8.83115C8.77822 6.09644 8.72348 6.09509 8.67116 6.08151C8.61884 6.06792 8.57036 6.04246 8.52948 6.0071H8.53031C8.50809 5.98487 8.4542 5.94043 8.36865 5.87376C8.28309 5.8071 8.13809 5.70849 7.93365 5.57793C7.73529 5.45078 7.52904 5.33638 7.31615 5.23543L7.28115 5.22043C7.02463 5.10248 6.75799 5.00793 6.48448 4.93793L6.44948 4.93043C6.13883 4.84539 5.81822 4.80223 5.49615 4.8021H5.49531C4.87817 4.77383 4.26824 4.94442 3.75531 5.28876L3.76615 5.2821C3.48245 5.4706 3.2713 5.75 3.16741 6.07439C3.06353 6.39877 3.07307 6.74885 3.19448 7.0671L3.19115 7.0571C3.26781 7.24043 3.37948 7.39543 3.51948 7.5196L3.52115 7.52043C3.65531 7.64626 3.79865 7.7671 3.94865 7.8796L3.96198 7.88876C4.14115 8.0121 4.34698 8.12793 4.56281 8.2246L4.58781 8.2346C4.8667 8.3646 5.0917 8.46515 5.26281 8.53626C5.43392 8.60737 5.69448 8.7096 6.04448 8.84293C6.43892 8.99182 6.74031 9.10904 6.94865 9.1946C7.15698 9.28015 7.43976 9.41043 7.79698 9.58543C8.09788 9.72674 8.38785 9.89024 8.66448 10.0746L8.64031 10.0596C8.89865 10.2429 9.12365 10.4263 9.33781 10.6221L9.33281 10.6171C9.56365 10.8188 9.76031 11.0521 9.91698 11.3129L9.92448 11.3263C10.0628 11.5704 10.182 11.8546 10.2686 12.1521L10.2761 12.1804C10.367 12.4846 10.4186 12.8346 10.4186 13.1963V13.2313V13.2296L10.4136 13.2254Z" fill="#0078ad "/>
</svg>
