<svg width="20" height="14" viewBox="0 0 20 14" fill="none" xmlns="http://www.w3.org/2000/svg">
<path d="M17.778 0.333252H2.22244C1.92775 0.333252 1.64514 0.450315 1.43676 0.658689C1.22839 0.867063 1.11133 1.14968 1.11133 1.44436V12.5555C1.11133 12.8502 1.22839 13.1328 1.43676 13.3411C1.64514 13.5495 1.92775 13.6666 2.22244 13.6666H17.778C18.0727 13.6666 18.3553 13.5495 18.5637 13.3411C18.772 13.1328 18.8891 12.8502 18.8891 12.5555V1.44436C18.8891 1.14968 18.772 0.867063 18.5637 0.658689C18.3553 0.450315 18.0727 0.333252 17.778 0.333252ZM16.9224 12.5555H3.14466L7.03355 8.53325L6.23355 7.76103L2.22244 11.911V2.28881L9.128 9.16103C9.33618 9.36797 9.61779 9.48413 9.91133 9.48413C10.2049 9.48413 10.4865 9.36797 10.6947 9.16103L17.778 2.11659V11.8388L13.6891 7.74992L12.9058 8.53325L16.9224 12.5555ZM2.95022 1.44436H16.878L9.91133 8.37214L2.95022 1.44436Z" fill="#0078ad " stroke="#0078ad " stroke-width="0.4"/>
</svg>
