<svg width="22" height="22" viewBox="0 0 22 22" fill="none" xmlns="http://www.w3.org/2000/svg">
<path fill-rule="evenodd" clip-rule="evenodd" d="M10.1663 1.01151C8.10273 1.20666 6.26663 1.94517 4.7161 3.20369C4.27427 3.56233 3.49974 4.34597 3.15744 4.78069C1.26712 7.18133 0.565922 10.3361 1.26533 13.2934C1.49782 14.2763 2.00098 15.4835 2.51879 16.3008C3.82577 18.3637 5.85917 19.9134 8.15341 20.5953C9.17836 20.8999 10.1729 21.0185 11.5288 20.9977C12.4205 20.984 12.4499 20.9809 12.6748 20.8754C13.1776 20.6396 13.4392 20.274 13.5362 19.6715C13.6141 19.1871 13.6888 19.0814 14.079 18.9035C14.5817 18.6743 14.7479 18.6315 14.9372 18.6825C15.0279 18.707 15.1813 18.7935 15.278 18.8748C15.3746 18.9562 15.5544 19.0702 15.6774 19.1283C15.8693 19.219 15.9561 19.234 16.2875 19.234C16.899 19.234 16.974 19.1858 18.0843 18.0786C18.8816 17.2836 19.0237 17.123 19.1317 16.8944C19.2354 16.6747 19.2566 16.5798 19.2566 16.3339C19.2567 15.9539 19.16 15.6782 18.8945 15.3012C18.781 15.1401 18.6767 14.9467 18.6626 14.8714C18.6157 14.6213 18.9609 13.8327 19.1882 13.6708C19.2708 13.6119 19.4329 13.5672 19.6957 13.5308C20.1552 13.4672 20.3354 13.3744 20.6338 13.0477C20.7972 12.8689 20.8613 12.7572 20.9296 12.5321C21.0151 12.2507 21.0159 12.2231 20.9685 11.2106C20.8896 9.52353 20.828 9.16018 20.5733 8.87808C20.3805 8.66462 20.0848 8.52953 19.6508 8.45666C19.1143 8.36657 19.0514 8.30671 18.7836 7.63139C18.5998 7.16766 18.6116 7.07936 18.9112 6.67531C19.2056 6.27835 19.2708 6.07653 19.2493 5.62911C19.2232 5.08696 19.1593 4.99447 18.0571 3.90441C16.9972 2.85608 16.8809 2.77491 16.393 2.74358C16.1935 2.73076 16.0267 2.74549 15.8776 2.78903C15.6697 2.8497 15.568 2.90719 15.146 3.20239C15.0098 3.2976 14.9305 3.32352 14.7855 3.32019C14.5392 3.31453 13.8654 3.02332 13.7158 2.85783C13.5987 2.72836 13.5967 2.72173 13.5257 2.25429C13.501 2.09092 13.4425 1.88235 13.3958 1.79075C13.2664 1.5371 12.9681 1.24279 12.7134 1.11763L12.4846 1.00516L11.4068 1.00065C10.814 0.998165 10.2557 1.00305 10.1663 1.01151ZM12.422 1.87917C12.6434 1.99213 12.7112 2.11179 12.7511 2.45944C12.8082 2.95638 12.9241 3.19454 13.2627 3.51041C13.6764 3.89643 14.1697 4.08625 14.7623 4.08739C15.2025 4.08828 15.4776 3.99722 15.7727 3.75304C16.0894 3.49096 16.4014 3.45975 16.681 3.66218C16.7442 3.708 17.1557 4.10846 17.5954 4.55218C18.6297 5.5959 18.6606 5.68058 18.2208 6.26541C17.7623 6.87518 17.7562 7.33444 18.1944 8.28311C18.4757 8.89232 18.7491 9.0993 19.4573 9.23919C19.7204 9.29115 19.9091 9.35068 19.9539 9.39577C19.9977 9.43991 20.0423 9.58058 20.0672 9.75339C20.1187 10.1098 20.1921 11.3574 20.1921 11.8746C20.1921 12.5176 20.0713 12.6567 19.4219 12.7618C19.2135 12.7956 18.9632 12.8618 18.8656 12.9091C18.5438 13.0649 18.2204 13.5313 17.9926 14.1682C17.9196 14.3722 17.8975 14.5211 17.896 14.8192C17.8938 15.2598 17.945 15.3948 18.2609 15.7827C18.4661 16.0348 18.5159 16.2182 18.4451 16.4609C18.4044 16.6001 18.2404 16.7854 17.5145 17.5117C16.7608 18.2659 16.6082 18.4001 16.4604 18.439C16.2253 18.5008 16.0199 18.4402 15.7736 18.2367C15.2028 17.7648 14.6574 17.7539 13.7024 18.1952C13.3328 18.3661 13.054 18.6092 12.9149 18.8819C12.8689 18.9721 12.8018 19.2165 12.7659 19.4249C12.6521 20.0858 12.5609 20.1643 11.8847 20.1835L11.4068 20.197V17.3726V14.5483L11.7423 14.4763C12.3962 14.3361 12.9423 14.0473 13.4299 13.5839C13.7984 13.2338 14.0445 12.8974 14.2367 12.4812C14.4775 11.9599 14.5483 11.6218 14.5483 10.9944C14.5483 10.5676 14.5296 10.3753 14.4643 10.1319C14.1078 8.80223 13.0594 7.79326 11.7423 7.51217L11.4068 7.44056V4.62229V1.80402L11.5186 1.78445C11.7576 1.74266 12.2572 1.79507 12.422 1.87917ZM10.5933 3.98176V6.12418L10.1154 6.09805C9.29595 6.05317 7.58354 5.71985 7.58354 5.60518C7.58354 5.51204 7.91807 4.70005 8.13726 4.26117C8.58674 3.36108 9.1782 2.60645 9.7296 2.22955C9.98727 2.05344 10.4278 1.84243 10.5425 1.84027C10.5825 1.8395 10.5933 2.29441 10.5933 3.98176ZM8.39696 2.35809C7.89806 2.91411 7.24909 4.05898 6.93257 4.94142C6.8544 5.15939 6.77069 5.33789 6.74657 5.33814C6.61117 5.33952 5.30557 4.71156 4.87904 4.43992L4.67592 4.31057L4.89937 4.1074C5.4705 3.58817 6.31821 3.02889 7.07928 2.66924C7.50325 2.46888 8.43316 2.12506 8.55278 2.12441C8.58251 2.12424 8.51243 2.22939 8.39696 2.35809ZM5.18384 5.5295C5.39636 5.64213 5.78071 5.82311 6.03797 5.93171C6.29523 6.04031 6.51222 6.13329 6.52019 6.1383C6.52812 6.1433 6.47858 6.38198 6.41009 6.66868C6.18732 7.60104 6.02345 8.71621 5.97773 9.61097C5.96456 9.86833 5.94381 10.1934 5.93165 10.3332L5.90949 10.5875H3.85396H1.79843L1.82552 10.2722C1.985 8.41491 2.6814 6.66604 3.83256 5.23186L4.09787 4.9013L4.44766 5.11304C4.64004 5.2295 4.97132 5.41691 5.18384 5.5295ZM7.86825 6.55556C8.63294 6.74868 9.84011 6.92547 10.3943 6.92547H10.5933V8.7565V10.5875H8.66088H6.72843L6.74767 10.4349C6.75821 10.351 6.77748 10.0535 6.79042 9.77373C6.81743 9.19037 6.93383 8.2327 7.05284 7.61434C7.18564 6.92445 7.31185 6.4372 7.35768 6.43732C7.38123 6.43736 7.61099 6.49058 7.86825 6.55556ZM11.7756 8.33316C12.7194 8.61066 13.5026 9.45298 13.7049 10.408C13.9663 11.6427 13.3626 12.9006 12.2406 13.459C11.983 13.5872 11.5882 13.7189 11.4576 13.7201C11.4174 13.7205 11.4068 13.1485 11.4068 10.9944C11.4068 7.89746 11.3632 8.21191 11.7756 8.33316ZM5.93165 11.6556C5.94381 11.7955 5.96456 12.1205 5.97773 12.3779C6.02353 13.274 6.2127 14.5453 6.42688 15.3962C6.48143 15.6129 6.52604 15.8073 6.52604 15.8282C6.52604 15.8491 6.41639 15.9062 6.28241 15.9551C5.95126 16.0759 4.87403 16.6116 4.45954 16.8616C4.06355 17.1005 4.10609 17.1151 3.71892 16.6078C2.62722 15.1772 1.98903 13.5256 1.82894 11.7167L1.80104 11.4013H3.85526H5.90949L5.93165 11.6556ZM10.5933 13.2323V15.0634H10.3943C9.83999 15.0634 8.61911 15.242 7.88781 15.4301C7.6413 15.4935 7.41446 15.5513 7.38375 15.5587C7.3166 15.5747 7.26365 15.3936 7.09616 14.5751C6.94542 13.8386 6.82121 12.8796 6.79042 12.2151C6.77748 11.9354 6.75821 11.6378 6.74767 11.5539L6.72843 11.4013H8.66088H10.5933V13.2323ZM10.5933 18.0177V20.1584L10.4815 20.1309C10.2476 20.0734 9.78988 19.8209 9.53161 19.607C9.01787 19.1814 8.52674 18.5132 8.11672 17.6821C7.81672 17.0741 7.56137 16.4119 7.60876 16.3649C7.65439 16.3196 8.32716 16.1446 8.78652 16.0585C9.3184 15.9588 9.92557 15.8868 10.2781 15.8817L10.5933 15.8771V18.0177ZM6.93245 17.0474C7.25035 17.9342 7.88322 19.0569 8.37593 19.608C8.50214 19.7492 8.58873 19.8647 8.56831 19.8647C8.48021 19.8647 7.61055 19.5539 7.23876 19.3895C6.51787 19.0709 5.74728 18.5887 5.10774 18.0562C4.90771 17.8896 4.7327 17.735 4.71883 17.7126C4.66412 17.624 6.49477 16.659 6.72941 16.6528C6.77025 16.6517 6.8374 16.7822 6.93245 17.0474Z" fill="#0078ad " stroke="#0078ad " stroke-width="0.5"/>
</svg>
