<svg width="16" height="19" viewBox="0 0 16 19" fill="none" xmlns="http://www.w3.org/2000/svg">
<path d="M8.66634 11.8766V13.6182C7.91211 13.3516 7.1049 13.2698 6.31251 13.3797C5.52012 13.4897 4.76567 13.7882 4.11253 14.2501C3.45939 14.712 2.92663 15.3239 2.55898 16.0344C2.19132 16.7449 1.99952 17.5333 1.99967 18.3333L0.333008 18.3324C0.332749 17.3148 0.565442 16.3107 1.01326 15.3969C1.46107 14.4831 2.11212 13.684 2.91652 13.0608C3.72092 12.4375 4.65732 12.0067 5.65397 11.8013C6.65062 11.5959 7.68106 11.6214 8.66634 11.8758V11.8766ZM6.99967 10.8333C4.23717 10.8333 1.99967 8.59575 1.99967 5.83325C1.99967 3.07075 4.23717 0.833252 6.99967 0.833252C9.76217 0.833252 11.9997 3.07075 11.9997 5.83325C11.9997 8.59575 9.76217 10.8333 6.99967 10.8333ZM6.99967 9.16658C8.84134 9.16658 10.333 7.67492 10.333 5.83325C10.333 3.99158 8.84134 2.49992 6.99967 2.49992C5.15801 2.49992 3.66634 3.99158 3.66634 5.83325C3.66634 7.67492 5.15801 9.16658 6.99967 9.16658ZM12.833 14.6549L14.6005 12.8866L15.7797 14.0658L14.0113 15.8333L15.7797 17.6008L14.6005 18.7799L12.833 17.0116L11.0655 18.7799L9.88634 17.6008L11.6547 15.8333L9.88634 14.0658L11.0655 12.8866L12.833 14.6549Z" fill="#0078ad "/>
</svg>
