<svg width="19" height="17" viewBox="0 0 19 17" fill="none" xmlns="http://www.w3.org/2000/svg">
<path fill-rule="evenodd" clip-rule="evenodd" d="M11.9137 1.5H15.4997C16.0301 1.5 16.5388 1.71071 16.9139 2.08579C17.289 2.46086 17.4997 2.96957 17.4997 3.5V7.086C17.4996 7.35119 17.3942 7.60551 17.2067 7.793L10.4137 14.586C10.0386 14.9609 9.53003 15.1716 8.9997 15.1716C8.46937 15.1716 7.96075 14.9609 7.5857 14.586L4.4137 11.414C4.03876 11.0389 3.82812 10.5303 3.82813 10C3.82812 9.46967 4.03876 8.96106 4.4137 8.586L11.2067 1.793C11.3942 1.60545 11.6485 1.50006 11.9137 1.5V1.5Z" stroke="#0078ad " stroke-width="1.5" stroke-linecap="round" stroke-linejoin="round"/>
<path d="M7.49977 14.5L5.48677 15.506C5.2361 15.6314 4.96188 15.7026 4.6819 15.7152C4.40191 15.7278 4.12241 15.6813 3.86152 15.5789C3.60063 15.4765 3.36417 15.3205 3.16748 15.1208C2.97079 14.9212 2.81826 14.6824 2.71977 14.42L1.10477 10.114C0.936629 9.66541 0.935095 9.17136 1.10045 8.72174C1.2658 8.27211 1.58705 7.89677 2.00577 7.664L9.49977 3.5" stroke="#0078ad " stroke-width="1.5" stroke-linecap="round" stroke-linejoin="round"/>
<path d="M16 4C16 3.44772 15.5523 3 15 3C14.4477 3 14 3.44772 14 4C14 4.55228 14.4477 5 15 5C15.5523 5 16 4.55228 16 4Z" fill="#0078ad "/>
</svg>
