<svg width="18" height="16" viewBox="0 0 18 16" fill="none" xmlns="http://www.w3.org/2000/svg">
<path d="M9.59169 7.40838C9.43592 7.25569 9.22649 7.17017 9.00836 7.17017C8.79023 7.17017 8.5808 7.25569 8.42502 7.40838L5.92502 9.82505C5.8366 9.89801 5.76418 9.98844 5.7123 10.0907C5.66041 10.1929 5.63018 10.3047 5.62349 10.4192C5.6168 10.5336 5.6338 10.6482 5.67342 10.7558C5.71304 10.8634 5.77442 10.9616 5.85375 11.0444C5.93307 11.1272 6.02862 11.1927 6.13441 11.2368C6.24021 11.281 6.35398 11.3029 6.4686 11.301C6.58323 11.2992 6.69625 11.2738 6.8006 11.2263C6.90494 11.1788 6.99836 11.1103 7.07502 11.025L8.16669 9.96671V14.6667C8.16669 14.8877 8.25449 15.0997 8.41077 15.256C8.56705 15.4122 8.77901 15.5 9.00002 15.5C9.22104 15.5 9.433 15.4122 9.58928 15.256C9.74556 15.0997 9.83336 14.8877 9.83336 14.6667V10.0084L10.9084 11.0917C10.9858 11.1698 11.078 11.2318 11.1795 11.2741C11.2811 11.3164 11.39 11.3382 11.5 11.3382C11.61 11.3382 11.719 11.3164 11.8205 11.2741C11.9221 11.2318 12.0142 11.1698 12.0917 11.0917C12.1698 11.0142 12.2318 10.9221 12.2741 10.8205C12.3164 10.719 12.3382 10.6101 12.3382 10.5C12.3382 10.39 12.3164 10.2811 12.2741 10.1796C12.2318 10.078 12.1698 9.98585 12.0917 9.90838L9.59169 7.40838Z" fill="#0078ad "/>
<path d="M13.7247 3.8334C13.3846 2.85094 12.7468 1.99891 11.8999 1.39587C11.0531 0.79282 10.0393 0.46875 8.99967 0.46875C7.96003 0.46875 6.94625 0.79282 6.09939 1.39587C5.25253 1.99891 4.6147 2.85094 4.27467 3.8334C3.52596 3.93368 2.8186 4.23561 2.22825 4.70689C1.6379 5.17818 1.18678 5.80108 0.92314 6.50897C0.659499 7.21687 0.59326 7.98311 0.731508 8.72575C0.869756 9.46838 1.20729 10.1595 1.708 10.7251C1.76848 10.8316 1.85171 10.9235 1.95176 10.9942C2.05181 11.0649 2.16621 11.1127 2.28683 11.1341C2.40744 11.1556 2.5313 11.1501 2.64959 11.1183C2.76787 11.0864 2.87767 11.0288 2.97117 10.9496C3.06466 10.8705 3.13956 10.7717 3.19052 10.6603C3.24147 10.5489 3.26724 10.4276 3.26598 10.3051C3.26473 10.1826 3.23647 10.0619 3.18324 9.95154C3.13001 9.8412 3.0531 9.74396 2.958 9.66673C2.6356 9.30628 2.42466 8.86006 2.35074 8.38214C2.27683 7.90423 2.34311 7.41513 2.54156 6.97413C2.74002 6.53312 3.06212 6.15914 3.46883 5.89751C3.87554 5.63587 4.34941 5.49782 4.833 5.50007H4.91634C5.11129 5.504 5.30145 5.43944 5.45372 5.31763C5.60598 5.19581 5.71071 5.02446 5.74967 4.8334C5.90268 4.07987 6.31149 3.40242 6.90683 2.91581C7.50217 2.42921 8.24743 2.16339 9.01634 2.16339C9.78524 2.16339 10.5305 2.42921 11.1258 2.91581C11.7212 3.40242 12.13 4.07987 12.283 4.8334C12.322 5.02446 12.4267 5.19581 12.579 5.31763C12.7312 5.43944 12.9214 5.504 13.1163 5.50007H13.1663C13.6499 5.49782 14.1238 5.63587 14.5305 5.89751C14.9372 6.15914 15.2593 6.53312 15.4578 6.97413C15.6562 7.41513 15.7225 7.90423 15.6486 8.38214C15.5747 8.86006 15.3637 9.30628 15.0413 9.66673C14.9679 9.74905 14.9116 9.84512 14.8756 9.94938C14.8396 10.0536 14.8247 10.164 14.8316 10.2741C14.8386 10.3841 14.8674 10.4917 14.9162 10.5906C14.9651 10.6895 15.0331 10.7777 15.1163 10.8501C15.2683 10.984 15.4638 11.0581 15.6663 11.0584C15.7847 11.0583 15.9016 11.0329 16.0094 10.9841C16.1171 10.9352 16.2132 10.864 16.2913 10.7751C16.8059 10.2104 17.1554 9.51519 17.3015 8.76535C17.4476 8.0155 17.3848 7.23992 17.1199 6.52338C16.8549 5.80684 16.3981 5.17693 15.7993 4.70251C15.2005 4.2281 14.4828 3.92743 13.7247 3.8334Z" fill="#0078ad "/>
</svg>
