<svg width="20" height="16" viewBox="0 0 20 16" fill="none" xmlns="http://www.w3.org/2000/svg">
<path d="M10.2913 4.95833L12.6163 7.28333C12.6734 7.34157 12.7122 7.41529 12.7278 7.49534C12.7434 7.5754 12.7352 7.65827 12.7041 7.73369C12.673 7.8091 12.6205 7.87375 12.5531 7.91961C12.4856 7.96547 12.4062 7.99052 12.3247 7.99167H10.833V14.6667C10.833 15.125 10.458 15.5 9.99967 15.5C9.54134 15.5 9.16634 15.125 9.16634 14.6667V8H7.67467C7.29967 8 7.11634 7.55 7.38301 7.29167L9.70801 4.96667C9.86634 4.8 10.133 4.8 10.2913 4.95833ZM17.4997 15.5H13.3247C12.8747 15.5 12.4997 15.125 12.4997 14.675C12.4997 14.2167 12.8747 13.85 13.3247 13.85H16.6663C17.1247 13.85 17.4997 13.475 17.4997 13.0167V2.99167C17.4997 2.53333 17.1247 2.15833 16.6663 2.15833H3.33301C2.87467 2.15833 2.49967 2.53333 2.49967 2.99167V13.0083C2.49967 13.4667 2.87467 13.8417 3.33301 13.8417H6.67467C7.12467 13.8417 7.49967 14.2167 7.49967 14.6667C7.49968 14.8862 7.41303 15.097 7.25855 15.253C7.10407 15.409 6.89424 15.4978 6.67467 15.5H2.49967C1.58301 15.5 0.833008 14.75 0.833008 13.8333V2.16667C0.833008 1.25 1.58301 0.5 2.49967 0.5H17.4997C18.4163 0.5 19.1663 1.25 19.1663 2.16667V13.8333C19.1663 14.75 18.4163 15.5 17.4997 15.5Z" fill="#E6224A"/>
</svg>
