<svg width="22" height="22" viewBox="0 0 22 22" fill="none" xmlns="http://www.w3.org/2000/svg">
<path d="M17.4286 1H4.57142C2.59995 1.00234 1.00234 2.59995 1 4.57142V17.4286C1.00234 19.4001 2.59995 20.9977 4.57142 21H17.4286C19.4001 20.9977 20.9977 19.4001 21 17.4286V4.57142C20.9977 2.59995 19.4001 1.00234 17.4286 1ZM19.5714 17.4286C19.5714 18.6121 18.6121 19.5714 17.4286 19.5714H4.57142C3.38795 19.5714 2.42856 18.6121 2.42856 17.4286V4.57142C2.42856 3.38795 3.38795 2.42856 4.57142 2.42856H17.4286C18.6121 2.42856 19.5714 3.38795 19.5714 4.57142V17.4286Z" fill="#E6224A"/>
<path d="M14.5716 10.2863H11.7144V7.42914C11.7144 7.03463 11.3946 6.71484 11.0001 6.71484C10.6056 6.71484 10.2858 7.03463 10.2858 7.42914V10.2863H7.42866C7.03416 10.2863 6.71436 10.6061 6.71436 11.0006C6.71436 11.3951 7.03416 11.7149 7.42866 11.7149H10.2859V14.572C10.2859 14.9665 10.6056 15.2863 11.0002 15.2863C11.3947 15.2863 11.7144 14.9665 11.7144 14.572V11.7149H14.5716C14.9661 11.7149 15.2859 11.3951 15.2859 11.0006C15.2859 10.6061 14.966 10.2863 14.5716 10.2863Z" fill="#E6224A"/>
</svg>
