<?xml version="1.0" encoding="utf-8"?>
<!-- Generator: Adobe Illustrator 23.0.1, SVG Export Plug-In . SVG Version: 6.00 Build 0)  -->
<svg version="1.1" id="Layer_1" xmlns="http://www.w3.org/2000/svg" xmlns:xlink="http://www.w3.org/1999/xlink" x="0px" y="0px"
	 viewBox="0 0 16 8" style="enable-background:new 0 0 16 8;" xml:space="preserve">
<style type="text/css">
	.st0{fill:#E6224A;}
</style>
<path class="st0" d="M0,4c0-2.2,1.8-4,4-4c1.4,0,2.8,0.8,3.5,2H14c0.1,0,0.3,0.1,0.4,0.1l1.5,1.5c0.2,0.2,0.2,0.5,0,0.7c0,0,0,0,0,0
	l-1.5,1.5c-0.2,0.2-0.5,0.2-0.7,0c0,0,0,0,0,0L13,5.2l-0.6,0.6c-0.2,0.2-0.5,0.2-0.7,0c0,0,0,0,0,0L11,5.2l-0.6,0.6
	c-0.2,0.2-0.5,0.2-0.7,0c0,0,0,0,0,0L9,5.2L8.4,5.9C8.3,5.9,8.1,6,8,6H7.5C6.4,7.9,3.9,8.6,2,7.5C0.8,6.8,0,5.4,0,4z M4,1
	C2.3,1,1,2.3,1,4s1.3,3,3,3c1.2,0,2.2-0.7,2.7-1.7C6.8,5.1,7,5,7.2,5h0.6l0.9-0.9C8.8,4,9.2,4,9.4,4.1c0,0,0,0,0,0L10,4.8l0.6-0.6
	c0.2-0.2,0.5-0.2,0.7,0c0,0,0,0,0,0L12,4.8l0.6-0.6c0.2-0.2,0.5-0.2,0.7,0c0,0,0,0,0,0L14,4.8L14.8,4l-1-1H7.2C7,3,6.8,2.9,6.7,2.7
	C6.2,1.7,5.2,1,4,1z"/>
<path class="st0" d="M4,4c0,0.6-0.4,1-1,1S2,4.6,2,4s0.4-1,1-1S4,3.4,4,4z"/>
</svg>
