<svg xmlns="http://www.w3.org/2000/svg" width="68.193" height="67.982" viewBox="0 0 68.193 67.982">
  <g id="Group_802" data-name="Group 802" style="mix-blend-mode: normal;isolation: isolate">
    <path id="image_320_Traced_" data-name="image 320 (Traced)" d="M44.953.65a9.051,9.051,0,0,0-4.506,2.585A9.375,9.375,0,0,0,38.69,6.554a10.794,10.794,0,0,0,.008,4.069,10.266,10.266,0,0,0,.657,1.687l.452.892-11.615.049c-11.311.047-11.647.056-12.839.334a19.077,19.077,0,0,0-9.708,5.287A18.706,18.706,0,0,0,.405,28.435a16.465,16.465,0,0,0-.359,4.412,2.328,2.328,0,0,0,3.46,1.321c.211-.108,2.538-2.274,5.17-4.813,5.081-4.9,6.111-5.739,8.038-6.541a11.831,11.831,0,0,1,5.325-.9,10.321,10.321,0,0,1,2.931.419,12.544,12.544,0,0,1,6.971,5.032A13.056,13.056,0,0,1,33.3,30.1c0,.134.705.17,3.275.17a25.475,25.475,0,0,1,3.224.1,8.506,8.506,0,0,0-1.3,4.621,8.14,8.14,0,0,0,5.928,7.75,9.475,9.475,0,0,0,4.529-.048c1.845-.576,2.19-.865,9.988-8.377,4.247-4.091,7.524-7.352,7.765-7.727a8.624,8.624,0,0,0,0-9.687c-.391-.609-13.913-13.773-15.09-14.691A9.315,9.315,0,0,0,48.654.768,13.392,13.392,0,0,0,44.953.65Zm-25.33,25.61a8.075,8.075,0,0,0-3.245,1.686c-.476.391-3.893,3.637-7.594,7.213-7.343,7.1-7.694,7.5-8.353,9.5a6.627,6.627,0,0,0-.368,2.731,6.286,6.286,0,0,0,.371,2.649c.676,1.937,1.064,2.386,7.093,8.2,3.072,2.964,6.308,6.09,7.191,6.946,1.883,1.827,2.9,2.527,4.379,3a9.247,9.247,0,0,0,4.34.2A8.462,8.462,0,0,0,28.3,65.036a7.465,7.465,0,0,0,1.366-4.2A8.094,8.094,0,0,0,28.4,55.951c-.027-.052,5.156-.116,11.517-.143,11.121-.047,11.615-.06,12.836-.326a19.792,19.792,0,0,0,4.755-1.652A19.065,19.065,0,0,0,68.119,37.394c.013-1.316-.016-1.508-.283-1.882a2.642,2.642,0,0,0-3.125-.645c-.266.144-2.593,2.3-5.171,4.785s-5,4.756-5.374,5.04a15.827,15.827,0,0,1-4.551,2.117,14.431,14.431,0,0,1-5.995,0,13.389,13.389,0,0,1-6.665-4.118A14.777,14.777,0,0,1,34.9,38.981c0-.156-.546-.188-3.275-.188a25.5,25.5,0,0,1-3.225-.1c1.143-2.266,1.358-3.094,1.273-4.9a7.937,7.937,0,0,0-5.5-7.338A8.3,8.3,0,0,0,19.623,26.259Z" transform="translate(0 -0.57)" fill="#004c97" fill-rule="evenodd"/>
    <path id="image_320_Traced_2" data-name="image 320 (Traced)" d="M20.034,191.931a8.075,8.075,0,0,0-3.245,1.686c-.476.391-3.893,3.637-7.594,7.213-7.343,7.1-7.694,7.5-8.353,9.5a6.627,6.627,0,0,0-.368,2.731,6.286,6.286,0,0,0,.371,2.649c.676,1.937,1.064,2.386,7.093,8.2,3.072,2.964,6.308,6.09,7.191,6.946,1.883,1.827,2.9,2.527,4.379,3a9.247,9.247,0,0,0,4.34.2,8.462,8.462,0,0,0,4.862-3.344,7.464,7.464,0,0,0,1.366-4.2,8.094,8.094,0,0,0-1.268-4.889c-.027-.052,5.156-.116,11.517-.143,11.121-.047,11.615-.06,12.836-.326a19.793,19.793,0,0,0,4.755-1.652A19.065,19.065,0,0,0,68.53,203.065c.013-1.316-.016-1.508-.283-1.882a2.643,2.643,0,0,0-3.125-.645c-.266.144-2.593,2.3-5.171,4.785s-5,4.756-5.374,5.04a15.827,15.827,0,0,1-4.551,2.117,14.431,14.431,0,0,1-5.995,0,13.389,13.389,0,0,1-6.665-4.118,14.777,14.777,0,0,1-2.061-3.711c0-.156-.546-.188-3.275-.188a25.5,25.5,0,0,1-3.225-.1c1.143-2.266,1.358-3.094,1.273-4.9a7.937,7.937,0,0,0-5.5-7.338A8.3,8.3,0,0,0,20.034,191.931Z" transform="translate(-0.339 -166.241)" fill="#051a2d" fill-rule="evenodd"/>
  </g>
</svg>
