<svg xmlns="http://www.w3.org/2000/svg" width="128" height="99.948" viewBox="0 0 128 99.948"><defs><style>.a{fill:#ffb8b8;}.b{fill:#456efe;}.c{fill:#2f2e41;}.d{opacity:0.2;}.e{fill:#e6e6e6;}.f{fill:#fff;}</style></defs><path class="a" d="M608.929,515.932h0a2.947,2.947,0,0,1-4.627-.791l-2.726-5.234,1.085-2.35,5.844,3.74a2.947,2.947,0,0,1,.425,4.634Z" transform="translate(-537.291 -447.179)"/><path class="b" d="M471.247,353.615,448.9,342.008a.818.818,0,0,1-.417-.529l-4.847-19.537a4.689,4.689,0,0,1,3-5.556l1.168-.409a2.015,2.015,0,0,1,2.608,1.363l4.778,17.2a.816.816,0,0,0,.266.411l18.207,15.086a.818.818,0,0,1,.153,1.092l-1.519,2.22a.818.818,0,0,1-1.052.264Z" transform="translate(-407.786 -290.137)"/><path class="a" d="M71.232,427.807l-9.58-2.35.542-5.423,9.58,4.338Z" transform="translate(-50.508 -344.113)"/><path class="c" d="M359.919,206.606c-10.838-5.706-22.183-8.571-34.343-6.869,3.665-6.212,6.388-11.956,6.206-16.255a8.463,8.463,0,0,1,3.32-7.21,10.274,10.274,0,0,1,6.123-2.021h0a8.414,8.414,0,0,1,6.232-.248,6.554,6.554,0,0,1,3.8,3.764,5.963,5.963,0,0,0,2.609,2.667,7.321,7.321,0,0,1,2.825,2.951,4.849,4.849,0,0,1-.207,5.145C360.682,192.94,360.694,199.564,359.919,206.606Z" transform="translate(-311.179 -173.522)"/><path class="c" d="M323.913,544.4h0a5.394,5.394,0,0,1-6.061,1.589c-7.97.737-14.429-4.873-21.346-10.2l1.627-4.338-13.556-9.58,5.784-3.615,12.472-4.7,20.985,23.825A5.394,5.394,0,0,1,323.913,544.4Z" transform="translate(-277.589 -452.095)"/><circle class="a" cx="7.592" cy="7.592" r="7.592" transform="translate(25.785 3.621)"/><path class="a" d="M410.433,269.21l-8.857.9c.475-5.178.662-9.957,0-13.556h8.857C408.751,262.288,408.9,266.373,410.433,269.21Z" transform="translate(-373.442 -241.548)"/><path class="b" d="M323.036,318.447l-14.46-7.772c5.215-6.046,7.421-15.484,8.447-26.25.174-1.821,1.566-1.759,3.392-1.857,1.928-.1,3.822-1.124,5.513-.09l4.88,5.423,2.35-2.531,4.617,1.979a2.125,2.125,0,0,1,1.21,2.524c-.086,8.709-1.141,16.363-5.646,20.261l-3.8,3.977Z" transform="translate(-297.251 -262.407)"/><path class="d" d="M368.079,626.822s-6.9-6.431-11.582-6.107" transform="translate(-336.511 -539.874)"/><path class="a" d="M81.139,448.164,79.5,457.891l-5.448-.141,2.187-10.216Z" transform="translate(-60.669 -366.642)"/><path class="c" d="M325.408,680.664h0a2.978,2.978,0,0,1-1.022-.148l-8.792-.739a4.139,4.139,0,0,1-2.086-5.139l.982-3.447a4.726,4.726,0,0,0,5.513-.633l7.773,5.447a2.979,2.979,0,0,1-2.369,4.659Z" transform="translate(-301.087 -580.717)"/><path class="c" d="M259.912,599.055h0a2.977,2.977,0,0,1,.148-1.022l.739-8.792a4.138,4.138,0,0,1,5.139-2.086l3.447.982a4.726,4.726,0,0,0,.633,5.513l-5.447,7.773a2.979,2.979,0,0,1-4.659-2.369Z" transform="translate(-257.382 -512.185)"/><path class="c" d="M266.828,467.588l-6.326-.361.181-11.026-4.3.248a9.819,9.819,0,0,1-10.3-11.46q.035-.192.078-.385a11.907,11.907,0,0,1,4.895-7.173l6.553-4.547,5.332,2.259,4.225-2.268a7.331,7.331,0,0,1,7.173.821h0a7.331,7.331,0,0,1,2.5,8.631Z" transform="translate(-245.924 -385.52)"/><path class="d" d="M329.965,513.557s-2.892,5.784-2.531,9.218" transform="translate(-312.675 -452.095)"/><path class="d" d="M155.152,179.535l1.584,7.267,9.623,8.278-8.5-8.676Z" transform="translate(-127.108 -147.083)"/><path class="d" d="M106.152,198.535l2.892,11.749,8.5,3.073-7.953-3.977Z" transform="translate(-86.965 -162.649)"/><path class="c" d="M401.609,197.095c-5.6-2.574-11.921-3.308-17.533-.542l.723-6.507,12.291-1.988Z" transform="translate(-359.105 -185.43)"/><path class="e" d="M521.98,526.057a.9.9,0,0,0-.9.9v33.62a.9.9,0,0,0,.9.9h76.458a.9.9,0,0,0,.9-.9v-33.62a.9.9,0,0,0-.9-.9Z" transform="translate(-471.342 -462.336)"/><path class="f" d="M526.57,530.557a1,1,0,0,0-.994.994v31.812a1,1,0,0,0,.994.994h74.651a1,1,0,0,0,.994-.994V531.551a1,1,0,0,0-.994-.994Z" transform="translate(-475.028 -466.022)"/><path class="a" d="M506.929,485.932h0a2.947,2.947,0,0,1-4.627-.791l-2.726-5.234,1.085-2.35,5.844,3.74a2.947,2.947,0,0,1,.425,4.634Z" transform="translate(-453.728 -422.602)"/><path class="b" d="M369.247,323.614,346.9,312.008a.818.818,0,0,1-.417-.529l-4.847-19.537a4.69,4.69,0,0,1,3-5.556l1.168-.409a2.015,2.015,0,0,1,2.608,1.363l4.778,17.2a.817.817,0,0,0,.266.411l18.207,15.086a.818.818,0,0,1,.153,1.092l-1.519,2.22A.818.818,0,0,1,369.247,323.614Z" transform="translate(-324.222 -265.559)"/><circle class="b" cx="5.286" cy="5.286" r="5.286" transform="translate(59.057 69.675)"/><path class="e" d="M665.441,568.744a.881.881,0,0,0,0,1.762h41.531a.881.881,0,0,0,0-1.762Z" transform="translate(-588.891 -497.307)"/><path class="e" d="M665.441,597.987a.881.881,0,0,0,0,1.762h17.871a.881.881,0,0,0,0-1.762Z" transform="translate(-588.891 -521.264)"/><path class="e" d="M573.957,644.739c-.67,0-1.215.4-1.215.881s.545.881,1.215.881h57.3c.67,0,1.216-.4,1.216-.881s-.545-.881-1.216-.881Z" transform="translate(-513.669 -559.566)"/><path class="e" d="M573.957,673.982c-.67,0-1.215.4-1.215.881s.545.881,1.215.881h57.3c.67,0,1.216-.4,1.216-.881s-.545-.881-1.216-.881Z" transform="translate(-513.669 -583.523)"/></svg>