<svg xmlns="http://www.w3.org/2000/svg" xmlns:xlink="http://www.w3.org/1999/xlink" width="120" height="120" viewBox="0 0 120 120"><defs><style>.a,.g{fill:#fff;}.a{stroke:#707070;}.b{clip-path:url(#a);}.c{fill:#2f2e41;}.d{fill:#ffb8b8;}.e{fill:#3f3d56;}.f{fill:#6c63ff;}.h{fill:#f2f2f2;}.i{fill:#a0616a;}.j{fill:#cacaca;}</style><clipPath id="a"><rect class="a" width="120" height="120" transform="translate(856 712)"/></clipPath></defs><g class="b" transform="translate(-856 -712)"><g transform="translate(856 731.648)"><path class="c" d="M107.93,32.407l.385-3.086a4.167,4.167,0,0,1,8.27,1.032l-.385,3.086a.56.56,0,0,1-.625.486l-7.159-.893A.56.56,0,0,1,107.93,32.407Z" transform="translate(-11.631 -21.875)"/><circle class="d" cx="3.055" cy="3.055" r="3.055" transform="translate(96.673 5.341)"/><path class="c" d="M107.389,29.327a3.3,3.3,0,0,1,3.679-2.863l.617.077a3.3,3.3,0,0,1,2.863,3.679l-.008.062-1.3-.163-.289-1.3-.244,1.235-.674-.084-.146-.656-.123.623-4.378-.546Z" transform="translate(-11.715 -21.757)"/><path class="d" d="M97.972,39.379a1.407,1.407,0,0,0,2.1.484l2.775,1.626,1.4-1.445L100.3,37.8a1.415,1.415,0,0,0-2.326,1.577Z" transform="translate(-13.187 -20.084)"/><path class="e" d="M106.621,42.612a31.59,31.59,0,0,1-5.848-.967l-.063-.016.567-2.87,5.5,1.087,2.989-4.209,3.431-.349-.1.126c-.045.059-4.468,5.881-5.156,6.858C107.773,42.518,107.277,42.612,106.621,42.612Z" transform="translate(-12.741 -20.396)"/><path class="e" d="M106.691,53.507l-.082-.039a6.691,6.691,0,0,1-2.657-2.506c-.9-1.644,3.3-8.615,3.594-9.1l0-2.214,1.51-4.076,1.925-1.088-1.653,3.857Z" transform="translate(-12.262 -20.519)"/><path class="d" d="M80.529,50.16h-1.84l-.875-7.1h2.716Z" transform="translate(11.971 6.625)"/><path class="c" d="M105.835,73.458H99.9v-.075a2.309,2.309,0,0,1,2.309-2.309h3.624Z" transform="translate(-12.866 -14.89)"/><path class="d" d="M97.934,48.715l-1.749.573-3.042-6.472,2.581-.845Z" transform="translate(14.33 6.457)"/><path class="c" d="M123.4,71.842l-5.638,1.847-.023-.071a2.309,2.309,0,0,1,1.475-2.913h0l3.444-1.128Z" transform="translate(-10.139 -15.121)"/><path class="c" d="M121.45,73.579l-5.245-8.757-4.428-9.356-3.985,8.264-1.583,10.7-5.551.077.022-.087,8.495-33.754,6.653.994-.3,4.392.18.257c1.5,2.135,3.057,4.343,2.166,6.722l2.527,7.5,5.593,12.492Z" transform="translate(-12.749 -19.567)"/><path class="f" d="M108.523,49.114c-.964,0-2.064-1.1-1.493-2.98l-.037-.027,1.371-6.055a2.418,2.418,0,0,1,.529-3.248l.753-1.355,3.321-2.106,1.68,13.963-.025.024C113.408,48.489,109.332,49.114,108.523,49.114Z" transform="translate(-11.793 -20.695)"/><path class="e" d="M114.616,52.354a1.634,1.634,0,0,1-.392-.042c-.129-.032-.338-.2-.661-1.249-1.285-4.183-2.8-16.768-1.7-18l.025-.028,1.809.3a2.674,2.674,0,0,1,1.668-.566,1.105,1.105,0,0,1,.756.447l.012.016.576,8.2,2.112,9.65-.051.023A14.4,14.4,0,0,1,114.616,52.354Z" transform="translate(-11.084 -20.784)"/><path class="d" d="M113.34,47.684a1.407,1.407,0,0,0,1.33-1.7l2.649-1.824-.716-1.88-3.7,2.629a1.415,1.415,0,0,0,.442,2.775Z" transform="translate(-11.025 -19.32)"/><path class="e" d="M116.149,47.043l-2.359-1.73,3.316-4.522L114.561,36.3l1.139-3.256.074.14c.034.065,3.433,6.54,4.026,7.577.617,1.079-3.436,6.021-3.609,6.231Z" transform="translate(-10.729 -20.741)"/><path class="g" d="M102.191,57.419,58.842,58.888a4.048,4.048,0,0,1-4.178-3.9L53.95,33.922a4.048,4.048,0,0,1,3.9-4.178L101.2,28.274a4.048,4.048,0,0,1,4.178,3.9l.714,21.062A4.048,4.048,0,0,1,102.191,57.419Z" transform="translate(-19.936 -21.475)"/><path class="h" d="M105.98,49.912l0,.111a3.861,3.861,0,0,1-3.729,3.989L58.689,55.489A3.861,3.861,0,0,1,54.7,51.761l0-.111Z" transform="translate(-19.82 -18.146)"/><path class="f" d="M62.933,35.746a5.524,5.524,0,0,1-6.6-3.672l.218-.047A5.507,5.507,0,0,1,62.933,35.746Z" transform="translate(-19.569 -20.919)"/><path class="e" d="M89.158,49.428a2.218,2.218,0,0,1-1.684-.565c-.936-.9-.94-2.7-.943-4.147,0-.421,0-.818-.026-1.15V43.56a2.467,2.467,0,0,1,2.369-2.537l5.831-.2a2.217,2.217,0,0,1,1.682.565c.935.9.94,2.7.944,4.145,0,.422,0,.82.026,1.152a2.469,2.469,0,0,1-2.37,2.542ZM86.75,43.55c.024.34.025.74.026,1.164,0,1.4.008,3.141.868,3.971a1.959,1.959,0,0,0,1.505.5l5.829-.2A2.222,2.222,0,0,0,97.113,46.7c-.025-.336-.026-.738-.027-1.164,0-1.4-.009-3.141-.869-3.97a1.957,1.957,0,0,0-1.5-.5l-5.831.2A2.222,2.222,0,0,0,86.75,43.55Z" transform="translate(-14.927 -19.544)"/><path class="e" d="M61.684,36.037a5.709,5.709,0,0,1-5.522-3.951l-.032-.124.34-.073A5.635,5.635,0,0,1,63,35.694l.033.117-.117.033a5.144,5.144,0,0,1-1.23.192Zm-5.25-3.889a5.329,5.329,0,0,0,2.457,2.929,5.108,5.108,0,0,0,3.837.564,5.386,5.386,0,0,0-6.2-3.513Z" transform="translate(-19.6 -20.941)"/><path class="e" d="M58.707,48.264a2.034,2.034,0,0,1-1.869-.95,2.544,2.544,0,0,1-.085-2.493A2.041,2.041,0,0,1,58.6,43.743l7.769-.263a2.045,2.045,0,0,1,1.91.951,2.544,2.544,0,0,1,.084,2.493A2.05,2.05,0,0,1,66.517,48l-7.769.263Zm-.14-4.274a1.8,1.8,0,0,0-1.6.947,2.292,2.292,0,0,0,.077,2.246,1.8,1.8,0,0,0,1.692.835l7.773-.263a1.806,1.806,0,0,0,1.634-.946,2.292,2.292,0,0,0-.076-2.246,1.811,1.811,0,0,0-1.693-.837l-7.773.263h-.036Z" transform="translate(-19.548 -19.136)"/><path class="f" d="M90.782,43.625l-2.449.083a.613.613,0,0,1-.042-1.225L90.74,42.4a.613.613,0,1,1,.042,1.225Z" transform="translate(-14.743 -19.301)"/><path class="f" d="M90.839,45.323l-2.449.083a.613.613,0,0,1-.041-1.225L90.8,44.1a.613.613,0,1,1,.042,1.225Z" transform="translate(-14.734 -19.04)"/><path class="f" d="M90.9,47.021l-2.449.083a.613.613,0,0,1-.041-1.225l2.449-.083a.613.613,0,1,1,.042,1.225Z" transform="translate(-14.725 -18.779)"/><path class="f" d="M94.5,43.5l-2.449.083a.613.613,0,1,1-.041-1.225h0l2.449-.083A.613.613,0,1,1,94.5,43.5Z" transform="translate(-14.172 -19.321)"/><path class="f" d="M94.554,45.2l-2.449.083a.613.613,0,1,1-.042-1.225h0l2.449-.083a.613.613,0,0,1,.041,1.225h0Z" transform="translate(-14.163 -19.059)"/><path class="f" d="M94.611,46.9l-2.449.083a.613.613,0,0,1-.041-1.225l2.449-.083a.613.613,0,0,1,.042,1.225Z" transform="translate(-14.154 -18.798)"/><rect class="e" width="51.314" height="0.245" transform="translate(34.318 17.027) rotate(-1.942)"/><path class="e" d="M102.191,57.419,58.842,58.888a4.048,4.048,0,0,1-4.178-3.9L53.95,33.922a4.048,4.048,0,0,1,3.9-4.178L101.2,28.274a4.048,4.048,0,0,1,4.178,3.9l.714,21.062A4.048,4.048,0,0,1,102.191,57.419ZM57.863,29.989A3.8,3.8,0,0,0,54.2,33.914l.714,21.062a3.8,3.8,0,0,0,3.925,3.667l43.349-1.469a3.8,3.8,0,0,0,3.667-3.925l-.714-21.062a3.8,3.8,0,0,0-3.925-3.667Z" transform="translate(-19.936 -21.475)"/><path class="i" d="M42.692,49.565a1.475,1.475,0,0,0-1.8-1.369L38.94,45.447l-1.96.778,2.81,3.844a1.483,1.483,0,0,0,2.9-.5Z" transform="translate(-22.546 -18.833)"/><path class="e" d="M39.422,51.092l-5.9-7.658,2.212-6.952a2.578,2.578,0,0,1,1.3-2.256l.071-.03,1.925,5.133L37.616,43.1l3.469,5.834Z" transform="translate(-23.078 -20.564)"/><path class="i" d="M56.912,28.381a1.475,1.475,0,0,0-1.225,1.9L53.1,32.44l.927,1.894,3.615-3.1a1.483,1.483,0,0,0-.727-2.855Z" transform="translate(-20.067 -21.46)"/><path class="e" d="M58.7,31.877l-7.179,6.478-7.1-1.668a2.578,2.578,0,0,1-2.35-1.124l-.036-.068,4.969-2.316L50.873,34.3l5.548-3.909Z" transform="translate(-21.768 -21.15)"/><path class="i" d="M21.234,50.2h1.929l.918-7.44H21.234Z" transform="translate(3.267 6.578)"/><path class="c" d="M0,0H6.062V2.342H2.076A2.076,2.076,0,0,1,0,.266V0Z" transform="translate(30.149 58.568) rotate(179.997)"/><path class="i" d="M14.553,50.2h1.929l.917-7.44H14.552Z" transform="translate(2.239 6.578)"/><path class="c" d="M0,0H6.062V2.342H2.076A2.076,2.076,0,0,1,0,.266V0Z" transform="translate(22.44 58.568) rotate(179.997)"/><path class="c" d="M13.958,25.672l.157,11.013.157,14.474,3.461-.315,1.731-19.981,2.2,19.981h3.573l.36-20.138L24.342,26.3Z" transform="translate(2.147 3.95)"/><path class="e" d="M45.613,52.249a18.6,18.6,0,0,1-7.279-1.728L38.3,50.5l-.316-7.585c-.092-.268-1.9-5.557-2.2-7.238-.31-1.7,4.178-3.2,4.723-3.373l.124-1.37,5.029-.542.637,1.753,1.8.677a.892.892,0,0,1,.553,1.048l-1,4.078L50.1,51.443l-.527.023A9.575,9.575,0,0,1,45.613,52.249Z" transform="translate(-22.733 -21.148)"/><circle class="i" cx="3.621" cy="3.621" r="3.621" transform="translate(16.981 1.136)"/><path class="c" d="M40.02,30.644a1.2,1.2,0,0,0,2.062-.664,1.213,1.213,0,0,0,0-.234,5.431,5.431,0,0,1-.242-1.318.691.691,0,0,1,.127-.324c.55-.736,1.841.329,2.36-.337.318-.409-.056-1.052.188-1.509.322-.6,1.277-.306,1.876-.636.666-.367.626-1.389.188-2.011a3.164,3.164,0,0,0-2.4-1.221,6.433,6.433,0,0,0-2.71.529,5.416,5.416,0,0,0-2.561,1.775,4.334,4.334,0,0,0-.438,3.69A6.957,6.957,0,0,0,40.02,30.644Z" transform="translate(-22.35 -22.381)"/><path class="j" d="M144.324,73.35H24.618a.147.147,0,1,1,0-.294H144.324a.147.147,0,0,1,0,.294Z" transform="translate(-24.471 -14.585)"/><path class="d" d="M57.853,69.377h1.737l.826-6.7H57.853Z" transform="translate(8.9 9.643)"/><path class="c" d="M81.94,90.373h3.422a2.18,2.18,0,0,1,2.18,2.18v.071h-5.6Z" transform="translate(-15.629 -11.921)"/><path class="d" d="M43.852,69.377H45.59l.826-6.7H43.852Z" transform="translate(6.746 9.643)"/><path class="c" d="M67.939,90.373H71.36a2.18,2.18,0,0,1,2.18,2.18v.071h-5.6Z" transform="translate(-17.783 -11.921)"/><path class="c" d="M85.341,61.506s1.458,3.958,1.25,5.625,1.458,13.333,1.25,14.374.208,6.25,0,7.083.585,1.829.168,2.662-1,2.546-1,2.546L84.3,93.588,83.882,91.3a1.241,1.241,0,0,1-1.042-1.458c.208-1.25-1.042-9.583-1.042-9.583L78.258,68.589l-5,10.625s-.208,7.5-.833,8.333.625,3.125,0,3.958a13.88,13.88,0,0,0-1.25,2.292H68.05V92.13s-1.875-1.042,0-4.166L69.317,69.2l1.25-8.541Z" transform="translate(-17.894 -16.493)"/><circle class="d" cx="3.891" cy="3.891" r="3.891" transform="translate(55.789 11.036)"/><path class="c" d="M80.1,35.773l-.824,2.1a4.316,4.316,0,0,1-1.515,2.266,3.072,3.072,0,0,1-3.226-.339,5.038,5.038,0,0,1,2.268-9.17l.039.7.864-.724a.84.84,0,0,0,1.306.185,1.282,1.282,0,0,0,.413,1.405c.465.443,1.795.975,1.739,1.767C81.127,34.5,80.313,35.226,80.1,35.773Z" transform="translate(-17.107 -21.115)"/><path class="d" d="M66.948,67.287a1.648,1.648,0,0,1,.706-2.426L67.576,61.1l2.276-.605.035,5.317a1.656,1.656,0,0,1-2.939,1.478Z" transform="translate(-17.978 -16.518)"/><path class="e" d="M74.381,40.888a8.43,8.43,0,0,1,5.863-.5A16.714,16.714,0,0,1,84.6,42.563l-1.843,9.716,2.513,13.066s-12.9-1.005-14.071,0-1.173-1.173-1.173-1.173l1.005-12.4L69.188,43.9Z" transform="translate(-17.591 -19.665)"/><path class="d" d="M84.869,67.552a1.648,1.648,0,0,1,0-2.526l-1.131-3.591,2.014-1.22,1.527,5.093a1.656,1.656,0,0,1-2.406,2.244Z" transform="translate(-15.353 -16.561)"/><path class="e" d="M81.729,42.226H82.9s1.843,1.173,1.843,2.848,2.68,21.274,2.68,21.274l-2.848.5L82.064,53.115l-1.843-3.685Z" transform="translate(-15.894 -19.328)"/><path class="e" d="M72.706,43.388H69.523a7.029,7.029,0,0,0-1.508,3.35C67.513,49.083,67.01,58.3,67.01,58.3l.335,8.376h2.513l.335-10.888,1.675-7.035Z" transform="translate(-17.926 -19.149)"/></g></g></svg>