<svg width="20" height="20" viewBox="0 0 20 20" fill="none" xmlns="http://www.w3.org/2000/svg">
<path d="M17.5 10V13.75H2.5V3.75H6.875V2.5H2.5C2.16848 2.5 1.85054 2.6317 1.61612 2.86612C1.3817 3.10054 1.25 3.41848 1.25 3.75V13.75C1.25 14.0815 1.3817 14.3995 1.61612 14.6339C1.85054 14.8683 2.16848 15 2.5 15H7.5V17.5H5V18.75H15V17.5H12.5V15H17.5C17.8315 15 18.1495 14.8683 18.3839 14.6339C18.6183 14.3995 18.75 14.0815 18.75 13.75V10H17.5ZM11.25 17.5H8.75V15H11.25V17.5Z" fill="#E6224A" stroke="#E6224A" stroke-width="0.3"/>
<path d="M11.25 11.2501H11.2437C11.1091 11.2487 10.9785 11.2038 10.8714 11.1221C10.7643 11.0405 10.6864 10.9264 10.6494 10.7969L9.52875 6.87507H6.875V5.62507H10C10.1358 5.62499 10.268 5.66918 10.3765 5.75094C10.485 5.8327 10.5639 5.94759 10.6012 6.07819L11.2725 8.42819L13.1531 2.31569C13.1937 2.18885 13.2732 2.07801 13.3803 1.99891C13.4875 1.91982 13.6168 1.87649 13.75 1.87507C13.8817 1.87309 14.0105 1.91361 14.1173 1.99061C14.2242 2.06762 14.3034 2.17701 14.3431 2.30257L15.45 5.62507H18.75V6.87507H15C14.8688 6.8751 14.7409 6.83383 14.6344 6.7571C14.5279 6.68037 14.4483 6.57207 14.4069 6.44757L13.7738 4.54757L11.8475 10.8088C11.8082 10.9366 11.729 11.0484 11.6214 11.1278C11.5139 11.2073 11.3837 11.2501 11.25 11.2501Z" fill="#E6224A" stroke="#E6224A" stroke-width="0.3"/>
</svg>
