<svg width="16" height="16" viewBox="0 0 16 16" fill="none" xmlns="http://www.w3.org/2000/svg">
<path d="M14.6667 7.16667C14.4457 7.16667 14.2337 7.25446 14.0774 7.41074C13.9211 7.56702 13.8333 7.77899 13.8333 8V13C13.8333 13.221 13.7455 13.433 13.5893 13.5893C13.433 13.7455 13.221 13.8333 13 13.8333H3C2.77899 13.8333 2.56702 13.7455 2.41074 13.5893C2.25446 13.433 2.16667 13.221 2.16667 13V3C2.16667 2.77899 2.25446 2.56702 2.41074 2.41074C2.56702 2.25446 2.77899 2.16667 3 2.16667H8C8.22101 2.16667 8.43297 2.07887 8.58926 1.92259C8.74554 1.76631 8.83333 1.55435 8.83333 1.33333C8.83333 1.11232 8.74554 0.900358 8.58926 0.744078C8.43297 0.587797 8.22101 0.5 8 0.5H3C2.33696 0.5 1.70107 0.763392 1.23223 1.23223C0.763392 1.70107 0.5 2.33696 0.5 3V13C0.5 13.663 0.763392 14.2989 1.23223 14.7678C1.70107 15.2366 2.33696 15.5 3 15.5H13C13.663 15.5 14.2989 15.2366 14.7678 14.7678C15.2366 14.2989 15.5 13.663 15.5 13V8C15.5 7.77899 15.4122 7.56702 15.2559 7.41074C15.0996 7.25446 14.8877 7.16667 14.6667 7.16667Z" fill="#E6224A"/>
<path d="M11.3336 2.16667H12.6503L7.40861 7.4C7.3305 7.47747 7.26851 7.56964 7.2262 7.67119C7.18389 7.77273 7.16211 7.88166 7.16211 7.99167C7.16211 8.10168 7.18389 8.2106 7.2262 8.31215C7.26851 8.4137 7.3305 8.50586 7.40861 8.58333C7.48608 8.66144 7.57824 8.72343 7.67979 8.76574C7.78134 8.80805 7.89026 8.82983 8.00027 8.82983C8.11028 8.82983 8.21921 8.80805 8.32076 8.76574C8.4223 8.72343 8.51447 8.66144 8.59194 8.58333L13.8336 3.35V4.66667C13.8336 4.88768 13.9214 5.09964 14.0777 5.25592C14.234 5.4122 14.4459 5.5 14.6669 5.5C14.888 5.5 15.0999 5.4122 15.2562 5.25592C15.4125 5.09964 15.5003 4.88768 15.5003 4.66667V1.33333C15.5003 1.11232 15.4125 0.900358 15.2562 0.744078C15.0999 0.587797 14.888 0.5 14.6669 0.5H11.3336C11.1126 0.5 10.9006 0.587797 10.7444 0.744078C10.5881 0.900358 10.5003 1.11232 10.5003 1.33333C10.5003 1.55435 10.5881 1.76631 10.7444 1.92259C10.9006 2.07887 11.1126 2.16667 11.3336 2.16667Z" fill="#E6224A"/>
</svg>
