<svg xmlns="http://www.w3.org/2000/svg" xmlns:xlink="http://www.w3.org/1999/xlink" width="98.452" height="64.593" viewBox="0 0 98.452 64.593">
  <defs>
    <clipPath id="clip-path">
      <rect id="Rectangle_766" data-name="Rectangle 766" width="27.302" height="64.593" transform="translate(0 0)" fill="#fff" stroke="#707070" stroke-width="1"/>
    </clipPath>
    <clipPath id="clip-path-2">
      <rect id="Rectangle_767" data-name="Rectangle 767" width="12.652" height="25.97" transform="translate(0 0)" fill="#fff" stroke="#707070" stroke-width="1"/>
    </clipPath>
  </defs>
  <g id="Group_797" data-name="Group 797" style="mix-blend-mode: normal;isolation: isolate">
    <path id="image_323_Traced_" data-name="image 323 (Traced)" d="M48.743.028a17.029,17.029,0,0,0-8.7,3.58A15.508,15.508,0,0,0,43.491,29.57a12.69,12.69,0,0,0,6.5,1.339,12.69,12.69,0,0,0,6.5-1.339A15.49,15.49,0,0,0,50.76.034,16.451,16.451,0,0,0,48.743.028ZM18.773,6.349c-.211.048-.86.181-1.441.295a14.672,14.672,0,0,0-5.091,2.486,12.184,12.184,0,0,0-4.515,9.685A11.357,11.357,0,0,0,9.1,24.481a12.5,12.5,0,0,0,7.111,6.111,9.045,9.045,0,0,0,3.907.5,9.044,9.044,0,0,0,3.907-.5,12.5,12.5,0,0,0,7.111-6.111,11.357,11.357,0,0,0,1.374-5.666,12.146,12.146,0,0,0-7.2-11.328,15.868,15.868,0,0,0-2.276-.843A16.956,16.956,0,0,0,18.773,6.349Zm59.748,0c-.211.048-.86.183-1.441.3a12.826,12.826,0,0,0-8.257,6.339,13.714,13.714,0,0,0-1.059,8.727,12.749,12.749,0,0,0,8.195,8.878,9.044,9.044,0,0,0,3.907.5,9.044,9.044,0,0,0,3.907-.5,12.5,12.5,0,0,0,7.111-6.111,11.357,11.357,0,0,0,1.374-5.666,12.184,12.184,0,0,0-4.515-9.685,16.029,16.029,0,0,0-4.966-2.49A17.2,17.2,0,0,0,78.521,6.349Zm-60.8,27.758a19.886,19.886,0,0,0-8.341,3.146,19.408,19.408,0,0,0-6.829,8.023C1.2,48.157.968,49.28.861,53.549l-.1,3.794H25.125l-.077,3.17-.076,3.17h50.04l-.076-3.17-.077-3.17H99.218l-.1-3.794c-.107-4.269-.336-5.392-1.685-8.273A19.235,19.235,0,0,0,81.855,34.1,18.863,18.863,0,0,0,66.784,39.13l-1.171,1.119-.846-.639a24.956,24.956,0,0,0-29.549,0l-.846.639L33.2,39.13a18.786,18.786,0,0,0-9.37-4.812A25.616,25.616,0,0,0,17.717,34.107Z" transform="translate(-0.766 0.486)" fill="#3f83c7" fill-rule="evenodd"/>
    <path id="image_323_Traced_-1" data-name="image 323 (Traced)-1" d="M22.139.123A15.716,15.716,0,0,0,10.05,10.838a17.37,17.37,0,0,0-.372,7.471A15.548,15.548,0,0,0,20.136,30.017c1.556.51,1.878.547,4.743.544,2.947,0,3.143-.028,4.751-.6A15.518,15.518,0,0,0,39.887,18.3a17.763,17.763,0,0,0-.312-7.335A17.982,17.982,0,0,0,36.7,5.553,16.951,16.951,0,0,0,28.721.4,23.117,23.117,0,0,0,22.139.123Zm-1.2,34.846a24.849,24.849,0,0,0-11.047,4.7,24.506,24.506,0,0,0-8.647,12A24.843,24.843,0,0,0,0,60.294V63.32H49.61l-.1-3.89c-.1-4.111-.333-5.513-1.39-8.444A25.176,25.176,0,0,0,30.15,35.257,31.278,31.278,0,0,0,20.94,34.969Z" transform="translate(24.421 0.486)" fill="#051a2d" fill-rule="evenodd"/>
    <g id="Mask_Group_79" data-name="Mask Group 79" transform="translate(21.537)" clip-path="url(#clip-path)">
      <path id="image_323_Traced_-1-2" data-name="image 323 (Traced)-1" d="M22.139.123A15.716,15.716,0,0,0,10.05,10.838a17.37,17.37,0,0,0-.372,7.471A15.548,15.548,0,0,0,20.136,30.017c1.556.51,1.878.547,4.743.544,2.947,0,3.143-.028,4.751-.6A15.518,15.518,0,0,0,39.887,18.3a17.763,17.763,0,0,0-.312-7.335A17.982,17.982,0,0,0,36.7,5.553,16.951,16.951,0,0,0,28.721.4,23.117,23.117,0,0,0,22.139.123Zm-1.2,34.846a24.849,24.849,0,0,0-11.047,4.7,24.506,24.506,0,0,0-8.647,12A24.843,24.843,0,0,0,0,60.294V63.32H49.61l-.1-3.89c-.1-4.111-.333-5.513-1.39-8.444A25.176,25.176,0,0,0,30.15,35.257,31.278,31.278,0,0,0,20.94,34.969Z" transform="translate(2.882 0.486)" fill="#094c8d" fill-rule="evenodd"/>
    </g>
    <g id="Mask_Group_80" data-name="Mask Group 80" transform="translate(92.123 33.295) rotate(180)" clip-path="url(#clip-path-2)">
      <path id="image_323_Traced_2" data-name="image 323 (Traced)" d="M11.056.047c-.211.048-.86.183-1.441.3A12.826,12.826,0,0,0,1.358,6.685,13.714,13.714,0,0,0,.3,15.412,12.749,12.749,0,0,0,8.494,24.29a9.044,9.044,0,0,0,3.907.5,9.044,9.044,0,0,0,3.907-.5,12.5,12.5,0,0,0,7.111-6.111,11.357,11.357,0,0,0,1.374-5.666,12.184,12.184,0,0,0-4.515-9.685A16.028,16.028,0,0,0,15.311.338,17.2,17.2,0,0,0,11.056.047Z" transform="translate(0.239 1.649)" fill="#004c97" fill-rule="evenodd"/>
    </g>
    <g id="Mask_Group_81" data-name="Mask Group 81" transform="translate(6.887 5.327)" clip-path="url(#clip-path-2)">
      <path id="image_323_Traced_3" data-name="image 323 (Traced)" d="M359.009,32.85c-.211.048-.86.183-1.441.3a12.826,12.826,0,0,0-8.257,6.339,13.714,13.714,0,0,0-1.059,8.727,12.749,12.749,0,0,0,8.195,8.878,15.452,15.452,0,0,0,7.813,0,12.5,12.5,0,0,0,7.111-6.111,11.357,11.357,0,0,0,1.374-5.666,12.184,12.184,0,0,0-4.515-9.685,16.029,16.029,0,0,0-4.966-2.49A17.2,17.2,0,0,0,359.009,32.85Z" transform="translate(-347.889 -31.342)" fill="#004c97" fill-rule="evenodd"/>
    </g>
  </g>
</svg>
