<svg xmlns="http://www.w3.org/2000/svg" xmlns:xlink="http://www.w3.org/1999/xlink" width="338.436" height="257" viewBox="0 0 338.436 257">
  <defs>
    <linearGradient id="linear-gradient" x1="0.5" y1="1" x2="0.5" gradientUnits="objectBoundingBox">
      <stop offset="0" stop-color="gray" stop-opacity="0.251"/>
      <stop offset="0.54" stop-color="gray" stop-opacity="0.122"/>
      <stop offset="1" stop-color="gray" stop-opacity="0.102"/>
    </linearGradient>
  </defs>
  <g id="undraw_High_five_u364" transform="translate(0.004 0.003)">
    <path id="Path_1971" data-name="Path 1971" d="M309.621,705.827c-2.849-.288-5.826-.6-8.525.157s-4.935,2.957-4.133,5.062c1.79,4.693,12.3,1.425,17.141,4.633,1.73,1.146,2.4,2.95,3.755,4.358,2.186,2.286,5.944,3.352,9.571,3.939,21.79,3.523,46.631-5.545,65.73,3.188,6.185,2.829,11.063,7.332,17.845,9.219,8.984,2.5,18.824-.171,28.12-1.884a137.539,137.539,0,0,1,35.163-1.844c8.693.67,20.255.9,23.037-5.417,1.79-4.06-2-8.579-7.027-10.5s-10.915-1.861-16.531-1.676c-10.838.389-21.68,1.173-32.518.791-20.959-.744-40.758-9.051-61.167-9.326C356.313,706.239,333.5,708.234,309.621,705.827Z" transform="translate(-229.228 -491.359)" fill="#6c63ff" opacity="0.1"/>
    <path id="Path_1972" data-name="Path 1972" d="M262.267,385.688c-3.352,3.389-3.557,8.585-3.557,8.585s5.193-.3,8.532-3.688S270.8,382,270.8,382,265.606,382.305,262.267,385.688Z" transform="translate(-203.908 -276.299)" fill="#6c63ff" opacity="0.1"/>
    <path id="Path_1973" data-name="Path 1973" d="M308.914,124.979c1.183,4.609,5.525,7.476,5.525,7.476s2.424-4.6,1.24-9.212-5.525-7.472-5.525-7.472S307.718,120.373,308.914,124.979Z" transform="translate(-237.063 -99.319)" fill="#6c63ff" opacity="0.1"/>
    <path id="Path_1974" data-name="Path 1974" d="M887.35,173.741c-3.352,3.389-3.56,8.585-3.56,8.585s5.2-.3,8.535-3.688,3.557-8.589,3.557-8.589S890.689,170.368,887.35,173.741Z" transform="translate(-619.439 -135.402)" fill="#6c63ff" opacity="0.1"/>
    <path id="Path_1975" data-name="Path 1975" d="M589.554,306.294c-.389,4.74,2.772,8.87,2.772,8.87s3.8-3.557,4.187-8.3S593.741,298,593.741,298,589.943,301.55,589.554,306.294Z" transform="translate(-423.82 -220.459)" fill="#6c63ff" opacity="0.1"/>
    <path id="Path_1976" data-name="Path 1976" d="M917.614,504.6c-.389,4.74,2.772,8.87,2.772,8.87s3.8-3.557,4.187-8.3-2.772-8.87-2.772-8.87S918,499.857,917.614,504.6Z" transform="translate(-641.902 -352.281)" fill="#6c63ff" opacity="0.1"/>
    <path id="Path_1977" data-name="Path 1977" d="M291.86,99c-21.7-.654-42.36-6.7-62.092-13.342s-39.276-13.976-60.453-17.489c-13.621-2.259-29.2-2.578-40.171,3.741-10.563,6.078-13.976,16.574-15.81,26.313-1.381,7.325-2.192,15.035,1.589,21.894,2.628,4.764,7.288,8.766,10.513,13.326,11.22,15.873,3.289,35.445-8.867,50.956-5.7,7.271-12.32,14.2-16.722,21.945s-6.437,16.6-2.585,24.5c3.815,7.824,12.91,13.7,22.763,17.835,20.01,8.381,43.581,10.8,66.581,12.159,50.9,3.017,102.066,1.71,153.1.4,18.887-.483,37.855-.972,56.434-3.5,10.319-1.4,20.969-3.627,28.462-9,9.507-6.825,11.864-18.381,5.491-26.94-10.687-14.351-40.228-17.918-47.707-33.322-4.11-8.478.111-17.922,6.088-25.786,12.819-16.869,34.3-31.67,35.434-50.956.778-13.242-9.551-26.5-25.522-32.769-16.738-6.571-39.953-5.743-52.3,5.129C333.366,95.263,311.019,99.571,291.86,99Z" transform="translate(-95.23 -66.69)" fill="#6c63ff" opacity="0.1"/>
    <path id="Path_1978" data-name="Path 1978" d="M522.939,176.665a3.017,3.017,0,0,0-2.058,1.814l-.335-.054-1.25-.2s-6.624-.546-7.861-.463a2.474,2.474,0,0,1-2.011-1.136l-4.925-4.167-.382-.335c.533-.2.865-.305.865-.305s-13.215-16.427-16.065-16.745-7.56-4.154-7.606-4.19l-.05-.261c-.1-.553-.181-1.113-.238-1.676l.7.429h0a5.662,5.662,0,0,1,.02-.583h0a10.608,10.608,0,0,1,1.971-5.632c1.378-1.911,3.416-3.413,4.231-5.615a8.116,8.116,0,0,0,.432-2.947A9.824,9.824,0,0,0,487,129.47a6.4,6.4,0,0,0-4.325-2.984c-.469-.074-.949-.084-1.411-.191-2.752-.647-3.765-4.338-6.44-5.243a5.424,5.424,0,0,0-3.838.379c-1.2.523-2.293,1.274-3.47,1.854a20.468,20.468,0,0,0-3.58,1.827,3.747,3.747,0,0,0-.335.288h0l-.211.2h0a7.588,7.588,0,0,0-1.143,1.492l-.05.084c-.033.057-.064.117-.094.178s-.05.094-.07.141-.054.107-.077.161l-.07.161-.06.154c-.02.057-.044.114-.06.174s-.034.1-.047.148l-.05.178-.03.144a1.184,1.184,0,0,1-.034.184.6.6,0,0,0,0,.134v.62a2.056,2.056,0,0,0,.06.292h0a5.857,5.857,0,0,0,1.281,1.8c-.054.05-.107.1-.161.151a11.686,11.686,0,0,0-3.577,8.418,11.529,11.529,0,0,0,.191,2.082,11.171,11.171,0,0,0-1.954-1.183,17.06,17.06,0,0,0-7.271-1.676,50.069,50.069,0,0,1-9.876-1.589,3.922,3.922,0,0,1,.335.888c-.251-.144-.523-.3-.821-.459a24.077,24.077,0,0,0-7.71-2.581s-1.71.238-1.938-3.352a15.222,15.222,0,0,0-.6-3.309,56.392,56.392,0,0,1-2.031-10.057l-.573-5.27s2.581-13.745,1.029-19.6a4.06,4.06,0,0,0-1.428-4.73c-6.494-4.78-13.044,13.825-13.044,13.825l-2.434,2.363a5.223,5.223,0,0,0-2.065-.788s-1.311,1.341-2.223,5c-.483,1.941-3.781,5.183-6.765,7.794-2.119,1.854-4.164,3.781-6.205,5.716-1.509,1.435-4.871,3.486-12.206,4.646-1.15.181-2.2.352-3.151.51a9.834,9.834,0,0,0,.369-2.662,9.983,9.983,0,0,0-7.831-9.7,2.5,2.5,0,0,0,0-.707,2.93,2.93,0,0,0-.741-1.341c-1.545-1.911-3.222-3.875-5.521-4.78a7.191,7.191,0,0,0-2.98-.479h-.818a7.637,7.637,0,0,0-5.585,2.91c-.825,1.1-1.321,2.41-2.031,3.587a15.956,15.956,0,0,1-5.555,5.186c-1.324.8-2.715,1.492-3.966,2.4a14.874,14.874,0,0,0-5.488,14.831c.5,2.39,1.566,4.744,1.281,7.167a12.582,12.582,0,0,1-2.27,5.166,16.081,16.081,0,0,0-2.534,5.065,5.011,5.011,0,0,0,1.569,5.143,12.375,12.375,0,0,1,1.747,1.167,5.6,5.6,0,0,1,.8,1.26,12.545,12.545,0,0,0,7.8,6.061,5.7,5.7,0,0,0,1.6.174h.161c1.23.077,2.491-.251,2.9-1.341a3.041,3.041,0,0,1,.278-.711.835.835,0,0,1,.486-.335,4.465,4.465,0,0,1,1.136.429,14.456,14.456,0,0,0,5.525,1.579,7.776,7.776,0,0,0,.969.017,4.284,4.284,0,0,0,1.975-.282,4.23,4.23,0,0,0,1.519-1.3c.087-.111.168-.228.251-.335a27.728,27.728,0,0,1-2.474,7.71,13.994,13.994,0,0,0-1.867,6.732,6.761,6.761,0,0,0,.754,3.554s.057-.147.174-.379a28.485,28.485,0,0,0,3.708,5.136c.06,3.188.047,7.181-.352,8-.67,1.4-2.789,11.4,6.323,18.213l2.1,4.6-8.652.613c-.875-.121-12.189-1.643-12.246.573-.057,2.3,1.71,24.73,7.576,23.212,5.468-1.415,3.664-7.955,3.393-8.833l.194-.054-.215-.06,4.375-4.147a1.938,1.938,0,0,0-.335-1.438l.044-.023,10.567.473,2.484,5.4s4.214,6.41.8,11.8-6.949,13.828-7.519,18.944c-.466,4.184-3.564,8.294-4.673,9.648-1.981.67-9.581,3.654-6.547,8.17,3.473,5.169,14.75,15.009,19.31,14.67s2.732-3.654,2.732-3.654l-3.812-3.694s-.67-7.871-.4-10.174a2.371,2.371,0,0,0-1.676-2.424c.359-2.565,1.267-7.425,3.218-10.111C383.226,265.3,392,248.724,392,248.724s2.789-2.474,2.162-9.836c-.251-2.97-.392-5.578-.473-7.64l9.93.446s10.65-1.069,3.416-12.481-22.612-22.595-22.612-22.595l-.137-7.063c.7.174,1.106.261,1.106.261s-.06-.255-.161-.711l.161.037a153.381,153.381,0,0,1-2.906-17.265l.627.288c6.607,7.647,11.063,1.183,11.063,1.183s13.956-19.618,12.588-18.72a1.187,1.187,0,0,1-.918.057l1.006-3.2s4.12-6.3-1.861-9.836c-4.881-2.89-4.754,6.168-4.542,9.591l-.241-.2s-4.67,7.04-7.177,10.962-4.613,1.341-4.613,1.341l-3.168-3.57A12.541,12.541,0,0,0,386,155.3a7.586,7.586,0,0,0-2.142-5.793,10.047,10.047,0,0,1-3.2-6.688,7.079,7.079,0,0,1,.634-2.756l16.463-8.716s3.473.054,8.143-7.141a123.5,123.5,0,0,1,9.97-13.151s-.1-.141-.265-.372c.168-.2.265-.305.265-.305s-.191-.278-.516-.707l2.538-2.927a37.532,37.532,0,0,0-.03,3.973l1.314,4.442.737,24.73s-.8,2.347,4.331,4.723c4.338,2.011,11.21,5.364,13.215,6.353-.074.181-.117.278-.117.278l.6-.04.087.04h0c10.02-.9,9.678,9.105,9.678,9.105s.67,20.349-2.39,27.432-2.622,15.85-2.622,15.85.305-1.5,2.011.459c-.033.171-.07.355-.111.546-.979,4.9-3.017,15.337-3.4,19.568a68.558,68.558,0,0,1-2.223,11.4l-1.006,18.716,6.406.312-.07.67a2.105,2.105,0,0,1-1.086,1.633c-2.192,1.19-7.375,5.364-6.959,18.244l-.221,2.072a26.028,26.028,0,0,1-3.128,9.993c-.148.261-.278.513-.389.754a.616.616,0,0,1,.174-.359s-3.329.691-2.645,9.685,1.71,10.567,3.077,10.677,8.046,1.743,7.687-1.572-.67-10.681-.228-11.8,2.26-4.154.536-4.884h0a25.689,25.689,0,0,0,.721-6.3s3.352-5.283,5.749-7.251,3.688-5.31,4.556-9.611c.06-.282,7.063-4.948,6.034-8.823-.181-.67-.312-1.264-.412-1.8-.044-.238-.08-.463-.114-.67h.124l1.425-8.545v8.321l.845.111-.03.67-.359,7.979a13.134,13.134,0,0,1-1.006,4.519c-1.509,3.57-4.291,11.519-3.533,20.114l-.08,7.663c-.241.047-3.721.868-3.061,9.554.67,8.991,1.706,10.567,3.074,10.677s8.046,1.743,7.69-1.572-.67-10.681-.228-11.8,1.24-4.093-.483-4.824a6.423,6.423,0,0,1,.717-2.893c.751-1.277,3.258-7.348,5.146-12.018a43.014,43.014,0,0,0,3.168-14.861V268.2a13.932,13.932,0,0,1,1.089-5.005,32.269,32.269,0,0,0,1.824-5.5c.047-.225.084-.442.117-.67l1.636.218,5.585-24.171s1.529-13.1.781-19.018c-.03-.245-.064-.469-.1-.687l.335.03s1.14-2.92.8-15.4,2.28-16.427,2.28-16.427c1.415-4.485,2.977-5.987,3.889-6.49h0a1.646,1.646,0,0,1,.781-.255l4.227,4.837h0l.778.892a.292.292,0,0,0,0-.054l.335.392a3.618,3.618,0,0,1-.027-.6c2.256,1.311,7.469,4.375,10.58,6.574,4.056,2.866,5.169,2.531,8.716,2.233a23.835,23.835,0,0,0,7.013-2.3l.178-.084a8.563,8.563,0,0,0,1.649.67s5.726,4.851,6.279-4S522.939,176.665,522.939,176.665ZM374.429,279.77a8.281,8.281,0,0,1-1.676-.707Zm-8.964-95.837.02,1.257-.087.04C365.425,184.788,365.445,184.352,365.465,183.933Zm89.555,112.21v.489A.359.359,0,0,1,455.02,296.143Z" transform="translate(-254.387 -81.249)" fill="url(#linear-gradient)"/>
    <rect id="Rectangle_646" data-name="Rectangle 646" width="9.722" height="10.225" transform="translate(209.188 67.591)" fill="#ff7590"/>
    <path id="Path_1979" data-name="Path 1979" d="M645.1,591.014c-.855,4.274-2.122,7.6-4.469,9.554s-5.642,7.208-5.642,7.208c-.057,6.983-1.9,9.1-1.9,9.1l-1.9.5h-4.693a23.23,23.23,0,0,1-1.006-3.741,4.39,4.39,0,0,1,.738-2.085,26.123,26.123,0,0,0,3.067-9.933l.218-2.062c-.4-12.8,4.693-16.95,6.829-18.133a2.092,2.092,0,0,0,1.063-1.622h0l.379-3.657,12.625.62a10.015,10.015,0,0,0,.211,3.688c.1.533.228,1.126.4,1.787C652.025,586.1,645.152,590.733,645.1,591.014Z" transform="translate(-447.724 -405.363)" fill="#8e5362"/>
    <path id="Path_1980" data-name="Path 1980" d="M710.924,584.73a32.552,32.552,0,0,1-1.787,5.468,14.04,14.04,0,0,0-1.073,4.975q0,.086,0,.171a43.3,43.3,0,0,1-3.108,14.771c-1.854,4.64-4.311,10.677-5.049,11.948-1.227,2.122-.5,5.7-.5,5.7l-7.107-.5.124-11.958c-.741-8.538,1.988-16.427,3.466-19.99a13.1,13.1,0,0,0,1.006-4.489l.335-7.932.1-2.347s12.565-1.787,13.624,1.063A6.032,6.032,0,0,1,710.924,584.73Z" transform="translate(-492.141 -407.916)" fill="#8e5362"/>
    <path id="Path_1981" data-name="Path 1981" d="M674.228,580.458,661,579.807l.379-3.657,12.638.62A9.722,9.722,0,0,0,674.228,580.458Z" transform="translate(-471.336 -405.363)" opacity="0.1"/>
    <path id="Path_1982" data-name="Path 1982" d="M720.7,584.73,707,582.89l.1-2.347s12.565-1.787,13.624,1.063A5.991,5.991,0,0,1,720.7,584.73Z" transform="translate(-501.915 -407.916)" opacity="0.1"/>
    <path id="Path_1983" data-name="Path 1983" d="M685.011,459.905l-5.474,24.026-16.2-2.179v-8.27l-1.4,8.5-19.444-.952,1.006-18.606a69,69,0,0,0,2.179-11.341c.379-4.2,2.37-14.573,3.332-19.444.335-1.606.523-2.618.523-2.618s33.3,6.926,35.481,9.44a5.3,5.3,0,0,1,.768,2.551C686.51,446.885,685.011,459.905,685.011,459.905Z" transform="translate(-459.031 -307.556)" fill="#bdd2e8"/>
    <path id="Path_1984" data-name="Path 1984" d="M653.33,514.671s13.108-6.872,16.3-5.421Z" transform="translate(-466.237 -360.757)" opacity="0.1"/>
    <path id="Path_1985" data-name="Path 1985" d="M674.66,458.82s10.9,8.27,11.23,10.5Z" transform="translate(-480.417 -327.366)" opacity="0.1"/>
    <path id="Path_1986" data-name="Path 1986" d="M665.83,543.778s7.878-.335,10.392,1.676Z" transform="translate(-474.547 -383.829)" opacity="0.1"/>
    <path id="Path_1987" data-name="Path 1987" d="M705.833,517.44s3.745,12.256,2.122,15.609-3.3-.784-3.3-.784Z" transform="translate(-500.36 -366.335)" opacity="0.1"/>
    <path id="Path_1988" data-name="Path 1988" d="M686.326,708s-3.688.56-3.017,9.5,1.676,10.506,3.017,10.617,7.878,1.733,7.543-1.566-.67-10.614-.225-11.733,1.217-4.066-.473-4.794l-.366,1.723s-3.577-3.3-5.7-.9a9.283,9.283,0,0,0-.439-1.72C686.456,708.607,685.994,708.335,686.326,708Z" transform="translate(-486.112 -493.012)" fill="#494457"/>
    <path id="Path_1989" data-name="Path 1989" d="M836.331,351.823s-.845.473-2.085,1.063a23.225,23.225,0,0,1-6.879,2.29c-3.48.3-4.569.63-8.549-2.219-3.054-2.186-8.166-5.233-10.392-6.534l-.969-.573-.1-.057v-.04l1.847-5.075,6.537-3.476,1.623,1.391,4.831,4.14a2.411,2.411,0,0,0,1.971,1.13c1.217-.084,7.71.459,7.71.459l1.227.2,2.585.429Z" transform="translate(-568.631 -246.518)" fill="#8e5362"/>
    <path id="Path_1990" data-name="Path 1990" d="M884.784,366.361s-.845.473-2.085,1.063c-1.311-.67-2.94-1.928-2.313-4,.567-1.861.721-3.312,1.187-4.358l2.585.429Z" transform="translate(-617.083 -261.056)" opacity="0.1"/>
    <path id="Path_1991" data-name="Path 1991" d="M884.569,353.388s7.291-2.1,6.748,6.7-6.162,3.983-6.162,3.983-4.777-1.257-3.771-4.569S882.1,354.186,884.569,353.388Z" transform="translate(-617.747 -257.134)" fill="#8e5362"/>
    <path id="Path_1992" data-name="Path 1992" d="M611.071,157.5l-7.6,3.191-.117.05-.084-.04-.473-.238c-1.964-.979-8.716-4.328-12.964-6.316-5.029-2.347-4.247-4.693-4.247-4.693l-.724-24.583-1.287-4.415s-.908-14.965,6.37-18.716,2.571,21.676,2.571,21.676l.563,5.283a56.585,56.585,0,0,0,1.995,9.98,15.5,15.5,0,0,1,.59,3.289c.225,3.574,1.9,3.336,1.9,3.336a23.336,23.336,0,0,1,7.556,2.568,18.892,18.892,0,0,1,2.5,1.582Z" transform="translate(-419.845 -89.742)" fill="#8e5362"/>
    <path id="Path_1993" data-name="Path 1993" d="M733.474,270.136l-6.484-.67a24.913,24.913,0,0,0,2.752-5.609,9.521,9.521,0,0,0,.285-1.157,3.858,3.858,0,0,0-.355-2.846c-1.9-2.793,11.287-6.7,11.287-6.7a32.207,32.207,0,0,0-.144,4.653,23.548,23.548,0,0,0,.335,3.222c.4,2.169,1.193,4.211,2.709,5.256C748,269.131,733.474,270.136,733.474,270.136Z" transform="translate(-515.204 -190.644)" fill="#8e5362"/>
    <path id="Path_1994" data-name="Path 1994" d="M733.474,285.752l-6.484-.67a24.912,24.912,0,0,0,2.752-5.608,2.341,2.341,0,0,0,2.055,1.25s6.544.969,9.36-4.083c.4,2.169,1.193,4.211,2.709,5.257C748,284.746,733.474,285.752,733.474,285.752Z" transform="translate(-515.204 -206.259)" opacity="0.1"/>
    <path id="Path_1995" data-name="Path 1995" d="M808.473,346.422a3.6,3.6,0,0,0,.027.6l-1.006-1.17-.084-.1,1.847-5.075,6.537-3.476,1.623,1.391C815.094,339.48,808.577,342.3,808.473,346.422Z" transform="translate(-568.664 -246.518)" opacity="0.1"/>
    <path id="Path_1996" data-name="Path 1996" d="M649.034,249.708l-7.6,3.191h-.2l-.587.04s.044-.1.114-.278c.634-1.539,3.574-9.051,2.3-12.591a18.9,18.9,0,0,1,2.5,1.582Z" transform="translate(-457.808 -181.949)" opacity="0.1"/>
    <path id="Path_1997" data-name="Path 1997" d="M698.7,440.995c-2.957-.265-32.538-3-35.3-7.355a15.309,15.309,0,0,0-1.475-2.011c.335-1.606.523-2.618.523-2.618s33.3,6.926,35.481,9.44A5.231,5.231,0,0,1,698.7,440.995Z" transform="translate(-471.954 -307.549)" opacity="0.1"/>
    <path id="Path_1998" data-name="Path 1998" d="M675.738,255.917s6.614.979,9.41-4.16c0,0,4.67,3.835,7.462,4.164s15.756,16.648,15.756,16.648-10.392,3.352-9.722,8.716l-4.918-5.7s-2.457-.114-4.579,6.7c0,0-2.571,3.909-2.236,16.313s-.781,15.31-.781,15.31S653.5,311.12,650.6,306.538s-3.352-2.347-3.352-2.347-.449-8.716,2.568-15.756,2.347-27.265,2.347-27.265.335-9.946-9.5-9.051c0,0,4.133-9.611,2.236-13.3a48.4,48.4,0,0,0,9.685,1.582,16.568,16.568,0,0,1,7.134,1.676,7.913,7.913,0,0,1,2.96,2.233,4.347,4.347,0,0,0,5.029,1.455,50.751,50.751,0,0,0,2.917,7.151c.131.245.262.486.4.717a11.008,11.008,0,0,0,.6.945A2.4,2.4,0,0,0,675.738,255.917Z" transform="translate(-459.144 -181.118)" fill="#ff7590"/>
    <path id="Path_1999" data-name="Path 1999" d="M745.783,257.773A11.477,11.477,0,0,1,744.6,259.2a11.7,11.7,0,0,1-8.381,3.533,12.033,12.033,0,0,1-1.21-.06,3.859,3.859,0,0,0-.355-2.846c-1.9-2.793,11.287-6.7,11.287-6.7A32.2,32.2,0,0,0,745.783,257.773Z" transform="translate(-520.172 -190.624)" opacity="0.1"/>
    <path id="Path_2000" data-name="Path 2000" d="M728.127,222.553a11.69,11.69,0,1,1-3.424-8.31A11.733,11.733,0,0,1,728.127,222.553Z" transform="translate(-500.36 -162.504)" fill="#8e5362"/>
    <path id="Path_2001" data-name="Path 2001" d="M792,325.793l.241,7.851s3.5-2.823,3.614-5.5S792,325.793,792,325.793Z" transform="translate(-558.42 -238.926)" opacity="0.1"/>
    <path id="Path_2002" data-name="Path 2002" d="M707.66,349.24s9.219,12.655,14.583,13.939S709.671,353.343,707.66,349.24Z" transform="translate(-502.354 -254.521)" opacity="0.1"/>
    <path id="Path_2003" data-name="Path 2003" d="M736.83,353.17s5.139,5.806,8.827,6.53Z" transform="translate(-521.745 -257.134)" opacity="0.1"/>
    <path id="Path_2004" data-name="Path 2004" d="M682.83,396.82s9.387,9.219,14.75,9.779Z" transform="translate(-485.848 -286.151)" opacity="0.1"/>
    <path id="Path_2005" data-name="Path 2005" d="M735.04,222.55a11.69,11.69,0,0,1-3.352,8.2l-1.287-.8a3.561,3.561,0,0,1-1.254-1.09,4.333,4.333,0,0,1-.268-2.43,5.718,5.718,0,0,0-1.783-4.747c-2.223-1.78-5.786-.795-8.046-2.541a7.931,7.931,0,0,1-1.425-1.586l-2.119-2.839c-.127-.168-.282-.335-.446-.533a11.733,11.733,0,0,1,19.96,8.381Z" transform="translate(-507.273 -162.501)" opacity="0.1"/>
    <path id="Path_2006" data-name="Path 2006" d="M713.932,192.6a21.055,21.055,0,0,1,3.51-1.814c1.18-.59,2.223-1.341,3.4-1.844a5.359,5.359,0,0,1,3.768-.379c2.625.9,3.617,4.569,6.316,5.213.456.107.925.117,1.385.188a6.3,6.3,0,0,1,4.241,2.967,9.877,9.877,0,0,1,1.341,5.1,8.17,8.17,0,0,1-.426,2.927c-.8,2.189-2.8,3.688-4.15,5.582a10.614,10.614,0,0,0-1.941,6.2l-3.272-2.035a3.526,3.526,0,0,1-1.254-1.09,4.331,4.331,0,0,1-.268-2.43,5.726,5.726,0,0,0-1.78-4.747c-2.226-1.78-5.789-.794-8.046-2.541a7.931,7.931,0,0,1-1.425-1.586l-2.119-2.839a8.089,8.089,0,0,1-1.542-2.135C711.227,195.718,712.752,193.509,713.932,192.6Z" transform="translate(-504.969 -147.577)" fill="#362133"/>
    <path id="Path_2007" data-name="Path 2007" d="M728.459,223.308a3.527,3.527,0,0,1-1.254-1.09,4.332,4.332,0,0,1-.268-2.43,5.718,5.718,0,0,0-1.783-4.747c-2.223-1.78-5.786-.794-8.046-2.541a7.929,7.929,0,0,1-1.425-1.586l-2.119-2.839a8.017,8.017,0,0,1-1.542-2.135c-.365-1.294.56-2.98,1.549-4.06-1.11,1.026-2.327,2.974-1.914,4.425a8.406,8.406,0,0,0,1.542,2.135l2.119,2.839a7.932,7.932,0,0,0,1.425,1.586c2.25,1.747,5.813.761,8.046,2.541a5.726,5.726,0,0,1,1.78,4.747,4.332,4.332,0,0,0,.268,2.43,3.526,3.526,0,0,0,1.254,1.09l3.272,2.035a5.548,5.548,0,0,1,.02-.58Z" transform="translate(-504.956 -156.562)" opacity="0.1"/>
    <path id="Path_2008" data-name="Path 2008" d="M621.745,682.94s-3.265.671-2.595,9.625,1.676,10.506,3.017,10.617,7.878,1.733,7.543-1.566-.67-10.614-.225-11.733,2.216-4.127.526-4.854l-1.364,1.783s-3.577-3.3-5.7-.9C622.948,685.917,620.964,683.721,621.745,682.94Z" transform="translate(-443.456 -476.353)" fill="#494457"/>
    <path id="Path_2009" data-name="Path 2009" d="M633.23,699.5c.707.335,1.368.744,2.072,1.079a4.649,4.649,0,0,0,2.249.53,1.569,1.569,0,0,0,.919-.318" transform="translate(-452.876 -487.361)" opacity="0.1"/>
    <path id="Path_2010" data-name="Path 2010" d="M697.33,725.62a11.369,11.369,0,0,0,1.217,1.2,4.247,4.247,0,0,0,2.347.486.952.952,0,0,0,.4-.05.979.979,0,0,0,.359-.335l.439-.567" transform="translate(-495.487 -504.725)" opacity="0.1"/>
    <path id="Path_2011" data-name="Path 2011" d="M532.655,259.666s-1.509-14.3,4.358-10.781,1.827,9.775,1.827,9.775l-1.378,4.415Z" transform="translate(-385.901 -187.438)" fill="#ffc1c7"/>
    <path id="Path_2012" data-name="Path 2012" d="M561,110.49l3.352-3.292s6.426-18.495,12.8-13.745-8.072,16.762-8.072,16.762l-3.828,4.469Z" transform="translate(-404.86 -83.965)" fill="#ffc1c7"/>
    <path id="Path_2013" data-name="Path 2013" d="M414.328,360.45l-.168,3.8s3.074,5.364,4.358,5.756,1.173-11.344,1.173-11.344Z" transform="translate(-307.246 -260.783)" fill="#ff5374"/>
    <path id="Path_2014" data-name="Path 2014" d="M414.328,360.45l-.168,3.8s3.074,5.364,4.358,5.756,1.173-11.344,1.173-11.344Z" transform="translate(-307.246 -260.783)" opacity="0.1"/>
    <path id="Path_2015" data-name="Path 2015" d="M334.76,284.87l.228,14h15.585l-1.173-8.156Z" transform="translate(-222.539 -189.373)" fill="#ffc1c7"/>
    <path id="Path_2016" data-name="Path 2016" d="M437.4,455.82l.727,4.469,9.108,20.228s4.133,6.369.781,11.733-6.815,13.745-7.375,18.827-4.972,10.057-4.972,10.057l9.611,4.08s.67-7.989,3.352-11.733,11.284-20.225,11.284-20.225,2.739-2.461,2.125-9.779-.56-12.461-.56-12.461l-.949-11.676Z" transform="translate(-321.545 -325.372)" fill="#575988"/>
    <path id="Path_2017" data-name="Path 2017" d="M437.4,455.82l.727,4.469,9.108,20.228s4.133,6.369.781,11.733-6.815,13.745-7.375,18.827-4.972,10.057-4.972,10.057l9.611,4.08s.67-7.989,3.352-11.733,11.284-20.225,11.284-20.225,2.739-2.461,2.125-9.779-.56-12.461-.56-12.461l-.949-11.676Z" transform="translate(-321.545 -325.372)" opacity="0.1"/>
    <path id="Path_2018" data-name="Path 2018" d="M423.159,648.82s-10.282,3.128-6.872,8.27,14.472,14.918,18.941,14.583,2.682-3.634,2.682-3.634l-3.745-3.688s-.67-7.821-.389-10.111-3.185-3.352-3.634-2.011S423.159,648.82,423.159,648.82Z" transform="translate(-308.199 -453.671)" fill="#c4747b"/>
    <path id="Path_2019" data-name="Path 2019" d="M433.339,375.58l-8.15.9a2.923,2.923,0,0,0-2.6,2.98c.087,3.258.144,8.441-.312,9.387-.67,1.4-2.736,11.344,6.2,18.1l12.125,3.855-19.444,1.4.617,10.785,3.017-1.676,36.876,1.676s10.449-1.063,3.352-12.4-22.179-22.461-22.179-22.461l-.168-8.83-1.12-2.568Z" transform="translate(-311.899 -272.031)" fill="#575988"/>
    <path id="Path_2020" data-name="Path 2020" d="M487.66,478.415a10.473,10.473,0,0,1,8.381,0Z" transform="translate(-356.106 -339.811)" opacity="0.1"/>
    <path id="Path_2021" data-name="Path 2021" d="M400.066,483.408s-12.012-1.73-12.068.56,1.676,24.583,7.432,23.074,3.3-8.884,3.3-8.884l4.3-4.133s.446-2.29-2.4-2.068Z" transform="translate(-289.853 -343.295)" fill="#c4747b"/>
    <path id="Path_2022" data-name="Path 2022" d="M478.677,284.635l4.747,5.421s2.068,2.571,4.526-1.341,7.04-10.9,7.04-10.9,5.086,4.469,6.426,3.577-12.347,18.609-12.347,18.609-4.358,6.423-10.842-1.173l-1.9-.9Z" transform="translate(-348.574 -207.044)" fill="#ff5374"/>
    <path id="Path_2023" data-name="Path 2023" d="M478.677,284.635l4.747,5.421s2.068,2.571,4.526-1.341,7.04-10.9,7.04-10.9,5.086,4.469,6.426,3.577-12.347,18.609-12.347,18.609-4.358,6.423-10.842-1.173l-1.9-.9Z" transform="translate(-348.574 -207.044)" opacity="0.1"/>
    <circle id="Ellipse_42" data-name="Ellipse 42" cx="9.889" cy="9.889" r="9.889" transform="translate(105.691 35.784)" fill="#ffc1c7"/>
    <path id="Path_2024" data-name="Path 2024" d="M421.331,168.185s-8.5,4.023-7.493,11.063a155.663,155.663,0,0,1,1.173,15.924s3.859,5.7-1.257,16.594c0,0-3.269,5.531-1.09,9.554,0,0,2.417-6.369,8.666-1.676s16.309,6.872,16.309,6.872-5.2-22.8-2.011-25.981c0,0,5.531-8.213.5-13.409s-2.514-10.057-2.514-10.057l16.148-8.659s3.406.054,7.989-7.1a123.143,123.143,0,0,1,9.779-13.074s-3.466-5.2-6.7-5.588c0,0-1.287,1.341-2.179,4.975-.476,1.928-3.711,5.149-6.638,7.747-2.078,1.844-4.083,3.758-6.085,5.7-1.482,1.425-4.781,3.463-11.975,4.616C422.112,167.575,421.331,168.185,421.331,168.185Z" transform="translate(-305.754 -117.188)" opacity="0.1"/>
    <path id="Path_2025" data-name="Path 2025" d="M421.331,166.185s-8.5,4.023-7.493,11.063a155.664,155.664,0,0,1,1.173,15.924s3.859,5.7-1.257,16.594c0,0-3.269,5.531-1.09,9.554,0,0,2.417-6.369,8.666-1.676s16.309,6.872,16.309,6.872-5.2-22.8-2.011-25.981c0,0,5.531-8.213.5-13.409s-2.514-10.057-2.514-10.057l16.148-8.659s3.406.054,7.989-7.1a123.135,123.135,0,0,1,9.779-13.074s-3.466-5.2-6.7-5.588c0,0-1.287,1.341-2.179,4.975-.476,1.928-3.711,5.149-6.638,7.747-2.078,1.844-4.083,3.758-6.085,5.7-1.482,1.425-4.781,3.463-11.975,4.616C422.112,165.575,421.331,166.185,421.331,166.185Z" transform="translate(-305.754 -115.858)" fill="#ff5374"/>
    <path id="Path_2026" data-name="Path 2026" d="M461.83,342.49s6.591,9.722,6.758,11.4C468.592,353.888,467.586,343.439,461.83,342.49Z" transform="translate(-338.935 -250.034)" opacity="0.1"/>
    <path id="Path_2027" data-name="Path 2027" d="M436,244.82s4.6,5.531,11.237.9A14.244,14.244,0,0,1,436,244.82Z" transform="translate(-321.764 -185.107)" opacity="0.1"/>
    <path id="Path_2028" data-name="Path 2028" d="M377.223,159.064a2.967,2.967,0,0,0-.724-1.341c-1.515-1.9-3.161-3.852-5.417-4.754a7.489,7.489,0,0,0-8.545,2.434c-.811,1.093-1.294,2.394-1.995,3.564a15.808,15.808,0,0,1-5.448,5.156c-1.3.795-2.665,1.482-3.889,2.384a14.893,14.893,0,0,0-5.384,14.75c.493,2.373,1.535,4.713,1.254,7.124a12.615,12.615,0,0,1-2.223,5.136,16.239,16.239,0,0,0-2.487,5.029,5.018,5.018,0,0,0,1.539,5.109,12.791,12.791,0,0,1,1.713,1.16,5.569,5.569,0,0,1,.788,1.254,12.327,12.327,0,0,0,7.653,6.034c1.441.379,3.376.241,3.9-1.153a3.018,3.018,0,0,1,.272-.707c.476-.67,1.525-.295,2.263.091a14.009,14.009,0,0,0,5.407,1.552,4.509,4.509,0,0,0,2.216-.265,4.094,4.094,0,0,0,1.492-1.291c1.763-2.3,2.27-5.3,2.571-8.176a19.1,19.1,0,0,0-.023-5.632c-.57-2.97-2.377-5.746-2.109-8.756.285-3.218,2.9-5.85,3.3-9.051a6.9,6.9,0,0,0-1.177-4.757,6.8,6.8,0,0,1-.9-1.4,1.391,1.391,0,0,1,.268-1.539,2.347,2.347,0,0,1,.7-.335,5.8,5.8,0,0,0,3.46-5.2,11.544,11.544,0,0,1,.231-2.427C376.3,161.793,377.414,160.412,377.223,159.064Z" transform="translate(-259.424 -123.733)" opacity="0.1"/>
    <path id="Path_2029" data-name="Path 2029" d="M375.223,159.064a2.966,2.966,0,0,0-.724-1.341c-1.515-1.9-3.161-3.852-5.417-4.754a7.489,7.489,0,0,0-8.545,2.434c-.811,1.093-1.294,2.394-1.995,3.564a15.808,15.808,0,0,1-5.448,5.156c-1.3.795-2.665,1.482-3.889,2.384a14.893,14.893,0,0,0-5.384,14.75c.493,2.373,1.535,4.713,1.254,7.124a12.614,12.614,0,0,1-2.223,5.136,16.239,16.239,0,0,0-2.487,5.029,5.018,5.018,0,0,0,1.539,5.109,12.789,12.789,0,0,1,1.713,1.16,5.568,5.568,0,0,1,.788,1.254,12.327,12.327,0,0,0,7.653,6.034c1.441.379,3.376.241,3.9-1.153a3.016,3.016,0,0,1,.272-.707c.476-.67,1.525-.295,2.263.091a14.01,14.01,0,0,0,5.407,1.552,4.509,4.509,0,0,0,2.216-.265,4.093,4.093,0,0,0,1.492-1.291c1.763-2.3,2.27-5.3,2.571-8.176a19.1,19.1,0,0,0-.023-5.632c-.57-2.97-2.377-5.746-2.109-8.756.285-3.218,2.9-5.85,3.3-9.051a6.9,6.9,0,0,0-1.177-4.757,6.8,6.8,0,0,1-.9-1.4,1.391,1.391,0,0,1,.268-1.539,2.347,2.347,0,0,1,.7-.335,5.8,5.8,0,0,0,3.46-5.2,11.544,11.544,0,0,1,.231-2.427C374.3,161.793,375.414,160.412,375.223,159.064Z" transform="translate(-258.095 -123.733)" fill="#bb7684"/>
    <g id="Group_278" data-name="Group 278" transform="translate(94.829 28.752)" opacity="0.1">
      <path id="Path_2030" data-name="Path 2030" d="M380.42,323.962a3.162,3.162,0,0,0-.275.707,2.243,2.243,0,0,1-2.035,1.307c1.264.127,2.615-.178,3.041-1.307a3.161,3.161,0,0,1,.275-.707.838.838,0,0,1,.335-.285A1.151,1.151,0,0,0,380.42,323.962Z" transform="translate(-378.11 -266.222)"/>
      <path id="Path_2031" data-name="Path 2031" d="M422.464,159.039a2.893,2.893,0,0,0-.724-1.341c-1.515-1.9-3.161-3.852-5.417-4.754a7.04,7.04,0,0,0-3.084-.463,6.846,6.846,0,0,1,2.078.463c2.256.9,3.9,2.853,5.417,4.754a2.893,2.893,0,0,1,.724,1.341c.191,1.341-.922,2.732-1.291,3.973a10.514,10.514,0,0,0-.231,2.427,5.817,5.817,0,0,1-3.463,5.2,2.347,2.347,0,0,0-.7.335,1.391,1.391,0,0,0-.265,1.542,6.784,6.784,0,0,0,.892,1.4,6.9,6.9,0,0,1,1.18,4.754c-.4,3.208-3.017,5.836-3.3,9.051-.268,3.017,1.542,5.786,2.109,8.753a19.215,19.215,0,0,1,.023,5.632c-.3,2.88-.8,5.883-2.571,8.176a4.08,4.08,0,0,1-1.488,1.291,3.332,3.332,0,0,1-1.1.272,4.335,4.335,0,0,0,2.1-.272,4.079,4.079,0,0,0,1.5-1.267c1.767-2.293,2.27-5.3,2.571-8.176a19.1,19.1,0,0,0-.023-5.632c-.567-2.967-2.377-5.746-2.109-8.753.288-3.222,2.9-5.85,3.3-9.051a6.9,6.9,0,0,0-1.18-4.754,6.788,6.788,0,0,1-.892-1.4,1.391,1.391,0,0,1,.265-1.542,2.347,2.347,0,0,1,.7-.335,5.809,5.809,0,0,0,3.463-5.2,11.3,11.3,0,0,1,.231-2.427C421.542,161.771,422.655,160.39,422.464,159.039Z" transform="translate(-400.147 -152.462)"/>
    </g>
    <path id="Path_2032" data-name="Path 2032" d="M406.82,525a4.529,4.529,0,0,0,4.636,1.281" transform="translate(-302.366 -371.36)" opacity="0.1"/>
    <path id="Path_2033" data-name="Path 2033" d="M466.313,696a2.846,2.846,0,0,1-2.313.583" transform="translate(-340.378 -485.035)" opacity="0.1"/>
    <ellipse id="Ellipse_43" data-name="Ellipse 43" cx="9.028" cy="1.525" rx="9.028" ry="1.525" transform="translate(26.219 218.32)" fill="#6c63ff" opacity="0.1"/>
    <ellipse id="Ellipse_44" data-name="Ellipse 44" cx="9.028" cy="1.525" rx="9.028" ry="1.525" transform="translate(273.382 248.693)" fill="#6c63ff"/>
    <ellipse id="Ellipse_45" data-name="Ellipse 45" cx="9.028" cy="1.525" rx="9.028" ry="1.525" transform="translate(273.382 219.333)" fill="#6c63ff" opacity="0.1"/>
    <ellipse id="Ellipse_46" data-name="Ellipse 46" cx="9.028" cy="1.525" rx="9.028" ry="1.525" transform="translate(51.818 232.484)" fill="#6c63ff" opacity="0.1"/>
    <ellipse id="Ellipse_47" data-name="Ellipse 47" cx="13.48" cy="2.28" rx="13.48" ry="2.28" transform="translate(297.483 231.73)" fill="#6c63ff"/>
    <ellipse id="Ellipse_48" data-name="Ellipse 48" cx="30.426" cy="5.143" rx="30.426" ry="5.143" transform="translate(86.723 246.712)" fill="#6c63ff" opacity="0.1"/>
    <path id="Path_2034" data-name="Path 2034" d="M1014.731,741.3a3.932,3.932,0,0,0,1.287-1.941,1.728,1.728,0,0,0-.9-1.974,2.517,2.517,0,0,0-2.374.835,3.17,3.17,0,0,1-2.31,1.113,3.51,3.51,0,0,0,1.086-3.289,1.379,1.379,0,0,0-.3-.671c-.459-.489-1.287-.278-1.837.107-1.743,1.227-2.229,3.594-2.239,5.726a10.768,10.768,0,0,1-.03-2.347,2.424,2.424,0,0,0-.885-2.089,2.706,2.706,0,0,0-1.341-.335,2.8,2.8,0,0,0-2.192.624,2.156,2.156,0,0,0,.087,2.682,8.764,8.764,0,0,0,2.266,1.817,5.028,5.028,0,0,1,1.623,1.545,1.7,1.7,0,0,1,.121.275h4.911A13.652,13.652,0,0,0,1014.731,741.3Z" transform="translate(-698.197 -511.02)" fill="#6c63ff"/>
    <path id="Path_2035" data-name="Path 2035" d="M929.565,789.892a3.925,3.925,0,0,0,1.284-1.941,1.733,1.733,0,0,0-.9-1.975,2.517,2.517,0,0,0-2.374.835,3.17,3.17,0,0,1-2.31,1.113,3.51,3.51,0,0,0,1.086-3.289,1.341,1.341,0,0,0-.3-.67c-.456-.49-1.287-.278-1.834.107-1.743,1.227-2.229,3.594-2.239,5.726a10.554,10.554,0,0,1-.034-2.347,2.424,2.424,0,0,0-.885-2.089,2.682,2.682,0,0,0-1.341-.318,2.8,2.8,0,0,0-2.192.624,2.156,2.156,0,0,0,.087,2.682,8.725,8.725,0,0,0,2.27,1.817,5.029,5.029,0,0,1,1.619,1.545,1.7,1.7,0,0,1,.121.275h4.911A13.749,13.749,0,0,0,929.565,789.892Z" transform="translate(-641.579 -543.321)" fill="#6c63ff"/>
    <path id="Path_2036" data-name="Path 2036" d="M303.564,610.75s-4.71-15.994.885-27.764a25.263,25.263,0,0,0,2.052-15.857,42.426,42.426,0,0,0-2.243-7.439" transform="translate(-232.493 -394.421)" fill="none" stroke="#535461" stroke-width="2"/>
    <path id="Path_2037" data-name="Path 2037" d="M305.584,530.244c0,1.961-3.55,7.643-3.55,7.643s-3.547-5.682-3.547-7.643a3.55,3.55,0,1,1,7.1,0Z" transform="translate(-230.349 -372.414)" fill="#6c63ff"/>
    <path id="Path_2038" data-name="Path 2038" d="M323.014,559.186c-1.066,1.643-7.134,4.485-7.134,4.485s.111-6.7,1.177-8.344a3.55,3.55,0,0,1,5.957,3.859Z" transform="translate(-241.913 -390.498)" fill="#6c63ff"/>
    <path id="Path_2039" data-name="Path 2039" d="M319.694,612c-1.75.885-8.424.275-8.424.275s3.476-5.729,5.226-6.611a3.55,3.55,0,0,1,3.2,6.336Z" transform="translate(-238.848 -424.757)" fill="#6c63ff"/>
    <path id="Path_2040" data-name="Path 2040" d="M310.017,654.462c-1.576,1.163-8.257,1.676-8.257,1.676s2.461-6.235,4.023-7.4a3.55,3.55,0,0,1,4.221,5.7Z" transform="translate(-232.526 -453.218)" fill="#6c63ff"/>
    <path id="Path_2041" data-name="Path 2041" d="M291.628,572.446c1.408,1.364,7.955,2.779,7.955,2.779s-1.6-6.507-3.017-7.871a3.55,3.55,0,0,0-4.945,5.092Z" transform="translate(-225.114 -398.89)" fill="#6c63ff"/>
    <path id="Path_2042" data-name="Path 2042" d="M278.7,620.054c1.75.882,8.421.272,8.421.272s-3.476-5.729-5.226-6.611a3.55,3.55,0,1,0-3.2,6.34Z" transform="translate(-215.896 -430.081)" fill="#6c63ff"/>
    <path id="Path_2043" data-name="Path 2043" d="M275.769,669.919c1.576,1.167,8.257,1.676,8.257,1.676s-2.461-6.235-4.023-7.4a3.55,3.55,0,0,0-4.221,5.7Z" transform="translate(-214.394 -463.496)" fill="#6c63ff"/>
    <path id="Path_2044" data-name="Path 2044" d="M274,697.909s5.736-1.14,7.268-2.658,8.411-4.174,9.175-2.276,10.325,8.351,3.825,9.49-15.3,1.519-17.208.761S274,697.909,274,697.909Z" transform="translate(-214.073 -482.586)" fill="#a8a8a8"/>
    <path id="Path_2045" data-name="Path 2045" d="M294.278,712.742c-6.5,1.14-15.3,1.519-17.208.758-1.458-.577-2.471-3.352-2.87-4.65l-.2.05s1.147,4.556,3.061,5.317,10.707.379,17.208-.761c1.877-.335,2.414-1.1,2.213-2.078C296.33,712,295.676,712.5,294.278,712.742Z" transform="translate(-214.073 -493.577)" opacity="0.2"/>
    <path id="Path_2046" data-name="Path 2046" d="M933.116,659.91s1.844,2.41-.848,6.034-4.911,6.7-4.023,8.974c0,0,4.063-6.755,7.375-6.849S936.747,663.963,933.116,659.91Z" transform="translate(-648.859 -461.043)" fill="#6c63ff"/>
    <path id="Path_2047" data-name="Path 2047" d="M933.331,659.91a3.017,3.017,0,0,1,.379.758c3.225,3.788,4.941,7.325,1.84,7.412-2.886.084-6.349,5.247-7.181,6.551a3.075,3.075,0,0,0,.1.3s4.063-6.755,7.375-6.849S936.962,663.963,933.331,659.91Z" transform="translate(-649.074 -461.043)" opacity="0.1"/>
    <path id="Path_2048" data-name="Path 2048" d="M952.546,667.981c0,.848-.1,1.535-.215,1.535s-.211-.67-.211-1.535.117-.449.235-.449S952.546,667.133,952.546,667.981Z" transform="translate(-664.862 -466.044)" fill="#ffd037"/>
    <path id="Path_2049" data-name="Path 2049" d="M954.011,670.941c-.744.406-1.395.65-1.448.546s.5-.513,1.244-.919.453-.111.51,0S954.755,670.535,954.011,670.941Z" transform="translate(-665.154 -467.991)" fill="#ffd037"/>
    <path id="Path_2050" data-name="Path 2050" d="M905.953,659.91s-1.844,2.41.848,6.034,4.911,6.7,4.023,8.974c0,0-4.06-6.755-7.375-6.849S902.316,663.963,905.953,659.91Z" transform="translate(-631.421 -461.043)" fill="#6c63ff"/>
    <path id="Path_2051" data-name="Path 2051" d="M905.939,659.91a3.017,3.017,0,0,0-.379.758c-3.225,3.788-4.941,7.325-1.841,7.412,2.886.084,6.349,5.247,7.181,6.551a2.394,2.394,0,0,1-.1.3s-4.06-6.755-7.375-6.849S902.3,663.963,905.939,659.91Z" transform="translate(-631.406 -461.043)" opacity="0.1"/>
    <path id="Path_2052" data-name="Path 2052" d="M903.94,667.981c0,.848.1,1.535.215,1.535s.211-.67.211-1.535-.117-.449-.235-.449S903.94,667.133,903.94,667.981Z" transform="translate(-632.834 -466.044)" fill="#ffd037"/>
    <path id="Path_2053" data-name="Path 2053" d="M899.54,670.941c.744.406,1.391.65,1.448.546s-.5-.513-1.244-.919-.453-.111-.51,0S898.8,670.535,899.54,670.941Z" transform="translate(-629.608 -467.991)" fill="#ffd037"/>
    <path id="Path_2054" data-name="Path 2054" d="M905.69,698.244s5.149-.161,6.7-1.264,7.922-2.424,8.307-.671,7.737,8.813,1.924,8.86-13.507-.905-15.055-1.847S905.69,698.244,905.69,698.244Z" transform="translate(-633.997 -484.674)" fill="#a8a8a8"/>
    <path id="Path_2055" data-name="Path 2055" d="M922.727,710.083c-5.813.047-13.507-.905-15.055-1.847-1.18-.717-1.653-3.3-1.807-4.485h-.174s.335,4.154,1.877,5.1,9.242,1.894,15.055,1.847c1.676,0,2.256-.61,2.226-1.492C924.614,709.741,923.974,710.073,922.727,710.083Z" transform="translate(-633.997 -490.187)" opacity="0.2"/>
  </g>
</svg>
