<svg xmlns="http://www.w3.org/2000/svg" xmlns:xlink="http://www.w3.org/1999/xlink" width="136" height="112" viewBox="0 0 136 112"><defs><style>.a{fill:#fff;}.b{opacity:0.5;clip-path:url(#a);}.c{fill:#f2f2f2;}.d{fill:#6c63ff;}.e{fill:#3f3d56;}.f{fill:#ffb8b8;}.g{fill:#2f2e41;}.h{opacity:0.2;}</style><clipPath id="a"><rect class="a" width="136" height="112" transform="translate(952 1000)"/></clipPath></defs><g class="b" transform="translate(-952 -1000)"><g transform="translate(952 1019.183)"><path class="c" d="M111.229,81.207v.16a5.538,5.538,0,0,1-5.538,5.537H43.177a5.537,5.537,0,0,1-5.537-5.536v-.16Z" transform="translate(-37.429 -42.252)"/><path class="d" d="M50.715,54.85a7.922,7.922,0,0,1-9.281-5.584l.315-.056A7.9,7.9,0,0,1,50.715,54.85Z" transform="translate(-37.429 -42.252)"/><path class="c" d="M159.915,114.563a2.093,2.093,0,1,1,2.87-2.39l-1.219-8.719c-.28-2-.5-4.245.707-5.867a4.566,4.566,0,0,1,5.129-1.351,6.282,6.282,0,0,1,3.652,4.1,10.244,10.244,0,0,1-.061,5.611,28.83,28.83,0,0,1-2.152,5.253c-.858,1.743-1.9,3.631-3.731,4.272C163.36,116.081,159.915,114.563,159.915,114.563Z" transform="translate(-37.429 -42.252)"/><path class="a" d="M165.641,96.071a23.768,23.768,0,0,1,1.128,7.739,24.424,24.424,0,0,1-1.39,7.664A23.3,23.3,0,0,1,163.5,115.5a.264.264,0,0,0,.455.266,24.233,24.233,0,0,0,2.837-7.437,24.864,24.864,0,0,0,.318-8,24.018,24.018,0,0,0-.966-4.4c-.1-.322-.613-.184-.508.14Z" transform="translate(-37.429 -42.252)"/><path class="a" d="M159.14,111.354l4.172,4.384c.234.246.607-.127.373-.373l-4.172-4.384c-.234-.246-.607.127-.373.373Z" transform="translate(-37.429 -42.252)"/><path class="e" d="M155.6,94.8a.616.616,0,0,1-.4-.15A29,29,0,0,1,148.4,88.5a.621.621,0,0,1-.033-.868l1.265-1.4.26.236-1.265,1.4a.27.27,0,0,0,.019.381l.018.019a28.646,28.646,0,0,0,6.73,6.094l.023.018a.27.27,0,0,0,.381-.019l2.468-2.725a.27.27,0,0,0-.006-.368c-.572-.312-1.13-.651-1.659-1.01l.2-.291c.526.356,1.081.694,1.65,1l.034.024a.621.621,0,0,1,.044.878L156.057,94.6a.617.617,0,0,1-.43.2Z" transform="translate(-37.429 -42.252)"/><path class="d" d="M152.876,90.212c.775.7,1.571,1.086,1.778.857a.286.286,0,0,0,.032-.269,2.062,2.062,0,0,0-.4-.7q-1.033-.735-2.008-1.587c-.2-.067-.36-.065-.436.019a.16.16,0,0,0-.026.04C151.69,88.834,152.141,89.546,152.876,90.212Z" transform="translate(-37.429 -42.252)"/><path class="e" d="M148.205,84.563a.608.608,0,0,0,.193.42,30.452,30.452,0,0,0,3.421,3.586,27.211,27.211,0,0,0,2.866,2.232c.167.114.336.225.506.334a.61.61,0,0,0,.4.151l.032,0a.617.617,0,0,0,.43-.2l2.467-2.724a.622.622,0,0,0-.044-.879l-.033-.025a19.005,19.005,0,0,1-6.711-6.074l-.026-.032a.622.622,0,0,0-.879.044l-2.467,2.724a.62.62,0,0,0-.16.448Zm.351-.018a.267.267,0,0,1,.069-.193l2.467-2.725a.267.267,0,0,1,.188-.088.264.264,0,0,1,.179.056,19.363,19.363,0,0,0,6.8,6.157.269.269,0,0,1,.007.367L155.8,90.845a.26.26,0,0,1-.186.088.274.274,0,0,1-.2-.069l-.023-.018q-.559-.358-1.1-.75-1.033-.735-2.008-1.587a30.121,30.121,0,0,1-3.62-3.757l-.018-.019a.275.275,0,0,1-.088-.188Z" transform="translate(-37.429 -42.252)"/><ellipse class="d" cx="0.557" cy="1.894" rx="0.557" ry="1.894" transform="matrix(0.671, -0.741, 0.741, 0.671, 114.042, 43.175)"/><path class="f" d="M101.722,71.437H99.568l-1.025-8.309h3.179Z"/><path class="g" d="M139.7,115.777h-6.946v-.088a2.7,2.7,0,0,1,2.7-2.7H139.7Z" transform="translate(-37.429 -42.252)"/><path class="f" d="M108.048,71.437h-2.154l-1.025-8.309h3.179Z"/><path class="g" d="M146.026,115.777H139.08v-.088a2.7,2.7,0,0,1,2.7-2.7h4.243Z" transform="translate(-37.429 -42.252)"/><path class="g" d="M146.923,80.109l-.514,30.521a.7.7,0,0,1-.766.688l-2.521-.229a.7.7,0,0,1-.637-.646L141.008,91.4a.176.176,0,0,0-.351.007l-.738,19.474a.7.7,0,0,1-.7.676h-2.7a.7.7,0,0,1-.7-.66L133.92,79.933l11.246-2.811Z" transform="translate(-37.429 -42.252)"/><circle class="f" cx="4.316" cy="4.316" r="4.316" transform="translate(97.021 0.566)"/><path class="e" d="M133.535,81.016a.785.785,0,0,1-.24-.556L133,59.648a5.008,5.008,0,0,1,3.388-4.822c.4-1.834,2.556-2.064,3.811-2.037a1.948,1.948,0,0,1,1.577.865l.9,1.349,1.982,1.162a5.013,5.013,0,0,1,2.367,5.415l-.305,1.388a31.9,31.9,0,0,0,.3,14.876l.614,2.341a.791.791,0,0,1-.826.989l-.713-.055a.79.79,0,0,1-.726-.71l-.118-1.18a.088.088,0,0,0-.175,0l-.114,1.143a.791.791,0,0,1-.775.712L134.1,81.24h-.013a.786.786,0,0,1-.55-.224Z" transform="translate(-37.429 -42.252)"/><path class="g" d="M139.1,49.622c.018.61.441.963.961,1.283a5.562,5.562,0,0,0,1.723.592.527.527,0,0,0,.774-.461l.546-2.078a13.151,13.151,0,0,0,.42-2.027,4.656,4.656,0,0,0-1.1-3.693,2.955,2.955,0,0,0-3.622-.558c-1.31-1.673-7.3,2.023-5.82,3.186.263.207.664-.055,1-.08a1.065,1.065,0,0,1,.919.292c.277.338.156.842.27,1.264a1.18,1.18,0,0,0,1.491.764,4.058,4.058,0,0,0,.773-.5,1,1,0,0,1,.867-.189c.38.142.514.606.549,1.01a9.355,9.355,0,0,0,.252,1.193Z" transform="translate(-37.429 -42.252)"/><path class="h" d="M100.666,18.936l-.7,8.61-3.69,8.961,5.447-8.786Z"/><path class="f" d="M132.84,82.1a1.767,1.767,0,0,0,.056-2.709l2.351-5.822-3.2.646-1.742,5.43A1.777,1.777,0,0,0,132.84,82.1Z" transform="translate(-37.429 -42.252)"/><path class="e" d="M132.669,79.529l-1.811-.653a.8.8,0,0,1-.495-.952l2.987-10.933.455-9.881a2.252,2.252,0,1,1,4.5.273L137.489,68.2l-3.806,10.845a.789.789,0,0,1-1.014.482Z" transform="translate(-37.429 -42.252)"/><path class="f" d="M151.327,82.668a1.767,1.767,0,0,0-.992-2.521l-.074-6.279-2.7,1.828.485,5.682a1.777,1.777,0,0,0,3.284,1.29Z" transform="translate(-37.429 -42.252)"/><path class="e" d="M150.18,80.365l-1.922.1a.8.8,0,0,1-.823-.688l-1.456-11.24-3.387-9.294a2.252,2.252,0,1,1,4.254-1.481l3.418,10.3.667,11.474a.789.789,0,0,1-.75.835Z" transform="translate(-37.429 -42.252)"/><path class="e" d="M173.253,115.866H106.306a.176.176,0,1,1,0-.351h66.947a.176.176,0,1,1,0,.351Z" transform="translate(-37.429 -42.252)"/><path class="e" d="M94.224,77.93a3.182,3.182,0,0,1-2.386-.892c-1.3-1.338-1.216-3.917-1.151-5.99.019-.6.037-1.172.019-1.649v-.007a3.538,3.538,0,0,1,3.519-3.521h8.367a3.179,3.179,0,0,1,2.383.891c1.3,1.337,1.217,3.916,1.152,5.988-.019.6-.037,1.175-.018,1.653a3.54,3.54,0,0,1-3.521,3.528Zm-3.166-8.541c.018.488,0,1.063-.019,1.67-.063,2.006-.142,4.5,1.052,5.734a2.809,2.809,0,0,0,2.133.785h8.364a3.187,3.187,0,0,0,3.17-3.17c-.019-.483,0-1.06.018-1.67.062-2.006.14-4.5-1.053-5.732a2.807,2.807,0,0,0-2.131-.784H94.226a3.186,3.186,0,0,0-3.168,3.167Z" transform="translate(-37.429 -42.252)"/><path class="e" d="M48.866,55.173a8.188,8.188,0,0,1-7.722-5.931l-.039-.179.491-.088a8.081,8.081,0,0,1,9.172,5.77l.041.17-.17.042A7.377,7.377,0,0,1,48.866,55.173ZM41.53,49.344a7.643,7.643,0,0,0,3.38,4.317,7.325,7.325,0,0,0,5.473,1,7.724,7.724,0,0,0-8.714-5.337Z" transform="translate(-37.429 -42.252)"/><path class="e" d="M43.992,75.142a2.917,2.917,0,0,1-2.632-1.453,3.648,3.648,0,0,1,0-3.577,2.927,2.927,0,0,1,2.694-1.454H55.2a2.932,2.932,0,0,1,2.691,1.456,3.648,3.648,0,0,1,0,3.577A2.94,2.94,0,0,1,55.2,75.141H43.992ZM44,69.008a2.583,2.583,0,0,0-2.336,1.28,3.287,3.287,0,0,0,0,3.223,2.585,2.585,0,0,0,2.384,1.278H55.2a2.59,2.59,0,0,0,2.388-1.277,3.287,3.287,0,0,0,0-3.222A2.6,2.6,0,0,0,55.2,69.009H44Z" transform="translate(-37.429 -42.252)"/><path class="d" d="M97.084,70.049H93.57a.879.879,0,1,1,0-1.757h3.514a.879.879,0,0,1,0,1.757Z" transform="translate(-37.429 -42.252)"/><path class="d" d="M97.084,72.86H93.57a.879.879,0,0,1,0-1.757h3.514a.879.879,0,0,1,0,1.757Z" transform="translate(-37.429 -42.252)"/><path class="d" d="M97.084,75.672H93.57a.879.879,0,1,1,0-1.757h3.514a.879.879,0,0,1,0,1.757Z" transform="translate(-37.429 -42.252)"/><path class="d" d="M103.234,70.049H99.72a.879.879,0,1,1,0-1.757h3.514a.879.879,0,1,1,0,1.757Z" transform="translate(-37.429 -42.252)"/><path class="d" d="M103.234,72.86H99.72a.879.879,0,0,1,0-1.757h3.514a.879.879,0,1,1,0,1.757Z" transform="translate(-37.429 -42.252)"/><path class="d" d="M103.234,75.672H99.72a.879.879,0,1,1,0-1.757h3.514a.879.879,0,1,1,0,1.757Z" transform="translate(-37.429 -42.252)"/><rect class="e" width="73.59" height="0.351" transform="translate(0.211 15.311)"/><path class="e" d="M105.431,87.006h-62.2a5.805,5.805,0,0,1-5.8-5.8V50.984a5.805,5.805,0,0,1,5.8-5.8h62.2a5.805,5.805,0,0,1,5.8,5.8V81.207A5.805,5.805,0,0,1,105.431,87.006Zm-62.2-41.469a5.453,5.453,0,0,0-5.447,5.447V81.207a5.453,5.453,0,0,0,5.447,5.447h62.2a5.453,5.453,0,0,0,5.447-5.447V50.984a5.453,5.453,0,0,0-5.447-5.447Z" transform="translate(-37.429 -42.252)"/></g></g></svg>