<svg xmlns="http://www.w3.org/2000/svg" xmlns:xlink="http://www.w3.org/1999/xlink" width="104" height="86" viewBox="0 0 104 86"><defs><style>.a{fill:#fff;}.b{clip-path:url(#a);}.c{fill:#ffb8b8;}.d{fill:#575a89;}.e{opacity:0.2;}.f{fill:#2f2e41;}.g{fill:#3f3d56;}.h{opacity:0.1;}.i{fill:#6c63ff;}</style><clipPath id="a"><rect class="a" width="104" height="86" transform="translate(760 128)"/></clipPath></defs><g class="b" transform="translate(-760 -128)"><g transform="translate(766.069 128)"><path class="c" d="M171.819,125.232s11.364.588,8.717,4.165-9.6-2.1-9.6-2.1Z" transform="translate(-98.655 -64.192)"/><path class="d" d="M132.63,64.945l2.313.578s1.349,4.048,2.313,7.711,2.891,14.65,2.891,14.65l14.944,10.474-1.782,3.987L133.4,94.5l-4.434-17.409Z" transform="translate(-80.408 -37.98)"/><path class="e" d="M92.909,60.42l-.862,18.054,1.8,5.368-5.27-3.865Z" transform="translate(-38.511 -26.269)"/><path class="f" d="M124.231,132.42s2.506,6.747,2.891,11.373.771,8.289.771,8.289H116.135l-2.313-3.47v3.47H100.136s-3.855-12.53-2.313-14.072,16.192-8.1,16.192-8.1Z" transform="translate(-66.709 -66.228)"/><rect class="g" width="68.041" height="0.234" transform="translate(11.887 85.679)"/><circle class="c" cx="7.325" cy="7.325" r="7.325" transform="translate(35.451 4.99)"/><path class="c" d="M108.4,44.482l-.578,8.482,7.325,9.831,3.663-9.253s-3.277-2.12-1.349-6.554Z" transform="translate(-71.215 -29.083)"/><path class="d" d="M120.9,100.8c0,1.736-4.819,4.434-4.819,4.434v.964l-1.928.964-4.241-8.481-1.156,9.252s-8.482,1.35-11.181,0-4.049-.771-7.9-2.12,1.542-19.47,1.542-19.47L87.36,58.39l8.423-4.211.444-.223,1.158-.213,1.775-.328,5.934,4.011.478,2.506.294,1.542,1.541-1.736,1.164-3.828,8.282,4.6-2.313,18.5S120.9,99.063,120.9,100.8Z" transform="translate(-62.318 -32.967)"/><path class="c" d="M95.085,147.819s8.867,7.132,4.626,8.482-6.554-7.325-6.554-7.325Z" transform="translate(-64.839 -74.012)"/><path class="d" d="M84.839,62.6l-1.928-.386a6.155,6.155,0,0,0-3.084,4.626c-.193,3.084-2.7,24.674-2.7,24.674l8.1,21.782,6.554-2.506L85.417,90.36l4.819-17.734Z" transform="translate(-57.87 -36.794)"/><ellipse class="f" cx="0.703" cy="0.703" rx="0.703" ry="0.703" transform="translate(42.921 30.286)"/><ellipse class="f" cx="0.703" cy="0.703" rx="0.703" ry="0.703" transform="translate(42.921 34.853)"/><ellipse class="f" cx="0.703" cy="0.703" rx="0.703" ry="0.703" transform="translate(46.903 64.95)"/><path class="f" d="M106.32,22.049l-1.354-.542s2.831-3.117,6.77-2.846l-1.108-1.22s2.708-1.084,5.17,1.762a24.029,24.029,0,0,1,3.725,5.236h1.45l-.605,1.333,2.118,1.333-2.174-.239a7.446,7.446,0,0,1,.059,2.21,2.86,2.86,0,0,1-1.047,1.871h0a30.057,30.057,0,0,1-1.679-4.018v1.355s-1.354-1.22-1.354-2.033l-.739.949h-4.924l.739-1.22-2.831.407,1.108-1.491L105.26,31.05S102.75,24.081,106.32,22.049Z" transform="translate(-69.728 -17.238)"/><circle class="g" cx="11.711" cy="11.711" r="11.711" transform="translate(68.439 33.206)"/><circle class="h" cx="10.071" cy="10.071" r="10.071" transform="translate(70.079 34.846)"/><path class="i" d="M182.5,98.056V96.59a3.4,3.4,0,0,1-1.955-.639l.307-.972a3.125,3.125,0,0,0,1.84.624,1.409,1.409,0,0,0,1.52-1.422c0-.8-.5-1.292-1.444-1.727-1.3-.581-2.108-1.248-2.108-2.511a2.282,2.282,0,0,1,1.929-2.337V86.14h.792v1.408a3.109,3.109,0,0,1,1.661.508l-.319.958a2.823,2.823,0,0,0-1.61-.493,1.227,1.227,0,0,0-1.354,1.248c0,.755.473,1.132,1.584,1.655a2.77,2.77,0,0,1,1.98,2.656,2.429,2.429,0,0,1-2.019,2.467v1.51Z" transform="translate(-102.835 -47.195)"/><path class="e" d="M51.8,104.15l4.684,14.631-3.748-15.224Z" transform="translate(-22.522 -45.025)"/><path class="g" d="M49.943,67.236H46.97a.489.489,0,0,1-.489-.489V62.473a.489.489,0,0,1,.489-.489h2.973a.489.489,0,0,1,.489.489v4.274A.489.489,0,0,1,49.943,67.236ZM46.97,62.219a.255.255,0,0,0-.255.255v4.274A.255.255,0,0,0,46.97,67h2.973a.255.255,0,0,0,.255-.255V62.473a.255.255,0,0,0-.255-.255Z" transform="translate(-44.545 -36.693)"/><path class="g" d="M59.661,63.662H56.976a.634.634,0,0,1-.633-.633V54.4a.634.634,0,0,1,.633-.633h2.685a.634.634,0,0,1,.633.633V63.03A.634.634,0,0,1,59.661,63.662ZM56.976,54a.4.4,0,0,0-.4.4V63.03a.4.4,0,0,0,.4.4h2.685a.4.4,0,0,0,.4-.4V54.4a.4.4,0,0,0-.4-.4Z" transform="translate(-48.833 -33.12)"/><path class="g" d="M69.42,60.375H66.943a.737.737,0,0,1-.737-.737v-12.7a.737.737,0,0,1,.737-.737H69.42a.737.737,0,0,1,.737.737v12.7a.737.737,0,0,1-.737.736ZM66.943,46.439a.5.5,0,0,0-.5.5v12.7a.5.5,0,0,0,.5.5H69.42a.5.5,0,0,0,.5-.5v-12.7a.5.5,0,0,0-.5-.5Z" transform="translate(-53.121 -29.832)"/><rect class="i" width="2.23" height="3.623" transform="translate(2.797 26.105)"/><rect class="i" width="2.23" height="8.222" transform="translate(8.371 21.507)"/><rect class="i" width="2.23" height="12.496" transform="translate(13.946 17.233)"/><path class="g" d="M180.786,35.106H165.211a.117.117,0,0,1-.117-.117V19.179a.117.117,0,0,1,.234,0V34.872h15.459a.117.117,0,1,1,0,.234Z" transform="translate(-96.115 -18.031)"/><path class="g" d="M61.676,59.852h-18.5a.117.117,0,0,1-.117-.117V41.349a.117.117,0,1,1,.234,0V59.618H61.676a.117.117,0,1,1,0,.234Z" transform="translate(-43.055 -27.67)"/><path class="g" d="M172.148,40.812h-2.973a.489.489,0,0,1-.489-.489V36.049a.489.489,0,0,1,.489-.489h2.973a.489.489,0,0,1,.489.489v4.274A.489.489,0,0,1,172.148,40.812Zm-2.973-5.017a.255.255,0,0,0-.255.255v4.274a.255.255,0,0,0,.255.255h2.973a.255.255,0,0,0,.254-.255V36.049a.255.255,0,0,0-.254-.255Z" transform="translate(-97.677 -25.204)"/><path class="g" d="M183.011,37.962h-2.736a.608.608,0,0,1-.607-.607V29.614a.608.608,0,0,1,.607-.607h2.736a.608.608,0,0,1,.607.607v7.741a.608.608,0,0,1-.607.607Zm-2.736-8.721a.373.373,0,0,0-.373.373v7.741a.373.373,0,0,0,.373.373h2.736a.373.373,0,0,0,.373-.373V29.614a.373.373,0,0,0-.373-.373Z" transform="translate(-102.452 -22.355)"/><rect class="i" width="2.23" height="3.623" transform="translate(71.815 11.211)"/><rect class="i" width="2.23" height="7.011" transform="translate(78.076 7.624)"/><circle class="i" cx="1.054" cy="1.054" r="1.054" transform="translate(71.906 7.004)"/><circle class="i" cx="1.054" cy="1.054" r="1.054" transform="translate(78.113 3.022)"/></g></g></svg>