<svg xmlns="http://www.w3.org/2000/svg" xmlns:xlink="http://www.w3.org/1999/xlink" width="120" height="90" viewBox="0 0 120 90"><defs><style>.a{fill:#fff;}.b{opacity:0.5;clip-path:url(#a);}.c{fill:#3f3d56;}.d{fill:#6c63ff;}.e{fill:#ccc;}.f{fill:#e6e6e6;}</style><clipPath id="a"><rect class="a" width="120" height="90" transform="translate(624 712)"/></clipPath></defs><g class="b" transform="translate(-624 -712)"><g transform="translate(634.663 712)"><rect class="c" width="86.119" height="7.829" transform="translate(2.357 32.365) rotate(-16.244)"/><path class="c" d="M70.891,102.427,58.7,60.6a1.218,1.218,0,0,1,.829-1.51l80.676-23.506a1.219,1.219,0,0,1,1.51.829l10.8,37.055-.334.1-10.8-37.055a.871.871,0,0,0-1.079-.592L59.63,59.424a.87.87,0,0,0-.592,1.079l12.187,41.826Z" transform="translate(-58.655 -35.536)"/><path class="d" d="M139.514,75.426a1.133,1.133,0,0,1-1.086-.815L136.384,67.6a1.132,1.132,0,0,1,.769-1.4l7.015-2.044a1.132,1.132,0,0,1,1.4.769l2.044,7.015a1.132,1.132,0,0,1-.769,1.4l-7.015,2.044a1.127,1.127,0,0,1-.316.045Z" transform="translate(-63.511 -37.321)"/><path class="d" d="M71.233,62.309a2.034,2.034,0,0,0-.075-.212,2.088,2.088,0,0,0-3.986,1.16,1.977,1.977,0,0,0,.05.219,2.091,2.091,0,0,0,2.006,1.5,2.044,2.044,0,0,0,.583-.084A2.09,2.09,0,0,0,71.233,62.309Zm-1.519,2.253a1.742,1.742,0,0,1-2.157-1.183,1.988,1.988,0,0,1-.049-.219A1.739,1.739,0,0,1,70.82,62.2a1.452,1.452,0,0,1,.078.211,1.741,1.741,0,0,1-1.185,2.156Z" transform="translate(-59.186 -37.115)"/><path class="d" d="M65.959,63.86a1.914,1.914,0,0,1,.732-2.1A1.914,1.914,0,1,0,67.7,65.236a1.914,1.914,0,0,1-1.744-1.376Z" transform="translate(-59.032 -37.175)"/><path class="e" d="M122.793,73.145a1.051,1.051,0,0,0-1.3-.731l-11.55,3.231-1.244.348h7.812l1.244-.348,4.306-1.2a1.052,1.052,0,0,0,.729-1.3Z" transform="translate(-61.783 -37.838)"/><path class="e" d="M113.723,70.572a1.052,1.052,0,0,0-1.3-.729L95.095,74.69a1.056,1.056,0,0,0-.76,1.143h4.487l1.246-.348,12.927-3.615a1.054,1.054,0,0,0,.729-1.3Z" transform="translate(-60.885 -37.677)"/><path class="c" d="M156.926,75.863H72.895a1.219,1.219,0,0,0-1.218,1.218v49.758a1.219,1.219,0,0,0,1.218,1.218h84.031a1.219,1.219,0,0,0,1.218-1.218V77.081a1.219,1.219,0,0,0-1.218-1.218Zm.87,50.975a.87.87,0,0,1-.87.87H72.895a.87.87,0,0,1-.87-.87V77.081a.87.87,0,0,1,.87-.87h84.031a.87.87,0,0,1,.87.87Z" transform="translate(-59.469 -38.056)"/><path class="d" d="M81.558,82.822a2.088,2.088,0,1,1,2.088-2.088,2.088,2.088,0,0,1-2.088,2.088Zm0-3.827a1.74,1.74,0,1,0,1.74,1.74,1.74,1.74,0,0,0-1.74-1.74Z" transform="translate(-59.956 -38.23)"/><path class="d" d="M78.153,80.746a1.914,1.914,0,0,1,1.289-1.809,1.914,1.914,0,1,0,0,3.618A1.914,1.914,0,0,1,78.153,80.746Z" transform="translate(-59.796 -38.242)"/><path class="d" d="M90.62,106.663a1.568,1.568,0,0,1-1.566-1.566v-4.7a1.566,1.566,0,0,1,3.132,0v4.7a1.568,1.568,0,0,1-1.566,1.566Z" transform="translate(-60.555 -39.492)"/><path class="d" d="M95.074,106.663a1.568,1.568,0,0,1-1.566-1.566v-4.7a1.566,1.566,0,0,1,3.132,0v4.7a1.568,1.568,0,0,1-1.566,1.566Z" transform="translate(-60.834 -39.492)"/><path class="d" d="M99.528,106.663a1.568,1.568,0,0,1-1.566-1.566v-4.7a1.566,1.566,0,0,1,3.132,0v4.7a1.568,1.568,0,0,1-1.566,1.566Z" transform="translate(-61.112 -39.492)"/><path class="d" d="M106.394,106.663a1.568,1.568,0,0,1-1.566-1.566v-4.7a1.566,1.566,0,0,1,3.132,0v4.7a1.568,1.568,0,0,1-1.566,1.566Z" transform="translate(-61.541 -39.492)"/><path class="d" d="M110.848,106.663a1.568,1.568,0,0,1-1.566-1.566v-4.7a1.566,1.566,0,0,1,3.132,0v4.7a1.568,1.568,0,0,1-1.566,1.566Z" transform="translate(-61.82 -39.492)"/><path class="d" d="M115.3,106.663a1.568,1.568,0,0,1-1.566-1.566v-4.7a1.566,1.566,0,1,1,3.132,0v4.7a1.568,1.568,0,0,1-1.566,1.566Z" transform="translate(-62.098 -39.492)"/><path class="d" d="M122.168,106.663A1.568,1.568,0,0,1,120.6,105.1v-4.7a1.566,1.566,0,0,1,3.132,0v4.7a1.568,1.568,0,0,1-1.566,1.566Z" transform="translate(-62.527 -39.492)"/><path class="d" d="M126.622,106.663a1.568,1.568,0,0,1-1.566-1.566v-4.7a1.566,1.566,0,0,1,3.132,0v4.7a1.568,1.568,0,0,1-1.566,1.566Z" transform="translate(-62.805 -39.492)"/><path class="d" d="M131.076,106.663a1.568,1.568,0,0,1-1.566-1.566v-4.7a1.566,1.566,0,0,1,3.132,0v4.7a1.568,1.568,0,0,1-1.566,1.566Z" transform="translate(-63.084 -39.492)"/><path class="d" d="M137.942,106.663a1.568,1.568,0,0,1-1.566-1.566v-4.7a1.566,1.566,0,0,1,3.132,0v4.7a1.568,1.568,0,0,1-1.566,1.566Z" transform="translate(-63.513 -39.492)"/><path class="d" d="M142.4,106.663a1.568,1.568,0,0,1-1.566-1.566v-4.7a1.566,1.566,0,0,1,3.132,0v4.7a1.568,1.568,0,0,1-1.566,1.566Z" transform="translate(-63.791 -39.492)"/><path class="d" d="M146.85,106.663a1.568,1.568,0,0,1-1.566-1.566v-4.7a1.566,1.566,0,0,1,3.132,0v4.7a1.568,1.568,0,0,1-1.566,1.566Z" transform="translate(-64.07 -39.492)"/><path class="f" d="M100.477,125.633H77.957a1.052,1.052,0,1,1,0-2.1h22.52a1.052,1.052,0,1,1,0,2.1Z" transform="translate(-59.796 -41.035)"/><path class="f" d="M93.738,120.808h-8.08a1.052,1.052,0,1,1,0-2.1h8.08a1.052,1.052,0,1,1,0,2.1Z" transform="translate(-60.277 -40.734)"/><rect class="c" width="85.771" height="0.348" transform="translate(12.493 48.207)"/></g></g></svg>