<svg xmlns="http://www.w3.org/2000/svg" xmlns:xlink="http://www.w3.org/1999/xlink" width="112" height="89" viewBox="0 0 112 89"><defs><style>.a{fill:#fff;}.b{clip-path:url(#a);}.c{fill:#a0616a;}.d{fill:#2f2e41;}.e{fill:#e6e6e6;}.f{fill:#f2f2f2;}.g{fill:#6c63ff;}.h{fill:#f6f8fb;}.i{fill:#ffb8b8;}.j{opacity:0.1;}.k{fill:url(#b);}.l{fill:#e1e7ef;}.m{opacity:0.2;}</style><clipPath id="a"><rect class="a" width="112" height="89" transform="translate(1096 456)"/></clipPath><linearGradient id="b" x1="119.783" y1="1170.587" x2="119.783" y2="1171.613" gradientUnits="objectBoundingBox"><stop offset="0" stop-color="gray" stop-opacity="0.251"/><stop offset="0.54" stop-color="gray" stop-opacity="0.122"/><stop offset="1" stop-color="gray" stop-opacity="0.102"/></linearGradient></defs><g class="b" transform="translate(-1096 -456)"><g transform="translate(1096 464.917)"><path class="c" d="M111.392,74.125h-1.571l-.748-12.21h2.318Z" transform="translate(-8.113 -4.605)"/><path class="d" d="M108.516,74.621h3.029v1.907h-4.937A1.907,1.907,0,0,1,108.516,74.621Z" transform="translate(-7.93 -5.55)"/><path class="c" d="M119.431,72.374l-1.443.62-6.194-11.5,2.13-.915Z" transform="translate(-8.315 -4.506)"/><path class="d" d="M1.907,0H4.937V1.907H0A1.907,1.907,0,0,1,1.907,0Z" transform="translate(106.711 69.273) rotate(-23.256)"/><path class="e" d="M113.336,38.36H86.122a.812.812,0,0,1-.811-.811V23.014a.812.812,0,0,1,.811-.811h27.214a.812.812,0,0,1,.811.811V37.549a.812.812,0,0,1-.811.811Z" transform="translate(-25.097 -22.203)"/><circle class="a" cx="2.992" cy="2.992" r="2.992" transform="translate(62.681 4.186)"/><path class="a" d="M111.007,26.99H98.79a.458.458,0,0,1,0-.915h12.218a.458.458,0,0,1,0,.915Z" transform="translate(-26.066 -22.491)"/><path class="a" d="M104.611,29.25H98.79a.458.458,0,0,1,0-.915h5.822a.458.458,0,1,1,0,.915Z" transform="translate(-26.066 -22.659)"/><path class="a" d="M108.712,31.509H98.79a.458.458,0,0,1,0-.915h9.922a.458.458,0,1,1,0,.915Z" transform="translate(-26.066 -22.827)"/><path class="a" d="M111.007,33.767H98.79a.458.458,0,0,1,0-.915h12.218a.458.458,0,0,1,0,.915Z" transform="translate(-26.066 -22.995)"/><path class="a" d="M111.383,37.792h-2.023a.84.84,0,1,1,0-1.68h2.023a.84.84,0,1,1,0,1.68Z" transform="translate(-26.823 -23.238)"/><path class="f" d="M70.287,40.214h-19a.567.567,0,0,1-.566-.566V29.5a.567.567,0,0,1,.566-.566h19a.567.567,0,0,1,.566.566V39.648A.567.567,0,0,1,70.287,40.214Z" transform="translate(-22.524 -22.704)"/><circle class="a" cx="2.089" cy="2.089" r="2.089" transform="translate(29.918 9.152)"/><path class="a" d="M68.661,32.276H60.13a.319.319,0,0,1,0-.639h8.531a.319.319,0,1,1,0,.639Z" transform="translate(-23.2 -22.905)"/><path class="a" d="M64.2,33.853H60.13a.319.319,0,0,1,0-.639H64.2a.319.319,0,1,1,0,.639Z" transform="translate(-23.2 -23.022)"/><path class="a" d="M67.058,35.43H60.13a.319.319,0,1,1,0-.639h6.928a.319.319,0,1,1,0,.639Z" transform="translate(-23.2 -23.14)"/><path class="a" d="M68.661,37.007H60.13a.319.319,0,0,1,0-.639h8.531a.319.319,0,1,1,0,.639Z" transform="translate(-23.2 -23.257)"/><path class="a" d="M68.923,39.818H67.511a.587.587,0,1,1,0-1.173h1.412a.587.587,0,1,1,0,1.173Z" transform="translate(-23.729 -23.426)"/><path class="g" d="M104.035,56.4H68.5a1.06,1.06,0,0,1-1.059-1.059V36.367A1.06,1.06,0,0,1,68.5,35.308h35.532a1.06,1.06,0,0,1,1.059,1.059V55.344A1.06,1.06,0,0,1,104.035,56.4Z" transform="translate(-23.768 -23.178)"/><circle class="a" cx="3.907" cy="3.907" r="3.907" transform="translate(46.896 17.596)"/><path class="a" d="M100.994,41.558H85.042a.6.6,0,0,1,0-1.195h15.952a.6.6,0,0,1,0,1.195Z" transform="translate(-25.033 -23.554)"/><path class="a" d="M92.643,44.509h-7.6a.6.6,0,0,1,0-1.195h7.6a.6.6,0,0,1,0,1.195Z" transform="translate(-25.033 -23.773)"/><path class="a" d="M98,47.458H85.042a.6.6,0,1,1,0-1.195H98a.6.6,0,1,1,0,1.195Z" transform="translate(-25.033 -23.993)"/><path class="a" d="M100.994,50.407H85.042a.6.6,0,0,1,0-1.195h15.952a.6.6,0,0,1,0,1.195Z" transform="translate(-25.033 -24.212)"/><path class="a" d="M101.484,55.662H98.843a1.1,1.1,0,0,1,0-2.194h2.641a1.1,1.1,0,1,1,0,2.194Z" transform="translate(-26.022 -24.529)"/><path class="d" d="M139.386,82.654s-3.113-15.875-3.6-17.213c-.27-.731-.449-1.263-.449-1.263l-9.15.523-.075.74-1.233,18.566s.436-1.18.827-1.4.35,1.394.35,1.394" transform="translate(-28.04 -25.325)"/><path class="g" d="M126.267,63.813h8.008a2.774,2.774,0,0,1,.321-2.123,4.689,4.689,0,0,1,.838-1.088l.055-.049,2.8-.62.151-.033s.022-5.084-1.777-5.781a11,11,0,0,1-2.758-1.54.5.5,0,0,0-.289-.106l-3.928-.144a.5.5,0,0,0-.333.112,31.664,31.664,0,0,1-3.825,2.119.846.846,0,0,0-.4,1.1,27.276,27.276,0,0,0,1.276,2.721C126.516,58.376,126.267,63.813,126.267,63.813Z" transform="translate(-28.053 -24.444)"/><path class="h" d="M131.9,55.669l3.764,9.732s-2.544.587-5-2.413l-.886-1.933-2-7.368Z" transform="translate(-28.256 -24.545)"/><circle class="d" cx="5.108" cy="5.108" r="5.108" transform="translate(99.534 15.698)"/><path class="c" d="M129.791,63.035a1.043,1.043,0,0,0,1.2.317l2.736,1.071.912-2.061-3.083-.4a1.042,1.042,0,1,0-1.768,1.071Z" transform="translate(-28.388 -25.114)"/><circle class="c" cx="3.269" cy="3.269" r="3.269" transform="translate(100.599 20.607)"/><path class="d" d="M136.789,45.388a11.289,11.289,0,0,1-5.674,1.371,2.692,2.692,0,0,1-2.073-.744,1.972,1.972,0,0,1,.116-2.374,4.268,4.268,0,0,1,2.155-1.318,4.691,4.691,0,0,1,2.389-.232,2.975,2.975,0,0,1,2.156,3.952" transform="translate(-28.324 -23.677)"/><circle class="d" cx="2.865" cy="2.865" r="2.865" transform="translate(105.39 14.327)"/><path class="g" d="M137.888,59.049l1.1,1.351.225,3.666s.289,1.867-1.845,1.417-4.881-1.324-4.881-1.324,1.462-2.119.809-2.726l3.06.99s.517-.113.112-.563a2.53,2.53,0,0,1-.477-1.26Z" transform="translate(-28.606 -24.944)"/><path class="c" d="M131.877,62.221a1.043,1.043,0,0,1-1.183-.386l-2.88-.585.352-2.226,2.806,1.338a1.042,1.042,0,1,1,.9,1.859Z" transform="translate(-28.258 -24.942)"/><path class="g" d="M127.7,56.729a2.53,2.53,0,0,1-1.084.8c-.584.158-.211.533-.211.533l3.107.828c-.877.156-.8,2.729-.8,2.729s-2.782-.756-4.819-1.536-.781-2.191-.781-2.191l2.178-2.958,1.659-.536Z" transform="translate(-27.88 -24.598)"/><path class="i" d="M4.9,72l1.5.644,3.2-5.476-2.213-.951Z" transform="translate(-0.365 -4.925)"/><path class="d" d="M0,0H5.128V1.981H1.907A1.907,1.907,0,0,1,0,.074V0Z" transform="translate(8.33 70.357) rotate(-156.744)"/><path class="i" d="M16.075,73.955h1.632l.777-6.294H16.075Z" transform="translate(-1.196 -5.033)"/><path class="d" d="M0,0H5.128V1.981H1.907A1.907,1.907,0,0,1,0,.074V0Z" transform="translate(19.658 70.438) rotate(180)"/><g class="j" transform="translate(4.946 20.903)"><path class="k" d="M25.6,44.788l.092.02A.125.125,0,0,0,25.6,44.788Z" transform="translate(-25.602 -44.786)"/></g><path class="d" d="M38.194,88.734l-3.753.149c-.916-.616-3.761-15.169-3.761-15.169.019.113-.356,14.444-.356,14.444H26.286L24.3,65.809l2.19.882s10.027-.813,10.494-.235C37.084,66.645,38.194,88.734,38.194,88.734Z" transform="translate(-20.559 -25.447)"/><circle class="i" cx="3.269" cy="3.269" r="3.269" transform="translate(5.913 17.991)"/><path class="i" d="M36.131,72.672a1.083,1.083,0,0,1-.014-1.292l-.384-3.028,2.308-.4-.382,3.207a1.083,1.083,0,1,1-1.528,1.509Z" transform="translate(-21.409 -25.606)"/><path class="l" d="M30.713,42.8l.072.016a.1.1,0,0,0-.072-.016Z" transform="translate(-21.036 -23.735)"/><path class="d" d="M28.764,43.566a7.781,7.781,0,0,0,2.163.255,2.769,2.769,0,0,0,1.94-.872,1.709,1.709,0,0,0,.184-2.022,2.835,2.835,0,0,0-2.363-.812l-2.729-.057a3.233,3.233,0,0,0-1.583.234,2.607,2.607,0,0,0-1.1,2.43,6.215,6.215,0,0,0,2.284,4.663c.369.3.977.523,1.259.142.123-.166-1.076-2.08-1.079-2.287-.02-1.2,1.16-.712,1.14-1.913" transform="translate(-20.632 -23.531)"/><path class="e" d="M25.5,65.443A13.783,13.783,0,0,0,35.93,68.634c-1.642-5.764-2.129-11.484-.545-17.126l-3.27-1.479L27.678,49.8l-2.671.786a1.786,1.786,0,0,0-1.281,1.749A46.18,46.18,0,0,0,25.5,65.443Z" transform="translate(-20.516 -24.256)"/><path class="e" d="M36.131,69.189l2.024.234-.474-15.029a3.5,3.5,0,0,0-2.151-3.119l-.722-.3L35,58.018Z" transform="translate(-21.341 -24.343)"/><path class="i" d="M25.353,69.149a1.083,1.083,0,0,1-.524-1.181l-1.551-2.629,1.963-1.276.919,3.1a1.083,1.083,0,1,1-.806,1.99Z" transform="translate(-20.483 -25.317)"/><path class="e" d="M24.306,66.981l1.895-1.4-2.051-6.076.74-8.913h0c-1.606.5-3.331,1.861-3.616,3.521l-1.016,5.937Z" transform="translate(-20.258 -24.315)"/><path class="m" d="M5.172,36.475l-.834,3.336,1.893,4.734L4.787,40.068Z" transform="translate(-0.323 -2.713)"/><path class="m" d="M14.129,38.344l.644,7.149-1.09-7.1Z" transform="translate(-1.018 -2.852)"/></g></g></svg>