<svg id="Illustration" xmlns="http://www.w3.org/2000/svg" xmlns:xlink="http://www.w3.org/1999/xlink" width="141.96" height="143.956" viewBox="0 0 141.96 143.956">
  <defs>
    <linearGradient id="linear-gradient" x1="1.74" y1="0.831" x2="0.566" y2="0.511" gradientUnits="objectBoundingBox">
      <stop offset="0" stop-color="#a9c0db"/>
      <stop offset="0.996" stop-color="#014384"/>
    </linearGradient>
    <linearGradient id="linear-gradient-2" x1="2.228" y1="0.823" x2="0.272" y2="0.477" xlink:href="#linear-gradient"/>
    <linearGradient id="linear-gradient-3" x1="0.495" y1="0.117" x2="0.513" y2="1.536" xlink:href="#linear-gradient"/>
    <linearGradient id="linear-gradient-4" x1="1.74" y1="0.831" x2="0.566" y2="0.511" gradientUnits="objectBoundingBox">
      <stop offset="0" stop-color="#a9c0db"/>
      <stop offset="0.032" stop-color="#a4bcd8"/>
      <stop offset="0.996" stop-color="#014384"/>
    </linearGradient>
    <linearGradient id="linear-gradient-5" x1="2.228" y1="0.823" x2="0.272" y2="0.477" xlink:href="#linear-gradient-4"/>
    <linearGradient id="linear-gradient-6" x1="0.495" y1="0.117" x2="0.513" y2="1.536" xlink:href="#linear-gradient-4"/>
    <linearGradient id="linear-gradient-7" y1="0.5" x2="1" y2="0.5" gradientUnits="objectBoundingBox">
      <stop offset="0" stop-color="#444b8c"/>
      <stop offset="0.996" stop-color="#26264f"/>
    </linearGradient>
    <linearGradient id="linear-gradient-10" x1="0.363" y1="-0.893" x2="0.567" y2="1.191" gradientUnits="objectBoundingBox">
      <stop offset="0.041" stop-color="#3e77b0"/>
      <stop offset="0.366" stop-color="#014384"/>
      <stop offset="0.996" stop-color="#00274f"/>
    </linearGradient>
    <linearGradient id="linear-gradient-11" x1="1" y1="0.057" x2="1" y2="0.948" gradientUnits="objectBoundingBox">
      <stop offset="0" stop-color="#e9ecf5"/>
      <stop offset="1" stop-color="#004c97"/>
    </linearGradient>
    <linearGradient id="linear-gradient-12" x1="0" y1="0.5" x2="1" y2="0.5" xlink:href="#linear-gradient-10"/>
    <linearGradient id="linear-gradient-15" x1="0.53" y1="-0.49" x2="0.466" y2="2.489" xlink:href="#linear-gradient-10"/>
    <linearGradient id="linear-gradient-18" x1="0.349" y1="-0.972" x2="0.571" y2="1.199" xlink:href="#linear-gradient-10"/>
    <linearGradient id="linear-gradient-22" x1="0.335" y1="-1.051" x2="0.575" y2="1.207" xlink:href="#linear-gradient-10"/>
  </defs>
  <path id="Path_119" data-name="Path 119" d="M460.465,426.234c-4.767,6.95.822,18.219-6.252,23.445-6.887,5.088-15.347-3.252-21.837,1.128-9.628,6.495-7.869,36.228,6.206,54.7,4.234,5.558,7.771,7.717,9.337,14,3.364,13.489-8.459,21.516-6.209,28.188,5.066,15.024,82.973,27.63,114.234-17.52,14.6-21.087,16.784-51.537,3.74-74.664C536.113,413.721,471.163,410.639,460.465,426.234Z" transform="translate(-426.339 -417.582)" fill="#f3f7fa"/>
  <g id="Group_17" data-name="Group 17" transform="translate(4.326 39.358)" opacity="0.447">
    <path id="Path_121" data-name="Path 121" d="M474.168,1226.014a5.727,5.727,0,0,0,5.169-10.181c-.134-.068-.272-.125-.41-.18a32.9,32.9,0,0,0,1.09-4.692,4.043,4.043,0,0,0,.45-.017,5.973,5.973,0,0,0,5.251-6.08,5.059,5.059,0,0,0-5.476-5.121c-.155.014-.307.038-.458.063a30.268,30.268,0,0,0-1.268-4.481c.136-.08.272-.162.4-.255a5.974,5.974,0,0,0,1.811-7.827,5.058,5.058,0,0,0-7.369-1.4c-.13.091-.25.187-.375.289a26.808,26.808,0,0,0-3.287-3.068c.084-.136.165-.275.239-.421,1.428-2.81,3.293-5.882.676-7.16-6.053-2.955-8.651-.425-10.078,2.386-.074.146-.138.293-.2.442a26.8,26.8,0,0,0-4.416-.843c.009-.156.016-.312.013-.471-.062-3.094.856-4.768-2.117-4.825-6.484-.125-8.672,2.685-8.61,5.782,0,.162.017.32.032.477a30.172,30.172,0,0,0-4.365,1.62c-.067-.137-.137-.275-.217-.408a5.058,5.058,0,0,0-7.369-1.4,5.974,5.974,0,0,0-1.811,7.828c.079.13.165.25.25.375a32.924,32.924,0,0,0-3.144,3.649c-.125-.078-.253-.156-.388-.224a5.727,5.727,0,0,0-5.169,10.18c.134.068.272.125.41.18a32.949,32.949,0,0,0-1.09,4.692,4.224,4.224,0,0,0-.45.016,5.974,5.974,0,0,0-5.251,6.08,5.058,5.058,0,0,0,5.476,5.124c.155-.013.307-.038.458-.062a30.214,30.214,0,0,0,1.268,4.481c-.136.079-.272.163-.4.255a5.974,5.974,0,0,0-1.811,7.827c1.535,2.547,6.617,3.731,9.151,1.955.13-.091-1.531-.749-1.41-.846a26.73,26.73,0,0,0,3.287,3.068c-.084.137-.165.276-.239.421a5.289,5.289,0,1,0,9.4,4.774c.074-.146.138-.293.2-.442a26.709,26.709,0,0,0,4.416.843c-.009.156-.017.313-.013.472a5.058,5.058,0,0,0,5.476,5.121,5.973,5.973,0,0,0,5.251-6.08c0-.162-.017-.32-.032-.477a30.113,30.113,0,0,0,4.365-1.62c.068.138.138.275.218.408a5.058,5.058,0,0,0,7.369,1.4,5.974,5.974,0,0,0,1.811-7.828c-.079-.13-.165-.25-.25-.375a32.941,32.941,0,0,0,3.145-3.648A3.511,3.511,0,0,0,474.168,1226.014Zm-32.367.41c-9.43-4.786-12.868-16.941-7.685-27.149s17.026-14.6,26.453-9.816,12.868,16.941,7.686,27.149-17.026,14.607-26.454,9.817Z" transform="translate(-416.643 -1172.17)" fill="url(#linear-gradient)"/>
    <path id="Path_122" data-name="Path 122" d="M1052.584,1331.546a5.974,5.974,0,0,0,5.251-6.08,5.059,5.059,0,0,0-5.476-5.124c-.155.014-.307.038-.458.063a30.247,30.247,0,0,0-1.268-4.481c.136-.08.272-.162.4-.255,2.534-1.775,5.669-6.066,3.882-8.442-3.393-4.51-6.906-2.561-9.44-.783-.13.091-.25.188-.375.289a26.785,26.785,0,0,0-3.286-3.068c.083-.137.165-.276.239-.421a5.9,5.9,0,0,0,.332-4.651q-3.672,6.463-7.234,12.985c7.521,5.511,9.915,16.371,5.214,25.63-3.984,7.846-11.9,12.251-19.635,11.7-.345.894-.683,1.794-1.053,2.68-1,2.4-2.141,4.758-3.281,7.11q1.076.2,2.16.317c-.009.156-.017.313-.013.472.062,3.094,1.94,5.722,7.307,5.438,2.97-.157,3.48-3.3,3.419-6.394,0-.162-.017-.32-.032-.477a30.2,30.2,0,0,0,4.365-1.62c.068.138.138.275.218.408,1.535,2.548,6.859,3.63,9.394,1.854s1.319-5.737-.216-8.284c-.079-.13-.165-.25-.25-.375a32.816,32.816,0,0,0,3.144-3.648c.125.079.253.156.387.224a5.727,5.727,0,0,0,5.169-10.181c-.135-.068-.271-.125-.41-.18a32.9,32.9,0,0,0,1.09-4.692A2.967,2.967,0,0,0,1052.584,1331.546Z" transform="translate(-988.757 -1292.771)" fill="url(#linear-gradient-2)"/>
    <path id="Path_123" data-name="Path 123" d="M534.781,1226.409a5.727,5.727,0,0,0,5.169-10.181c-.134-.068-.272-.125-.41-.18a32.862,32.862,0,0,0,1.09-4.692,4.253,4.253,0,0,0,.45-.016,5.974,5.974,0,0,0,5.252-6.08,5.058,5.058,0,0,0-5.476-5.121c-.155.014-.307.038-.458.063a30.278,30.278,0,0,0-1.268-4.481c.136-.08.272-.162.4-.255a5.975,5.975,0,0,0,1.811-7.828,5.059,5.059,0,0,0-7.369-1.4c-.13.092-.25.187-.375.289a26.746,26.746,0,0,0-3.287-3.068c.084-.137.166-.275.239-.421a5.289,5.289,0,1,0-9.4-4.774c-.074.146-.138.293-.2.442a26.721,26.721,0,0,0-4.417-.843c.009-.156.016-.312.013-.472a5.058,5.058,0,0,0-5.476-5.121,5.973,5.973,0,0,0-5.245,6.073c0,.162.017.32.032.477a30.186,30.186,0,0,0-4.366,1.62c-.067-.138-.137-.276-.217-.408a5.058,5.058,0,0,0-7.369-1.4,5.974,5.974,0,0,0-1.811,7.828c.079.13.165.25.25.375a32.907,32.907,0,0,0-3.144,3.648c-.125-.079-.253-.155-.387-.224a5.726,5.726,0,0,0-5.168,10.18c.135.069.272.125.41.181a32.933,32.933,0,0,0-1.09,4.692,4.256,4.256,0,0,0-.45.016,5.974,5.974,0,0,0-5.251,6.08,5.058,5.058,0,0,0,5.476,5.121c.155-.014.307-.038.458-.062a30.276,30.276,0,0,0,1.268,4.481c-.136.08-.272.162-.4.254a5.975,5.975,0,0,0-1.811,7.828,5.059,5.059,0,0,0,7.369,1.4c.13-.091.25-.187.375-.289a26.73,26.73,0,0,0,3.287,3.068c-.084.137-.165.276-.239.422a5.289,5.289,0,1,0,9.4,4.774c.074-.146.138-.294.2-.442a26.706,26.706,0,0,0,4.416.843c-.009.156-.017.312-.013.471a5.059,5.059,0,0,0,5.476,5.124,5.974,5.974,0,0,0,5.251-6.08c0-.162-.016-.32-.033-.477a30.117,30.117,0,0,0,4.365-1.62c.068.138.138.275.218.408a5.059,5.059,0,0,0,7.369,1.4,5.974,5.974,0,0,0,1.811-7.828c-.079-.131-.165-.25-.25-.375a32.982,32.982,0,0,0,3.145-3.648C534.52,1226.259,534.646,1226.34,534.781,1226.409Zm-32.367.41c-9.43-4.786-12.868-16.942-7.685-27.149s17.026-14.6,26.453-9.816S534.05,1206.8,528.868,1217s-17.027,14.6-26.454,9.818Z" transform="translate(-474.463 -1172.243)" fill="url(#linear-gradient-3)"/>
  </g>
  <g id="Group_18" data-name="Group 18" transform="translate(71.142 5.444)" opacity="0.514">
    <path id="Path_124" data-name="Path 124" d="M1919.527,485.892a5.288,5.288,0,0,0,4.771-9.4c-.125-.062-.25-.116-.375-.167a30.436,30.436,0,0,0,1.006-4.331,3.845,3.845,0,0,0,.415-.015,5.514,5.514,0,0,0,4.847-5.612,4.67,4.67,0,0,0-5.055-4.73c-.143.013-.283.036-.423.063a27.876,27.876,0,0,0-1.171-4.136c.125-.074.249-.15.375-.235a5.514,5.514,0,0,0,1.671-7.226,4.67,4.67,0,0,0-6.8-1.29c-.12.084-.233.175-.344.267a24.679,24.679,0,0,0-3.034-2.832c.077-.125.153-.254.22-.389,1.317-2.6,3.039-5.43.625-6.609-5.588-2.728-7.985-.393-9.305,2.2-.068.134-.125.271-.183.408a24.7,24.7,0,0,0-4.077-.778c.008-.144.015-.289.012-.437-.057-2.856.79-4.4-1.955-4.455-5.985-.117-8.005,2.481-7.947,5.338,0,.149.016.3.03.437a27.824,27.824,0,0,0-4.03,1.5c-.062-.125-.125-.254-.2-.375a4.67,4.67,0,0,0-6.8-1.29,5.514,5.514,0,0,0-1.671,7.225c.073.121.153.233.233.344a30.369,30.369,0,0,0-2.9,3.368c-.116-.073-.234-.144-.358-.207a5.288,5.288,0,0,0-4.772,9.4c.125.063.25.116.378.167a30.418,30.418,0,0,0-1.006,4.331,3.9,3.9,0,0,0-.415.015,5.515,5.515,0,0,0-4.848,5.612,4.67,4.67,0,0,0,5.054,4.729,4.14,4.14,0,0,0,.423-.062,27.866,27.866,0,0,0,1.171,4.136c-.125.074-.25.15-.375.235a5.515,5.515,0,0,0-1.67,7.225c1.418,2.351,6.108,3.444,8.447,1.8.12-.084-1.413-.687-1.3-.781a24.678,24.678,0,0,0,3.034,2.832c-.077.125-.153.254-.221.389a4.882,4.882,0,1,0,8.68,4.4c.068-.134.125-.271.183-.408a24.7,24.7,0,0,0,4.077.778c-.009.144-.015.289-.013.437a4.669,4.669,0,0,0,5.054,4.729,5.515,5.515,0,0,0,4.848-5.612,4.227,4.227,0,0,0-.031-.437,27.87,27.87,0,0,0,4.03-1.5,4.177,4.177,0,0,0,.2.375,4.67,4.67,0,0,0,6.8,1.29,5.515,5.515,0,0,0,1.671-7.225c-.073-.121-.152-.233-.233-.344a30.433,30.433,0,0,0,2.9-3.368A3.342,3.342,0,0,0,1919.527,485.892Zm-29.877.378c-8.7-4.418-11.879-15.638-7.094-25.061s15.716-13.479,24.417-9.061,11.878,15.638,7.094,25.061-15.718,13.479-24.423,9.061Z" transform="translate(-1866.434 -436.185)" fill="url(#linear-gradient-4)"/>
    <path id="Path_125" data-name="Path 125" d="M2453.45,583.307a5.516,5.516,0,0,0,4.847-5.612,4.67,4.67,0,0,0-5.056-4.729c-.143.013-.282.036-.422.062a27.88,27.88,0,0,0-1.171-4.136c.125-.074.25-.15.375-.235,2.339-1.639,5.233-5.6,3.584-7.793-3.133-4.163-6.374-2.361-8.714-.722-.119.084-.232.175-.344.267a24.74,24.74,0,0,0-3.034-2.832c.077-.125.153-.254.221-.389a5.446,5.446,0,0,0,.305-4.293q-3.389,5.966-6.677,11.987c6.943,5.087,9.152,15.113,4.813,23.659-3.677,7.244-10.986,11.309-18.124,10.8-.317.826-.63,1.656-.972,2.474-.925,2.219-1.975,4.392-3.028,6.563q.993.187,1.993.293c-.009.144-.015.289-.012.437.058,2.856,1.791,5.283,6.745,5.019,2.74-.145,3.213-3.046,3.155-5.9a4.1,4.1,0,0,0-.03-.437,27.807,27.807,0,0,0,4.029-1.5,4.071,4.071,0,0,0,.2.375c1.418,2.351,6.332,3.35,8.672,1.711s1.217-5.3-.2-7.647c-.073-.12-.152-.233-.233-.344a30.6,30.6,0,0,0,2.9-3.368c.115.073.233.143.357.207a5.288,5.288,0,0,0,4.772-9.4c-.124-.062-.25-.116-.374-.167a30.636,30.636,0,0,0,1.007-4.331C2453.175,583.322,2453.312,583.32,2453.45,583.307Z" transform="translate(-2394.546 -547.512)" fill="url(#linear-gradient-5)"/>
    <path id="Path_126" data-name="Path 126" d="M1975.477,486.262a5.288,5.288,0,0,0,4.772-9.4c-.125-.062-.25-.116-.374-.167a30.471,30.471,0,0,0,1.006-4.331,3.88,3.88,0,0,0,.415-.015,5.514,5.514,0,0,0,4.848-5.612,4.67,4.67,0,0,0-5.055-4.73c-.143.013-.283.035-.423.062a27.7,27.7,0,0,0-1.171-4.136c.125-.074.25-.15.375-.236a5.514,5.514,0,0,0,1.671-7.225,4.669,4.669,0,0,0-6.8-1.29c-.12.084-.233.175-.344.267a24.7,24.7,0,0,0-3.034-2.832c.077-.125.153-.254.221-.389a4.882,4.882,0,1,0-8.679-4.4c-.068.134-.125.271-.184.408a24.689,24.689,0,0,0-4.076-.778c.009-.144.015-.289.012-.437a4.669,4.669,0,0,0-5.054-4.729,5.514,5.514,0,0,0-4.848,5.612,4.2,4.2,0,0,0,.03.437,27.861,27.861,0,0,0-4.03,1.5,4.2,4.2,0,0,0-.2-.375,4.67,4.67,0,0,0-6.8-1.29,5.514,5.514,0,0,0-1.67,7.225c.072.121.152.233.233.344a30.41,30.41,0,0,0-2.9,3.368c-.116-.073-.234-.144-.358-.207a5.288,5.288,0,0,0-4.772,9.4c.125.062.25.116.375.167a30.449,30.449,0,0,0-1.005,4.331,3.883,3.883,0,0,0-.416.015,5.514,5.514,0,0,0-4.847,5.612,4.669,4.669,0,0,0,5.055,4.729,4.11,4.11,0,0,0,.422-.062,27.846,27.846,0,0,0,1.171,4.136c-.125.074-.25.15-.374.235a5.514,5.514,0,0,0-1.671,7.225,4.669,4.669,0,0,0,6.8,1.29c.12-.084.233-.175.344-.267a24.67,24.67,0,0,0,3.034,2.832c-.077.125-.153.254-.221.389a4.882,4.882,0,1,0,8.679,4.4c.068-.134.125-.271.184-.408a24.7,24.7,0,0,0,4.077.778c-.009.144-.015.289-.012.437a4.67,4.67,0,0,0,5.055,4.729,5.515,5.515,0,0,0,4.847-5.612,4.066,4.066,0,0,0-.031-.437,27.911,27.911,0,0,0,4.03-1.5,4.2,4.2,0,0,0,.2.375,4.669,4.669,0,0,0,6.8,1.289,5.515,5.515,0,0,0,1.671-7.225c-.073-.121-.153-.233-.233-.344a30.371,30.371,0,0,0,2.9-3.368C1975.24,486.124,1975.359,486.2,1975.477,486.262Zm-29.877.379c-8.7-4.418-11.878-15.638-7.094-25.061s15.717-13.479,24.418-9.061,11.878,15.638,7.094,25.061-15.711,13.478-24.416,9.061Z" transform="translate(-1919.813 -436.262)" fill="url(#linear-gradient-6)"/>
  </g>
  <g id="Group_2610" data-name="Group 2610" transform="translate(3.472 14.835)">
    <g id="Group_22" data-name="Group 22" transform="translate(0 17.583)">
      <path id="Path_127" data-name="Path 127" d="M771.017,1407.769l-22.657.812V1349.11l22.657.542Z" transform="translate(-732.214 -1334.015)" fill="#002555"/>
      <path id="Path_128" data-name="Path 128" d="M915.838,1411.661l-8.2.293V1352.92l8.2.2Z" transform="translate(-884.154 -1337.65)" fill="url(#linear-gradient-7)"/>
      <path id="Path_129" data-name="Path 129" d="M651.464,1053.337l-115.414-3.453v-6.464l2.423-1.214,116.883,10.045Z" transform="translate(-529.687 -1041.249)" fill="#002555"/>
      <path id="Path_130" data-name="Path 130" d="M703.366,2647.674l-112.5,10.8-2.455-1.312v-6.209L699.5,2646.5Z" transform="translate(-579.634 -2571.623)" fill="#002160"/>
      <path id="Path_131" data-name="Path 131" d="M528.654,2800.257l-128.351,13.4-2.343-1.437v-7.137l126.736-6.1Z" transform="translate(-397.96 -2717.087)" fill="#002458"/>
      <path id="Path_132" data-name="Path 132" d="M737.379,1026.789l-107.664-4.013,2.919-1.21,108.6,4.048Z" transform="translate(-619.033 -1021.567)" fill="#002652"/>
      <g id="Group_19" data-name="Group 19" transform="translate(11.599 11.435)">
        <path id="Path_133" data-name="Path 133" d="M679.149,1271.391l-25.326-1.745c-1.2-.032-4.134,1.954-4.134,3.172v.762a2.248,2.248,0,0,0,2.176,2.252l27.283.583c1.135.024,4.4-.952,4.4-2.134l-2.347-.7A2.164,2.164,0,0,0,679.149,1271.391Z" transform="translate(-649.689 -1269.645)" fill="#002458"/>
        <path id="Path_134" data-name="Path 134" d="M679.149,2565.9l-27.282.906a2.281,2.281,0,0,0-2.176,2.278v.762c0,1.217,2.214,3.376,3.414,3.33l26.042-2.248a2.2,2.2,0,0,0,2.054-2.217l2.48-.862C683.682,2566.66,680.284,2565.855,679.149,2565.9Z" transform="translate(-649.689 -2506.166)" fill="#002458"/>
      </g>
      <path id="Path_135" data-name="Path 135" d="M1654.231,1426.542l-20.9.75V1370.25l20.9.5Z" transform="translate(-1576.404 -1354.181)" fill="#002458"/>
      <path id="Path_136" data-name="Path 136" d="M1787.752,1430.127l-7.564.27V1373.76l7.564.18Z" transform="translate(-1716.498 -1357.53)" fill="url(#linear-gradient-7)"/>
      <g id="Group_20" data-name="Group 20" transform="translate(52.735 12.519)">
        <path id="Path_137" data-name="Path 137" d="M1569.569,1294.816l-23.214-1.687c-1.106-.028-3.962,1.919-3.962,3.088v.731a2.119,2.119,0,0,0,2.005,2.16l25.171.538c1.048.022,4.808-.929,4.808-2.065l-2.91-.66a2.043,2.043,0,0,0-1.9-2.107Z" transform="translate(-1542.391 -1293.129)" fill="#00235c"/>
        <path id="Path_138" data-name="Path 138" d="M1569.579,2537.909l-25.171.836a2.149,2.149,0,0,0-2.005,2.186v.73c0,1.17,3.422,3.219,4.528,3.177l22.649-2.1a2.074,2.074,0,0,0,1.9-2.127l3.185-.478C1574.663,2539,1570.628,2537.879,1569.579,2537.909Z" transform="translate(-1542.401 -2480.557)" fill="#00235c"/>
      </g>
      <path id="Path_139" data-name="Path 139" d="M2469.738,1443.877l-19.346.691v-54.8l19.346.462Z" transform="translate(-2355.817 -1372.802)" fill="#002458"/>
      <path id="Path_140" data-name="Path 140" d="M2593.24,1447.2l-7,.25V1393.02l7,.167Z" transform="translate(-2485.406 -1375.902)" fill="url(#linear-gradient-7)"/>
      <g id="Group_21" data-name="Group 21" transform="translate(90.698 13.501)">
        <path id="Path_141" data-name="Path 141" d="M2394.416,1315.2l-23.293-.615c-3.969,1.006-4.8,1.9-4.8,3.02v.7a2,2,0,0,0,1.855,2.075l23.293.5c.971.021,5.091-.89,5.091-1.982l-3.335-.641C2393.229,1317.167,2392.443,1316.261,2394.416,1315.2Z" transform="translate(-2366.319 -1314.585)" fill="#00235c"/>
        <path id="Path_142" data-name="Path 142" d="M2391.458,2512.019l-23.294.773a2.033,2.033,0,0,0-1.854,2.1v.7c0,1.124,3.91,3.13,4.933,3.091l20.218-2.018a1.965,1.965,0,0,0,1.756-2.046l3.615-.528C2396.829,2513.007,2392.433,2511.988,2391.458,2512.019Z" transform="translate(-2366.309 -2456.842)" fill="#00235c"/>
      </g>
    </g>
    <path id="Path_143" data-name="Path 143" d="M826.6,1387.22l-22.945.82v-61.69l22.945.547Z" transform="translate(-784.966 -1294.721)" fill="url(#linear-gradient-10)"/>
    <path id="Path_144" data-name="Path 144" d="M973.261,1391.151l-8.306.3V1330.2l8.306.2Z" transform="translate(-938.832 -1298.394)" fill="url(#linear-gradient-11)"/>
    <path id="Path_145" data-name="Path 145" d="M705.521,1052.242l-116.883-3.5V1042.2l116.883,4.23Z" transform="translate(-579.853 -1023.665)" fill="url(#linear-gradient-12)"/>
    <path id="Path_146" data-name="Path 146" d="M754.182,2677.637l-112.5,5.188v-6.289l112.5-4.51Z" transform="translate(-630.45 -2578.394)" fill="url(#linear-gradient-12)"/>
    <path id="Path_147" data-name="Path 147" d="M577.151,2832.795,448.8,2839.851v-7.228l128.351-6.174Z" transform="translate(-446.458 -2725.698)" fill="url(#linear-gradient-12)"/>
    <path id="Path_148" data-name="Path 148" d="M792.538,661.6,683.5,657.537l57.532-17.568Z" transform="translate(-670.343 -639.969)" fill="url(#linear-gradient-15)"/>
    <g id="Group_23" data-name="Group 23" transform="translate(14.088 28.955)">
      <path id="Path_149" data-name="Path 149" d="M733.561,1269.091l-27.63-.729a2.15,2.15,0,0,0-2.2,2.175v.772a2.277,2.277,0,0,0,2.2,2.281l27.63.59a2.069,2.069,0,0,0,2.08-2.123v-.749a2.192,2.192,0,0,0-2.08-2.216Z" transform="translate(-703.728 -1268.361)" fill="url(#linear-gradient-12)"/>
      <path id="Path_150" data-name="Path 150" d="M733.562,2590.4l-27.63.917a2.311,2.311,0,0,0-2.2,2.307v.773a2.123,2.123,0,0,0,2.2,2.148l27.63-1.057a2.224,2.224,0,0,0,2.08-2.244v-.749a2.04,2.04,0,0,0-2.08-2.094Z" transform="translate(-703.728 -2529.477)" fill="url(#linear-gradient-12)"/>
    </g>
    <path id="Path_151" data-name="Path 151" d="M1721.05,1406.232l-21.17.756V1347.76l21.17.506Z" transform="translate(-1639.889 -1315.145)" fill="url(#linear-gradient-18)"/>
    <path id="Path_152" data-name="Path 152" d="M1856.284,1409.857l-7.66.273V1351.31l7.66.183Z" transform="translate(-1781.777 -1318.531)" fill="url(#linear-gradient-11)"/>
    <g id="Group_24" data-name="Group 24" transform="translate(55.745 30.05)">
      <path id="Path_153" data-name="Path 153" d="M1635.311,1292.805l-25.492-.673a2.025,2.025,0,0,0-2.031,2.091v.741a2.145,2.145,0,0,0,2.032,2.186l25.492.545a1.954,1.954,0,0,0,1.92-2.04v-.719a2.071,2.071,0,0,0-1.92-2.131Z" transform="translate(-1607.786 -1292.132)" fill="url(#linear-gradient-12)"/>
      <path id="Path_154" data-name="Path 154" d="M1635.31,2562.05l-25.492.845a2.177,2.177,0,0,0-2.031,2.211v.742a2,2,0,0,0,2.031,2.066l25.492-.975a2.1,2.1,0,0,0,1.92-2.154v-.719a1.926,1.926,0,0,0-1.92-2.017Z" transform="translate(-1607.786 -2503.531)" fill="url(#linear-gradient-12)"/>
    </g>
    <path id="Path_155" data-name="Path 155" d="M2546.929,1423.781l-19.592.7V1367.52l19.592.468Z" transform="translate(-2429.22 -1333.994)" fill="url(#linear-gradient-22)"/>
    <path id="Path_156" data-name="Path 156" d="M2672,1427.142l-7.09.253v-56.58l7.09.169Z" transform="translate(-2560.451 -1337.135)" fill="url(#linear-gradient-11)"/>
    <g id="Group_25" data-name="Group 25" transform="translate(94.191 31.059)">
      <path id="Path_157" data-name="Path 157" d="M2467.664,1314.7l-23.592-.624a1.916,1.916,0,0,0-1.878,2.011v.712a2.029,2.029,0,0,0,1.878,2.1l23.592.5a1.853,1.853,0,0,0,1.779-1.965v-.692A1.963,1.963,0,0,0,2467.664,1314.7Z" transform="translate(-2442.192 -1314.08)" fill="url(#linear-gradient-12)"/>
      <path id="Path_158" data-name="Path 158" d="M2467.664,2535.84l-23.592.783a2.061,2.061,0,0,0-1.878,2.123v.713a1.888,1.888,0,0,0,1.878,1.99l23.592-.9a1.99,1.99,0,0,0,1.779-2.071v-.692a1.826,1.826,0,0,0-1.779-1.944Z" transform="translate(-2442.191 -2479.539)" fill="url(#linear-gradient-12)"/>
    </g>
  </g>
</svg>
