<?xml version="1.0" standalone="no"?>
<!DOCTYPE svg PUBLIC "-//W3C//DTD SVG 1.1//EN" "http://www.w3.org/Graphics/SVG/1.1/DTD/svg11.dtd" >
<svg>
<metadata>
Created by FontForge 20090914 at Tue Dec 21 05:20:51 2021
 By www-data
Copyright &#194;&#169; 2016 by Alberto Romanos. All rights reserved.
</metadata>
<defs>
<font id="BwModelicaSS01-BoldCondensed" horiz-adv-x="0" >
  <font-face 
    font-family="BwModelicaSS01-BoldCondensed"
    font-weight="400"
    font-stretch="condensed"
    units-per-em="1000"
    panose-1="0 0 8 6 0 0 0 0 0 0"
    ascent="775"
    descent="-225"
    x-height="539"
    cap-height="740"
    bbox="-789 -230.002 1233 1020"
    underline-thickness="50"
    underline-position="-50"
    unicode-range="U+000D-U+FB02"
  />
<missing-glyph horiz-adv-x="1274" 
d="M77 -5c-3.33301 3.33301 -4.99805 7.66797 -4.99805 13.001c0 6.66699 1.66699 11.667 5 15l342 341h-324c-15.333 0 -23 6.33301 -23 19c0 4.66699 2.33301 10 7 16l340 342h-327c-6 0 -10.833 1.66699 -14.5 5s-5.5 8 -5.5 14v1c0 6 1.83301 10.667 5.5 14
s8.5 5 14.5 5h370c6.66699 0 12.167 -1.16699 16.5 -3.5s6.5 -7.83301 6.5 -16.5c0 -6.66699 -2.66699 -12.334 -8 -17.001l-341 -340h330c5.33301 0 10 -2 14 -6s6 -8.66699 6 -14v-327l339 338c4.66699 5.33301 10.334 8 17.001 8c12 0 18 -7.33301 18 -22v-324l340 338
c4 5.33301 9.33301 8 16 8c4.66699 0 8.66699 -1.83301 12 -5.5s5 -8.16699 5 -13.5c0 -6 -2 -10.667 -6 -14l-368 -372c-4.66699 -4.66699 -10.334 -7 -17.001 -7c-8.66699 0 -14.167 2.16699 -16.5 6.5s-3.5 9.83301 -3.5 16.5v324l-339 -340
c-4.66699 -4.66699 -10.334 -7 -17.001 -7c-8.66699 0 -14.167 2.16699 -16.5 6.5s-3.5 9.83301 -3.5 16.5v324l-340 -340c-4.66699 -4.66699 -10.334 -7 -17.001 -7c-4.66699 0 -8.66699 1.66699 -12 5z" />
    <glyph glyph-name="fi" unicode="fi" horiz-adv-x="583" 
d="M211.5 658.5c-13 -12.333 -19.499 -28.5 -19.499 -48.5v-71h122v-108h-122v-431h-132v625c0 50 14.667 90 44 120s67.666 45 114.999 45c46.667 0 83 -7 109 -21l-9 -103c-15.333 7.33301 -34.333 11 -57 11c-20.667 0 -37.5 -6.16699 -50.5 -18.5zM401.001 651
c-14.667 14.667 -22 33.334 -22 56.001s7.33301 41.5 22 56.5s33.334 22.5 56.001 22.5s41.167 -7.33301 55.5 -22s21.5 -33.667 21.5 -57c0 -22.667 -7.16699 -41.334 -21.5 -56.001s-32.833 -22 -55.5 -22s-41.334 7.33301 -56.001 22zM391.001 0v539h131v-539h-131z" />
    <glyph glyph-name="fl" unicode="fl" horiz-adv-x="584" 
d="M211.5 658.5c-13 -12.333 -19.499 -28.5 -19.499 -48.5v-71h122v-108h-122v-431h-132v625c0 50 14.667 90 44 120s67.666 45 114.999 45c46.667 0 83 -7 109 -21l-9 -103c-15.333 7.33301 -34.333 11 -57 11c-20.667 0 -37.5 -6.16699 -50.5 -18.5zM391.001 0v780h132
v-780h-132z" />
    <glyph glyph-name=".notdef" horiz-adv-x="1274" 
d="M77 -5c-3.33301 3.33301 -4.99805 7.66797 -4.99805 13.001c0 6.66699 1.66699 11.667 5 15l342 341h-324c-15.333 0 -23 6.33301 -23 19c0 4.66699 2.33301 10 7 16l340 342h-327c-6 0 -10.833 1.66699 -14.5 5s-5.5 8 -5.5 14v1c0 6 1.83301 10.667 5.5 14
s8.5 5 14.5 5h370c6.66699 0 12.167 -1.16699 16.5 -3.5s6.5 -7.83301 6.5 -16.5c0 -6.66699 -2.66699 -12.334 -8 -17.001l-341 -340h330c5.33301 0 10 -2 14 -6s6 -8.66699 6 -14v-327l339 338c4.66699 5.33301 10.334 8 17.001 8c12 0 18 -7.33301 18 -22v-324l340 338
c4 5.33301 9.33301 8 16 8c4.66699 0 8.66699 -1.83301 12 -5.5s5 -8.16699 5 -13.5c0 -6 -2 -10.667 -6 -14l-368 -372c-4.66699 -4.66699 -10.334 -7 -17.001 -7c-8.66699 0 -14.167 2.16699 -16.5 6.5s-3.5 9.83301 -3.5 16.5v324l-339 -340
c-4.66699 -4.66699 -10.334 -7 -17.001 -7c-8.66699 0 -14.167 2.16699 -16.5 6.5s-3.5 9.83301 -3.5 16.5v324l-340 -340c-4.66699 -4.66699 -10.334 -7 -17.001 -7c-4.66699 0 -8.66699 1.66699 -12 5z" />
    <glyph glyph-name="nonmarkingreturn" unicode="&#xd;" horiz-adv-x="188" 
 />
    <glyph glyph-name="space" unicode=" " horiz-adv-x="220" 
 />
    <glyph glyph-name="exclam" unicode="!" horiz-adv-x="265" 
d="M77 213l-13 527h137l-12 -527h-112zM77 12.5c-14.667 15 -22 33.833 -22 56.5s7.33301 41.334 22 56.001s33.334 22 56.001 22s41.167 -7.33301 55.5 -22s21.5 -33.334 21.5 -56.001s-7.16699 -41.5 -21.5 -56.5s-32.833 -22.5 -55.5 -22.5s-41.334 7.5 -56.001 22.5z
" />
    <glyph glyph-name="quotedbl" unicode="&#x22;" horiz-adv-x="375" 
d="M53 564l-3 216h105l-3 -216h-99zM223 564l-3 216h105l-3 -216h-99z" />
    <glyph glyph-name="numbersign" unicode="#" horiz-adv-x="678" 
d="M628 425h-110l-32 -154h113l-21 -86h-110l-38 -185h-95l39 185h-140l-38 -185h-95l39 185h-110l20 86h108l32 154h-110l19 86h109l39 189h94l-39 -189h140l39 189h94l-39 -189h111zM392 271l32 154h-140l-32 -154h140z" />
    <glyph glyph-name="dollar" unicode="$" horiz-adv-x="589" 
d="M499.5 69c-34.333 -37.333 -80.834 -61.6689 -139.501 -73.002v-86h-133v85c-71.333 12.667 -129.666 41.667 -174.999 87l52 93c52 -48 111.333 -72 178 -72c40 0 71.333 8 94 24s34 38.667 34 68c0 27.333 -11.167 49.5 -33.5 66.5s-56.166 33.167 -101.499 48.5
l-37 12c-62.667 20.667 -110.667 46.334 -144 77.001s-50 73.334 -50 128.001c0 56 16.5 103.333 49.5 142s77.833 63.667 134.5 75v85h134v-85c58.667 -12 111.667 -38.333 159 -79l-60 -95c-48.667 44.667 -103 67 -163 67c-34.667 0 -62.167 -8 -82.5 -24
s-30.5 -37.333 -30.5 -64s9.83301 -47.5 29.5 -62.5s48.5 -28.5 86.5 -40.5l37 -13c63.333 -20.667 114.666 -48.334 153.999 -83.001s59 -82 59 -142c0 -55.333 -17.167 -101.666 -51.5 -138.999z" />
    <glyph glyph-name="percent" unicode="%" horiz-adv-x="790" 
d="M76.5 456c-31.667 31.333 -47.5 72.666 -47.5 123.999c0 50.667 15.833 91.667 47.5 123s73.167 47 124.5 47s92.666 -15.5 123.999 -46.5s47 -72.167 47 -123.5s-15.667 -92.666 -47 -123.999s-72.666 -47 -123.999 -47s-92.833 15.667 -124.5 47zM255 -9l-67 34
l344 724l67 -33zM249 517.5c12 15.667 18 36.5 18 62.5s-6 46.667 -18 62s-27.667 23 -47 23c-20 0 -36 -7.66699 -48 -23s-18 -36 -18 -62s6 -46.833 18 -62.5s28 -23.5 48 -23.5c19.333 0 35 7.83301 47 23.5zM464.5 37c-31.667 31.333 -47.5 72.333 -47.5 123
c0 51.333 15.833 92.666 47.5 123.999s73.167 47 124.5 47s92.666 -15.667 123.999 -47s47 -72.666 47 -123.999s-15.667 -92.5 -47 -123.5s-72.666 -46.5 -123.999 -46.5s-92.833 15.667 -124.5 47zM636 98.5c12 15.667 18 36.167 18 61.5c0 26 -6 46.833 -18 62.5
s-27.667 23.5 -47 23.5c-20 0 -36 -7.83301 -48 -23.5s-18 -36.5 -18 -62.5c0 -25.333 6 -45.833 18 -61.5s28 -23.5 48 -23.5c19.333 0 35 7.83301 47 23.5z" />
    <glyph glyph-name="ampersand" unicode="&#x26;" horiz-adv-x="699" 
d="M660 121l-0.00195312 -106.001c-37.333 -16.667 -79 -25 -125 -25c-28.667 0 -54.334 6 -77.001 18s-40.667 28.667 -54 50c-20.667 -22 -44.5 -38.833 -71.5 -50.5s-56.167 -17.5 -87.5 -17.5c-40 0 -75.667 9 -107 27s-55.666 43.167 -72.999 75.5s-26 69.5 -26 111.5
c0 45.333 11.167 84.833 33.5 118.5s53.833 59.5 94.5 77.5c-29.333 16 -52.166 37.833 -68.499 65.5s-24.5 58.834 -24.5 93.501c0 37.333 9.33301 70.5 28 99.5s44.834 51.5 78.501 67.5s72.5 24 116.5 24c42.667 0 80.5 -8 113.5 -24s58.667 -38.5 77 -67.5
s27.5 -62.167 27.5 -99.5v-110h138v-104h-139v-172c0 -20.667 5.83301 -37.5 17.5 -50.5s27.167 -19.5 46.5 -19.5c28.667 0 56 6 82 18zM234.498 611.499c-15.667 -17 -23.5 -39.499 -23.5 -67.499c0 -28.667 7.83301 -51.667 23.5 -69s36.5 -26 62.5 -26h86v104
c0 25.333 -8 45.666 -24 60.999s-36.667 23 -62 23c-26 0 -46.833 -8.5 -62.5 -25.5zM352.998 132c19.333 19.333 29 48.333 29 87v126h-86c-36 0 -65 -11.167 -87 -33.5s-33 -51.833 -33 -88.5c0 -36 9.5 -65 28.5 -87s43.833 -33 74.5 -33c30 0 54.667 9.66699 74 29z" />
    <glyph glyph-name="quotesingle" unicode="'" horiz-adv-x="206" 
d="M53 564l-3 216h105l-3 -216h-99z" />
    <glyph glyph-name="parenleft" unicode="(" horiz-adv-x="309" 
d="M77.5 32c-27 81.333 -40.5 170.668 -40.5 268.001s13.5 186.666 40.5 267.999s58.167 152 93.5 212h122c-31.333 -60.667 -59 -129.5 -83 -206.5s-36 -168.167 -36 -273.5s12 -196.5 36 -273.5s51.667 -145.833 83 -206.5h-122c-35.333 60 -66.5 130.667 -93.5 212z" />
    <glyph glyph-name="parenright" unicode=")" horiz-adv-x="309" 
d="M100 26.5c24 77 36 168.167 36 273.5s-12 196.5 -36 273.5s-51.667 145.833 -83 206.5h122c35.333 -61.333 66.333 -132.333 93 -213s40 -169.667 40 -267s-13.333 -186.333 -40 -267s-57.667 -151.667 -93 -213h-122c31.333 60.667 59 129.5 83 206.5z" />
    <glyph glyph-name="asterisk" unicode="*" horiz-adv-x="356" 
d="M314 601l-76 -24l49 -71l-66 -49l-43 70l-44 -70l-66 49l49 71l-76 24l26 79l72 -29l-2 89h82l-2 -88l72 28z" />
    <glyph glyph-name="plus" unicode="+" horiz-adv-x="506" 
d="M469 404v-108h-150v-174h-132v174h-150v108h150v174h132v-174h150z" />
    <glyph glyph-name="comma" unicode="," horiz-adv-x="268" 
d="M7 -145l63 271h151l-81 -271h-133z" />
    <glyph glyph-name="hyphen" unicode="-" horiz-adv-x="438" 
d="M55 243v94h328v-94h-328z" />
    <glyph glyph-name="period" unicode="." horiz-adv-x="251" 
d="M66 15.5c-16.667 17 -25 37.5 -25 61.5c0 23.333 8.33301 43.5 25 60.5s36.667 25.5 60 25.5s43.333 -8.5 60 -25.5s25 -37.167 25 -60.5c0 -24 -8.33301 -44.5 -25 -61.5s-36.667 -25.5 -60 -25.5s-43.333 8.5 -60 25.5z" />
    <glyph glyph-name="slash" unicode="/" horiz-adv-x="412" 
d="M32 -100l215 880h133l-215 -880h-133z" />
    <glyph glyph-name="zero" unicode="0" horiz-adv-x="584" 
d="M158 37.5c-38.667 31.667 -68.667 76.167 -90 133.5s-32 123.666 -32 198.999s10.667 141.666 32 198.999s51.333 101.833 90 133.5s83.334 47.5 134.001 47.5s95.334 -15.833 134.001 -47.5s68.667 -76.167 90 -133.5s32 -123.666 32 -198.999
s-10.667 -141.666 -32 -198.999s-51.333 -101.833 -90 -133.5s-83.334 -47.5 -134.001 -47.5s-95.334 15.833 -134.001 47.5zM375.5 176.5c21 49 31.5 113.498 31.5 193.498s-10.5 144.5 -31.5 193.5s-48.833 73.5 -83.5 73.5c-22.667 0 -42.834 -11.167 -60.501 -33.5
s-31.334 -53.666 -41.001 -93.999s-14.5 -86.833 -14.5 -139.5s4.83301 -99.167 14.5 -139.5s23.334 -71.666 41.001 -93.999s37.834 -33.5 60.501 -33.5c34.667 0 62.5 24.5 83.5 73.5z" />
    <glyph glyph-name="one" unicode="1" horiz-adv-x="408" 
d="M196 0v557l-124 -97l-68 97l224 183h104v-740h-136z" />
    <glyph glyph-name="two" unicode="2" horiz-adv-x="537" 
d="M37 86l206 249c32.667 40 58.834 76.167 78.501 108.5s29.5 65.833 29.5 100.5c0 28 -7.66699 50.5 -23 67.5s-35.333 25.5 -60 25.5c-26.667 0 -48 -10.167 -64 -30.5s-24 -46.833 -24 -79.5l-136 11c0 42 9.16699 79 27.5 111s44.333 56.833 78 74.5
s72.5 26.5 116.5 26.5s82.667 -8.16699 116 -24.5s59.166 -39.5 77.499 -69.5s27.5 -64.667 27.5 -104c0 -48 -12.667 -94.167 -38 -138.5s-64 -96.5 -116 -156.5l-123 -146l285 2v-113h-458v86z" />
    <glyph glyph-name="three" unicode="3" horiz-adv-x="526" 
d="M389.5 418.5c31.667 -18.333 56.0029 -44.1641 73.0029 -77.4971s25.5 -71.333 25.5 -114c0 -47.333 -10.333 -88.833 -31 -124.5s-50.334 -63.334 -89.001 -83.001s-84.334 -29.5 -137.001 -29.5c-41.333 0 -80.333 6.5 -117 19.5s-66 31.167 -88 54.5l52 97
c15.333 -18.667 35.166 -33 59.499 -43s50.5 -15 78.5 -15c41.333 0 74 11.167 98 33.5s36 52.166 36 89.499c0 35.333 -11.5 63.666 -34.5 84.999s-53.5 32 -91.5 32c-32 0 -61 -8 -87 -24l-36 69l183 239h-226v113h394v-85l-172 -208
c41.333 -0.666992 77.833 -10.167 109.5 -28.5z" />
    <glyph glyph-name="four" unicode="4" horiz-adv-x="583" 
d="M324 0v144h-305v95l335 501h106v-483h91v-113h-91v-144h-136zM173 253h155l2 240z" />
    <glyph glyph-name="five" unicode="5" horiz-adv-x="536" 
d="M109 6.5c-34.667 11 -63.6699 27.4961 -87.0029 49.4961l40 99c18.667 -17.333 40.834 -30.333 66.501 -39s53.167 -13 82.5 -13c44 0 79.5 12.333 106.5 37s40.5 57.334 40.5 98.001c0 34.667 -9.66699 62.667 -29 84s-44.666 32 -75.999 32
c-18.667 0 -36.334 -2.66699 -53.001 -8s-30.667 -12.666 -42 -21.999l-85 13l45 403h346v-113h-233l-22 -171c20.667 7.33301 44.667 11 72 11c42 0 79.5 -9.16699 112.5 -27.5s58.667 -44.166 77 -77.499s27.5 -71.666 27.5 -114.999c0 -50.667 -11.667 -95.5 -35 -134.5
s-55.666 -69.167 -96.999 -90.5s-88.666 -32 -141.999 -32c-42 0 -80.333 5.5 -115 16.5z" />
    <glyph glyph-name="six" unicode="6" horiz-adv-x="534" 
d="M403.5 424c31.667 -18.667 56.6689 -45.167 75.002 -79.5s27.5 -73.5 27.5 -117.5c0 -46.667 -9.83301 -88 -29.5 -124s-47.167 -63.833 -82.5 -83.5s-76.333 -29.5 -123 -29.5s-87.834 9.83301 -123.501 29.5s-63.334 47.167 -83.001 82.5s-29.5 76 -29.5 122
c0 40 5.66699 77 17 111s29 69.333 53 106l190 299h153l-196 -291c14 2 29.667 3 47 3c38 0 72.833 -9.33301 104.5 -28zM341.502 136.5c18.333 22.333 27.5 51.833 27.5 88.5s-9.16699 66.5 -27.5 89.5s-42.166 34.5 -71.499 34.5s-53 -11.5 -71 -34.5
s-27 -52.833 -27 -89.5s9 -66.167 27 -88.5s41.667 -33.5 71 -33.5s53.166 11.167 71.499 33.5z" />
    <glyph glyph-name="seven" unicode="7" horiz-adv-x="490" 
d="M21 740h455l-223 -740h-143l194 627h-283v113z" />
    <glyph glyph-name="eight" unicode="8" horiz-adv-x="556" 
d="M484.5 313.5c19.667 -31 29.501 -66.8311 29.501 -107.498c0 -42.667 -9.83301 -80.334 -29.5 -113.001s-47.334 -58 -83.001 -76s-76.834 -27 -123.501 -27s-87.834 9 -123.501 27s-63.334 43.167 -83.001 75.5s-29.5 69.5 -29.5 111.5
c0 41.333 9.83301 77.5 29.5 108.5s46.834 54.833 81.501 71.5c-30 16.667 -53 39 -69 67s-24 60 -24 96c0 40 9 75.333 27 106s43.5 54.5 76.5 71.5s71.167 25.5 114.5 25.5s81.5 -8.33301 114.5 -25s58.5 -40.334 76.5 -71.001s27 -66 27 -106
c0 -36 -8.16699 -68 -24.5 -96s-39.166 -50.333 -68.499 -67c34.667 -16.667 61.834 -40.5 81.501 -71.5zM218.501 609.502c-15 -18.333 -22.5 -42.166 -22.5 -71.499s7.5 -53 22.5 -71s34.833 -27 59.5 -27s44.5 9 59.5 27s22.5 41.667 22.5 71s-7.5 53.166 -22.5 71.499
s-34.833 27.5 -59.5 27.5s-44.5 -9.16699 -59.5 -27.5zM349.001 133.502c18 20.333 27 47.5 27 81.5c0 33.333 -9 60.166 -27 80.499s-41.667 30.5 -71 30.5s-53 -10.167 -71 -30.5s-27 -47.166 -27 -80.499c0 -34 9 -61.167 27 -81.5s41.667 -30.5 71 -30.5
s53 10.167 71 30.5z" />
    <glyph glyph-name="nine" unicode="9" horiz-adv-x="534" 
d="M385.5 720.5c35.667 -19.667 63.332 -47.167 82.999 -82.5s29.5 -76 29.5 -122c0 -40 -5.66699 -77 -17 -111s-29 -69.333 -53 -106l-190 -299h-153l196 291c-14 -2 -29.667 -3 -47 -3c-38 0 -72.833 9.33301 -104.5 28s-56.667 45.167 -75 79.5s-27.5 73.5 -27.5 117.5
c0 46.667 9.83301 88 29.5 124s47.167 63.833 82.5 83.5s76.333 29.5 123 29.5s87.834 -9.83301 123.501 -29.5zM191.498 425.5c18.333 -23 42.166 -34.5 71.499 -34.5s53 11.5 71 34.5s27 52.833 27 89.5s-9 66.167 -27 88.5s-41.667 33.5 -71 33.5
s-53.166 -11.167 -71.499 -33.5s-27.5 -51.833 -27.5 -88.5s9.16699 -66.5 27.5 -89.5z" />
    <glyph glyph-name="colon" unicode=":" horiz-adv-x="268" 
d="M74 401.5c-16.667 17 -25 37.167 -25 60.5c0 24 8.33301 44.5 25 61.5s36.667 25.5 60 25.5s43.333 -8.5 60 -25.5s25 -37.5 25 -61.5c0 -23.333 -8.33301 -43.5 -25 -60.5s-36.667 -25.5 -60 -25.5s-43.333 8.5 -60 25.5zM74 15.5c-16.667 17 -25 37.5 -25 61.5
c0 23.333 8.33301 43.5 25 60.5s36.667 25.5 60 25.5s43.333 -8.5 60 -25.5s25 -37.167 25 -60.5c0 -24 -8.33301 -44.5 -25 -61.5s-36.667 -25.5 -60 -25.5s-43.333 8.5 -60 25.5z" />
    <glyph glyph-name="semicolon" unicode=";" horiz-adv-x="293" 
d="M92.5 401.5c-17 17 -25.498 37.167 -25.498 60.5c0 24 8.5 44.5 25.5 61.5s37.167 25.5 60.5 25.5s43.166 -8.5 59.499 -25.5s24.5 -37.5 24.5 -61.5c0 -23.333 -8.33301 -43.5 -25 -60.5s-36.334 -25.5 -59.001 -25.5c-23.333 0 -43.5 8.5 -60.5 25.5zM21.002 -145
l63 271h151l-82 -271h-132z" />
    <glyph glyph-name="less" unicode="&#x3c;" horiz-adv-x="524" 
d="M462 607v-124l-267 -133l267 -133v-124l-430 215v84z" />
    <glyph glyph-name="equal" unicode="=" horiz-adv-x="548" 
d="M58 407v108h432v-108h-432zM58 185v109h432v-109h-432z" />
    <glyph glyph-name="greater" unicode="&#x3e;" horiz-adv-x="524" 
d="M62 607l430 -215v-84l-430 -215v124l268 133l-268 133v124z" />
    <glyph glyph-name="question" unicode="?" horiz-adv-x="499" 
d="M201 325.5c8.66699 30.333 19.333 54.665 32 72.998s28 36.5 46 54.5c17.333 17.333 30 32.833 38 46.5s12 30.167 12 49.5c0 26.667 -8 48 -24 64s-36.667 24 -62 24s-46.166 -8 -62.499 -24s-25.5 -37.333 -27.5 -64l-124 6c3.33301 58.667 24.5 105.834 63.5 141.501
s89.167 53.5 150.5 53.5c44.667 0 83.834 -8.16699 117.501 -24.5s59.834 -39.166 78.501 -68.499s28 -63.333 28 -102c0 -36 -6.83301 -65.167 -20.5 -87.5s-33.834 -45.833 -60.501 -70.5c-18.667 -18 -33.834 -34.333 -45.501 -49s-21.334 -33 -29.001 -55
s-11.5 -48.667 -11.5 -80h-112c0 44.667 4.33301 82.167 13 112.5zM187.999 12.499c-14.667 15 -22 33.833 -22 56.5s7.33301 41.334 22 56.001s33.334 22 56.001 22s41.167 -7.33301 55.5 -22s21.5 -33.334 21.5 -56.001s-7.16699 -41.5 -21.5 -56.5
s-32.833 -22.5 -55.5 -22.5s-41.334 7.5 -56.001 22.5z" />
    <glyph glyph-name="at" unicode="@" horiz-adv-x="1020" 
d="M715 480l-0.00292969 -262.002c0 -20.667 4.5 -37.167 13.5 -49.5s21.167 -18.5 36.5 -18.5c24.667 0 44.5 16.167 59.5 48.5s22.5 73.5 22.5 123.5c0 64 -13.333 119.833 -40 167.5s-64.167 84.334 -112.5 110.001s-104.166 38.5 -167.499 38.5
c-70.667 0 -132.667 -15.833 -186 -47.5s-94.333 -76.167 -123 -133.5s-43 -123.666 -43 -198.999c0 -74.667 14.167 -140.334 42.5 -197.001s69 -100.5 122 -131.5s115.5 -46.5 187.5 -46.5c34.667 0 75.5 3.16699 122.5 9.5s88.167 14.5 123.5 24.5l39 -102
c-40.667 -13.333 -88 -24.166 -142 -32.499s-103.333 -12.5 -148 -12.5c-97.333 0 -182.5 20.333 -255.5 61s-129.333 98 -169 172s-59.5 159.667 -59.5 257c0 98 20.167 184 60.5 258s97.333 131.167 171 171.5s159.5 60.5 257.5 60.5c89.333 0 168 -17.167 236 -51.5
s120.833 -83 158.5 -146s56.5 -136.5 56.5 -220.5c0 -56.667 -8.83301 -107.5 -26.5 -152.5s-42.334 -80 -74.001 -105s-68.167 -37.5 -109.5 -37.5c-33.333 0 -62.666 8 -87.999 24s-44.666 38.333 -57.999 67c-14.667 -28.667 -34.5 -51.167 -59.5 -67.5
s-53.833 -24.5 -86.5 -24.5c-36 0 -68.667 9.33301 -98 28s-52.333 45.167 -69 79.5s-25 73.5 -25 117.5c0 44.667 8.33301 84.167 25 118.5s39.334 61 68.001 80s60.334 28.5 95.001 28.5c49.333 0 87.666 -19.667 114.999 -59l2 51h126zM560.997 180.498
c15.333 21 23 48.167 23 81.5c0 34 -7.66699 61.333 -23 82s-35.333 31 -60 31s-44.5 -10.333 -59.5 -31s-22.5 -48 -22.5 -82c0 -33.333 7.5 -60.5 22.5 -81.5s34.833 -31.5 59.5 -31.5s44.667 10.5 60 31.5z" />
    <glyph glyph-name="A" unicode="A" horiz-adv-x="728" 
d="M518.5 717c44.333 -22 78.667 -52.833 103 -92.5s36.5 -85.5 36.5 -137.5v-487h-136v219h-316v-219h-136v487c0 52 12.167 97.833 36.5 137.5s58.833 70.5 103.5 92.5s96 33 154 33c58.667 0 110.167 -11 154.5 -33zM522.001 332v150c0 46.667 -14.333 84.167 -43 112.5
s-66.667 42.5 -114 42.5c-48 0 -86.5 -14.167 -115.5 -42.5s-43.5 -65.833 -43.5 -112.5v-150h316z" />
    <glyph glyph-name="B" unicode="B" horiz-adv-x="641" 
d="M571.5 323c23 -31.333 34.5 -67.668 34.5 -109.001c0 -42 -9.83301 -79.167 -29.5 -111.5s-47.5 -57.5 -83.5 -75.5s-77.667 -27 -125 -27h-291v740h289c60.667 0 109.667 -17.667 147 -53s56 -82.333 56 -141c0 -32.667 -8 -62.167 -24 -88.5s-39 -48.166 -69 -65.499
c40.667 -14.667 72.5 -37.667 95.5 -69zM214 436.998h115c30 0 54 8.66699 72 26s27 40.333 27 69s-9 51.667 -27 69s-41.667 26 -71 26h-116v-190zM435 141.998c20 19.333 30 45 30 77c0 30.667 -10 55.667 -30 75s-46 29 -78 29h-143v-210h142c32.667 0 59 9.66699 79 29z
" />
    <glyph glyph-name="C" unicode="C" horiz-adv-x="693" 
d="M208 37.5c-54 31.667 -95.833 76.499 -125.5 134.499s-44.5 124.667 -44.5 200c0 74.667 14.833 140.667 44.5 198s71.334 101.666 125.001 132.999s115.5 47 185.5 47c110 0 198 -39.667 264 -119l-85 -88c-19.333 28.667 -44.333 51.5 -75 68.5s-64.667 25.5 -102 25.5
c-42.667 0 -80.334 -11 -113.001 -33s-58 -53.167 -76 -93.5s-27 -86.833 -27 -139.5c0 -53.333 9 -100.166 27 -140.499s43.5 -71.666 76.5 -93.999s71.167 -33.5 114.5 -33.5c80.667 0 144 39.333 190 118l92 -82c-33.333 -48.667 -74 -85.667 -122 -111
s-102.333 -38 -163 -38c-70 0 -132 15.833 -186 47.5z" />
    <glyph glyph-name="D" unicode="D" horiz-adv-x="712" 
d="M514 694c50.667 -30.667 90 -74 118 -130s42 -120.667 42 -194s-14 -138 -42 -194s-67.333 -99.333 -118 -130s-109.334 -46 -176.001 -46h-261v740h261c66.667 0 125.334 -15.333 176.001 -46zM440 145c29.333 21.333 52.166 51.5 68.499 90.5s24.5 83.833 24.5 134.5
c0 51.333 -8.16699 96.333 -24.5 135s-39.166 68.667 -68.499 90s-63 32 -101 32h-125v-514h125c38 0 71.667 10.667 101 32z" />
    <glyph glyph-name="E" unicode="E" horiz-adv-x="589" 
d="M214 113h329v-113h-466v740h459v-113h-322v-195h293v-113h-293v-206z" />
    <glyph glyph-name="F" unicode="F" horiz-adv-x="535" 
d="M505 627h-291v-215h248v-113h-248v-299h-137v740h428v-113z" />
    <glyph glyph-name="G" unicode="G" horiz-adv-x="737" 
d="M714 370c0 -75.333 -13.4971 -141.667 -40.4971 -199s-65.333 -101.833 -115 -133.5s-107.834 -47.5 -174.501 -47.5c-68.667 0 -129.167 15.833 -181.5 47.5s-92.833 76.167 -121.5 133.5s-43 123.666 -43 198.999s14.167 141.666 42.5 198.999
s68.666 101.833 120.999 133.5s113.166 47.5 182.499 47.5c96.667 0 176 -27 238 -81l-90 -86c-32.667 36 -81.334 54 -146.001 54c-40.667 0 -76.667 -11.167 -108 -33.5s-55.666 -53.666 -72.999 -93.999s-26 -86.833 -26 -139.5s8.5 -99.167 25.5 -139.5
s41.167 -71.666 72.5 -93.999s67.333 -33.5 108 -33.5c53.333 0 96.5 18 129.5 54s52.167 84.333 57.5 145h-166v113h306c1.33301 -10 2 -25 2 -45z" />
    <glyph glyph-name="H" unicode="H" horiz-adv-x="774" 
d="M561 740h136v-740h-136v320h-347v-320h-137v740h137v-307h347v307z" />
    <glyph glyph-name="I" unicode="I" horiz-adv-x="291" 
d="M77 0v740h137v-740h-137z" />
    <glyph glyph-name="J" unicode="J" horiz-adv-x="530" 
d="M460 223c0 -46 -10.332 -86.6689 -30.999 -122.002s-50 -62.666 -88 -81.999s-82 -29 -132 -29c-74.667 0 -139.334 25.333 -194.001 76l68 91c14.667 -17.333 32 -30.666 52 -39.999s42 -14 66 -14c36.667 0 66.167 11.5 88.5 34.5s33.5 53.5 33.5 91.5v398h-273v113
h410v-517z" />
    <glyph glyph-name="K" unicode="K" horiz-adv-x="640" 
d="M486 0l-219 322h-53v-322h-137v740h137v-305h52l207 305h161l-251 -360l263 -380h-160z" />
    <glyph glyph-name="L" unicode="L" horiz-adv-x="518" 
d="M214 113h290v-113h-427v740h137v-627z" />
    <glyph glyph-name="M" unicode="M" horiz-adv-x="902" 
d="M845 0h-136l-25 498l-196 -498h-74l-196 498l-25 -498h-136l45 744h151l198 -521l198 521h151z" />
    <glyph glyph-name="N" unicode="N" horiz-adv-x="785" 
d="M77 0v740h85l413 -491l-3 491h136v-740h-85l-412 491l3 -491h-137z" />
    <glyph glyph-name="O" unicode="O" horiz-adv-x="779" 
d="M206 37.5c-53.333 31.667 -94.666 76.167 -123.999 133.5s-44 123.666 -44 198.999s14.667 141.666 44 198.999s70.666 101.833 123.999 133.5s115 47.5 185 47.5c69.333 0 130.5 -15.833 183.5 -47.5s94.167 -76.167 123.5 -133.5s44 -123.666 44 -198.999
s-14.667 -141.666 -44 -198.999s-70.5 -101.833 -123.5 -133.5s-114.167 -47.5 -183.5 -47.5c-70 0 -131.667 15.833 -185 47.5zM501 136.5c32 22.333 56.667 53.666 74 93.999s26 86.833 26 139.5s-8.66699 99.167 -26 139.5s-42 71.666 -74 93.999s-68.667 33.5 -110 33.5
c-42 0 -79 -11.167 -111 -33.5s-56.833 -53.666 -74.5 -93.999s-26.5 -86.833 -26.5 -139.5s8.83301 -99.167 26.5 -139.5s42.5 -71.666 74.5 -93.999s69 -33.5 111 -33.5c41.333 0 78 11.167 110 33.5z" />
    <glyph glyph-name="P" unicode="P" horiz-adv-x="612" 
d="M472 710.5c36.667 -19.667 65.168 -47.501 85.501 -83.501s30.5 -77.667 30.5 -125c0 -49.333 -10.333 -92.666 -31 -129.999s-49.834 -66.333 -87.501 -87s-81.167 -31 -130.5 -31h-125v-254h-137v740h268c48 0 90.333 -9.83301 127 -29.5zM416.001 402.499
c20.667 23.667 31 55.167 31 94.5s-10.667 70.833 -32 94.5s-49.333 35.5 -84 35.5h-117v-260h117c36 0 64.333 11.833 85 35.5z" />
    <glyph glyph-name="Q" unicode="Q" horiz-adv-x="780" 
d="M603 0l-29 37.002c-54 -31.333 -115 -47 -183 -47c-70 0 -131.667 15.833 -185 47.5s-94.666 76.167 -123.999 133.5s-44 123.666 -44 198.999s14.667 141.666 44 198.999s70.666 101.833 123.999 133.5s115 47.5 185 47.5c69.333 0 130.5 -15.833 183.5 -47.5
s94.167 -76.167 123.5 -133.5s44 -123.666 44 -198.999c0 -50 -6.66699 -96.333 -20 -139s-32.333 -80.334 -57 -113.001l95 -118h-157zM498 135.002l-108.001 138.999h148l36 -45c18 40 27 87 27 141c0 52.667 -8.66699 99.167 -26 139.5s-42 71.666 -74 93.999
s-68.667 33.5 -110 33.5c-42 0 -79 -11.167 -111 -33.5s-56.833 -53.666 -74.5 -93.999s-26.5 -86.833 -26.5 -139.5s8.83301 -99.167 26.5 -139.5s42.5 -71.666 74.5 -93.999s69 -33.5 111 -33.5c40.667 0 76.334 10.667 107.001 32z" />
    <glyph glyph-name="R" unicode="R" horiz-adv-x="662" 
d="M337 274l-123 -0.00195312v-274h-137v740h278c48 0 90.167 -9.66699 126.5 -29s64.5 -46.666 84.5 -81.999s30 -76 30 -122c0 -46.667 -10.833 -87.667 -32.5 -123s-52.167 -62.666 -91.5 -81.999l177 -302h-159zM214 386.998h115c38 0 68.667 11 92 33s35 51 35 87
s-10.667 65 -32 87s-49.333 33 -84 33h-126v-240z" />
    <glyph glyph-name="S" unicode="S" horiz-adv-x="589" 
d="M159.5 13.5c-41.667 15.667 -77.499 38.498 -107.499 68.498l52 93c52 -48 111.333 -72 178 -72c40 0 71.333 8 94 24s34 38.667 34 68c0 27.333 -11.167 49.5 -33.5 66.5s-56.166 33.167 -101.499 48.5l-37 12c-62.667 20.667 -110.667 46.334 -144 77.001
s-50 73.334 -50 128.001c0 44 10.333 82.833 31 116.5s50 59.834 88 78.501s81.667 28 131 28c86 0 161.667 -28.333 227 -85l-60 -95c-48.667 44.667 -103 67 -163 67c-34.667 0 -62.167 -8 -82.5 -24s-30.5 -37.333 -30.5 -64s9.83301 -47.5 29.5 -62.5
s48.5 -28.5 86.5 -40.5l37 -13c63.333 -20.667 114.666 -48.334 153.999 -83.001s59 -82 59 -142c0 -43.333 -10.833 -81.5 -32.5 -114.5s-52 -58.5 -91 -76.5s-84.167 -27 -135.5 -27c-46.667 0 -90.834 7.83301 -132.501 23.5z" />
    <glyph glyph-name="T" unicode="T" horiz-adv-x="566" 
d="M552 740v-113h-201v-627h-136v627h-202v113h539z" />
    <glyph glyph-name="U" unicode="U" horiz-adv-x="728" 
d="M210 23c-44.667 22 -79.168 52.8311 -103.501 92.498s-36.5 85.5 -36.5 137.5v487h136v-481c0 -47.333 14.5 -85.166 43.5 -113.499s67.5 -42.5 115.5 -42.5c47.333 0 85.333 14.333 114 43s43 66.334 43 113.001v481h136v-487c0 -52 -12.167 -97.833 -36.5 -137.5
s-58.666 -70.5 -102.999 -92.5s-95.833 -33 -154.5 -33c-58 0 -109.333 11 -154 33z" />
    <glyph glyph-name="V" unicode="V" horiz-adv-x="687" 
d="M280 0l-283 740h146l201 -571l200 571h145l-282 -740h-127z" />
    <glyph glyph-name="W" unicode="W" horiz-adv-x="1029" 
d="M882 740h145l-228 -740h-127l-157 527l-158 -527h-126l-229 740h145l154 -557l150 557h127l151 -557z" />
    <glyph glyph-name="X" unicode="X" horiz-adv-x="624" 
d="M628 0h-156l-160 265l-158 -265h-157l240 382l-224 358h157l142 -239l142 239h157l-224 -357z" />
    <glyph glyph-name="Y" unicode="Y" horiz-adv-x="628" 
d="M474 740h145l-237 -465v-275h-136v275l-237 465h146l160 -344z" />
    <glyph glyph-name="Z" unicode="Z" horiz-adv-x="606" 
d="M211 113h364v-113h-542v85l355 542h-350v113h528v-85z" />
    <glyph glyph-name="bracketleft" unicode="[" horiz-adv-x="358" 
d="M71 -180v960h260v-113h-124v-734h124v-113h-260z" />
    <glyph glyph-name="backslash" unicode="\" horiz-adv-x="412" 
d="M247 -100l-215 880h133l215 -880h-133z" />
    <glyph glyph-name="bracketright" unicode="]" horiz-adv-x="358" 
d="M288 -180h-261v113h124v734h-124v113h261v-960z" />
    <glyph glyph-name="asciicircum" unicode="^" horiz-adv-x="503" 
d="M465 313h-128l-85 187l-86 -187h-128l150 326h127z" />
    <glyph glyph-name="underscore" unicode="_" horiz-adv-x="541" 
d="M23 -94v94h496v-94h-496z" />
    <glyph glyph-name="grave" unicode="`" horiz-adv-x="600" 
d="M145 618l-164 161h153l123 -161h-112z" />
    <glyph glyph-name="a" unicode="a" horiz-adv-x="614" 
d="M554 539v-539.001h-127l-3 78c-16.667 -28 -38.334 -49.667 -65.001 -65s-57.667 -23 -93 -23c-43.333 0 -82.833 11.667 -118.5 35s-63.667 56 -84 98s-30.5 90 -30.5 144c0 55.333 10.167 104.333 30.5 147s48.333 75.834 84 99.501s75.167 35.5 118.5 35.5
c35.333 0 66.333 -7.66699 93 -23s48.334 -37.333 65.001 -66l3 79h127zM387 148.499c23.333 30.333 35 70.5 35 120.5s-11.667 90.333 -35 121s-54 46 -92 46c-37.333 0 -67.666 -15.333 -90.999 -46s-35 -71.334 -35 -122.001c0 -49.333 11.667 -89.166 35 -119.499
s53.666 -45.5 90.999 -45.5c38 0 68.667 15.167 92 45.5z" />
    <glyph glyph-name="b" unicode="b" horiz-adv-x="615" 
d="M466.5 513.5c35.667 -23.667 63.668 -56.833 84.001 -99.5s30.5 -91.667 30.5 -147c0 -54 -10.167 -102 -30.5 -144s-48.333 -74.667 -84 -98s-75.167 -35 -118.5 -35c-35.333 0 -66.333 7.66699 -93 23s-48.334 37 -65.001 65l-3 -78h-127v780h132v-316
c36.667 56.667 88.667 85 156 85c43.333 0 82.833 -11.833 118.5 -35.5zM410.001 148.501c23.333 30.333 35 70.166 35 119.499c0 50.667 -11.667 91.334 -35 122.001s-54 46 -92 46s-68.5 -15.333 -91.5 -46s-34.5 -71 -34.5 -121s11.5 -90.167 34.5 -120.5
s53.5 -45.5 91.5 -45.5s68.667 15.167 92 45.5z" />
    <glyph glyph-name="c" unicode="c" horiz-adv-x="495" 
d="M157 25c-39.333 23.333 -69.835 56.167 -91.502 98.5s-32.5 91.166 -32.5 146.499s11 104 33 146s52.833 74.667 92.5 98s85.834 35 138.501 35c62.667 0 118.334 -20.667 167.001 -62l-74 -90c-24 26 -54 39 -90 39c-39.333 0 -70.833 -15.333 -94.5 -46
s-35.5 -71 -35.5 -121s11.833 -90.167 35.5 -120.5s55.167 -45.5 94.5 -45.5c46 0 81.333 16.333 106 49l75 -87c-23.333 -25.333 -50.833 -44.166 -82.5 -56.499s-66.5 -18.5 -104.5 -18.5c-52 0 -97.667 11.667 -137 35z" />
    <glyph glyph-name="d" unicode="d" horiz-adv-x="614" 
d="M554 780l0.000976562 -780.001h-127l-3 78c-16.667 -28 -38.334 -49.667 -65.001 -65s-57.667 -23 -93 -23c-43.333 0 -82.833 11.667 -118.5 35s-63.667 56 -84 98s-30.5 90 -30.5 144c0 55.333 10.167 104.333 30.5 147s48.333 75.834 84 99.501
s75.167 35.5 118.5 35.5c67.333 0 119.333 -28.333 156 -85v316h132zM387.001 148.499c23.333 30.333 35 70.5 35 120.5s-11.667 90.333 -35 121s-54 46 -92 46c-37.333 0 -67.666 -15.333 -90.999 -46s-35 -71.334 -35 -122.001c0 -49.333 11.667 -89.166 35 -119.499
s53.666 -45.5 90.999 -45.5c38 0 68.667 15.167 92 45.5z" />
    <glyph glyph-name="e" unicode="e" horiz-adv-x="554" 
d="M520 222l-348 -0.00195312c8.66699 -85.333 45.667 -128 111 -128c22.667 0 43.667 5.66699 63 17s36 27.333 50 48l101 -51c-22 -36.667 -51.5 -65.5 -88.5 -86.5s-78.167 -31.5 -123.5 -31.5c-50 0 -94 11.5 -132 34.5s-67.5 55.333 -88.5 97
s-31.5 89.834 -31.5 144.501c0 56 10.167 105.333 30.5 148s49 75.834 86 99.501s79.833 35.5 128.5 35.5s91.5 -11.333 128.5 -34s65.667 -54.5 86 -95.5s30.5 -88.5 30.5 -142.5c0 -20.667 -1 -39 -3 -55zM205.5 410.498c-17.667 -23 -28.833 -55.833 -33.5 -98.5h214
c-4 42.667 -15.167 75.5 -33.5 98.5s-43.166 34.5 -74.499 34.5c-30.667 0 -54.834 -11.5 -72.501 -34.5z" />
    <glyph glyph-name="f" unicode="f" horiz-adv-x="330" 
d="M211.5 658.5c-13 -12.333 -19.499 -28.5 -19.499 -48.5v-71h122v-108h-122v-431h-132v625c0 50 14.667 90 44 120s67.666 45 114.999 45c46.667 0 83 -7 109 -21l-9 -103c-15.333 7.33301 -34.333 11 -57 11c-20.667 0 -37.5 -6.16699 -50.5 -18.5z" />
    <glyph glyph-name="g" unicode="g" horiz-adv-x="614" 
d="M555 539v-501.001c0 -53.333 -12 -100.333 -36 -141s-58.167 -72 -102.5 -94s-95.5 -33 -153.5 -33c-43.333 0 -83.5 5.66699 -120.5 17s-69.167 28.333 -96.5 51l29 104c51.333 -39.333 113 -59 185 -59c49.333 0 88.833 14.333 118.5 43s44.5 66.667 44.5 114v34
c-36 -56 -88.333 -84 -157 -84c-43.333 0 -82.666 11.833 -117.999 35.5s-63.166 56.834 -83.499 99.501s-30.5 91.667 -30.5 147c0 54 10.167 102 30.5 144s48.166 74.667 83.499 98s74.666 35 117.999 35c70 0 123 -29.333 159 -88l3 78h127zM388 148.999
c23.333 30.667 35 70.667 35 120c0 50 -11.667 90.333 -35 121s-54 46 -92 46c-37.333 0 -67.666 -15.333 -90.999 -46s-35 -70.667 -35 -120c0 -50 11.667 -90.333 35 -121s53.666 -46 90.999 -46c38 0 68.667 15.333 92 46z" />
    <glyph glyph-name="h" unicode="h" horiz-adv-x="592" 
d="M485 495.5c35.333 -35.667 52.999 -82.833 52.999 -141.5v-354h-132v333c0 31.333 -9.66699 56.333 -29 75s-45.333 28 -78 28s-58.667 -9.33301 -78 -28s-29 -43.667 -29 -75v-333h-132v780h132v-301c18 22.667 40.333 40 67 52s55.334 18 86.001 18
c58 0 104.667 -17.833 140 -53.5z" />
    <glyph glyph-name="i" unicode="i" horiz-adv-x="253" 
d="M71 651c-14.667 14.667 -22 33.334 -22 56.001s7.33301 41.5 22 56.5s33.334 22.5 56.001 22.5s41.167 -7.33301 55.5 -22s21.5 -33.667 21.5 -57c0 -22.667 -7.16699 -41.334 -21.5 -56.001s-32.833 -22 -55.5 -22s-41.334 7.33301 -56.001 22zM61 0v539h131v-539h-131z
" />
    <glyph glyph-name="j" unicode="j" horiz-adv-x="253" 
d="M70 651c-14.667 14.667 -22 33.334 -22 56.001s7.33301 41.5 22 56.5s33.334 22.5 56.001 22.5s41.167 -7.33301 55.5 -22s21.5 -33.667 21.5 -57c0 -22.667 -7.16699 -41.334 -21.5 -56.001s-32.833 -22 -55.5 -22s-41.334 7.33301 -56.001 22zM61 -220v759h131v-759
h-131z" />
    <glyph glyph-name="k" unicode="k" horiz-adv-x="551" 
d="M398 0l-165 229h-41v-229h-132v780h132v-443h41l154 202h162l-205 -255l216 -284h-162z" />
    <glyph glyph-name="l" unicode="l" horiz-adv-x="254" 
d="M61 0v780h132v-780h-132z" />
    <glyph glyph-name="m" unicode="m" horiz-adv-x="885" 
d="M735 524.5c30 -16.333 53.334 -39.168 70.001 -68.501s25 -63.333 25 -102v-354h-132v333c0 31.333 -8.5 56.333 -25.5 75s-39.833 28 -68.5 28c-28 0 -50.5 -9.33301 -67.5 -28s-25.5 -43.667 -25.5 -75v-333h-132v333c0 31.333 -8.5 56.333 -25.5 75
s-39.833 28 -68.5 28c-28 0 -50.5 -9.33301 -67.5 -28s-25.5 -43.667 -25.5 -75v-333h-132v539h127l2 -59c16.667 22.667 37.334 39.834 62.001 51.501s51.667 17.5 81 17.5c31.333 0 59.666 -6.5 84.999 -19.5s45.666 -31.167 60.999 -54.5c18 24 40.333 42.333 67 55
s55.667 19 87 19c38.667 0 73 -8.16699 103 -24.5z" />
    <glyph glyph-name="n" unicode="n" horiz-adv-x="592" 
d="M485 495.5c35.333 -35.667 53.001 -82.833 53.001 -141.5v-354h-132v333c0 31.333 -9.66699 56.333 -29 75s-45.333 28 -78 28s-58.667 -9.33301 -78 -28s-29 -43.667 -29 -75v-333h-132v539h127l2 -64c18 24 40.667 42.333 68 55s56.666 19 87.999 19
c58 0 104.667 -17.833 140 -53.5z" />
    <glyph glyph-name="o" unicode="o" horiz-adv-x="591" 
d="M158.5 25c-39.667 23.333 -70.5 56 -92.5 98s-33 90.667 -33 146s11 104.166 33 146.499s52.833 75.166 92.5 98.499s85.5 35 137.5 35c51.333 0 96.833 -11.667 136.5 -35s70.334 -56.166 92.001 -98.499s32.5 -91.166 32.5 -146.499s-10.833 -104 -32.5 -146
s-52.334 -74.667 -92.001 -98s-85.167 -35 -136.5 -35c-52 0 -97.833 11.667 -137.5 35zM386.5 149c23 30.667 34.5 70.667 34.5 120c0 50 -11.5 90.333 -34.5 121s-53.5 46 -91.5 46c-37.333 0 -67.666 -15.333 -90.999 -46s-35 -71 -35 -121
c0 -49.333 11.667 -89.333 35 -120s53.666 -46 90.999 -46c38 0 68.5 15.333 91.5 46z" />
    <glyph glyph-name="p" unicode="p" horiz-adv-x="615" 
d="M466.5 514c35.667 -23.333 63.666 -55.999 83.999 -97.999s30.5 -90 30.5 -144c0 -55.333 -10.167 -104.333 -30.5 -147s-48.333 -75.834 -84 -99.501s-75.167 -35.5 -118.5 -35.5c-68 0 -120 28 -156 84v-294h-132v759h127l3 -78c16.667 28 38.334 49.667 65.001 65
s57.667 23 93 23c43.333 0 82.833 -11.667 118.5 -35zM409.999 149.001c23.333 30.667 35 71 35 121c0 49.333 -11.667 89.333 -35 120s-54 46 -92 46s-68.5 -15.333 -91.5 -46s-34.5 -71 -34.5 -121c0 -49.333 11.5 -89.333 34.5 -120s53.5 -46 91.5 -46
s68.667 15.333 92 46z" />
    <glyph glyph-name="q" unicode="q" horiz-adv-x="614" 
d="M554 539l-0.000976562 -759.001h-132v294c-36 -56 -88 -84 -156 -84c-43.333 0 -82.833 11.833 -118.5 35.5s-63.667 56.834 -84 99.501s-30.5 91.667 -30.5 147c0 54 10.167 102 30.5 144s48.333 74.667 84 98s75.167 35 118.5 35c35.333 0 66.333 -7.66699 93 -23
s48.334 -37 65.001 -65l3 78h127zM386.999 148.999c23.333 30.667 35 70.667 35 120c0 50 -11.667 90.333 -35 121s-54 46 -92 46c-37.333 0 -67.666 -15.333 -90.999 -46s-35 -70.667 -35 -120c0 -50 11.667 -90.333 35 -121s53.666 -46 90.999 -46
c38 0 68.667 15.333 92 46z" />
    <glyph glyph-name="r" unicode="r" horiz-adv-x="372" 
d="M263.5 528.5c30.333 13.667 64.5 20.5 102.5 20.5l-9 -121c-49.333 0 -89.166 -12.5 -119.499 -37.5s-45.5 -58.167 -45.5 -99.5v-291h-132v539h127l2 -69c19.333 25.333 44.166 44.833 74.499 58.5z" />
    <glyph glyph-name="s" unicode="s" horiz-adv-x="467" 
d="M120 6c-32 10.667 -59.334 26.3369 -82.001 47.0039l50 80c40 -26.667 85 -40 135 -40c22 0 39.833 5 53.5 15s20.5 23.667 20.5 41c0 16 -6.83301 29.333 -20.5 40s-33.5 19.667 -59.5 27l-39 13c-46 13.333 -80.833 30.666 -104.5 51.999s-35.5 51.666 -35.5 90.999
c0 53.333 17.833 96.166 53.5 128.499s82.834 48.5 141.501 48.5c75.333 0 137.333 -17.667 186 -53l-55 -87c-35.333 24 -74.666 36 -117.999 36c-22 0 -39.833 -4.66699 -53.5 -14s-20.5 -22 -20.5 -38c0 -15.333 6 -27.5 18 -36.5s29.667 -17.167 53 -24.5l38 -12
c47.333 -14.667 84.166 -34.334 110.499 -59.001s39.5 -58.667 39.5 -102c0 -50.667 -18.833 -91.5 -56.5 -122.5s-87.167 -46.5 -148.5 -46.5c-38.667 0 -74 5.33301 -106 16z" />
    <glyph glyph-name="t" unicode="t" horiz-adv-x="354" 
d="M333 120l-0.00292969 -106c-36 -16 -77.667 -24 -125 -24c-45.333 0 -82.166 14.167 -110.499 42.5s-42.5 65.5 -42.5 111.5v553h132v-158h138v-108h-138v-260c0 -20.667 5.83301 -37.167 17.5 -49.5s26.834 -18.5 45.501 -18.5c28.667 0 56.334 5.66699 83.001 17z" />
    <glyph glyph-name="u" unicode="u" horiz-adv-x="567" 
d="M163.5 15.5c-35 17 -62.001 40.832 -81.001 71.499s-28.5 66.334 -28.5 107.001v345h131v-338c0 -29.333 9 -53 27 -71s42 -27 72 -27c29.333 0 52.833 9 70.5 27s26.5 41.667 26.5 71v338h131v-345c0 -40 -9.5 -75.5 -28.5 -106.5s-45.667 -55 -80 -72
s-74.166 -25.5 -119.499 -25.5s-85.5 8.5 -120.5 25.5z" />
    <glyph glyph-name="v" unicode="v" horiz-adv-x="548" 
d="M208 0l-204 539h144l126 -389l125 389h144l-203 -539h-132z" />
    <glyph glyph-name="w" unicode="w" horiz-adv-x="829" 
d="M679 539h144l-177 -539h-132l-99 355l-100 -355h-132l-177 539h144l108 -389l103 389h107l103 -389z" />
    <glyph glyph-name="x" unicode="x" horiz-adv-x="530" 
d="M528 0h-154l-108 171l-109 -171h-154l185 275l-174 264h154l98 -157l97 157h154l-175 -263z" />
    <glyph glyph-name="y" unicode="y" horiz-adv-x="573" 
d="M513 539v-489.001c0 -56 -11.167 -105.167 -33.5 -147.5s-53.833 -75 -94.5 -98s-87.667 -34.5 -141 -34.5c-38.667 0 -74.667 5.66699 -108 17s-62 28.333 -86 51l29 104c44.667 -39.333 98.334 -59 161.001 -59c42.667 0 77 15.5 103 46.5s39 71.833 39 122.5v4
c-17.333 -21.333 -38.333 -37.666 -63 -48.999s-51.667 -17 -81 -17c-54.667 0 -98.834 17.333 -132.501 52s-50.5 80.667 -50.5 138v359h131v-338c0 -29.333 9 -53 27 -71s41.667 -27 71 -27s53 9 71 27s27 41.667 27 71v338h131z" />
    <glyph glyph-name="z" unicode="z" horiz-adv-x="497" 
d="M35 0v85l242 346h-238v108h416v-85l-241 -345h250v-109h-429z" />
    <glyph glyph-name="braceleft" unicode="{" horiz-adv-x="381" 
d="M140.5 -146.5c-27.667 29 -41.501 67.5 -41.501 115.5v192c0 24.667 -6.16699 44.5 -18.5 59.5s-28.166 22.5 -47.499 22.5h-6v114h6c19.333 0 35.166 7.5 47.499 22.5s18.5 34.833 18.5 59.5v192c0 48 13.833 86.5 41.5 115.5s64.167 43.5 109.5 43.5
c36 0 70.667 -4.33301 104 -13v-106c-15.333 4 -33 6 -53 6s-36 -7.83301 -48 -23.5s-18 -36.167 -18 -61.5v-169c0 -30.667 -7.16699 -57.167 -21.5 -79.5s-33.166 -36.833 -56.499 -43.5c23.333 -6.66699 42.166 -21.167 56.499 -43.5s21.5 -48.833 21.5 -79.5v-169
c0 -25.333 6 -45.833 18 -61.5s28 -23.5 48 -23.5c20.667 0 38.334 2 53.001 6v-106c-33.333 -8.66699 -68 -13 -104 -13c-45.333 0 -81.833 14.5 -109.5 43.5z" />
    <glyph glyph-name="bar" unicode="|" horiz-adv-x="278" 
d="M71 -220v1000h136v-1000h-136z" />
    <glyph glyph-name="braceright" unicode="}" horiz-adv-x="381" 
d="M27 -177v106c15.333 -4 33 -6 53 -6c19.333 0 35.166 7.83301 47.499 23.5s18.5 36.167 18.5 61.5v169c0 30.667 7 57.167 21 79.5s32.667 36.833 56 43.5c-23.333 6.66699 -42 21.167 -56 43.5s-21 48.833 -21 79.5v169c0 25.333 -6.16699 45.833 -18.5 61.5
s-28.166 23.5 -47.499 23.5c-20 0 -37.667 -2 -53 -6v106c33.333 8.66699 68 13 104 13c45.333 0 81.833 -14.5 109.5 -43.5s41.5 -67.5 41.5 -115.5v-192c0 -24.667 6.16699 -44.5 18.5 -59.5s28.166 -22.5 47.499 -22.5h6v-114h-6c-19.333 0 -35.166 -7.5 -47.499 -22.5
s-18.5 -34.833 -18.5 -59.5v-192c0 -48 -13.833 -86.5 -41.5 -115.5s-64.167 -43.5 -109.5 -43.5c-36 0 -70.667 4.33301 -104 13z" />
    <glyph glyph-name="asciitilde" unicode="~" horiz-adv-x="543" 
d="M313.5 229c-17 6 -36.499 14.334 -58.499 25.001c-3.33301 1.33301 -10.333 4.5 -21 9.5s-20.167 8.66699 -28.5 11s-15.833 3.5 -22.5 3.5c-16 0 -28.833 -4.33301 -38.5 -13s-14.5 -20.334 -14.5 -35.001h-71c0 42.667 11.167 77 33.5 103s51.833 39 88.5 39
c18.667 0 36.5 -3 53.5 -9s35.833 -14 56.5 -24c18 -8 32.167 -13.833 42.5 -17.5s20.166 -5.5 29.499 -5.5c16.667 0 29.667 3.83301 39 11.5s14 19.167 14 34.5h71c0 -44.667 -11 -79.5 -33 -104.5s-51.667 -37.5 -89 -37.5c-17.333 0 -34.5 3 -51.5 9z" />
    <glyph glyph-name="uni00A0" unicode="&#xa0;" horiz-adv-x="220" 
 />
    <glyph glyph-name="exclamdown" unicode="&#xa1;" horiz-adv-x="254" 
d="M71 413.5c-14.667 15 -22 33.833 -22 56.5s7.33301 41.5 22 56.5s33.334 22.5 56.001 22.5s41.167 -7.33301 55.5 -22s21.5 -33.667 21.5 -57c0 -22.667 -7.16699 -41.5 -21.5 -56.5s-32.833 -22.5 -55.5 -22.5s-41.334 7.5 -56.001 22.5zM58 -220l13 546h112l12 -546
h-137z" />
    <glyph glyph-name="cent" unicode="&#xa2;" horiz-adv-x="526" 
d="M358 47v-86.9971h-119v85c-63.333 11.333 -113.5 41.666 -150.5 90.999s-55.5 110.666 -55.5 183.999c0 72.667 18.5 133.5 55.5 182.5s87.167 79.5 150.5 91.5v84h119v-86c40 -10 75.333 -28.333 106 -55l-74 -90c-24 26 -54 39 -90 39
c-39.333 0 -70.833 -15.333 -94.5 -46s-35.5 -71 -35.5 -121s11.833 -90.167 35.5 -120.5s55.167 -45.5 94.5 -45.5c46 0 81.333 16.333 106 49l75 -87c-32 -34.667 -73 -57.334 -123 -68.001z" />
    <glyph glyph-name="sterling" unicode="&#xa3;" horiz-adv-x="564" 
d="M518 109l-0.000976562 -108.999h-474v107h61v194h-52v108h52v161c0 54 18.833 97.5 56.5 130.5s87.167 49.5 148.5 49.5c60.667 0 109.667 -16.667 147 -50s56 -77.333 56 -132l-131 -9c0 23.333 -6.66699 42.166 -20 56.499s-30.666 21.5 -51.999 21.5
c-20.667 0 -37.5 -6.66699 -50.5 -20s-19.5 -31 -19.5 -53v-155h240v-108h-240v-192h278z" />
    <glyph glyph-name="currency" unicode="&#xa4;" horiz-adv-x="582" 
d="M471 229l63 -68.002l-80 -80l-59 64c-32.667 -20 -67.334 -30 -104.001 -30c-36 0 -70.667 9.66699 -104 29l-59 -64l-80 80l62 67c-19.333 35.333 -29 74.333 -29 117c0 40.667 9.66699 79.334 29 116.001l-62 67l80 80l59 -65c31.333 19.333 66 29 104 29
c36.667 0 71.334 -10 104.001 -30l59 65l80 -80l-63 -68c18.667 -34 28 -72 28 -114c0 -41.333 -9.33301 -79.666 -28 -114.999zM364 250.998c20 25.333 30.001 56.332 30.001 92.999c0 36 -10 66.833 -30 92.5s-44.333 38.5 -73 38.5c-19.333 0 -37 -5.83301 -53 -17.5
s-28.667 -27.667 -38 -48s-14 -42.166 -14 -65.499c0 -36.667 10.167 -67.667 30.5 -93s45.166 -38 74.499 -38c28.667 0 53 12.667 73 38z" />
    <glyph glyph-name="yen" unicode="&#xa5;" horiz-adv-x="660" 
d="M635 740l-197 -386h96v-84h-136v-49h136v-85h-136v-136h-136v136h-136v85h136v49h-136v84h96l-197 386h146l160 -344l159 344h145z" />
    <glyph glyph-name="brokenbar" unicode="&#xa6;" horiz-adv-x="276" 
d="M70 380v400h136v-400h-136zM70 -220v400h136v-400h-136z" />
    <glyph glyph-name="section" unicode="&#xa7;" horiz-adv-x="557" 
d="M470 113c30 -34.667 45.002 -76.334 45.002 -125.001c0 -43.333 -10 -81.5 -30 -114.5s-48 -58.5 -84 -76.5s-77.667 -27 -125 -27c-43.333 0 -84 7.83301 -122 23.5s-71.333 38.5 -100 68.5l49 91c48.667 -46.667 102.667 -70 162 -70c34 0 60.667 8 80 24
s29 38.333 29 67c0 28 -9.33301 50.333 -28 67s-47.334 32 -86.001 46l-33 12c-39.333 14.667 -71.833 30.334 -97.5 47.001s-46 38 -61 64s-22.5 58.333 -22.5 97c0 53.333 14.333 99.666 43 138.999c-28.667 30.667 -43 71 -43 121c0 44 9.5 82.833 28.5 116.5
s46 59.834 81 78.501s75.5 28 121.5 28c78.667 0 148.667 -28.333 210 -85l-59 -95c-22.667 22.667 -45.834 39.5 -69.501 50.5s-48.834 16.5 -75.501 16.5c-29.333 0 -52.666 -8 -69.999 -24s-26 -37.333 -26 -64c0 -27.333 8.33301 -48 25 -62s42.667 -27.667 78 -41
l31 -12c58.667 -22 105.667 -50.167 141 -84.5s53 -81.5 53 -141.5c0 -52.667 -15 -97.667 -45 -135zM370.002 184c8.66699 15.333 12.999 32.335 12.999 51.002c0 30.667 -10.167 54.834 -30.5 72.501s-51.166 34.167 -92.499 49.5l-33 12
c-13.333 4.66699 -24.666 9 -33.999 13c-10.667 -14.667 -16 -32.334 -16 -53.001s4.66699 -37.834 14 -51.501s21.666 -24.834 36.999 -33.501s36 -18 62 -28l31 -12z" />
    <glyph glyph-name="dieresis" unicode="&#xa8;" horiz-adv-x="600" 
d="M67 651c-14.667 14.667 -22 33.334 -22 56.001s7.33301 41.5 22 56.5s33.334 22.5 56.001 22.5c22 0 40.333 -7.5 55 -22.5s22 -33.833 22 -56.5s-7.33301 -41.334 -22 -56.001s-33 -22 -55 -22c-22.667 0 -41.334 7.33301 -56.001 22zM293 651
c-14.667 14.667 -22 33.334 -22 56.001s7.33301 41.5 22 56.5s33.334 22.5 56.001 22.5s41.167 -7.33301 55.5 -22s21.5 -33.667 21.5 -57c0 -22.667 -7.16699 -41.334 -21.5 -56.001s-32.833 -22 -55.5 -22s-41.334 7.33301 -56.001 22z" />
    <glyph glyph-name="copyright" unicode="&#xa9;" horiz-adv-x="782" 
d="M207 37.5c-53.333 31.667 -94.5 76.167 -123.5 133.5s-43.5 123.666 -43.5 198.999s14.5 141.666 43.5 198.999s70.167 101.833 123.5 133.5s114.666 47.5 183.999 47.5s130.5 -15.833 183.5 -47.5s94 -76.167 123 -133.5s43.5 -123.666 43.5 -198.999
s-14.5 -141.666 -43.5 -198.999s-70 -101.833 -123 -133.5s-114.167 -47.5 -183.5 -47.5s-130.666 15.833 -183.999 47.5zM535.5 90c41.667 26.667 74.167 64.167 97.5 112.5s35 104.166 35 167.499s-11.667 119.166 -35 167.499s-55.833 85.833 -97.5 112.5
s-89.834 40 -144.501 40s-102.834 -13.333 -144.501 -40s-74.167 -64.167 -97.5 -112.5s-35 -104.166 -35 -167.499s11.667 -119.166 35 -167.499s55.833 -85.833 97.5 -112.5s89.834 -40 144.501 -40s102.834 13.333 144.501 40zM294.5 184
c-30.333 17.333 -53.833 42.002 -70.5 74.002s-25 68.667 -25 110c0 62.667 18.167 113 54.5 151s84.5 57 144.5 57c62.667 0 112 -22 148 -66l-56 -55c-9.33301 14 -21.833 25.333 -37.5 34s-33.167 13 -52.5 13c-32.667 0 -59.167 -12.333 -79.5 -37
s-30.5 -57.334 -30.5 -98.001s10.333 -73.334 31 -98.001s47.667 -37 81 -37c41.333 0 73.666 20.333 96.999 61l60 -53c-36.667 -54.667 -90 -82 -160 -82c-39.333 0 -74.166 8.66699 -104.499 26z" />
    <glyph glyph-name="ordfeminine" unicode="&#xaa;" horiz-adv-x="360" 
d="M269.5 715.5c23 -23 34.501 -53.5 34.501 -91.5v-203h-78l-1 43c-10 -16 -22.333 -28.167 -37 -36.5s-30.667 -12.5 -48 -12.5c-30.667 0 -55.334 9.16699 -74.001 27.5s-28 42.5 -28 72.5c0 31.333 11.5 56.5 34.5 75.5s53.167 28.5 90.5 28.5
c15.333 0 35.333 -2.33301 60 -7v5c0 21.333 -5.83301 38 -17.5 50s-27.834 18 -48.501 18c-26.667 0 -48.667 -8.66699 -66 -26l-35 50c32.667 27.333 73.334 41 122.001 41c38 0 68.5 -11.5 91.5 -34.5zM205.501 496.5c11.667 15 17.5 34.832 17.5 59.499
c-16.667 4 -32.667 6 -48 6c-16 0 -28.833 -4.16699 -38.5 -12.5s-14.5 -19.166 -14.5 -32.499s3.5 -23.833 10.5 -31.5s17.5 -11.5 31.5 -11.5c16 0 29.833 7.5 41.5 22.5z" />
    <glyph glyph-name="guillemotleft" unicode="&#xab;" horiz-adv-x="613" 
d="M333 499l-158 -229l158 -229h-140l-163 229l163 229h140zM579 499l-157 -229l157 -229h-140l-162 229l162 229h140z" />
    <glyph glyph-name="logicalnot" unicode="&#xac;" horiz-adv-x="545" 
d="M484 457v-271h-131v163h-301v108h432z" />
    <glyph glyph-name="uni00AD" unicode="&#xad;" horiz-adv-x="438" 
d="M55 243v94h328v-94h-328z" />
    <glyph glyph-name="registered" unicode="&#xae;" horiz-adv-x="368" 
d="M287 747.5c26 -28.333 39 -65.833 39 -112.5c0 -46 -13 -83.333 -39 -112s-60.333 -43 -103 -43s-77 14.333 -103 43s-39 66 -39 112c0 46.667 13 84.167 39 112.5s60.333 42.5 103 42.5s77 -14.167 103 -42.5zM266.5 540c21 24 31.5 55.667 31.5 95
c0 40 -10.5 72 -31.5 96s-48.5 36 -82.5 36c-34.667 0 -62.5 -12 -83.5 -36s-31.5 -56 -31.5 -96c0 -39.333 10.5 -71 31.5 -95s48.833 -36 83.5 -36c34 0 61.5 12 82.5 36zM214 619l37.999 -66h-37l-33 59h-24v-59h-33v163h63c16.667 0 29.834 -4.83301 39.501 -14.5
s14.5 -22.167 14.5 -37.5c0 -22 -9.33301 -37 -28 -45zM157.999 640l22.999 0.00195312c8 0 14.5 2.16699 19.5 6.5s7.5 10.166 7.5 17.499s-2.16699 13.166 -6.5 17.499s-10.166 6.5 -17.499 6.5h-26v-48z" />
    <glyph glyph-name="macron" unicode="&#xaf;" horiz-adv-x="600" 
d="M34 625v104h326v-104h-326z" />
    <glyph glyph-name="degree" unicode="&#xb0;" horiz-adv-x="326" 
d="M69.5 571c-23.667 23.333 -35.5 54 -35.5 92s11.833 68.667 35.5 92s54.834 35 93.501 35s69.667 -11.667 93 -35s35 -54 35 -92s-11.667 -68.667 -35 -92s-54.333 -35 -93 -35s-69.834 11.667 -93.501 35zM198 620.5c8.66699 11 13 25.167 13 42.5
c0 18 -4.33301 32.5 -13 43.5s-20.334 16.5 -35.001 16.5s-26.5 -5.5 -35.5 -16.5s-13.5 -25.5 -13.5 -43.5c0 -17.333 4.5 -31.5 13.5 -42.5s20.833 -16.5 35.5 -16.5s26.334 5.5 35.001 16.5z" />
    <glyph glyph-name="plusminus" unicode="&#xb1;" horiz-adv-x="552" 
d="M342 486h151v-108h-151v-174h-132v174h-151v108h151v174h132v-174zM59 36v109h434v-109h-434z" />
    <glyph glyph-name="uni00B2" unicode="&#xb2;" horiz-adv-x="332" 
d="M26 450l124 151.999c19.333 24 34.666 45.167 45.999 63.5s17 37.5 17 57.5c0 16 -4.33301 28.833 -13 38.5s-20 14.5 -34 14.5c-15.333 0 -27.666 -5.66699 -36.999 -17s-14 -26.333 -14 -45l-84 7c0 37.333 12.333 67.5 37 90.5s57 34.5 97 34.5s72 -10.667 96 -32
s36 -49.666 36 -84.999c0 -28.667 -7.5 -56.167 -22.5 -82.5s-38.5 -58.5 -70.5 -96.5l-72 -85l171 1v-70h-277v54z" />
    <glyph glyph-name="uni00B3" unicode="&#xb3;" horiz-adv-x="324" 
d="M263.5 627.5c22.333 -24.333 33.501 -56.167 33.501 -95.5c0 -42.667 -14 -77 -42 -103s-66 -39 -114 -39c-24.667 0 -48.167 3.83301 -70.5 11.5s-39.833 18.5 -52.5 32.5l32 61c9.33301 -10.667 21 -19.167 35 -25.5s29 -9.5 45 -9.5c24.667 0 44 6.5 58 19.5
s21 30.5 21 52.5c0 21.333 -6.5 38.166 -19.5 50.499s-30.5 18.5 -52.5 18.5c-18.667 0 -35.667 -4.66699 -51 -14l-23 43l109 140h-134v70h237v-53l-101 -121c37.333 -1.33301 67.166 -14.166 89.499 -38.499z" />
    <glyph glyph-name="acute" unicode="&#xb4;" horiz-adv-x="600" 
d="M93 618l123 161h153l-164 -161h-112z" />
    <glyph glyph-name="paragraph" unicode="&#xb6;" horiz-adv-x="569" 
d="M484 -220h-98v865h-74v-865h-99v613h-55c-39.333 0 -71 16 -95 48s-36 74.333 -36 127c0 51.333 14.167 92.833 42.5 124.5s65.5 47.5 111.5 47.5h303v-960z" />
    <glyph glyph-name="periodcentered" unicode="&#xb7;" horiz-adv-x="260" 
d="M70 229.5c-16.667 17 -25 37.5 -25 61.5c0 23.333 8.33301 43.5 25 60.5s36.667 25.5 60 25.5s43.333 -8.5 60 -25.5s25 -37.167 25 -60.5c0 -24 -8.33301 -44.5 -25 -61.5s-36.667 -25.5 -60 -25.5s-43.333 8.5 -60 25.5z" />
    <glyph glyph-name="cedilla" unicode="&#xb8;" horiz-adv-x="600" 
d="M200.5 -79.5c17 -15.667 25.5 -35.5 25.5 -59.5c0 -27.333 -10.833 -49.333 -32.5 -66s-50.834 -25 -87.501 -25c-18 0 -35 2.33301 -51 7s-29 10.667 -39 18l23 49c14 -12.667 32 -19 54 -19c14.667 0 26.334 3.33301 35.001 10s13 15.334 13 26.001
c0 10 -3.83301 17.833 -11.5 23.5s-18.167 8.5 -31.5 8.5c-12 0 -22.667 -2.66699 -32 -8l-17 30l41 85h73l-31 -55c28.667 -0.666992 51.5 -8.83398 68.5 -24.501z" />
    <glyph glyph-name="uni00B9" unicode="&#xb9;" horiz-adv-x="252" 
d="M119 396v332l-73 -58l-42 60l134 110h65v-444h-84z" />
    <glyph glyph-name="ordmasculine" unicode="&#xba;" horiz-adv-x="386" 
d="M78.5 461c-29 30.667 -43.499 71.334 -43.499 122.001c0 50 14.667 90.333 44 121s67.666 46 114.999 46s85.333 -15.333 114 -46s43 -71 43 -121c0 -50.667 -14.333 -91.334 -43 -122.001s-66.667 -46 -114 -46c-48 0 -86.5 15.333 -115.5 46zM247.001 512.5
c13.333 17.667 20 41.167 20 70.5c0 28.667 -6.83301 52 -20.5 70s-31.167 27 -52.5 27c-22.667 0 -40.834 -8.83301 -54.501 -26.5s-20.5 -41.167 -20.5 -70.5s6.83301 -52.833 20.5 -70.5s31.834 -26.5 54.501 -26.5c22 0 39.667 8.83301 53 26.5z" />
    <glyph glyph-name="guillemotright" unicode="&#xbb;" horiz-adv-x="613" 
d="M174 499l162 -229l-162 -229h-140l157 229l-157 229h140zM420 499l163 -229l-163 -229h-140l158 229l-158 229h140z" />
    <glyph glyph-name="onequarter" unicode="&#xbc;" horiz-adv-x="775" 
d="M119 296v332l-73 -58l-42 60l134 110h65v-444h-84zM201 -10l-70 43l377 717l69 -42zM614 0v85h-183v60l201 299h66v-287h54v-72h-54v-85h-84zM522 154h94v143z" />
    <glyph glyph-name="onehalf" unicode="&#xbd;" horiz-adv-x="789" 
d="M119 296v332l-73 -58l-42 60l134 110h65v-444h-84zM201 -10l-70 43l377 717l69 -42zM483 54l124 151.999c19.333 24 34.666 45.167 45.999 63.5s17 37.5 17 57.5c0 16 -4.33301 28.833 -13 38.5s-20 14.5 -34 14.5c-15.333 0 -27.666 -5.66699 -36.999 -17
s-14 -26.333 -14 -45l-84 7c0 37.333 12.333 67.5 37 90.5s57 34.5 97 34.5s72 -10.667 96 -32s36 -49.666 36 -84.999c0 -28.667 -7.5 -56.167 -22.5 -82.5s-38.5 -58.5 -70.5 -96.5l-72 -85l171 1v-70h-277v54z" />
    <glyph glyph-name="threequarters" unicode="&#xbe;" horiz-adv-x="847" 
d="M263.5 527.5c22.333 -24.333 33.501 -56.167 33.501 -95.5c0 -42.667 -14 -77 -42 -103s-66 -39 -114 -39c-24.667 0 -48.167 3.83301 -70.5 11.5s-39.833 18.5 -52.5 32.5l32 61c9.33301 -10.667 21 -19.167 35 -25.5s29 -9.5 45 -9.5c24.667 0 44 6.5 58 19.5
s21 30.5 21 52.5c0 21.333 -6.5 38.166 -19.5 50.499s-30.5 18.5 -52.5 18.5c-18.667 0 -35.667 -4.66699 -51 -14l-23 43l109 140h-134v70h237v-53l-101 -121c37.333 -1.33301 67.166 -14.166 89.499 -38.499zM273.001 -10.001l-70 43l377 717l69 -42z
M686.001 -0.000976562v85h-183v60l201 299h66v-287h54v-72h-54v-85h-84zM594.001 153.999h94v143z" />
    <glyph glyph-name="questiondown" unicode="&#xbf;" horiz-adv-x="493" 
d="M197 413.5c-14.667 15 -22 33.833 -22 56.5s7.33301 41.5 22 56.5s33.334 22.5 56.001 22.5s41.167 -7.33301 55.5 -22s21.5 -33.667 21.5 -57c0 -22.667 -7.16699 -41.5 -21.5 -56.5s-32.833 -22.5 -55.5 -22.5s-41.334 7.5 -56.001 22.5zM136 -205.5
c-34 16.333 -60.332 39.168 -78.999 68.501s-28 63.333 -28 102c0 24.667 3.66699 46.334 11 65.001s16 34.167 26 46.5s24.333 28.166 43 47.499s33.834 37 45.501 53s21.5 36.333 29.5 61s12 54 12 88h113c0 -48 -4.33301 -88.5 -13 -121.5s-19.334 -59.333 -32.001 -79
s-28.334 -39.167 -47.001 -58.5c-16.667 -17.333 -29 -32.833 -37 -46.5s-12 -30.167 -12 -49.5c0 -26.667 7.83301 -48 23.5 -64s36.5 -24 62.5 -24c24.667 0 45.167 8 61.5 24s25.833 37.333 28.5 64l123 -6c-2.66699 -58.667 -23.5 -105.834 -62.5 -141.501
s-89.167 -53.5 -150.5 -53.5c-44.667 0 -84 8.16699 -118 24.5z" />
    <glyph glyph-name="Agrave" unicode="&#xc0;" horiz-adv-x="728" 
d="M518.5 717c44.333 -22 78.667 -52.833 103 -92.5s36.5 -85.5 36.5 -137.5v-487h-136v219h-316v-219h-136v487c0 52 12.167 97.833 36.5 137.5s58.833 70.5 103.5 92.5s96 33 154 33c58.667 0 110.167 -11 154.5 -33zM522.001 332v150c0 46.667 -14.333 84.167 -43 112.5
s-66.667 42.5 -114 42.5c-48 0 -86.5 -14.167 -115.5 -42.5s-43.5 -65.833 -43.5 -112.5v-150h316zM333.001 819l-164 161h153l123 -161h-112z" />
    <glyph glyph-name="Aacute" unicode="&#xc1;" horiz-adv-x="728" 
d="M518.5 717c44.333 -22 78.667 -52.833 103 -92.5s36.5 -85.5 36.5 -137.5v-487h-136v219h-316v-219h-136v487c0 52 12.167 97.833 36.5 137.5s58.833 70.5 103.5 92.5s96 33 154 33c58.667 0 110.167 -11 154.5 -33zM522.001 332v150c0 46.667 -14.333 84.167 -43 112.5
s-66.667 42.5 -114 42.5c-48 0 -86.5 -14.167 -115.5 -42.5s-43.5 -65.833 -43.5 -112.5v-150h316zM282.001 819l123 161h153l-164 -161h-112z" />
    <glyph glyph-name="Acircumflex" unicode="&#xc2;" horiz-adv-x="728" 
d="M518.5 717c44.333 -22 78.667 -52.833 103 -92.5s36.5 -85.5 36.5 -137.5v-487h-136v219h-316v-219h-136v487c0 52 12.167 97.833 36.5 137.5s58.833 70.5 103.5 92.5s96 33 154 33c58.667 0 110.167 -11 154.5 -33zM522.001 332v150c0 46.667 -14.333 84.167 -43 112.5
s-66.667 42.5 -114 42.5c-48 0 -86.5 -14.167 -115.5 -42.5s-43.5 -65.833 -43.5 -112.5v-150h316zM543.001 819h-116l-64 84l-64 -84h-117l119 161h125z" />
    <glyph glyph-name="Atilde" unicode="&#xc3;" horiz-adv-x="728" 
d="M518.5 717c44.333 -22 78.667 -52.833 103 -92.5s36.5 -85.5 36.5 -137.5v-487h-136v219h-316v-219h-136v487c0 52 12.167 97.833 36.5 137.5s58.833 70.5 103.5 92.5s96 33 154 33c58.667 0 110.167 -11 154.5 -33zM522.001 332v150c0 46.667 -14.333 84.167 -43 112.5
s-66.667 42.5 -114 42.5c-48 0 -86.5 -14.167 -115.5 -42.5s-43.5 -65.833 -43.5 -112.5v-150h316zM397.501 828.5c-13 5.66699 -28.8311 13.835 -47.498 24.502c-15.333 9.33301 -27 15.833 -35 19.5s-15.667 5.5 -23 5.5c-10.667 0 -19.167 -4.33301 -25.5 -13
s-9.5 -20.334 -9.5 -35.001h-71c0 42.667 9.5 77.167 28.5 103.5s44.167 39.5 75.5 39.5c14.667 0 28.5 -2.83301 41.5 -8.5s28.833 -13.834 47.5 -24.501c13.333 -8 24.166 -14 32.499 -18s16.166 -6 23.499 -6c10.667 0 19.167 4 25.5 12s9.5 19.667 9.5 35h71
c0 -44.667 -9.5 -79.667 -28.5 -105s-44.167 -38 -75.5 -38c-13.333 0 -26.5 2.83301 -39.5 8.5z" />
    <glyph glyph-name="Adieresis" unicode="&#xc4;" horiz-adv-x="728" 
d="M518.5 717c44.333 -22 78.667 -52.833 103 -92.5s36.5 -85.5 36.5 -137.5v-487h-136v219h-316v-219h-136v487c0 52 12.167 97.833 36.5 137.5s58.833 70.5 103.5 92.5s96 33 154 33c58.667 0 110.167 -11 154.5 -33zM522.001 332v150c0 46.667 -14.333 84.167 -43 112.5
s-66.667 42.5 -114 42.5c-48 0 -86.5 -14.167 -115.5 -42.5s-43.5 -65.833 -43.5 -112.5v-150h316zM195.001 852c-14.667 14.667 -22 33.334 -22 56.001s7.33301 41.5 22 56.5s33.334 22.5 56.001 22.5c22 0 40.333 -7.5 55 -22.5s22 -33.833 22 -56.5
s-7.33301 -41.334 -22 -56.001s-33 -22 -55 -22c-22.667 0 -41.334 7.33301 -56.001 22zM421.001 852c-14.667 14.667 -22 33.334 -22 56.001s7.33301 41.5 22 56.5s33.334 22.5 56.001 22.5s41.167 -7.33301 55.5 -22s21.5 -33.667 21.5 -57
c0 -22.667 -7.16699 -41.334 -21.5 -56.001s-32.833 -22 -55.5 -22s-41.334 7.33301 -56.001 22z" />
    <glyph glyph-name="Aring" unicode="&#xc5;" horiz-adv-x="728" 
d="M518.5 717c44.333 -22 78.667 -52.833 103 -92.5s36.5 -85.5 36.5 -137.5v-487h-136v219h-316v-219h-136v487c0 52 12.167 97.833 36.5 137.5s58.833 70.5 103.5 92.5s96 33 154 33c58.667 0 110.167 -11 154.5 -33zM522.001 332v150c0 46.667 -14.333 84.167 -43 112.5
s-66.667 42.5 -114 42.5c-48 0 -86.5 -14.167 -115.5 -42.5s-43.5 -65.833 -43.5 -112.5v-150h316zM285.501 814.5c-19.667 19.667 -29.5 45.834 -29.5 78.501s9.83301 58.667 29.5 78s45.834 29 78.501 29c32 0 57.833 -9.66699 77.5 -29s29.5 -45.333 29.5 -78
s-9.83301 -58.834 -29.5 -78.501s-45.5 -29.5 -77.5 -29.5c-32.667 0 -58.834 9.83301 -78.501 29.5zM392.001 858c7.33301 8.66699 11 20.334 11 35.001c0 14 -3.66699 25.5 -11 34.5s-16.666 13.5 -27.999 13.5s-20.666 -4.5 -27.999 -13.5s-11 -20.5 -11 -34.5
c0 -14.667 3.66699 -26.334 11 -35.001s16.666 -13 27.999 -13s20.666 4.33301 27.999 13z" />
    <glyph glyph-name="AE" unicode="&#xc6;" horiz-adv-x="874" 
d="M828 113l0.00195312 -113h-421v219h-204v-219h-136v427c0 62 14.167 116.667 42.5 164s68.166 84 119.499 110s110.666 39 177.999 39h414v-113h-278v-195h249v-113h-249v-206h285zM203.002 332h203.999v295c-61.333 0 -110.666 -18.833 -147.999 -56.5
s-56 -87.167 -56 -148.5v-90z" />
    <glyph glyph-name="Ccedilla" unicode="&#xc7;" horiz-adv-x="693" 
d="M569.5 34.5c-43 -25 -91.5 -39.501 -145.5 -43.501l-26 -46c28.667 -0.666992 51.5 -8.83398 68.5 -24.501s25.5 -35.5 25.5 -59.5c0 -27.333 -10.833 -49.333 -32.5 -66s-50.834 -25 -87.501 -25c-18 0 -35 2.33301 -51 7s-29 10.667 -39 18l23 49
c14 -12.667 32 -19 54 -19c14.667 0 26.334 3.33301 35.001 10s13 15.334 13 26.001c0 10 -3.83301 17.833 -11.5 23.5s-18.167 8.5 -31.5 8.5c-12 0 -22.667 -2.66699 -32 -8l-17 30l37 77c-62.667 6 -117.667 25.667 -165 59s-84 77.5 -110 132.5s-39 117.833 -39 188.5
c0 74.667 14.833 140.667 44.5 198s71.334 101.666 125.001 132.999s115.5 47 185.5 47c110 0 198 -39.667 264 -119l-85 -88c-19.333 28.667 -44.333 51.5 -75 68.5s-64.667 25.5 -102 25.5c-42.667 0 -80.334 -11 -113.001 -33s-58 -53.167 -76 -93.5
s-27 -86.833 -27 -139.5c0 -53.333 9 -100.166 27 -140.499s43.5 -71.666 76.5 -93.999s71.167 -33.5 114.5 -33.5c80.667 0 144 39.333 190 118l92 -82c-30 -44.667 -66.5 -79.5 -109.5 -104.5z" />
    <glyph glyph-name="Egrave" unicode="&#xc8;" horiz-adv-x="589" 
d="M214 113h329v-113h-466v740h459v-113h-322v-195h293v-113h-293v-206zM276 819l-164 161h153l123 -161h-112z" />
    <glyph glyph-name="Eacute" unicode="&#xc9;" horiz-adv-x="589" 
d="M214 113h329v-113h-466v740h459v-113h-322v-195h293v-113h-293v-206zM225 819l123 161h153l-164 -161h-112z" />
    <glyph glyph-name="Ecircumflex" unicode="&#xca;" horiz-adv-x="589" 
d="M214 113h329v-113h-466v740h459v-113h-322v-195h293v-113h-293v-206zM486 819h-116l-64 84l-64 -84h-117l119 161h125z" />
    <glyph glyph-name="Edieresis" unicode="&#xcb;" horiz-adv-x="589" 
d="M214 113h329v-113h-466v740h459v-113h-322v-195h293v-113h-293v-206zM138 852c-14.667 14.667 -22 33.334 -22 56.001s7.33301 41.5 22 56.5s33.334 22.5 56.001 22.5c22 0 40.333 -7.5 55 -22.5s22 -33.833 22 -56.5s-7.33301 -41.334 -22 -56.001s-33 -22 -55 -22
c-22.667 0 -41.334 7.33301 -56.001 22zM364 852c-14.667 14.667 -22 33.334 -22 56.001s7.33301 41.5 22 56.5s33.334 22.5 56.001 22.5s41.167 -7.33301 55.5 -22s21.5 -33.667 21.5 -57c0 -22.667 -7.16699 -41.334 -21.5 -56.001s-32.833 -22 -55.5 -22
s-41.334 7.33301 -56.001 22z" />
    <glyph glyph-name="Igrave" unicode="&#xcc;" horiz-adv-x="291" 
d="M77 0v740h137v-740h-137zM114 819l-164 161h153l123 -161h-112z" />
    <glyph glyph-name="Iacute" unicode="&#xcd;" horiz-adv-x="291" 
d="M77 0v740h137v-740h-137zM63 819l123 161h153l-164 -161h-112z" />
    <glyph glyph-name="Icircumflex" unicode="&#xce;" horiz-adv-x="291" 
d="M77 0v740h137v-740h-137zM324 819h-116l-64 84l-64 -84h-117l119 161h125z" />
    <glyph glyph-name="Idieresis" unicode="&#xcf;" horiz-adv-x="291" 
d="M77 0v740h137v-740h-137zM-24 852c-14.667 14.667 -22 33.334 -22 56.001s7.33301 41.5 22 56.5s33.334 22.5 56.001 22.5c22 0 40.333 -7.5 55 -22.5s22 -33.833 22 -56.5s-7.33301 -41.334 -22 -56.001s-33 -22 -55 -22c-22.667 0 -41.334 7.33301 -56.001 22zM202 852
c-14.667 14.667 -22 33.334 -22 56.001s7.33301 41.5 22 56.5s33.334 22.5 56.001 22.5s41.167 -7.33301 55.5 -22s21.5 -33.667 21.5 -57c0 -22.667 -7.16699 -41.334 -21.5 -56.001s-32.833 -22 -55.5 -22s-41.334 7.33301 -56.001 22z" />
    <glyph glyph-name="Eth" unicode="&#xd0;" horiz-adv-x="712" 
d="M514 694c50.667 -30.667 90 -74 118 -130s42 -120.667 42 -194s-14 -138 -42 -194s-67.333 -99.333 -118 -130s-109.334 -46 -176.001 -46h-261v325h-67v94h67v321h261c66.667 0 125.334 -15.333 176.001 -46zM440 145c29.333 21.333 52.166 51.5 68.499 90.5
s24.5 83.833 24.5 134.5c0 51.333 -8.16699 96.333 -24.5 135s-39.166 68.667 -68.499 90s-63 32 -101 32h-125v-208h145v-94h-145v-212h125c38 0 71.667 10.667 101 32z" />
    <glyph glyph-name="Ntilde" unicode="&#xd1;" horiz-adv-x="785" 
d="M77 0v740h85l413 -491l-3 491h136v-740h-85l-412 491l3 -491h-137zM425.5 828.5c-13 5.66699 -28.8311 13.835 -47.498 24.502c-15.333 9.33301 -27 15.833 -35 19.5s-15.667 5.5 -23 5.5c-10.667 0 -19.167 -4.33301 -25.5 -13s-9.5 -20.334 -9.5 -35.001h-71
c0 42.667 9.5 77.167 28.5 103.5s44.167 39.5 75.5 39.5c14.667 0 28.5 -2.83301 41.5 -8.5s28.833 -13.834 47.5 -24.501c13.333 -8 24.166 -14 32.499 -18s16.166 -6 23.499 -6c10.667 0 19.167 4 25.5 12s9.5 19.667 9.5 35h71c0 -44.667 -9.5 -79.667 -28.5 -105
s-44.167 -38 -75.5 -38c-13.333 0 -26.5 2.83301 -39.5 8.5z" />
    <glyph glyph-name="Ograve" unicode="&#xd2;" horiz-adv-x="779" 
d="M206 37.5c-53.333 31.667 -94.666 76.167 -123.999 133.5s-44 123.666 -44 198.999s14.667 141.666 44 198.999s70.666 101.833 123.999 133.5s115 47.5 185 47.5c69.333 0 130.5 -15.833 183.5 -47.5s94.167 -76.167 123.5 -133.5s44 -123.666 44 -198.999
s-14.667 -141.666 -44 -198.999s-70.5 -101.833 -123.5 -133.5s-114.167 -47.5 -183.5 -47.5c-70 0 -131.667 15.833 -185 47.5zM501 136.5c32 22.333 56.667 53.666 74 93.999s26 86.833 26 139.5s-8.66699 99.167 -26 139.5s-42 71.666 -74 93.999s-68.667 33.5 -110 33.5
c-42 0 -79 -11.167 -111 -33.5s-56.833 -53.666 -74.5 -93.999s-26.5 -86.833 -26.5 -139.5s8.83301 -99.167 26.5 -139.5s42.5 -71.666 74.5 -93.999s69 -33.5 111 -33.5c41.333 0 78 11.167 110 33.5zM360 819l-164 161h153l123 -161h-112z" />
    <glyph glyph-name="Oacute" unicode="&#xd3;" horiz-adv-x="779" 
d="M206 37.5c-53.333 31.667 -94.666 76.167 -123.999 133.5s-44 123.666 -44 198.999s14.667 141.666 44 198.999s70.666 101.833 123.999 133.5s115 47.5 185 47.5c69.333 0 130.5 -15.833 183.5 -47.5s94.167 -76.167 123.5 -133.5s44 -123.666 44 -198.999
s-14.667 -141.666 -44 -198.999s-70.5 -101.833 -123.5 -133.5s-114.167 -47.5 -183.5 -47.5c-70 0 -131.667 15.833 -185 47.5zM501 136.5c32 22.333 56.667 53.666 74 93.999s26 86.833 26 139.5s-8.66699 99.167 -26 139.5s-42 71.666 -74 93.999s-68.667 33.5 -110 33.5
c-42 0 -79 -11.167 -111 -33.5s-56.833 -53.666 -74.5 -93.999s-26.5 -86.833 -26.5 -139.5s8.83301 -99.167 26.5 -139.5s42.5 -71.666 74.5 -93.999s69 -33.5 111 -33.5c41.333 0 78 11.167 110 33.5zM309 819l123 161h153l-164 -161h-112z" />
    <glyph glyph-name="Ocircumflex" unicode="&#xd4;" horiz-adv-x="779" 
d="M206 37.5c-53.333 31.667 -94.666 76.167 -123.999 133.5s-44 123.666 -44 198.999s14.667 141.666 44 198.999s70.666 101.833 123.999 133.5s115 47.5 185 47.5c69.333 0 130.5 -15.833 183.5 -47.5s94.167 -76.167 123.5 -133.5s44 -123.666 44 -198.999
s-14.667 -141.666 -44 -198.999s-70.5 -101.833 -123.5 -133.5s-114.167 -47.5 -183.5 -47.5c-70 0 -131.667 15.833 -185 47.5zM501 136.5c32 22.333 56.667 53.666 74 93.999s26 86.833 26 139.5s-8.66699 99.167 -26 139.5s-42 71.666 -74 93.999s-68.667 33.5 -110 33.5
c-42 0 -79 -11.167 -111 -33.5s-56.833 -53.666 -74.5 -93.999s-26.5 -86.833 -26.5 -139.5s8.83301 -99.167 26.5 -139.5s42.5 -71.666 74.5 -93.999s69 -33.5 111 -33.5c41.333 0 78 11.167 110 33.5zM570 819h-116l-64 84l-64 -84h-117l119 161h125z" />
    <glyph glyph-name="Otilde" unicode="&#xd5;" horiz-adv-x="779" 
d="M206 37.5c-53.333 31.667 -94.666 76.167 -123.999 133.5s-44 123.666 -44 198.999s14.667 141.666 44 198.999s70.666 101.833 123.999 133.5s115 47.5 185 47.5c69.333 0 130.5 -15.833 183.5 -47.5s94.167 -76.167 123.5 -133.5s44 -123.666 44 -198.999
s-14.667 -141.666 -44 -198.999s-70.5 -101.833 -123.5 -133.5s-114.167 -47.5 -183.5 -47.5c-70 0 -131.667 15.833 -185 47.5zM501 136.5c32 22.333 56.667 53.666 74 93.999s26 86.833 26 139.5s-8.66699 99.167 -26 139.5s-42 71.666 -74 93.999s-68.667 33.5 -110 33.5
c-42 0 -79 -11.167 -111 -33.5s-56.833 -53.666 -74.5 -93.999s-26.5 -86.833 -26.5 -139.5s8.83301 -99.167 26.5 -139.5s42.5 -71.666 74.5 -93.999s69 -33.5 111 -33.5c41.333 0 78 11.167 110 33.5zM424.5 828.5c-13 5.66699 -28.8311 13.835 -47.498 24.502
c-15.333 9.33301 -27 15.833 -35 19.5s-15.667 5.5 -23 5.5c-10.667 0 -19.167 -4.33301 -25.5 -13s-9.5 -20.334 -9.5 -35.001h-71c0 42.667 9.5 77.167 28.5 103.5s44.167 39.5 75.5 39.5c14.667 0 28.5 -2.83301 41.5 -8.5s28.833 -13.834 47.5 -24.501
c13.333 -8 24.166 -14 32.499 -18s16.166 -6 23.499 -6c10.667 0 19.167 4 25.5 12s9.5 19.667 9.5 35h71c0 -44.667 -9.5 -79.667 -28.5 -105s-44.167 -38 -75.5 -38c-13.333 0 -26.5 2.83301 -39.5 8.5z" />
    <glyph glyph-name="Odieresis" unicode="&#xd6;" horiz-adv-x="779" 
d="M206 37.5c-53.333 31.667 -94.666 76.167 -123.999 133.5s-44 123.666 -44 198.999s14.667 141.666 44 198.999s70.666 101.833 123.999 133.5s115 47.5 185 47.5c69.333 0 130.5 -15.833 183.5 -47.5s94.167 -76.167 123.5 -133.5s44 -123.666 44 -198.999
s-14.667 -141.666 -44 -198.999s-70.5 -101.833 -123.5 -133.5s-114.167 -47.5 -183.5 -47.5c-70 0 -131.667 15.833 -185 47.5zM501 136.5c32 22.333 56.667 53.666 74 93.999s26 86.833 26 139.5s-8.66699 99.167 -26 139.5s-42 71.666 -74 93.999s-68.667 33.5 -110 33.5
c-42 0 -79 -11.167 -111 -33.5s-56.833 -53.666 -74.5 -93.999s-26.5 -86.833 -26.5 -139.5s8.83301 -99.167 26.5 -139.5s42.5 -71.666 74.5 -93.999s69 -33.5 111 -33.5c41.333 0 78 11.167 110 33.5zM222 852c-14.667 14.667 -22 33.334 -22 56.001s7.33301 41.5 22 56.5
s33.334 22.5 56.001 22.5c22 0 40.333 -7.5 55 -22.5s22 -33.833 22 -56.5s-7.33301 -41.334 -22 -56.001s-33 -22 -55 -22c-22.667 0 -41.334 7.33301 -56.001 22zM448 852c-14.667 14.667 -22 33.334 -22 56.001s7.33301 41.5 22 56.5s33.334 22.5 56.001 22.5
s41.167 -7.33301 55.5 -22s21.5 -33.667 21.5 -57c0 -22.667 -7.16699 -41.334 -21.5 -56.001s-32.833 -22 -55.5 -22s-41.334 7.33301 -56.001 22z" />
    <glyph glyph-name="multiply" unicode="&#xd7;" horiz-adv-x="475" 
d="M430 477l-116 -128l115 -127l-81 -80l-110 122l-111 -122l-81 80l115 127l-116 128l81 81l112 -124l111 124z" />
    <glyph glyph-name="Oslash" unicode="&#xd8;" horiz-adv-x="781" 
d="M742 370c0 -75.333 -14.665 -141.666 -43.998 -198.999s-70.5 -101.833 -123.5 -133.5s-114.167 -47.5 -183.5 -47.5c-80.667 0 -150.334 21 -209.001 63l-57 -63l-84 73l63 70c-44 66 -66 145 -66 237c0 75.333 14.667 141.666 44 198.999s70.666 101.833 123.999 133.5
s115 47.5 185 47.5c80 0 149.667 -21.333 209 -64l57 64l84 -73l-64 -72c43.333 -64 65 -142.333 65 -235zM201.002 241l315 350.999c-35.333 30 -77 45 -125 45c-42 0 -79 -11.167 -111 -33.5s-56.833 -53.666 -74.5 -93.999s-26.5 -86.833 -26.5 -139.5
c0 -47.333 7.33301 -90.333 22 -129zM501.002 136.499c32 22.333 56.667 53.667 74 94s26 86.833 26 139.5c0 48 -7 90.333 -21 127l-314 -350c35.333 -29.333 77 -44 125 -44c41.333 0 78 11.167 110 33.5z" />
    <glyph glyph-name="Ugrave" unicode="&#xd9;" horiz-adv-x="728" 
d="M210 23c-44.667 22 -79.168 52.8311 -103.501 92.498s-36.5 85.5 -36.5 137.5v487h136v-481c0 -47.333 14.5 -85.166 43.5 -113.499s67.5 -42.5 115.5 -42.5c47.333 0 85.333 14.333 114 43s43 66.334 43 113.001v481h136v-487c0 -52 -12.167 -97.833 -36.5 -137.5
s-58.666 -70.5 -102.999 -92.5s-95.833 -33 -154.5 -33c-58 0 -109.333 11 -154 33zM332.999 818.998l-164 161h153l123 -161h-112z" />
    <glyph glyph-name="Uacute" unicode="&#xda;" horiz-adv-x="728" 
d="M210 23c-44.667 22 -79.168 52.8311 -103.501 92.498s-36.5 85.5 -36.5 137.5v487h136v-481c0 -47.333 14.5 -85.166 43.5 -113.499s67.5 -42.5 115.5 -42.5c47.333 0 85.333 14.333 114 43s43 66.334 43 113.001v481h136v-487c0 -52 -12.167 -97.833 -36.5 -137.5
s-58.666 -70.5 -102.999 -92.5s-95.833 -33 -154.5 -33c-58 0 -109.333 11 -154 33zM281.999 818.998l123 161h153l-164 -161h-112z" />
    <glyph glyph-name="Ucircumflex" unicode="&#xdb;" horiz-adv-x="728" 
d="M210 23c-44.667 22 -79.168 52.8311 -103.501 92.498s-36.5 85.5 -36.5 137.5v487h136v-481c0 -47.333 14.5 -85.166 43.5 -113.499s67.5 -42.5 115.5 -42.5c47.333 0 85.333 14.333 114 43s43 66.334 43 113.001v481h136v-487c0 -52 -12.167 -97.833 -36.5 -137.5
s-58.666 -70.5 -102.999 -92.5s-95.833 -33 -154.5 -33c-58 0 -109.333 11 -154 33zM542.999 818.998h-116l-64 84l-64 -84h-117l119 161h125z" />
    <glyph glyph-name="Udieresis" unicode="&#xdc;" horiz-adv-x="728" 
d="M210 23c-44.667 22 -79.168 52.8311 -103.501 92.498s-36.5 85.5 -36.5 137.5v487h136v-481c0 -47.333 14.5 -85.166 43.5 -113.499s67.5 -42.5 115.5 -42.5c47.333 0 85.333 14.333 114 43s43 66.334 43 113.001v481h136v-487c0 -52 -12.167 -97.833 -36.5 -137.5
s-58.666 -70.5 -102.999 -92.5s-95.833 -33 -154.5 -33c-58 0 -109.333 11 -154 33zM194.999 851.998c-14.667 14.667 -22 33.334 -22 56.001s7.33301 41.5 22 56.5s33.334 22.5 56.001 22.5c22 0 40.333 -7.5 55 -22.5s22 -33.833 22 -56.5s-7.33301 -41.334 -22 -56.001
s-33 -22 -55 -22c-22.667 0 -41.334 7.33301 -56.001 22zM420.999 851.998c-14.667 14.667 -22 33.334 -22 56.001s7.33301 41.5 22 56.5s33.334 22.5 56.001 22.5s41.167 -7.33301 55.5 -22s21.5 -33.667 21.5 -57c0 -22.667 -7.16699 -41.334 -21.5 -56.001
s-32.833 -22 -55.5 -22s-41.334 7.33301 -56.001 22z" />
    <glyph glyph-name="Yacute" unicode="&#xdd;" horiz-adv-x="628" 
d="M474 740h145l-237 -465v-275h-136v275l-237 465h146l160 -344zM233 819l123 161h153l-164 -161h-112z" />
    <glyph glyph-name="Thorn" unicode="&#xde;" horiz-adv-x="611" 
d="M472 589.5c36.667 -19.667 65.168 -47.501 85.501 -83.501s30.5 -77.667 30.5 -125c0 -49.333 -10.333 -92.666 -31 -129.999s-49.834 -66.333 -87.501 -87s-81.167 -31 -130.5 -31h-125v-133h-137v740h137v-121h131c48 0 90.333 -9.83301 127 -29.5zM416.001 281.499
c20.667 23.667 31 55.167 31 94.5s-10.667 70.833 -32 94.5s-49.333 35.5 -84 35.5h-117v-260h117c36 0 64.333 11.833 85 35.5z" />
    <glyph glyph-name="germandbls" unicode="&#xdf;" horiz-adv-x="568" 
d="M501 342.5c22.667 -34.333 33.998 -74.166 33.998 -119.499c0 -46 -9.16699 -86.667 -27.5 -122s-44.166 -62.666 -77.499 -81.999s-72 -29 -116 -29c-30.667 0 -56.334 3.66699 -77.001 11l13 108c12 -4 24.667 -6 38 -6c33.333 0 60.333 12 81 36s31 55.333 31 94
c0 40 -11 72 -33 96s-51 36 -87 36v104c26.667 0 47.834 9.66699 63.501 29s23.5 44.666 23.5 75.999s-8 56.333 -24 75s-37.333 28 -64 28c-26 0 -47 -7.83301 -63 -23.5s-24 -36.834 -24 -63.501v-590h-132v603c0 36.667 9 69.167 27 97.5s43.5 50.333 76.5 66
s71.167 23.5 114.5 23.5c44 0 82.833 -8.33301 116.5 -25s59.834 -40.334 78.501 -71.001s28 -65.667 28 -105c0 -37.333 -8.16699 -70.5 -24.5 -99.5s-39.5 -52.167 -69.5 -69.5c40 -17.333 71.333 -43.166 94 -77.499z" />
    <glyph glyph-name="agrave" unicode="&#xe0;" horiz-adv-x="614" 
d="M554 539v-539.001h-127l-3 78c-16.667 -28 -38.334 -49.667 -65.001 -65s-57.667 -23 -93 -23c-43.333 0 -82.833 11.667 -118.5 35s-63.667 56 -84 98s-30.5 90 -30.5 144c0 55.333 10.167 104.333 30.5 147s48.333 75.834 84 99.501s75.167 35.5 118.5 35.5
c35.333 0 66.333 -7.66699 93 -23s48.334 -37.333 65.001 -66l3 79h127zM387 148.499c23.333 30.333 35 70.5 35 120.5s-11.667 90.333 -35 121s-54 46 -92 46c-37.333 0 -67.666 -15.333 -90.999 -46s-35 -71.334 -35 -122.001c0 -49.333 11.667 -89.166 35 -119.499
s53.666 -45.5 90.999 -45.5c38 0 68.667 15.167 92 45.5zM272 617.999l-164 161h153l123 -161h-112z" />
    <glyph glyph-name="aacute" unicode="&#xe1;" horiz-adv-x="614" 
d="M554 539v-539.001h-127l-3 78c-16.667 -28 -38.334 -49.667 -65.001 -65s-57.667 -23 -93 -23c-43.333 0 -82.833 11.667 -118.5 35s-63.667 56 -84 98s-30.5 90 -30.5 144c0 55.333 10.167 104.333 30.5 147s48.333 75.834 84 99.501s75.167 35.5 118.5 35.5
c35.333 0 66.333 -7.66699 93 -23s48.334 -37.333 65.001 -66l3 79h127zM387 148.499c23.333 30.333 35 70.5 35 120.5s-11.667 90.333 -35 121s-54 46 -92 46c-37.333 0 -67.666 -15.333 -90.999 -46s-35 -71.334 -35 -122.001c0 -49.333 11.667 -89.166 35 -119.499
s53.666 -45.5 90.999 -45.5c38 0 68.667 15.167 92 45.5zM221 617.999l123 161h153l-164 -161h-112z" />
    <glyph glyph-name="acircumflex" unicode="&#xe2;" horiz-adv-x="614" 
d="M554 539v-539.001h-127l-3 78c-16.667 -28 -38.334 -49.667 -65.001 -65s-57.667 -23 -93 -23c-43.333 0 -82.833 11.667 -118.5 35s-63.667 56 -84 98s-30.5 90 -30.5 144c0 55.333 10.167 104.333 30.5 147s48.333 75.834 84 99.501s75.167 35.5 118.5 35.5
c35.333 0 66.333 -7.66699 93 -23s48.334 -37.333 65.001 -66l3 79h127zM387 148.499c23.333 30.333 35 70.5 35 120.5s-11.667 90.333 -35 121s-54 46 -92 46c-37.333 0 -67.666 -15.333 -90.999 -46s-35 -71.334 -35 -122.001c0 -49.333 11.667 -89.166 35 -119.499
s53.666 -45.5 90.999 -45.5c38 0 68.667 15.167 92 45.5zM482 617.999h-116l-64 84l-64 -84h-117l119 161h125z" />
    <glyph glyph-name="atilde" unicode="&#xe3;" horiz-adv-x="614" 
d="M554 539v-539.001h-127l-3 78c-16.667 -28 -38.334 -49.667 -65.001 -65s-57.667 -23 -93 -23c-43.333 0 -82.833 11.667 -118.5 35s-63.667 56 -84 98s-30.5 90 -30.5 144c0 55.333 10.167 104.333 30.5 147s48.333 75.834 84 99.501s75.167 35.5 118.5 35.5
c35.333 0 66.333 -7.66699 93 -23s48.334 -37.333 65.001 -66l3 79h127zM387 148.499c23.333 30.333 35 70.5 35 120.5s-11.667 90.333 -35 121s-54 46 -92 46c-37.333 0 -67.666 -15.333 -90.999 -46s-35 -71.334 -35 -122.001c0 -49.333 11.667 -89.166 35 -119.499
s53.666 -45.5 90.999 -45.5c38 0 68.667 15.167 92 45.5zM336.5 627.499c-13 5.66699 -28.8311 13.835 -47.498 24.502c-15.333 9.33301 -27 15.833 -35 19.5s-15.667 5.5 -23 5.5c-10.667 0 -19.167 -4.33301 -25.5 -13s-9.5 -20.334 -9.5 -35.001h-71
c0 42.667 9.5 77.167 28.5 103.5s44.167 39.5 75.5 39.5c14.667 0 28.5 -2.83301 41.5 -8.5s28.833 -13.834 47.5 -24.501c13.333 -8 24.166 -14 32.499 -18s16.166 -6 23.499 -6c10.667 0 19.167 4 25.5 12s9.5 19.667 9.5 35h71c0 -44.667 -9.5 -79.667 -28.5 -105
s-44.167 -38 -75.5 -38c-13.333 0 -26.5 2.83301 -39.5 8.5z" />
    <glyph glyph-name="adieresis" unicode="&#xe4;" horiz-adv-x="614" 
d="M554 539v-539.001h-127l-3 78c-16.667 -28 -38.334 -49.667 -65.001 -65s-57.667 -23 -93 -23c-43.333 0 -82.833 11.667 -118.5 35s-63.667 56 -84 98s-30.5 90 -30.5 144c0 55.333 10.167 104.333 30.5 147s48.333 75.834 84 99.501s75.167 35.5 118.5 35.5
c35.333 0 66.333 -7.66699 93 -23s48.334 -37.333 65.001 -66l3 79h127zM387 148.499c23.333 30.333 35 70.5 35 120.5s-11.667 90.333 -35 121s-54 46 -92 46c-37.333 0 -67.666 -15.333 -90.999 -46s-35 -71.334 -35 -122.001c0 -49.333 11.667 -89.166 35 -119.499
s53.666 -45.5 90.999 -45.5c38 0 68.667 15.167 92 45.5zM134 650.999c-14.667 14.667 -22 33.334 -22 56.001s7.33301 41.5 22 56.5s33.334 22.5 56.001 22.5c22 0 40.333 -7.5 55 -22.5s22 -33.833 22 -56.5s-7.33301 -41.334 -22 -56.001s-33 -22 -55 -22
c-22.667 0 -41.334 7.33301 -56.001 22zM360 650.999c-14.667 14.667 -22 33.334 -22 56.001s7.33301 41.5 22 56.5s33.334 22.5 56.001 22.5s41.167 -7.33301 55.5 -22s21.5 -33.667 21.5 -57c0 -22.667 -7.16699 -41.334 -21.5 -56.001s-32.833 -22 -55.5 -22
s-41.334 7.33301 -56.001 22z" />
    <glyph glyph-name="aring" unicode="&#xe5;" horiz-adv-x="614" 
d="M554 539v-539.001h-127l-3 78c-16.667 -28 -38.334 -49.667 -65.001 -65s-57.667 -23 -93 -23c-43.333 0 -82.833 11.667 -118.5 35s-63.667 56 -84 98s-30.5 90 -30.5 144c0 55.333 10.167 104.333 30.5 147s48.333 75.834 84 99.501s75.167 35.5 118.5 35.5
c35.333 0 66.333 -7.66699 93 -23s48.334 -37.333 65.001 -66l3 79h127zM387 148.499c23.333 30.333 35 70.5 35 120.5s-11.667 90.333 -35 121s-54 46 -92 46c-37.333 0 -67.666 -15.333 -90.999 -46s-35 -71.334 -35 -122.001c0 -49.333 11.667 -89.166 35 -119.499
s53.666 -45.5 90.999 -45.5c38 0 68.667 15.167 92 45.5zM224.5 613.499c-19.667 19.667 -29.5 45.834 -29.5 78.501s9.83301 58.667 29.5 78s45.834 29 78.501 29c32 0 57.833 -9.66699 77.5 -29s29.5 -45.333 29.5 -78s-9.83301 -58.834 -29.5 -78.501
s-45.5 -29.5 -77.5 -29.5c-32.667 0 -58.834 9.83301 -78.501 29.5zM331 656.999c7.33301 8.66699 11 20.334 11 35.001c0 14 -3.66699 25.5 -11 34.5s-16.666 13.5 -27.999 13.5s-20.666 -4.5 -27.999 -13.5s-11 -20.5 -11 -34.5c0 -14.667 3.66699 -26.334 11 -35.001
s16.666 -13 27.999 -13s20.666 4.33301 27.999 13z" />
    <glyph glyph-name="ae" unicode="&#xe6;" horiz-adv-x="847" 
d="M813 222h-347.998c8.66699 -85.333 45.667 -128 111 -128c22.667 0 43.667 5.66699 63 17s36 27.333 50 48l101 -51c-20.667 -36.667 -48.667 -65.5 -84 -86.5s-75 -31.5 -119 -31.5c-40 0 -76.333 8.5 -109 25.5s-59.667 40.833 -81 71.5
c-18.667 -30.667 -44.334 -54.5 -77.001 -71.5s-68 -25.5 -106 -25.5c-56.667 0 -102.167 15.167 -136.5 45.5s-51.5 70.833 -51.5 121.5c0 34 8.66699 63.833 26 89.5s41.666 45.667 72.999 60s67.666 21.5 108.999 21.5c33.333 0 67.333 -4 102 -12v11
c0 37.333 -9.83301 66.333 -29.5 87s-47.5 31 -83.5 31c-43.333 0 -80 -15 -110 -45l-57 79c26 23.333 54.333 40.833 85 52.5s66.334 17.5 107.001 17.5c34 0 65 -7.33301 93 -22s51 -34.667 69 -60c20.667 26 45.667 46.167 75 60.5s61.333 21.5 96 21.5
c46.667 0 87.667 -11.333 123 -34s62.833 -54.5 82.5 -95.5s29.5 -88.5 29.5 -142.5c0 -20.667 -1 -39 -3 -55zM498.502 410.5c-17.667 -23 -28.833 -55.833 -33.5 -98.5h214c-4 42.667 -15.167 75.5 -33.5 98.5s-43.166 34.5 -74.499 34.5
c-30.667 0 -54.834 -11.5 -72.501 -34.5zM305.003 123.5c20.667 25.667 30.999 60.166 30.999 103.499c-28.667 6.66699 -56.667 10 -84 10c-28.667 0 -51.5 -7.16699 -68.5 -21.5s-25.5 -33.166 -25.5 -56.499c0 -22.667 6.33301 -40.667 19 -54s30.667 -20 54 -20
c28.667 0 53.334 12.833 74.001 38.5z" />
    <glyph glyph-name="ccedilla" unicode="&#xe7;" horiz-adv-x="495" 
d="M320 -9l-26.002 -46c28.667 -0.666992 51.5 -8.83398 68.5 -24.501s25.5 -35.5 25.5 -59.5c0 -27.333 -10.833 -49.333 -32.5 -66s-50.834 -25 -87.501 -25c-18 0 -35 2.33301 -51 7s-29 10.667 -39 18l23 49c14 -12.667 32 -19 54 -19
c14.667 0 26.334 3.33301 35.001 10s13 15.334 13 26.001c0 10 -3.83301 17.833 -11.5 23.5s-18.167 8.5 -31.5 8.5c-12 0 -22.667 -2.66699 -32 -8l-17 30l38 78c-66 10 -118.5 39.833 -157.5 89.5s-58.5 112.167 -58.5 187.5c0 55.333 11 104 33 146
s52.833 74.667 92.5 98s85.834 35 138.501 35c62.667 0 118.334 -20.667 167.001 -62l-74 -90c-24 26 -54 39 -90 39c-39.333 0 -70.833 -15.333 -94.5 -46s-35.5 -71 -35.5 -121s11.833 -90.167 35.5 -120.5s55.167 -45.5 94.5 -45.5c46 0 81.333 16.333 106 49l75 -87
c-40 -44 -93.667 -68.667 -161 -74z" />
    <glyph glyph-name="egrave" unicode="&#xe8;" horiz-adv-x="554" 
d="M520 222l-348 -0.00195312c8.66699 -85.333 45.667 -128 111 -128c22.667 0 43.667 5.66699 63 17s36 27.333 50 48l101 -51c-22 -36.667 -51.5 -65.5 -88.5 -86.5s-78.167 -31.5 -123.5 -31.5c-50 0 -94 11.5 -132 34.5s-67.5 55.333 -88.5 97
s-31.5 89.834 -31.5 144.501c0 56 10.167 105.333 30.5 148s49 75.834 86 99.501s79.833 35.5 128.5 35.5s91.5 -11.333 128.5 -34s65.667 -54.5 86 -95.5s30.5 -88.5 30.5 -142.5c0 -20.667 -1 -39 -3 -55zM205.5 410.498c-17.667 -23 -28.833 -55.833 -33.5 -98.5h214
c-4 42.667 -15.167 75.5 -33.5 98.5s-43.166 34.5 -74.499 34.5c-30.667 0 -54.834 -11.5 -72.501 -34.5zM247.001 617.998l-164 161h153l123 -161h-112z" />
    <glyph glyph-name="eacute" unicode="&#xe9;" horiz-adv-x="554" 
d="M520 222l-348 -0.00195312c8.66699 -85.333 45.667 -128 111 -128c22.667 0 43.667 5.66699 63 17s36 27.333 50 48l101 -51c-22 -36.667 -51.5 -65.5 -88.5 -86.5s-78.167 -31.5 -123.5 -31.5c-50 0 -94 11.5 -132 34.5s-67.5 55.333 -88.5 97
s-31.5 89.834 -31.5 144.501c0 56 10.167 105.333 30.5 148s49 75.834 86 99.501s79.833 35.5 128.5 35.5s91.5 -11.333 128.5 -34s65.667 -54.5 86 -95.5s30.5 -88.5 30.5 -142.5c0 -20.667 -1 -39 -3 -55zM205.5 410.498c-17.667 -23 -28.833 -55.833 -33.5 -98.5h214
c-4 42.667 -15.167 75.5 -33.5 98.5s-43.166 34.5 -74.499 34.5c-30.667 0 -54.834 -11.5 -72.501 -34.5zM196.001 617.998l123 161h153l-164 -161h-112z" />
    <glyph glyph-name="ecircumflex" unicode="&#xea;" horiz-adv-x="554" 
d="M520 222l-348 -0.00195312c8.66699 -85.333 45.667 -128 111 -128c22.667 0 43.667 5.66699 63 17s36 27.333 50 48l101 -51c-22 -36.667 -51.5 -65.5 -88.5 -86.5s-78.167 -31.5 -123.5 -31.5c-50 0 -94 11.5 -132 34.5s-67.5 55.333 -88.5 97
s-31.5 89.834 -31.5 144.501c0 56 10.167 105.333 30.5 148s49 75.834 86 99.501s79.833 35.5 128.5 35.5s91.5 -11.333 128.5 -34s65.667 -54.5 86 -95.5s30.5 -88.5 30.5 -142.5c0 -20.667 -1 -39 -3 -55zM205.5 410.498c-17.667 -23 -28.833 -55.833 -33.5 -98.5h214
c-4 42.667 -15.167 75.5 -33.5 98.5s-43.166 34.5 -74.499 34.5c-30.667 0 -54.834 -11.5 -72.501 -34.5zM457.001 617.998h-116l-64 84l-64 -84h-117l119 161h125z" />
    <glyph glyph-name="edieresis" unicode="&#xeb;" horiz-adv-x="554" 
d="M520 222l-348 -0.00195312c8.66699 -85.333 45.667 -128 111 -128c22.667 0 43.667 5.66699 63 17s36 27.333 50 48l101 -51c-22 -36.667 -51.5 -65.5 -88.5 -86.5s-78.167 -31.5 -123.5 -31.5c-50 0 -94 11.5 -132 34.5s-67.5 55.333 -88.5 97
s-31.5 89.834 -31.5 144.501c0 56 10.167 105.333 30.5 148s49 75.834 86 99.501s79.833 35.5 128.5 35.5s91.5 -11.333 128.5 -34s65.667 -54.5 86 -95.5s30.5 -88.5 30.5 -142.5c0 -20.667 -1 -39 -3 -55zM205.5 410.498c-17.667 -23 -28.833 -55.833 -33.5 -98.5h214
c-4 42.667 -15.167 75.5 -33.5 98.5s-43.166 34.5 -74.499 34.5c-30.667 0 -54.834 -11.5 -72.501 -34.5zM109.001 650.998c-14.667 14.667 -22 33.334 -22 56.001s7.33301 41.5 22 56.5s33.334 22.5 56.001 22.5c22 0 40.333 -7.5 55 -22.5s22 -33.833 22 -56.5
s-7.33301 -41.334 -22 -56.001s-33 -22 -55 -22c-22.667 0 -41.334 7.33301 -56.001 22zM335.001 650.998c-14.667 14.667 -22 33.334 -22 56.001s7.33301 41.5 22 56.5s33.334 22.5 56.001 22.5s41.167 -7.33301 55.5 -22s21.5 -33.667 21.5 -57
c0 -22.667 -7.16699 -41.334 -21.5 -56.001s-32.833 -22 -55.5 -22s-41.334 7.33301 -56.001 22z" />
    <glyph glyph-name="igrave" unicode="&#xec;" horiz-adv-x="253" 
d="M61 0v538h131v-538h-131zM96 617l-164 161h153l123 -161h-112z" />
    <glyph glyph-name="iacute" unicode="&#xed;" horiz-adv-x="253" 
d="M61 0v538h131v-538h-131zM45 617l123 161h153l-164 -161h-112z" />
    <glyph glyph-name="icircumflex" unicode="&#xee;" horiz-adv-x="253" 
d="M61 0v538h131v-538h-131zM306 617h-116l-64 84l-64 -84h-117l119 161h125z" />
    <glyph glyph-name="idieresis" unicode="&#xef;" horiz-adv-x="253" 
d="M61 0v538h131v-538h-131zM-42 650c-14.667 14.667 -22 33.334 -22 56.001s7.33301 41.5 22 56.5s33.334 22.5 56.001 22.5c22 0 40.333 -7.5 55 -22.5s22 -33.833 22 -56.5s-7.33301 -41.334 -22 -56.001s-33 -22 -55 -22c-22.667 0 -41.334 7.33301 -56.001 22zM184 650
c-14.667 14.667 -22 33.334 -22 56.001s7.33301 41.5 22 56.5s33.334 22.5 56.001 22.5s41.167 -7.33301 55.5 -22s21.5 -33.667 21.5 -57c0 -22.667 -7.16699 -41.334 -21.5 -56.001s-32.833 -22 -55.5 -22s-41.334 7.33301 -56.001 22z" />
    <glyph glyph-name="eth" unicode="&#xf0;" horiz-adv-x="594" 
d="M509.5 518c32.333 -66 48.5039 -136 48.5039 -210c0 -62.667 -10.833 -118.167 -32.5 -166.5s-52.334 -85.666 -92.001 -111.999s-85.167 -39.5 -136.5 -39.5c-52 0 -98 11.667 -138 35s-70.833 56.166 -92.5 98.499s-32.5 91.5 -32.5 147.5
c0 52.667 10.167 99.334 30.5 140.001s48.166 72.167 83.499 94.5s74.666 33.5 117.999 33.5c30 0 57.333 -5.66699 82 -17c-24 37.333 -53.333 71.666 -88 102.999l-53 -36l-69 52l55 38c-16 12 -36 25.333 -60 40l109 71c21.333 -12.667 40.666 -25 57.999 -37l54 37
l69 -53l-55 -38c62 -54.667 109.167 -115 141.5 -181zM387.504 149c23 30.667 34.5 70.667 34.5 120c0 50 -11.5 90.333 -34.5 121s-53.167 46 -90.5 46c-38.667 0 -69.5 -15.333 -92.5 -46s-34.5 -71 -34.5 -121s11.5 -90.167 34.5 -120.5s53.833 -45.5 92.5 -45.5
c37.333 0 67.5 15.333 90.5 46z" />
    <glyph glyph-name="ntilde" unicode="&#xf1;" horiz-adv-x="592" 
d="M485 495.5c35.333 -35.667 53.001 -82.833 53.001 -141.5v-354h-132v333c0 31.333 -9.66699 56.333 -29 75s-45.333 28 -78 28s-58.667 -9.33301 -78 -28s-29 -43.667 -29 -75v-333h-132v539h127l2 -64c18 24 40.667 42.333 68 55s56.666 19 87.999 19
c58 0 104.667 -17.833 140 -53.5zM334.501 627.501c-13 5.66699 -28.8311 13.835 -47.498 24.502c-15.333 9.33301 -27 15.833 -35 19.5s-15.667 5.5 -23 5.5c-10.667 0 -19.167 -4.33301 -25.5 -13s-9.5 -20.334 -9.5 -35.001h-71c0 42.667 9.5 77.167 28.5 103.5
s44.167 39.5 75.5 39.5c14.667 0 28.5 -2.83301 41.5 -8.5s28.833 -13.834 47.5 -24.501c13.333 -8 24.166 -14 32.499 -18s16.166 -6 23.499 -6c10.667 0 19.167 4 25.5 12s9.5 19.667 9.5 35h71c0 -44.667 -9.5 -79.667 -28.5 -105s-44.167 -38 -75.5 -38
c-13.333 0 -26.5 2.83301 -39.5 8.5z" />
    <glyph glyph-name="ograve" unicode="&#xf2;" horiz-adv-x="591" 
d="M158.5 25c-39.667 23.333 -70.5 56 -92.5 98s-33 90.667 -33 146s11 104.166 33 146.499s52.833 75.166 92.5 98.499s85.5 35 137.5 35c51.333 0 96.833 -11.667 136.5 -35s70.334 -56.166 92.001 -98.499s32.5 -91.166 32.5 -146.499s-10.833 -104 -32.5 -146
s-52.334 -74.667 -92.001 -98s-85.167 -35 -136.5 -35c-52 0 -97.833 11.667 -137.5 35zM386.5 149c23 30.667 34.5 70.667 34.5 120c0 50 -11.5 90.333 -34.5 121s-53.5 46 -91.5 46c-37.333 0 -67.666 -15.333 -90.999 -46s-35 -71 -35 -121
c0 -49.333 11.667 -89.333 35 -120s53.666 -46 90.999 -46c38 0 68.5 15.333 91.5 46zM265 618l-164 161h153l123 -161h-112z" />
    <glyph glyph-name="oacute" unicode="&#xf3;" horiz-adv-x="591" 
d="M158.5 25c-39.667 23.333 -70.5 56 -92.5 98s-33 90.667 -33 146s11 104.166 33 146.499s52.833 75.166 92.5 98.499s85.5 35 137.5 35c51.333 0 96.833 -11.667 136.5 -35s70.334 -56.166 92.001 -98.499s32.5 -91.166 32.5 -146.499s-10.833 -104 -32.5 -146
s-52.334 -74.667 -92.001 -98s-85.167 -35 -136.5 -35c-52 0 -97.833 11.667 -137.5 35zM386.5 149c23 30.667 34.5 70.667 34.5 120c0 50 -11.5 90.333 -34.5 121s-53.5 46 -91.5 46c-37.333 0 -67.666 -15.333 -90.999 -46s-35 -71 -35 -121
c0 -49.333 11.667 -89.333 35 -120s53.666 -46 90.999 -46c38 0 68.5 15.333 91.5 46zM214 618l123 161h153l-164 -161h-112z" />
    <glyph glyph-name="ocircumflex" unicode="&#xf4;" horiz-adv-x="591" 
d="M158.5 25c-39.667 23.333 -70.5 56 -92.5 98s-33 90.667 -33 146s11 104.166 33 146.499s52.833 75.166 92.5 98.499s85.5 35 137.5 35c51.333 0 96.833 -11.667 136.5 -35s70.334 -56.166 92.001 -98.499s32.5 -91.166 32.5 -146.499s-10.833 -104 -32.5 -146
s-52.334 -74.667 -92.001 -98s-85.167 -35 -136.5 -35c-52 0 -97.833 11.667 -137.5 35zM386.5 149c23 30.667 34.5 70.667 34.5 120c0 50 -11.5 90.333 -34.5 121s-53.5 46 -91.5 46c-37.333 0 -67.666 -15.333 -90.999 -46s-35 -71 -35 -121
c0 -49.333 11.667 -89.333 35 -120s53.666 -46 90.999 -46c38 0 68.5 15.333 91.5 46zM475 618h-116l-64 84l-64 -84h-117l119 161h125z" />
    <glyph glyph-name="otilde" unicode="&#xf5;" horiz-adv-x="591" 
d="M158.5 25c-39.667 23.333 -70.5 56 -92.5 98s-33 90.667 -33 146s11 104.166 33 146.499s52.833 75.166 92.5 98.499s85.5 35 137.5 35c51.333 0 96.833 -11.667 136.5 -35s70.334 -56.166 92.001 -98.499s32.5 -91.166 32.5 -146.499s-10.833 -104 -32.5 -146
s-52.334 -74.667 -92.001 -98s-85.167 -35 -136.5 -35c-52 0 -97.833 11.667 -137.5 35zM386.5 149c23 30.667 34.5 70.667 34.5 120c0 50 -11.5 90.333 -34.5 121s-53.5 46 -91.5 46c-37.333 0 -67.666 -15.333 -90.999 -46s-35 -71 -35 -121
c0 -49.333 11.667 -89.333 35 -120s53.666 -46 90.999 -46c38 0 68.5 15.333 91.5 46zM329.5 627.5c-13 5.66699 -28.8311 13.835 -47.498 24.502c-15.333 9.33301 -27 15.833 -35 19.5s-15.667 5.5 -23 5.5c-10.667 0 -19.167 -4.33301 -25.5 -13
s-9.5 -20.334 -9.5 -35.001h-71c0 42.667 9.5 77.167 28.5 103.5s44.167 39.5 75.5 39.5c14.667 0 28.5 -2.83301 41.5 -8.5s28.833 -13.834 47.5 -24.501c13.333 -8 24.166 -14 32.499 -18s16.166 -6 23.499 -6c10.667 0 19.167 4 25.5 12s9.5 19.667 9.5 35h71
c0 -44.667 -9.5 -79.667 -28.5 -105s-44.167 -38 -75.5 -38c-13.333 0 -26.5 2.83301 -39.5 8.5z" />
    <glyph glyph-name="odieresis" unicode="&#xf6;" horiz-adv-x="591" 
d="M158.5 25c-39.667 23.333 -70.5 56 -92.5 98s-33 90.667 -33 146s11 104.166 33 146.499s52.833 75.166 92.5 98.499s85.5 35 137.5 35c51.333 0 96.833 -11.667 136.5 -35s70.334 -56.166 92.001 -98.499s32.5 -91.166 32.5 -146.499s-10.833 -104 -32.5 -146
s-52.334 -74.667 -92.001 -98s-85.167 -35 -136.5 -35c-52 0 -97.833 11.667 -137.5 35zM386.5 149c23 30.667 34.5 70.667 34.5 120c0 50 -11.5 90.333 -34.5 121s-53.5 46 -91.5 46c-37.333 0 -67.666 -15.333 -90.999 -46s-35 -71 -35 -121
c0 -49.333 11.667 -89.333 35 -120s53.666 -46 90.999 -46c38 0 68.5 15.333 91.5 46zM127 651c-14.667 14.667 -22 33.334 -22 56.001s7.33301 41.5 22 56.5s33.334 22.5 56.001 22.5c22 0 40.333 -7.5 55 -22.5s22 -33.833 22 -56.5s-7.33301 -41.334 -22 -56.001
s-33 -22 -55 -22c-22.667 0 -41.334 7.33301 -56.001 22zM353 651c-14.667 14.667 -22 33.334 -22 56.001s7.33301 41.5 22 56.5s33.334 22.5 56.001 22.5s41.167 -7.33301 55.5 -22s21.5 -33.667 21.5 -57c0 -22.667 -7.16699 -41.334 -21.5 -56.001s-32.833 -22 -55.5 -22
s-41.334 7.33301 -56.001 22z" />
    <glyph glyph-name="divide" unicode="&#xf7;" horiz-adv-x="520" 
d="M205 481.5c-14.667 15 -22 33.833 -22 56.5s7.33301 41.334 22 56.001s33 22 55 22c22.667 0 41.334 -7.33301 56.001 -22s22 -33.334 22 -56.001c0 -23.333 -7.33301 -42.333 -22 -57s-33.334 -22 -56.001 -22c-22 0 -40.333 7.5 -55 22.5zM44 296v108h432v-108h-432z
M205 107.5c-14.667 15 -22 33.833 -22 56.5s7.33301 41.5 22 56.5s33 22.5 55 22.5c22.667 0 41.334 -7.33301 56.001 -22s22 -33.667 22 -57c0 -22.667 -7.33301 -41.5 -22 -56.5s-33.334 -22.5 -56.001 -22.5c-22 0 -40.333 7.5 -55 22.5z" />
    <glyph glyph-name="oslash" unicode="&#xf8;" horiz-adv-x="592" 
d="M515 433c28 -46.667 42.001 -101.33 42.001 -163.997c0 -55.333 -10.833 -104 -32.5 -146s-52.334 -74.667 -92.001 -98s-85.167 -35 -136.5 -35c-56 0 -104.667 13.333 -146 40l-36 -40l-80 70l42 46c-28.667 45.333 -43 99.666 -43 162.999
c0 55.333 11 104.166 33 146.499s52.833 75.166 92.5 98.499s85.5 35 137.5 35c56 0 104.667 -13.667 146 -41l36 40l79 -69zM175.001 215.004l183.998 202c-19.333 12.667 -40.666 19 -63.999 19c-37.333 0 -67.666 -15.333 -90.999 -46s-35 -71 -35 -121
c0 -20 2 -38 6 -54zM415.999 323.004l-183 -202c18 -12 38.667 -18 62 -18c38 0 68.5 15.333 91.5 46s34.5 70.667 34.5 120c0 17.333 -1.66699 35.333 -5 54z" />
    <glyph glyph-name="ugrave" unicode="&#xf9;" horiz-adv-x="567" 
d="M163.5 15.5c-35 17 -62.001 40.832 -81.001 71.499s-28.5 66.334 -28.5 107.001v345h131v-338c0 -29.333 9 -53 27 -71s42 -27 72 -27c29.333 0 52.833 9 70.5 27s26.5 41.667 26.5 71v338h131v-345c0 -40 -9.5 -75.5 -28.5 -106.5s-45.667 -55 -80 -72
s-74.166 -25.5 -119.499 -25.5s-85.5 8.5 -120.5 25.5zM252.999 617.999l-164 161h153l123 -161h-112z" />
    <glyph glyph-name="uacute" unicode="&#xfa;" horiz-adv-x="567" 
d="M163.5 15.5c-35 17 -62.001 40.832 -81.001 71.499s-28.5 66.334 -28.5 107.001v345h131v-338c0 -29.333 9 -53 27 -71s42 -27 72 -27c29.333 0 52.833 9 70.5 27s26.5 41.667 26.5 71v338h131v-345c0 -40 -9.5 -75.5 -28.5 -106.5s-45.667 -55 -80 -72
s-74.166 -25.5 -119.499 -25.5s-85.5 8.5 -120.5 25.5zM201.999 617.999l123 161h153l-164 -161h-112z" />
    <glyph glyph-name="ucircumflex" unicode="&#xfb;" horiz-adv-x="567" 
d="M163.5 15.5c-35 17 -62.001 40.832 -81.001 71.499s-28.5 66.334 -28.5 107.001v345h131v-338c0 -29.333 9 -53 27 -71s42 -27 72 -27c29.333 0 52.833 9 70.5 27s26.5 41.667 26.5 71v338h131v-345c0 -40 -9.5 -75.5 -28.5 -106.5s-45.667 -55 -80 -72
s-74.166 -25.5 -119.499 -25.5s-85.5 8.5 -120.5 25.5zM462.999 617.999h-116l-64 84l-64 -84h-117l119 161h125z" />
    <glyph glyph-name="udieresis" unicode="&#xfc;" horiz-adv-x="567" 
d="M163.5 15.5c-35 17 -62.001 40.832 -81.001 71.499s-28.5 66.334 -28.5 107.001v345h131v-338c0 -29.333 9 -53 27 -71s42 -27 72 -27c29.333 0 52.833 9 70.5 27s26.5 41.667 26.5 71v338h131v-345c0 -40 -9.5 -75.5 -28.5 -106.5s-45.667 -55 -80 -72
s-74.166 -25.5 -119.499 -25.5s-85.5 8.5 -120.5 25.5zM114.999 650.999c-14.667 14.667 -22 33.334 -22 56.001s7.33301 41.5 22 56.5s33.334 22.5 56.001 22.5c22 0 40.333 -7.5 55 -22.5s22 -33.833 22 -56.5s-7.33301 -41.334 -22 -56.001s-33 -22 -55 -22
c-22.667 0 -41.334 7.33301 -56.001 22zM340.999 650.999c-14.667 14.667 -22 33.334 -22 56.001s7.33301 41.5 22 56.5s33.334 22.5 56.001 22.5s41.167 -7.33301 55.5 -22s21.5 -33.667 21.5 -57c0 -22.667 -7.16699 -41.334 -21.5 -56.001s-32.833 -22 -55.5 -22
s-41.334 7.33301 -56.001 22z" />
    <glyph glyph-name="yacute" unicode="&#xfd;" horiz-adv-x="573" 
d="M513 539v-489.001c0 -56 -11.167 -105.167 -33.5 -147.5s-53.833 -75 -94.5 -98s-87.667 -34.5 -141 -34.5c-38.667 0 -74.667 5.66699 -108 17s-62 28.333 -86 51l29 104c44.667 -39.333 98.334 -59 161.001 -59c42.667 0 77 15.5 103 46.5s39 71.833 39 122.5v4
c-17.333 -21.333 -38.333 -37.666 -63 -48.999s-51.667 -17 -81 -17c-54.667 0 -98.834 17.333 -132.501 52s-50.5 80.667 -50.5 138v359h131v-338c0 -29.333 9 -53 27 -71s41.667 -27 71 -27s53 9 71 27s27 41.667 27 71v338h131zM198 617.999l123 161h153l-164 -161h-112z
" />
    <glyph glyph-name="thorn" unicode="&#xfe;" horiz-adv-x="615" 
d="M466.5 514c35.667 -23.333 63.667 -55.999 84 -97.999s30.5 -90 30.5 -144c0 -55.333 -10.167 -104.333 -30.5 -147s-48.333 -75.834 -84 -99.501s-75.167 -35.5 -118.5 -35.5c-68 0 -120 28 -156 84v-294h-132v1000h132v-315c36 56 88 84 156 84
c43.333 0 82.833 -11.667 118.5 -35zM410 149.001c23.333 30.667 35 71 35 121c0 49.333 -11.667 89.333 -35 120s-54 46 -92 46s-68.5 -15.333 -91.5 -46s-34.5 -71 -34.5 -121c0 -49.333 11.5 -89.333 34.5 -120s53.5 -46 91.5 -46s68.667 15.333 92 46z" />
    <glyph glyph-name="ydieresis" unicode="&#xff;" horiz-adv-x="573" 
d="M513 539v-489.001c0 -56 -11.167 -105.167 -33.5 -147.5s-53.833 -75 -94.5 -98s-87.667 -34.5 -141 -34.5c-38.667 0 -74.667 5.66699 -108 17s-62 28.333 -86 51l29 104c44.667 -39.333 98.334 -59 161.001 -59c42.667 0 77 15.5 103 46.5s39 71.833 39 122.5v4
c-17.333 -21.333 -38.333 -37.666 -63 -48.999s-51.667 -17 -81 -17c-54.667 0 -98.834 17.333 -132.501 52s-50.5 80.667 -50.5 138v359h131v-338c0 -29.333 9 -53 27 -71s41.667 -27 71 -27s53 9 71 27s27 41.667 27 71v338h131zM111 650.999
c-14.667 14.667 -22 33.334 -22 56.001s7.33301 41.5 22 56.5s33.334 22.5 56.001 22.5c22 0 40.333 -7.5 55 -22.5s22 -33.833 22 -56.5s-7.33301 -41.334 -22 -56.001s-33 -22 -55 -22c-22.667 0 -41.334 7.33301 -56.001 22zM337 650.999
c-14.667 14.667 -22 33.334 -22 56.001s7.33301 41.5 22 56.5s33.334 22.5 56.001 22.5s41.167 -7.33301 55.5 -22s21.5 -33.667 21.5 -57c0 -22.667 -7.16699 -41.334 -21.5 -56.001s-32.833 -22 -55.5 -22s-41.334 7.33301 -56.001 22z" />
    <glyph glyph-name="Amacron" unicode="&#x100;" horiz-adv-x="728" 
d="M518.5 717c44.333 -22 78.667 -52.833 103 -92.5s36.5 -85.5 36.5 -137.5v-487h-136v219h-316v-219h-136v487c0 52 12.167 97.833 36.5 137.5s58.833 70.5 103.5 92.5s96 33 154 33c58.667 0 110.167 -11 154.5 -33zM522.001 332v150c0 46.667 -14.333 84.167 -43 112.5
s-66.667 42.5 -114 42.5c-48 0 -86.5 -14.167 -115.5 -42.5s-43.5 -65.833 -43.5 -112.5v-150h316zM201.001 826v104h326v-104h-326z" />
    <glyph glyph-name="amacron" unicode="&#x101;" horiz-adv-x="614" 
d="M554 539v-539.001h-127l-3 78c-16.667 -28 -38.334 -49.667 -65.001 -65s-57.667 -23 -93 -23c-43.333 0 -82.833 11.667 -118.5 35s-63.667 56 -84 98s-30.5 90 -30.5 144c0 55.333 10.167 104.333 30.5 147s48.333 75.834 84 99.501s75.167 35.5 118.5 35.5
c35.333 0 66.333 -7.66699 93 -23s48.334 -37.333 65.001 -66l3 79h127zM387 148.499c23.333 30.333 35 70.5 35 120.5s-11.667 90.333 -35 121s-54 46 -92 46c-37.333 0 -67.666 -15.333 -90.999 -46s-35 -71.334 -35 -122.001c0 -49.333 11.667 -89.166 35 -119.499
s53.666 -45.5 90.999 -45.5c38 0 68.667 15.167 92 45.5zM140 624.999v104h326v-104h-326z" />
    <glyph glyph-name="Abreve" unicode="&#x102;" horiz-adv-x="728" 
d="M518.5 717c44.333 -22 78.667 -52.833 103 -92.5s36.5 -85.5 36.5 -137.5v-487h-136v219h-316v-219h-136v487c0 52 12.167 97.833 36.5 137.5s58.833 70.5 103.5 92.5s96 33 154 33c58.667 0 110.167 -11 154.5 -33zM522.001 332v150c0 46.667 -14.333 84.167 -43 112.5
s-66.667 42.5 -114 42.5c-48 0 -86.5 -14.167 -115.5 -42.5s-43.5 -65.833 -43.5 -112.5v-150h316zM243.001 857c-30.667 31.333 -46 72.333 -46 123h99c0 -28 6.33301 -50.5 19 -67.5s29 -25.5 49 -25.5s36.167 8.5 48.5 25.5s18.5 39.5 18.5 67.5h99
c0 -51.333 -15.167 -92.5 -45.5 -123.5s-70.5 -46.5 -120.5 -46.5s-90.333 15.667 -121 47z" />
    <glyph glyph-name="abreve" unicode="&#x103;" horiz-adv-x="614" 
d="M554 539v-539.001h-127l-3 78c-16.667 -28 -38.334 -49.667 -65.001 -65s-57.667 -23 -93 -23c-43.333 0 -82.833 11.667 -118.5 35s-63.667 56 -84 98s-30.5 90 -30.5 144c0 55.333 10.167 104.333 30.5 147s48.333 75.834 84 99.501s75.167 35.5 118.5 35.5
c35.333 0 66.333 -7.66699 93 -23s48.334 -37.333 65.001 -66l3 79h127zM387 148.499c23.333 30.333 35 70.5 35 120.5s-11.667 90.333 -35 121s-54 46 -92 46c-37.333 0 -67.666 -15.333 -90.999 -46s-35 -71.334 -35 -122.001c0 -49.333 11.667 -89.166 35 -119.499
s53.666 -45.5 90.999 -45.5c38 0 68.667 15.167 92 45.5zM182 655.999c-30.667 31.333 -46 72.333 -46 123h99c0 -28 6.33301 -50.5 19 -67.5s29 -25.5 49 -25.5s36.167 8.5 48.5 25.5s18.5 39.5 18.5 67.5h99c0 -51.333 -15.167 -92.5 -45.5 -123.5
s-70.5 -46.5 -120.5 -46.5s-90.333 15.667 -121 47z" />
    <glyph glyph-name="Aogonek" unicode="&#x104;" horiz-adv-x="728" 
d="M661 -202c-24 -18.667 -52.332 -28 -84.999 -28c-28 0 -50.667 8.16699 -68 24.5s-26 37.5 -26 63.5c0 48 28.667 95.333 86 142h-46v219h-316v-219h-136v487c0 52 12.167 97.833 36.5 137.5s58.833 70.5 103.5 92.5s96 33 154 33c58.667 0 110.167 -11 154.5 -33
s78.666 -52.833 102.999 -92.5s36.5 -85.5 36.5 -137.5v-487c-54 -40 -81 -80 -81 -120c0 -10.667 2.83301 -19 8.5 -25s13.167 -9 22.5 -9c15.333 0 29.333 5.66699 42 17zM522.001 332v150c0 46.667 -14.333 84.167 -43 112.5s-66.667 42.5 -114 42.5
c-48 0 -86.5 -14.167 -115.5 -42.5s-43.5 -65.833 -43.5 -112.5v-150h316z" />
    <glyph glyph-name="aogonek" unicode="&#x105;" horiz-adv-x="614" 
d="M557 -202c-24 -18.667 -52.333 -28.001 -85 -28.001c-28 0 -50.667 8.16699 -68 24.5s-26 37.5 -26 63.5c0 48 28.667 95.333 86 142h-37l-3 78c-16.667 -28 -38.334 -49.667 -65.001 -65s-57.667 -23 -93 -23c-43.333 0 -82.833 11.667 -118.5 35s-63.667 56 -84 98
s-30.5 90 -30.5 144c0 55.333 10.167 104.333 30.5 147s48.333 75.834 84 99.501s75.167 35.5 118.5 35.5c35.333 0 66.333 -7.66699 93 -23s48.334 -37.333 65.001 -66l3 79h127v-539c-54 -40 -81 -80 -81 -120c0 -10.667 2.83301 -19 8.5 -25s13.167 -9 22.5 -9
c15.333 0 29.333 5.66699 42 17zM387 148.499c23.333 30.333 35 70.5 35 120.5s-11.667 90.333 -35 121s-54 46 -92 46c-37.333 0 -67.666 -15.333 -90.999 -46s-35 -71.334 -35 -122.001c0 -49.333 11.667 -89.166 35 -119.499s53.666 -45.5 90.999 -45.5
c38 0 68.667 15.167 92 45.5z" />
    <glyph glyph-name="Cacute" unicode="&#x106;" horiz-adv-x="693" 
d="M208 37.5c-54 31.667 -95.833 76.499 -125.5 134.499s-44.5 124.667 -44.5 200c0 74.667 14.833 140.667 44.5 198s71.334 101.666 125.001 132.999s115.5 47 185.5 47c110 0 198 -39.667 264 -119l-85 -88c-19.333 28.667 -44.333 51.5 -75 68.5s-64.667 25.5 -102 25.5
c-42.667 0 -80.334 -11 -113.001 -33s-58 -53.167 -76 -93.5s-27 -86.833 -27 -139.5c0 -53.333 9 -100.166 27 -140.499s43.5 -71.666 76.5 -93.999s71.167 -33.5 114.5 -33.5c80.667 0 144 39.333 190 118l92 -82c-33.333 -48.667 -74 -85.667 -122 -111
s-102.333 -38 -163 -38c-70 0 -132 15.833 -186 47.5zM302 818.999l123 161h153l-164 -161h-112z" />
    <glyph glyph-name="cacute" unicode="&#x107;" horiz-adv-x="495" 
d="M157 25c-39.333 23.333 -69.835 56.167 -91.502 98.5s-32.5 91.166 -32.5 146.499s11 104 33 146s52.833 74.667 92.5 98s85.834 35 138.501 35c62.667 0 118.334 -20.667 167.001 -62l-74 -90c-24 26 -54 39 -90 39c-39.333 0 -70.833 -15.333 -94.5 -46
s-35.5 -71 -35.5 -121s11.833 -90.167 35.5 -120.5s55.167 -45.5 94.5 -45.5c46 0 81.333 16.333 106 49l75 -87c-23.333 -25.333 -50.833 -44.166 -82.5 -56.499s-66.5 -18.5 -104.5 -18.5c-52 0 -97.667 11.667 -137 35zM202.998 618.001l123 161h153l-164 -161h-112z" />
    <glyph glyph-name="Cdotaccent" unicode="&#x10a;" horiz-adv-x="693" 
d="M208 37.5c-54 31.667 -95.833 76.499 -125.5 134.499s-44.5 124.667 -44.5 200c0 74.667 14.833 140.667 44.5 198s71.334 101.666 125.001 132.999s115.5 47 185.5 47c110 0 198 -39.667 264 -119l-85 -88c-19.333 28.667 -44.333 51.5 -75 68.5s-64.667 25.5 -102 25.5
c-42.667 0 -80.334 -11 -113.001 -33s-58 -53.167 -76 -93.5s-27 -86.833 -27 -139.5c0 -53.333 9 -100.166 27 -140.499s43.5 -71.666 76.5 -93.999s71.167 -33.5 114.5 -33.5c80.667 0 144 39.333 190 118l92 -82c-33.333 -48.667 -74 -85.667 -122 -111
s-102.333 -38 -163 -38c-70 0 -132 15.833 -186 47.5zM328 851.999c-14.667 14.667 -22 33.334 -22 56.001s7.33301 41.5 22 56.5s33.334 22.5 56.001 22.5c22 0 40.333 -7.5 55 -22.5s22 -33.833 22 -56.5s-7.33301 -41.334 -22 -56.001s-33 -22 -55 -22
c-22.667 0 -41.334 7.33301 -56.001 22z" />
    <glyph glyph-name="cdotaccent" unicode="&#x10b;" horiz-adv-x="495" 
d="M157 25c-39.333 23.333 -69.835 56.167 -91.502 98.5s-32.5 91.166 -32.5 146.499s11 104 33 146s52.833 74.667 92.5 98s85.834 35 138.501 35c62.667 0 118.334 -20.667 167.001 -62l-74 -90c-24 26 -54 39 -90 39c-39.333 0 -70.833 -15.333 -94.5 -46
s-35.5 -71 -35.5 -121s11.833 -90.167 35.5 -120.5s55.167 -45.5 94.5 -45.5c46 0 81.333 16.333 106 49l75 -87c-23.333 -25.333 -50.833 -44.166 -82.5 -56.499s-66.5 -18.5 -104.5 -18.5c-52 0 -97.667 11.667 -137 35zM228.998 651.001
c-14.667 14.667 -22 33.334 -22 56.001s7.33301 41.5 22 56.5s33.334 22.5 56.001 22.5c22 0 40.333 -7.5 55 -22.5s22 -33.833 22 -56.5s-7.33301 -41.334 -22 -56.001s-33 -22 -55 -22c-22.667 0 -41.334 7.33301 -56.001 22z" />
    <glyph glyph-name="Ccaron" unicode="&#x10c;" horiz-adv-x="693" 
d="M208 37.5c-54 31.667 -95.833 76.499 -125.5 134.499s-44.5 124.667 -44.5 200c0 74.667 14.833 140.667 44.5 198s71.334 101.666 125.001 132.999s115.5 47 185.5 47c110 0 198 -39.667 264 -119l-85 -88c-19.333 28.667 -44.333 51.5 -75 68.5s-64.667 25.5 -102 25.5
c-42.667 0 -80.334 -11 -113.001 -33s-58 -53.167 -76 -93.5s-27 -86.833 -27 -139.5c0 -53.333 9 -100.166 27 -140.499s43.5 -71.666 76.5 -93.999s71.167 -33.5 114.5 -33.5c80.667 0 144 39.333 190 118l92 -82c-33.333 -48.667 -74 -85.667 -122 -111
s-102.333 -38 -163 -38c-70 0 -132 15.833 -186 47.5zM447 979.999h116l-117 -161h-125l-119 161h117l64 -84z" />
    <glyph glyph-name="ccaron" unicode="&#x10d;" horiz-adv-x="495" 
d="M157 25c-39.333 23.333 -69.835 56.167 -91.502 98.5s-32.5 91.166 -32.5 146.499s11 104 33 146s52.833 74.667 92.5 98s85.834 35 138.501 35c62.667 0 118.334 -20.667 167.001 -62l-74 -90c-24 26 -54 39 -90 39c-39.333 0 -70.833 -15.333 -94.5 -46
s-35.5 -71 -35.5 -121s11.833 -90.167 35.5 -120.5s55.167 -45.5 94.5 -45.5c46 0 81.333 16.333 106 49l75 -87c-23.333 -25.333 -50.833 -44.166 -82.5 -56.499s-66.5 -18.5 -104.5 -18.5c-52 0 -97.667 11.667 -137 35zM347.998 779.001h116l-117 -161h-125l-119 161h117
l64 -84z" />
    <glyph glyph-name="Dcaron" unicode="&#x10e;" horiz-adv-x="712" 
d="M514 694c50.667 -30.667 90 -74 118 -130s42 -120.667 42 -194s-14 -138 -42 -194s-67.333 -99.333 -118 -130s-109.334 -46 -176.001 -46h-261v740h261c66.667 0 125.334 -15.333 176.001 -46zM440 145c29.333 21.333 52.166 51.5 68.499 90.5s24.5 83.833 24.5 134.5
c0 51.333 -8.16699 96.333 -24.5 135s-39.166 68.667 -68.499 90s-63 32 -101 32h-125v-514h125c38 0 71.667 10.667 101 32zM370 980h116l-117 -161h-125l-119 161h117l64 -84z" />
    <glyph glyph-name="dcaron" unicode="&#x10f;" horiz-adv-x="630" 
d="M422 780h132.001v-780h-127l-3 78c-16.667 -28 -38.334 -49.667 -65.001 -65s-57.667 -23 -93 -23c-43.333 0 -82.833 11.667 -118.5 35s-63.667 56 -84 98s-30.5 90 -30.5 144c0 55.333 10.167 104.333 30.5 147s48.333 75.667 84 99s75.167 35 118.5 35
c68 0 120 -28 156 -84v316zM639.001 780h117l-60 -187h-99zM387.001 148c23.333 30.667 35 71.001 35 121.001s-11.667 90.333 -35 121s-54 46 -92 46c-37.333 0 -67.666 -15.333 -90.999 -46s-35 -71.334 -35 -122.001c0 -49.333 11.667 -89.333 35 -120
s53.666 -46 90.999 -46c38 0 68.667 15.333 92 46z" />
    <glyph glyph-name="Dcroat" unicode="&#x110;" horiz-adv-x="712" 
d="M514 694c50.667 -30.667 90 -74 118 -130s42 -120.667 42 -194s-14 -138 -42 -194s-67.333 -99.333 -118 -130s-109.334 -46 -176.001 -46h-261v325h-67v94h67v321h261c66.667 0 125.334 -15.333 176.001 -46zM440 145c29.333 21.333 52.166 51.5 68.499 90.5
s24.5 83.833 24.5 134.5c0 51.333 -8.16699 96.333 -24.5 135s-39.166 68.667 -68.499 90s-63 32 -101 32h-125v-208h145v-94h-145v-212h125c38 0 71.667 10.667 101 32z" />
    <glyph glyph-name="dcroat" unicode="&#x111;" horiz-adv-x="614" 
d="M622 608l-67.999 -0.000976562v-608h-127l-3 78c-16.667 -28 -38.334 -49.667 -65.001 -65s-57.667 -23 -93 -23c-43.333 0 -82.833 11.667 -118.5 35s-63.667 56 -84 98s-30.5 90 -30.5 144c0 55.333 10.167 104.333 30.5 147s48.333 75.834 84 99.501
s75.167 35.5 118.5 35.5c67.333 0 119.333 -28.333 156 -85v144h-149v94h149v78h132v-78h68v-94zM387.001 148.499c23.333 30.333 35 70.5 35 120.5s-11.667 90.333 -35 121s-54 46 -92 46c-37.333 0 -67.666 -15.333 -90.999 -46s-35 -71.334 -35 -122.001
c0 -49.333 11.667 -89.166 35 -119.499s53.666 -45.5 90.999 -45.5c38 0 68.667 15.167 92 45.5z" />
    <glyph glyph-name="Emacron" unicode="&#x112;" horiz-adv-x="589" 
d="M214 113h329v-113h-466v740h459v-113h-322v-195h293v-113h-293v-206zM144 826v104h326v-104h-326z" />
    <glyph glyph-name="emacron" unicode="&#x113;" horiz-adv-x="554" 
d="M520 222l-348 -0.00195312c8.66699 -85.333 45.667 -128 111 -128c22.667 0 43.667 5.66699 63 17s36 27.333 50 48l101 -51c-22 -36.667 -51.5 -65.5 -88.5 -86.5s-78.167 -31.5 -123.5 -31.5c-50 0 -94 11.5 -132 34.5s-67.5 55.333 -88.5 97
s-31.5 89.834 -31.5 144.501c0 56 10.167 105.333 30.5 148s49 75.834 86 99.501s79.833 35.5 128.5 35.5s91.5 -11.333 128.5 -34s65.667 -54.5 86 -95.5s30.5 -88.5 30.5 -142.5c0 -20.667 -1 -39 -3 -55zM205.5 410.498c-17.667 -23 -28.833 -55.833 -33.5 -98.5h214
c-4 42.667 -15.167 75.5 -33.5 98.5s-43.166 34.5 -74.499 34.5c-30.667 0 -54.834 -11.5 -72.501 -34.5zM115.001 624.998v104h326v-104h-326z" />
    <glyph glyph-name="Edotaccent" unicode="&#x116;" horiz-adv-x="589" 
d="M214 113h329v-113h-466v740h459v-113h-322v-195h293v-113h-293v-206zM251 852c-14.667 14.667 -22 33.334 -22 56.001s7.33301 41.5 22 56.5s33.334 22.5 56.001 22.5c22 0 40.333 -7.5 55 -22.5s22 -33.833 22 -56.5s-7.33301 -41.334 -22 -56.001s-33 -22 -55 -22
c-22.667 0 -41.334 7.33301 -56.001 22z" />
    <glyph glyph-name="edotaccent" unicode="&#x117;" horiz-adv-x="554" 
d="M520 222l-348 -0.00195312c8.66699 -85.333 45.667 -128 111 -128c22.667 0 43.667 5.66699 63 17s36 27.333 50 48l101 -51c-22 -36.667 -51.5 -65.5 -88.5 -86.5s-78.167 -31.5 -123.5 -31.5c-50 0 -94 11.5 -132 34.5s-67.5 55.333 -88.5 97
s-31.5 89.834 -31.5 144.501c0 56 10.167 105.333 30.5 148s49 75.834 86 99.501s79.833 35.5 128.5 35.5s91.5 -11.333 128.5 -34s65.667 -54.5 86 -95.5s30.5 -88.5 30.5 -142.5c0 -20.667 -1 -39 -3 -55zM205.5 410.498c-17.667 -23 -28.833 -55.833 -33.5 -98.5h214
c-4 42.667 -15.167 75.5 -33.5 98.5s-43.166 34.5 -74.499 34.5c-30.667 0 -54.834 -11.5 -72.501 -34.5zM222.001 650.998c-14.667 14.667 -22 33.334 -22 56.001s7.33301 41.5 22 56.5s33.334 22.5 56.001 22.5c22 0 40.333 -7.5 55 -22.5s22 -33.833 22 -56.5
s-7.33301 -41.334 -22 -56.001s-33 -22 -55 -22c-22.667 0 -41.334 7.33301 -56.001 22z" />
    <glyph glyph-name="Eogonek" unicode="&#x118;" horiz-adv-x="589" 
d="M546 -202c-24 -18.667 -52.333 -28 -85 -28c-28 0 -50.667 8.16699 -68 24.5s-26 37.5 -26 63.5c0 48 28.667 95.333 86 142h-376v740h459v-113h-322v-195h293v-113h-293v-206h329v-113c-54 -40 -81 -80 -81 -120c0 -10.667 2.83301 -19 8.5 -25s13.167 -9 22.5 -9
c15.333 0 29.333 5.66699 42 17z" />
    <glyph glyph-name="eogonek" unicode="&#x119;" horiz-adv-x="554" 
d="M520 222h-347.999c8.66699 -85.333 45.667 -128 111 -128c22.667 0 43.667 5.66699 63 17s36 27.333 50 48l101 -51c-15.333 -26 -35 -48.333 -59 -67s-51 -32.334 -81 -41.001c-54 -40 -81 -80 -81 -120c0 -10.667 2.83301 -19 8.5 -25s13.167 -9 22.5 -9
c15.333 0 29.333 5.66699 42 17l11 -65c-24 -18.667 -52.333 -28 -85 -28c-28 0 -50.667 8.16699 -68 24.5s-26 37.5 -26 63.5c0 44 25 88.333 75 133c-44.667 4 -83.834 18 -117.501 42s-59.667 56 -78 96s-27.5 85.667 -27.5 137c0 56 10.167 105.333 30.5 148
s49 75.834 86 99.501s79.833 35.5 128.5 35.5s91.5 -11.333 128.5 -34s65.667 -54.5 86 -95.5s30.5 -88.5 30.5 -142.5c0 -20.667 -1 -39 -3 -55zM205.501 410.5c-17.667 -23 -28.833 -55.833 -33.5 -98.5h214c-4 42.667 -15.167 75.5 -33.5 98.5s-43.166 34.5 -74.499 34.5
c-30.667 0 -54.834 -11.5 -72.501 -34.5z" />
    <glyph glyph-name="Ecaron" unicode="&#x11a;" horiz-adv-x="589" 
d="M214 113h329v-113h-466v740h459v-113h-322v-195h293v-113h-293v-206zM370 980h116l-117 -161h-125l-119 161h117l64 -84z" />
    <glyph glyph-name="ecaron" unicode="&#x11b;" horiz-adv-x="554" 
d="M520 222l-348 -0.00195312c8.66699 -85.333 45.667 -128 111 -128c22.667 0 43.667 5.66699 63 17s36 27.333 50 48l101 -51c-22 -36.667 -51.5 -65.5 -88.5 -86.5s-78.167 -31.5 -123.5 -31.5c-50 0 -94 11.5 -132 34.5s-67.5 55.333 -88.5 97
s-31.5 89.834 -31.5 144.501c0 56 10.167 105.333 30.5 148s49 75.834 86 99.501s79.833 35.5 128.5 35.5s91.5 -11.333 128.5 -34s65.667 -54.5 86 -95.5s30.5 -88.5 30.5 -142.5c0 -20.667 -1 -39 -3 -55zM205.5 410.498c-17.667 -23 -28.833 -55.833 -33.5 -98.5h214
c-4 42.667 -15.167 75.5 -33.5 98.5s-43.166 34.5 -74.499 34.5c-30.667 0 -54.834 -11.5 -72.501 -34.5zM341.001 778.998h116l-117 -161h-125l-119 161h117l64 -84z" />
    <glyph glyph-name="Gbreve" unicode="&#x11e;" horiz-adv-x="737" 
d="M714 370c0 -75.333 -13.4971 -141.667 -40.4971 -199s-65.333 -101.833 -115 -133.5s-107.834 -47.5 -174.501 -47.5c-68.667 0 -129.167 15.833 -181.5 47.5s-92.833 76.167 -121.5 133.5s-43 123.666 -43 198.999s14.167 141.666 42.5 198.999
s68.666 101.833 120.999 133.5s113.166 47.5 182.499 47.5c96.667 0 176 -27 238 -81l-90 -86c-32.667 36 -81.334 54 -146.001 54c-40.667 0 -76.667 -11.167 -108 -33.5s-55.666 -53.666 -72.999 -93.999s-26 -86.833 -26 -139.5s8.5 -99.167 25.5 -139.5
s41.167 -71.666 72.5 -93.999s67.333 -33.5 108 -33.5c53.333 0 96.5 18 129.5 54s52.167 84.333 57.5 145h-166v113h306c1.33301 -10 2 -25 2 -45zM263.003 856.999c-30.667 31.333 -46 72.333 -46 123h99c0 -28 6.33301 -50.5 19 -67.5s29 -25.5 49 -25.5
s36.167 8.5 48.5 25.5s18.5 39.5 18.5 67.5h99c0 -51.333 -15.167 -92.5 -45.5 -123.5s-70.5 -46.5 -120.5 -46.5s-90.333 15.667 -121 47z" />
    <glyph glyph-name="gbreve" unicode="&#x11f;" horiz-adv-x="614" 
d="M555 539v-501.001c0 -53.333 -12 -100.333 -36 -141s-58.167 -72 -102.5 -94s-95.5 -33 -153.5 -33c-43.333 0 -83.5 5.66699 -120.5 17s-69.167 28.333 -96.5 51l29 104c51.333 -39.333 113 -59 185 -59c49.333 0 88.833 14.333 118.5 43s44.5 66.667 44.5 114v34
c-36 -56 -88.333 -84 -157 -84c-43.333 0 -82.666 11.833 -117.999 35.5s-63.166 56.834 -83.499 99.501s-30.5 91.667 -30.5 147c0 54 10.167 102 30.5 144s48.166 74.667 83.499 98s74.666 35 117.999 35c70 0 123 -29.333 159 -88l3 78h127zM388 148.999
c23.333 30.667 35 70.667 35 120c0 50 -11.667 90.333 -35 121s-54 46 -92 46c-37.333 0 -67.666 -15.333 -90.999 -46s-35 -70.667 -35 -120c0 -50 11.667 -90.333 35 -121s53.666 -46 90.999 -46c38 0 68.667 15.333 92 46zM184 655.999
c-30.667 31.333 -46 72.333 -46 123h99c0 -28 6.33301 -50.5 19 -67.5s29 -25.5 49 -25.5s36.167 8.5 48.5 25.5s18.5 39.5 18.5 67.5h99c0 -51.333 -15.167 -92.5 -45.5 -123.5s-70.5 -46.5 -120.5 -46.5s-90.333 15.667 -121 47z" />
    <glyph glyph-name="Gdotaccent" unicode="&#x120;" horiz-adv-x="737" 
d="M714 370c0 -75.333 -13.4971 -141.667 -40.4971 -199s-65.333 -101.833 -115 -133.5s-107.834 -47.5 -174.501 -47.5c-68.667 0 -129.167 15.833 -181.5 47.5s-92.833 76.167 -121.5 133.5s-43 123.666 -43 198.999s14.167 141.666 42.5 198.999
s68.666 101.833 120.999 133.5s113.166 47.5 182.499 47.5c96.667 0 176 -27 238 -81l-90 -86c-32.667 36 -81.334 54 -146.001 54c-40.667 0 -76.667 -11.167 -108 -33.5s-55.666 -53.666 -72.999 -93.999s-26 -86.833 -26 -139.5s8.5 -99.167 25.5 -139.5
s41.167 -71.666 72.5 -93.999s67.333 -33.5 108 -33.5c53.333 0 96.5 18 129.5 54s52.167 84.333 57.5 145h-166v113h306c1.33301 -10 2 -25 2 -45zM328.003 851.999c-14.667 14.667 -22 33.334 -22 56.001s7.33301 41.5 22 56.5s33.334 22.5 56.001 22.5
c22 0 40.333 -7.5 55 -22.5s22 -33.833 22 -56.5s-7.33301 -41.334 -22 -56.001s-33 -22 -55 -22c-22.667 0 -41.334 7.33301 -56.001 22z" />
    <glyph glyph-name="gdotaccent" unicode="&#x121;" horiz-adv-x="614" 
d="M555 539v-501.001c0 -53.333 -12 -100.333 -36 -141s-58.167 -72 -102.5 -94s-95.5 -33 -153.5 -33c-43.333 0 -83.5 5.66699 -120.5 17s-69.167 28.333 -96.5 51l29 104c51.333 -39.333 113 -59 185 -59c49.333 0 88.833 14.333 118.5 43s44.5 66.667 44.5 114v34
c-36 -56 -88.333 -84 -157 -84c-43.333 0 -82.666 11.833 -117.999 35.5s-63.166 56.834 -83.499 99.501s-30.5 91.667 -30.5 147c0 54 10.167 102 30.5 144s48.166 74.667 83.499 98s74.666 35 117.999 35c70 0 123 -29.333 159 -88l3 78h127zM388 148.999
c23.333 30.667 35 70.667 35 120c0 50 -11.667 90.333 -35 121s-54 46 -92 46c-37.333 0 -67.666 -15.333 -90.999 -46s-35 -70.667 -35 -120c0 -50 11.667 -90.333 35 -121s53.666 -46 90.999 -46c38 0 68.667 15.333 92 46zM249 650.999
c-14.667 14.667 -22 33.334 -22 56.001s7.33301 41.5 22 56.5s33.334 22.5 56.001 22.5c22 0 40.333 -7.5 55 -22.5s22 -33.833 22 -56.5s-7.33301 -41.334 -22 -56.001s-33 -22 -55 -22c-22.667 0 -41.334 7.33301 -56.001 22z" />
    <glyph glyph-name="Gcommaaccent" unicode="&#x122;" horiz-adv-x="737" 
d="M714 370c0 -75.333 -13.4971 -141.667 -40.4971 -199s-65.333 -101.833 -115 -133.5s-107.834 -47.5 -174.501 -47.5c-68.667 0 -129.167 15.833 -181.5 47.5s-92.833 76.167 -121.5 133.5s-43 123.666 -43 198.999s14.167 141.666 42.5 198.999
s68.666 101.833 120.999 133.5s113.166 47.5 182.499 47.5c96.667 0 176 -27 238 -81l-90 -86c-32.667 36 -81.334 54 -146.001 54c-40.667 0 -76.667 -11.167 -108 -33.5s-55.666 -53.666 -72.999 -93.999s-26 -86.833 -26 -139.5s8.5 -99.167 25.5 -139.5
s41.167 -71.666 72.5 -93.999s67.333 -33.5 108 -33.5c53.333 0 96.5 18 129.5 54s52.167 84.333 57.5 145h-166v113h306c1.33301 -10 2 -25 2 -45zM278.003 -220.001l38 168h118l-56 -168h-100z" />
    <glyph glyph-name="gcommaaccent" unicode="&#x123;" horiz-adv-x="614" 
d="M555 539v-501.001c0 -53.333 -12 -100.333 -36 -141s-58.167 -72 -102.5 -94s-95.5 -33 -153.5 -33c-43.333 0 -83.5 5.66699 -120.5 17s-69.167 28.333 -96.5 51l29 104c51.333 -39.333 113 -59 185 -59c49.333 0 88.833 14.333 118.5 43s44.5 66.667 44.5 114v34
c-36 -56 -88.333 -84 -157 -84c-43.333 0 -82.666 11.833 -117.999 35.5s-63.166 56.834 -83.499 99.501s-30.5 91.667 -30.5 147c0 54 10.167 102 30.5 144s48.166 74.667 83.499 98s74.666 35 117.999 35c70 0 123 -29.333 159 -88l3 78h127zM388 148.999
c23.333 30.667 35 70.667 35 120c0 50 -11.667 90.333 -35 121s-54 46 -92 46c-37.333 0 -67.666 -15.333 -90.999 -46s-35 -70.667 -35 -120c0 -50 11.667 -90.333 35 -121s53.666 -46 90.999 -46c38 0 68.667 15.333 92 46zM234 592.999l60 187h100l-42 -187h-118z" />
    <glyph glyph-name="Hbar" unicode="&#x126;" horiz-adv-x="774" 
d="M761 637v-94h-64v-543h-136v320h-347v-320h-137v543h-63v94h63v103h137v-103h347v103h136v-103h64zM561 433v110h-347v-110h347z" />
    <glyph glyph-name="hbar" unicode="&#x127;" horiz-adv-x="592" 
d="M485 495.5c35.333 -35.667 52.999 -82.833 52.999 -141.5v-354h-132v333c0 31.333 -9.66699 56.333 -29 75s-45.333 28 -78 28s-58.667 -9.33301 -78 -28s-29 -43.667 -29 -75v-333h-132v608h-67v94h67v78h132v-78h150v-94h-150v-129c18 22.667 40.333 40 67 52
s55.334 18 86.001 18c58 0 104.667 -17.833 140 -53.5z" />
    <glyph glyph-name="Imacron" unicode="&#x12a;" horiz-adv-x="291" 
d="M77 0v740h137v-740h-137zM-18 826v104h326v-104h-326z" />
    <glyph glyph-name="imacron" unicode="&#x12b;" horiz-adv-x="253" 
d="M61 0v538h131v-538h-131zM-36 624v104h326v-104h-326z" />
    <glyph glyph-name="Iogonek" unicode="&#x12e;" horiz-adv-x="291" 
d="M217 -202c-24 -18.667 -52.333 -28 -85 -28c-28 0 -50.667 8.16699 -68 24.5s-26 37.5 -26 63.5c0 48 28.667 95.333 86 142h-47v740h137v-740c-54 -40 -81 -80 -81 -120c0 -10.667 2.83301 -19 8.5 -25s13.167 -9 22.5 -9c15.333 0 29.333 5.66699 42 17z" />
    <glyph glyph-name="iogonek" unicode="&#x12f;" horiz-adv-x="253" 
d="M71 650c-14.667 14.667 -22 33.334 -22 56.001s7.33301 41.5 22 56.5s33.334 22.5 56.001 22.5c22 0 40.333 -7.5 55 -22.5s22 -33.833 22 -56.5s-7.33301 -41.334 -22 -56.001s-33 -22 -55 -22c-22.667 0 -41.334 7.33301 -56.001 22zM184 -137l11 -65
c-24 -18.667 -52.333 -28 -85 -28c-28 0 -50.667 8.16699 -68 24.5s-26 37.5 -26 63.5c0 48 28.667 95.333 86 142h-41v538h131v-538c-54 -40 -81 -80 -81 -120c0 -10.667 2.83301 -19 8.5 -25s13.167 -9 22.5 -9c15.333 0 29.333 5.66699 42 17z" />
    <glyph glyph-name="Idotaccent" unicode="&#x130;" horiz-adv-x="291" 
d="M77 0v740h137v-740h-137zM89 852c-14.667 14.667 -22 33.334 -22 56.001s7.33301 41.5 22 56.5s33.334 22.5 56.001 22.5c22 0 40.333 -7.5 55 -22.5s22 -33.833 22 -56.5s-7.33301 -41.334 -22 -56.001s-33 -22 -55 -22c-22.667 0 -41.334 7.33301 -56.001 22z" />
    <glyph glyph-name="dotlessi" unicode="&#x131;" horiz-adv-x="253" 
d="M61 0v538h131v-538h-131z" />
    <glyph glyph-name="Kcommaaccent" unicode="&#x136;" horiz-adv-x="640" 
d="M486 0l-219 322h-53v-322h-137v740h137v-305h52l207 305h161l-251 -360l263 -380h-160zM241 -220l38 168h118l-56 -168h-100z" />
    <glyph glyph-name="kcommaaccent" unicode="&#x137;" horiz-adv-x="551" 
d="M398 0l-165 229h-41v-229h-132v780h132v-443h41l154 202h162l-205 -255l216 -284h-162zM190 -220l38 168h118l-56 -168h-100z" />
    <glyph glyph-name="Lacute" unicode="&#x139;" horiz-adv-x="518" 
d="M214 113h290v-113h-427v740h137v-627zM63 819l123 161h153l-164 -161h-112z" />
    <glyph glyph-name="lacute" unicode="&#x13a;" horiz-adv-x="254" 
d="M61 0v780h132v-780h-132zM46 859l123 161h153l-164 -161h-112z" />
    <glyph glyph-name="Lcommaaccent" unicode="&#x13b;" horiz-adv-x="518" 
d="M214 113h290v-113h-427v740h137v-627zM172 -220l38 168h118l-56 -168h-100z" />
    <glyph glyph-name="lcommaaccent" unicode="&#x13c;" horiz-adv-x="254" 
d="M61 0v780h132v-780h-132zM29 -220l38 168h118l-56 -168h-100z" />
    <glyph glyph-name="Lcaron" unicode="&#x13d;" horiz-adv-x="517" 
d="M214 113h290v-113h-427v740h137v-627zM494 740l-66 -214h-118l47 214h137z" />
    <glyph glyph-name="lcaron" unicode="&#x13e;" horiz-adv-x="269" 
d="M61 0v780h132v-780h-132zM236 593l42 187h117l-60 -187h-99z" />
    <glyph glyph-name="Lslash" unicode="&#x141;" horiz-adv-x="518" 
d="M214 113h290v-113h-427v275l-50 -38v106l50 38v359h137v-273l92 69v-106l-92 -70v-247z" />
    <glyph glyph-name="lslash" unicode="&#x142;" horiz-adv-x="254" 
d="M267 536v-106l-74 -56v-374h-132v292l-73 -55v106l73 55v382h132v-300z" />
    <glyph glyph-name="Nacute" unicode="&#x143;" horiz-adv-x="785" 
d="M77 0v740h85l413 -491l-3 491h136v-740h-85l-412 491l3 -491h-137zM310 819l123 161h153l-164 -161h-112z" />
    <glyph glyph-name="nacute" unicode="&#x144;" horiz-adv-x="592" 
d="M485 495.5c35.333 -35.667 53.001 -82.833 53.001 -141.5v-354h-132v333c0 31.333 -9.66699 56.333 -29 75s-45.333 28 -78 28s-58.667 -9.33301 -78 -28s-29 -43.667 -29 -75v-333h-132v539h127l2 -64c18 24 40.667 42.333 68 55s56.666 19 87.999 19
c58 0 104.667 -17.833 140 -53.5zM219.001 618.001l123 161h153l-164 -161h-112z" />
    <glyph glyph-name="Ncommaaccent" unicode="&#x145;" horiz-adv-x="785" 
d="M77 0v740h85l413 -491l-3 491h136v-740h-85l-412 491l3 -491h-137zM294 -220l38 168h118l-56 -168h-100z" />
    <glyph glyph-name="ncommaaccent" unicode="&#x146;" horiz-adv-x="592" 
d="M485 495.5c35.333 -35.667 53.001 -82.833 53.001 -141.5v-354h-132v333c0 31.333 -9.66699 56.333 -29 75s-45.333 28 -78 28s-58.667 -9.33301 -78 -28s-29 -43.667 -29 -75v-333h-132v539h127l2 -64c18 24 40.667 42.333 68 55s56.666 19 87.999 19
c58 0 104.667 -17.833 140 -53.5zM200.001 -219.999l38 168h118l-56 -168h-100z" />
    <glyph glyph-name="Ncaron" unicode="&#x147;" horiz-adv-x="785" 
d="M77 0v740h85l413 -491l-3 491h136v-740h-85l-412 491l3 -491h-137zM455 980h116l-117 -161h-125l-119 161h117l64 -84z" />
    <glyph glyph-name="ncaron" unicode="&#x148;" horiz-adv-x="592" 
d="M485 495.5c35.333 -35.667 53.001 -82.833 53.001 -141.5v-354h-132v333c0 31.333 -9.66699 56.333 -29 75s-45.333 28 -78 28s-58.667 -9.33301 -78 -28s-29 -43.667 -29 -75v-333h-132v539h127l2 -64c18 24 40.667 42.333 68 55s56.666 19 87.999 19
c58 0 104.667 -17.833 140 -53.5zM364.001 779.001h116l-117 -161h-125l-119 161h117l64 -84z" />
    <glyph glyph-name="Eng" unicode="&#x14a;" horiz-adv-x="785" 
d="M708 740v-806c0 -49.333 -16.5 -89 -49.5 -119s-75.833 -45 -128.5 -45c-57.333 0 -101.666 17.667 -132.999 53l36 92c20.667 -21.333 44 -32 70 -32c21.333 0 38.166 6.83301 50.499 20.5s18.5 31.5 18.5 53.5v104l-361 430l3 -491h-137v740h85l413 -491l-3 491h136z
" />
    <glyph glyph-name="eng" unicode="&#x14b;" horiz-adv-x="592" 
d="M485 495.5c35.333 -35.667 53.001 -82.833 53.001 -141.5v-431c0 -46 -14.333 -83 -43 -111s-66.667 -42 -114 -42c-38 0 -70.333 5.66699 -97 17l10 102c14 -4 29.667 -6 47 -6c19.333 0 35 6.33301 47 19s18 29.667 18 51v380c0 31.333 -9.66699 56.333 -29 75
s-45.333 28 -78 28s-58.667 -9.33301 -78 -28s-29 -43.667 -29 -75v-333h-132v539h127l2 -64c18 24 40.667 42.333 68 55s56.666 19 87.999 19c58 0 104.667 -17.833 140 -53.5z" />
    <glyph glyph-name="Omacron" unicode="&#x14c;" horiz-adv-x="779" 
d="M206 37.5c-53.333 31.667 -94.666 76.167 -123.999 133.5s-44 123.666 -44 198.999s14.667 141.666 44 198.999s70.666 101.833 123.999 133.5s115 47.5 185 47.5c69.333 0 130.5 -15.833 183.5 -47.5s94.167 -76.167 123.5 -133.5s44 -123.666 44 -198.999
s-14.667 -141.666 -44 -198.999s-70.5 -101.833 -123.5 -133.5s-114.167 -47.5 -183.5 -47.5c-70 0 -131.667 15.833 -185 47.5zM501 136.5c32 22.333 56.667 53.666 74 93.999s26 86.833 26 139.5s-8.66699 99.167 -26 139.5s-42 71.666 -74 93.999s-68.667 33.5 -110 33.5
c-42 0 -79 -11.167 -111 -33.5s-56.833 -53.666 -74.5 -93.999s-26.5 -86.833 -26.5 -139.5s8.83301 -99.167 26.5 -139.5s42.5 -71.666 74.5 -93.999s69 -33.5 111 -33.5c41.333 0 78 11.167 110 33.5zM228 826v104h326v-104h-326z" />
    <glyph glyph-name="omacron" unicode="&#x14d;" horiz-adv-x="591" 
d="M158.5 25c-39.667 23.333 -70.5 56 -92.5 98s-33 90.667 -33 146s11 104.166 33 146.499s52.833 75.166 92.5 98.499s85.5 35 137.5 35c51.333 0 96.833 -11.667 136.5 -35s70.334 -56.166 92.001 -98.499s32.5 -91.166 32.5 -146.499s-10.833 -104 -32.5 -146
s-52.334 -74.667 -92.001 -98s-85.167 -35 -136.5 -35c-52 0 -97.833 11.667 -137.5 35zM386.5 149c23 30.667 34.5 70.667 34.5 120c0 50 -11.5 90.333 -34.5 121s-53.5 46 -91.5 46c-37.333 0 -67.666 -15.333 -90.999 -46s-35 -71 -35 -121
c0 -49.333 11.667 -89.333 35 -120s53.666 -46 90.999 -46c38 0 68.5 15.333 91.5 46zM133 625v104h326v-104h-326z" />
    <glyph glyph-name="Ohungarumlaut" unicode="&#x150;" horiz-adv-x="779" 
d="M206 37.5c-53.333 31.667 -94.666 76.167 -123.999 133.5s-44 123.666 -44 198.999s14.667 141.666 44 198.999s70.666 101.833 123.999 133.5s115 47.5 185 47.5c69.333 0 130.5 -15.833 183.5 -47.5s94.167 -76.167 123.5 -133.5s44 -123.666 44 -198.999
s-14.667 -141.666 -44 -198.999s-70.5 -101.833 -123.5 -133.5s-114.167 -47.5 -183.5 -47.5c-70 0 -131.667 15.833 -185 47.5zM501 136.5c32 22.333 56.667 53.666 74 93.999s26 86.833 26 139.5s-8.66699 99.167 -26 139.5s-42 71.666 -74 93.999s-68.667 33.5 -110 33.5
c-42 0 -79 -11.167 -111 -33.5s-56.833 -53.666 -74.5 -93.999s-26.5 -86.833 -26.5 -139.5s8.83301 -99.167 26.5 -139.5s42.5 -71.666 74.5 -93.999s69 -33.5 111 -33.5c41.333 0 78 11.167 110 33.5zM236 819l96 161h153l-137 -161h-112zM420 819l96 161h153l-136 -161
h-113z" />
    <glyph glyph-name="ohungarumlaut" unicode="&#x151;" horiz-adv-x="591" 
d="M158.5 25c-39.667 23.333 -70.5 56 -92.5 98s-33 90.667 -33 146s11 104.166 33 146.499s52.833 75.166 92.5 98.499s85.5 35 137.5 35c51.333 0 96.833 -11.667 136.5 -35s70.334 -56.166 92.001 -98.499s32.5 -91.166 32.5 -146.499s-10.833 -104 -32.5 -146
s-52.334 -74.667 -92.001 -98s-85.167 -35 -136.5 -35c-52 0 -97.833 11.667 -137.5 35zM386.5 149c23 30.667 34.5 70.667 34.5 120c0 50 -11.5 90.333 -34.5 121s-53.5 46 -91.5 46c-37.333 0 -67.666 -15.333 -90.999 -46s-35 -71 -35 -121
c0 -49.333 11.667 -89.333 35 -120s53.666 -46 90.999 -46c38 0 68.5 15.333 91.5 46zM141 618l96 161h153l-137 -161h-112zM325 618l96 161h153l-136 -161h-113z" />
    <glyph glyph-name="OE" unicode="&#x152;" horiz-adv-x="1118" 
d="M1072 113v-112.998h-466v77c-28.667 -28 -62 -49.5 -100 -64.5s-79.333 -22.5 -124 -22.5c-68 0 -128 15.833 -180 47.5s-92.333 76.167 -121 133.5s-43 123.666 -43 198.999s14.333 141.666 43 198.999s69 101.833 121 133.5s112 47.5 180 47.5
c44.667 0 86 -7.5 124 -22.5s71.333 -36.5 100 -64.5v77h459v-113h-322v-195h293v-113h-293v-206h329zM501 136.502c32 22.333 56.833 53.666 74.5 93.999s26.5 86.833 26.5 139.5s-8.83301 99.167 -26.5 139.5s-42.5 71.666 -74.5 93.999s-68.667 33.5 -110 33.5
c-42 0 -79 -11.167 -111 -33.5s-56.833 -53.666 -74.5 -93.999s-26.5 -86.833 -26.5 -139.5s8.83301 -99.167 26.5 -139.5s42.5 -71.666 74.5 -93.999s69 -33.5 111 -33.5c41.333 0 78 11.167 110 33.5z" />
    <glyph glyph-name="oe" unicode="&#x153;" horiz-adv-x="942" 
d="M909 222l-349 0.00195312c8.66699 -85.333 46 -128 112 -128c45.333 0 82.666 21.667 111.999 65l101 -51c-20.667 -36.667 -48.667 -65.5 -84 -86.5s-74.666 -31.5 -117.999 -31.5c-42.667 0 -80.667 9.83301 -114 29.5s-60 47.167 -80 82.5
c-21.333 -35.333 -49.333 -62.833 -84 -82.5s-74 -29.5 -118 -29.5c-50 0 -94.167 11.667 -132.5 35s-68 56 -89 98s-31.5 90.667 -31.5 146s10.5 104.166 31.5 146.499s50.667 75.166 89 98.499s82.5 35 132.5 35c44 0 83.333 -9.83301 118 -29.5s62.667 -47.5 84 -83.5
c20 36 46 63.833 78 83.5s68.333 29.5 109 29.5c46.667 0 87.667 -11.333 123 -34s62.833 -54.5 82.5 -95.5s29.5 -88.5 29.5 -142.5c0 -26 -0.666992 -44.333 -2 -55zM594 410.502c-18 -23 -29.333 -55.833 -34 -98.5h215c-4.66699 42.667 -16 75.5 -34 98.5
s-42.667 34.5 -74 34.5c-30.667 0 -55 -11.5 -73 -34.5zM387 149.002c23.333 30.667 35 70.667 35 120c0 50 -11.667 90.333 -35 121s-53.666 46 -90.999 46c-38 0 -68.5 -15.333 -91.5 -46s-34.5 -71 -34.5 -121c0 -49.333 11.5 -89.333 34.5 -120s53.5 -46 91.5 -46
c37.333 0 67.666 15.333 90.999 46z" />
    <glyph glyph-name="Racute" unicode="&#x154;" horiz-adv-x="662" 
d="M337 274l-123 -0.00195312v-274h-137v740h278c48 0 90.167 -9.66699 126.5 -29s64.5 -46.666 84.5 -81.999s30 -76 30 -122c0 -46.667 -10.833 -87.667 -32.5 -123s-52.167 -62.666 -91.5 -81.999l177 -302h-159zM214 386.998h115c38 0 68.667 11 92 33s35 51 35 87
s-10.667 65 -32 87s-49.333 33 -84 33h-126v-240zM225 818.998l123 161h153l-164 -161h-112z" />
    <glyph glyph-name="racute" unicode="&#x155;" horiz-adv-x="372" 
d="M263.5 528.5c30.333 13.667 64.5 20.5 102.5 20.5l-9 -121c-49.333 0 -89.166 -12.5 -119.499 -37.5s-45.5 -58.167 -45.5 -99.5v-291h-132v539h127l2 -69c19.333 25.333 44.166 44.833 74.499 58.5zM121 618l123 161h153l-164 -161h-112z" />
    <glyph glyph-name="Rcommaaccent" unicode="&#x156;" horiz-adv-x="662" 
d="M337 274l-123 -0.00195312v-274h-137v740h278c48 0 90.167 -9.66699 126.5 -29s64.5 -46.666 84.5 -81.999s30 -76 30 -122c0 -46.667 -10.833 -87.667 -32.5 -123s-52.167 -62.666 -91.5 -81.999l177 -302h-159zM214 386.998h115c38 0 68.667 11 92 33s35 51 35 87
s-10.667 65 -32 87s-49.333 33 -84 33h-126v-240zM243 -220.002l38 168h118l-56 -168h-100z" />
    <glyph glyph-name="rcommaaccent" unicode="&#x157;" horiz-adv-x="372" 
d="M263.5 528.5c30.333 13.667 64.5 20.5 102.5 20.5l-9 -121c-49.333 0 -89.166 -12.5 -119.499 -37.5s-45.5 -58.167 -45.5 -99.5v-291h-132v539h127l2 -69c19.333 25.333 44.166 44.833 74.499 58.5zM60 -220l38 168h118l-56 -168h-100z" />
    <glyph glyph-name="Rcaron" unicode="&#x158;" horiz-adv-x="662" 
d="M337 274l-123 -0.00195312v-274h-137v740h278c48 0 90.167 -9.66699 126.5 -29s64.5 -46.666 84.5 -81.999s30 -76 30 -122c0 -46.667 -10.833 -87.667 -32.5 -123s-52.167 -62.666 -91.5 -81.999l177 -302h-159zM214 386.998h115c38 0 68.667 11 92 33s35 51 35 87
s-10.667 65 -32 87s-49.333 33 -84 33h-126v-240zM370 979.998h116l-117 -161h-125l-119 161h117l64 -84z" />
    <glyph glyph-name="rcaron" unicode="&#x159;" horiz-adv-x="372" 
d="M263.5 528.5c30.333 13.667 64.5 20.5 102.5 20.5l-9 -121c-49.333 0 -89.166 -12.5 -119.499 -37.5s-45.5 -58.167 -45.5 -99.5v-291h-132v539h127l2 -69c19.333 25.333 44.166 44.833 74.499 58.5zM266 779h116l-117 -161h-125l-119 161h117l64 -84z" />
    <glyph glyph-name="Sacute" unicode="&#x15a;" horiz-adv-x="589" 
d="M159.5 13.5c-41.667 15.667 -77.499 38.498 -107.499 68.498l52 93c52 -48 111.333 -72 178 -72c40 0 71.333 8 94 24s34 38.667 34 68c0 27.333 -11.167 49.5 -33.5 66.5s-56.166 33.167 -101.499 48.5l-37 12c-62.667 20.667 -110.667 46.334 -144 77.001
s-50 73.334 -50 128.001c0 44 10.333 82.833 31 116.5s50 59.834 88 78.501s81.667 28 131 28c86 0 161.667 -28.333 227 -85l-60 -95c-48.667 44.667 -103 67 -163 67c-34.667 0 -62.167 -8 -82.5 -24s-30.5 -37.333 -30.5 -64s9.83301 -47.5 29.5 -62.5
s48.5 -28.5 86.5 -40.5l37 -13c63.333 -20.667 114.666 -48.334 153.999 -83.001s59 -82 59 -142c0 -43.333 -10.833 -81.5 -32.5 -114.5s-52 -58.5 -91 -76.5s-84.167 -27 -135.5 -27c-46.667 0 -90.834 7.83301 -132.501 23.5zM213.001 818.998l123 161h153l-164 -161
h-112z" />
    <glyph glyph-name="sacute" unicode="&#x15b;" horiz-adv-x="467" 
d="M120 6c-32 10.667 -59.334 26.3369 -82.001 47.0039l50 80c40 -26.667 85 -40 135 -40c22 0 39.833 5 53.5 15s20.5 23.667 20.5 41c0 16 -6.83301 29.333 -20.5 40s-33.5 19.667 -59.5 27l-39 13c-46 13.333 -80.833 30.666 -104.5 51.999s-35.5 51.666 -35.5 90.999
c0 53.333 17.833 96.166 53.5 128.499s82.834 48.5 141.501 48.5c75.333 0 137.333 -17.667 186 -53l-55 -87c-35.333 24 -74.666 36 -117.999 36c-22 0 -39.833 -4.66699 -53.5 -14s-20.5 -22 -20.5 -38c0 -15.333 6 -27.5 18 -36.5s29.667 -17.167 53 -24.5l38 -12
c47.333 -14.667 84.166 -34.334 110.499 -59.001s39.5 -58.667 39.5 -102c0 -50.667 -18.833 -91.5 -56.5 -122.5s-87.167 -46.5 -148.5 -46.5c-38.667 0 -74 5.33301 -106 16zM151.999 618.003l123 161h153l-164 -161h-112z" />
    <glyph glyph-name="Scedilla" unicode="&#x15e;" horiz-adv-x="589" 
d="M492.5 61c-39 -38.667 -91.5 -61.668 -157.5 -69.001l-27 -47c28.667 -0.666992 51.5 -8.83398 68.5 -24.501s25.5 -35.5 25.5 -59.5c0 -27.333 -10.833 -49.333 -32.5 -66s-50.834 -25 -87.501 -25c-18 0 -35 2.33301 -51 7s-29 10.667 -39 18l23 49
c14 -12.667 32 -19 54 -19c14.667 0 26.334 3.33301 35.001 10s13 15.334 13 26.001c0 10 -3.83301 17.833 -11.5 23.5s-18.167 8.5 -31.5 8.5c-12 0 -22.667 -2.66699 -32 -8l-17 30l37 76c-41.333 3.33301 -80 12.666 -116 27.999s-67.333 36.333 -94 63l52 93
c52 -48 111.333 -72 178 -72c40 0 71.333 8 94 24s34 38.667 34 68c0 27.333 -11.167 49.5 -33.5 66.5s-56.166 33.167 -101.499 48.5l-37 12c-62.667 20.667 -110.667 46.334 -144 77.001s-50 73.334 -50 128.001c0 44 10.333 82.833 31 116.5s50 59.834 88 78.501
s81.667 28 131 28c86 0 161.667 -28.333 227 -85l-60 -95c-48.667 44.667 -103 67 -163 67c-34.667 0 -62.167 -8 -82.5 -24s-30.5 -37.333 -30.5 -64s9.83301 -47.5 29.5 -62.5s48.5 -28.5 86.5 -40.5l37 -13c63.333 -20.667 114.666 -48.334 153.999 -83.001
s59 -82 59 -142c0 -59.333 -19.5 -108.333 -58.5 -147z" />
    <glyph glyph-name="scedilla" unicode="&#x15f;" horiz-adv-x="467" 
d="M387.5 48.5c-29 -29.667 -68.168 -48.1631 -117.501 -55.4961l-27 -48c28.667 -0.666992 51.5 -8.83398 68.5 -24.501s25.5 -35.5 25.5 -59.5c0 -27.333 -10.833 -49.333 -32.5 -66s-50.834 -25 -87.501 -25c-18 0 -35 2.33301 -51 7s-29 10.667 -39 18l23 49
c14 -12.667 32 -19 54 -19c14.667 0 26.334 3.33301 35.001 10s13 15.334 13 26.001c0 10 -3.83301 17.833 -11.5 23.5s-18.167 8.5 -31.5 8.5c-12 0 -22.667 -2.66699 -32 -8l-17 30l37 76c-66.667 5.33301 -119.667 26 -159 62l50 80c40 -26.667 85 -40 135 -40
c22 0 39.833 5 53.5 15s20.5 23.667 20.5 41c0 16 -6.83301 29.333 -20.5 40s-33.5 19.667 -59.5 27l-39 13c-46 13.333 -80.833 30.666 -104.5 51.999s-35.5 51.666 -35.5 90.999c0 53.333 17.833 96.166 53.5 128.499s82.834 48.5 141.501 48.5
c75.333 0 137.333 -17.667 186 -53l-55 -87c-35.333 24 -74.666 36 -117.999 36c-22 0 -39.833 -4.66699 -53.5 -14s-20.5 -22 -20.5 -38c0 -15.333 6 -27.5 18 -36.5s29.667 -17.167 53 -24.5l38 -12c47.333 -14.667 84.166 -34.334 110.499 -59.001
s39.5 -58.667 39.5 -102c0 -44 -14.5 -80.833 -43.5 -110.5z" />
    <glyph glyph-name="Scaron" unicode="&#x160;" horiz-adv-x="589" 
d="M159.5 13.5c-41.667 15.667 -77.499 38.498 -107.499 68.498l52 93c52 -48 111.333 -72 178 -72c40 0 71.333 8 94 24s34 38.667 34 68c0 27.333 -11.167 49.5 -33.5 66.5s-56.166 33.167 -101.499 48.5l-37 12c-62.667 20.667 -110.667 46.334 -144 77.001
s-50 73.334 -50 128.001c0 44 10.333 82.833 31 116.5s50 59.834 88 78.501s81.667 28 131 28c86 0 161.667 -28.333 227 -85l-60 -95c-48.667 44.667 -103 67 -163 67c-34.667 0 -62.167 -8 -82.5 -24s-30.5 -37.333 -30.5 -64s9.83301 -47.5 29.5 -62.5
s48.5 -28.5 86.5 -40.5l37 -13c63.333 -20.667 114.666 -48.334 153.999 -83.001s59 -82 59 -142c0 -43.333 -10.833 -81.5 -32.5 -114.5s-52 -58.5 -91 -76.5s-84.167 -27 -135.5 -27c-46.667 0 -90.834 7.83301 -132.501 23.5zM358.001 979.998h116l-117 -161h-125
l-119 161h117l64 -84z" />
    <glyph glyph-name="scaron" unicode="&#x161;" horiz-adv-x="467" 
d="M120 6c-32 10.667 -59.334 26.3369 -82.001 47.0039l50 80c40 -26.667 85 -40 135 -40c22 0 39.833 5 53.5 15s20.5 23.667 20.5 41c0 16 -6.83301 29.333 -20.5 40s-33.5 19.667 -59.5 27l-39 13c-46 13.333 -80.833 30.666 -104.5 51.999s-35.5 51.666 -35.5 90.999
c0 53.333 17.833 96.166 53.5 128.499s82.834 48.5 141.501 48.5c75.333 0 137.333 -17.667 186 -53l-55 -87c-35.333 24 -74.666 36 -117.999 36c-22 0 -39.833 -4.66699 -53.5 -14s-20.5 -22 -20.5 -38c0 -15.333 6 -27.5 18 -36.5s29.667 -17.167 53 -24.5l38 -12
c47.333 -14.667 84.166 -34.334 110.499 -59.001s39.5 -58.667 39.5 -102c0 -50.667 -18.833 -91.5 -56.5 -122.5s-87.167 -46.5 -148.5 -46.5c-38.667 0 -74 5.33301 -106 16zM296.999 779.003h116l-117 -161h-125l-119 161h117l64 -84z" />
    <glyph glyph-name="uni0162" unicode="&#x162;" horiz-adv-x="566" 
d="M552 740v-113h-201v-627h-136v627h-202v113h539zM358.5 -79.5c17 -15.667 25.5 -35.5 25.5 -59.5c0 -27.333 -10.833 -49.333 -32.5 -66s-50.834 -25 -87.501 -25c-18 0 -35 2.33301 -51 7s-29 10.667 -39 18l23 49c14 -12.667 32 -19 54 -19
c14.667 0 26.334 3.33301 35.001 10s13 15.334 13 26.001c0 10 -3.83301 17.833 -11.5 23.5s-18.167 8.5 -31.5 8.5c-12 0 -22.667 -2.66699 -32 -8l-17 30l41 85h73l-31 -55c28.667 -0.666992 51.5 -8.83398 68.5 -24.501z" />
    <glyph glyph-name="uni0163" unicode="&#x163;" horiz-adv-x="354" 
d="M185 -9l-26.002 -46c28.667 -1.33301 51.334 -9.66602 68.001 -24.999s25 -35 25 -59c0 -27.333 -10.833 -49.333 -32.5 -66s-50.5 -25 -86.5 -25c-18 0 -35.167 2.33301 -51.5 7s-29.5 10.667 -39.5 18l23 49c14 -12.667 32 -19 54 -19
c14.667 0 26.334 3.33301 35.001 10s13 15.334 13 26.001c0 10 -3.83301 17.833 -11.5 23.5s-18.167 8.5 -31.5 8.5c-12 0 -22.667 -2.66699 -32 -8l-17 30l46 98c-20.667 13.333 -36.834 31.166 -48.501 53.499s-17.5 48.166 -17.5 77.499v553h132v-158h138v-108h-138v-260
c0 -20.667 5.83301 -37.167 17.5 -49.5s26.834 -18.5 45.501 -18.5c28.667 0 56.334 5.66699 83.001 17v-106c-36 -16 -77.667 -24 -125 -24c-10.667 0 -18.334 0.333008 -23.001 1z" />
    <glyph glyph-name="Tcaron" unicode="&#x164;" horiz-adv-x="566" 
d="M552 740v-113h-201v-627h-136v627h-202v113h539zM346 980h116l-117 -161h-125l-119 161h117l64 -84z" />
    <glyph glyph-name="tcaron" unicode="&#x165;" horiz-adv-x="355" 
d="M283 780h118l-60 -187h-100zM204.5 121.5c11.667 -12.333 26.8311 -18.5 45.498 -18.5c28.667 0 56.334 5.66699 83.001 17v-106c-36 -16 -77.667 -24 -125 -24c-45.333 0 -82.166 14.167 -110.499 42.5s-42.5 65.5 -42.5 111.5v553h132v-158h138v-108h-138v-260
c0 -20.667 5.83301 -37.167 17.5 -49.5z" />
    <glyph glyph-name="Tbar" unicode="&#x166;" horiz-adv-x="566" 
d="M552 627h-201v-218h108v-94h-108v-315h-136v315h-105v94h105v218h-202v113h539v-113z" />
    <glyph glyph-name="tbar" unicode="&#x167;" horiz-adv-x="361" 
d="M333 120l-0.00292969 -106c-36 -16 -77.667 -24 -125 -24c-45.333 0 -82.166 14.167 -110.499 42.5s-42.5 65.5 -42.5 111.5v553h132v-158h138v-108h-138v-106h130v-94h-130v-60c0 -20.667 5.83301 -37.167 17.5 -49.5s26.834 -18.5 45.501 -18.5
c28.667 0 56.334 5.66699 83.001 17z" />
    <glyph glyph-name="Umacron" unicode="&#x16a;" horiz-adv-x="728" 
d="M210 23c-44.667 22 -79.168 52.8311 -103.501 92.498s-36.5 85.5 -36.5 137.5v487h136v-481c0 -47.333 14.5 -85.166 43.5 -113.499s67.5 -42.5 115.5 -42.5c47.333 0 85.333 14.333 114 43s43 66.334 43 113.001v481h136v-487c0 -52 -12.167 -97.833 -36.5 -137.5
s-58.666 -70.5 -102.999 -92.5s-95.833 -33 -154.5 -33c-58 0 -109.333 11 -154 33zM200.999 825.998v104h326v-104h-326z" />
    <glyph glyph-name="umacron" unicode="&#x16b;" horiz-adv-x="567" 
d="M163.5 15.5c-35 17 -62.001 40.832 -81.001 71.499s-28.5 66.334 -28.5 107.001v345h131v-338c0 -29.333 9 -53 27 -71s42 -27 72 -27c29.333 0 52.833 9 70.5 27s26.5 41.667 26.5 71v338h131v-345c0 -40 -9.5 -75.5 -28.5 -106.5s-45.667 -55 -80 -72
s-74.166 -25.5 -119.499 -25.5s-85.5 8.5 -120.5 25.5zM120.999 624.999v104h326v-104h-326z" />
    <glyph glyph-name="Uring" unicode="&#x16e;" horiz-adv-x="728" 
d="M210 23c-44.667 22 -79.168 52.8311 -103.501 92.498s-36.5 85.5 -36.5 137.5v487h136v-481c0 -47.333 14.5 -85.166 43.5 -113.499s67.5 -42.5 115.5 -42.5c47.333 0 85.333 14.333 114 43s43 66.334 43 113.001v481h136v-487c0 -52 -12.167 -97.833 -36.5 -137.5
s-58.666 -70.5 -102.999 -92.5s-95.833 -33 -154.5 -33c-58 0 -109.333 11 -154 33zM285.499 814.498c-19.667 19.667 -29.5 45.834 -29.5 78.501s9.83301 58.667 29.5 78s45.834 29 78.501 29c32 0 57.833 -9.66699 77.5 -29s29.5 -45.333 29.5 -78
s-9.83301 -58.834 -29.5 -78.501s-45.5 -29.5 -77.5 -29.5c-32.667 0 -58.834 9.83301 -78.501 29.5zM391.999 857.998c7.33301 8.66699 11 20.334 11 35.001c0 14 -3.66699 25.5 -11 34.5s-16.666 13.5 -27.999 13.5s-20.666 -4.5 -27.999 -13.5s-11 -20.5 -11 -34.5
c0 -14.667 3.66699 -26.334 11 -35.001s16.666 -13 27.999 -13s20.666 4.33301 27.999 13z" />
    <glyph glyph-name="uring" unicode="&#x16f;" horiz-adv-x="567" 
d="M163.5 15.5c-35 17 -62.001 40.832 -81.001 71.499s-28.5 66.334 -28.5 107.001v345h131v-338c0 -29.333 9 -53 27 -71s42 -27 72 -27c29.333 0 52.833 9 70.5 27s26.5 41.667 26.5 71v338h131v-345c0 -40 -9.5 -75.5 -28.5 -106.5s-45.667 -55 -80 -72
s-74.166 -25.5 -119.499 -25.5s-85.5 8.5 -120.5 25.5zM205.499 613.499c-19.667 19.667 -29.5 45.834 -29.5 78.501s9.83301 58.667 29.5 78s45.834 29 78.501 29c32 0 57.833 -9.66699 77.5 -29s29.5 -45.333 29.5 -78s-9.83301 -58.834 -29.5 -78.501
s-45.5 -29.5 -77.5 -29.5c-32.667 0 -58.834 9.83301 -78.501 29.5zM311.999 656.999c7.33301 8.66699 11 20.334 11 35.001c0 14 -3.66699 25.5 -11 34.5s-16.666 13.5 -27.999 13.5s-20.666 -4.5 -27.999 -13.5s-11 -20.5 -11 -34.5c0 -14.667 3.66699 -26.334 11 -35.001
s16.666 -13 27.999 -13s20.666 4.33301 27.999 13z" />
    <glyph glyph-name="Uhungarumlaut" unicode="&#x170;" horiz-adv-x="728" 
d="M210 23c-44.667 22 -79.168 52.8311 -103.501 92.498s-36.5 85.5 -36.5 137.5v487h136v-481c0 -47.333 14.5 -85.166 43.5 -113.499s67.5 -42.5 115.5 -42.5c47.333 0 85.333 14.333 114 43s43 66.334 43 113.001v481h136v-487c0 -52 -12.167 -97.833 -36.5 -137.5
s-58.666 -70.5 -102.999 -92.5s-95.833 -33 -154.5 -33c-58 0 -109.333 11 -154 33zM208.999 818.998l96 161h153l-137 -161h-112zM392.999 818.998l96 161h153l-136 -161h-113z" />
    <glyph glyph-name="uhungarumlaut" unicode="&#x171;" horiz-adv-x="567" 
d="M163.5 15.5c-35 17 -62.001 40.832 -81.001 71.499s-28.5 66.334 -28.5 107.001v345h131v-338c0 -29.333 9 -53 27 -71s42 -27 72 -27c29.333 0 52.833 9 70.5 27s26.5 41.667 26.5 71v338h131v-345c0 -40 -9.5 -75.5 -28.5 -106.5s-45.667 -55 -80 -72
s-74.166 -25.5 -119.499 -25.5s-85.5 8.5 -120.5 25.5zM128.999 617.999l96 161h153l-137 -161h-112zM312.999 617.999l96 161h153l-136 -161h-113z" />
    <glyph glyph-name="Uogonek" unicode="&#x172;" horiz-adv-x="728" 
d="M658 740l-0.000976562 -487c0 -65.333 -18.5 -120.333 -55.5 -165s-87.833 -74.334 -152.5 -89.001c-53.333 -40.667 -80 -80.334 -80 -119.001c0 -10.667 2.83301 -19 8.5 -25s13.167 -9 22.5 -9c15.333 0 29.333 5.66699 42 17l11 -65c-24 -18.667 -52.333 -28 -85 -28
c-28 0 -50.667 8.16699 -68 24.5s-26 37.5 -26 63.5c0 44 24.667 88 74 132c-55.333 2 -104.166 14.167 -146.499 36.5s-75 53 -98 92s-34.5 83.833 -34.5 134.5v487h136v-481c0 -47.333 14.5 -85.166 43.5 -113.499s67.5 -42.5 115.5 -42.5c47.333 0 85.333 14.333 114 43
s43 66.334 43 113.001v481h136z" />
    <glyph glyph-name="uogonek" unicode="&#x173;" horiz-adv-x="567" 
d="M512 539v-345c0 -48.667 -13.5 -90.167 -40.5 -124.5s-64.167 -57.5 -111.5 -69.5c-53.333 -40.667 -80 -80.667 -80 -120c0 -10.667 2.83301 -19 8.5 -25s13.167 -9 22.5 -9c15.333 0 29.333 5.66699 42 17l11 -65c-24 -18.667 -52.333 -28 -85 -28
c-28 0 -50.667 8.16699 -68 24.5s-26 37.5 -26 63.5c0 44.667 25 89 75 133c-62.667 4.66699 -112.667 25.167 -150 61.5s-56 83.5 -56 141.5v345h131v-338c0 -29.333 9 -53 27 -71s42 -27 72 -27c29.333 0 52.833 9 70.5 27s26.5 41.667 26.5 71v338h131z" />
    <glyph glyph-name="Wcircumflex" unicode="&#x174;" horiz-adv-x="1029" 
d="M882 740h145l-228 -740h-127l-157 527l-158 -527h-126l-229 740h145l154 -557l150 557h127l151 -557zM694 819h-116l-64 84l-64 -84h-117l119 161h125z" />
    <glyph glyph-name="wcircumflex" unicode="&#x175;" horiz-adv-x="829" 
d="M679 539h144l-177 -539h-132l-99 355l-100 -355h-132l-177 539h144l108 -389l103 389h107l103 -389zM594 618h-116l-64 84l-64 -84h-117l119 161h125z" />
    <glyph glyph-name="Ycircumflex" unicode="&#x176;" horiz-adv-x="628" 
d="M474 740h145l-237 -465v-275h-136v275l-237 465h146l160 -344zM494 819h-116l-64 84l-64 -84h-117l119 161h125z" />
    <glyph glyph-name="ycircumflex" unicode="&#x177;" horiz-adv-x="573" 
d="M513 539v-489.001c0 -56 -11.167 -105.167 -33.5 -147.5s-53.833 -75 -94.5 -98s-87.667 -34.5 -141 -34.5c-38.667 0 -74.667 5.66699 -108 17s-62 28.333 -86 51l29 104c44.667 -39.333 98.334 -59 161.001 -59c42.667 0 77 15.5 103 46.5s39 71.833 39 122.5v4
c-17.333 -21.333 -38.333 -37.666 -63 -48.999s-51.667 -17 -81 -17c-54.667 0 -98.834 17.333 -132.501 52s-50.5 80.667 -50.5 138v359h131v-338c0 -29.333 9 -53 27 -71s41.667 -27 71 -27s53 9 71 27s27 41.667 27 71v338h131zM459 617.999h-116l-64 84l-64 -84h-117
l119 161h125z" />
    <glyph glyph-name="Ydieresis" unicode="&#x178;" horiz-adv-x="628" 
d="M474 740h145l-237 -465v-275h-136v275l-237 465h146l160 -344zM146 852c-14.667 14.667 -22 33.334 -22 56.001s7.33301 41.5 22 56.5s33.334 22.5 56.001 22.5c22 0 40.333 -7.5 55 -22.5s22 -33.833 22 -56.5s-7.33301 -41.334 -22 -56.001s-33 -22 -55 -22
c-22.667 0 -41.334 7.33301 -56.001 22zM372 852c-14.667 14.667 -22 33.334 -22 56.001s7.33301 41.5 22 56.5s33.334 22.5 56.001 22.5s41.167 -7.33301 55.5 -22s21.5 -33.667 21.5 -57c0 -22.667 -7.16699 -41.334 -21.5 -56.001s-32.833 -22 -55.5 -22
s-41.334 7.33301 -56.001 22z" />
    <glyph glyph-name="Zacute" unicode="&#x179;" horiz-adv-x="606" 
d="M211 113h364v-113h-542v85l355 542h-350v113h528v-85zM220 819l123 161h153l-164 -161h-112z" />
    <glyph glyph-name="zacute" unicode="&#x17a;" horiz-adv-x="497" 
d="M35 0v85l242 346h-238v108h416v-85l-241 -345h250v-109h-429zM165 618l123 161h153l-164 -161h-112z" />
    <glyph glyph-name="Zdotaccent" unicode="&#x17b;" horiz-adv-x="606" 
d="M211 113h364v-113h-542v85l355 542h-350v113h528v-85zM246 852c-14.667 14.667 -22 33.334 -22 56.001s7.33301 41.5 22 56.5s33.334 22.5 56.001 22.5c22 0 40.333 -7.5 55 -22.5s22 -33.833 22 -56.5s-7.33301 -41.334 -22 -56.001s-33 -22 -55 -22
c-22.667 0 -41.334 7.33301 -56.001 22z" />
    <glyph glyph-name="zdotaccent" unicode="&#x17c;" horiz-adv-x="497" 
d="M35 0v85l242 346h-238v108h416v-85l-241 -345h250v-109h-429zM191 651c-14.667 14.667 -22 33.334 -22 56.001s7.33301 41.5 22 56.5s33.334 22.5 56.001 22.5c22 0 40.333 -7.5 55 -22.5s22 -33.833 22 -56.5s-7.33301 -41.334 -22 -56.001s-33 -22 -55 -22
c-22.667 0 -41.334 7.33301 -56.001 22z" />
    <glyph glyph-name="Zcaron" unicode="&#x17d;" horiz-adv-x="606" 
d="M211 113h364v-113h-542v85l355 542h-350v113h528v-85zM365 980h116l-117 -161h-125l-119 161h117l64 -84z" />
    <glyph glyph-name="zcaron" unicode="&#x17e;" horiz-adv-x="497" 
d="M35 0v85l242 346h-238v108h416v-85l-241 -345h250v-109h-429zM310 779h116l-117 -161h-125l-119 161h117l64 -84z" />
    <glyph glyph-name="florin" unicode="&#x192;" horiz-adv-x="457" 
d="M292 555l-23.999 -155h140v-109h-158l-61 -391h-132l62 391h-74v109h91l31 194c8 50 29 88.5 63 115.5s75.333 40.5 124 40.5c34 0 63 -5.33301 87 -16l-15 -106c-16 6 -34 9 -54 9c-44.667 0 -71.334 -27.333 -80.001 -82z" />
    <glyph glyph-name="Scommaaccent" unicode="&#x218;" horiz-adv-x="589" 
d="M159.5 13.5c-41.667 15.667 -77.499 38.498 -107.499 68.498l52 93c52 -48 111.333 -72 178 -72c40 0 71.333 8 94 24s34 38.667 34 68c0 27.333 -11.167 49.5 -33.5 66.5s-56.166 33.167 -101.499 48.5l-37 12c-62.667 20.667 -110.667 46.334 -144 77.001
s-50 73.334 -50 128.001c0 44 10.333 82.833 31 116.5s50 59.834 88 78.501s81.667 28 131 28c86 0 161.667 -28.333 227 -85l-60 -95c-48.667 44.667 -103 67 -163 67c-34.667 0 -62.167 -8 -82.5 -24s-30.5 -37.333 -30.5 -64s9.83301 -47.5 29.5 -62.5
s48.5 -28.5 86.5 -40.5l37 -13c63.333 -20.667 114.666 -48.334 153.999 -83.001s59 -82 59 -142c0 -43.333 -10.833 -81.5 -32.5 -114.5s-52 -58.5 -91 -76.5s-84.167 -27 -135.5 -27c-46.667 0 -90.834 7.83301 -132.501 23.5zM202.001 -220.002l38 168h118l-56 -168h-100
z" />
    <glyph glyph-name="scommaaccent" unicode="&#x219;" horiz-adv-x="467" 
d="M120 6c-32 10.667 -59.334 26.3369 -82.001 47.0039l50 80c40 -26.667 85 -40 135 -40c22 0 39.833 5 53.5 15s20.5 23.667 20.5 41c0 16 -6.83301 29.333 -20.5 40s-33.5 19.667 -59.5 27l-39 13c-46 13.333 -80.833 30.666 -104.5 51.999s-35.5 51.666 -35.5 90.999
c0 53.333 17.833 96.166 53.5 128.499s82.834 48.5 141.501 48.5c75.333 0 137.333 -17.667 186 -53l-55 -87c-35.333 24 -74.666 36 -117.999 36c-22 0 -39.833 -4.66699 -53.5 -14s-20.5 -22 -20.5 -38c0 -15.333 6 -27.5 18 -36.5s29.667 -17.167 53 -24.5l38 -12
c47.333 -14.667 84.166 -34.334 110.499 -59.001s39.5 -58.667 39.5 -102c0 -50.667 -18.833 -91.5 -56.5 -122.5s-87.167 -46.5 -148.5 -46.5c-38.667 0 -74 5.33301 -106 16zM136.999 -219.997l38 168h118l-56 -168h-100z" />
    <glyph glyph-name="uni021A" unicode="&#x21a;" horiz-adv-x="566" 
d="M552 740v-113h-201v-627h-136v627h-202v113h539zM184 -220l38 168h118l-56 -168h-100z" />
    <glyph glyph-name="uni021B" unicode="&#x21b;" horiz-adv-x="354" 
d="M333 120l-0.00292969 -106c-36 -16 -77.667 -24 -125 -24c-45.333 0 -82.166 14.167 -110.499 42.5s-42.5 65.5 -42.5 111.5v553h132v-158h138v-108h-138v-260c0 -20.667 5.83301 -37.167 17.5 -49.5s26.834 -18.5 45.501 -18.5c28.667 0 56.334 5.66699 83.001 17z
M82.9971 -220l38 168h118l-56 -168h-100z" />
    <glyph glyph-name="circumflex" unicode="&#x2c6;" horiz-adv-x="600" 
d="M391 618h-116l-64 84l-64 -84h-117l119 161h125z" />
    <glyph glyph-name="caron" unicode="&#x2c7;" horiz-adv-x="600" 
d="M275 779h116l-117 -161h-125l-119 161h117l64 -84z" />
    <glyph glyph-name="breve" unicode="&#x2d8;" horiz-adv-x="600" 
d="M72 656c-30.667 31.333 -46 72.333 -46 123h99c0 -28 6.33301 -50.5 19 -67.5s29 -25.5 49 -25.5s36.167 8.5 48.5 25.5s18.5 39.5 18.5 67.5h99c0 -51.333 -15.167 -92.5 -45.5 -123.5s-70.5 -46.5 -120.5 -46.5s-90.333 15.667 -121 47z" />
    <glyph glyph-name="dotaccent" unicode="&#x2d9;" horiz-adv-x="600" 
d="M67 651c-14.667 14.667 -22 33.334 -22 56.001s7.33301 41.5 22 56.5s33.334 22.5 56.001 22.5c22 0 40.333 -7.5 55 -22.5s22 -33.833 22 -56.5s-7.33301 -41.334 -22 -56.001s-33 -22 -55 -22c-22.667 0 -41.334 7.33301 -56.001 22z" />
    <glyph glyph-name="ring" unicode="&#x2da;" horiz-adv-x="600" 
d="M72.5 613.5c-19.667 19.667 -29.5 45.834 -29.5 78.501s9.83301 58.667 29.5 78s45.834 29 78.501 29c32 0 57.833 -9.66699 77.5 -29s29.5 -45.333 29.5 -78s-9.83301 -58.834 -29.5 -78.501s-45.5 -29.5 -77.5 -29.5c-32.667 0 -58.834 9.83301 -78.501 29.5zM179 657
c7.33301 8.66699 11 20.334 11 35.001c0 14 -3.66699 25.5 -11 34.5s-16.666 13.5 -27.999 13.5s-20.666 -4.5 -27.999 -13.5s-11 -20.5 -11 -34.5c0 -14.667 3.66699 -26.334 11 -35.001s16.666 -13 27.999 -13s20.666 4.33301 27.999 13z" />
    <glyph glyph-name="ogonek" unicode="&#x2db;" horiz-adv-x="600" 
d="M76 -205.5c-17.333 16.333 -26 37.5 -26 63.5c0 67.333 58.667 135.333 176 204v-62c-54 -40 -81 -80 -81 -120c0 -10.667 2.83301 -19 8.5 -25s13.167 -9 22.5 -9c15.333 0 29.333 5.66699 42 17l11 -65c-24 -18.667 -52.333 -28 -85 -28
c-28 0 -50.667 8.16699 -68 24.5z" />
    <glyph glyph-name="tilde" unicode="&#x2dc;" horiz-adv-x="600" 
d="M239.5 627.5c-13 5.66699 -28.8311 13.835 -47.498 24.502c-15.333 9.33301 -27 15.833 -35 19.5s-15.667 5.5 -23 5.5c-10.667 0 -19.167 -4.33301 -25.5 -13s-9.5 -20.334 -9.5 -35.001h-71c0 42.667 9.5 77.167 28.5 103.5s44.167 39.5 75.5 39.5
c14.667 0 28.5 -2.83301 41.5 -8.5s28.833 -13.834 47.5 -24.501c13.333 -8 24.166 -14 32.499 -18s16.166 -6 23.499 -6c10.667 0 19.167 4 25.5 12s9.5 19.667 9.5 35h71c0 -44.667 -9.5 -79.667 -28.5 -105s-44.167 -38 -75.5 -38c-13.333 0 -26.5 2.83301 -39.5 8.5z
" />
    <glyph glyph-name="hungarumlaut" unicode="&#x2dd;" horiz-adv-x="600" 
d="M107 618l96 161h153l-137 -161h-112zM291 618l96 161h153l-136 -161h-113z" />
    <glyph glyph-name="gravecomb" unicode="&#x300;" 
d="M-206 618l-164 161h153l123 -161h-112z" />
    <glyph glyph-name="acutecomb" unicode="&#x301;" 
d="M-258 618l123 161h153l-164 -161h-112z" />
    <glyph glyph-name="uni0302" unicode="&#x302;" 
d="M-31 618h-116l-64 84l-64 -84h-117l119 161h125z" />
    <glyph glyph-name="tildecomb" unicode="&#x303;" 
d="M-171.5 627.5c-13 5.66699 -28.8311 13.835 -47.498 24.502c-15.333 9.33301 -27 15.833 -35 19.5s-15.667 5.5 -23 5.5c-10.667 0 -19.167 -4.33301 -25.5 -13s-9.5 -20.334 -9.5 -35.001h-71c0 42.667 9.5 77.167 28.5 103.5s44.167 39.5 75.5 39.5
c14.667 0 28.5 -2.83301 41.5 -8.5s28.833 -13.834 47.5 -24.501c13.333 -8 24.166 -14 32.499 -18s16.166 -6 23.499 -6c10.667 0 19.167 4 25.5 12s9.5 19.667 9.5 35h71c0 -44.667 -9.5 -79.667 -28.5 -105s-44.167 -38 -75.5 -38c-13.333 0 -26.5 2.83301 -39.5 8.5z
" />
    <glyph glyph-name="uni0304" unicode="&#x304;" 
d="M-360 625v104h326v-104h-326z" />
    <glyph glyph-name="uni0306" unicode="&#x306;" 
d="M-313 656c-30.667 31.333 -46 72.333 -46 123h99c0 -28 6.33301 -50.5 19 -67.5s29 -25.5 49 -25.5s36.167 8.5 48.5 25.5s18.5 39.5 18.5 67.5h99c0 -51.333 -15.167 -92.5 -45.5 -123.5s-70.5 -46.5 -120.5 -46.5s-90.333 15.667 -121 47z" />
    <glyph glyph-name="uni0307" unicode="&#x307;" 
d="M-177 651c-14.667 14.667 -22 33.334 -22 56.001s7.33301 41.5 22 56.5s33.334 22.5 56.001 22.5c22 0 40.333 -7.5 55 -22.5s22 -33.833 22 -56.5s-7.33301 -41.334 -22 -56.001s-33 -22 -55 -22c-22.667 0 -41.334 7.33301 -56.001 22z" />
    <glyph glyph-name="uni0308" unicode="&#x308;" 
d="M-405 651c-14.667 14.667 -22 33.334 -22 56.001s7.33301 41.5 22 56.5s33.334 22.5 56.001 22.5c22 0 40.333 -7.5 55 -22.5s22 -33.833 22 -56.5s-7.33301 -41.334 -22 -56.001s-33 -22 -55 -22c-22.667 0 -41.334 7.33301 -56.001 22zM-179 651
c-14.667 14.667 -22 33.334 -22 56.001s7.33301 41.5 22 56.5s33.334 22.5 56.001 22.5s41.167 -7.33301 55.5 -22s21.5 -33.667 21.5 -57c0 -22.667 -7.16699 -41.334 -21.5 -56.001s-32.833 -22 -55.5 -22s-41.334 7.33301 -56.001 22z" />
    <glyph glyph-name="uni030A" unicode="&#x30a;" 
d="M-228.5 613.5c-19.667 19.667 -29.5 45.834 -29.5 78.501s9.83301 58.667 29.5 78s45.834 29 78.501 29c32 0 57.833 -9.66699 77.5 -29s29.5 -45.333 29.5 -78s-9.83301 -58.834 -29.5 -78.501s-45.5 -29.5 -77.5 -29.5c-32.667 0 -58.834 9.83301 -78.501 29.5z
M-122 657c7.33301 8.66699 11 20.334 11 35.001c0 14 -3.66699 25.5 -11 34.5s-16.666 13.5 -27.999 13.5s-20.666 -4.5 -27.999 -13.5s-11 -20.5 -11 -34.5c0 -14.667 3.66699 -26.334 11 -35.001s16.666 -13 27.999 -13s20.666 4.33301 27.999 13z" />
    <glyph glyph-name="uni030B" unicode="&#x30b;" 
d="M-416 618l96 161h153l-137 -161h-112zM-232 618l96 161h153l-136 -161h-113z" />
    <glyph glyph-name="uni030C" unicode="&#x30c;" 
d="M-147 779h116l-117 -161h-125l-119 161h117l64 -84z" />
    <glyph glyph-name="uni0312" unicode="&#x312;" 
d="M-194 593l60 187h100l-42 -187h-118z" />
    <glyph glyph-name="uni0326" unicode="&#x326;" 
d="M-174 -220l38 168h118l-56 -168h-100z" />
    <glyph glyph-name="uni0327" unicode="&#x327;" 
d="M-38.5 -79.5c17 -15.667 25.5 -35.5 25.5 -59.5c0 -27.333 -10.833 -49.333 -32.5 -66s-50.834 -25 -87.501 -25c-18 0 -35 2.33301 -51 7s-29 10.667 -39 18l23 49c14 -12.667 32 -19 54 -19c14.667 0 26.334 3.33301 35.001 10s13 15.334 13 26.001
c0 10 -3.83301 17.833 -11.5 23.5s-18.167 8.5 -31.5 8.5c-12 0 -22.667 -2.66699 -32 -8l-17 30l41 85h73l-31 -55c28.667 -0.666992 51.5 -8.83398 68.5 -24.501z" />
    <glyph glyph-name="uni0328" unicode="&#x328;" 
d="M-163 -205.5c-17.333 16.333 -26 37.5 -26 63.5c0 67.333 58.667 135.333 176 204v-62c-54 -40 -81 -80 -81 -120c0 -10.667 2.83301 -19 8.5 -25s13.167 -9 22.5 -9c15.333 0 29.333 5.66699 42 17l11 -65c-24 -18.667 -52.333 -28 -85 -28
c-28 0 -50.667 8.16699 -68 24.5z" />
    <glyph glyph-name="uni0335" unicode="&#x335;" 
d="M-478 243v94h349v-94h-349z" />
    <glyph glyph-name="uni0336" unicode="&#x336;" 
d="M-789 243v94h747v-94h-747z" />
    <glyph glyph-name="uni0337" unicode="&#x337;" 
d="M-240 441l141 106v-106l-141 -107v18l-138 -104v106l138 104v-17z" />
    <glyph glyph-name="uni0338" unicode="&#x338;" 
d="M-405 -10l-69 43l376 717l69 -42z" />
    <glyph glyph-name="uni0394" unicode="&#x394;" horiz-adv-x="751" 
d="M439 740l282 -740h-692l283 740h127zM215 113h321l-160 458z" />
    <glyph glyph-name="uni03A9" unicode="&#x3a9;" horiz-adv-x="725" 
d="M515 113l156.001 0.000976562v-113h-264v252c42 10 75.333 31.667 100 65s37 74.666 37 123.999c0 58.667 -16.667 106 -50 142s-77 54 -131 54s-97.5 -18 -130.5 -54s-49.5 -83.333 -49.5 -142c0 -48.667 12.167 -89.667 36.5 -123s57.833 -55.333 100.5 -66v-252h-264
v113h156v53c-53.333 24 -95 60 -125 108s-45 103.667 -45 167c0 61.333 13.333 115.333 40 162s64.334 82.834 113.001 108.501s104.667 38.5 168 38.5s119.166 -12.833 167.499 -38.5s85.833 -61.834 112.5 -108.501s40 -100.667 40 -162
c0 -63.333 -14.833 -119 -44.5 -167s-70.834 -84 -123.501 -108v-53z" />
    <glyph glyph-name="uni03BC" unicode="&#x3bc;" horiz-adv-x="579" 
d="M519 539v-539h-127l-1 44c-26.667 -36 -60.667 -54 -102 -54c-38 0 -70.333 16.333 -97 49v-259h-132v759h132v-334c0 -30.667 8.83301 -55.334 26.5 -74.001s41.167 -28 70.5 -28s53 9.33301 71 28s27 43.334 27 74.001v334h132z" />
    <glyph glyph-name="pi" unicode="&#x3c0;" horiz-adv-x="631" 
d="M591 121l-0.000976562 -106.001c-27.333 -16.667 -58.666 -25 -93.999 -25c-36 0 -65.167 11.833 -87.5 35.5s-33.5 54.834 -33.5 93.501v312h-139v-431h-132v431h-77v108h562v-108h-82v-285c0 -12.667 2.83301 -23 8.5 -31s13.167 -12 22.5 -12c18.667 0 36 6 52 18z
" />
    <glyph glyph-name="Wgrave" unicode="&#x1e80;" horiz-adv-x="1029" 
d="M882 740h145l-228 -740h-127l-157 527l-158 -527h-126l-229 740h145l154 -557l150 557h127l151 -557zM484 819l-164 161h153l123 -161h-112z" />
    <glyph glyph-name="wgrave" unicode="&#x1e81;" horiz-adv-x="829" 
d="M679 539h144l-177 -539h-132l-99 355l-100 -355h-132l-177 539h144l108 -389l103 389h107l103 -389zM384 618l-164 161h153l123 -161h-112z" />
    <glyph glyph-name="Wacute" unicode="&#x1e82;" horiz-adv-x="1029" 
d="M882 740h145l-228 -740h-127l-157 527l-158 -527h-126l-229 740h145l154 -557l150 557h127l151 -557zM433 819l123 161h153l-164 -161h-112z" />
    <glyph glyph-name="wacute" unicode="&#x1e83;" horiz-adv-x="829" 
d="M679 539h144l-177 -539h-132l-99 355l-100 -355h-132l-177 539h144l108 -389l103 389h107l103 -389zM333 618l123 161h153l-164 -161h-112z" />
    <glyph glyph-name="Wdieresis" unicode="&#x1e84;" horiz-adv-x="1029" 
d="M882 740h145l-228 -740h-127l-157 527l-158 -527h-126l-229 740h145l154 -557l150 557h127l151 -557zM346 852c-14.667 14.667 -22 33.334 -22 56.001s7.33301 41.5 22 56.5s33.334 22.5 56.001 22.5c22 0 40.333 -7.5 55 -22.5s22 -33.833 22 -56.5
s-7.33301 -41.334 -22 -56.001s-33 -22 -55 -22c-22.667 0 -41.334 7.33301 -56.001 22zM572 852c-14.667 14.667 -22 33.334 -22 56.001s7.33301 41.5 22 56.5s33.334 22.5 56.001 22.5s41.167 -7.33301 55.5 -22s21.5 -33.667 21.5 -57
c0 -22.667 -7.16699 -41.334 -21.5 -56.001s-32.833 -22 -55.5 -22s-41.334 7.33301 -56.001 22z" />
    <glyph glyph-name="wdieresis" unicode="&#x1e85;" horiz-adv-x="829" 
d="M679 539h144l-177 -539h-132l-99 355l-100 -355h-132l-177 539h144l108 -389l103 389h107l103 -389zM246 651c-14.667 14.667 -22 33.334 -22 56.001s7.33301 41.5 22 56.5s33.334 22.5 56.001 22.5c22 0 40.333 -7.5 55 -22.5s22 -33.833 22 -56.5
s-7.33301 -41.334 -22 -56.001s-33 -22 -55 -22c-22.667 0 -41.334 7.33301 -56.001 22zM472 651c-14.667 14.667 -22 33.334 -22 56.001s7.33301 41.5 22 56.5s33.334 22.5 56.001 22.5s41.167 -7.33301 55.5 -22s21.5 -33.667 21.5 -57
c0 -22.667 -7.16699 -41.334 -21.5 -56.001s-32.833 -22 -55.5 -22s-41.334 7.33301 -56.001 22z" />
    <glyph glyph-name="uni1E9E" unicode="&#x1e9e;" horiz-adv-x="628" 
d="M557.5 318.5c23 -31.667 34.499 -68.5 34.499 -110.5c0 -42.667 -9.5 -80.5 -28.5 -113.5s-45.667 -58.667 -80 -77s-74.166 -27.5 -119.499 -27.5c-17.333 0 -34.833 1.33301 -52.5 4s-32.167 6.33398 -43.5 11.001l12 109c16 -7.33301 36 -11 60 -11
c33.333 0 60.166 10.5 80.499 31.5s30.5 48.833 30.5 83.5c0 35.333 -12 63.666 -36 84.999s-55.333 32 -94 32v104c28.667 0 51.834 9.16699 69.501 27.5s26.5 42.5 26.5 72.5c0 29.333 -9.66699 53 -29 71s-45 27 -77 27c-30.667 0 -55.5 -8.5 -74.5 -25.5
s-28.5 -38.833 -28.5 -65.5v-546h-136v559c0 37.333 10 70.5 30 99.5s48.167 51.5 84.5 67.5s78.5 24 126.5 24c48.667 0 91.5 -8 128.5 -24s65.667 -38.667 86 -68s30.5 -63 30.5 -101c0 -36.667 -8.5 -69.167 -25.5 -97.5s-41.167 -51.166 -72.5 -68.499
c42 -16.667 74.5 -40.834 97.5 -72.501z" />
    <glyph glyph-name="Ygrave" unicode="&#x1ef2;" horiz-adv-x="628" 
d="M474 740h145l-237 -465v-275h-136v275l-237 465h146l160 -344zM284 819l-164 161h153l123 -161h-112z" />
    <glyph glyph-name="ygrave" unicode="&#x1ef3;" horiz-adv-x="573" 
d="M513 539v-489.001c0 -56 -11.167 -105.167 -33.5 -147.5s-53.833 -75 -94.5 -98s-87.667 -34.5 -141 -34.5c-38.667 0 -74.667 5.66699 -108 17s-62 28.333 -86 51l29 104c44.667 -39.333 98.334 -59 161.001 -59c42.667 0 77 15.5 103 46.5s39 71.833 39 122.5v4
c-17.333 -21.333 -38.333 -37.666 -63 -48.999s-51.667 -17 -81 -17c-54.667 0 -98.834 17.333 -132.501 52s-50.5 80.667 -50.5 138v359h131v-338c0 -29.333 9 -53 27 -71s41.667 -27 71 -27s53 9 71 27s27 41.667 27 71v338h131zM249 617.999l-164 161h153l123 -161h-112z
" />
    <glyph glyph-name="endash" unicode="&#x2013;" horiz-adv-x="561" 
d="M55 243v94h450v-94h-450z" />
    <glyph glyph-name="emdash" unicode="&#x2014;" horiz-adv-x="888" 
d="M55 243v94h777v-94h-777z" />
    <glyph glyph-name="quoteleft" unicode="&#x2018;" horiz-adv-x="258" 
d="M231 740l-59 -254h-137l77 254h119z" />
    <glyph glyph-name="quoteright" unicode="&#x2019;" horiz-adv-x="255" 
d="M38 486l59 254h137l-77 -254h-119z" />
    <glyph glyph-name="quotesinglbase" unicode="&#x201a;" horiz-adv-x="253" 
d="M11 -129l58 254h138l-78 -254h-118z" />
    <glyph glyph-name="quotedblleft" unicode="&#x201c;" horiz-adv-x="460" 
d="M231 740l-58 -254h-137l77 254h118zM432 740l-58 -254h-137l77 254h118z" />
    <glyph glyph-name="quotedblright" unicode="&#x201d;" horiz-adv-x="457" 
d="M38 486l59 254h137l-77 -254h-119zM239 486l59 254h137l-77 -254h-119z" />
    <glyph glyph-name="quotedblbase" unicode="&#x201e;" horiz-adv-x="454" 
d="M11 -129l58 254h138l-78 -254h-118zM212 -129l59 254h137l-78 -254h-118z" />
    <glyph glyph-name="dagger" unicode="&#x2020;" horiz-adv-x="517" 
d="M483 539v-113h-157v-646h-136v646h-156v113h156v241h136v-241h157z" />
    <glyph glyph-name="daggerdbl" unicode="&#x2021;" horiz-adv-x="517" 
d="M483 426h-157v-106h157v-113h-157v-427h-136v427h-156v113h156v106h-156v113h156v241h136v-241h157v-113z" />
    <glyph glyph-name="bullet" unicode="&#x2022;" horiz-adv-x="360" 
d="M98 222c-20.667 22 -31 50.667 -31 86c0 36 10.333 64.833 31 86.5s48 32.5 82 32.5s61.333 -10.833 82 -32.5s31 -50.5 31 -86.5c0 -35.333 -10.333 -64 -31 -86s-48 -33 -82 -33s-61.333 11 -82 33z" />
    <glyph glyph-name="ellipsis" unicode="&#x2026;" horiz-adv-x="729" 
d="M66 15.5c-16.667 17 -25 37.5 -25 61.5c0 23.333 8.33301 43.5 25 60.5s36.667 25.5 60 25.5s43.333 -8.5 60 -25.5s25 -37.167 25 -60.5c0 -24 -8.33301 -44.5 -25 -61.5s-36.667 -25.5 -60 -25.5s-43.333 8.5 -60 25.5zM304.5 15.5c-17 17 -25.502 37.5 -25.502 61.5
c0 23.333 8.5 43.5 25.5 60.5s37.167 25.5 60.5 25.5c22.667 0 42.334 -8.5 59.001 -25.5s25 -37.167 25 -60.5c0 -24 -8.16699 -44.5 -24.5 -61.5s-36.166 -25.5 -59.499 -25.5s-43.5 8.5 -60.5 25.5zM542.998 15.5c-16.667 17 -25 37.5 -25 61.5
c0 23.333 8.33301 43.5 25 60.5s36.667 25.5 60 25.5s43.333 -8.5 60 -25.5s25 -37.167 25 -60.5c0 -24 -8.33301 -44.5 -25 -61.5s-36.667 -25.5 -60 -25.5s-43.333 8.5 -60 25.5z" />
    <glyph glyph-name="perthousand" unicode="&#x2030;" horiz-adv-x="1175" 
d="M76.5 456c-31.667 31.333 -47.5 72.666 -47.5 123.999c0 50.667 15.833 91.667 47.5 123s73.167 47 124.5 47s92.666 -15.5 123.999 -46.5s47 -72.167 47 -123.5s-15.667 -92.666 -47 -123.999s-72.666 -47 -123.999 -47s-92.833 15.667 -124.5 47zM255 -9l-67 34
l344 724l67 -33zM249 517.5c12 15.667 18 36.5 18 62.5s-6 46.667 -18 62s-27.667 23 -47 23c-20 0 -36 -7.66699 -48 -23s-18 -36 -18 -62s6 -46.833 18 -62.5s28 -23.5 48 -23.5c19.333 0 35 7.83301 47 23.5zM464.5 37c-31.667 31.333 -47.5 72.333 -47.5 123
c0 51.333 15.833 92.666 47.5 123.999s73.167 47 124.5 47s92.666 -15.667 123.999 -47s47 -72.666 47 -123.999s-15.667 -92.5 -47 -123.5s-72.666 -46.5 -123.999 -46.5s-92.833 15.667 -124.5 47zM852.5 37c-31.667 31.333 -47.5 72.333 -47.5 123
c0 51.333 15.833 92.666 47.5 123.999s73.167 47 124.5 47s92.666 -15.667 123.999 -47s47 -72.666 47 -123.999s-15.667 -92.5 -47 -123.5s-72.666 -46.5 -123.999 -46.5s-92.833 15.667 -124.5 47zM636 98.5c12 15.667 18 36.167 18 61.5c0 26 -6 46.833 -18 62.5
s-27.667 23.5 -47 23.5c-20 0 -36 -7.83301 -48 -23.5s-18 -36.5 -18 -62.5c0 -25.333 6 -45.833 18 -61.5s28 -23.5 48 -23.5c19.333 0 35 7.83301 47 23.5zM1024 98.5c12 15.667 18 36.167 18 61.5c0 26 -6 46.833 -18 62.5s-27.667 23.5 -47 23.5
c-20 0 -36 -7.83301 -48 -23.5s-18 -36.5 -18 -62.5c0 -25.333 6 -45.833 18 -61.5s28 -23.5 48 -23.5c19.333 0 35 7.83301 47 23.5z" />
    <glyph glyph-name="guilsinglleft" unicode="&#x2039;" horiz-adv-x="366" 
d="M333 499l-158 -229l158 -229h-140l-163 229l163 229h140z" />
    <glyph glyph-name="guilsinglright" unicode="&#x203a;" horiz-adv-x="366" 
d="M174 499l162 -229l-162 -229h-140l157 229l-157 229h140z" />
    <glyph glyph-name="fraction" unicode="&#x2044;" horiz-adv-x="205" 
d="M-51 -10l-70 43l377 717l69 -42z" />
    <glyph glyph-name="uni2070" unicode="&#x2070;" horiz-adv-x="358" 
d="M67.5 452.5c-28.333 41.667 -42.5 96.8301 -42.5 165.497s14.167 123.834 42.5 165.501s65.833 62.5 112.5 62.5c30 0 56.667 -9.5 80 -28.5s41.333 -45.667 54 -80s19 -74.166 19 -119.499s-6.33301 -85.166 -19 -119.499s-30.667 -61 -54 -80s-50 -28.5 -80 -28.5
c-46.667 0 -84.167 20.833 -112.5 62.5zM229.5 503.496c12.333 29 18.5 67.167 18.5 114.5s-6.16699 85.5 -18.5 114.5s-28.833 43.5 -49.5 43.5s-37.334 -14.5 -50.001 -43.5s-19 -67.167 -19 -114.5c0 -46.667 6.33301 -84.667 19 -114s29.334 -44 50.001 -44
s37.167 14.5 49.5 43.5z" />
    <glyph glyph-name="uni2074" unicode="&#x2074;" horiz-adv-x="357" 
d="M196 396v85h-183v60l201 299h66v-287h54v-72h-54v-85h-84zM104 550h94v143z" />
    <glyph glyph-name="uni2075" unicode="&#x2075;" horiz-adv-x="328" 
d="M15 429l24.999 62c10.667 -10 23.667 -17.667 39 -23s31.333 -8 48 -8c26.667 0 48 7.33301 64 22s24 34 24 58c0 20 -5.5 36.167 -16.5 48.5s-25.833 18.5 -44.5 18.5c-22.667 0 -40.667 -6 -54 -18l-54 8l27 243h208v-70h-138l-12 -99
c12.667 4.66699 26.334 7 41.001 7c38 0 69.167 -12.167 93.5 -36.5s36.5 -56.166 36.5 -95.499c0 -46.667 -15.333 -84.334 -46 -113.001s-70.667 -43 -120 -43c-52.667 0 -93 13 -121 39z" />
    <glyph glyph-name="uni2076" unicode="&#x2076;" horiz-adv-x="328" 
d="M246.5 651c19 -11.333 34.168 -27.332 45.501 -47.999s17 -44.334 17 -71.001c0 -42.667 -13 -77 -39 -103s-60.333 -39 -103 -39c-43.333 0 -78 12.833 -104 38.5s-39 59.834 -39 102.501c0 24.667 3.66699 47.167 11 67.5s18.666 42.166 33.999 65.499l111 176h94
l-118 -174c10.667 1.33301 20 2 28 2c22.667 0 43.5 -5.66699 62.5 -17zM208.001 480.001c10.667 13.333 16 30.666 16 51.999s-5.33301 38.5 -16 51.5s-24.334 19.5 -41.001 19.5c-17.333 0 -31.166 -6.5 -41.499 -19.5s-15.5 -30.167 -15.5 -51.5
s5.16699 -38.666 15.5 -51.999s24.166 -20 41.499 -20c16.667 0 30.334 6.66699 41.001 20z" />
    <glyph glyph-name="uni2077" unicode="&#x2077;" horiz-adv-x="296" 
d="M14 840h275l-133 -444h-89l115 374h-168v70z" />
    <glyph glyph-name="uni2078" unicode="&#x2078;" horiz-adv-x="344" 
d="M297 584c11.333 -18.667 16.999 -40.001 16.999 -64.001c0 -38.667 -13 -70 -39 -94s-60.333 -36 -103 -36s-77 11.833 -103 35.5s-39 54.834 -39 93.501c0 24 5.83301 45.333 17.5 64s27.834 33 48.501 43c-18 10 -31.833 23.5 -41.5 40.5s-14.5 36.167 -14.5 57.5
c0 36.667 12.167 66.167 36.5 88.5s56.166 33.5 95.499 33.5s71 -11.167 95 -33.5s36 -51.5 36 -87.5c0 -22 -4.66699 -41.333 -14 -58s-22.666 -30 -39.999 -40c20.667 -10 36.667 -24.333 48 -43zM137.999 759.999c-8.66699 -10.667 -13 -24.667 -13 -42
s4.33301 -31.166 13 -41.499s20 -15.5 34 -15.5s25.5 5.16699 34.5 15.5s13.5 24.166 13.5 41.499c0 16.667 -4.5 30.5 -13.5 41.5s-20.5 16.5 -34.5 16.5s-25.333 -5.33301 -34 -16zM213.499 477.999c10.333 12 15.5 27.667 15.5 47c0 20 -5.16699 36 -15.5 48
s-24.166 18 -41.499 18s-31.166 -6 -41.499 -18s-15.5 -28 -15.5 -48c0 -19.333 5.16699 -35 15.5 -47s24.166 -18 41.499 -18s31.166 6 41.499 18z" />
    <glyph glyph-name="uni2079" unicode="&#x2079;" horiz-adv-x="328" 
d="M265 807.5c26 -25.667 38.999 -59.835 38.999 -102.502c0 -24.667 -3.66699 -47.167 -11 -67.5s-18.666 -42.166 -33.999 -65.499l-111 -176h-94l118 174c-10.667 -1.33301 -20 -2 -28 -2c-22.667 0 -43.5 5.66699 -62.5 17s-34.167 27.333 -45.5 48
s-17 44.334 -17 71.001c0 42.667 13 77 39 103s60.333 39 103 39c43.333 0 78 -12.833 104 -38.5zM119.999 652.499c10.667 -13 24.334 -19.5 41.001 -19.5c17.333 0 31.166 6.5 41.499 19.5s15.5 30.167 15.5 51.5s-5.16699 38.666 -15.5 51.999s-24.166 20 -41.499 20
c-16.667 0 -30.334 -6.66699 -41.001 -20s-16 -30.666 -16 -51.999s5.33301 -38.5 16 -51.5z" />
    <glyph glyph-name="uni2080" unicode="&#x2080;" horiz-adv-x="358" 
d="M67.5 -43.5c-28.333 41.667 -42.5 96.8301 -42.5 165.497s14.167 123.834 42.5 165.501s65.833 62.5 112.5 62.5c30 0 56.667 -9.5 80 -28.5s41.333 -45.667 54 -80s19 -74.166 19 -119.499s-6.33301 -85.166 -19 -119.499s-30.667 -61 -54 -80s-50 -28.5 -80 -28.5
c-46.667 0 -84.167 20.833 -112.5 62.5zM229.5 7.49609c12.333 29 18.5 67.167 18.5 114.5s-6.16699 85.5 -18.5 114.5s-28.833 43.5 -49.5 43.5s-37.334 -14.5 -50.001 -43.5s-19 -67.167 -19 -114.5c0 -46.667 6.33301 -84.667 19 -114s29.334 -44 50.001 -44
s37.167 14.5 49.5 43.5z" />
    <glyph glyph-name="uni2081" unicode="&#x2081;" horiz-adv-x="252" 
d="M119 -100v332l-73 -58l-42 60l134 110h65v-444h-84z" />
    <glyph glyph-name="uni2082" unicode="&#x2082;" horiz-adv-x="332" 
d="M26 -46l124 151.999c19.333 24 34.666 45.167 45.999 63.5s17 37.5 17 57.5c0 16 -4.33301 28.833 -13 38.5s-20 14.5 -34 14.5c-15.333 0 -27.666 -5.66699 -36.999 -17s-14 -26.333 -14 -45l-84 7c0 37.333 12.333 67.5 37 90.5s57 34.5 97 34.5s72 -10.667 96 -32
s36 -49.666 36 -84.999c0 -28.667 -7.5 -56.167 -22.5 -82.5s-38.5 -58.5 -70.5 -96.5l-72 -85l171 1v-70h-277v54z" />
    <glyph glyph-name="uni2083" unicode="&#x2083;" horiz-adv-x="324" 
d="M263.5 131.5c22.333 -24.333 33.501 -56.167 33.501 -95.5c0 -42.667 -14 -77 -42 -103s-66 -39 -114 -39c-24.667 0 -48.167 3.83301 -70.5 11.5s-39.833 18.5 -52.5 32.5l32 61c9.33301 -10.667 21 -19.167 35 -25.5s29 -9.5 45 -9.5c24.667 0 44 6.5 58 19.5
s21 30.5 21 52.5c0 21.333 -6.5 38.166 -19.5 50.499s-30.5 18.5 -52.5 18.5c-18.667 0 -35.667 -4.66699 -51 -14l-23 43l109 140h-134v70h237v-53l-101 -121c37.333 -1.33301 67.166 -14.166 89.499 -38.499z" />
    <glyph glyph-name="uni2084" unicode="&#x2084;" horiz-adv-x="357" 
d="M196 -100v85h-183v60l201 299h66v-287h54v-72h-54v-85h-84zM104 54h94v143z" />
    <glyph glyph-name="uni2085" unicode="&#x2085;" horiz-adv-x="328" 
d="M15 -67l24.999 62c10.667 -10 23.667 -17.667 39 -23s31.333 -8 48 -8c26.667 0 48 7.33301 64 22s24 34 24 58c0 20 -5.5 36.167 -16.5 48.5s-25.833 18.5 -44.5 18.5c-22.667 0 -40.667 -6 -54 -18l-54 8l27 243h208v-70h-138l-12 -99
c12.667 4.66699 26.334 7 41.001 7c38 0 69.167 -12.167 93.5 -36.5s36.5 -56.166 36.5 -95.499c0 -46.667 -15.333 -84.334 -46 -113.001s-70.667 -43 -120 -43c-52.667 0 -93 13 -121 39z" />
    <glyph glyph-name="uni2086" unicode="&#x2086;" horiz-adv-x="328" 
d="M246.5 155c19 -11.333 34.168 -27.332 45.501 -47.999s17 -44.334 17 -71.001c0 -42.667 -13 -77 -39 -103s-60.333 -39 -103 -39c-43.333 0 -78 12.833 -104 38.5s-39 59.834 -39 102.501c0 24.667 3.66699 47.167 11 67.5s18.666 42.166 33.999 65.499l111 176h94
l-118 -174c10.667 1.33301 20 2 28 2c22.667 0 43.5 -5.66699 62.5 -17zM208.001 -15.999c10.667 13.333 16 30.666 16 51.999s-5.33301 38.5 -16 51.5s-24.334 19.5 -41.001 19.5c-17.333 0 -31.166 -6.5 -41.499 -19.5s-15.5 -30.167 -15.5 -51.5
s5.16699 -38.666 15.5 -51.999s24.166 -20 41.499 -20c16.667 0 30.334 6.66699 41.001 20z" />
    <glyph glyph-name="uni2087" unicode="&#x2087;" horiz-adv-x="296" 
d="M14 344h275l-133 -444h-89l115 374h-168v70z" />
    <glyph glyph-name="uni2088" unicode="&#x2088;" horiz-adv-x="344" 
d="M297 88c11.333 -18.667 16.999 -40.001 16.999 -64.001c0 -38.667 -13 -70 -39 -94s-60.333 -36 -103 -36s-77 11.833 -103 35.5s-39 54.834 -39 93.501c0 24 5.83301 45.333 17.5 64s27.834 33 48.501 43c-18 10 -31.833 23.5 -41.5 40.5s-14.5 36.167 -14.5 57.5
c0 36.667 12.167 66.167 36.5 88.5s56.166 33.5 95.499 33.5s71 -11.167 95 -33.5s36 -51.5 36 -87.5c0 -22 -4.66699 -41.333 -14 -58s-22.666 -30 -39.999 -40c20.667 -10 36.667 -24.333 48 -43zM137.999 263.999c-8.66699 -10.667 -13 -24.667 -13 -42
s4.33301 -31.166 13 -41.499s20 -15.5 34 -15.5s25.5 5.16699 34.5 15.5s13.5 24.166 13.5 41.499c0 16.667 -4.5 30.5 -13.5 41.5s-20.5 16.5 -34.5 16.5s-25.333 -5.33301 -34 -16zM213.499 -18.001c10.333 12 15.5 27.667 15.5 47c0 20 -5.16699 36 -15.5 48
s-24.166 18 -41.499 18s-31.166 -6 -41.499 -18s-15.5 -28 -15.5 -48c0 -19.333 5.16699 -35 15.5 -47s24.166 -18 41.499 -18s31.166 6 41.499 18z" />
    <glyph glyph-name="uni2089" unicode="&#x2089;" horiz-adv-x="328" 
d="M265 311.5c26 -25.667 38.999 -59.835 38.999 -102.502c0 -24.667 -3.66699 -47.167 -11 -67.5s-18.666 -42.166 -33.999 -65.499l-111 -176h-94l118 174c-10.667 -1.33301 -20 -2 -28 -2c-22.667 0 -43.5 5.66699 -62.5 17s-34.167 27.333 -45.5 48
s-17 44.334 -17 71.001c0 42.667 13 77 39 103s60.333 39 103 39c43.333 0 78 -12.833 104 -38.5zM119.999 156.499c10.667 -13 24.334 -19.5 41.001 -19.5c17.333 0 31.166 6.5 41.499 19.5s15.5 30.167 15.5 51.5s-5.16699 38.666 -15.5 51.999s-24.166 20 -41.499 20
c-16.667 0 -30.334 -6.66699 -41.001 -20s-16 -30.666 -16 -51.999s5.33301 -38.5 16 -51.5z" />
    <glyph glyph-name="Euro" unicode="&#x20ac;" horiz-adv-x="765" 
d="M733 139c-33.333 -48.667 -73.999 -85.668 -121.999 -111.001s-102.333 -38 -163 -38c-86 0 -159.167 23.333 -219.5 70s-100.833 110.667 -121.5 192h-69v85h55c-0.666992 7.33301 -1 19 -1 35v13h-54v85h64c17.333 86 56.666 154.167 117.999 204.5s137 75.5 227 75.5
c110 0 198 -39.667 264 -119l-85 -88c-19.333 28.667 -44.333 51.5 -75 68.5s-64.667 25.5 -102 25.5c-50 0 -92.833 -14.833 -128.5 -44.5s-60.5 -70.5 -74.5 -122.5h200v-85h-213v-14c0 -15.333 0.333008 -26.666 1 -33.999h212v-85h-194
c16 -46.667 41.333 -83.167 76 -109.5s75.667 -39.5 123 -39.5c80.667 0 144 39.333 190 118z" />
    <glyph glyph-name="uni20B9" unicode="&#x20b9;" horiz-adv-x="568" 
d="M528 655l-143.001 0.000976562c36 -31.333 58.667 -72.333 68 -123h70v-85h-70c-4.66699 -38 -16.167 -71.833 -34.5 -101.5s-42.5 -53.834 -72.5 -72.501l163 -273h-160l-133 234h-17h-144v113h134c30.667 0 56.834 9 78.501 27s36.167 42.333 43.5 73h-256v85h257
c-7.33301 29.333 -20.833 52.5 -40.5 69.5s-43.5 25.5 -71.5 25.5h-145v113h473v-85z" />
    <glyph glyph-name="uni20BD" unicode="&#x20bd;" horiz-adv-x="624" 
d="M238 293l-0.000976562 -48h193v-85h-193v-160h-136v160h-52v85h52v48h-52v86h52v361h250c48 0 90.333 -9.16699 127 -27.5s65 -44 85 -77s30 -70.833 30 -113.5c0 -45.333 -10.333 -85.333 -31 -120s-49.667 -61.5 -87 -80.5s-80.666 -28.5 -129.999 -28.5h-108z
M237.999 407h99c36.667 0 65.167 10 85.5 30s30.5 46.667 30.5 80s-10.5 60 -31.5 80s-49.167 30 -84.5 30h-99v-220z" />
    <glyph glyph-name="trademark" unicode="&#x2122;" horiz-adv-x="664" 
d="M258 780v-59h-77v-227h-70v227h-77v59h224zM608 494h-70l-10 175l-69 -175h-28l-70 175l-9 -175h-70l19 286h75l69 -186l68 186h75z" />
    <glyph glyph-name="oneeighth" unicode="&#x215b;" horiz-adv-x="801" 
d="M119 296v332l-73 -58l-42 60l134 110h65v-444h-84zM201 -10l-70 43l377 717l69 -42zM754 188c11.333 -18.667 16.999 -40.001 16.999 -64.001c0 -38.667 -13 -70 -39 -94s-60.333 -36 -103 -36s-77 11.833 -103 35.5s-39 54.834 -39 93.501c0 24 5.83301 45.333 17.5 64
s27.834 33 48.501 43c-18 10 -31.833 23.5 -41.5 40.5s-14.5 36.167 -14.5 57.5c0 36.667 12.167 66.167 36.5 88.5s56.166 33.5 95.499 33.5s71 -11.167 95 -33.5s36 -51.5 36 -87.5c0 -22 -4.66699 -41.333 -14 -58s-22.666 -30 -39.999 -40
c20.667 -10 36.667 -24.333 48 -43zM594.999 363.999c-8.66699 -10.667 -13 -24.667 -13 -42s4.33301 -31.166 13 -41.499s20 -15.5 34 -15.5s25.5 5.16699 34.5 15.5s13.5 24.166 13.5 41.499c0 16.667 -4.5 30.5 -13.5 41.5s-20.5 16.5 -34.5 16.5
s-25.333 -5.33301 -34 -16zM670.499 81.999c10.333 12 15.5 27.667 15.5 47c0 20 -5.16699 36 -15.5 48s-24.166 18 -41.499 18s-31.166 -6 -41.499 -18s-15.5 -28 -15.5 -48c0 -19.333 5.16699 -35 15.5 -47s24.166 -18 41.499 -18s31.166 6 41.499 18z" />
    <glyph glyph-name="threeeighths" unicode="&#x215c;" horiz-adv-x="873" 
d="M263.5 527.5c22.333 -24.333 33.501 -56.167 33.501 -95.5c0 -42.667 -14 -77 -42 -103s-66 -39 -114 -39c-24.667 0 -48.167 3.83301 -70.5 11.5s-39.833 18.5 -52.5 32.5l32 61c9.33301 -10.667 21 -19.167 35 -25.5s29 -9.5 45 -9.5c24.667 0 44 6.5 58 19.5
s21 30.5 21 52.5c0 21.333 -6.5 38.166 -19.5 50.499s-30.5 18.5 -52.5 18.5c-18.667 0 -35.667 -4.66699 -51 -14l-23 43l109 140h-134v70h237v-53l-101 -121c37.333 -1.33301 67.166 -14.166 89.499 -38.499zM273.001 -10.001l-70 43l377 717l69 -42zM826.001 187.999
c11.333 -18.667 16.999 -40.001 16.999 -64.001c0 -38.667 -13 -70 -39 -94s-60.333 -36 -103 -36s-77 11.833 -103 35.5s-39 54.834 -39 93.501c0 24 5.83301 45.333 17.5 64s27.834 33 48.501 43c-18 10 -31.833 23.5 -41.5 40.5s-14.5 36.167 -14.5 57.5
c0 36.667 12.167 66.167 36.5 88.5s56.166 33.5 95.499 33.5s71 -11.167 95 -33.5s36 -51.5 36 -87.5c0 -22 -4.66699 -41.333 -14 -58s-22.666 -30 -39.999 -40c20.667 -10 36.667 -24.333 48 -43zM667 363.998c-8.66699 -10.667 -13 -24.667 -13 -42
s4.33301 -31.166 13 -41.499s20 -15.5 34 -15.5s25.5 5.16699 34.5 15.5s13.5 24.166 13.5 41.499c0 16.667 -4.5 30.5 -13.5 41.5s-20.5 16.5 -34.5 16.5s-25.333 -5.33301 -34 -16zM742.5 81.998c10.333 12 15.5 27.667 15.5 47c0 20 -5.16699 36 -15.5 48
s-24.166 18 -41.499 18s-31.166 -6 -41.499 -18s-15.5 -28 -15.5 -48c0 -19.333 5.16699 -35 15.5 -47s24.166 -18 41.499 -18s31.166 6 41.499 18z" />
    <glyph glyph-name="fiveeighths" unicode="&#x215d;" horiz-adv-x="877" 
d="M15 329l24.999 62c10.667 -10 23.667 -17.667 39 -23s31.333 -8 48 -8c26.667 0 48 7.33301 64 22s24 34 24 58c0 20 -5.5 36.167 -16.5 48.5s-25.833 18.5 -44.5 18.5c-22.667 0 -40.667 -6 -54 -18l-54 8l27 243h208v-70h-138l-12 -99
c12.667 4.66699 26.334 7 41.001 7c38 0 69.167 -12.167 93.5 -36.5s36.5 -56.166 36.5 -95.499c0 -46.667 -15.333 -84.334 -46 -113.001s-70.667 -43 -120 -43c-52.667 0 -93 13 -121 39zM276.999 -10l-70 43l377 717l69 -42zM829.999 188
c11.333 -18.667 16.999 -40.001 16.999 -64.001c0 -38.667 -13 -70 -39 -94s-60.333 -36 -103 -36s-77 11.833 -103 35.5s-39 54.834 -39 93.501c0 24 5.83301 45.333 17.5 64s27.834 33 48.501 43c-18 10 -31.833 23.5 -41.5 40.5s-14.5 36.167 -14.5 57.5
c0 36.667 12.167 66.167 36.5 88.5s56.166 33.5 95.499 33.5s71 -11.167 95 -33.5s36 -51.5 36 -87.5c0 -22 -4.66699 -41.333 -14 -58s-22.666 -30 -39.999 -40c20.667 -10 36.667 -24.333 48 -43zM670.998 363.999c-8.66699 -10.667 -13 -24.667 -13 -42
s4.33301 -31.166 13 -41.499s20 -15.5 34 -15.5s25.5 5.16699 34.5 15.5s13.5 24.166 13.5 41.499c0 16.667 -4.5 30.5 -13.5 41.5s-20.5 16.5 -34.5 16.5s-25.333 -5.33301 -34 -16zM746.498 81.999c10.333 12 15.5 27.667 15.5 47c0 20 -5.16699 36 -15.5 48
s-24.166 18 -41.499 18s-31.166 -6 -41.499 -18s-15.5 -28 -15.5 -48c0 -19.333 5.16699 -35 15.5 -47s24.166 -18 41.499 -18s31.166 6 41.499 18z" />
    <glyph glyph-name="seveneighths" unicode="&#x215e;" horiz-adv-x="816" 
d="M14 740h275l-133 -444h-89l115 374h-168v70zM216 -10l-70 43l377 717l69 -42zM769 188c11.333 -18.667 16.999 -40.001 16.999 -64.001c0 -38.667 -13 -70 -39 -94s-60.333 -36 -103 -36s-77 11.833 -103 35.5s-39 54.834 -39 93.501c0 24 5.83301 45.333 17.5 64
s27.834 33 48.501 43c-18 10 -31.833 23.5 -41.5 40.5s-14.5 36.167 -14.5 57.5c0 36.667 12.167 66.167 36.5 88.5s56.166 33.5 95.499 33.5s71 -11.167 95 -33.5s36 -51.5 36 -87.5c0 -22 -4.66699 -41.333 -14 -58s-22.666 -30 -39.999 -40
c20.667 -10 36.667 -24.333 48 -43zM609.999 363.999c-8.66699 -10.667 -13 -24.667 -13 -42s4.33301 -31.166 13 -41.499s20 -15.5 34 -15.5s25.5 5.16699 34.5 15.5s13.5 24.166 13.5 41.499c0 16.667 -4.5 30.5 -13.5 41.5s-20.5 16.5 -34.5 16.5
s-25.333 -5.33301 -34 -16zM685.499 81.999c10.333 12 15.5 27.667 15.5 47c0 20 -5.16699 36 -15.5 48s-24.166 18 -41.499 18s-31.166 -6 -41.499 -18s-15.5 -28 -15.5 -48c0 -19.333 5.16699 -35 15.5 -47s24.166 -18 41.499 -18s31.166 6 41.499 18z" />
    <glyph glyph-name="partialdiff" unicode="&#x2202;" horiz-adv-x="621" 
d="M444.5 703c44.333 -31.333 78.6699 -75.665 103.003 -132.998s36.5 -123.333 36.5 -198c0 -75.333 -13.333 -142 -40 -200s-64.334 -102.833 -113.001 -134.5s-104.667 -47.5 -168 -47.5c-47.333 0 -88.833 8.66699 -124.5 26s-63.334 42 -83.001 74
s-29.5 68.667 -29.5 110c0 48 16.833 90.667 50.5 128s81.5 67.166 143.5 89.499s134 35.166 216 38.499c-9.33301 56 -27 100.167 -53 132.5s-57.667 48.5 -95 48.5c-31.333 0 -60 -8.5 -86 -25.5s-47.333 -39.833 -64 -68.5l-86 88c61.333 79.333 140.666 119 237.999 119
c58.667 0 110.167 -15.667 154.5 -47zM387.504 169.001c33 44 51.167 102.667 54.5 176c-56 -1.33301 -105.167 -8.33301 -147.5 -21s-75 -30 -98 -52s-34.5 -47 -34.5 -75s9 -50.667 27 -68s41.667 -26 71 -26c52 0 94.5 22 127.5 66z" />
    <glyph glyph-name="emptyset" unicode="&#x2205;" horiz-adv-x="616" 
d="M553.5 460.5c11 -33 16.502 -69.165 16.502 -108.498c0 -55.333 -10.833 -104 -32.5 -146s-52.334 -74.667 -92.001 -98s-85.167 -35 -136.5 -35c-56.667 0 -106.334 14 -149.001 42l-34 -42l-52 41l36 45c-20.667 24 -36.5 52.5 -47.5 85.5s-16.5 68.833 -16.5 107.5
c0 55.333 11 104.166 33 146.499s52.833 75.166 92.5 98.499s85.5 35 137.5 35c56.667 0 105.667 -14 147 -42l34 42l52 -41l-36 -45c20.667 -24 36.5 -52.5 47.5 -85.5zM197.002 267.002l181.999 227c-20 16.667 -43.667 25 -71 25c-37.333 0 -67.666 -15.333 -90.999 -46
s-35 -71 -35 -121c0 -32.667 5 -61 15 -85zM399.501 232.002c23 30.667 34.499 70.666 34.499 119.999c0 32.667 -5 61.334 -15 86.001l-182 -227c20.667 -16.667 44.334 -25 71.001 -25c38 0 68.5 15.333 91.5 46z" />
    <glyph glyph-name="product" unicode="&#x220f;" horiz-adv-x="662" 
d="M587 780v-1000h-136v887h-239v-887h-136v1000h511z" />
    <glyph glyph-name="summation" unicode="&#x2211;" horiz-adv-x="606" 
d="M30 -220v86l261 417l-251 411v86h521v-113h-357l247 -384l-257 -390h376v-113h-540z" />
    <glyph glyph-name="minus" unicode="&#x2212;" horiz-adv-x="549" 
d="M58 296v108h432v-108h-432z" />
    <glyph glyph-name="radical" unicode="&#x221a;" horiz-adv-x="713" 
d="M205 -220l-204 539h142l128 -389l297 850h142l-373 -1000h-132z" />
    <glyph glyph-name="infinity" unicode="&#x221e;" horiz-adv-x="664" 
d="M577.5 402.5c29.667 -31 44.5 -72.167 44.5 -123.5s-14.833 -92.5 -44.5 -123.5s-68.834 -46.5 -117.501 -46.5c-28 0 -53 6 -75 18s-39.667 29 -53 51c-13.333 -22 -30.833 -39 -52.5 -51s-46.5 -18 -74.5 -18c-48.667 0 -88 15.5 -118 46.5s-45 72.167 -45 123.5
s15 92.5 45 123.5s69.333 46.5 118 46.5c28 0 52.833 -6 74.5 -18s39.167 -29 52.5 -51c13.333 22 31 39 53 51s47 18 75 18c48.667 0 87.834 -15.5 117.501 -46.5zM261 217.5c12 15.667 18 36.167 18 61.5c0 26 -6 46.667 -18 62s-27.667 23 -47 23
c-20 0 -36 -7.66699 -48 -23s-18 -36 -18 -62c0 -25.333 6 -45.833 18 -61.5s28 -23.5 48 -23.5c19.333 0 35 7.83301 47 23.5zM497 217.5c12 15.667 18 36.167 18 61.5c0 26 -6 46.667 -18 62s-27.667 23 -47 23s-35.166 -7.66699 -47.499 -23s-18.5 -36 -18.5 -62
c0 -25.333 6.16699 -45.833 18.5 -61.5s28.166 -23.5 47.499 -23.5s35 7.83301 47 23.5z" />
    <glyph glyph-name="integral" unicode="&#x222b;" horiz-adv-x="413" 
d="M413 742l-35 -89c-16 16 -34 24 -54 24c-15.333 0 -27.5 -4.83301 -36.5 -14.5s-13.5 -22.5 -13.5 -38.5v-713c0 -42 -14.333 -76 -43 -102s-66 -39 -112 -39c-50 0 -90 16 -120 48l36 89c16 -16 33.667 -24 53 -24c15.333 0 27.5 4.83301 36.5 14.5s13.5 22.5 13.5 38.5
v713c0 42 14.333 76 43 102s66 39 112 39c51.333 0 91.333 -16 120 -48z" />
    <glyph glyph-name="approxequal" unicode="&#x2248;" horiz-adv-x="598" 
d="M312.5 129c-17 6 -36.499 14.334 -58.499 25.001c-3.33301 1.33301 -10.333 4.5 -21 9.5s-20.167 8.66699 -28.5 11s-15.833 3.5 -22.5 3.5c-16 0 -28.833 -4.33301 -38.5 -13s-14.5 -20.334 -14.5 -35.001h-71c0 42.667 11.167 77 33.5 103s51.833 39 88.5 39
c18.667 0 36.5 -3 53.5 -9s35.833 -14 56.5 -24c18 -8 32.167 -13.833 42.5 -17.5s20.166 -5.5 29.499 -5.5c16.667 0 29.667 3.83301 39 11.5s14 19.167 14 34.5h71c0 -44.667 -11 -79.5 -33 -104.5s-51.667 -37.5 -89 -37.5c-17.333 0 -34.5 3 -51.5 9zM312.501 329.001
c-17 6 -36.499 14.334 -58.499 25.001c-3.33301 1.33301 -10.333 4.5 -21 9.5s-20.167 8.66699 -28.5 11s-15.833 3.5 -22.5 3.5c-16 0 -28.833 -4.33301 -38.5 -13s-14.5 -20.334 -14.5 -35.001h-71c0 42.667 11.167 77 33.5 103s51.833 39 88.5 39
c18.667 0 36.5 -3 53.5 -9s35.833 -14 56.5 -24c18 -8 32.167 -13.833 42.5 -17.5s20.166 -5.5 29.499 -5.5c16.667 0 29.667 3.83301 39 11.5s14 19.167 14 34.5h71c0 -44.667 -11 -79.5 -33 -104.5s-51.667 -37.5 -89 -37.5c-17.333 0 -34.5 3 -51.5 9z" />
    <glyph glyph-name="notequal" unicode="&#x2260;" horiz-adv-x="548" 
d="M490 407h-135l-28 -113h163v-109h-190l-29 -117h-133l29 117h-109v109h136l29 113h-165v108h192l29 118h132l-29 -118h108v-108z" />
    <glyph glyph-name="lessequal" unicode="&#x2264;" horiz-adv-x="548" 
d="M485 314v-123l-430 193v85l430 193v-123l-247 -112zM54 145h432v-109h-432v109z" />
    <glyph glyph-name="greaterequal" unicode="&#x2265;" horiz-adv-x="547" 
d="M63 662l430 -193v-85l-430 -193v123l248 113l-248 112v123zM61 36v109h432v-109h-432z" />
    <glyph glyph-name="lozenge" unicode="&#x25ca;" horiz-adv-x="565" 
d="M344 639l188 -320l-188 -319h-123l-188 319l188 320h123zM282 116l114 203l-114 204l-113 -204z" />
    <glyph glyph-name=".null" 
 />
    <glyph glyph-name="i.loclTRK" horiz-adv-x="253" 
d="M61 0v538h131v-538h-131zM71 650c-14.667 14.667 -22 33.334 -22 56.001s7.33301 41.5 22 56.5s33.334 22.5 56.001 22.5c22 0 40.333 -7.5 55 -22.5s22 -33.833 22 -56.5s-7.33301 -41.334 -22 -56.001s-33 -22 -55 -22c-22.667 0 -41.334 7.33301 -56.001 22z" />
    <glyph glyph-name="zero.lf" horiz-adv-x="584" 
d="M158 37.5c-38.667 31.667 -68.667 76.167 -90 133.5s-32 123.666 -32 198.999s10.667 141.666 32 198.999s51.333 101.833 90 133.5s83.334 47.5 134.001 47.5s95.334 -15.833 134.001 -47.5s68.667 -76.167 90 -133.5s32 -123.666 32 -198.999
s-10.667 -141.666 -32 -198.999s-51.333 -101.833 -90 -133.5s-83.334 -47.5 -134.001 -47.5s-95.334 15.833 -134.001 47.5zM375.5 176.5c21 49 31.5 113.498 31.5 193.498s-10.5 144.5 -31.5 193.5s-48.833 73.5 -83.5 73.5c-22.667 0 -42.834 -11.167 -60.501 -33.5
s-31.334 -53.666 -41.001 -93.999s-14.5 -86.833 -14.5 -139.5s4.83301 -99.167 14.5 -139.5s23.334 -71.666 41.001 -93.999s37.834 -33.5 60.501 -33.5c34.667 0 62.5 24.5 83.5 73.5z" />
    <glyph glyph-name="one.lf" horiz-adv-x="408" 
d="M196 0v557l-124 -97l-68 97l224 183h104v-740h-136z" />
    <glyph glyph-name="two.lf" horiz-adv-x="537" 
d="M37 86l206 249c32.667 40 58.834 76.167 78.501 108.5s29.5 65.833 29.5 100.5c0 28 -7.66699 50.5 -23 67.5s-35.333 25.5 -60 25.5c-26.667 0 -48 -10.167 -64 -30.5s-24 -46.833 -24 -79.5l-136 11c0 42 9.16699 79 27.5 111s44.333 56.833 78 74.5
s72.5 26.5 116.5 26.5s82.667 -8.16699 116 -24.5s59.166 -39.5 77.499 -69.5s27.5 -64.667 27.5 -104c0 -48 -12.667 -94.167 -38 -138.5s-64 -96.5 -116 -156.5l-123 -146l285 2v-113h-458v86z" />
    <glyph glyph-name="three.lf" horiz-adv-x="526" 
d="M389.5 418.5c31.667 -18.333 56.0029 -44.1641 73.0029 -77.4971s25.5 -71.333 25.5 -114c0 -47.333 -10.333 -88.833 -31 -124.5s-50.334 -63.334 -89.001 -83.001s-84.334 -29.5 -137.001 -29.5c-41.333 0 -80.333 6.5 -117 19.5s-66 31.167 -88 54.5l52 97
c15.333 -18.667 35.166 -33 59.499 -43s50.5 -15 78.5 -15c41.333 0 74 11.167 98 33.5s36 52.166 36 89.499c0 35.333 -11.5 63.666 -34.5 84.999s-53.5 32 -91.5 32c-32 0 -61 -8 -87 -24l-36 69l183 239h-226v113h394v-85l-172 -208
c41.333 -0.666992 77.833 -10.167 109.5 -28.5z" />
    <glyph glyph-name="four.lf" horiz-adv-x="583" 
d="M324 0v144h-305v95l335 501h106v-483h91v-113h-91v-144h-136zM173 253h155l2 240z" />
    <glyph glyph-name="five.lf" horiz-adv-x="536" 
d="M109 6.5c-34.667 11 -63.6699 27.4961 -87.0029 49.4961l40 99c18.667 -17.333 40.834 -30.333 66.501 -39s53.167 -13 82.5 -13c44 0 79.5 12.333 106.5 37s40.5 57.334 40.5 98.001c0 34.667 -9.66699 62.667 -29 84s-44.666 32 -75.999 32
c-18.667 0 -36.334 -2.66699 -53.001 -8s-30.667 -12.666 -42 -21.999l-85 13l45 403h346v-113h-233l-22 -171c20.667 7.33301 44.667 11 72 11c42 0 79.5 -9.16699 112.5 -27.5s58.667 -44.166 77 -77.499s27.5 -71.666 27.5 -114.999c0 -50.667 -11.667 -95.5 -35 -134.5
s-55.666 -69.167 -96.999 -90.5s-88.666 -32 -141.999 -32c-42 0 -80.333 5.5 -115 16.5z" />
    <glyph glyph-name="six.lf" horiz-adv-x="534" 
d="M403.5 424c31.667 -18.667 56.6689 -45.167 75.002 -79.5s27.5 -73.5 27.5 -117.5c0 -46.667 -9.83301 -88 -29.5 -124s-47.167 -63.833 -82.5 -83.5s-76.333 -29.5 -123 -29.5s-87.834 9.83301 -123.501 29.5s-63.334 47.167 -83.001 82.5s-29.5 76 -29.5 122
c0 40 5.66699 77 17 111s29 69.333 53 106l190 299h153l-196 -291c14 2 29.667 3 47 3c38 0 72.833 -9.33301 104.5 -28zM341.502 136.5c18.333 22.333 27.5 51.833 27.5 88.5s-9.16699 66.5 -27.5 89.5s-42.166 34.5 -71.499 34.5s-53 -11.5 -71 -34.5
s-27 -52.833 -27 -89.5s9 -66.167 27 -88.5s41.667 -33.5 71 -33.5s53.166 11.167 71.499 33.5z" />
    <glyph glyph-name="seven.lf" horiz-adv-x="490" 
d="M21 740h455l-223 -740h-143l194 627h-283v113z" />
    <glyph glyph-name="eight.lf" horiz-adv-x="556" 
d="M484.5 313.5c19.667 -31 29.501 -66.8311 29.501 -107.498c0 -42.667 -9.83301 -80.334 -29.5 -113.001s-47.334 -58 -83.001 -76s-76.834 -27 -123.501 -27s-87.834 9 -123.501 27s-63.334 43.167 -83.001 75.5s-29.5 69.5 -29.5 111.5
c0 41.333 9.83301 77.5 29.5 108.5s46.834 54.833 81.501 71.5c-30 16.667 -53 39 -69 67s-24 60 -24 96c0 40 9 75.333 27 106s43.5 54.5 76.5 71.5s71.167 25.5 114.5 25.5s81.5 -8.33301 114.5 -25s58.5 -40.334 76.5 -71.001s27 -66 27 -106
c0 -36 -8.16699 -68 -24.5 -96s-39.166 -50.333 -68.499 -67c34.667 -16.667 61.834 -40.5 81.501 -71.5zM218.501 609.502c-15 -18.333 -22.5 -42.166 -22.5 -71.499s7.5 -53 22.5 -71s34.833 -27 59.5 -27s44.5 9 59.5 27s22.5 41.667 22.5 71s-7.5 53.166 -22.5 71.499
s-34.833 27.5 -59.5 27.5s-44.5 -9.16699 -59.5 -27.5zM349.001 133.502c18 20.333 27 47.5 27 81.5c0 33.333 -9 60.166 -27 80.499s-41.667 30.5 -71 30.5s-53 -10.167 -71 -30.5s-27 -47.166 -27 -80.499c0 -34 9 -61.167 27 -81.5s41.667 -30.5 71 -30.5
s53 10.167 71 30.5z" />
    <glyph glyph-name="nine.lf" horiz-adv-x="534" 
d="M385.5 720.5c35.667 -19.667 63.332 -47.167 82.999 -82.5s29.5 -76 29.5 -122c0 -40 -5.66699 -77 -17 -111s-29 -69.333 -53 -106l-190 -299h-153l196 291c-14 -2 -29.667 -3 -47 -3c-38 0 -72.833 9.33301 -104.5 28s-56.667 45.167 -75 79.5s-27.5 73.5 -27.5 117.5
c0 46.667 9.83301 88 29.5 124s47.167 63.833 82.5 83.5s76.333 29.5 123 29.5s87.834 -9.83301 123.501 -29.5zM191.498 425.5c18.333 -23 42.166 -34.5 71.499 -34.5s53 11.5 71 34.5s27 52.833 27 89.5s-9 66.167 -27 88.5s-41.667 33.5 -71 33.5
s-53.166 -11.167 -71.499 -33.5s-27.5 -51.833 -27.5 -88.5s9.16699 -66.5 27.5 -89.5z" />
    <glyph glyph-name="zero.osf" horiz-adv-x="627" 
d="M168 31c-42 27.333 -74.5 65.833 -97.5 115.5s-34.5 107.167 -34.5 172.5s11.5 123 34.5 173s55.5 88.667 97.5 116s90.667 41 146 41c54.667 0 103 -13.667 145 -41s74.5 -66 97.5 -116s34.5 -107.667 34.5 -173s-11.5 -122.833 -34.5 -172.5
s-55.5 -88.167 -97.5 -115.5s-90.333 -41 -145 -41c-55.333 0 -104 13.667 -146 41zM385 130c20.667 18 36.834 43.333 48.501 76s17.5 70.334 17.5 113.001s-5.83301 80.5 -17.5 113.5s-27.834 58.5 -48.501 76.5s-44.334 27 -71.001 27c-41.333 0 -74.5 -20 -99.5 -60
s-37.5 -92.333 -37.5 -157c0 -42.667 5.66699 -80.334 17 -113.001s27.333 -58 48 -76s44.667 -27 72 -27c26.667 0 50.334 9 71.001 27z" />
    <glyph glyph-name="one.osf" horiz-adv-x="375" 
d="M169 0l1 460l-93 -72l-68 96l192 155h100v-639h-132z" />
    <glyph glyph-name="two.osf" horiz-adv-x="546" 
d="M42 84l235.999 225.002c23.333 22 42.833 44.167 58.5 66.5s23.5 46.166 23.5 71.499c0 26.667 -8 48.167 -24 64.5s-37 24.5 -63 24.5c-27.333 0 -49.5 -9.5 -66.5 -28.5s-25.5 -44.167 -25.5 -75.5l-132 13c0 40 9.16699 75.5 27.5 106.5s44.333 55 78 72
s72.5 25.5 116.5 25.5s82.5 -8.16699 115.5 -24.5s58.667 -39.333 77 -69s27.5 -63.834 27.5 -102.501c0 -34.667 -6.5 -66 -19.5 -94s-29.167 -52.833 -48.5 -74.5s-44.666 -46.5 -75.999 -74.5l-113 -101h266v-109h-458v84z" />
    <glyph glyph-name="three.osf" horiz-adv-x="528" 
d="M390.5 318c31 -18.667 55.001 -44.668 72.001 -78.001s25.5 -71.333 25.5 -114c0 -47.333 -10.333 -88.666 -31 -123.999s-50 -62.833 -88 -82.5s-82.667 -29.5 -134 -29.5c-42.667 0 -82.334 6.5 -119.001 19.5s-65.334 31.167 -86.001 54.5l51 98
c15.333 -18.667 35 -33.167 59 -43.5s50 -15.5 78 -15.5c41.333 0 74 11.167 98 33.5s36 51.833 36 88.5c0 36 -11.5 64.667 -34.5 86s-53.5 32 -91.5 32c-31.333 0 -59.666 -8 -84.999 -24l-36 68l189 244h-232v108h394v-85l-173 -208c40.667 0 76.5 -9.33301 107.5 -28z
" />
    <glyph glyph-name="four.osf" horiz-adv-x="586" 
d="M333 -110v110h-309v85l340 554h101v-530h91v-109h-91v-110h-132zM178 105h159l1 267z" />
    <glyph glyph-name="five.osf" horiz-adv-x="533" 
d="M108 -93.5c-34.667 11 -63.6689 27.167 -87.002 48.5l40 100c18.667 -17.333 40.834 -30.333 66.501 -39s53.167 -13 82.5 -13c44 0 79.333 12.333 106 37s40 57 40 97c0 34.667 -9.66699 62.667 -29 84s-44.666 32 -75.999 32c-18 0 -35 -2.5 -51 -7.5
s-29.667 -12.167 -41 -21.5l-88 12l46 403h346v-108h-234l-25 -177c20 8 45.333 12 76 12c40.667 0 77.167 -9.16699 109.5 -27.5s57.5 -44 75.5 -77s27 -71.167 27 -114.5c0 -50.667 -11.333 -95.5 -34 -134.5s-54.5 -69.167 -95.5 -90.5s-87.833 -32 -140.5 -32
c-41.333 0 -79.333 5.5 -114 16.5z" />
    <glyph glyph-name="six.osf" horiz-adv-x="527" 
d="M401 424c30.667 -18.667 54.499 -44.999 71.499 -78.999s25.5 -73.333 25.5 -118c0 -46.667 -9.5 -88 -28.5 -124s-46 -63.833 -81 -83.5s-75.5 -29.5 -121.5 -29.5s-86.5 9.83301 -121.5 29.5s-62 47.167 -81 82.5s-28.5 76 -28.5 122c0 35.333 5 68.666 15 99.999
s27.333 66.333 52 105l199 311h144l-195 -292c12.667 2.66699 27.334 4 44.001 4c40 0 75.333 -9.33301 106 -28zM336.999 136.501c18 22.333 27 51.833 27 88.5c0 37.333 -9 67.333 -27 90s-41.667 34 -71 34c-28.667 0 -52 -11.333 -70 -34s-27 -52.667 -27 -90
c0 -36.667 8.83301 -66.167 26.5 -88.5s41.167 -33.5 70.5 -33.5s53 11.167 71 33.5z" />
    <glyph glyph-name="seven.osf" horiz-adv-x="507" 
d="M28 639h456l-226 -749l-126 34l183 607h-287v108z" />
    <glyph glyph-name="eight.osf" horiz-adv-x="547" 
d="M476.5 313.5c19 -31 28.5 -66.832 28.5 -107.499c0 -42.667 -9.66699 -80.334 -29 -113.001s-46.5 -58 -81.5 -76s-75.167 -27 -120.5 -27c-46 0 -86.5 9 -121.5 27s-62.167 43.167 -81.5 75.5s-29 69.5 -29 111.5c0 41.333 9.5 77.5 28.5 108.5s45.833 55.167 80.5 72.5
c-28.667 16 -51 38 -67 66s-24 60 -24 96c0 40 9 75.333 27 106s43.167 54.5 75.5 71.5s69.5 25.5 111.5 25.5s79.167 -8.33301 111.5 -25s57.333 -40.334 75 -71.001s26.5 -66 26.5 -106c0 -35.333 -8 -67.166 -24 -95.499s-38.333 -50.833 -67 -67.5
c34.667 -16.667 61.5 -40.5 80.5 -71.5zM213.5 609.501c-15 -18.333 -22.5 -42.166 -22.5 -71.499s7.5 -53 22.5 -71s34.833 -27 59.5 -27s44.667 9 60 27s23 41.667 23 71s-7.66699 53.166 -23 71.499s-35.333 27.5 -60 27.5s-44.5 -9.16699 -59.5 -27.5zM344.5 133.501
c18.333 20.333 27.5 47.5 27.5 81.5c0 33.333 -9.16699 60.166 -27.5 80.499s-42.166 30.5 -71.499 30.5s-53 -10.167 -71 -30.5s-27 -47.166 -27 -80.499c0 -34 9 -61.167 27 -81.5s41.667 -30.5 71 -30.5s53.166 10.167 71.499 30.5z" />
    <glyph glyph-name="nine.osf" horiz-adv-x="522" 
d="M379.5 619.5c35 -19.667 62.001 -47.168 81.001 -82.501s28.5 -76.333 28.5 -123c0 -34.667 -5.16699 -67.834 -15.5 -99.501s-27.833 -66.5 -52.5 -104.5l-203 -320l-122 34l178 266c-12.667 -2.66699 -27.334 -4 -44.001 -4c-40 0 -75.333 9.5 -106 28.5
s-54.5 45.667 -71.5 80s-25.5 73.833 -25.5 118.5c0 46.667 9.66699 87.834 29 123.501s46.5 63.334 81.5 83.001s75.167 29.5 120.5 29.5c46 0 86.5 -9.83301 121.5 -29.5zM187.501 323.999c17.667 -22.667 41.167 -34 70.5 -34s52.833 11.333 70.5 34
s26.5 52.334 26.5 89.001s-8.83301 66.334 -26.5 89.001s-41.167 34 -70.5 34s-52.833 -11.333 -70.5 -34s-26.5 -52.334 -26.5 -89.001s8.83301 -66.334 26.5 -89.001z" />
    <glyph glyph-name="zero.tf" horiz-adv-x="553" 
d="M153.5 37.5c-35.667 31.667 -63.334 76.167 -83.001 133.5s-29.5 123.666 -29.5 198.999s9.83301 141.666 29.5 198.999s47.334 101.833 83.001 133.5s76.834 47.5 123.501 47.5s87.667 -15.833 123 -47.5s62.833 -76.167 82.5 -133.5s29.5 -123.666 29.5 -198.999
s-9.83301 -141.666 -29.5 -198.999s-47.167 -101.833 -82.5 -133.5s-76.333 -47.5 -123 -47.5s-87.834 15.833 -123.501 47.5zM346 176.5c17.333 49 26 113.5 26 193.5s-8.66699 144.5 -26 193.5s-40.333 73.5 -69 73.5s-51.667 -24.5 -69 -73.5s-26 -113.5 -26 -193.5
s8.66699 -144.5 26 -193.5s40.333 -73.5 69 -73.5s51.667 24.5 69 73.5z" />
    <glyph glyph-name="one.tf" horiz-adv-x="553" 
d="M388 113h122v-113h-442v113h184v445l-124 -98l-68 97l224 183h104v-627z" />
    <glyph glyph-name="two.tf" horiz-adv-x="553" 
d="M45 86l206 249c32.667 40 58.834 76.167 78.501 108.5s29.5 65.833 29.5 100.5c0 28 -7.66699 50.5 -23 67.5s-35.333 25.5 -60 25.5c-26.667 0 -48 -10.167 -64 -30.5s-24 -46.833 -24 -79.5l-136 11c0 42 9.16699 79 27.5 111s44.333 56.833 78 74.5
s72.5 26.5 116.5 26.5s82.667 -8.16699 116 -24.5s59.166 -39.5 77.499 -69.5s27.5 -64.667 27.5 -104c0 -48 -12.667 -94.167 -38 -138.5s-64 -96.5 -116 -156.5l-123 -146l285 2v-113h-458v86z" />
    <glyph glyph-name="three.tf" horiz-adv-x="553" 
d="M402.5 419c31.667 -18.667 56.1699 -44.6641 73.5029 -77.9971s26 -71.333 26 -114c0 -47.333 -10.5 -88.833 -31.5 -124.5s-50.833 -63.334 -89.5 -83.001s-84.334 -29.5 -137.001 -29.5c-42 0 -81.333 6.5 -118 19.5s-65.334 31.167 -86.001 54.5l51 97
c15.333 -18.667 35.166 -33 59.499 -43s50.5 -15 78.5 -15c41.333 0 74 11.167 98 33.5s36 52.166 36 89.499c0 35.333 -11.5 63.666 -34.5 84.999s-53.833 32 -92.5 32c-32 0 -60.333 -8 -85 -24l-37 69l184 239h-227v113h395v-85l-173 -208
c41.333 0 77.833 -9.33301 109.5 -28z" />
    <glyph glyph-name="four.tf" horiz-adv-x="553" 
d="M300 0v144h-287v95l317 501h106v-483h91v-113h-91v-144h-136zM162 254h142l2 236z" />
    <glyph glyph-name="five.tf" horiz-adv-x="553" 
d="M118 6.5c-34.667 11 -63.667 27.4961 -87 49.4961l40 99c18.667 -17.333 40.834 -30.333 66.501 -39s53.167 -13 82.5 -13c44 0 79.333 12.333 106 37s40 57.334 40 98.001c0 35.333 -9.5 63.5 -28.5 84.5s-44.5 31.5 -76.5 31.5c-18.667 0 -36.334 -2.66699 -53.001 -8
s-30.334 -12.666 -41.001 -21.999l-86 13l46 403h346v-113h-233l-22 -171c20 7.33301 44 11 72 11c42 0 79.333 -9.16699 112 -27.5s58.334 -44.166 77.001 -77.499s28 -71.666 28 -114.999c0 -50.667 -11.667 -95.5 -35 -134.5s-55.833 -69.167 -97.5 -90.5
s-89.167 -32 -142.5 -32c-41.333 0 -79.333 5.5 -114 16.5z" />
    <glyph glyph-name="six.tf" horiz-adv-x="553" 
d="M413 424c31.333 -18.667 56.335 -45.167 75.002 -79.5s28 -73.5 28 -117.5c0 -46.667 -9.83301 -88 -29.5 -124s-47.167 -63.833 -82.5 -83.5s-76.333 -29.5 -123 -29.5s-87.834 9.83301 -123.501 29.5s-63.334 47.167 -83.001 82.5s-29.5 76 -29.5 122
c0 40 5.66699 77 17 111s29 69.333 53 106l190 299h153l-197 -291c14 2 30 3 48 3c38 0 72.667 -9.33301 104 -28zM351.502 136.5c18.333 22.333 27.5 51.833 27.5 88.5s-9.16699 66.5 -27.5 89.5s-42.166 34.5 -71.499 34.5s-53 -11.333 -71 -34s-27 -52.667 -27 -90
c0 -36.667 9 -66.167 27 -88.5s41.667 -33.5 71 -33.5s53.166 11.167 71.499 33.5z" />
    <glyph glyph-name="seven.tf" horiz-adv-x="553" 
d="M52 740h455l-222 -740h-144l194 627h-283v113z" />
    <glyph glyph-name="eight.tf" horiz-adv-x="553" 
d="M483 313.5c19.333 -31 29.0029 -66.832 29.0029 -107.499c0 -42.667 -9.83301 -80.334 -29.5 -113.001s-47.167 -58 -82.5 -76s-76.333 -27 -123 -27s-87.834 9 -123.501 27s-63.334 43.167 -83.001 75.5s-29.5 69.5 -29.5 111.5c0 41.333 9.66699 77.5 29 108.5
s46.666 55.167 81.999 72.5c-30 16 -53 38 -69 66s-24 60 -24 96c0 40 9 75.333 27 106s43.5 54.5 76.5 71.5s71.167 25.5 114.5 25.5c42.667 0 80.5 -8.33301 113.5 -25s58.5 -40.334 76.5 -71.001s27 -66 27 -106c0 -35.333 -8.16699 -67.166 -24.5 -95.499
s-39.166 -50.833 -68.499 -67.5c35.333 -16.667 62.666 -40.5 81.999 -71.5zM216.503 609.501c-15 -18.333 -22.5 -42.166 -22.5 -71.499s7.5 -53 22.5 -71s34.833 -27 59.5 -27s44.5 9 59.5 27s22.5 41.667 22.5 71s-7.5 53.166 -22.5 71.499s-34.833 27.5 -59.5 27.5
s-44.5 -9.16699 -59.5 -27.5zM347.003 133.501c18 20.333 27 47.5 27 81.5c0 33.333 -9 60.166 -27 80.499s-41.667 30.5 -71 30.5s-53 -10.167 -71 -30.5s-27 -47.166 -27 -80.499c0 -34 9 -61.167 27 -81.5s41.667 -30.5 71 -30.5s53 10.167 71 30.5z" />
    <glyph glyph-name="nine.tf" horiz-adv-x="553" 
d="M395.5 720.5c35.667 -19.667 63.332 -47.167 82.999 -82.5s29.5 -76 29.5 -122c0 -40 -5.66699 -77 -17 -111s-29 -69.333 -53 -106l-190 -299h-153l196 291c-14 -2 -29.667 -3 -47 -3c-38 0 -72.833 9.33301 -104.5 28s-56.667 45.167 -75 79.5s-27.5 73.5 -27.5 117.5
c0 46.667 9.83301 88 29.5 124s47.167 63.833 82.5 83.5s76.333 29.5 123 29.5s87.834 -9.83301 123.501 -29.5zM201.498 425.5c18.333 -23 42.166 -34.5 71.499 -34.5s53 11.5 71 34.5s27 52.833 27 89.5s-9 66.167 -27 88.5s-41.667 33.5 -71 33.5
s-53.166 -11.167 -71.499 -33.5s-27.5 -51.833 -27.5 -88.5s9.16699 -66.5 27.5 -89.5z" />
    <glyph glyph-name="zero.tosf" horiz-adv-x="553" 
d="M153.5 31c-35.667 27.333 -63.334 66 -83.001 116s-29.5 107.333 -29.5 172c0 65.333 9.83301 123 29.5 173s47.334 88.667 83.001 116s76.834 41 123.501 41s87.667 -13.667 123 -41s62.833 -66 82.5 -116s29.5 -107.667 29.5 -173s-9.83301 -122.833 -29.5 -172.5
s-47.167 -88.167 -82.5 -115.5s-76.333 -41 -123 -41s-87.834 13.667 -123.501 41zM346 162.5c17.333 39.667 26 91.834 26 156.501c0 65.333 -8.66699 117.833 -26 157.5s-40.333 59.5 -69 59.5s-51.834 -20 -69.501 -60s-26.5 -92.333 -26.5 -157
s8.83301 -116.834 26.5 -156.501s40.834 -59.5 69.501 -59.5s51.667 19.833 69 59.5z" />
    <glyph glyph-name="one.tosf" horiz-adv-x="553" 
d="M364 109h144v-109h-441v109h166l1 351l-93 -72l-68 96l191 155h100v-530z" />
    <glyph glyph-name="two.tosf" horiz-adv-x="553" 
d="M46 84l235.998 225.001c22.667 21.333 41.834 43.333 57.501 66s23.5 46.667 23.5 72c0 26.667 -7.83301 48.167 -23.5 64.5s-36.5 24.5 -62.5 24.5c-28 0 -50.333 -9.5 -67 -28.5s-25 -44.167 -25 -75.5l-132 13c0 40 9.16699 75.5 27.5 106.5s44.333 55 78 72
s72.5 25.5 116.5 25.5s82.5 -8.16699 115.5 -24.5s58.667 -39.333 77 -69s27.5 -63.834 27.5 -102.501c0 -34.667 -6.5 -66 -19.5 -94s-29.167 -52.833 -48.5 -74.5s-44.666 -46.5 -75.999 -74.5l-113 -101h265v-109h-457v84z" />
    <glyph glyph-name="three.tosf" horiz-adv-x="553" 
d="M402.5 318c31 -18.667 55.001 -44.668 72.001 -78.001s25.5 -71.333 25.5 -114c0 -47.333 -10.167 -88.666 -30.5 -123.999s-49.5 -62.833 -87.5 -82.5s-82.667 -29.5 -134 -29.5c-42.667 0 -82.334 6.5 -119.001 19.5s-65.334 31.167 -86.001 54.5l50 98
c15.333 -18.667 35 -33.167 59 -43.5s50 -15.5 78 -15.5c41.333 0 74 11.167 98 33.5s36 51.833 36 88.5c0 36 -11.5 64.667 -34.5 86s-53.167 32 -90.5 32c-31.333 0 -59.666 -8 -84.999 -24l-37 68l189 244h-232v108h395v-85l-174 -208c40.667 0 76.5 -9.33301 107.5 -28z
" />
    <glyph glyph-name="four.tosf" horiz-adv-x="553" 
d="M308 -110v110h-292v85l323 554h101v-530h91v-109h-91v-110h-132zM157 105h155l2 269z" />
    <glyph glyph-name="five.tosf" horiz-adv-x="553" 
d="M118 -93.5c-34.667 11 -63.6689 27.167 -87.002 48.5l41 100c18.667 -17.333 40.834 -30.333 66.501 -39s52.834 -13 81.501 -13c44 0 79.5 12.333 106.5 37s40.5 57 40.5 97c0 35.333 -9.66699 63.5 -29 84.5s-45 31.5 -77 31.5c-18 0 -35 -2.5 -51 -7.5
s-29.667 -12.167 -41 -21.5l-87 12l45 403h346v-108h-233l-25 -177c20 8 45 12 75 12c41.333 0 78 -9.16699 110 -27.5s57.167 -44 75.5 -77s27.5 -71.167 27.5 -114.5c0 -50.667 -11.333 -95.5 -34 -134.5s-54.5 -69.167 -95.5 -90.5s-87.833 -32 -140.5 -32
c-42 0 -80.333 5.5 -115 16.5z" />
    <glyph glyph-name="six.tosf" horiz-adv-x="553" 
d="M414 424c30.667 -18.667 54.5 -44.999 71.5 -78.999s25.5 -73.333 25.5 -118c0 -46.667 -9.5 -88 -28.5 -124s-46 -63.833 -81 -83.5s-75.5 -29.5 -121.5 -29.5s-86.5 9.83301 -121.5 29.5s-62 47.167 -81 82.5s-28.5 76 -28.5 122c0 35.333 5 68.666 15 99.999
s27.333 66.333 52 105l200 311h143l-195 -291c14 2 28.667 3 44 3c40 0 75.333 -9.33301 106 -28zM350 136.501c18 22.333 27 51.833 27 88.5c0 37.333 -9 67.333 -27 90s-41.667 34 -71 34c-28.667 0 -52 -11.333 -70 -34s-27 -52.667 -27 -90
c0 -36.667 8.83301 -66.167 26.5 -88.5s41.167 -33.5 70.5 -33.5s53 11.167 71 33.5z" />
    <glyph glyph-name="seven.tosf" horiz-adv-x="553" 
d="M51 639h456l-226 -749l-127 34l181 607h-284v108z" />
    <glyph glyph-name="eight.tosf" horiz-adv-x="553" 
d="M478.5 313.5c19 -31 28.501 -66.8311 28.501 -107.498c0 -42.667 -9.5 -80.334 -28.5 -113.001s-46 -58 -81 -76s-75.167 -27 -120.5 -27c-46 0 -86.5 9 -121.5 27s-62.167 43.167 -81.5 75.5s-29 69.5 -29 111.5c0 41.333 9.5 77.5 28.5 108.5s45.833 55.167 80.5 72.5
c-28.667 16 -51 38 -67 66s-24 60 -24 96c0 40 9 75.333 27 106s43.167 54.5 75.5 71.5s69.5 25.5 111.5 25.5s79 -8.33301 111 -25s56.833 -40.334 74.5 -71.001s26.5 -66 26.5 -106c0 -36 -7.83301 -68 -23.5 -96s-37.834 -50.333 -66.501 -67
c34 -16.667 60.5 -40.5 79.5 -71.5zM216.501 609.502c-15 -18.333 -22.5 -42.166 -22.5 -71.499s7.5 -53 22.5 -71s34.833 -27 59.5 -27s44.5 9 59.5 27s22.5 41.667 22.5 71s-7.5 53.166 -22.5 71.499s-34.833 27.5 -59.5 27.5s-44.5 -9.16699 -59.5 -27.5z
M347.001 133.502c18 20.333 27 47.5 27 81.5c0 33.333 -9 60.166 -27 80.499s-41.667 30.5 -71 30.5s-53 -10.167 -71 -30.5s-27 -47.166 -27 -80.499c0 -34 9 -61.167 27 -81.5s41.667 -30.5 71 -30.5s53 10.167 71 30.5z" />
    <glyph glyph-name="nine.tosf" horiz-adv-x="553" 
d="M395.5 619.5c35 -19.667 62.001 -47.168 81.001 -82.501s28.5 -76.333 28.5 -123c0 -34.667 -5.16699 -67.834 -15.5 -99.501s-27.833 -66.5 -52.5 -104.5l-203 -320l-122 34l178 266c-12.667 -2.66699 -27.334 -4 -44.001 -4c-40 0 -75.333 9.5 -106 28.5
s-54.5 45.667 -71.5 80s-25.5 73.833 -25.5 118.5c0 46.667 9.66699 87.834 29 123.501s46.5 63.334 81.5 83.001s75.167 29.5 120.5 29.5c46 0 86.5 -9.83301 121.5 -29.5zM203.501 323.999c17.667 -22.667 41.167 -34 70.5 -34s52.833 11.333 70.5 34
s26.5 52.334 26.5 89.001s-8.83301 66.334 -26.5 89.001s-41.167 34 -70.5 34s-52.833 -11.333 -70.5 -34s-26.5 -52.334 -26.5 -89.001s8.83301 -66.334 26.5 -89.001z" />
    <glyph glyph-name="zero.dnom" horiz-adv-x="358" 
d="M67.5 56.5c-28.333 41.667 -42.5 96.8301 -42.5 165.497s14.167 123.834 42.5 165.501s65.833 62.5 112.5 62.5c30 0 56.667 -9.5 80 -28.5s41.333 -45.667 54 -80s19 -74.166 19 -119.499s-6.33301 -85.166 -19 -119.499s-30.667 -61 -54 -80s-50 -28.5 -80 -28.5
c-46.667 0 -84.167 20.833 -112.5 62.5zM229.5 107.496c12.333 29 18.5 67.167 18.5 114.5s-6.16699 85.5 -18.5 114.5s-28.833 43.5 -49.5 43.5s-37.334 -14.5 -50.001 -43.5s-19 -67.167 -19 -114.5c0 -46.667 6.33301 -84.667 19 -114s29.334 -44 50.001 -44
s37.167 14.5 49.5 43.5z" />
    <glyph glyph-name="one.dnom" horiz-adv-x="252" 
d="M119 0v332l-73 -58l-42 60l134 110h65v-444h-84z" />
    </font>
</defs>
</svg>
