<svg width="22" height="22" viewBox="0 0 22 22" fill="none" xmlns="http://www.w3.org/2000/svg">
<path fill-rule="evenodd" clip-rule="evenodd" d="M10.3694 0.953369C10.0869 0.953684 9.81289 1.04992 9.59226 1.22632C9.37163 1.40272 9.21745 1.64882 9.15497 1.9243L8.8059 3.4643C8.24857 3.62564 7.72057 3.84857 7.2219 4.12137L5.88724 3.2795C5.64796 3.12847 5.36443 3.06333 5.08323 3.09478C4.80203 3.12623 4.5399 3.25241 4.3399 3.45257L3.4511 4.34137C3.25129 4.54126 3.12534 4.80312 3.0939 5.084C3.06245 5.36488 3.12738 5.6481 3.27804 5.88724L4.1199 7.22484C3.8471 7.72057 3.62564 8.2515 3.4643 8.80737L1.9243 9.15644C1.64857 9.21897 1.40229 9.37337 1.22587 9.5943C1.04944 9.81523 0.953352 10.0896 0.953369 10.3723V11.6292C0.953352 11.912 1.04944 12.1863 1.22587 12.4072C1.40229 12.6282 1.64857 12.7826 1.9243 12.8451L3.4643 13.1942C3.62564 13.75 3.8471 14.2795 4.12137 14.7782L3.27804 16.1128C3.127 16.3521 3.06186 16.6356 3.09331 16.9168C3.12477 17.198 3.25094 17.4602 3.4511 17.6602L4.34137 18.549C4.54126 18.7488 4.80312 18.8747 5.084 18.9062C5.36488 18.9376 5.6481 18.8727 5.88724 18.722L7.22337 17.8802C7.72057 18.153 8.25004 18.3744 8.8059 18.5358L9.15497 20.0758C9.2175 20.3515 9.3719 20.5978 9.59283 20.7742C9.81377 20.9506 10.0881 21.0467 10.3708 21.0467H11.6278C11.9105 21.0467 12.1848 20.9506 12.4058 20.7742C12.6267 20.5978 12.7811 20.3515 12.8436 20.0758L13.1927 18.5358C13.75 18.3744 14.278 18.1544 14.7767 17.8802L16.1128 18.722C16.352 18.8727 16.6352 18.9376 16.9161 18.9062C17.197 18.8747 17.4588 18.7488 17.6587 18.549L18.5475 17.6602C18.7473 17.4603 18.8733 17.1984 18.9047 16.9175C18.9362 16.6367 18.8712 16.3534 18.7206 16.1143L17.8787 14.7782C18.153 14.2795 18.3744 13.7515 18.5358 13.1942L20.0758 12.8451C20.3515 12.7826 20.5978 12.6282 20.7742 12.4072C20.9506 12.1863 21.0467 11.912 21.0467 11.6292V10.3723C21.0471 10.0893 20.9511 9.81464 20.7747 9.59341C20.5982 9.37218 20.3517 9.21756 20.0758 9.15497L18.5358 8.80737C18.3744 8.25004 18.1544 7.72204 17.8802 7.22337L18.722 5.8887C18.8731 5.64943 18.9382 5.3659 18.9068 5.0847C18.8753 4.8035 18.7491 4.54136 18.549 4.34137L17.6602 3.45257C17.4602 3.25241 17.198 3.12623 16.9168 3.09478C16.6356 3.06333 16.3521 3.12847 16.1128 3.2795L14.7782 4.12137C14.2759 3.84485 13.7447 3.62449 13.1942 3.4643L12.8436 1.9243C12.7811 1.64857 12.6267 1.40229 12.4058 1.22587C12.1848 1.04944 11.9105 0.953352 11.6278 0.953369H10.3708H10.3694ZM7.21604 5.59244C8.00297 5.03979 8.90171 4.66678 9.8487 4.49977L10.3708 2.20004H11.6278L12.1499 4.49977C13.1164 4.6699 14.0096 5.04977 14.7826 5.59097L16.7772 4.33404L17.6675 5.22284L16.4091 7.2175C16.9518 7.99044 17.3302 8.88364 17.5003 9.85017L19.8 10.3723V11.6292L17.5003 12.1499C17.334 13.0973 16.9615 13.9966 16.4091 14.784L17.666 16.7787L16.7772 17.6675L14.7826 16.4106C13.9954 16.9622 13.0967 17.3342 12.1499 17.5003L11.6278 19.8H10.3708L9.8487 17.5003C8.90233 17.3336 8.00411 16.9611 7.2175 16.4091L5.22284 17.6675L4.33257 16.7787L5.59097 14.784C5.03865 13.9965 4.66613 13.0973 4.49977 12.1499L2.20004 11.6307V10.3738L4.49977 9.85164C4.66654 8.90528 5.03905 8.00707 5.59097 7.22044L4.33257 5.22137L5.22137 4.33257L7.21604 5.59097V5.59244ZM13.2382 11C13.2382 11.5932 13.0025 12.1621 12.5831 12.5816C12.1636 13.0011 11.5947 13.2367 11.0015 13.2367C10.4083 13.2367 9.8394 13.0011 9.41994 12.5816C9.00048 12.1621 8.76484 11.5932 8.76484 11C8.76484 10.4068 9.00048 9.83793 9.41994 9.41847C9.8394 8.99902 10.4083 8.76337 11.0015 8.76337C11.5947 8.76337 12.1636 8.99902 12.5831 9.41847C13.0025 9.83793 13.2382 10.4068 13.2382 11V11ZM14.5582 11C14.5582 11.9433 14.1835 12.848 13.5164 13.515C12.8494 14.182 11.9448 14.5567 11.0015 14.5567C10.0582 14.5567 9.15356 14.182 8.48656 13.515C7.81955 12.848 7.44484 11.9433 7.44484 11C7.44484 10.0567 7.81955 9.1521 8.48656 8.48509C9.15356 7.81809 10.0582 7.44337 11.0015 7.44337C11.9448 7.44337 12.8494 7.81809 13.5164 8.48509C14.1835 9.1521 14.5582 10.0567 14.5582 11V11Z" fill="#E6224A"/>
</svg>
