<svg width="16" height="18" viewBox="0 0 16 18" fill="none" xmlns="http://www.w3.org/2000/svg">
<path d="M14.5781 3.61582C14.5781 3.61582 12.6896 3.74884 11.5781 3.36582C10.1936 2.88871 8.57812 1.11582 8.57812 1.11582C8.39536 1.04 8.19943 1.00098 8.00156 1.00098C7.80369 1.00098 7.60777 1.04 7.425 1.11582C7.425 1.11582 5.59657 2.87767 4.425 3.36582C3.25343 3.85398 1.425 3.61582 1.425 3.61582C0.865625 3.84707 0.5 4.39395 0.5 5.0002C0.5 11.2033 4.07812 15.4908 7.42188 16.8846C7.79063 17.0377 8.20625 17.0377 8.575 16.8846C11.2531 15.7689 15.5 11.9158 15.5 5.0002C15.5 4.39395 15.1344 3.84707 14.5781 3.61582ZM8.19375 15.9627C8.06875 16.0127 7.93125 16.0127 7.80937 15.9627C4.75 14.7502 1.5 10.5002 1.5 5.0002C1.5 4.79707 1.62187 4.61582 1.80625 4.5377C1.80625 4.5377 3.63468 4.77585 4.80625 4.2877C5.97782 3.79954 7.80625 2.0377 7.80625 2.0377C7.92812 1.9877 8.06875 1.9877 8.19063 2.0377C8.19063 2.0377 9.80606 3.81058 11.1906 4.2877C12.3021 4.67071 14.1906 4.5377 14.1906 4.5377C14.3781 4.61582 14.5 4.79707 14.4969 5.0002C14.5 10.5002 11.25 14.7502 8.19375 15.9627Z" fill="#E6224A" stroke="#E6224A" stroke-width="0.5"/>
<path d="M10.7533 7.06688C10.6562 6.97802 10.4992 6.97802 10.4021 7.06499L7.02574 10.1296L5.6 8.81567C5.50289 8.72681 5.34585 8.72681 5.24873 8.81378L5.0731 8.97448C4.97598 9.06333 4.97598 9.20702 5.07103 9.29588L6.84598 10.9331C6.94309 11.022 7.10013 11.022 7.19725 10.935L10.9269 7.55087C11.024 7.46201 11.024 7.31833 10.929 7.22947L10.7533 7.06688Z" fill="#E6224A" stroke="#E6224A" stroke-width="0.8"/>
</svg>
