<svg width="18" height="20" viewBox="0 0 18 20" fill="none" xmlns="http://www.w3.org/2000/svg">
<path d="M9.46846 7.28154C9.34422 7.1573 9.17571 7.0875 9 7.0875C8.82429 7.0875 8.65578 7.1573 8.53154 7.28154C8.4073 7.40578 8.3375 7.57429 8.3375 7.75V9.3375H6.75C6.57429 9.3375 6.40578 9.4073 6.28154 9.53154C6.1573 9.65578 6.0875 9.82429 6.0875 10C6.0875 10.1757 6.1573 10.3442 6.28154 10.4685C6.40578 10.5927 6.57429 10.6625 6.75 10.6625H8.3375V12.25C8.3375 12.4257 8.4073 12.5942 8.53154 12.7185C8.65578 12.8427 8.82429 12.9125 9 12.9125C9.17571 12.9125 9.34422 12.8427 9.46846 12.7185C9.5927 12.5942 9.6625 12.4257 9.6625 12.25V10.6625H11.25C11.4257 10.6625 11.5942 10.5927 11.7185 10.4685C11.8427 10.3442 11.9125 10.1757 11.9125 10C11.9125 9.82429 11.8427 9.65578 11.7185 9.53154C11.5942 9.4073 11.4257 9.3375 11.25 9.3375H9.6625V7.75C9.6625 7.57429 9.5927 7.40578 9.46846 7.28154Z" fill="#0078ad " stroke="#0078ad " stroke-width="0.2"/>
<path d="M3.375 1H14.625C15.2217 1 15.794 1.23705 16.216 1.65901C16.6379 2.08097 16.875 2.65326 16.875 3.25V16.75C16.875 17.3467 16.6379 17.919 16.216 18.341C15.794 18.7629 15.2217 19 14.625 19H3.375C2.77826 19 2.20597 18.7629 1.78401 18.341C1.36205 17.919 1.125 17.3467 1.125 16.75V15.625H2.25V16.75C2.25 17.0484 2.36853 17.3345 2.5795 17.5455C2.79048 17.7565 3.07663 17.875 3.375 17.875H14.625C14.9234 17.875 15.2095 17.7565 15.4205 17.5455C15.6315 17.3345 15.75 17.0484 15.75 16.75V3.25C15.75 2.95163 15.6315 2.66548 15.4205 2.4545C15.2095 2.24353 14.9234 2.125 14.625 2.125H3.375C3.07663 2.125 2.79048 2.24353 2.5795 2.4545C2.36853 2.66548 2.25 2.95163 2.25 3.25V4.375H1.125V3.25C1.125 2.65326 1.36205 2.08097 1.78401 1.65901C2.20597 1.23705 2.77826 1 3.375 1V1Z" fill="#0078ad " stroke="#0078ad " stroke-width="0.4"/>
<path d="M1.125 6.625V6.0625C1.125 5.91332 1.18426 5.77024 1.28975 5.66475C1.39524 5.55926 1.53832 5.5 1.6875 5.5C1.83668 5.5 1.97976 5.55926 2.08525 5.66475C2.19074 5.77024 2.25 5.91332 2.25 6.0625V6.625H2.8125C2.96168 6.625 3.10476 6.68426 3.21025 6.78975C3.31574 6.89524 3.375 7.03832 3.375 7.1875C3.375 7.33668 3.31574 7.47976 3.21025 7.58525C3.10476 7.69074 2.96168 7.75 2.8125 7.75H0.5625C0.413316 7.75 0.270242 7.69074 0.164752 7.58525C0.0592632 7.47976 0 7.33668 0 7.1875C0 7.03832 0.0592632 6.89524 0.164752 6.78975C0.270242 6.68426 0.413316 6.625 0.5625 6.625H1.125ZM1.125 10V9.4375C1.125 9.28832 1.18426 9.14524 1.28975 9.03975C1.39524 8.93426 1.53832 8.875 1.6875 8.875C1.83668 8.875 1.97976 8.93426 2.08525 9.03975C2.19074 9.14524 2.25 9.28832 2.25 9.4375V10H2.8125C2.96168 10 3.10476 10.0593 3.21025 10.1648C3.31574 10.2702 3.375 10.4133 3.375 10.5625C3.375 10.7117 3.31574 10.8548 3.21025 10.9602C3.10476 11.0657 2.96168 11.125 2.8125 11.125H0.5625C0.413316 11.125 0.270242 11.0657 0.164752 10.9602C0.0592632 10.8548 0 10.7117 0 10.5625C0 10.4133 0.0592632 10.2702 0.164752 10.1648C0.270242 10.0593 0.413316 10 0.5625 10H1.125ZM1.125 13.375V12.8125C1.125 12.6633 1.18426 12.5202 1.28975 12.4148C1.39524 12.3093 1.53832 12.25 1.6875 12.25C1.83668 12.25 1.97976 12.3093 2.08525 12.4148C2.19074 12.5202 2.25 12.6633 2.25 12.8125V13.375H2.8125C2.96168 13.375 3.10476 13.4343 3.21025 13.5398C3.31574 13.6452 3.375 13.7883 3.375 13.9375C3.375 14.0867 3.31574 14.2298 3.21025 14.3352C3.10476 14.4407 2.96168 14.5 2.8125 14.5H0.5625C0.413316 14.5 0.270242 14.4407 0.164752 14.3352C0.0592632 14.2298 0 14.0867 0 13.9375C0 13.7883 0.0592632 13.6452 0.164752 13.5398C0.270242 13.4343 0.413316 13.375 0.5625 13.375H1.125Z" fill="#0078ad "/>
</svg>
