<svg width="18" height="16" viewBox="0 0 18 16" fill="none" xmlns="http://www.w3.org/2000/svg">
<path d="M8.625 15.8749C9.86764 15.8749 10.875 14.8676 10.875 13.6249C10.875 13.4069 10.6852 13.2481 10.4672 13.2457L6.83332 13.2044C6.59128 13.2017 6.37602 13.3733 6.37502 13.6154L6.375 13.6249C6.375 14.8676 7.38236 15.8749 8.625 15.8749Z" fill="#747274"/>
<path d="M3.375 5.75C3.375 2.85051 5.7255 0.125 8.625 0.125C11.5245 0.125 13.875 2.85051 13.875 5.75V7.59551C13.875 8.56837 14.291 9.4948 15.0182 10.1411C15.7984 10.8347 15.3078 12.125 14.2639 12.125H2.9861C1.94216 12.125 1.45159 10.8347 2.23184 10.1411C2.95897 9.4948 3.375 8.56837 3.375 7.59551V5.75Z" fill="#747274"/>
</svg>
