<svg width="20" height="20" viewBox="0 0 20 20" fill="none" xmlns="http://www.w3.org/2000/svg">
<path d="M10.0004 6.34814C9.52083 6.34814 9.04597 6.4426 8.60292 6.62612C8.15987 6.80964 7.7573 7.07862 7.41821 7.41772C7.07911 7.75681 6.81012 8.15938 6.62661 8.60243C6.44309 9.04548 6.34863 9.52034 6.34863 9.99989C6.34863 10.4794 6.44309 10.9543 6.62661 11.3974C6.81012 11.8404 7.07911 12.243 7.41821 12.5821C7.7573 12.9212 8.15987 13.1902 8.60292 13.3737C9.04597 13.5572 9.52083 13.6516 10.0004 13.6516C10.9689 13.6516 11.8977 13.2669 12.5826 12.5821C13.2674 11.8972 13.6521 10.9684 13.6521 9.99989C13.6521 9.03139 13.2674 8.10255 12.5826 7.41772C11.8977 6.73288 10.9689 6.34814 10.0004 6.34814ZM7.47363 9.99989C7.47363 9.32976 7.73984 8.68707 8.2137 8.21321C8.68756 7.73935 9.33025 7.47314 10.0004 7.47314C10.6705 7.47314 11.3132 7.73935 11.7871 8.21321C12.2609 8.68707 12.5271 9.32976 12.5271 9.99989C12.5271 10.67 12.2609 11.3127 11.7871 11.7866C11.3132 12.2604 10.6705 12.5266 10.0004 12.5266C9.33025 12.5266 8.68756 12.2604 8.2137 11.7866C7.73984 11.3127 7.47363 10.67 7.47363 9.99989Z" fill="#E6224A" stroke="#E6224A" stroke-width="0.4"/>
<path d="M12.0209 2.5108C11.428 0.497051 8.57279 0.497051 7.97991 2.5108L7.87416 2.86968C7.83276 3.01025 7.76042 3.13977 7.66246 3.24875C7.56449 3.35774 7.44338 3.44342 7.308 3.49951C7.17262 3.5556 7.0264 3.58069 6.88006 3.57293C6.73373 3.56518 6.59098 3.52477 6.46229 3.45468L6.13379 3.27468C4.28879 2.27118 2.27166 4.28943 3.27629 6.1333L3.45516 6.4618C3.52526 6.59049 3.56566 6.73324 3.57342 6.87957C3.58118 7.02591 3.55609 7.17213 3.5 7.30751C3.4439 7.44289 3.35822 7.564 3.24924 7.66197C3.14026 7.75994 3.01074 7.83227 2.87016 7.87368L2.51129 7.97943C0.497539 8.5723 0.497539 11.4276 2.51129 12.0204L2.87016 12.1262C3.01074 12.1676 3.14026 12.2399 3.24924 12.3379C3.35822 12.4358 3.4439 12.557 3.5 12.6923C3.55609 12.8277 3.58118 12.9739 3.57342 13.1203C3.56566 13.2666 3.52526 13.4094 3.45516 13.5381L3.27516 13.8666C2.27166 15.7116 4.28879 17.7298 6.13379 16.7241L6.46229 16.5452C6.59098 16.4751 6.73373 16.4347 6.88006 16.4269C7.0264 16.4192 7.17262 16.4442 7.308 16.5003C7.44338 16.5564 7.56449 16.6421 7.66246 16.7511C7.76042 16.8601 7.83276 16.9896 7.87416 17.1302L7.97991 17.489C8.57279 19.5028 11.428 19.5028 12.0209 17.489L12.1267 17.1302C12.1681 16.9896 12.2404 16.8601 12.3384 16.7511C12.4363 16.6421 12.5574 16.5564 12.6928 16.5003C12.8282 16.4442 12.9744 16.4192 13.1208 16.4269C13.2671 16.4347 13.4098 16.4751 13.5385 16.5452L13.867 16.7252C15.712 17.7298 17.7303 15.7104 16.7245 13.8666L16.5457 13.5381C16.4756 13.4094 16.4352 13.2666 16.4274 13.1203C16.4196 12.9739 16.4447 12.8277 16.5008 12.6923C16.5569 12.557 16.6426 12.4358 16.7516 12.3379C16.8606 12.2399 16.9901 12.1676 17.1307 12.1262L17.4895 12.0204C19.5033 11.4276 19.5033 8.5723 17.4895 7.97943L17.1307 7.87368C16.9901 7.83227 16.8606 7.75994 16.7516 7.66197C16.6426 7.564 16.5569 7.44289 16.5008 7.30751C16.4447 7.17213 16.4196 7.02591 16.4274 6.87957C16.4352 6.73324 16.4756 6.59049 16.5457 6.4618L16.7257 6.1333C17.7303 4.2883 15.7109 2.27118 13.867 3.2758L13.5385 3.45468C13.4098 3.52477 13.2671 3.56518 13.1208 3.57293C12.9744 3.58069 12.8282 3.5556 12.6928 3.49951C12.5574 3.44342 12.4363 3.35774 12.3384 3.24875C12.2404 3.13977 12.1681 3.01025 12.1267 2.86968L12.0209 2.5108ZM9.05879 2.82918C9.33554 1.8898 10.6653 1.8898 10.942 2.82918L11.0478 3.18805C11.1367 3.48965 11.292 3.76752 11.5022 4.00131C11.7125 4.2351 11.9724 4.41887 12.2629 4.53915C12.5534 4.65943 12.8671 4.71318 13.1811 4.69644C13.4951 4.6797 13.8013 4.59291 14.0774 4.44243L14.4048 4.26243C15.2643 3.79555 16.2048 4.73493 15.7368 5.59555L15.5579 5.92405C15.4077 6.20016 15.3211 6.50638 15.3045 6.82029C15.288 7.13419 15.3419 7.44783 15.4622 7.73821C15.5826 8.02859 15.7664 8.28835 16.0002 8.49847C16.234 8.70859 16.5119 8.86374 16.8134 8.95255L17.1712 9.0583C18.1105 9.33505 18.1105 10.6648 17.1712 10.9416L16.8123 11.0473C16.5107 11.1362 16.2328 11.2915 15.999 11.5017C15.7652 11.712 15.5815 11.9719 15.4612 12.2624C15.3409 12.5529 15.2872 12.8666 15.3039 13.1806C15.3206 13.4946 15.4074 13.8009 15.5579 14.0769L15.7379 14.4043C16.2048 15.2638 15.2654 16.2043 14.4048 15.7363L14.0774 15.5574C13.8013 15.407 13.4949 15.3202 13.1809 15.3035C12.8669 15.2869 12.5531 15.3407 12.2625 15.4611C11.972 15.5815 11.7121 15.7654 11.5019 15.9993C11.2917 16.2332 11.1366 16.5112 11.0478 16.8129L10.942 17.1707C10.6653 18.1101 9.33554 18.1101 9.05879 17.1707L8.95304 16.8118C8.8641 16.5104 8.70886 16.2326 8.49869 15.999C8.28851 15.7653 8.02873 15.5816 7.73836 15.4613C7.448 15.3411 7.13441 15.2873 6.82057 15.3039C6.50672 15.3205 6.20057 15.4072 5.92454 15.5574L5.59604 15.7374C4.73654 16.2043 3.79604 15.2649 4.26404 14.4043L4.44291 14.0769C4.59361 13.8008 4.68057 13.4945 4.69742 13.1803C4.71427 12.8662 4.66057 12.5523 4.54028 12.2617C4.41998 11.971 4.23613 11.711 4.00223 11.5007C3.76832 11.2903 3.49029 11.135 3.18854 11.0462L2.82966 10.9404C1.89029 10.6637 1.89029 9.33393 2.82966 9.05718L3.18854 8.95143C3.48982 8.86245 3.7674 8.70723 4.00095 8.49714C4.2345 8.28704 4.41812 8.02738 4.53837 7.73716C4.65862 7.44694 4.71246 7.13351 4.69594 6.8198C4.67943 6.50609 4.59298 6.20004 4.44291 5.92405L4.26291 5.59555C3.79604 4.73605 4.73541 3.79555 5.59604 4.26355L5.92454 4.44243C6.20057 4.5927 6.50672 4.67932 6.82057 4.69595C7.13441 4.71257 7.448 4.65879 7.73836 4.53852C8.02873 4.41825 8.28851 4.23456 8.49869 4.00089C8.70886 3.76722 8.8641 3.48949 8.95304 3.18805L9.05879 2.82918Z" fill="#E6224A" stroke="#E6224A" stroke-width="0.4"/>
</svg>
