<svg width="20" height="16" viewBox="0 0 20 16" fill="none" xmlns="http://www.w3.org/2000/svg">
<path d="M10.2499 8.18342C10.6946 7.79853 11.0512 7.32249 11.2956 6.7876C11.5401 6.25272 11.6666 5.67151 11.6666 5.08342C11.6666 3.97835 11.2276 2.91854 10.4462 2.13714C9.66479 1.35574 8.60499 0.916748 7.49992 0.916748C6.39485 0.916748 5.33504 1.35574 4.55364 2.13714C3.77224 2.91854 3.33325 3.97835 3.33325 5.08342C3.33325 5.67151 3.45975 6.25272 3.70419 6.7876C3.94863 7.32249 4.30527 7.79853 4.74992 8.18342C3.58337 8.71165 2.59364 9.56469 1.89907 10.6405C1.2045 11.7164 0.834478 12.9695 0.833252 14.2501C0.833252 14.4711 0.921049 14.6831 1.07733 14.8393C1.23361 14.9956 1.44557 15.0834 1.66659 15.0834C1.8876 15.0834 2.09956 14.9956 2.25584 14.8393C2.41212 14.6831 2.49992 14.4711 2.49992 14.2501C2.49992 12.924 3.0267 11.6522 3.96438 10.7145C4.90207 9.77687 6.17384 9.25008 7.49992 9.25008C8.826 9.25008 10.0978 9.77687 11.0355 10.7145C11.9731 11.6522 12.4999 12.924 12.4999 14.2501C12.4999 14.4711 12.5877 14.6831 12.744 14.8393C12.9003 14.9956 13.1122 15.0834 13.3333 15.0834C13.5543 15.0834 13.7662 14.9956 13.9225 14.8393C14.0788 14.6831 14.1666 14.4711 14.1666 14.2501C14.1654 12.9695 13.7953 11.7164 13.1008 10.6405C12.4062 9.56469 11.4165 8.71165 10.2499 8.18342ZM7.49992 7.58342C7.00547 7.58342 6.52212 7.43679 6.11099 7.16209C5.69987 6.88739 5.37944 6.49694 5.19022 6.04012C5.001 5.58331 4.95149 5.08064 5.04796 4.59569C5.14442 4.11074 5.38252 3.66528 5.73215 3.31565C6.08178 2.96602 6.52724 2.72792 7.01219 2.63145C7.49715 2.53499 7.99981 2.5845 8.45663 2.77372C8.91344 2.96294 9.30389 3.28337 9.57859 3.69449C9.8533 4.10561 9.99992 4.58896 9.99992 5.08342C9.99992 5.74646 9.73653 6.38234 9.26769 6.85118C8.79884 7.32002 8.16296 7.58342 7.49992 7.58342ZM15.6166 7.85008C16.1499 7.24952 16.4983 6.50763 16.6198 5.7137C16.7412 4.91977 16.6307 4.10764 16.3014 3.37508C15.9721 2.64252 15.4381 2.02074 14.7636 1.5846C14.0892 1.14846 13.3031 0.916533 12.4999 0.916748C12.2789 0.916748 12.0669 1.00455 11.9107 1.16083C11.7544 1.31711 11.6666 1.52907 11.6666 1.75008C11.6666 1.9711 11.7544 2.18306 11.9107 2.33934C12.0669 2.49562 12.2789 2.58342 12.4999 2.58342C13.163 2.58342 13.7988 2.84681 14.2677 3.31565C14.7365 3.78449 14.9999 4.42037 14.9999 5.08342C14.9987 5.52111 14.8827 5.95083 14.6633 6.3296C14.4439 6.70836 14.129 7.0229 13.7499 7.24175C13.6264 7.31302 13.5232 7.4148 13.4502 7.53737C13.3773 7.65993 13.337 7.79917 13.3333 7.94175C13.3298 8.08322 13.3624 8.22325 13.428 8.34863C13.4936 8.47402 13.59 8.58063 13.7083 8.65842L14.0333 8.87508L14.1416 8.93342C15.1461 9.40985 15.9935 10.1634 16.5841 11.1053C17.1746 12.0473 17.4837 13.1384 17.4749 14.2501C17.4749 14.4711 17.5627 14.6831 17.719 14.8393C17.8753 14.9956 18.0872 15.0834 18.3083 15.0834C18.5293 15.0834 18.7412 14.9956 18.8975 14.8393C19.0538 14.6831 19.1416 14.4711 19.1416 14.2501C19.1484 12.9713 18.8281 11.712 18.2111 10.5918C17.5942 9.47164 16.701 8.52784 15.6166 7.85008Z" fill="#E6224A"/>
</svg>
