<svg width="22" height="20" viewBox="0 0 22 20" fill="none" xmlns="http://www.w3.org/2000/svg">
<path fill-rule="evenodd" clip-rule="evenodd" d="M3.86331 4.58768C3.56636 4.58958 3.28019 4.69913 3.05789 4.896C2.83559 5.09288 2.69226 5.36372 2.65449 5.65825C2.61673 5.95279 2.68709 6.25103 2.85253 6.49762C3.01797 6.74421 3.26725 6.92242 3.55411 6.99916C3.72318 7.04464 3.90002 7.0534 4.07276 7.02486C4.2455 6.99632 4.41012 6.93113 4.55558 6.83369C4.70103 6.73624 4.82394 6.6088 4.91606 6.45991C5.00817 6.31102 5.06735 6.14414 5.08961 5.97048C5.11188 5.79682 5.09672 5.62041 5.04515 5.4531C4.99358 5.28579 4.9068 5.13145 4.79063 5.00047C4.67447 4.86948 4.53161 4.76487 4.37166 4.69367C4.21171 4.62247 4.03838 4.58633 3.86331 4.58768ZM3.84334 5.52326C3.98441 5.51018 4.13657 5.60821 4.15565 5.75438C4.21709 5.98994 3.9365 6.19888 3.73067 6.0658C3.47404 5.95445 3.57407 5.53302 3.84334 5.52326Z" fill="#E6224A"/>
<path fill-rule="evenodd" clip-rule="evenodd" d="M5.98617 1.00001C5.59263 1.00093 5.2108 1.13404 4.90198 1.37796L1.47218 4.08777C1.17638 4.32172 0.963908 4.64484 0.866329 5.00914C0.768751 5.37344 0.791267 5.7595 0.930534 6.10998L2.54551 10.1713C2.64641 10.4251 2.80525 10.6519 3.00936 10.8335C3.21347 11.0151 3.45719 11.1464 3.72108 11.2171L16.4346 14.624C16.8836 14.7441 17.362 14.6809 17.7645 14.4484C18.1669 14.2158 18.4606 13.8329 18.5808 13.3839L20.3951 6.61237C20.5154 6.16341 20.4524 5.68507 20.2199 5.28258C19.9875 4.88009 19.6047 4.58642 19.1557 4.46618L6.4422 1.05923C6.29338 1.0195 6.14019 0.999583 5.98617 1.00001ZM6.03053 1.93559C6.06225 1.93736 6.09352 1.94113 6.1248 1.94668C10.348 3.06635 14.5667 4.20511 18.7877 5.33388C19.2233 5.38955 19.5818 5.81919 19.5137 6.26103C18.9277 8.5168 18.3119 10.7659 17.7122 13.0186C17.6558 13.4551 17.2266 13.808 16.785 13.7446C12.6712 12.6544 8.56089 11.5458 4.44927 10.4456C4.09771 10.3516 3.67095 10.2979 3.47288 9.94768C2.92391 8.62793 2.41109 7.29265 1.87853 5.96581C1.69665 5.64219 1.68623 5.20235 1.94729 4.91711C2.93167 4.10707 3.94289 3.33186 4.94035 2.53757C5.25554 2.31842 5.52703 1.96531 5.93515 1.93603C5.96687 1.93381 5.99881 1.93381 6.03053 1.93559ZM19.661 9.80485L19.5288 10.8581L20.0052 11.4329C20.0931 11.611 20.0791 11.8452 19.9609 11.9803L19.9491 11.9936L19.94 12.0083C18.7269 13.9067 17.4999 15.7985 16.2933 17.7042L16.2888 17.7118L16.2844 17.72C16.2117 17.858 16.0939 17.9884 15.965 18.0665C15.8364 18.1448 15.7055 18.174 15.5675 18.1403H15.5662C15.3976 18.1013 15.2146 17.9269 14.9478 17.7801C12.2726 16.0704 9.28853 13.7144 6.61886 11.9936C5.48322 11.6556 4.36777 11.386 3.3377 11.0641L14.9323 18.8863L14.9361 18.8885L14.9396 18.8909C15.6359 19.3013 16.579 19.0495 16.9824 18.351L16.9769 18.3606C18.2527 16.3741 19.5408 14.3936 20.8106 12.4006L20.8146 12.3949L20.8179 12.3884C21.1453 11.7989 21.0206 11.0343 20.5289 10.5756L19.661 9.80485Z" fill="#E6224A" stroke="#E6224A" stroke-width="0.4"/>
<path fill-rule="evenodd" clip-rule="evenodd" d="M13.0046 4.33813C12.1291 4.38646 11.2976 4.73713 10.6519 5.33028L11.7447 5.62306C11.9115 5.36135 12.103 5.11624 12.3165 4.8911C12.533 4.66574 12.7646 4.47854 13.0046 4.33813ZM13.9699 4.47854C13.5427 4.47055 13.0705 4.71321 12.6197 5.18255C12.4562 5.35497 12.3072 5.54067 12.1744 5.73773L13.5349 6.1026L13.9699 4.47854ZM14.3807 4.57103L13.941 6.21151L15.3766 6.5959C15.3602 6.3588 15.3241 6.12347 15.2688 5.89233C15.1035 5.22115 14.789 4.75846 14.3807 4.57103ZM15.3837 5.01553C15.5088 5.24621 15.607 5.50794 15.6769 5.79163C15.747 6.07599 15.7898 6.38496 15.8055 6.7108L16.8241 6.98406C16.574 6.18706 16.0676 5.49502 15.3837 5.01553ZM10.3194 5.67607C10.0064 6.04689 9.76805 6.47468 9.61737 6.93593L10.9815 7.30191C11.1171 6.85028 11.2983 6.41359 11.5222 5.99858L10.3194 5.67607ZM11.9417 6.11081C11.7241 6.49454 11.5347 6.93327 11.3883 7.4106L13.0638 7.85931L13.4258 6.50851L11.9417 6.11081ZM13.8321 6.61742L13.4701 7.96822L15.2211 8.43756C15.3329 7.95092 15.3883 7.47625 15.3914 7.03508L13.8321 6.61742ZM15.8106 7.14753C15.7969 7.61884 15.7354 8.08755 15.6272 8.54647L16.9168 8.89204C17.0195 8.40385 17.0219 7.91521 16.9385 7.44941L15.8106 7.14753ZM9.50869 7.34184C9.40863 7.81683 9.40125 8.30668 9.48695 8.78447L10.6701 9.10143C10.6874 8.65538 10.7532 8.18559 10.8701 7.70715L9.50869 7.34184ZM11.2765 7.81562C11.164 8.27356 11.101 8.74226 11.0886 9.21366L12.5929 9.61668L12.9549 8.26566L11.2765 7.81562ZM13.3615 8.37457L12.9995 9.72559L14.579 10.1488C14.8039 9.73444 14.9837 9.29712 15.1153 8.84435L13.3615 8.37457ZM15.5201 8.95282C15.3896 9.40523 15.2142 9.84348 14.9966 10.261L16.1061 10.5578C16.4189 10.187 16.6571 9.75917 16.8077 9.29795L15.5201 8.95282ZM9.6014 9.25004C9.85156 10.0476 10.3585 10.74 11.0431 11.2195C10.9389 11.0035 10.858 10.7771 10.8018 10.5441C10.7226 10.2135 10.6778 9.8757 10.6683 9.53595L9.6014 9.25004ZM11.0959 9.6504C11.1096 9.91765 11.1478 10.1831 11.2099 10.4434C11.3559 11.0356 11.6183 11.465 11.9585 11.6868C11.9829 11.6952 12.0069 11.7043 12.0317 11.7123L12.4842 10.0224L11.0959 9.6504ZM12.8906 10.1315L12.4379 11.8212C12.4966 11.8336 12.5554 11.845 12.6142 11.8545C13.013 11.8243 13.4451 11.5843 13.859 11.1531C14.043 10.9589 14.2088 10.7482 14.3543 10.5237L12.8906 10.1315ZM14.7812 10.6379C14.5918 10.9429 14.3833 11.2146 14.1624 11.4446C14.0107 11.6036 13.8441 11.7477 13.6649 11.8749C14.4521 11.7797 15.1895 11.4401 15.7736 10.9038L14.7812 10.6379Z" fill="#E6224A"/>
</svg>
