<svg xmlns="http://www.w3.org/2000/svg" width="48" height="48" viewBox="0 0 48 48">
  <g id="Group_1101" data-name="Group 1101" transform="translate(-21 -210)">
    <g id="Group_760" data-name="Group 760">
      <rect id="Rectangle_701" data-name="Rectangle 701" width="48" height="48" rx="8" transform="translate(21 210)" fill="#fff"/>
    </g>
    <g id="Black" transform="translate(32.402 221.408)">
      <path id="Path_2211" data-name="Path 2211" d="M10.912.077A12.9,12.9,0,0,0,5.878,1.893l-.45.281L5.4,1.8c-.045-.619-.332-.906-.9-.906a.852.852,0,0,0-.787.4c-.107.174-.112.287-.112,1.845s.006,1.671.112,1.845A1.035,1.035,0,0,0,4,5.279c.174.107.287.112,1.845.112s1.671-.006,1.845-.112a.852.852,0,0,0,.4-.787c0-.6-.332-.9-.984-.9H6.721l.214-.141A11.32,11.32,0,0,1,10.76,1.989a10.834,10.834,0,0,1,8.527,2.165A10.975,10.975,0,0,1,22.3,7.895,10.779,10.779,0,0,1,10.1,23.087a10.634,10.634,0,0,1-5.208-2.992,10.608,10.608,0,0,1-3.032-6.986c-.056-.894-.112-1.069-.45-1.288a1.069,1.069,0,0,0-1-.017c-.337.208-.4.394-.4,1.153a12.54,12.54,0,0,0,2.6,7.351,12.731,12.731,0,0,0,7.919,4.742,17.978,17.978,0,0,0,3.493.084,13.571,13.571,0,0,0,2.61-.568,15.676,15.676,0,0,0,2.869-1.384,12.685,12.685,0,0,0,5.63-8.96,17.558,17.558,0,0,0,0-3.262,12.705,12.705,0,0,0-2.441-5.985,15.011,15.011,0,0,0-2.464-2.464A12.705,12.705,0,0,0,14.23.071,18.682,18.682,0,0,0,10.912.077Z" fill="#456efe"/>
      <path id="Path_2212" data-name="Path 2212" d="M87.185,80.093a8.2,8.2,0,0,0-6.974,6.924,12.02,12.02,0,0,0,.084,2.824,9.254,9.254,0,0,0,1.086,2.672,8.264,8.264,0,0,0,5.242,3.611,11.874,11.874,0,0,0,3.251.006,8.223,8.223,0,0,0,6.345-6.339,11.874,11.874,0,0,0,.006-3.251A8.239,8.239,0,0,0,89.935,80.2,16.907,16.907,0,0,0,87.185,80.093ZM88.7,82.944a1.1,1.1,0,0,1,.3.321c.112.186.118.3.135,2.334l.017,2.137,1.209.8c1.311.872,1.429.984,1.429,1.417a.828.828,0,0,1-.855.844c-.253,0-.349-.056-1.8-1.029a8.145,8.145,0,0,1-1.648-1.221c-.107-.191-.112-.3-.112-2.644,0-2.368.006-2.452.118-2.644a.859.859,0,0,1,.754-.45A.734.734,0,0,1,88.7,82.944Z" transform="translate(-75.654 -75.567)" fill="#456efe"/>
    </g>
  </g>
</svg>
