<svg xmlns="http://www.w3.org/2000/svg" width="14" height="11.399" viewBox="0 0 14 11.399">
  <g id="photo-camera-interface-symbol-for-button" opacity="0.65">
    <path id="Path_2001" data-name="Path 2001" d="M9.258,10A2.258,2.258,0,1,1,7,7.746,2.26,2.26,0,0,1,9.258,10ZM14,6.8v6.413a1.548,1.548,0,0,1-1.548,1.548H1.548A1.548,1.548,0,0,1,0,13.211V6.8A1.548,1.548,0,0,1,1.548,5.25h1.9V4.715A1.354,1.354,0,0,1,4.807,3.36H9.193a1.354,1.354,0,0,1,1.355,1.355V5.25h1.9A1.549,1.549,0,0,1,14,6.8ZM10.419,10A3.419,3.419,0,1,0,7,13.423,3.423,3.423,0,0,0,10.419,10Z" transform="translate(0 -3.36)" fill="#102245"/>
  </g>
</svg>
