<svg xmlns="http://www.w3.org/2000/svg" width="48" height="48" viewBox="0 0 48 48">
  <g id="Group_753" data-name="Group 753" transform="translate(-32 -572)">
    <rect id="Rectangle_705" data-name="Rectangle 705" width="48" height="48" rx="10" transform="translate(32 572)" fill="#eff7ff"/>
    <path id="Icon_awesome-wallet" data-name="Icon awesome-wallet" d="M21.619,6.75H3.75a.75.75,0,1,1,0-1.5h18a.75.75,0,0,0,.75-.75,2.25,2.25,0,0,0-2.25-2.25H3a3,3,0,0,0-3,3v15a3,3,0,0,0,3,3H21.619A2.321,2.321,0,0,0,24,21V9A2.321,2.321,0,0,0,21.619,6.75ZM19.5,16.5A1.5,1.5,0,1,1,21,15,1.5,1.5,0,0,1,19.5,16.5Z" transform="translate(44 583.75)" fill="#456efe"/>
  </g>
</svg>
