<svg width="15" height="18" viewBox="0 0 15 18" fill="none" xmlns="http://www.w3.org/2000/svg">
<path fill-rule="evenodd" clip-rule="evenodd" d="M4.3026 1.00524C4.27726 1.01063 4.15284 1.0321 4.02611 1.05301C3.31408 1.17042 2.61664 1.54341 2.07257 2.09775C1.55178 2.62841 1.21658 3.25456 1.05732 3.99427C1.00285 4.24734 1.00006 4.49096 1.00006 8.98684C1.00006 14.1149 0.991975 13.858 1.17136 14.4224C1.34973 14.9836 1.64732 15.4739 2.07257 15.9072C2.49781 16.3405 2.97903 16.6437 3.52984 16.8254C4.0752 17.0054 3.95158 17 7.51298 17C10.6033 17 10.8158 16.9965 11.0613 16.9418C12.5425 16.6116 13.6573 15.4513 13.9526 13.9325C14.0158 13.6073 14.0158 4.39768 13.9526 4.07253C13.6612 2.57344 12.5975 1.4464 11.1227 1.07417C10.8664 1.00947 10.8021 1.00815 7.60515 1.00189C5.81409 0.998388 4.32795 0.99989 4.3026 1.00524ZM10.9082 2.30998C11.5819 2.51672 12.0361 2.84967 12.3856 3.39307C12.536 3.62673 12.6247 3.83495 12.7151 4.16643C12.7619 4.3379 12.7663 4.75881 12.7663 9.00249C12.7663 14.073 12.7779 13.7163 12.5982 14.205C12.394 14.7603 11.7969 15.3688 11.2524 15.5763C10.7776 15.7574 11.0034 15.7461 7.63587 15.7572C4.30924 15.7682 4.27471 15.7669 3.83883 15.6097C3.2166 15.3854 2.61585 14.8 2.39708 14.205C2.21739 13.7163 2.22891 14.073 2.22891 9.00249C2.22891 3.93201 2.21739 4.28869 2.39708 3.79998C2.61148 3.21681 3.20453 2.62994 3.80581 2.40588C4.2414 2.24356 4.18128 2.246 7.57443 2.25223C10.4244 2.25742 10.7556 2.26315 10.9082 2.30998ZM4.58558 3.46437C4.44751 3.50741 4.2521 3.71428 4.21262 3.85921C4.13284 4.15184 4.21136 4.60721 4.41397 5.02722C4.53304 5.27403 4.60235 5.37037 4.8217 5.59386C5.04265 5.81895 5.13386 5.88685 5.37785 6.00773C5.84208 6.2377 5.93259 6.24797 7.49762 6.24797C8.94426 6.24797 9.13003 6.23247 9.47915 6.08279C10.1322 5.80283 10.6372 5.1718 10.7726 4.46645C10.8651 3.98441 10.786 3.69052 10.5181 3.52078C10.3438 3.41041 10.0438 3.41491 9.87239 3.53048C9.69439 3.65049 9.62201 3.78862 9.58619 4.07672C9.53387 4.4976 9.36066 4.76097 9.03526 4.91434C8.89959 4.97832 8.85409 4.98026 7.49762 4.98026H6.0998L5.92524 4.89293C5.61551 4.73796 5.46077 4.49187 5.40839 4.07109C5.37376 3.79272 5.29976 3.64974 5.13162 3.5364C4.99985 3.44753 4.74665 3.41413 4.58558 3.46437ZM10.2011 8.66014C10.1175 8.68443 9.80295 8.99059 8.78792 10.0355C7.42426 11.4393 7.34933 11.5045 7.09825 11.5057C6.82458 11.507 6.78323 11.4765 6.03759 10.7223C5.58762 10.2672 5.28891 9.98923 5.21678 9.95852C4.95248 9.84603 4.64247 9.942 4.47157 10.1892C4.39148 10.3051 4.37941 10.3499 4.37941 10.5311C4.37941 10.6911 4.39501 10.7653 4.44638 10.8493C4.48321 10.9095 4.83574 11.2834 5.22977 11.6802C5.83802 12.2926 5.97959 12.4192 6.16739 12.5183C6.74234 12.8221 7.35207 12.8332 7.92376 12.5505C8.14578 12.4407 8.22993 12.3618 9.51934 11.055C10.268 10.2963 10.9108 9.62617 10.9479 9.56591C11.0455 9.40712 11.0427 9.09458 10.9423 8.92996C10.7967 8.69126 10.4847 8.5777 10.2011 8.66014Z" fill="#E6224A" stroke="#E6224A" stroke-width="0.25"/>
</svg>
