<svg xmlns="http://www.w3.org/2000/svg" xmlns:xlink="http://www.w3.org/1999/xlink" width="340" height="371" viewBox="0 0 340 371">
  <defs>
    <linearGradient id="linear-gradient" x1="1.74" y1="0.831" x2="0.566" y2="0.511" gradientUnits="objectBoundingBox">
      <stop offset="0" stop-color="#a9c0db"/>
      <stop offset="0.996" stop-color="#014384"/>
    </linearGradient>
    <linearGradient id="linear-gradient-2" x1="2.228" y1="0.823" x2="0.272" y2="0.477" xlink:href="#linear-gradient"/>
    <linearGradient id="linear-gradient-3" x1="0.495" y1="0.117" x2="0.513" y2="1.536" xlink:href="#linear-gradient"/>
    <linearGradient id="linear-gradient-4" x1="1.74" y1="0.831" x2="0.566" y2="0.511" gradientUnits="objectBoundingBox">
      <stop offset="0" stop-color="#a9c0db"/>
      <stop offset="0.032" stop-color="#a4bcd8"/>
      <stop offset="0.996" stop-color="#014384"/>
    </linearGradient>
    <linearGradient id="linear-gradient-5" x1="2.228" y1="0.823" x2="0.272" y2="0.477" xlink:href="#linear-gradient-4"/>
    <linearGradient id="linear-gradient-6" x1="0.495" y1="0.117" x2="0.513" y2="1.536" xlink:href="#linear-gradient-4"/>
    <linearGradient id="linear-gradient-7" y1="0.5" x2="1" y2="0.5" gradientUnits="objectBoundingBox">
      <stop offset="0" stop-color="#444b8c"/>
      <stop offset="0.996" stop-color="#26264f"/>
    </linearGradient>
    <linearGradient id="linear-gradient-10" x1="0.363" y1="-0.893" x2="0.567" y2="1.191" gradientUnits="objectBoundingBox">
      <stop offset="0.041" stop-color="#3e77b0"/>
      <stop offset="0.366" stop-color="#014384"/>
      <stop offset="0.996" stop-color="#00274f"/>
    </linearGradient>
    <linearGradient id="linear-gradient-11" x1="1" y1="0.057" x2="1" y2="0.948" gradientUnits="objectBoundingBox">
      <stop offset="0" stop-color="#e9ecf5"/>
      <stop offset="1" stop-color="#004c97"/>
    </linearGradient>
    <linearGradient id="linear-gradient-12" x1="0" y1="0.5" x2="1" y2="0.5" xlink:href="#linear-gradient-10"/>
    <linearGradient id="linear-gradient-15" x1="0.53" y1="-0.49" x2="0.466" y2="2.489" xlink:href="#linear-gradient-10"/>
    <linearGradient id="linear-gradient-18" x1="0.349" y1="-0.972" x2="0.571" y2="1.199" xlink:href="#linear-gradient-10"/>
    <linearGradient id="linear-gradient-21" x1="0" y1="0.5" x2="1" y2="0.5" xlink:href="#linear-gradient-10"/>
    <linearGradient id="linear-gradient-22" x1="0.335" y1="-1.051" x2="0.575" y2="1.207" xlink:href="#linear-gradient-10"/>
    <linearGradient id="linear-gradient-25" x1="0" y1="0.5" x2="1" y2="0.5" xlink:href="#linear-gradient-10"/>
  </defs>
  <g id="Group_2625" data-name="Group 2625" transform="translate(-151 -247)">
    <rect id="Rectangle_2053" data-name="Rectangle 2053" width="340" height="371" rx="8" transform="translate(151 247)" fill="#fff"/>
    <text id="Branch_Verification" data-name="Branch Verification" transform="translate(324 589)" font-size="18" font-family="Poppins-Medium, Poppins" font-weight="500"><tspan x="-86" y="0">Branch Verification</tspan></text>
    <g id="Illustration" transform="translate(204.754 295)">
      <path id="Path_119" data-name="Path 119" d="M480.984,431.436c-7.634,11.129,1.317,29.173-10.011,37.542-11.028,8.148-24.575-5.207-34.967,1.806-15.417,10.4-12.6,58.011,9.938,87.591,6.779,8.9,12.443,12.357,14.951,22.417,5.386,21.6-13.545,34.453-9.942,45.137,8.112,24.057,132.863,44.243,182.92-28.055,23.378-33.767,26.876-82.525,5.989-119.558C602.118,411.4,498.114,406.464,480.984,431.436Z" transform="translate(-424.093 -417.581)" fill="#f3f7fa"/>
      <g id="Group_17" data-name="Group 17" transform="translate(9.185 63.025)" opacity="0.447">
        <path id="Path_121" data-name="Path 121" d="M508.757,1258.394c4.158,2.111,9.381.172,11.667-4.329s.768-9.863-3.39-11.973c-.215-.109-.435-.2-.656-.289a52.694,52.694,0,0,0,1.745-7.513c.238,0,.477,0,.72-.027a9.564,9.564,0,0,0,8.409-9.736,8.1,8.1,0,0,0-8.769-8.2c-.248.022-.491.061-.733.1a48.479,48.479,0,0,0-2.031-7.175c.218-.128.435-.26.647-.408a9.566,9.566,0,0,0,2.9-12.534,8.1,8.1,0,0,0-11.8-2.238c-.208.146-.4.3-.6.463a42.827,42.827,0,0,0-5.263-4.913c.134-.219.265-.441.383-.674,2.286-4.5,5.273-9.419,1.082-11.465-9.693-4.732-13.852-.681-16.138,3.821-.118.233-.221.47-.319.708a42.881,42.881,0,0,0-7.071-1.35c.015-.25.026-.5.021-.755-.1-4.954,1.371-7.635-3.39-7.727-10.383-.2-13.886,4.3-13.787,9.259.005.259.027.512.052.763a48.27,48.27,0,0,0-6.99,2.594c-.108-.22-.22-.44-.348-.654a8.1,8.1,0,0,0-11.8-2.237,9.566,9.566,0,0,0-2.9,12.534c.126.209.264.4.4.6a52.645,52.645,0,0,0-5.035,5.843c-.2-.126-.405-.25-.621-.359-4.158-2.111-9.381-.173-11.667,4.329s-.768,9.863,3.39,11.973c.215.109.435.2.656.289a52.786,52.786,0,0,0-1.746,7.513c-.238,0-.477,0-.72.026a9.566,9.566,0,0,0-8.409,9.736,8.1,8.1,0,0,0,8.769,8.205c.248-.022.491-.061.733-.1a48.4,48.4,0,0,0,2.031,7.175c-.218.127-.435.26-.647.408a9.566,9.566,0,0,0-2.9,12.534c2.458,4.079,10.595,5.974,14.653,3.131.208-.146-2.451-1.2-2.258-1.356a42.842,42.842,0,0,0,5.263,4.913c-.134.219-.265.441-.383.674-2.286,4.5-.768,9.863,3.39,11.973s9.381.173,11.667-4.329c.119-.233.221-.47.319-.708a42.856,42.856,0,0,0,7.072,1.35c-.015.25-.027.5-.021.755a8.1,8.1,0,0,0,8.769,8.2,9.565,9.565,0,0,0,8.409-9.736c-.005-.259-.027-.512-.052-.764a48.236,48.236,0,0,0,6.99-2.594c.109.221.221.441.349.654a8.1,8.1,0,0,0,11.8,2.238,9.566,9.566,0,0,0,2.9-12.534c-.126-.209-.264-.4-.4-.6a52.748,52.748,0,0,0,5.036-5.842C508.337,1258.161,508.542,1258.285,508.757,1258.394Zm-51.829.658c-15.1-7.664-20.605-27.128-12.306-43.473s27.264-23.382,42.359-15.719,20.605,27.128,12.307,43.473S472.024,1266.716,456.928,1259.052Z" transform="translate(-416.655 -1172.171)" fill="url(#linear-gradient)"/>
        <path id="Path_122" data-name="Path 122" d="M1074.338,1351.363a9.565,9.565,0,0,0,8.409-9.736,8.1,8.1,0,0,0-8.769-8.205c-.248.022-.491.061-.733.1a48.37,48.37,0,0,0-2.031-7.175c.218-.128.436-.26.647-.408,4.058-2.843,9.078-9.713,6.216-13.518-5.434-7.222-11.058-4.1-15.116-1.253-.208.146-.4.3-.6.463a42.866,42.866,0,0,0-5.263-4.913c.134-.219.265-.441.383-.674a9.444,9.444,0,0,0,.532-7.448q-5.88,10.348-11.584,20.793c12.043,8.825,15.876,26.215,8.349,41.041-6.379,12.563-19.059,19.618-31.44,18.734-.553,1.432-1.094,2.872-1.686,4.291-1.6,3.849-3.428,7.62-5.253,11.385q1.722.325,3.458.508c-.015.25-.027.5-.021.755.1,4.954,3.107,9.163,11.7,8.707,4.755-.252,5.573-5.285,5.474-10.238-.005-.259-.027-.512-.052-.764a48.346,48.346,0,0,0,6.99-2.594c.109.221.221.44.349.654,2.458,4.079,10.984,5.812,15.042,2.969s2.112-9.186-.346-13.265c-.126-.209-.264-.4-.4-.6a52.589,52.589,0,0,0,5.035-5.842c.2.126.405.25.62.359,4.158,2.111,9.381.173,11.667-4.329s.768-9.863-3.39-11.973c-.216-.109-.435-.2-.656-.289a52.678,52.678,0,0,0,1.745-7.513C1073.855,1351.389,1074.095,1351.385,1074.338,1351.363Z" transform="translate(-972.148 -1289.271)" fill="url(#linear-gradient-2)"/>
        <path id="Path_123" data-name="Path 123" d="M569.366,1258.968c4.158,2.111,9.381.173,11.667-4.329s.768-9.862-3.39-11.973c-.215-.109-.435-.2-.656-.289a52.675,52.675,0,0,0,1.745-7.513c.238,0,.477,0,.72-.026a9.565,9.565,0,0,0,8.409-9.736,8.1,8.1,0,0,0-8.769-8.2c-.248.022-.491.061-.733.1a48.478,48.478,0,0,0-2.031-7.175c.218-.128.435-.26.647-.408a9.567,9.567,0,0,0,2.9-12.534,8.1,8.1,0,0,0-11.8-2.238c-.208.146-.4.3-.6.463a42.831,42.831,0,0,0-5.263-4.913c.134-.219.265-.441.383-.674,2.286-4.5.768-9.863-3.39-11.973s-9.381-.173-11.667,4.329c-.118.233-.221.47-.319.708a42.872,42.872,0,0,0-7.072-1.35c.015-.25.026-.5.021-.755a8.1,8.1,0,0,0-8.769-8.2A9.565,9.565,0,0,0,523,1182.01c.005.259.027.512.052.764a48.351,48.351,0,0,0-6.991,2.594c-.108-.221-.22-.441-.348-.654a8.1,8.1,0,0,0-11.8-2.237,9.566,9.566,0,0,0-2.9,12.534c.126.209.264.4.4.6a52.649,52.649,0,0,0-5.035,5.842c-.2-.126-.405-.249-.62-.359-4.158-2.111-9.381-.173-11.666,4.329s-.768,9.863,3.39,11.973c.216.109.435.2.656.289a52.691,52.691,0,0,0-1.745,7.513c-.238,0-.477,0-.72.026a9.566,9.566,0,0,0-8.409,9.736,8.1,8.1,0,0,0,8.769,8.2c.248-.022.491-.061.733-.1a48.486,48.486,0,0,0,2.031,7.175c-.218.128-.435.26-.647.408a9.566,9.566,0,0,0-2.9,12.534,8.1,8.1,0,0,0,11.8,2.238c.208-.146.4-.3.6-.463a42.842,42.842,0,0,0,5.263,4.913c-.134.219-.265.441-.383.675-2.286,4.5-.768,9.863,3.39,11.973s9.381.173,11.667-4.329c.118-.233.221-.47.319-.708a42.764,42.764,0,0,0,7.072,1.35c-.015.25-.027.5-.021.755a8.1,8.1,0,0,0,8.769,8.205,9.565,9.565,0,0,0,8.409-9.736c-.005-.259-.026-.512-.052-.764a48.261,48.261,0,0,0,6.99-2.594c.109.221.221.441.349.654a8.1,8.1,0,0,0,11.8,2.238,9.566,9.566,0,0,0,2.9-12.534c-.126-.209-.264-.4-.4-.6a52.736,52.736,0,0,0,5.036-5.842C568.948,1258.734,569.151,1258.858,569.366,1258.968Zm-51.828.657c-15.1-7.664-20.605-27.128-12.306-43.473s27.264-23.383,42.359-15.719,20.605,27.128,12.307,43.473S532.633,1267.289,517.538,1259.625Z" transform="translate(-472.793 -1172.236)" fill="url(#linear-gradient-3)"/>
      </g>
      <g id="Group_18" data-name="Group 18" transform="translate(116.156 8.721)" opacity="0.514">
        <path id="Path_124" data-name="Path 124" d="M1951.446,515.779c3.838,1.949,8.66.159,10.769-4s.709-9.1-3.129-11.052c-.2-.1-.4-.186-.6-.267a48.719,48.719,0,0,0,1.611-6.935c.22,0,.441,0,.665-.024a8.83,8.83,0,0,0,7.762-8.987,7.478,7.478,0,0,0-8.094-7.574c-.229.021-.454.057-.677.1a44.652,44.652,0,0,0-1.875-6.623c.2-.118.4-.24.6-.377a8.829,8.829,0,0,0,2.675-11.57,7.477,7.477,0,0,0-10.891-2.065c-.192.134-.373.28-.551.427a39.565,39.565,0,0,0-4.858-4.535c.123-.2.244-.407.353-.623,2.109-4.156,4.867-8.695,1-10.583-8.948-4.368-12.787-.629-14.9,3.527-.109.215-.2.434-.294.653a39.553,39.553,0,0,0-6.528-1.246c.014-.231.024-.463.02-.7-.091-4.573,1.265-7.048-3.13-7.134-9.584-.187-12.818,3.973-12.726,8.547.005.239.025.473.049.7a44.591,44.591,0,0,0-6.453,2.394c-.1-.2-.2-.407-.322-.6a7.477,7.477,0,0,0-10.891-2.065,8.829,8.829,0,0,0-2.675,11.57c.116.193.244.373.373.551a48.748,48.748,0,0,0-4.649,5.393c-.186-.117-.374-.23-.573-.331-3.837-1.949-8.659-.159-10.769,4s-.709,9.1,3.128,11.052c.2.1.4.186.605.267a48.706,48.706,0,0,0-1.611,6.935c-.22,0-.441,0-.665.024a8.83,8.83,0,0,0-7.762,8.987,7.478,7.478,0,0,0,8.094,7.573c.229-.021.454-.056.677-.1a44.6,44.6,0,0,0,1.875,6.623c-.2.118-.4.24-.6.377a8.83,8.83,0,0,0-2.675,11.569c2.269,3.765,9.78,5.515,13.526,2.89.192-.134-2.262-1.1-2.083-1.251a39.533,39.533,0,0,0,4.858,4.535c-.123.2-.244.407-.354.623-2.11,4.156-.709,9.1,3.129,11.052s8.659.159,10.77-4c.109-.215.2-.434.294-.653a39.54,39.54,0,0,0,6.528,1.246c-.014.231-.024.463-.02.7a7.477,7.477,0,0,0,8.094,7.573,8.83,8.83,0,0,0,7.762-8.987c0-.239-.025-.473-.049-.7a44.6,44.6,0,0,0,6.453-2.394c.1.2.2.407.322.6a7.477,7.477,0,0,0,10.891,2.065,8.831,8.831,0,0,0,2.676-11.57c-.116-.193-.243-.373-.372-.551a48.769,48.769,0,0,0,4.648-5.393C1951.058,515.564,1951.246,515.677,1951.446,515.779Zm-47.842.606c-13.934-7.074-19.021-25.041-11.36-40.129s25.167-21.584,39.1-14.509,19.02,25.041,11.36,40.129S1917.538,523.46,1903.6,516.385Z" transform="translate(-1866.426 -436.188)" fill="url(#linear-gradient-4)"/>
        <path id="Path_125" data-name="Path 125" d="M2473.531,601.595a8.83,8.83,0,0,0,7.762-8.987,7.477,7.477,0,0,0-8.094-7.573c-.229.021-.454.057-.677.1a44.6,44.6,0,0,0-1.875-6.623c.2-.118.4-.24.6-.377,3.746-2.625,8.381-8.966,5.738-12.479-5.016-6.667-10.207-3.781-13.953-1.157-.192.134-.373.28-.551.427a39.606,39.606,0,0,0-4.858-4.535c.123-.2.244-.407.354-.623a8.721,8.721,0,0,0,.491-6.875q-5.428,9.553-10.693,19.194c11.116,8.146,14.655,24.2,7.707,37.884-5.888,11.6-17.592,18.109-29.021,17.293-.51,1.322-1.01,2.651-1.556,3.961-1.481,3.554-3.165,7.033-4.85,10.509q1.59.3,3.192.469c-.014.231-.024.463-.02.7.092,4.573,2.868,8.459,10.8,8.037,4.39-.232,5.144-4.878,5.052-9.451,0-.239-.024-.473-.049-.7a44.522,44.522,0,0,0,6.453-2.4c.1.2.2.407.322.6,2.269,3.765,10.139,5.365,13.885,2.74s1.949-8.479-.319-12.245c-.116-.193-.243-.373-.373-.551a48.678,48.678,0,0,0,4.648-5.393c.186.117.375.23.573.331,3.838,1.949,8.66.159,10.77-4s.709-9.1-3.128-11.052c-.2-.1-.4-.186-.6-.267a48.755,48.755,0,0,0,1.612-6.935C2473.086,601.618,2473.307,601.615,2473.531,601.595Z" transform="translate(-2379.2 -544.279)" fill="url(#linear-gradient-5)"/>
        <path id="Path_126" data-name="Path 126" d="M2007.4,516.32c3.838,1.949,8.659.159,10.77-4s.709-9.1-3.129-11.052c-.2-.1-.4-.186-.6-.267a48.741,48.741,0,0,0,1.612-6.935c.22,0,.44,0,.665-.024a8.83,8.83,0,0,0,7.763-8.987,7.478,7.478,0,0,0-8.094-7.574c-.229.021-.454.057-.677.1a44.6,44.6,0,0,0-1.875-6.623c.2-.118.4-.24.6-.377a8.829,8.829,0,0,0,2.675-11.57,7.477,7.477,0,0,0-10.891-2.065c-.192.134-.373.28-.551.427a39.558,39.558,0,0,0-4.858-4.535c.123-.2.244-.407.354-.623,2.109-4.156.709-9.1-3.129-11.052s-8.659-.159-10.769,4c-.109.215-.2.434-.294.653a39.548,39.548,0,0,0-6.528-1.246c.014-.231.024-.463.02-.7a7.477,7.477,0,0,0-8.094-7.573,8.83,8.83,0,0,0-7.762,8.987c0,.239.025.473.049.7a44.612,44.612,0,0,0-6.453,2.4c-.1-.2-.2-.407-.322-.6a7.478,7.478,0,0,0-10.891-2.065,8.829,8.829,0,0,0-2.675,11.569c.116.193.244.373.373.551a48.735,48.735,0,0,0-4.649,5.393c-.186-.117-.374-.23-.573-.331-3.837-1.949-8.659-.159-10.769,4s-.709,9.1,3.129,11.052c.2.1.4.186.6.267a48.773,48.773,0,0,0-1.611,6.935c-.22,0-.44,0-.665.024a8.83,8.83,0,0,0-7.762,8.987,7.477,7.477,0,0,0,8.094,7.573c.229-.021.454-.056.677-.1a44.58,44.58,0,0,0,1.875,6.623c-.2.118-.4.24-.6.377a8.83,8.83,0,0,0-2.675,11.57,7.477,7.477,0,0,0,10.891,2.065c.192-.134.373-.28.551-.427a39.579,39.579,0,0,0,4.858,4.535c-.123.2-.244.407-.353.623-2.11,4.156-.709,9.1,3.128,11.052s8.659.159,10.769-4c.109-.215.2-.434.295-.653a39.537,39.537,0,0,0,6.528,1.246c-.014.231-.024.463-.02.7a7.477,7.477,0,0,0,8.094,7.573,8.83,8.83,0,0,0,7.762-8.987c0-.239-.025-.473-.049-.7a44.69,44.69,0,0,0,6.453-2.394c.1.2.2.407.322.6a7.477,7.477,0,0,0,10.891,2.065,8.831,8.831,0,0,0,2.675-11.57c-.117-.193-.244-.373-.373-.551a48.686,48.686,0,0,0,4.649-5.393C2007.017,516.1,2007.206,516.218,2007.4,516.32Zm-47.842.607c-13.934-7.075-19.02-25.041-11.36-40.129s25.167-21.584,39.1-14.509,19.02,25.041,11.36,40.129S1973.5,524,1959.562,516.927Z" transform="translate(-1918.258 -436.259)" fill="url(#linear-gradient-6)"/>
      </g>
      <g id="Group_2610" data-name="Group 2610" style="mix-blend-mode: normal;isolation: isolate">
        <g id="Group_22" data-name="Group 22" transform="translate(7.806 51.914)">
          <path id="Path_127" data-name="Path 127" d="M784.64,1443.044l-36.28,1.3v-95.23l36.28.867Z" transform="translate(-722.506 -1324.942)" fill="#002555"/>
          <path id="Path_128" data-name="Path 128" d="M920.768,1446.98l-13.128.469V1352.92l13.128.314Z" transform="translate(-870.033 -1328.471)" fill="url(#linear-gradient-7)"/>
          <path id="Path_129" data-name="Path 129" d="M720.86,1060.025l-184.81-5.53v-10.351l3.88-1.944,187.162,16.084Z" transform="translate(-525.861 -1040.678)" fill="#002555"/>
          <path id="Path_130" data-name="Path 130" d="M772.488,2648.384,592.34,2665.675l-3.931-2.1v-9.943L766.3,2646.5Z" transform="translate(-574.358 -2526.604)" fill="#002160"/>
          <path id="Path_131" data-name="Path 131" d="M607.237,2801.016l-205.526,21.46-3.751-2.3v-11.429L600.9,2798.99Z" transform="translate(-397.96 -2667.843)" fill="#002458"/>
          <path id="Path_132" data-name="Path 132" d="M802.115,1029.933l-172.4-6.426,4.674-1.937,173.892,6.481Z" transform="translate(-612.61 -1021.57)" fill="#002652"/>
          <g id="Group_19" data-name="Group 19" transform="translate(18.574 18.304)">
            <path id="Path_133" data-name="Path 133" d="M696.862,1272.436l-40.554-2.794c-1.923-.051-6.619,3.129-6.619,5.079v1.22a3.6,3.6,0,0,0,3.485,3.606l43.688.933c1.817.039,7.046-1.525,7.046-3.416l-3.758-1.12A3.466,3.466,0,0,0,696.862,1272.436Z" transform="translate(-649.69 -1269.642)" fill="#002458"/>
            <path id="Path_134" data-name="Path 134" d="M696.862,2565.895l-43.687,1.45a3.654,3.654,0,0,0-3.485,3.647v1.22c0,1.95,3.545,5.406,5.467,5.333l41.7-3.6a3.517,3.517,0,0,0,3.288-3.549l3.971-1.381C704.121,2567.12,698.68,2565.834,696.862,2565.895Z" transform="translate(-649.69 -2470.249)" fill="#002458"/>
          </g>
          <path id="Path_135" data-name="Path 135" d="M1666.8,1460.392l-33.472,1.2V1370.25l33.472.8Z" transform="translate(-1542.178 -1344.522)" fill="#002458"/>
          <path id="Path_136" data-name="Path 136" d="M1792.3,1464.019l-12.112.433V1373.76l12.112.289Z" transform="translate(-1678.202 -1347.774)" fill="url(#linear-gradient-7)"/>
          <g id="Group_20" data-name="Group 20" transform="translate(84.442 20.037)">
            <path id="Path_137" data-name="Path 137" d="M1585.907,1295.828l-37.173-2.7c-1.772-.046-6.345,3.073-6.345,4.945v1.171a3.393,3.393,0,0,0,3.211,3.459l40.306.861c1.679.036,7.7-1.488,7.7-3.306l-4.66-1.056A3.272,3.272,0,0,0,1585.907,1295.828Z" transform="translate(-1542.39 -1293.123)" fill="#00235c"/>
            <path id="Path_138" data-name="Path 138" d="M1585.917,2537.914l-40.306,1.338a3.442,3.442,0,0,0-3.211,3.5v1.171c0,1.872,5.479,5.154,7.251,5.086l36.267-3.359a3.321,3.321,0,0,0,3.037-3.406l5.1-.764C1594.059,2539.66,1587.6,2537.858,1585.917,2537.914Z" transform="translate(-1542.399 -2446.066)" fill="#00235c"/>
          </g>
          <path id="Path_139" data-name="Path 139" d="M2481.368,1476.409l-30.978,1.106V1389.77l30.978.74Z" transform="translate(-2298.951 -1362.602)" fill="#002458"/>
          <path id="Path_140" data-name="Path 140" d="M2597.45,1479.766l-11.21.4V1393.02l11.21.268Z" transform="translate(-2424.777 -1365.613)" fill="url(#linear-gradient-7)"/>
          <g id="Group_21" data-name="Group 21" transform="translate(145.235 21.621)">
            <path id="Path_141" data-name="Path 141" d="M2411.311,1315.575l-37.3-.985c-6.356,1.611-7.687,3.036-7.687,4.836v1.126a3.207,3.207,0,0,0,2.969,3.323l37.3.8c1.555.033,8.152-1.425,8.152-3.174l-5.339-1.027C2409.406,1318.722,2408.147,1317.271,2411.311,1315.575Z" transform="translate(-2366.319 -1314.59)" fill="#00235c"/>
            <path id="Path_142" data-name="Path 142" d="M2406.582,2512.025l-37.3,1.238a3.254,3.254,0,0,0-2.969,3.358v1.126c0,1.8,6.261,5.013,7.9,4.95l32.373-3.231a3.147,3.147,0,0,0,2.813-3.275l5.787-.846C2415.182,2513.6,2408.137,2511.973,2406.582,2512.025Z" transform="translate(-2366.31 -2423.671)" fill="#00235c"/>
          </g>
        </g>
        <path id="Path_143" data-name="Path 143" d="M840.4,1423.824l-36.741,1.313V1326.35l36.741.877Z" transform="translate(-765.92 -1251.948)" fill="url(#linear-gradient-10)"/>
        <path id="Path_144" data-name="Path 144" d="M978.255,1427.8l-13.3.475V1330.2l13.3.318Z" transform="translate(-915.318 -1255.514)" fill="url(#linear-gradient-11)"/>
        <path id="Path_145" data-name="Path 145" d="M775.8,1058.284l-187.162-5.6V1042.2l187.162,6.774Z" transform="translate(-566.765 -988.765)" fill="url(#linear-gradient-12)"/>
        <path id="Path_146" data-name="Path 146" d="M821.828,2681.013l-180.148,8.308v-10.07l180.148-7.221Z" transform="translate(-615.892 -2498.338)" fill="url(#linear-gradient-12)"/>
        <path id="Path_147" data-name="Path 147" d="M654.326,2836.612,448.8,2847.91v-11.574l205.526-9.886Z" transform="translate(-437.243 -2641.363)" fill="url(#linear-gradient-12)"/>
        <path id="Path_148" data-name="Path 148" d="M858.1,674.608,683.5,668.1l92.125-28.131Z" transform="translate(-654.626 -616.213)" fill="url(#linear-gradient-15)"/>
        <g id="Group_23" data-name="Group 23" transform="translate(30.367 70.123)">
          <path id="Path_149" data-name="Path 149" d="M751.5,1269.532l-44.243-1.168a3.443,3.443,0,0,0-3.529,3.483v1.236a3.647,3.647,0,0,0,3.529,3.652l44.243.945a3.313,3.313,0,0,0,3.33-3.4v-1.2A3.51,3.51,0,0,0,751.5,1269.532Z" transform="translate(-703.73 -1268.363)" fill="url(#linear-gradient-12)"/>
          <path id="Path_150" data-name="Path 150" d="M751.5,2590.4l-44.243,1.468a3.7,3.7,0,0,0-3.529,3.694v1.236a3.4,3.4,0,0,0,3.529,3.441l44.243-1.692a3.561,3.561,0,0,0,3.33-3.594v-1.2A3.266,3.266,0,0,0,751.5,2590.4Z" transform="translate(-703.73 -2492.849)" fill="url(#linear-gradient-12)"/>
        </g>
        <path id="Path_151" data-name="Path 151" d="M1733.779,1441.394l-33.9,1.211V1347.76l33.9.81Z" transform="translate(-1596.012 -1271.779)" fill="url(#linear-gradient-18)"/>
        <path id="Path_152" data-name="Path 152" d="M1860.886,1445.063l-12.266.438V1351.31l12.266.293Z" transform="translate(-1733.777 -1275.066)" fill="url(#linear-gradient-11)"/>
        <g id="Group_24" data-name="Group 24" transform="translate(97.073 71.877)">
          <path id="Path_153" data-name="Path 153" d="M1651.861,1293.214l-40.819-1.078a3.244,3.244,0,0,0-3.253,3.348v1.187a3.435,3.435,0,0,0,3.253,3.5l40.819.872a3.129,3.129,0,0,0,3.075-3.266v-1.151A3.315,3.315,0,0,0,1651.861,1293.214Z" transform="translate(-1607.79 -1292.135)" fill="url(#linear-gradient-12)"/>
          <path id="Path_154" data-name="Path 154" d="M1651.861,2562.05l-40.819,1.355a3.485,3.485,0,0,0-3.253,3.541v1.187a3.2,3.2,0,0,0,3.253,3.309l40.819-1.56a3.363,3.363,0,0,0,3.075-3.45v-1.151A3.086,3.086,0,0,0,1651.861,2562.05Z" transform="translate(-1607.79 -2468.348)" fill="url(#linear-gradient-21)"/>
        </g>
        <path id="Path_155" data-name="Path 155" d="M2558.712,1457.606l-31.372,1.121V1367.52l31.372.75Z" transform="translate(-2362.418 -1290.08)" fill="url(#linear-gradient-22)"/>
        <path id="Path_156" data-name="Path 156" d="M2676.263,1461.006l-11.353.405v-90.6l11.353.271Z" transform="translate(-2489.838 -1293.128)" fill="url(#linear-gradient-11)"/>
        <g id="Group_25" data-name="Group 25" transform="translate(158.64 73.497)">
          <path id="Path_157" data-name="Path 157" d="M2482.984,1315.085l-37.777-1a3.067,3.067,0,0,0-3.007,3.221v1.14a3.248,3.248,0,0,0,3.007,3.366l37.777.807a2.966,2.966,0,0,0,2.85-3.146v-1.108A3.143,3.143,0,0,0,2482.984,1315.085Z" transform="translate(-2442.2 -1314.087)" fill="url(#linear-gradient-12)"/>
          <path id="Path_158" data-name="Path 158" d="M2482.984,2535.842l-37.777,1.254a3.3,3.3,0,0,0-3.007,3.4v1.141a3.023,3.023,0,0,0,3.007,3.186l37.777-1.444a3.188,3.188,0,0,0,2.85-3.316v-1.108A2.926,2.926,0,0,0,2482.984,2535.842Z" transform="translate(-2442.2 -2445.694)" fill="url(#linear-gradient-25)"/>
        </g>
      </g>
    </g>
  </g>
</svg>
