<svg id="Group_3786" data-name="Group 3786" xmlns="http://www.w3.org/2000/svg" width="67" height="67" viewBox="0 0 67 67">
  <g id="Group_1427" data-name="Group 1427">
    <rect id="Rectangle_1779" data-name="Rectangle 1779" width="67" height="67" rx="12" fill="#e8fff3"/>
  </g>
  <g id="Black-1" transform="translate(16.134 15)">
    <path id="Path_4857" data-name="Path 4857" d="M10.1.358A2.776,2.776,0,0,0,8.615,1.511c-.473.713-.459.54-.459,6.29v5.209H2.109l-.43.216A2.186,2.186,0,0,0,.648,14.3C.5,14.63.5,14.688.5,20.43c0,5.519.007,5.814.134,6.153a2.313,2.313,0,0,0,.953,1.11l.325.195,3.126.022,3.119.022v3.444c0,3.17.007,3.473.134,3.847a2.851,2.851,0,0,0,1.489,1.7l.388.187H32.536l.423-.2a3.164,3.164,0,0,0,1.256-1.167c.388-.735.36.108.388-12.9.014-8.372,0-12.111-.056-12.3s-1.087-1.34-4.784-5.259L25.049.293,17.717.279C11.981.271,10.315.286,10.1.358Zm13.315,6.1.021,4.755.2.195.191.2,4.657.022,4.657.014L33.121,23.19,33.1,34.739l-.2.31a1.347,1.347,0,0,1-.565.483l-.367.173H21.422c-7.515,0-10.634-.022-10.831-.079a1.7,1.7,0,0,1-.946-.965c-.049-.195-.078-1.376-.078-3.516V27.923H21.881l.367-.173a2.2,2.2,0,0,0,1.08-1.174c.141-.389.141-.49.127-6.2l-.021-5.814-.162-.331a2.271,2.271,0,0,0-1.122-1.073c-.367-.137-.557-.144-6.478-.144h-6.1V8.016c0-3.336.028-5.079.078-5.267a1.651,1.651,0,0,1,.875-.944A60.212,60.212,0,0,1,17.1,1.7h6.3Zm4.939-.49c1.877,2,3.521,3.746,3.648,3.891l.233.274H24.88V6.237c0-2.14.014-3.891.028-3.891S26.467,3.975,28.351,5.963ZM21.5,14.522a.744.744,0,0,1,.388.274c.127.187.134.476.155,5.533.021,5.915.028,5.807-.409,6.023-.233.122-.84.13-9.653.13-10.281,0-9.766.022-9.956-.4-.056-.13-.078-1.715-.078-5.648V14.969l.176-.223a.794.794,0,0,1,.339-.245C2.814,14.429,21.253,14.45,21.5,14.522Z" transform="translate(-0.5 -0.277)" fill="#00bf58"/>
  </g>
  <text id="XLS" transform="translate(20 38)" fill="#00bf58" font-size="9" font-family="Poppins-Bold, Poppins" font-weight="700" letter-spacing="0.025em"><tspan x="0" y="0">XLS</tspan></text>
</svg>
