<svg xmlns="http://www.w3.org/2000/svg" width="216" height="220.5" viewBox="0 0 216 220.5">
  <g id="Group_1735" data-name="Group 1735" transform="translate(-17.901 -115.279)">
    <g id="Group_12" data-name="Group 12" transform="translate(18.474 143.67)" opacity="0.4" style="mix-blend-mode: multiply;isolation: isolate">
      <circle id="Ellipse_67" data-name="Ellipse 67" cx="56.634" cy="56.634" r="56.634" transform="matrix(0.548, -0.837, 0.837, 0.548, 0.585, 129.464)" fill="#008461" opacity="0.053"/>
      <circle id="Ellipse_68" data-name="Ellipse 68" cx="56.634" cy="56.634" r="56.634" transform="translate(0 112.017) rotate(-45)" fill="#008461" opacity="0.053"/>
      <circle id="Ellipse_69" data-name="Ellipse 69" cx="56.634" cy="56.634" r="56.634" transform="translate(1.101 110.916) rotate(-45)" fill="#008461" opacity="0.053"/>
      <circle id="Ellipse_70" data-name="Ellipse 70" cx="56.634" cy="56.634" r="56.634" transform="translate(2.202 109.815) rotate(-45)" fill="#008461" opacity="0.053"/>
      <circle id="Ellipse_71" data-name="Ellipse 71" cx="56.634" cy="56.634" r="56.634" transform="matrix(0.235, -0.972, 0.972, 0.235, 15.059, 150.488)" fill="#008461" opacity="0.053"/>
      <circle id="Ellipse_72" data-name="Ellipse 72" cx="56.634" cy="56.634" r="56.634" transform="translate(15.289 147.928) rotate(-75.222)" fill="#008461" opacity="0.053"/>
      <circle id="Ellipse_73" data-name="Ellipse 73" cx="56.634" cy="56.634" r="56.634" transform="matrix(0.235, -0.972, 0.972, 0.235, 17.261, 148.286)" fill="#008461" opacity="0.053"/>
      <circle id="Ellipse_74" data-name="Ellipse 74" cx="56.634" cy="56.634" r="56.634" transform="matrix(0.235, -0.972, 0.972, 0.235, 18.361, 147.185)" fill="#008461" opacity="0.053"/>
      <circle id="Ellipse_75" data-name="Ellipse 75" cx="56.634" cy="56.634" r="56.634" transform="translate(7.706 104.311) rotate(-45)" fill="#008461" opacity="0.053"/>
      <circle id="Ellipse_76" data-name="Ellipse 76" cx="56.634" cy="56.634" r="56.634" transform="translate(8.807 103.21) rotate(-45)" fill="#008461" opacity="0.053"/>
      <circle id="Ellipse_77" data-name="Ellipse 77" cx="56.634" cy="56.634" r="56.634" transform="matrix(0.87, -0.492, 0.492, 0.87, 12.823, 80.695)" fill="#008461" opacity="0.053"/>
      <circle id="Ellipse_78" data-name="Ellipse 78" cx="56.634" cy="56.634" r="56.634" transform="translate(11.008 101.008) rotate(-45)" fill="#008461" opacity="0.053"/>
      <circle id="Ellipse_79" data-name="Ellipse 79" cx="56.634" cy="56.634" r="56.634" transform="translate(12.109 99.908) rotate(-45)" fill="#008461" opacity="0.053"/>
      <circle id="Ellipse_80" data-name="Ellipse 80" cx="56.634" cy="56.634" r="56.634" transform="translate(13.21 98.807) rotate(-45)" fill="#008461" opacity="0.053"/>
      <circle id="Ellipse_81" data-name="Ellipse 81" cx="56.634" cy="56.634" r="56.634" transform="translate(14.311 97.706) rotate(-45)" fill="#008461" opacity="0.053"/>
      <circle id="Ellipse_82" data-name="Ellipse 82" cx="56.634" cy="56.634" r="56.634" transform="matrix(0.973, -0.23, 0.23, 0.973, 27.364, 54.513)" fill="#008461" opacity="0.053"/>
      <circle id="Ellipse_83" data-name="Ellipse 83" cx="56.634" cy="56.634" r="56.634" transform="translate(39.971 38.87)" fill="#008461" opacity="0.053"/>
      <circle id="Ellipse_84" data-name="Ellipse 84" cx="56.634" cy="56.634" r="56.634" transform="translate(41.072 37.769)" fill="#008461" opacity="0.053"/>
      <circle id="Ellipse_85" data-name="Ellipse 85" cx="56.634" cy="56.634" r="56.634" transform="translate(42.173 36.668)" fill="#008461" opacity="0.053"/>
      <circle id="Ellipse_86" data-name="Ellipse 86" cx="56.634" cy="56.634" r="56.634" transform="translate(43.273 35.568)" fill="#008461" opacity="0.053"/>
      <circle id="Ellipse_87" data-name="Ellipse 87" cx="56.634" cy="56.634" r="56.634" transform="matrix(0.194, -0.981, 0.981, 0.194, 34.467, 135.678)" fill="#008461" opacity="0.053"/>
      <circle id="Ellipse_88" data-name="Ellipse 88" cx="56.634" cy="56.634" r="56.634" transform="matrix(0.158, -0.987, 0.987, 0.158, 37.246, 136.985)" fill="#008461" opacity="0.053"/>
      <circle id="Ellipse_89" data-name="Ellipse 89" cx="56.634" cy="56.634" r="56.634" transform="matrix(0.158, -0.987, 0.987, 0.158, 38.347, 135.884)" fill="#008461" opacity="0.053"/>
      <circle id="Ellipse_90" data-name="Ellipse 90" cx="56.634" cy="56.634" r="56.634" transform="matrix(0.158, -0.987, 0.987, 0.158, 39.447, 134.783)" fill="#008461" opacity="0.053"/>
      <circle id="Ellipse_91" data-name="Ellipse 91" cx="56.634" cy="56.634" r="56.634" transform="translate(25.319 86.698) rotate(-45)" fill="#008461" opacity="0.053"/>
      <circle id="Ellipse_92" data-name="Ellipse 92" cx="56.634" cy="56.634" r="56.634" transform="translate(26.42 85.597) rotate(-45)" fill="#008461" opacity="0.053"/>
      <circle id="Ellipse_93" data-name="Ellipse 93" cx="56.634" cy="56.634" r="56.634" transform="translate(27.521 84.496) rotate(-45)" fill="#008461" opacity="0.053"/>
      <circle id="Ellipse_94" data-name="Ellipse 94" cx="56.634" cy="56.634" r="56.634" transform="translate(28.622 83.395) rotate(-45)" fill="#008461" opacity="0.053"/>
      <circle id="Ellipse_95" data-name="Ellipse 95" cx="56.634" cy="56.634" r="56.634" transform="translate(29.722 82.294) rotate(-45)" fill="#008461" opacity="0.053"/>
      <circle id="Ellipse_96" data-name="Ellipse 96" cx="56.634" cy="56.634" r="56.634" transform="translate(30.823 81.194) rotate(-45)" fill="#008461" opacity="0.053"/>
      <circle id="Ellipse_97" data-name="Ellipse 97" cx="56.634" cy="56.634" r="56.634" transform="translate(31.924 80.093) rotate(-45)" fill="#008461" opacity="0.053"/>
      <circle id="Ellipse_98" data-name="Ellipse 98" cx="56.634" cy="56.634" r="56.634" transform="matrix(0.235, -0.972, 0.972, 0.235, 44.781, 120.765)" fill="#008461" opacity="0.053"/>
    </g>
    <g id="Group_1612" data-name="Group 1612" transform="translate(63.255 154.325)">
      <g id="Group_13" data-name="Group 13">
        <circle id="Ellipse_99" data-name="Ellipse 99" cx="56.634" cy="56.634" r="56.634" transform="matrix(0.235, -0.972, 0.972, 0.235, 0, 110.11)" fill="#fff"/>
        <path id="Path_9" data-name="Path 9" d="M122.612,272.509a57.826,57.826,0,1,1,57.825-57.825A57.892,57.892,0,0,1,122.612,272.509Zm0-113.268a55.442,55.442,0,1,0,55.442,55.443A55.505,55.505,0,0,0,122.612,159.241Z" transform="translate(-54.275 -146.347)" fill="#008461"/>
      </g>
      <g id="Group_14" data-name="Group 14" transform="translate(5 16.617)">
        <path id="Path_10" data-name="Path 10" d="M117.69,277.037A57.789,57.789,0,0,1,61.43,231.58a.894.894,0,0,1,1.748-.373,55.8,55.8,0,0,0,71.782,41.314.894.894,0,1,1,.554,1.7A57.5,57.5,0,0,1,117.69,277.037Zm37.919-14.567a.894.894,0,0,1-.6-1.558,55.851,55.851,0,0,0,18.419-41.4v-.23a.893.893,0,0,1,.888-.9h.006a.9.9,0,0,1,.894.888v.242a57.641,57.641,0,0,1-19.009,42.731A.9.9,0,0,1,155.608,262.47ZM61.056,220.462a.846.846,0,0,1-.894-.836v-.118a57.647,57.647,0,0,1,18.921-42.649.893.893,0,1,1,1.2,1.324A55.862,55.862,0,0,0,61.95,219.508.947.947,0,0,1,61.056,220.462ZM173.048,208.4a.892.892,0,0,1-.871-.706,55.8,55.8,0,0,0-71.869-41.165.894.894,0,1,1-.558-1.7,57.592,57.592,0,0,1,74.173,42.488.892.892,0,0,1-.684,1.062A.871.871,0,0,1,173.048,208.4Z" transform="translate(-60.162 -161.981)"/>
      </g>
      <path id="Path_11" data-name="Path 11" d="M146.615,182.021,107.6,221.04,92.148,205.592,81.41,216.331,107.6,242.518l49.758-49.758Z" transform="translate(-51.085 -141.519)" fill="#008461"/>
    </g>
    <rect id="Rectangle_1757" data-name="Rectangle 1757" width="50" height="11" transform="translate(17.901 232.279)" fill="none"/>
    <rect id="Rectangle_1758" data-name="Rectangle 1758" width="45" height="10" transform="translate(188.901 227.279)" fill="rgba(60,26,26,0)"/>
    <rect id="Rectangle_1760" data-name="Rectangle 1760" width="50" height="10" transform="translate(136.901 115.279) rotate(90)" fill="rgba(60,26,26,0)"/>
  </g>
</svg>
