<svg xmlns="http://www.w3.org/2000/svg" width="24.327" height="24.327" viewBox="0 0 24.327 24.327">
  <g id="scan" transform="translate(0.75 0.75)">
    <path id="Path_4839" data-name="Path 4839" d="M2,9.989V7.136A5.129,5.129,0,0,1,7.136,2H9.989" transform="translate(-2 -2)" fill="none" stroke="#004c97" stroke-linecap="round" stroke-linejoin="round" stroke-width="1.5"/>
    <path id="Path_4840" data-name="Path 4840" d="M15,2h2.853a5.129,5.129,0,0,1,5.136,5.136V9.989" transform="translate(-0.163 -2)" fill="none" stroke="#004c97" stroke-linecap="round" stroke-linejoin="round" stroke-width="1.5"/>
    <path id="Path_4841" data-name="Path 4841" d="M22.848,16v1.712a5.129,5.129,0,0,1-5.136,5.136H16" transform="translate(-0.021 -0.021)" fill="none" stroke="#004c97" stroke-linecap="round" stroke-linejoin="round" stroke-width="1.5"/>
    <path id="Path_4842" data-name="Path 4842" d="M9.989,22.989H7.136A5.129,5.129,0,0,1,2,17.853V15" transform="translate(-2 -0.163)" fill="none" stroke="#004c97" stroke-linecap="round" stroke-linejoin="round" stroke-width="1.5"/>
    <path id="Path_4843" data-name="Path 4843" d="M18.413,9.924v5.707q0,3.424-3.424,3.424H10.424Q7,19.055,7,15.631V9.924Q7,6.5,10.424,6.5h4.565Q18.413,6.5,18.413,9.924Z" transform="translate(-1.293 -1.364)" fill="none" stroke="#004c97" stroke-linecap="round" stroke-linejoin="round" stroke-width="1.5"/>
    <path id="Path_4844" data-name="Path 4844" d="M20.979,12H5" transform="translate(-1.576 -0.587)" fill="none" stroke="#004c97" stroke-linecap="round" stroke-linejoin="round" stroke-width="1.5"/>
  </g>
</svg>
