<svg xmlns="http://www.w3.org/2000/svg" width="48" height="48" viewBox="0 0 48 48">
  <g id="Group_756" data-name="Group 756" transform="translate(-32 -280)">
    <rect id="Rectangle_661" data-name="Rectangle 661" width="48" height="48" rx="10" transform="translate(32 280)" fill="#eff7ff"/>
    <path id="gear" d="M23.435,9.267l-1.845-.4A10.039,10.039,0,0,0,21,7.435l1.021-1.588a.717.717,0,0,0-.1-.895L19.048,2.078a.717.717,0,0,0-.895-.1L16.565,3a10.039,10.039,0,0,0-1.432-.594l-.4-1.845a.717.717,0,0,0-.7-.565H9.968a.717.717,0,0,0-.7.565l-.4,1.845A10.039,10.039,0,0,0,7.435,3L5.846,1.982a.717.717,0,0,0-.895.1L2.078,4.951a.717.717,0,0,0-.1.895L3,7.435a10.039,10.039,0,0,0-.594,1.432l-1.845.4a.717.717,0,0,0-.565.7v4.064a.717.717,0,0,0,.565.7l1.845.4A10.039,10.039,0,0,0,3,16.565L1.982,18.153a.717.717,0,0,0,.1.895l2.874,2.874a.717.717,0,0,0,.895.1L7.435,21a10.039,10.039,0,0,0,1.432.594l.4,1.845a.717.717,0,0,0,.7.565h4.064a.717.717,0,0,0,.7-.565l.4-1.845A10.039,10.039,0,0,0,16.565,21l1.588,1.021a.717.717,0,0,0,.895-.1l2.874-2.874a.717.717,0,0,0,.1-.895L21,16.565a10.039,10.039,0,0,0,.594-1.432l1.845-.4a.717.717,0,0,0,.565-.7V9.968A.717.717,0,0,0,23.435,9.267ZM16.3,12A4.3,4.3,0,1,1,12,7.7,4.308,4.308,0,0,1,16.3,12Zm0,0" transform="translate(44 292)" fill="#456efe"/>
  </g>
</svg>
