<svg xmlns="http://www.w3.org/2000/svg" width="24.5" height="24.5" viewBox="0 0 24.5 24.5">
  <g id="transaction" transform="translate(0.25 0.25)">
    <path id="Path_2093" data-name="Path 2093" d="M23.571,11.2H19.714V2a2.078,2.078,0,0,0-2.143-2H3.429A1.66,1.66,0,0,0,1.714,1.6V6.4H.429A.415.415,0,0,0,0,6.8V9.2a.415.415,0,0,0,.429.4H1.714V14a.415.415,0,0,0,.429.4H4.286v8A1.66,1.66,0,0,0,6,24H20.143a1.6,1.6,0,1,0,0-3.2h-.429V14.4h3.857A.415.415,0,0,0,24,14V11.6A.415.415,0,0,0,23.571,11.2Zm-21-9.6A.83.83,0,0,1,3.429.8a.83.83,0,0,1,.857.8V6.4H2.571ZM.857,7.2h12a.42.42,0,0,0,.425-.349L14.759,8,13.282,9.149a.42.42,0,0,0-.425-.349h-12Zm1.714,6.4v-4H4.286v4ZM21,22.4a.83.83,0,0,1-.857.8H7.484a1.507,1.507,0,0,0,.23-.8v-.8H20.143a.83.83,0,0,1,.857.8Zm-2.143-1.6H7.286a.415.415,0,0,0-.429.4v1.2a.859.859,0,0,1-1.714,0V9.6h7.286V10a.4.4,0,0,0,.247.363.453.453,0,0,0,.456-.055l2.571-2a.383.383,0,0,0,0-.614l-2.571-2a.453.453,0,0,0-.456-.055A.4.4,0,0,0,12.429,6v.4H5.143V1.6A1.5,1.5,0,0,0,4.905.8H17.571A1.245,1.245,0,0,1,18.857,2v9.2H11.571v-.4a.4.4,0,0,0-.247-.363.453.453,0,0,0-.456.055l-2.571,2a.383.383,0,0,0,0,.614l2.571,2a.453.453,0,0,0,.456.055.4.4,0,0,0,.247-.363v-.4h7.286Zm4.286-7.2h-12a.334.334,0,0,0-.206.056.436.436,0,0,0-.086.054.427.427,0,0,0-.038.046.379.379,0,0,0-.054.074.333.333,0,0,0-.02.058.329.329,0,0,0-.021.061L9.241,12.8l1.477-1.149a.329.329,0,0,0,.021.061.317.317,0,0,0,.02.058.37.37,0,0,0,.054.074.427.427,0,0,0,.038.046.436.436,0,0,0,.086.054.334.334,0,0,0,.207.056h12Zm0,0" fill="#456efe" stroke="#456efe" stroke-width="0.5"/>
    <path id="Path_2094" data-name="Path 2094" d="M128,48h4.226v.845H128Zm0,0" transform="translate(-121.122 -45.464)" fill="#456efe" stroke="#456efe" stroke-width="0.5"/>
    <path id="Path_2095" data-name="Path 2095" d="M128,80h4.226v.845H128Zm0,0" transform="translate(-121.122 -75.774)" fill="#456efe" stroke="#456efe" stroke-width="0.5"/>
    <path id="Path_2096" data-name="Path 2096" d="M160,352h8.452v.845H160Zm0,0" transform="translate(-151.362 -334.434)" fill="#456efe" stroke="#456efe" stroke-width="0.5"/>
    <path id="Path_2097" data-name="Path 2097" d="M160,384h8.452v.845H160Zm0,0" transform="translate(-151.362 -364.837)" fill="#456efe" stroke="#456efe" stroke-width="0.5"/>
    <path id="Path_2098" data-name="Path 2098" d="M272,320h2.536v.845H272Zm0,0" transform="translate(-257.404 -304.031)" fill="#456efe" stroke="#456efe" stroke-width="0.5"/>
  </g>
</svg>
