<svg xmlns="http://www.w3.org/2000/svg" xmlns:xlink="http://www.w3.org/1999/xlink" width="168" height="106" viewBox="0 0 168 106">
  <defs>
    <clipPath id="clip-path">
      <rect id="Rectangle_777" data-name="Rectangle 777" width="168" height="106" transform="translate(0 0.105)" fill="#fff"/>
    </clipPath>
  </defs>
  <g id="Mask_Group_1" data-name="Mask Group 1" transform="translate(0 -0.105)" clip-path="url(#clip-path)">
    <g id="undraw_Detailed_information_re_qmuc" transform="translate(0 3.351)">
      <path id="Path_103" data-name="Path 103" d="M48.638,70.186l-.179-.04a40.815,40.815,0,0,1,79.6-.109l-.179.041A40.4,40.4,0,0,0,88.269,38.515,40.886,40.886,0,0,0,48.638,70.186Z" transform="translate(-4.232 -16.265)" fill="#e6e6e6"/>
      <path id="Path_104" data-name="Path 104" d="M176.444,113.877h-168V18.366h168ZM8.756,113.566H176.133V18.677H8.756Z" transform="translate(-8.444 -18.366)" fill="#3f3d56"/>
      <circle id="Ellipse_12" data-name="Ellipse 12" cx="1.4" cy="1.4" r="1.4" transform="translate(10.111 8.4)" fill="#6c63ff"/>
      <circle id="Ellipse_13" data-name="Ellipse 13" cx="1.4" cy="1.4" r="1.4" transform="translate(14.311 8.4)" fill="#f2f2f2"/>
      <circle id="Ellipse_14" data-name="Ellipse 14" cx="1.4" cy="1.4" r="1.4" transform="translate(18.511 8.4)" fill="#f2f2f2"/>
      <path id="Path_107" data-name="Path 107" d="M155.446,90.455v10.389H144.383a13.494,13.494,0,0,1,11.063-10.389Z" transform="translate(5.865 -10.777)" fill="#e6e6e6"/>
      <path id="Path_108" data-name="Path 108" d="M140.342,44.147l-.1-.12L103,74.909l-.12.1,25.8,31.111h.4L103.323,75.049,140.2,44.466l19.612,23.649v-.488Z" transform="translate(1.497 -15.664)" fill="#e6e6e6"/>
      <circle id="Ellipse_15" data-name="Ellipse 15" cx="9.597" cy="9.597" r="9.597" transform="translate(99.998 25.064)" fill="#a0616a"/>
      <path id="Path_111" data-name="Path 111" d="M125.295,68.967l-5.34,15.483h0l-2.574,7.465s-.263,11.87-.527,11.87c-.055,0-.133.171-.22.441H91.061L93.113,82.42,92.987,81.4,91.382,68.379A6.527,6.527,0,0,1,95.7,61.422l2.683-.943a21.237,21.237,0,0,1,10.968-.836h0a21.237,21.237,0,0,1,8.961,3.991Z" transform="translate(0.252 -14.059)" fill="#6c63ff"/>
      <path id="Path_113" data-name="Path 113" d="M116.88,43.235s-3.047-6.6-8.887-5.078-9.141,3.809-9.394,6.094a32.609,32.609,0,0,0,.127,5.713s.635-4.7,4.7-3.682,10.41.254,10.41.254l1.016,9.141s1.143-1.65,2.412-.635S120.942,45.266,116.88,43.235Z" transform="translate(1.036 -16.306)" fill="#2f2e41"/>
      <path id="Path_114" data-name="Path 114" d="M127.622,92.049a32.994,32.994,0,0,1-2.215,11.255H117.8l.067-.176,2.11-9.233-.791-3.165-1.911-7.2h0a21.051,21.051,0,0,1,.169-11.4l.087-.291a5.3,5.3,0,0,1,5.085-3.793h0a10.722,10.722,0,0,1,3.165,8.441Z" transform="translate(2.937 -13.136)" fill="#6c63ff"/>
      <path id="Path_121" data-name="Path 121" d="M146.92,36.53a5.192,5.192,0,1,1,5.192-5.192h0a5.192,5.192,0,0,1-5.192,5.192Zm0-10.142a4.95,4.95,0,1,0,4.95,4.95h0a4.95,4.95,0,0,0-4.95-4.95Z" transform="translate(5.585 -17.547)" fill="#ccc"/>
      <path id="Path_123" data-name="Path 123" d="M169.119,108.34H14.5V22.94H169.119Zm-154.336-.278H168.832V23.218H14.783Z" transform="translate(-7.807 -17.884)" fill="#ccc"/>
      <path id="Path_122" data-name="Path 122" d="M148.827,29.069l-.113-.113-2.108,2.109L144.5,28.955l-.113.113,2.108,2.108L144.664,33l.113.113,1.828-1.828,1.828,1.828.113-.113-1.828-1.828Z" transform="translate(5.865 -17.251)" fill="#3f3d56"/>
      <path id="Path_146" data-name="Path 146" d="M72.166,67.265H19.452a1.862,1.862,0,0,0-1.859,1.859V89.466a1.862,1.862,0,0,0,1.859,1.86H72.166a1.862,1.862,0,0,0,1.859-1.859V69.125a1.862,1.862,0,0,0-1.859-1.859Zm1.64,22.2a1.642,1.642,0,0,1-1.64,1.64H19.452a1.643,1.643,0,0,1-1.64-1.64V69.125a1.643,1.643,0,0,1,1.64-1.64H72.166a1.643,1.643,0,0,1,1.64,1.64Z" transform="translate(-7.481 -13.218)" fill="#3f3d56"/>
      <path id="Path_141" data-name="Path 141" d="M66.95,72.613H39.336a1.4,1.4,0,0,0-1.492,1.2.333.333,0,0,0,0,.049A1.388,1.388,0,0,0,39.336,75.1H66.95a1.265,1.265,0,1,0,0-2.489Z" transform="translate(-5.35 -12.655)" fill="#6c63ff"/>
      <path id="Path_141-2" data-name="Path 141-2" d="M66.95,77.117H39.336a1.4,1.4,0,0,0-1.492,1.2.333.333,0,0,0,0,.049,1.388,1.388,0,0,0,1.494,1.244H66.95a1.265,1.265,0,1,0,0-2.489Z" transform="translate(-5.35 -12.181)" fill="#6c63ff"/>
      <path id="Path_141-3" data-name="Path 141-3" d="M66.95,81.621H39.336a1.4,1.4,0,0,0-1.492,1.2.333.333,0,0,0,0,.049,1.388,1.388,0,0,0,1.494,1.244H66.95a1.265,1.265,0,1,0,0-2.489Z" transform="translate(-5.35 -11.707)" fill="#6c63ff"/>
      <path id="Path_140" data-name="Path 140" d="M28.07,85.409a6.588,6.588,0,1,1,6.588-6.588A6.588,6.588,0,0,1,28.07,85.409Zm0-12.949a6.361,6.361,0,1,0,6.361,6.361h0A6.361,6.361,0,0,0,28.07,72.46Z" transform="translate(-7.072 -12.695)" fill="#3f3d56"/>
      <path id="Path_118" data-name="Path 118" d="M50.637,98.136h-5.6v-5.6h5.6Zm-5.289-.311h4.978V92.847H45.348Z" transform="translate(-4.593 -10.558)" fill="#ff6584"/>
      <path id="Path_119" data-name="Path 119" d="M39.2,96.6l-2-1.834.21-.229,1.733,1.589,3.944-5.916.259.173Z" transform="translate(-5.417 -10.804)" fill="#3f3d56"/>
      <path id="Path_120" data-name="Path 120" d="M41.319,93.936v3.889H36.341V92.847H40.23v-.311h-4.2v5.6h5.6v-4.2Z" transform="translate(-5.541 -10.558)" fill="#e5e5e5"/>
      <circle id="Ellipse_18" data-name="Ellipse 18" cx="3.656" cy="3.656" r="3.656" transform="translate(14.933 64.556)" fill="#6c63ff"/>
      <path id="Path_2742" data-name="Path 2742" d="M68.527,106.587A2.913,2.913,0,0,1,72.1,103.9l5.519-8.756,2.22,4.9-5.581,7.564a2.928,2.928,0,0,1-5.726-1.021Z" transform="translate(-2.12 -10.284)" fill="#a0616a"/>
      <path id="Path_115" data-name="Path 115" d="M96.941,62.118l-.3.054a9.793,9.793,0,0,0-7.521,6.2q-.054.147-.1.3l-2.11,9.5-14.508,27.7,4.485,2.638s12.4-14.508,13.98-19.52l6.373-12.255a3.972,3.972,0,0,0,.445-1.985L97.2,62.326a.22.22,0,0,0-.258-.208Z" transform="translate(-1.713 -13.761)" fill="#6c63ff"/>
    </g>
  </g>
</svg>
