<svg xmlns="http://www.w3.org/2000/svg" width="67" height="67" viewBox="0 0 67 67">
  <g id="Group_2617" data-name="Group 2617" transform="translate(5174 3759)">
    <rect id="Rectangle_1708" data-name="Rectangle 1708" width="67" height="67" rx="12" transform="translate(-5174 -3759)" fill="#e9ecf5" style="mix-blend-mode: luminosity;isolation: isolate"/>
    <g id="scan" transform="translate(-5154 -3739.277)">
      <path id="Path_4839" data-name="Path 4839" d="M2,11.412V8.051A6.043,6.043,0,0,1,8.051,2h3.361" transform="translate(-2 -2)" fill="none" stroke="#6e6e6e" stroke-linecap="round" stroke-linejoin="round" stroke-width="2"/>
      <path id="Path_4840" data-name="Path 4840" d="M15,2h3.361a6.043,6.043,0,0,1,6.051,6.051v3.361" transform="translate(2.48 -2)" fill="none" stroke="#6e6e6e" stroke-linecap="round" stroke-linejoin="round" stroke-width="2"/>
      <path id="Path_4841" data-name="Path 4841" d="M24.067,16v2.017a6.043,6.043,0,0,1-6.051,6.051H16" transform="translate(2.824 2.824)" fill="none" stroke="#6e6e6e" stroke-linecap="round" stroke-linejoin="round" stroke-width="2"/>
      <path id="Path_4842" data-name="Path 4842" d="M11.412,24.412H8.051A6.043,6.043,0,0,1,2,18.361V15" transform="translate(-2 2.48)" fill="none" stroke="#6e6e6e" stroke-linecap="round" stroke-linejoin="round" stroke-width="2"/>
      <path id="Path_4843" data-name="Path 4843" d="M20.446,10.534v6.723q0,4.034-4.034,4.034H11.034Q7,21.29,7,17.257V10.534Q7,6.5,11.034,6.5h5.378Q20.446,6.5,20.446,10.534Z" transform="translate(-0.277 -0.449)" fill="none" stroke="#6e6e6e" stroke-linecap="round" stroke-linejoin="round" stroke-width="2"/>
      <path id="Path_4844" data-name="Path 4844" d="M23.824,12H5" transform="translate(-0.966 1.446)" fill="none" stroke="#6e6e6e" stroke-linecap="round" stroke-linejoin="round" stroke-width="2"/>
    </g>
  </g>
</svg>
