<svg xmlns="http://www.w3.org/2000/svg" xmlns:xlink="http://www.w3.org/1999/xlink" width="160" height="112" viewBox="0 0 160 112"><defs><style>.a,.g{fill:#fff;}.a{stroke:#707070;}.b{clip-path:url(#a);}.c,.d{fill:#6c63ff;}.c,.n,.p{opacity:0.1;}.e{fill:#444053;}.f{fill:#3f3d56;}.h{fill:#fa5959;}.h,.i,.j{opacity:0.8;}.i{fill:#fed253;}.j{fill:#8ccf4d;}.k{opacity:0.05;}.l{fill:url(#b);}.m{fill:#fbbebe;}.o{fill:#33313f;}</style><clipPath id="a"><rect class="a" width="160" height="112" transform="translate(704 168)"/></clipPath><linearGradient id="b" y1="0.5" x2="1" y2="0.5" gradientUnits="objectBoundingBox"><stop offset="0" stop-color="gray" stop-opacity="0.251"/><stop offset="0.54" stop-color="gray" stop-opacity="0.122"/><stop offset="1" stop-color="gray" stop-opacity="0.102"/></linearGradient></defs><g class="b" transform="translate(-704 -168)"><g transform="translate(704 168.774)"><path class="c" d="M92.82,21.55c-10.256.014-20.127-2.894-29.569-6.123S44.439,8.581,34.374,7.048C27.9,6.063,20.54,6.153,15.48,9.73c-4.871,3.441-6.281,9.136-6.962,14.4-.512,3.958-.748,8.113,1.169,11.733,1.331,2.514,3.608,4.585,5.214,6.981,5.6,8.334,2.234,18.979-3.212,27.506-2.553,4-5.544,7.836-7.475,12.065s-2.722,9.026-.753,13.2c1.951,4.138,6.358,7.141,11.087,9.192,9.6,4.174,20.786,5.068,31.667,5.413,24.087.764,48.221-.794,72.29-2.353,8.907-.576,17.854-1.157,26.577-2.826,4.843-.926,9.83-2.3,13.265-5.314a10.963,10.963,0,0,0,2.079-14.56c-5.319-7.53-19.345-8.95-23.159-17.1-2.1-4.485-.289-9.629,2.382-13.952,5.729-9.276,15.591-17.585,15.758-27.96.114-7.125-5.015-14.075-12.675-17.172-8.029-3.243-18.976-2.409-24.6,3.636C112.345,18.85,101.876,21.541,92.82,21.55Z" transform="translate(-2.32 -6.512)"/><path class="d" d="M138.5,95.055a3.729,3.729,0,0,0-3.357-.321s.514.991,2.63.9Z" transform="translate(-2.32 -6.512)"/><path class="d" d="M138.71,95.114a3.728,3.728,0,0,1-.774,3.283s-.774-.805,0-2.778Z" transform="translate(-2.32 -6.512)"/><path class="d" d="M140.806,93.239s-.125-1.661-3.877-1.11a1.79,1.79,0,0,0,1.3,1.579A2.167,2.167,0,0,0,140.806,93.239Z" transform="translate(-2.32 -6.512)"/><path class="d" d="M141.042,93.228s1.586.509.172,4.028a1.8,1.8,0,0,1-1.235-1.634A2.151,2.151,0,0,1,141.042,93.228Z" transform="translate(-2.32 -6.512)"/><path class="d" d="M143.161,90.871s.215-2.734-3.619-2.455c0,0-.274,2.47,2.943,3.112Z" transform="translate(-2.32 -6.512)"/><path class="d" d="M145.695,87.784s-.525-3.1-4.359-2.176c0,0-.014,2.68,3.733,2.914Z" transform="translate(-2.32 -6.512)"/><path class="d" d="M147.547,84.592s-.881-3.018-4.679-2.116a4.388,4.388,0,0,0,4.426,2.673Z" transform="translate(-2.32 -6.512)"/><path class="d" d="M149.306,81.475s-.86-3.132-4.528-2.2c0,0,1.224,2.976,4.285,2.725Z" transform="translate(-2.32 -6.512)"/><path class="d" d="M150.439,78.514s-.661-3.831-4.08-2.983c0,0,.993,3.485,3.829,3.541Z" transform="translate(-2.32 -6.512)"/><path class="d" d="M151.5,74.938s-.794-3.861-4.253-2.744c0,0,1.356,3.65,4.008,3.272Z" transform="translate(-2.32 -6.512)"/><path class="d" d="M152.156,71.609s-1.261-3.862-3.935-3.758c0,0,1.288,4.079,3.711,4.528Z" transform="translate(-2.32 -6.512)"/><path class="d" d="M152.578,68.36s-1.372-4.648-3.548-4.29c0,0,.949,3.553,3.471,5.015Z" transform="translate(-2.32 -6.512)"/><path class="d" d="M152.817,64.484s-1.287-3.873-3.43-4.028c0,0,.875,3.811,3.387,5.035Z" transform="translate(-2.32 -6.512)"/><path class="d" d="M153.076,60.868s-1.6-3.877-3.018-3.965c0,0,.7,3.818,2.881,4.6Z" transform="translate(-2.32 -6.512)"/><path class="d" d="M153.253,57.5s-.986-4.211-2.4-4.561c0,0,.193,3.445,2.261,4.876Z" transform="translate(-2.32 -6.512)"/><path class="d" d="M153.788,53.1s-1.037-3.357-2.186-3.869c0,0,.226,3.958,1.921,4.69Z" transform="translate(-2.32 -6.512)"/><path class="d" d="M154.231,50.215l.209-5.919s-2.147,4.462-.364,6.957Z" transform="translate(-2.32 -6.512)"/><path class="d" d="M155.889,44.328s1.546-4.322,1.921-4.563c0,0-3.032,2.8-2.736,6.411Z" transform="translate(-2.32 -6.512)"/><path class="d" d="M143.265,90.85s2.719-.355,2.638,3.488c0,0-2.457.4-3.26-2.778Z" transform="translate(-2.32 -6.512)"/><path class="d" d="M145.824,87.679s3.142-.01,2.881,3.924c0,0-2.638.472-3.508-3.18Z" transform="translate(-2.32 -6.512)"/><path class="d" d="M147.577,84.846s2.852-1.338,4.677,2.116a4.389,4.389,0,0,1-4.93-1.557Z" transform="translate(-2.32 -6.512)"/><path class="d" d="M149.369,81.5s2.921-1.423,4.636,1.95c0,0-3.043,1.048-4.877-1.416Z" transform="translate(-2.32 -6.512)"/><path class="d" d="M150.4,78.6s2.811-2.685,5.054.03c0,0-2.872,2.21-5.183.568Z" transform="translate(-2.32 -6.512)"/><path class="d" d="M151.343,74.846s2.828-2.744,5.053.126c0,0-3.173,2.254-5.155.45Z" transform="translate(-2.32 -6.512)"/><path class="d" d="M151.872,71.5s2.179-3.43,4.744-2.664c0,0-2.261,3.632-4.72,3.47Z" transform="translate(-2.32 -6.512)"/><path class="d" d="M152.514,68.338s2.2-4.319,4.272-3.567c0,0-1.583,3.32-4.329,4.3Z" transform="translate(-2.32 -6.512)"/><path class="d" d="M152.666,64.259s2.257-3.4,4.371-2.984c0,0-1.845,3.448-4.591,3.968Z" transform="translate(-2.32 -6.512)"/><path class="d" d="M152.842,60.792s1.749-3.816,3.171-3.842c0,0-.84,3.788-3.053,4.489Z" transform="translate(-2.32 -6.512)"/><path class="d" d="M153.185,57.421s1.944-3.864,3.405-3.872c0,0-.995,3.3-3.341,4.211Z" transform="translate(-2.32 -6.512)"/><path class="d" d="M153.477,53.338s1.454-3.2,2.659-3.559c0,0-.727,3.9-2.5,4.407Z" transform="translate(-2.32 -6.512)"/><path class="d" d="M154.4,50.1l3.25-4.952s-.833,4.884-3.725,5.9Z" transform="translate(-2.32 -6.512)"/><path class="d" d="M156.635,44.727s3.777-2.607,3.914-3.028c0,0-1.921,3.651-5.488,4.3Z" transform="translate(-2.32 -6.512)"/><path class="d" d="M156.862,43.554s4.337-4.17,5.444-4.165a7.08,7.08,0,0,0-5.548,3.943Z" transform="translate(-2.32 -6.512)"/><path class="e" d="M153.519,53.957l.158.021c.815-6.378,2-10.153,3.345-10.615l-.052-.151C155.547,43.705,154.351,47.422,153.519,53.957Z" transform="translate(-2.32 -6.512)"/><path class="e" d="M152.32,69.211l.239.019c.051-.6.089-1.2.115-1.812.228-5.279.58-10.128,1.044-13.763l-.137-.172c-.465,3.643-.918,8.637-1.146,13.924C152.409,68.012,152.371,68.618,152.32,69.211Z" transform="translate(-2.32 -6.512)"/><path class="e" d="M134.045,98.1a31.076,31.076,0,0,0,8.605-6.37,34.6,34.6,0,0,0,6.291-8.918A40.4,40.4,0,0,0,152.6,68.755l-.248.117a36.7,36.7,0,0,1-9.918,22.618,30.752,30.752,0,0,1-8.516,6.311Z" transform="translate(-2.32 -6.512)"/><path class="f" d="M144.926,18.205H13.093a1.174,1.174,0,0,0-1.174,1.174V22.8H146.1V19.38A1.174,1.174,0,0,0,144.926,18.205Z" transform="translate(-2.32 -6.512)"/><path class="g" d="M11.919,22.8v77a2.368,2.368,0,0,0,2.368,2.368H143.733A2.368,2.368,0,0,0,146.1,99.8v-77Z" transform="translate(-2.32 -6.512)"/><circle class="h" cx="0.549" cy="0.549" r="0.549" transform="translate(11.175 13.409)"/><circle class="i" cx="0.549" cy="0.549" r="0.549" transform="translate(12.684 13.409)"/><circle class="j" cx="0.549" cy="0.549" r="0.549" transform="translate(14.193 13.409)"/><rect class="k" width="107.84" height="47.419" transform="translate(22.071 29.129)"/><rect class="f" width="106.193" height="46.374" transform="translate(22.895 29.489)"/><path class="d" d="M54.164,47.935A10.564,10.564,0,1,0,64.729,58.5,10.564,10.564,0,0,0,54.164,47.935Zm1.895,10.818v5H52.324v-5a3.094,3.094,0,1,1,3.735,0Z" transform="translate(-2.32 -6.512)"/><path class="k" d="M54.164,47.935A10.564,10.564,0,1,0,64.729,58.5,10.564,10.564,0,0,0,54.164,47.935Zm1.895,10.818v5H52.324v-5a3.094,3.094,0,1,1,3.735,0Z" transform="translate(-2.32 -6.512)"/><path class="d" d="M54.164,44.917A13.583,13.583,0,1,0,67.747,58.5,13.583,13.583,0,0,0,54.164,44.917ZM56.6,58.826v6.431H51.8V58.826a3.979,3.979,0,1,1,4.8,0Z" transform="translate(-2.32 -6.512)"/><rect class="g" width="43.904" height="4.665" transform="translate(71.052 50.206)"/><rect class="d" width="9.467" height="4.665" transform="translate(105.489 58.712)"/><path class="d" d="M77.694,58.98H76.9l.707-.705a.07.07,0,0,0,0-.1.069.069,0,0,0-.1,0l-.707.707v-.8a.069.069,0,0,0-.069-.069.07.07,0,0,0-.069.069v.8l-.705-.711a.069.069,0,0,0-.1,0,.07.07,0,0,0,0,.1l.707.705h-.8a.07.07,0,0,0-.069.069.069.069,0,0,0,.069.069h.8l-.707.707a.07.07,0,0,0,0,.1.071.071,0,0,0,.1,0l.705-.707V60a.069.069,0,1,0,.137,0V59.21l.707.707a.071.071,0,0,0,.1,0,.07.07,0,0,0,0-.1l-.707-.707h.794a.067.067,0,1,0,0-.133Z" transform="translate(-2.32 -6.512)"/><path class="d" d="M80.575,58.98h-.794l.707-.705a.07.07,0,0,0,0-.1.069.069,0,0,0-.1,0l-.707.707v-.8a.069.069,0,0,0-.069-.069.07.07,0,0,0-.069.069v.8l-.705-.711a.069.069,0,0,0-.1,0,.07.07,0,0,0,0,.1l.707.705h-.8a.07.07,0,0,0-.069.069.069.069,0,0,0,.069.069h.8l-.707.707a.07.07,0,0,0,0,.1.071.071,0,0,0,.1,0l.705-.707V60a.069.069,0,1,0,.137,0V59.21l.707.707a.071.071,0,0,0,.1,0,.07.07,0,0,0,0-.1l-.707-.707h.794a.067.067,0,1,0,0-.133Z" transform="translate(-2.32 -6.512)"/><path class="d" d="M83.456,58.98h-.794l.707-.705a.07.07,0,0,0,0-.1.069.069,0,0,0-.1,0l-.707.707v-.8a.069.069,0,0,0-.069-.069.07.07,0,0,0-.069.069v.8l-.705-.711a.069.069,0,0,0-.1,0,.07.07,0,0,0,0,.1l.707.705h-.8a.07.07,0,0,0-.069.069.069.069,0,0,0,.069.069h.8l-.707.707a.07.07,0,0,0,0,.1.071.071,0,0,0,.1,0l.705-.707V60a.069.069,0,1,0,.137,0V59.21l.707.707a.071.071,0,0,0,.1,0,.07.07,0,0,0,0-.1l-.707-.707h.794a.067.067,0,1,0,0-.133Z" transform="translate(-2.32 -6.512)"/><path class="d" d="M86.338,58.98h-.794l.707-.705a.07.07,0,0,0,0-.1.069.069,0,0,0-.1,0l-.707.707v-.8a.069.069,0,0,0-.069-.069.07.07,0,0,0-.069.069v.8l-.705-.711a.069.069,0,0,0-.1,0,.07.07,0,0,0,0,.1l.707.705h-.8a.07.07,0,0,0-.069.069.069.069,0,0,0,.069.069h.8l-.707.707a.07.07,0,0,0,0,.1.071.071,0,0,0,.1,0l.705-.707V60a.069.069,0,0,0,.137,0V59.21l.707.707a.071.071,0,0,0,.1,0,.07.07,0,0,0,0-.1l-.707-.707h.794a.067.067,0,1,0,0-.133Z" transform="translate(-2.32 -6.512)"/><path class="d" d="M89.219,58.98h-.794l.707-.705a.07.07,0,0,0,0-.1.069.069,0,0,0-.1,0l-.707.707v-.8a.069.069,0,0,0-.069-.069.07.07,0,0,0-.069.069v.8l-.705-.711a.069.069,0,0,0-.1,0,.07.07,0,0,0,0,.1l.707.705h-.8a.07.07,0,0,0-.069.069.069.069,0,0,0,.069.069h.8l-.707.707a.07.07,0,0,0,0,.1.071.071,0,0,0,.1,0l.705-.707V60a.069.069,0,1,0,.137,0V59.21l.707.707a.071.071,0,0,0,.1,0,.07.07,0,0,0,0-.1l-.707-.707h.794a.067.067,0,1,0,0-.133Z" transform="translate(-2.32 -6.512)"/><path class="d" d="M92.1,58.98h-.794l.707-.705a.07.07,0,0,0,0-.1.069.069,0,0,0-.1,0l-.707.707v-.8a.069.069,0,0,0-.069-.069.07.07,0,0,0-.069.069v.8l-.705-.711a.069.069,0,0,0-.1,0,.07.07,0,0,0,0,.1l.707.705h-.8a.07.07,0,0,0-.069.069.069.069,0,0,0,.069.069h.8l-.707.707a.07.07,0,0,0,0,.1.071.071,0,0,0,.1,0l.705-.707V60a.069.069,0,0,0,.137,0V59.21l.707.707a.071.071,0,0,0,.1,0,.07.07,0,0,0,0-.1l-.707-.707H92.1a.067.067,0,1,0,0-.133Z" transform="translate(-2.32 -6.512)"/><path class="d" d="M94.981,58.98h-.794l.707-.705a.07.07,0,0,0,0-.1.069.069,0,0,0-.1,0l-.707.707v-.8a.069.069,0,0,0-.069-.069.07.07,0,0,0-.069.069v.8l-.705-.711a.069.069,0,0,0-.1,0,.07.07,0,0,0,0,.1l.707.705h-.8a.07.07,0,0,0-.069.069.069.069,0,0,0,.069.069h.8l-.707.707a.07.07,0,0,0,0,.1.071.071,0,0,0,.1,0l.705-.707V60a.069.069,0,1,0,.137,0V59.21l.707.707a.071.071,0,0,0,.1,0,.07.07,0,0,0,0-.1l-.707-.707h.794a.067.067,0,1,0,0-.133Z" transform="translate(-2.32 -6.512)"/><path class="d" d="M97.862,58.98h-.794l.707-.705a.07.07,0,0,0,0-.1.069.069,0,0,0-.1,0l-.707.707v-.8a.069.069,0,0,0-.069-.069.07.07,0,0,0-.069.069v.8l-.705-.711a.069.069,0,0,0-.1,0,.07.07,0,0,0,0,.1l.707.705h-.8a.07.07,0,0,0-.069.069.069.069,0,0,0,.069.069h.8l-.707.707a.07.07,0,0,0,0,.1.071.071,0,0,0,.1,0l.705-.707V60a.069.069,0,0,0,.137,0V59.21l.707.707a.071.071,0,0,0,.1,0,.07.07,0,0,0,0-.1l-.707-.707h.794a.067.067,0,1,0,0-.133Z" transform="translate(-2.32 -6.512)"/><path class="d" d="M100.744,58.98h-.794l.707-.705a.07.07,0,0,0,0-.1.069.069,0,0,0-.1,0l-.707.707v-.8a.069.069,0,0,0-.069-.069.07.07,0,0,0-.069.069v.8l-.705-.711a.069.069,0,0,0-.1,0,.07.07,0,0,0,0,.1l.707.705h-.8a.07.07,0,0,0-.069.069.069.069,0,0,0,.069.069h.8l-.707.707a.07.07,0,0,0,0,.1.071.071,0,0,0,.1,0l.705-.707V60a.069.069,0,1,0,.137,0V59.21l.707.707a.071.071,0,0,0,.1,0,.07.07,0,0,0,0-.1l-.707-.707h.794a.067.067,0,1,0,0-.133Z" transform="translate(-2.32 -6.512)"/><path class="d" d="M103.625,58.98h-.794l.707-.705a.07.07,0,0,0,0-.1.069.069,0,0,0-.1,0l-.707.707v-.8a.069.069,0,0,0-.069-.069.07.07,0,0,0-.069.069v.8l-.705-.711a.069.069,0,0,0-.1,0,.07.07,0,0,0,0,.1l.707.705h-.8a.07.07,0,0,0-.069.069.069.069,0,0,0,.069.069h.8l-.707.707a.07.07,0,0,0,0,.1.071.071,0,0,0,.1,0l.705-.707V60a.069.069,0,0,0,.137,0V59.21l.707.707a.071.071,0,0,0,.1,0,.07.07,0,0,0,0-.1l-.707-.707h.794a.067.067,0,1,0,0-.133Z" transform="translate(-2.32 -6.512)"/><path class="d" d="M106.506,58.98h-.794l.707-.705a.07.07,0,0,0,0-.1.069.069,0,0,0-.1,0l-.707.707v-.8a.069.069,0,0,0-.069-.069.07.07,0,0,0-.069.069v.8l-.705-.711a.069.069,0,0,0-.1,0,.07.07,0,0,0,0,.1l.707.705h-.8a.07.07,0,0,0-.069.069.069.069,0,0,0,.069.069h.8l-.707.707a.07.07,0,0,0,0,.1.071.071,0,0,0,.1,0l.705-.707V60a.069.069,0,1,0,.137,0V59.21l.707.707a.071.071,0,0,0,.1,0,.07.07,0,0,0,0-.1l-.707-.707h.794a.067.067,0,1,0,0-.133Z" transform="translate(-2.32 -6.512)"/><path class="l" d="M128.594,75.67a2.455,2.455,0,0,0-.062-.493,1.6,1.6,0,0,0-.86-1.165,7.222,7.222,0,0,1-1.364-.576c-.082-1.471.255-2.976-.113-4.4a11.2,11.2,0,0,1-.424-1.554,6.88,6.88,0,0,0-.159-1.984,1.958,1.958,0,0,0-1.159-1,6.178,6.178,0,0,0-1.546-.274c-.659-.054-2.791-.306-3.534.283h0a.777.777,0,0,0-.137.137h0a.55.55,0,0,0-.044.071l-.007.011a.557.557,0,0,0-.037.089h0a.693.693,0,0,0-.023.1v.247c.01.123.027.247.027.369a.8.8,0,0,1-.016.181,1.268,1.268,0,0,1-.228.445h0l-.025.036c-.015.022-.03.043-.044.064s-.025.038-.036.058-.022.032-.032.049a.671.671,0,0,0-.036.07c0,.014-.015.026-.021.04a.678.678,0,0,0-.041.115.766.766,0,0,0-.008.365,1.358,1.358,0,0,0,.188.432c.034.056.071.111.11.166l.1.13a2.961,2.961,0,0,0-.029.384,2.838,2.838,0,0,0,1.084,2.231,8.4,8.4,0,0,1-.017,1.741c-.012.121-.027.243-.044.364s-.029.2-.045.3a1.393,1.393,0,0,1-.6-.045,2.83,2.83,0,0,0-.274-.106c-.4-.1-.807.3-1.2.177a.161.161,0,0,1-.018.055.538.538,0,0,0-.274-.081,1,1,0,0,1-.6-.342l-.523-.493a.578.578,0,0,1-.091-.1.712.712,0,0,1-.063-.169,1.945,1.945,0,0,0-.506-.726.343.343,0,0,0-.15-.108.231.231,0,0,0-.069,0,.6.6,0,0,0-.045-.055,1.292,1.292,0,0,0-.114-.115c-.25-.23-.274-.428-.491-.686a6.592,6.592,0,0,1-.513-.775c-.018-.144-.043-.292-.073-.442a5.684,5.684,0,0,0-.3-1l-.274-.608-.032.032c-.2-.3-.412-.458-.6-.42-.32.066-.477.686-.427,1.5l.11.823a.254.254,0,0,0,.015.062,1.519,1.519,0,0,0-.03.3c0,.115.107.2.163.3a.858.858,0,0,1,.137.468c-.007.059-.025.115-.027.173a.665.665,0,0,0,.129.357l.686,1.152.137.241.008.011a.586.586,0,0,0,.184.211,2.513,2.513,0,0,0,.226.833c.023.052.049.1.077.151a4.853,4.853,0,0,0,.648.841l.327.366c.322.359.645.72.995,1.052a1.332,1.332,0,0,0,.445.311.5.5,0,0,0,.5-.073q0,.255,0,.51a.287.287,0,0,1,.217.451,11.315,11.315,0,0,1-1.015,2.149,4.573,4.573,0,0,1,.851.649,3.825,3.825,0,0,1,.443.6c.012.1.022.2.027.3a12.294,12.294,0,0,1-1.1,4.817,3.753,3.753,0,0,0-.328,1.364,2.678,2.678,0,0,0-.307.221,2.035,2.035,0,0,1,.056.87,1.541,1.541,0,0,1-.114.549,3.857,3.857,0,0,1-.2.353,5.235,5.235,0,0,0-.5,2.088c-.043.432.125.96-.071,1.347a5.512,5.512,0,0,0-.686,2.11,2.115,2.115,0,0,1-.063.493c-.043.137-.118.254-.156.388a1.661,1.661,0,0,0-.027.549,5.252,5.252,0,0,1-.288,1.936,2.632,2.632,0,0,0-.226,1.517,2.139,2.139,0,0,0-.58,1.275,2.009,2.009,0,0,1-.044.364,1.768,1.768,0,0,1-.165.35,3.062,3.062,0,0,0-.373,1.646,4.58,4.58,0,0,0-.74,1.932c-.122.685-.176,1.382-.332,2.058a19.185,19.185,0,0,0-.66,2.715,1.913,1.913,0,0,0-.722,1.354,6.028,6.028,0,0,1-.317,1.546c-.113.25-.274.473-.381.729a3.345,3.345,0,0,0-.165.627,2.447,2.447,0,0,0-.043,1.029,1.551,1.551,0,0,1-.4.306c.022-.085.04-.17.055-.257-.354.321-1,.209-1.279.594a.579.579,0,0,0,.137.794,1.1,1.1,0,0,0,.284.122,4.538,4.538,0,0,0,2.1.324.626.626,0,0,0,.237-.075.764.764,0,0,0,.221-.255c.106-.167.211-.335.316-.5a6.515,6.515,0,0,0,.77.18c.026.22.045.439.055.659.137.027.321.036.386-.092a.333.333,0,0,0,.023-.152c0-.1.014-.226.022-.358h.027a2.607,2.607,0,0,0,1.214-.246,7.854,7.854,0,0,1,.757-3.554c.443-1.21.823-2.442,1.206-3.674.274-.867.578-1.707.847-2.575q.508-1.646,1.019-3.293c.148-.483.3-.96.468-1.441a22.443,22.443,0,0,1,1.272-2.83c.137-.259.274-.516.387-.785.137-.328.235-.671.344-1.01a15.642,15.642,0,0,1,.862-2.028c.01-.018.016-.034.026-.051.111.454.222.915.3,1.372a5.214,5.214,0,0,1,.023,1.7,5.592,5.592,0,0,0-.176,1.15,7.1,7.1,0,0,0,.449,1.541,5.863,5.863,0,0,1,.154,1.18c.038.617.373,1.31.137,1.882-.734,1.812-.379,3.859-.8,5.762-.215.977-.875,1.895-.823,2.894q.055,1.063.187,2.121a2.019,2.019,0,0,0,.172.644,2.363,2.363,0,0,0,.188.307c-.06.023-.111.085-.155.215a.846.846,0,0,0,.3.96,1.334,1.334,0,0,0,.4.137,2.088,2.088,0,0,0,.574.08,1.338,1.338,0,0,0,.18-.022,6.538,6.538,0,0,0,.649.233,1.408,1.408,0,0,0,.018.169.21.21,0,0,0,.071.155.214.214,0,0,0,.11.019h.745v-.187a.613.613,0,0,0,.473-.154.733.733,0,0,0,.137-.285q.3-1.033.605-2.068a6.611,6.611,0,0,0,.295-2.36c-.265-2.529.317-5.065.128-7.6a18.207,18.207,0,0,1,.233-4.561c.062-.34.137-.686.165-1.025.06-.639-.014-1.286.032-1.921.015-.222.045-.443.073-.664a31.889,31.889,0,0,0,.295-4.137,13.035,13.035,0,0,0-.085-1.372.783.783,0,0,0,.375-.22.933.933,0,0,0,.089-.586,4.247,4.247,0,0,1,.369-1.4,16.661,16.661,0,0,0,.519-1.929,6.735,6.735,0,0,0,.23-1.612q0-.082-.008-.165a.425.425,0,0,0,.126-.137.8.8,0,0,0,.066-.254c.049-.35.1-.7.15-1.052q.055-.377.108-.753l.436-3.044c.037-.265.075-.528.113-.792l.114-.788c.012-.093.026-.187.036-.274C128.949,77.053,128.63,76.307,128.594,75.67Zm-3.64,11.4a2.508,2.508,0,0,1-.274-1.192h-.015a.612.612,0,0,0-.018-.387c-.043-.1-.117-.185-.162-.285a1.045,1.045,0,0,1-.074-.384,10.473,10.473,0,0,1,.2-2.489c.018-.1.037-.193.055-.289a.716.716,0,0,0,.156-.122,1.112,1.112,0,0,0,.177-.274c.155-.311.3-.628.427-.951.043-.1.1-.225.21-.251a6.024,6.024,0,0,1-.266,2.346,1.484,1.484,0,0,0-.137.37c-.03.2.055.412.025.615-.015.106-.06.2-.078.307a.3.3,0,0,0,.08.291.24.24,0,0,0,.059.03c-.008.055-.015.111-.021.165-.011.113-.016.218-.023.284a8.849,8.849,0,0,0-.037,1.01c0,.364.014.727.008,1.1a.745.745,0,0,1-.052.311.541.541,0,0,1-.1.137,3.565,3.565,0,0,0-.13-.339Z" transform="translate(-2.32 -6.512)"/><ellipse class="m" cx="0.774" cy="2.191" rx="0.774" ry="2.191" transform="matrix(0.98, -0.201, 0.201, 0.98, 110.167, 60.5)"/><path class="f" d="M120.517,115.249a.831.831,0,0,0,.3.951,1.356,1.356,0,0,0,.394.137,2.077,2.077,0,0,0,.572.078c.237-.011.465-.1.7-.137a.11.11,0,0,1,.081.011.117.117,0,0,1,.03.1,3.625,3.625,0,0,0,.03.4.207.207,0,0,0,.071.155.214.214,0,0,0,.11.019h.744a7.252,7.252,0,0,0-.213-1.94.433.433,0,0,0-.055-.137.454.454,0,0,0-.237-.137,1.327,1.327,0,0,0-.575-.1,1.684,1.684,0,0,0-.645.316.982.982,0,0,1-.731.177C120.852,115.074,120.645,114.867,120.517,115.249Z" transform="translate(-2.32 -6.512)"/><path class="m" d="M109.6,114.646a2.058,2.058,0,0,1-.75.51l-.126.06a.088.088,0,0,0-.043.034.074.074,0,0,0,.014.062.888.888,0,0,0,1.007.366.534.534,0,0,0,.221-.115.724.724,0,0,0,.17-.442.9.9,0,0,0-.021-.506C109.88,114.187,109.81,114.381,109.6,114.646Z" transform="translate(-2.32 -6.512)"/><path class="f" d="M112.45,116.337a.333.333,0,0,1-.023.152c-.064.126-.244.119-.384.092a9.235,9.235,0,0,0-.169-1.386c-.266-.012-.458.24-.6.466l-.368.583a.76.76,0,0,1-.22.255.65.65,0,0,1-.237.075,4.5,4.5,0,0,1-2.09-.324,1.107,1.107,0,0,1-.284-.121.58.58,0,0,1-.137-.793c.284-.384.922-.274,1.276-.593a3.194,3.194,0,0,1-.181.654c.473-.071.792-.5,1.173-.794a.722.722,0,0,1,.335-.159.737.737,0,0,1,.274.029,3.219,3.219,0,0,1,1.207.594,1.3,1.3,0,0,1,.432.45A3.332,3.332,0,0,1,112.45,116.337Z" transform="translate(-2.32 -6.512)"/><circle class="m" cx="2.835" cy="2.835" r="2.835" transform="translate(116.733 58.888)"/><path class="f" d="M127.472,84.97a6.722,6.722,0,0,1-.229,1.6,16.551,16.551,0,0,1-.519,1.921,4.227,4.227,0,0,0-.366,1.4.931.931,0,0,1-.091.584.854.854,0,0,1-.4.229.5.5,0,0,0-.338.3,2.12,2.12,0,0,1-.285-.628q-.369-1.131-.686-2.273a.3.3,0,0,1,.019-.274.34.34,0,0,1,.119-.067,1.235,1.235,0,0,0,.38-.244.556.556,0,0,0,.126-.163.74.74,0,0,0,.054-.31c0-.364,0-.726-.01-1.089a9.1,9.1,0,0,1,.038-1.006c0-.066.012-.172.023-.284.021-.215.062-.465.178-.549.174-.117.7.04.893.067.34.047.686.1,1.018.166A2.718,2.718,0,0,1,127.472,84.97Z" transform="translate(-2.32 -6.512)"/><path class="f" d="M116.026,71.407c-.11.22-.373.325-.576.464l-.7.477a.464.464,0,0,1-.344.118.453.453,0,0,1-.257-.24.048.048,0,0,0,0-.011l-.144-.241-.686-1.15a.654.654,0,0,1-.128-.354c0-.059.021-.114.026-.173a.83.83,0,0,0-.137-.466c-.055-.1-.165-.188-.162-.3a1.1,1.1,0,0,1,.077-.443.9.9,0,0,1,.3-.321c.064-.047.13-.091.2-.137a.392.392,0,0,1,.119-.055c.114-.023.226.071.342.075.5.332.686.96,1.076,1.413.22.258.241.455.49.686.04.036.078.074.115.114a.8.8,0,0,1,.123.178C115.81,71.156,116.083,71.295,116.026,71.407Z" transform="translate(-2.32 -6.512)"/><path class="m" d="M120.892,71.07a2.554,2.554,0,0,1,.3,1.382.863.863,0,0,1-.119.364,1.175,1.175,0,0,1-.973.376.574.574,0,0,0-.423.137.384.384,0,0,0,.026.469,1.059,1.059,0,0,0,.42.274,3.717,3.717,0,0,0,1.807.4c.288-.027.568-.111.855-.154a8.977,8.977,0,0,1,.941-.052c.373-.014.745-.051,1.117-.088l.985-.1a.219.219,0,0,0,.147-.054c.073-.085-.021-.21-.111-.274-.523-.387-1.188-.653-1.486-1.235a7.267,7.267,0,0,1-.281-.9,7.542,7.542,0,0,1-.327-.866,5.737,5.737,0,0,1-.045-.8,1.072,1.072,0,0,0-.274-.73,1.144,1.144,0,0,0-.746-.24,2.416,2.416,0,0,0-1.819.59c-.125.125-.232.274-.361.387s-.3.145-.22.294.252.24.343.37a3.155,3.155,0,0,1,.24.442Z" transform="translate(-2.32 -6.512)"/><path class="f" d="M126.48,75.061a15.588,15.588,0,0,1-.84,3.091,11.643,11.643,0,0,0-.494,1.386c-.106.425-.085.881-.182,1.308-.121.531-.241,1.063-.339,1.6a10.479,10.479,0,0,0-.195,2.483,1.038,1.038,0,0,0,.074.383c.045.1.118.184.161.285a.686.686,0,0,1-.038.549,1.589,1.589,0,0,1-.283.428,17.545,17.545,0,0,1-3.979.338,16,16,0,0,1-3.68.117,2.917,2.917,0,0,1,.288-1.659,12.186,12.186,0,0,0,1.1-4.8,4.976,4.976,0,0,0-.064-.567,7.511,7.511,0,0,1,.365-3.467,5.95,5.95,0,0,0,.156-2.165,3.954,3.954,0,0,1-.01-.709,1.247,1.247,0,0,1,.258-.663c0-.01.012-.019.019-.029a.188.188,0,0,1,.1,0h0a.088.088,0,0,0,.069,0l.015-.01a.034.034,0,0,1,.04,0c.032.019.049.085.118.1a2.735,2.735,0,0,0,.306.029,1.646,1.646,0,0,1,.365.052h.016a1.071,1.071,0,0,0,.532-.045,1.415,1.415,0,0,0,.327-.126c.03-.033.22-.063.258-.086.125-.075.1-.429.123-.575a1.581,1.581,0,0,1,.1-.425.724.724,0,0,1,.587-.342,3.127,3.127,0,0,1,.7.063c.512.073,1.036.06,1.538.178a1.146,1.146,0,0,0,.76.033c.063.015.073.07.073.137a.879.879,0,0,1-.038.188c-.088.379.21.727.484,1a1.553,1.553,0,0,0,.4.322c.137.063.274.089.412.158a.749.749,0,0,1,.274.251,1.048,1.048,0,0,1,.156.4,2.388,2.388,0,0,1-.045.794Z" transform="translate(-2.32 -6.512)"/><path class="n" d="M126.48,75.061a15.588,15.588,0,0,1-.84,3.091,11.643,11.643,0,0,0-.494,1.386c-.106.425-.085.881-.182,1.308-.121.531-.241,1.063-.339,1.6-.029.016-.059.032-.089.045a2.106,2.106,0,0,1-.538.173,3.293,3.293,0,0,1-1-.033l-1.958-.262a3.944,3.944,0,0,1-2.2-.763,4.684,4.684,0,0,1-.766-1.045,4.977,4.977,0,0,0-.064-.567,7.512,7.512,0,0,1,.365-3.467,5.95,5.95,0,0,0,.156-2.165,3.954,3.954,0,0,1-.01-.709,1.247,1.247,0,0,1,.258-.663.979.979,0,0,1,.122-.027h0a.61.61,0,0,1,.084-.011h.04a.6.6,0,0,1,.137.016,2.482,2.482,0,0,1,.274.106h.016a1.051,1.051,0,0,0,.365.052c.181,0,.368-.029.549-.041a1.013,1.013,0,0,1,.65.117,3.9,3.9,0,0,1,.362.331,1.556,1.556,0,0,0,.457.248,4.856,4.856,0,0,0,3.652-.077.715.715,0,0,1,.366-.093.686.686,0,0,1,.263.113c.082.048.163.095.247.137a1.048,1.048,0,0,1,.156.4A2.387,2.387,0,0,1,126.48,75.061Z" transform="translate(-2.32 -6.512)"/><path class="d" d="M127.675,74.153a7.322,7.322,0,0,1-1.564-.686.7.7,0,0,0-.263-.113.737.737,0,0,0-.368.093,4.853,4.853,0,0,1-3.651.077,1.587,1.587,0,0,1-.457-.248,4.1,4.1,0,0,0-.362-.331c-.451-.292-1.076.051-1.581-.137a2.8,2.8,0,0,0-.274-.106c-.4-.1-.805.3-1.2.177a6.674,6.674,0,0,0-.322,1.224,13.342,13.342,0,0,0-.089,1.443c0,.289-.014.579,0,.868a.285.285,0,0,1,.217.45,11.247,11.247,0,0,1-1.013,2.142,4.653,4.653,0,0,1,.848.648c.48.508.716,1.22,1.235,1.689a3.965,3.965,0,0,0,2.2.761l1.958.262a3.346,3.346,0,0,0,1.006.034,2.117,2.117,0,0,0,.536-.174.96.96,0,0,0,.3-.2,1.1,1.1,0,0,0,.177-.274c.155-.31.3-.627.427-.948.045-.114.114-.247.237-.257.727-.656,1.413-1.328,2.14-1.984a4.743,4.743,0,0,0,.781-.823c.361-.534.033-1.29,0-1.935a2.443,2.443,0,0,0-.062-.49A1.572,1.572,0,0,0,127.675,74.153Z" transform="translate(-2.32 -6.512)"/><path class="n" d="M116.026,71.407c-.11.22-.373.325-.576.464l-.7.477a.464.464,0,0,1-.344.118.453.453,0,0,1-.257-.24v-.1a.92.92,0,0,1,.044-.328,1.022,1.022,0,0,1,.307-.4,2.516,2.516,0,0,1,.9-.549.309.309,0,0,1,.165-.016.217.217,0,0,1,.06.026.8.8,0,0,1,.123.178C115.81,71.156,116.083,71.295,116.026,71.407Z" transform="translate(-2.32 -6.512)"/><path class="d" d="M117.665,72.854a1,1,0,0,1-.594-.34l-.52-.483a.486.486,0,0,1-.091-.1.712.712,0,0,1-.063-.169,1.936,1.936,0,0,0-.5-.724.329.329,0,0,0-.15-.107.3.3,0,0,0-.166.016,2.509,2.509,0,0,0-.9.549,1.025,1.025,0,0,0-.307.4.912.912,0,0,0-.044.328,2.519,2.519,0,0,0,.239,1.048c.023.051.049.1.077.151a4.752,4.752,0,0,0,.645.838l.327.365c.321.359.642.719.991,1.05a1.309,1.309,0,0,0,.445.31.5.5,0,0,0,.51-.082.738.738,0,0,0,.145-.261,5.131,5.131,0,0,0,.424-1.711,6.461,6.461,0,0,0-.03-.709C118.075,72.966,117.9,72.869,117.665,72.854Z" transform="translate(-2.32 -6.512)"/><path class="o" d="M125.979,92.062a31.7,31.7,0,0,1-.294,4.126c-.027.221-.058.442-.073.663-.045.641.029,1.284-.032,1.921-.032.344-.1.686-.163,1.022a18.175,18.175,0,0,0-.233,4.548c.189,2.529-.391,5.059-.128,7.58a6.128,6.128,0,0,1-.081,1.467,6.217,6.217,0,0,1-.213.886q-.3,1.03-.6,2.058a.714.714,0,0,1-.137.285.65.65,0,0,1-.514.152,5.935,5.935,0,0,1-2.256-.7.786.786,0,0,1-.226-.137c-.15-.155-.137-.4-.2-.6a5.745,5.745,0,0,0-.346-.606,1.98,1.98,0,0,1-.15-.624q-.137-1.054-.187-2.116c-.052-1,.606-1.913.823-2.881.412-1.9.063-3.946.794-5.753.23-.571-.1-1.262-.137-1.877a5.951,5.951,0,0,0-.154-1.177,7.3,7.3,0,0,1-.447-1.537,5.645,5.645,0,0,1,.174-1.146,5.149,5.149,0,0,0-.023-1.692c-.073-.461-.184-.922-.295-1.372l-.025.051a15.5,15.5,0,0,0-.86,2.024c-.11.336-.206.679-.343,1.006-.113.274-.251.525-.387.783a22.5,22.5,0,0,0-1.269,2.819c-.17.475-.32.96-.468,1.436l-1.017,3.293c-.274.866-.575,1.7-.844,2.567-.38,1.235-.76,2.459-1.2,3.666a7.919,7.919,0,0,0-.755,3.543,2.607,2.607,0,0,1-1.211.246,7.093,7.093,0,0,1-2.058-.5,1.6,1.6,0,0,1-.711-.423,1.681,1.681,0,0,1-.137-1.39,3.358,3.358,0,0,1,.165-.626c.1-.252.274-.476.381-.726a6.089,6.089,0,0,0,.314-1.541,1.9,1.9,0,0,1,.719-1.351,19.518,19.518,0,0,1,.659-2.708c.156-.676.209-1.372.332-2.058a4.52,4.52,0,0,1,.737-1.928,3.055,3.055,0,0,1,.373-1.646,1.8,1.8,0,0,0,.163-.35,2.01,2.01,0,0,0,.044-.362,2.142,2.142,0,0,1,.579-1.272,2.581,2.581,0,0,1,.225-1.509,5.244,5.244,0,0,0,.288-1.93,1.692,1.692,0,0,1,.026-.549c.038-.137.114-.254.158-.386a2.194,2.194,0,0,0,.062-.493,5.7,5.7,0,0,1,.686-2.1c.2-.387.03-.912.071-1.343a5.192,5.192,0,0,1,.5-2.081c.066-.118.137-.23.2-.353a1.527,1.527,0,0,0,.114-.549,2.021,2.021,0,0,0-.056-.867,4.446,4.446,0,0,1,2.691-.823,16.772,16.772,0,0,0,2.855-.158c.274-.062.549-.147.838-.188a5.423,5.423,0,0,1,1.973.2,2.35,2.35,0,0,0,.274,1.19,12.769,12.769,0,0,1,1.017,4.9Z" transform="translate(-2.32 -6.512)"/><path class="n" d="M122.748,92.376l-1.576,3.545c-.073-.461-.184-.922-.295-1.372l-.025.051v-.074l.859-1.889Z" transform="translate(-2.32 -6.512)"/><path class="n" d="M127.472,84.97a.593.593,0,0,1-.313.117,1.521,1.521,0,0,1-.513-.07l-1.235-.309a.606.606,0,0,1-.113-.04c.021-.215.062-.465.178-.549.174-.117.7.04.893.067.34.047.686.1,1.018.166a2.718,2.718,0,0,1,.084.617Z" transform="translate(-2.32 -6.512)"/><path class="d" d="M128.516,76.806c.026.114.063.226.085.342a2.607,2.607,0,0,1-.029.849l-.113.785-.113.789-.435,3.036-.107.752-.151,1.05a.754.754,0,0,1-.066.252.525.525,0,0,1-.429.254,1.556,1.556,0,0,1-.513-.07l-1.235-.31a.387.387,0,0,1-.151-.062.3.3,0,0,1-.08-.29c.018-.1.063-.2.078-.306.03-.2-.055-.412-.025-.613a1.526,1.526,0,0,1,.137-.369c.412-.91.173-1.972.313-2.959a4.486,4.486,0,0,1,.952-2.118,6.081,6.081,0,0,1,1.051-1.032,2.115,2.115,0,0,1,.591-.412C128.527,76.322,128.475,76.633,128.516,76.806Z" transform="translate(-2.32 -6.512)"/><path class="o" d="M119.171,64.988c-.091.288.051.605-.014.9-.07.324-.375.549-.461.874-.137.5.283.947.59,1.358,1.139,1.528.989,3.644.6,5.509a28.443,28.443,0,0,1-1.3,4.39,3.364,3.364,0,0,1-.7,1.225,3.611,3.611,0,0,1,1.935-.188c.8.222,1.493,1,2.3.823.488-.108.831-.542,1.27-.782a4.352,4.352,0,0,1,2.733-.022,1.073,1.073,0,0,0,.6-.03.992.992,0,0,0,.362-.333,3.383,3.383,0,0,0,.705-1.825,2.341,2.341,0,0,0-.674-1.8,3.853,3.853,0,0,1-.578-.549,1.7,1.7,0,0,1-.226-.831c-.108-1.509.259-3.05-.119-4.51a11.134,11.134,0,0,1-.421-1.55,6.878,6.878,0,0,0-.159-1.978,1.94,1.94,0,0,0-1.157-1,6.336,6.336,0,0,0-1.542-.274C122.17,64.329,119.485,64.007,119.171,64.988Z" transform="translate(-2.32 -6.512)"/><g class="p"><path d="M119.886,73.627A28.387,28.387,0,0,1,118.6,78c.095-.188.174-.386.25-.582a28.294,28.294,0,0,0,1.3-4.39c.391-1.866.541-3.979-.6-5.509a2.152,2.152,0,0,1-.615-1.188,1.462,1.462,0,0,0-.233.431c-.137.5.283.947.59,1.358C120.425,69.647,120.276,71.763,119.886,73.627Z" transform="translate(-2.32 -6.512)"/><path d="M119.174,65.748a1.335,1.335,0,0,0,.241-.462,2.351,2.351,0,0,0-.016-.612.66.66,0,0,0-.228.314A2.714,2.714,0,0,0,119.174,65.748Z" transform="translate(-2.32 -6.512)"/><path d="M127.351,78.107a.988.988,0,0,1-.362.332,1.048,1.048,0,0,1-.6.03,4.39,4.39,0,0,0-2.733.023c-.44.239-.782.672-1.272.782-.811.181-1.5-.6-2.3-.823a3.216,3.216,0,0,0-1.738.137,2.4,2.4,0,0,1-.454.656,3.611,3.611,0,0,1,1.935-.188c.8.222,1.493,1,2.3.823.488-.108.831-.542,1.27-.782a4.352,4.352,0,0,1,2.733-.022,1.073,1.073,0,0,0,.6-.03.992.992,0,0,0,.362-.333,3.688,3.688,0,0,0,.568-1.087,3.99,3.99,0,0,1-.31.482Z" transform="translate(-2.32 -6.512)"/></g></g></g></svg>