<svg xmlns="http://www.w3.org/2000/svg" width="62.132" height="62.184" viewBox="0 0 62.132 62.184">
  <g id="Group_1745" data-name="Group 1745" transform="translate(-678.821 -343.66)">
    <path id="face-id_1_Traced_" data-name="face-id 1 (Traced)" d="M9.461.349a12.535,12.535,0,0,0-8.2,6.661C.092,9.4.005,9.993,0,15.619c0,4.687.013,4.923.342,5.341a1.942,1.942,0,0,0,2.519.365c.736-.491.754-.608.853-5.709.087-4.487.127-4.985.464-5.9A9.261,9.261,0,0,1,9.555,4.274c1.117-.441,1.23-.451,6.039-.54,5.105-.095,5.137-.1,5.746-.849a2.292,2.292,0,0,0,.211-1.066A1.428,1.428,0,0,0,21.064.514L20.572.021,15.633.034C11.478.044,10.5.094,9.461.349ZM40.112.442a1.824,1.824,0,0,0,.208,2.967c.471.287.911.316,4.813.319,4.8,0,5.749.137,7.465,1.052a9.14,9.14,0,0,1,4.3,4.979c.412,1.084.431,1.3.522,6.033.087,4.51.12,4.937.414,5.262a1.968,1.968,0,0,0,2.972-.2c.3-.5.328-.877.328-5.049,0-4.9-.151-6.19-.959-8.118A13.047,13.047,0,0,0,52.459.569C51.13.122,51.042.115,45.875.058L40.637,0ZM18.9,18.119c-.984.442-1.07.917-1.012,5.593l.05,4.126.55.491a1.848,1.848,0,0,0,2.578,0l.492-.492V19.057l-.463-.514A1.851,1.851,0,0,0,18.9,18.119Zm10.778,0c-1,.45-1.046.749-1.046,7.22,0,6.99.141,6.574-2.405,7.1a1.874,1.874,0,0,0-1.131,1.811,1.6,1.6,0,0,0,.492,1.179c.468.523.549.549,1.642.537a5.024,5.024,0,0,0,4.6-2.975l.511-1.023V19.057l-.463-.514A1.851,1.851,0,0,0,29.676,18.119Zm10.778,0c-.983.442-1.07.917-1.012,5.593l.05,4.126.55.491a1.848,1.848,0,0,0,2.578,0l.492-.492V19.057l-.463-.514A1.851,1.851,0,0,0,40.454,18.119ZM1.076,39.594a2.237,2.237,0,0,0-.716.6C.011,40.64,0,40.8,0,45.546c0,5.637.081,6.177,1.311,8.7a9.154,9.154,0,0,0,2.3,3.116,11.419,11.419,0,0,0,4.931,3.176l1.475.527,5.263.056,5.263.056.505-.505a1.44,1.44,0,0,0,.5-1.287c0-1.833-.3-1.938-5.507-1.941-4.664,0-5.762-.15-7.431-.993a9.706,9.706,0,0,1-3.793-3.693C3.806,50.82,3.7,50.155,3.7,45.367c0-4.855-.079-5.272-1.083-5.691A1.747,1.747,0,0,0,1.076,39.594Zm19.523.163a1.608,1.608,0,0,0-.846,1.843c.075.663.206.883.9,1.519a14.69,14.69,0,0,0,6.233,3.315,20.206,20.206,0,0,0,7.551-.072c3.4-.916,6.989-3.477,6.989-4.985a2.011,2.011,0,0,0-1.116-1.715c-.906-.378-1.516-.185-2.758.873a9.748,9.748,0,0,1-6.989,2.453,10.029,10.029,0,0,1-6.906-2.324C22.024,39.3,21.567,39.167,20.6,39.758Zm37.723,0a2.317,2.317,0,0,0-.716.662,28.414,28.414,0,0,0-.179,4.613c0,3.712-.044,4.451-.333,5.581a8.878,8.878,0,0,1-5.666,6.29c-1.126.427-1.3.442-6.067.534-4.433.085-4.942.124-5.247.4a1.91,1.91,0,0,0-.014,2.883l.512.431h4.745c5.447,0,6.528-.164,8.826-1.329A12.255,12.255,0,0,0,59.871,54c1.113-2.3,1.261-3.313,1.261-8.713,0-5.034-.009-5.084-1.012-5.6A1.616,1.616,0,0,0,58.322,39.758Z" transform="translate(679.321 344.162)" fill="rgba(0,76,150,0.48)" stroke="#f3f3f3" stroke-width="1" fill-rule="evenodd" style="mix-blend-mode: luminosity;isolation: isolate"/>
    <path id="face-id_1_Traced_2" data-name="face-id 1 (Traced)" d="M9.461.349a12.535,12.535,0,0,0-8.2,6.661C.092,9.4.005,9.993,0,15.619c0,4.687.013,4.923.342,5.341a1.942,1.942,0,0,0,2.519.365c.736-.491.754-.608.853-5.709.087-4.487.127-4.985.464-5.9A9.261,9.261,0,0,1,9.555,4.274c1.117-.441,1.23-.451,6.039-.54,5.105-.095,5.137-.1,5.746-.849a2.292,2.292,0,0,0,.211-1.066A1.428,1.428,0,0,0,21.064.514L20.572.021,15.633.034C11.478.044,10.5.094,9.461.349ZM40.112.442a1.824,1.824,0,0,0,.208,2.967c.471.287.911.316,4.813.319,4.8,0,5.749.137,7.465,1.052a9.14,9.14,0,0,1,4.3,4.979c.412,1.084.431,1.3.522,6.033.087,4.51.12,4.937.414,5.262a1.968,1.968,0,0,0,2.972-.2c.3-.5.328-.877.328-5.049,0-4.9-.151-6.19-.959-8.118A13.047,13.047,0,0,0,52.459.569C51.13.122,51.042.115,45.875.058L40.637,0ZM1.076,39.594a2.237,2.237,0,0,0-.716.6C.011,40.64,0,40.8,0,45.546c0,5.637.081,6.177,1.311,8.7a9.154,9.154,0,0,0,2.3,3.116,11.419,11.419,0,0,0,4.931,3.176l1.475.527,5.263.056,5.263.056.505-.505a1.44,1.44,0,0,0,.5-1.287c0-1.833-.3-1.938-5.507-1.941-4.664,0-5.762-.15-7.431-.993a9.706,9.706,0,0,1-3.793-3.693C3.806,50.82,3.7,50.155,3.7,45.367c0-4.855-.079-5.272-1.083-5.691A1.747,1.747,0,0,0,1.076,39.594Zm57.246.163a2.317,2.317,0,0,0-.716.662,28.414,28.414,0,0,0-.179,4.613c0,3.712-.044,4.451-.333,5.581a8.878,8.878,0,0,1-5.666,6.29c-1.126.427-1.3.442-6.067.534-4.433.085-4.942.124-5.247.4a1.91,1.91,0,0,0-.014,2.883l.512.431h4.745c5.447,0,6.528-.164,8.826-1.329A12.255,12.255,0,0,0,59.871,54c1.113-2.3,1.261-3.313,1.261-8.713,0-5.034-.009-5.084-1.012-5.6A1.616,1.616,0,0,0,58.322,39.758Z" transform="translate(679.321 344.162)" fill="#004c97" stroke="#f3f3f3" stroke-width="0.5" fill-rule="evenodd" style="mix-blend-mode: luminosity;isolation: isolate"/>
  </g>
</svg>
