<svg xmlns="http://www.w3.org/2000/svg" width="98.59" height="98.667" viewBox="0 0 98.59 98.667">
  <g id="Group_1838" data-name="Group 1838" transform="translate(-633.705 -333.167)">
    <path id="face-id_1_Traced_" data-name="face-id 1 (Traced)" d="M15.181.56A20.113,20.113,0,0,0,2.016,11.248C.148,15.078.009,16.034,0,25.061c0,7.52.02,7.9.549,8.57a3.115,3.115,0,0,0,4.041.586c1.181-.788,1.21-.976,1.369-9.161.14-7.2.2-8,.744-9.463a14.86,14.86,0,0,1,8.625-8.736c1.792-.707,1.974-.724,9.69-.867,8.192-.152,8.243-.16,9.22-1.362a3.677,3.677,0,0,0,.338-1.71A2.291,2.291,0,0,0,33.8.824l-.79-.79-7.925.02C18.417.071,16.845.151,15.181.56ZM64.363.709A2.926,2.926,0,0,0,64.7,5.47c.756.461,1.462.508,7.723.512,7.7.006,9.225.22,11.979,1.688a14.666,14.666,0,0,1,6.893,7.989c.661,1.74.691,2.089.838,9.681.139,7.236.193,7.922.665,8.443a3.159,3.159,0,0,0,4.769-.325c.486-.8.526-1.408.526-8.1,0-7.869-.242-9.932-1.538-13.026A20.934,20.934,0,0,0,84.174.914C82.04.2,81.9.184,73.608.093L65.205,0ZM1.726,63.531A3.589,3.589,0,0,0,.578,64.5C.018,65.208,0,65.47,0,73.081c0,9.045.131,9.911,2.1,13.965a14.688,14.688,0,0,0,3.694,5,18.322,18.322,0,0,0,7.913,5.1l2.367.845,8.445.09,8.445.09.81-.81a2.311,2.311,0,0,0,.81-2.065c0-2.941-.477-3.109-8.836-3.115-7.483-.005-9.245-.241-11.924-1.593a15.574,15.574,0,0,1-6.085-5.925c-1.636-3.113-1.8-4.181-1.8-11.863,0-7.79-.127-8.459-1.738-9.132A2.8,2.8,0,0,0,1.726,63.531Zm91.855.262a3.718,3.718,0,0,0-1.148,1.062c-.182.339-.288,3.068-.288,7.4,0,5.955-.071,7.142-.535,8.955A14.245,14.245,0,0,1,82.52,91.306c-1.806.686-2.082.71-9.735.857-7.114.137-7.929.2-8.42.644a3.065,3.065,0,0,0-.022,4.626l.822.692,7.613,0c8.74,0,10.475-.263,14.162-2.133a19.664,19.664,0,0,0,9.128-9.35c1.786-3.683,2.023-5.317,2.023-13.98,0-8.077-.015-8.158-1.624-8.99A2.592,2.592,0,0,0,93.581,63.793Z" transform="translate(633.955 333.418)" fill="#008461" stroke="#fff" stroke-width="0.5" fill-rule="evenodd"/>
    <g id="Icon_feather-eye" data-name="Icon feather-eye" transform="translate(654.613 356.946)">
      <path id="Path_4859" data-name="Path 4859" d="M1.5,25.554S11.277,6,28.387,6,55.274,25.554,55.274,25.554,45.5,45.108,28.387,45.108,1.5,25.554,1.5,25.554Z" transform="translate(0)" fill="none" stroke="rgba(0,132,97,0.45)" stroke-linecap="round" stroke-linejoin="round" stroke-width="4"/>
      <path id="Path_4860" data-name="Path 4860" d="M28.166,20.833A7.333,7.333,0,1,1,20.833,13.5,7.333,7.333,0,0,1,28.166,20.833Z" transform="translate(7.554 4.721)" fill="none" stroke="rgba(0,132,97,0.45)" stroke-linecap="round" stroke-linejoin="round" stroke-width="4"/>
    </g>
  </g>
</svg>
