<svg xmlns="http://www.w3.org/2000/svg" width="129" height="104.048" viewBox="0 0 129 104.048">
  <g id="Group_979" data-name="Group 979" transform="translate(-848 -722.832)">
    <g id="undraw_judge_katerina_limpitsouni_ny1q" transform="translate(848 722.832)">
      <path id="Path_3422" data-name="Path 3422" d="M140.62,65.724a34.623,34.623,0,0,0-3.56-11.577,46.483,46.483,0,0,0-16.437-18.065c-.062-.042-.13-.081-.189-.121a7.254,7.254,0,0,0,1.5-2.926c1.994-8.171-11.455-18.471-30.032-23C76.99,6.4,63.308,7.584,57.453,12.416c-13.658-.859-27.907,7.545-37.376,20.49a41.983,41.983,0,0,0-7.5,16.293c-1.528,7.493-.614,15.557,1.53,22.789a55.254,55.254,0,0,0,7.1,15.255q.324.476.657.942.574.8,1.172,1.562a35.824,35.824,0,0,0,8.474,7.93,27.111,27.111,0,0,0,5.687,2.838,23.543,23.543,0,0,0,16.34,0,22.88,22.88,0,0,0,2.583-1.16q.7-.363,1.375-.781c.873-.536,1.731-1.135,2.583-1.757,1.181-.864,2.343-1.776,3.529-2.627l.1-.074a25.049,25.049,0,0,1,4.272-2.574,11.76,11.76,0,0,1,3.08-.933,10.866,10.866,0,0,1,4.7.366c.289.083.578.178.864.282a18.528,18.528,0,0,1,2.7,1.251c3.754,2.083,7.347,5.4,11.034,8.007.521.372,1.056.73,1.587,1.067,4.7,2.985,9.876,4.44,14.995,5.851,5.8,1.6,11.945,3.155,17.559.663a20.344,20.344,0,0,0,8.331-7.581,33.662,33.662,0,0,0,2.6-4.711q.551-1.215,1.03-2.473a72.03,72.03,0,0,0,3.68-15.621A48.6,48.6,0,0,0,140.62,65.724Z" transform="translate(-11.812 -5.356)" fill="#6c63ff" opacity="0.1"/>
      <g id="Group_978" data-name="Group 978" transform="translate(11.405 0)" opacity="0.1">
        <path id="Path_3423" data-name="Path 3423" d="M47.038,66.549c.04.116.082.228.13.337q1.287-1.009,2.494-2.083A2.415,2.415,0,0,0,50.8,63.762c.232-.219.462-.443.69-.665a3.39,3.39,0,0,0-.316-.311A2.474,2.474,0,0,0,46.891,64.2a4.483,4.483,0,0,0,.147,2.352Z" transform="translate(-17.907 2.854)" fill="#3f3d56"/>
        <path id="Path_3424" data-name="Path 3424" d="M45.8,62.8a4.486,4.486,0,0,0,1.28,1.972,2.677,2.677,0,0,0,2.594.669c.06-.021.117-.043.177-.066a2.415,2.415,0,0,0,1.133-1.041,3.366,3.366,0,0,0,.374-.976,4.668,4.668,0,0,0-1.432-4.324,2.474,2.474,0,0,0-4.278,1.411A4.483,4.483,0,0,0,45.8,62.8Z" transform="translate(-18.096 2.283)" fill="#3f3d56"/>
        <ellipse id="Ellipse_216" data-name="Ellipse 216" cx="2.847" cy="3.727" rx="2.847" ry="3.727" transform="translate(25.099 57.219) rotate(-18.29)" fill="#3f3d56"/>
        <ellipse id="Ellipse_217" data-name="Ellipse 217" cx="2.847" cy="3.727" rx="2.847" ry="3.727" transform="translate(23.67 52.895) rotate(-18.29)" fill="#3f3d56"/>
        <ellipse id="Ellipse_218" data-name="Ellipse 218" cx="2.847" cy="3.727" rx="2.847" ry="3.727" transform="translate(22.24 48.572) rotate(-18.29)" fill="#3f3d56"/>
        <path id="Path_3425" data-name="Path 3425" d="M48.165,23.967a13.813,13.813,0,0,0,.521-1.815L41.2,23.334l7.7-2.482a13.668,13.668,0,0,0-3.145-10.34l-8.537,8.753L44.41,9.137A13.636,13.636,0,1,0,27.816,30.694a13.621,13.621,0,0,0-.7,2.85l10.8,1.742L27,35.236A13.642,13.642,0,0,0,33.11,46.7a13.635,13.635,0,1,0,20.35-6.729,13.635,13.635,0,0,0-5.292-16.012Z" transform="translate(-21.715 -5.693)" fill="#6c63ff"/>
        <path id="Path_3426" data-name="Path 3426" d="M26.9,35.337a13.58,13.58,0,0,0,5.417,7.088,13.635,13.635,0,1,0,20.358-6.734C53.678,32.914,26.423,33.877,26.9,35.337Z" transform="translate(-20.929 -1.409)" opacity="0.1"/>
      </g>
      <path id="Path_3427" data-name="Path 3427" d="M55.842,37.035a7.517,7.517,0,0,1-.562-2.139c-.687-4.319-1.33-8.982.536-12.9a4.583,4.583,0,0,1,1.172-1.635,8.34,8.34,0,0,1,1.894-.954c1.875-.844,3.385-2.357,5.033-3.614s3.637-2.3,5.656-1.984a20.72,20.72,0,0,1,3.015,1.013c2.853.924,6.147.322,8.71,1.924a12.085,12.085,0,0,1,2.423,2.223l3.31,3.645a12.391,12.391,0,0,1,2.354,3.235,4.368,4.368,0,0,1-.034,3.914c-.348.582-.9,1.086-.957,1.769-.065.742.474,1.38.67,2.1.521,1.891-1.389,3.515-3.131,4.262-5.263,2.252-11.053,1.993-16.625,1.9C65.157,39.723,58.234,41.9,55.842,37.035Z" transform="translate(-5.32 -4.469)" fill="#3f3d56"/>
      <path id="Path_3428" data-name="Path 3428" d="M64.392,42.9a5.077,5.077,0,0,1-1.929,2.033,5.016,5.016,0,0,1-2.542,1.1,26.6,26.6,0,0,0,6.11,5.207,13.608,13.608,0,0,0,3.24,1.819,17.641,17.641,0,0,0,3.344.612,24.35,24.35,0,0,0,4.3.44A9.686,9.686,0,0,0,83.626,50.8a12.469,12.469,0,0,0,2.937-6.981,4.448,4.448,0,0,1-2.488-1.073,8.778,8.778,0,0,1-2.324-2.413,11.978,11.978,0,0,1-1.2-3.433c-3.034-.091-6.069-.181-9.1-.122a14.337,14.337,0,0,0-3.291.338c-1.027.26-3.172.932-3.8,1.858-.361.534,0,1.083.13,1.658A3.738,3.738,0,0,1,64.392,42.9Z" transform="translate(-4.51 -0.978)" fill="#be6f72"/>
      <path id="Path_3429" data-name="Path 3429" d="M64.392,42.9a5.077,5.077,0,0,1-1.929,2.033,5.016,5.016,0,0,1-2.542,1.1,26.6,26.6,0,0,0,6.11,5.207,13.608,13.608,0,0,0,3.24,1.819,17.641,17.641,0,0,0,3.344.612,24.35,24.35,0,0,0,4.3.44A9.686,9.686,0,0,0,83.626,50.8a12.469,12.469,0,0,0,2.937-6.981,4.448,4.448,0,0,1-2.488-1.073,8.778,8.778,0,0,1-2.324-2.413,11.978,11.978,0,0,1-1.2-3.433c-3.034-.091-6.069-.181-9.1-.122a14.337,14.337,0,0,0-3.291.338c-1.027.26-3.172.932-3.8,1.858-.361.534,0,1.083.13,1.658A3.738,3.738,0,0,1,64.392,42.9Z" transform="translate(-4.51 -0.978)" opacity="0.1"/>
      <path id="Path_3430" data-name="Path 3430" d="M67.763,46.05a11.7,11.7,0,0,0,2.952,2.889,2.247,2.247,0,0,0,1.191.376,2.682,2.682,0,0,0,1.6-.9,87.905,87.905,0,0,0,6.509-6.741,7.385,7.385,0,0,1,2.18-1.944,132.338,132.338,0,0,1,.62,21.581.781.781,0,0,1-.091.391.8.8,0,0,1-.672.246c-7.348.276-14.991.5-21.721-2.473a14.983,14.983,0,0,0,.436-4.349,34.032,34.032,0,0,1,1.066-7.1c.282-1.142.6-2.273.945-3.4.284-.942.5-2.6,1.134-3.316A38.832,38.832,0,0,1,67.763,46.05Z" transform="translate(-4.448 -0.526)" fill="#e3e8f4"/>
      <path id="Path_3431" data-name="Path 3431" d="M58.157,42.557h.911l2.343,3.905-2.473,6.118-2.994-5.988Z" transform="translate(8.493 6.455)" fill="#3f3d56"/>
      <path id="Path_3432" data-name="Path 3432" d="M74.379,56.069a10.935,10.935,0,0,1-1.716-4.106,8.821,8.821,0,0,0-.319-1.4,7.8,7.8,0,0,0-1.134-1.8A16,16,0,0,1,68.288,41.5c-.161-1.19-.269-2.553-1.23-3.273a3.471,3.471,0,0,0-2.164-.508,12.187,12.187,0,0,0-7.881,3.154,13.017,13.017,0,0,1-1.139,1,7.309,7.309,0,0,1-1.3.708,11.876,11.876,0,0,1-3.615,1.084,3.962,3.962,0,0,0-.953.158,3.7,3.7,0,0,0-1,.651A9.224,9.224,0,0,1,45.6,46.129a68.639,68.639,0,0,0-4.035,12.589c-.236,1.074-.447,2.156-.768,3.208-.444,1.458-1.1,2.848-1.533,4.309-1.734,5.812.087,12.144-1.08,18.094l62.623.086c-.984-1.527-.63-3.467-.715-5.281a38.923,38.923,0,0,0-.8-4.953,53.019,53.019,0,0,1-.669-8.364,8.6,8.6,0,0,1,.435-3.493c.858-2.045,3.084-3.124,5.191-3.818a7.827,7.827,0,0,0,2.864-1.34,5.517,5.517,0,0,0,1.5-2.864,25.933,25.933,0,0,0-5.6-7.567,21.751,21.751,0,0,1-2.551-2.428c-.45-.558-.824-1.181-1.321-1.692a7.136,7.136,0,0,0-4.915-1.851,7.854,7.854,0,0,1-1.651-.15c-1.539-.391-2.519-1.894-3.905-2.673a4.6,4.6,0,0,0-3.172-.487,2.127,2.127,0,0,0-1.756,1.4,4.126,4.126,0,0,0,.068,1.323,6.59,6.59,0,0,1-1.105,3.87C80.252,48.264,76.243,51.556,74.379,56.069Z" transform="translate(-7.81 -0.887)" fill="#6c63ff"/>
      <path id="Path_3433" data-name="Path 3433" d="M84.954,32.744a13.148,13.148,0,1,1-6.1-11.1A13.147,13.147,0,0,1,84.954,32.744Z" transform="translate(-4.702 -3.583)" fill="#be6f72"/>
      <path id="Path_3434" data-name="Path 3434" d="M135.217,82.874v-6.09H19.966q.324.476.657.942a4.092,4.092,0,0,0,.681,1.092,3.953,3.953,0,0,0,.495.475,35.824,35.824,0,0,0,8.474,7.93,27.11,27.11,0,0,0,5.687,2.838h95.633Z" transform="translate(-10.575 5.097)" fill="#3f3d56"/>
      <path id="Path_3435" data-name="Path 3435" d="M74.036,70.9c-1.766-.141-3.6-.581-5.267.029a7.634,7.634,0,0,0-1.6.875,28.769,28.769,0,0,0-4.934,4.189,5.839,5.839,0,0,0-1.11,1.5,17.733,17.733,0,0,0-.651,2.561,3.359,3.359,0,0,0-.272,1.476c.086.5.661.945,1.092.68h0a.955.955,0,0,0,.978,1.1,3.226,3.226,0,0,0,1.822-.642h0a.617.617,0,0,0,.651.551,6.867,6.867,0,0,0,3.17-1.281A10.531,10.531,0,0,1,71.5,80.112a5.818,5.818,0,0,0-2.1,1.626.8.8,0,0,0-.181.992,1.157,1.157,0,0,0,.622.491,3.912,3.912,0,0,0,4.094-1.536,4.873,4.873,0,0,1,1.3-1.334c.884-.475,1.973-.142,2.968-.28a11.462,11.462,0,0,0,3.046-1.336,24.922,24.922,0,0,1,4.3-1.148A.781.781,0,0,0,86,77.352a.808.808,0,0,0,.111-.5,37.23,37.23,0,0,0-.4-5.327,1.855,1.855,0,0,0-.254-.8,1.9,1.9,0,0,0-1.308-.6A15.574,15.574,0,0,0,81.7,69.7a8.339,8.339,0,0,0-2.2.637A15.276,15.276,0,0,1,74.036,70.9Z" transform="translate(-4.471 4.022)" fill="#be6f72"/>
      <path id="Path_3436" data-name="Path 3436" d="M80.051,68.707A9.242,9.242,0,0,0,74.81,71.05c1.623-.41,3.37-.815,4.935-.221a4.116,4.116,0,0,1,.216,7.607A2.558,2.558,0,0,0,81.2,79.1c3.339.974,6.914.391,10.328-.273a2.6,2.6,0,0,0,1.683-.8,2.565,2.565,0,0,0,.3-1.668,12.032,12.032,0,0,0-.987-4.867,4.564,4.564,0,0,0-4.94-2.529C85.07,69.235,82.571,68.452,80.051,68.707Z" transform="translate(-2.25 3.863)" fill="#e3e8f4"/>
      <path id="Path_3437" data-name="Path 3437" d="M99.836,50.24a14.457,14.457,0,0,1,2.572,3.631A60.175,60.175,0,0,1,107.93,67.9a4.069,4.069,0,0,0,.53,1.379c.417.587,1.123.911,1.578,1.466a2.976,2.976,0,0,1,.471,2.473,8.3,8.3,0,0,1-1.041,2.374c-1.186,2.054-2.585,4.175-4.763,5.113a10.885,10.885,0,0,1-2.893.681,56.774,56.774,0,0,1-11.167.361,3.224,3.224,0,0,0,.483-2.839,28.348,28.348,0,0,0-1.041-2.8,8.2,8.2,0,0,0-.9-2.144,4.37,4.37,0,0,0-1.224-1.077,8.861,8.861,0,0,0-3.536-1.3,9.4,9.4,0,0,1,3.28-1.3,4.739,4.739,0,0,0,2.924-1.862,4.648,4.648,0,0,0,.505-2.049,17.371,17.371,0,0,0-.734-6.311c-.419-1.358-1.013-2.777-.651-4.149a6.19,6.19,0,0,1,1.008-1.885,11.163,11.163,0,0,1,2.775-3.092,6.919,6.919,0,0,1,3.378-1.065C97.8,49.817,99.159,49.6,99.836,50.24Z" transform="translate(-0.791 1.001)" fill="#6c63ff"/>
      <path id="Path_3438" data-name="Path 3438" d="M59.229,85.231c-.01,1.359-3.706,2.864-7.982,2.864s-7.846-1.5-7.9-2.864c-.2-4.727,3.625-2.066,7.9-2.066S59.268,79.79,59.229,85.231Z" transform="translate(-7.028 5.909)" fill="#3f3d56"/>
      <path id="Path_3439" data-name="Path 3439" d="M59.229,85.231c-.01,1.359-3.706,2.864-7.982,2.864s-7.846-1.5-7.9-2.864c-.2-4.727,3.625-2.066,7.9-2.066S59.268,79.79,59.229,85.231Z" transform="translate(-7.028 5.909)" opacity="0.2"/>
      <path id="Path_3440" data-name="Path 3440" d="M58.969,83.3c0,1.36-3.468,2.864-7.744,2.864s-7.744-1.5-7.744-2.864,3.467-2.065,7.744-2.065S58.969,81.942,58.969,83.3Z" transform="translate(-7.006 5.773)" fill="#3f3d56"/>
      <path id="Path_3441" data-name="Path 3441" d="M58.969,83.3c0,1.36-3.468,2.864-7.744,2.864s-7.744-1.5-7.744-2.864,3.467-2.065,7.744-2.065S58.969,81.942,58.969,83.3Z" transform="translate(-7.006 5.773)" fill="#fff" opacity="0.1"/>
      <path id="Path_3442" data-name="Path 3442" d="M57.25,82.882c-.008,1.061-2.89,2.23-6.226,2.23s-6.118-1.172-6.165-2.23C44.7,79.2,47.688,81.27,51.024,81.27S57.282,78.638,57.25,82.882Z" transform="translate(-6.797 5.656)" fill="#3f3d56"/>
      <path id="Path_3443" data-name="Path 3443" d="M57.25,82.882c-.008,1.061-2.89,2.23-6.226,2.23s-6.118-1.172-6.165-2.23C44.7,79.2,47.688,81.27,51.024,81.27S57.282,78.638,57.25,82.882Z" transform="translate(-6.797 5.656)" opacity="0.2"/>
      <path id="Path_3444" data-name="Path 3444" d="M57.047,81.174c0,1.186-2.7,2.493-6.04,2.493s-6.041-1.3-6.041-2.493,2.705-1.8,6.041-1.8S57.047,79.987,57.047,81.174Z" transform="translate(-6.78 5.491)" fill="#3f3d56"/>
      <path id="Path_3445" data-name="Path 3445" d="M57.047,81.174c0,1.186-2.7,2.493-6.04,2.493s-6.041-1.3-6.041-2.493,2.705-1.8,6.041-1.8S57.047,79.987,57.047,81.174Z" transform="translate(-6.78 5.491)" fill="#fff" opacity="0.1"/>
      <path id="Path_3446" data-name="Path 3446" d="M38.474,88.589a5.875,5.875,0,0,0,1.34-2.676c.2-1.416-5.585-3.592-5.585-3.592s-2,1.172-2.072,2.269C32.157,84.59,35.994,88.714,38.474,88.589Z" transform="translate(-8.724 5.938)" fill="#3f3d56"/>
      <path id="Path_3447" data-name="Path 3447" d="M38.474,88.589a5.875,5.875,0,0,0,1.34-2.676c.2-1.416-5.585-3.592-5.585-3.592s-2,1.172-2.072,2.269C32.157,84.59,35.994,88.714,38.474,88.589Z" transform="translate(-8.724 5.938)" opacity="0.2"/>
      <ellipse id="Ellipse_219" data-name="Ellipse 219" cx="1.258" cy="3.746" rx="1.258" ry="3.746" transform="matrix(0.515, -0.857, 0.857, 0.515, 22.626, 91.807)" fill="#3f3d56"/>
      <ellipse id="Ellipse_220" data-name="Ellipse 220" cx="1.258" cy="3.746" rx="1.258" ry="3.746" transform="matrix(0.515, -0.857, 0.857, 0.515, 22.626, 91.807)" fill="#fff" opacity="0.1"/>
      <path id="Path_3448" data-name="Path 3448" d="M27.82,80.535l3.288-5.482-3.344-2.84-2.607-.488-.814,1.467-2.288,4.246Z" transform="translate(3.35 10.882)" fill="#3f3d56"/>
      <path id="Path_3449" data-name="Path 3449" d="M27.82,80.535l3.288-5.482-3.344-2.84-2.607-.488-.814,1.467-2.288,4.246Z" transform="translate(3.35 10.882)" fill="#fff" opacity="0.1"/>
      <path id="Path_3450" data-name="Path 3450" d="M42.568,81.711s2.221-2.36,1.651-3.636-3.581-3.832-5.5-3.443S36.5,77.849,36.5,77.849Z" transform="translate(-8.066 4.765)" fill="#3f3d56"/>
      <path id="Path_3451" data-name="Path 3451" d="M42.568,81.711s2.221-2.36,1.651-3.636-3.581-3.832-5.5-3.443S36.5,77.849,36.5,77.849Z" transform="translate(-8.066 4.765)" opacity="0.2"/>
      <path id="Path_3452" data-name="Path 3452" d="M19.947,72.131l17.01,10.346s1.617-.21,1.441-2.374L21.551,69.644A1.743,1.743,0,0,0,20.4,69.4a1.4,1.4,0,0,0-1.183.669,1.483,1.483,0,0,0-.094.348,1.717,1.717,0,0,0,.823,1.717Z" transform="translate(-10.705 3.974)" fill="#3f3d56"/>
      <path id="Path_3453" data-name="Path 3453" d="M19.947,72.131l17.01,10.346s1.617-.21,1.441-2.374L21.551,69.644A1.743,1.743,0,0,0,20.4,69.4a1.4,1.4,0,0,0-1.183.669,1.483,1.483,0,0,0-.094.348,1.717,1.717,0,0,0,.823,1.717Z" transform="translate(-10.705 3.974)" opacity="0.2"/>
      <path id="Path_3454" data-name="Path 3454" d="M39.65,86.287a.418.418,0,0,0,.381-.315.987.987,0,0,0-.229-.808,4.343,4.343,0,0,0-1.054-1.078A13.643,13.643,0,0,0,36.6,82.654a6.562,6.562,0,0,0-1.416-.447,4.817,4.817,0,0,0-1.114-.122.328.328,0,0,0-.2.579h0a1.654,1.654,0,0,0,.57.24,10.489,10.489,0,0,1,2.831,1.4,8.89,8.89,0,0,1,1.324,1.041C38.864,85.616,39.21,86.3,39.65,86.287Z" transform="translate(-8.483 5.902)" fill="#3f3d56"/>
      <path id="Path_3455" data-name="Path 3455" d="M39.65,86.287a.418.418,0,0,0,.381-.315.987.987,0,0,0-.229-.808,4.343,4.343,0,0,0-1.054-1.078A13.643,13.643,0,0,0,36.6,82.654a6.562,6.562,0,0,0-1.416-.447,4.817,4.817,0,0,0-1.114-.122.328.328,0,0,0-.2.579h0a1.654,1.654,0,0,0,.57.24,10.489,10.489,0,0,1,2.831,1.4,8.89,8.89,0,0,1,1.324,1.041C38.864,85.616,39.21,86.3,39.65,86.287Z" transform="translate(-8.483 5.902)" opacity="0.2"/>
      <path id="Path_3456" data-name="Path 3456" d="M41.978,81.751s1.669.04.288-1.638-3.852-3.343-5.611-2.967c0,0-.729.6-.1.708.6.1,3.385.651,4.666,2.2a3.326,3.326,0,0,0,.467.461C41.99,80.764,42.4,81.227,41.978,81.751Z" transform="translate(-8.096 5.144)" fill="#3f3d56"/>
      <path id="Path_3457" data-name="Path 3457" d="M41.978,81.751s1.669.04.288-1.638-3.852-3.343-5.611-2.967c0,0-.729.6-.1.708.6.1,3.385.651,4.666,2.2a3.326,3.326,0,0,0,.467.461C41.99,80.764,42.4,81.227,41.978,81.751Z" transform="translate(-8.096 5.144)" opacity="0.2"/>
      <ellipse id="Ellipse_221" data-name="Ellipse 221" cx="1.258" cy="3.746" rx="1.258" ry="3.746" transform="matrix(0.515, -0.857, 0.857, 0.515, 29.532, 80.42)" fill="#3f3d56"/>
      <ellipse id="Ellipse_222" data-name="Ellipse 222" cx="1.258" cy="3.746" rx="1.258" ry="3.746" transform="matrix(0.515, -0.857, 0.857, 0.515, 29.532, 80.42)" fill="#fff" opacity="0.1"/>
      <path id="Path_3458" data-name="Path 3458" d="M36.133,78.672a1.862,1.862,0,0,1-.929,1.476,1.894,1.894,0,0,1-2.511-.85,4.481,4.481,0,0,1-.26-1.511,4.959,4.959,0,0,0-.068-.5c-.13-.67-.685-1.382-1.355-1.25-.553.108-.845.729-.911,1.289a4.236,4.236,0,0,0-.026.463c0,.161.007.323.016.484.018.331.047.663.046.993a2.426,2.426,0,0,1-.611,1.789,3.111,3.111,0,0,1-2.234.558c-1.925-.02-4.068-.13-5.517-1.315a3.953,3.953,0,0,1-.495-.475,4.092,4.092,0,0,1-.681-1.092,5.051,5.051,0,0,1-.3-.942,8.392,8.392,0,0,1,.009-3.132,3.122,3.122,0,0,1,.825-1.829,1.485,1.485,0,0,1,.391-.246,3.06,3.06,0,0,0,.7-.285c.2-.155.337-.436.553-.605.433-.34,1.092-.194,1.6-.309h.022l.027-.008A10.046,10.046,0,0,0,26,70.722c.223-.1.445-.186.669-.267a3.848,3.848,0,0,1,1.757-.26,10.079,10.079,0,0,1,5.633,2.829,3.29,3.29,0,0,1,.752,1.153,4.272,4.272,0,0,1,.18,1.118,3.4,3.4,0,0,0,.329,1.526c.161.276.4.5.566.781a1.479,1.479,0,0,1,.1.2A1.787,1.787,0,0,1,36.133,78.672Z" transform="translate(-10.546 4.095)" fill="#be6f72"/>
      <path id="Path_3459" data-name="Path 3459" d="M31,72.386A8.4,8.4,0,0,1,33.2,73.9a3.71,3.71,0,0,1,1.122,2.376,11.227,11.227,0,0,0,1.4-2.149A2.374,2.374,0,0,0,36,72.186a2.166,2.166,0,0,0-.53-.69,8.109,8.109,0,0,0-4.34-1.973c-1.722-.272-5.163-.866-5.427,1.642A10.023,10.023,0,0,1,31,72.386Z" transform="translate(-9.704 3.955)" fill="#e3e8f4"/>
      <path id="Path_3460" data-name="Path 3460" d="M52.622,44.142c-1.274.551-2.766.161-4.114.495a7.337,7.337,0,0,0-2.657,1.5A13.043,13.043,0,0,0,41.8,50.653c-.281.607-.482,1.251-.819,1.822a6.966,6.966,0,0,1-2.324,2.213c-2.318,1.494-5.01,2.429-7.074,4.259a16.141,16.141,0,0,0-2.317,2.662,6.8,6.8,0,0,0-1.605,3.752,8.248,8.248,0,0,1,0,1.623c-.229,1.191-1.432,1.931-1.975,3.016-.521,1.035-.4,2.313-.976,3.313-.38.651-1.069,1.3-.851,2.02a6.769,6.769,0,0,1,5.467-1.3,9.86,9.86,0,0,1,2.765,1.108,9.009,9.009,0,0,1,2.747,2.083,3.857,3.857,0,0,1,.911,3.219,4.864,4.864,0,0,0,2.114-2.726,12.524,12.524,0,0,1,1.484-3.187,11.887,11.887,0,0,1,1.271-1.29,36.98,36.98,0,0,0,5.915-8.1q2.666-4.449,5.329-8.9A18.183,18.183,0,0,0,53.2,53.69C54.395,50.7,53.621,47.2,52.622,44.142Z" transform="translate(-9.991 0.143)" fill="#6c63ff"/>
      <ellipse id="Ellipse_223" data-name="Ellipse 223" cx="7.421" cy="1.427" rx="7.421" ry="1.427" transform="translate(109.57 81.196)" fill="#6c63ff"/>
      <ellipse id="Ellipse_224" data-name="Ellipse 224" cx="0.864" cy="1.131" rx="0.864" ry="1.131" transform="translate(116.002 80.886)" fill="#3f3d56"/>
      <ellipse id="Ellipse_225" data-name="Ellipse 225" cx="0.864" cy="1.131" rx="0.864" ry="1.131" transform="translate(116.002 79.502)" fill="#3f3d56"/>
      <ellipse id="Ellipse_226" data-name="Ellipse 226" cx="0.864" cy="1.131" rx="0.864" ry="1.131" transform="translate(116.002 78.12)" fill="#3f3d56"/>
      <ellipse id="Ellipse_227" data-name="Ellipse 227" cx="0.864" cy="1.131" rx="0.864" ry="1.131" transform="translate(116.002 76.737)" fill="#3f3d56"/>
      <ellipse id="Ellipse_228" data-name="Ellipse 228" cx="0.864" cy="1.131" rx="0.864" ry="1.131" transform="translate(116.002 75.355)" fill="#3f3d56"/>
      <ellipse id="Ellipse_229" data-name="Ellipse 229" cx="0.864" cy="1.131" rx="0.864" ry="1.131" transform="translate(116.002 73.972)" fill="#3f3d56"/>
      <ellipse id="Ellipse_230" data-name="Ellipse 230" cx="0.864" cy="1.131" rx="0.864" ry="1.131" transform="translate(116.002 72.59)" fill="#3f3d56"/>
      <path id="Path_3461" data-name="Path 3461" d="M117.062,62.367a4.194,4.194,0,0,0,.322-.473l-2.27-.374,2.455.018a4.147,4.147,0,0,0,.079-3.279l-3.295,1.709,3.038-2.234a4.14,4.14,0,1,0-6.837,4.632,4.217,4.217,0,0,0-.471.755l2.947,1.532L109.886,63.6a4.142,4.142,0,0,0,.667,3.887,4.14,4.14,0,1,0,6.509,0,4.142,4.142,0,0,0,0-5.119Z" transform="translate(3.04 1.892)" fill="#6c63ff"/>
      <path id="Path_3462" data-name="Path 3462" d="M109.669,63.714a4.123,4.123,0,0,0,.885,2.559,4.14,4.14,0,1,0,6.509,0C117.616,65.569,109.669,63.249,109.669,63.714Z" transform="translate(3.041 3.104)" opacity="0.1"/>
      <path id="Path_3463" data-name="Path 3463" d="M65.362,27.331a9.854,9.854,0,0,0,2.778.923c1.241.083,2.412-.549,3.645-.724,2.259-.319,4.4.911,6.524,1.747s4.856,1.182,6.411-.486c1.321-1.418,1.139-3.775.077-5.389a11.579,11.579,0,0,0-4.513-3.558A20.2,20.2,0,0,0,74.311,17.6c-4.473-.741-9.017,1.109-12.729,3.714a8.181,8.181,0,0,0-3.037,3.254,3.722,3.722,0,0,0-.147,2.594c.476,1.338.789,1.179,1.777.831C62.062,27.329,63.178,26.495,65.362,27.331Z" transform="translate(-4.767 -3.911)" fill="#3f3d56"/>
    </g>
  </g>
</svg>
