<svg xmlns="http://www.w3.org/2000/svg" xmlns:xlink="http://www.w3.org/1999/xlink" width="137" height="104" viewBox="0 0 137 104">
  <defs>
    <clipPath id="clip-path">
      <rect id="Rectangle_1211" data-name="Rectangle 1211" width="137" height="104" transform="translate(1080 456)" fill="#fff"/>
    </clipPath>
  </defs>
  <g id="Mask_Group_11" data-name="Mask Group 11" transform="translate(-1080 -456)" clip-path="url(#clip-path)">
    <g id="undraw_analyze_17kw" transform="translate(1083.588 455.991)">
      <ellipse id="Ellipse_231" data-name="Ellipse 231" cx="30.046" cy="2.517" rx="30.046" ry="2.517" transform="translate(66.686 98.975)" fill="#3f3d56"/>
      <path id="Path_3469" data-name="Path 3469" d="M156.1,92.122c0,12.334-7.332,16.641-16.377,16.641s-16.378-4.307-16.378-16.641S139.724,64.1,139.724,64.1,156.1,79.787,156.1,92.122Z" transform="translate(-29.479 -18.786)" fill="#f2f2f2"/>
      <path id="Path_3470" data-name="Path 3470" d="M109.648,88.09l.168-10.323L116.8,65l-6.954,11.151.075-4.641,4.811-9.239-4.791,8.011h0l.136-8.348,5.152-7.356-5.13,6.043.085-15.307-.533,20.264.044-.836-5.238-8.017,5.154,9.622-.488,9.323-.014-.247-6.038-8.437,6.02,9.311-.061,1.166-.011.018.005.1-1.238,23.654h1.654l.2-12.217,6.005-9.288Z" fill="#3f3d56"/>
      <path id="Path_3471" data-name="Path 3471" d="M150.985,114.317c0,3.535-2.1,4.769-4.693,4.769l-.18,0c-.12,0-.239-.008-.357-.016-2.339-.166-4.157-1.463-4.157-4.75,0-3.4,4.347-7.694,4.674-8.012h0l.019-.018S150.985,110.782,150.985,114.317Z" transform="translate(-29.479 -18.786)" fill="#6c63ff"/>
      <path id="Path_3472" data-name="Path 3472" d="M146.12,118.545l1.717-2.4-1.721,2.662,0,.275c-.12,0-.239-.008-.357-.016l.185-3.536V115.5l0-.005.017-.334-1.725-2.668,1.731,2.418,0,.071.14-2.672-1.477-2.757,1.495,2.288.146-5.539v0l-.024,4.368,1.47-1.732-1.476,2.108-.039,2.392,1.373-2.3-1.379,2.648-.022,1.33,1.993-3.2-2,3.66Z" transform="translate(-29.479 -18.786)" fill="#3f3d56"/>
      <circle id="Ellipse_232" data-name="Ellipse 232" cx="7.536" cy="7.536" r="7.536" transform="translate(27.892 25.375)" fill="#f2f2f2"/>
      <circle id="Ellipse_233" data-name="Ellipse 233" cx="7.536" cy="7.536" r="7.536" transform="translate(29.451 23.123)" fill="none" stroke="#3f3d56" stroke-width="0.315"/>
      <path id="Path_3473" data-name="Path 3473" d="M55.985,37.578,49.918,27.415a4.845,4.845,0,1,0-1.992,1.495Z" transform="translate(-29.479 -18.786)" fill="#3f3d56"/>
      <circle id="Ellipse_234" data-name="Ellipse 234" cx="2.252" cy="2.252" r="2.252" transform="translate(14.379 3.374)" fill="#6c63ff"/>
      <path id="Path_3474" data-name="Path 3474" d="M75.445,36.4l8.393-8.345a4.845,4.845,0,1,0-1.932-1.572Z" transform="translate(-29.479 -18.786)" fill="#3f3d56"/>
      <circle id="Ellipse_235" data-name="Ellipse 235" cx="2.252" cy="2.252" r="2.252" transform="translate(54.099 2.6)" fill="#6c63ff"/>
      <path id="Path_3475" data-name="Path 3475" d="M81.291,55l10.128,6.125a4.845,4.845,0,1,0,1.057-2.255Z" transform="translate(-29.479 -18.786)" fill="#3f3d56"/>
      <circle id="Ellipse_236" data-name="Ellipse 236" cx="2.252" cy="2.252" r="2.252" transform="translate(64.459 40.953)" fill="#6c63ff"/>
      <path id="Path_3476" data-name="Path 3476" d="M64.66,65.173,61.168,76.482a4.845,4.845,0,1,0,2.444.48Z" transform="translate(-29.479 -18.786)" fill="#3f3d56"/>
      <circle id="Ellipse_237" data-name="Ellipse 237" cx="2.252" cy="2.252" r="2.252" transform="translate(29.752 60.283)" fill="#6c63ff"/>
      <path id="Path_3477" data-name="Path 3477" d="M50.767,51.5l-11.818-.653a4.845,4.845,0,1,0,.125,2.488Z" transform="translate(-29.479 -18.786)" fill="#3f3d56"/>
      <circle id="Ellipse_238" data-name="Ellipse 238" cx="2.252" cy="2.252" r="2.252" transform="translate(2.599 31.284)" fill="#6c63ff"/>
      <circle id="Ellipse_239" data-name="Ellipse 239" cx="2.321" cy="2.321" r="2.321" transform="translate(125.173 5.311)" fill="#f2f2f2"/>
      <circle id="Ellipse_240" data-name="Ellipse 240" cx="2.321" cy="2.321" r="2.321" transform="translate(124.229 4.524)" fill="none" stroke="#3f3d56" stroke-width="0.315"/>
      <rect id="Rectangle_1212" data-name="Rectangle 1212" width="5.244" height="5.244" transform="translate(107.587 8.153)" fill="#6c63ff"/>
      <rect id="Rectangle_1213" data-name="Rectangle 1213" width="5.244" height="5.244" transform="translate(108.636 7.105)" fill="none" stroke="#3f3d56" stroke-width="0.315"/>
      <path id="Path_3478" data-name="Path 3478" d="M125.032,111.075s-.472,2.989-1.258,3.461,4.09,1.573,4.09,1.573l.787-4.719Z" transform="translate(-29.479 -18.786)" fill="#fbbebe"/>
      <path id="Path_3479" data-name="Path 3479" d="M130.853,76.938l1.73,2.045-.787,7.079-.629,14s1.258,12.113,0,12.428-6.922.157-6.764-.629.315-1.416.629-2.517-.315-5.034-.315-5.034l.787-4.4-2.832-19.035Z" transform="translate(-29.479 -18.786)" fill="#2f2e41"/>
      <path id="Path_3480" data-name="Path 3480" d="M125.19,114.064s-1.73-.315-1.888,0-3.146,3.618-3.618,3.618-3.933,3.146-.315,3.3,9.6-2.674,9.6-2.674-.88-4-.833-3.811S125.19,114.85,125.19,114.064Z" transform="translate(-29.479 -18.786)" fill="#2f2e41"/>
      <path id="Path_3481" data-name="Path 3481" d="M123.3,106.827s4.4,4.877,4.562,5.349,2.517,0,2.517,0l.944-3.146-.787-1.1-4.4-3.618Z" transform="translate(-29.479 -18.786)" fill="#fbbebe"/>
      <path id="Path_3482" data-name="Path 3482" d="M129.594,110.446l-2.281,2.147s2.91,4.46,2.91,4.932.157,4.4,1.73,3.775,1.73-6.922,1.73-6.922-.157-6.45-1.1-6.922a7.881,7.881,0,0,0-3.013-.323S130.853,110.288,129.594,110.446Z" transform="translate(-29.479 -18.786)" fill="#2f2e41"/>
      <path id="Path_3483" data-name="Path 3483" d="M116.538,62.937s-.787,2.517-.944,3.146a13.89,13.89,0,0,0-1.1,5.034c0,2.674.315,5.821,0,6.135s-5.349,17.934-3.146,19.821,9.439,8.18,9.911,8.967.629,2.674,1.573,2.36,4.562-3.461,4.719-4.09-2.045-1.73-2.045-1.73-4.4-6.45-5.506-6.292-.944-.787-.787-1.258.472-.787,0-.787-.157-1.258,0-1.888,3.775-9.124,3.775-9.124l9.6-4.247s-.472-11.484-3.933-14.63l-.787-1.888S119.055,61.836,116.538,62.937Z" transform="translate(-29.479 -18.786)" fill="#2f2e41"/>
      <path id="Path_3484" data-name="Path 3484" d="M120.47,38.082s.787,5.506-1.1,5.821-3.461.157-3.461.315,4.719,5.034,4.719,5.034l4.4-.315,3.933-4.247s-3.618-.629-3.618-2.832-.157-3.775-.157-3.775Z" transform="translate(-29.479 -18.786)" fill="#fbbebe"/>
      <path id="Path_3485" data-name="Path 3485" d="M120.47,38.082s.787,5.506-1.1,5.821-3.461.157-3.461.315,4.719,5.034,4.719,5.034l4.4-.315,3.933-4.247s-3.618-.629-3.618-2.832-.157-3.775-.157-3.775Z" transform="translate(-29.479 -18.786)" opacity="0.1"/>
      <circle id="Ellipse_241" data-name="Ellipse 241" cx="4.877" cy="4.877" r="4.877" transform="translate(88.553 11.824)" fill="#fbbebe"/>
      <path id="Path_3486" data-name="Path 3486" d="M118.583,43.431s-6.135.787-6.607,2.832,3.146,14.787,3.618,15.888a3.48,3.48,0,0,1,.315,1.888,6.224,6.224,0,0,1,5.034-1.1,31.758,31.758,0,0,0,7.236.315s1.416-5.821,1.73-6.45a23.578,23.578,0,0,0,1.573-5.034c0-.944,1.888-4.877,1.888-4.877a4.281,4.281,0,0,0-4.4-2.674s-1.51-.676-1.935-.181-2.785,2.7-5.774,1.754S118.583,43.431,118.583,43.431Z" transform="translate(-29.479 -18.786)" fill="#3f3d56"/>
      <path id="Path_3487" data-name="Path 3487" d="M113.706,46.105h-1.73l-.944,12.428s3.461.944,3.933.315S113.706,46.105,113.706,46.105Z" transform="translate(-29.479 -18.786)" fill="#3f3d56"/>
      <path id="Path_3488" data-name="Path 3488" d="M111.5,57.274l-.472,1.258s-.315,4.09,1.573,3.933,2.989-2.517,2.989-2.517-1.1-2.989-2.36-2.674S111.5,57.274,111.5,57.274Z" transform="translate(-29.479 -18.786)" fill="#3f3d56"/>
      <path id="Path_3489" data-name="Path 3489" d="M130.381,46.105l2.989.787s2.2,8.023,2.36,8.18a4,4,0,0,1,.315,1.1s0,.157.315.629.787.157.472.787-.787.315-.472.944a6.618,6.618,0,0,1,.157,2.36s-.787-2.989-3.618-2.2L131.01,50.2Z" transform="translate(-29.479 -18.786)" fill="#3f3d56"/>
      <path id="Path_3490" data-name="Path 3490" d="M117.354,31.468A13.462,13.462,0,0,0,116,37.275a7.022,7.022,0,0,0,.152,2.56c.268.866.865,1.746.559,2.6-.3.825-1.286,1.156-1.839,1.836a3.06,3.06,0,0,0-.546,2.109c.041.742.221,1.47.273,2.212a6.552,6.552,0,0,1-1.409,4.516c2.369-.091,4.9-1.142,5.9-3.292.3-.643.444-1.346.714-2,.3-.742.765-1.413,1.054-2.161a10.305,10.305,0,0,0,.477-3.578,5.923,5.923,0,0,0-.232-2.147c-.552-1.5-2.267-2.462-2.438-4.048a.8.8,0,0,1,.071-.493,1.307,1.307,0,0,1,.288-.291c1.071-.946.895-2.947,2.17-3.592a2.572,2.572,0,0,1,1.877,0,3.542,3.542,0,0,1,1.807,1.075c.894,1.121.541,2.74.265,4.147a24.755,24.755,0,0,0-.423,6.2,4.012,4.012,0,0,0,.146.982,8.18,8.18,0,0,0,.779,1.432,4.729,4.729,0,0,1,.493,3.212c-.2.953-.68,1.968-.253,2.843a2.567,2.567,0,0,0,.765.851c1.394,1.093,3.164,1.77,4.2,3.206a9.816,9.816,0,0,0-.413-3.514,5.42,5.42,0,0,1,.112-3.491c.227-.469.573-.876.758-1.363.428-1.124-.082-2.356-.392-3.518a20.946,20.946,0,0,1-.478-2.772l-.319-2.52a19.467,19.467,0,0,0-1.455-6.1,6.346,6.346,0,0,0-9.12-2.912,5.907,5.907,0,0,0-2.192,2.213Z" transform="translate(-29.479 -18.786)" fill="#ff6584"/>
      <path id="Path_3491" data-name="Path 3491" d="M113.077,58.061s-.944,2.832.157,2.832a4.445,4.445,0,0,0,3.3-3.146c.157-1.416,2.989-6.764.944-6.292s-2.989,4.4-2.989,4.4Z" transform="translate(-29.479 -18.786)" fill="#fbbebe"/>
      <path id="Path_3492" data-name="Path 3492" d="M99.486,27.319,94.295,44.152l7.079,1.573,5.191-16.36Z" fill="#6c63ff"/>
      <path id="Path_3493" data-name="Path 3493" d="M135.572,58.218l.983,1.642s.433,3.077-1.769,3.077-5.349-2.989-5.349-2.989a6.263,6.263,0,0,0-2.517-.472c-.944.157-6.135,0-3.933-2.674s5.978,0,5.978,0L132.9,58.69l2.045-1.1Z" transform="translate(-29.479 -18.786)" fill="#fbbebe"/>
      <path id="Path_3494" data-name="Path 3494" d="M134.235,56.094l-1.573,2.517s3.618.472,3.933,1.258-1.416-4.09-1.416-4.09Z" transform="translate(-29.479 -18.786)" fill="#3f3d56"/>
    </g>
  </g>
</svg>
