<svg xmlns="http://www.w3.org/2000/svg" xmlns:xlink="http://www.w3.org/1999/xlink" width="144" height="108" viewBox="0 0 144 108">
  <defs>
    <clipPath id="clip-path">
      <rect id="Rectangle_978" data-name="Rectangle 978" width="144" height="108" transform="translate(624 712)" fill="#fff"/>
    </clipPath>
  </defs>
  <g id="Mask_Group_1" data-name="Mask Group 1" transform="translate(-624 -712)" clip-path="url(#clip-path)">
    <g id="undraw_Credit_card_re_blml" transform="translate(636.795 712)">
      <rect id="Rectangle_979" data-name="Rectangle 979" width="103.343" height="9.395" transform="translate(2.829 38.838) rotate(-16.244)" fill="#3f3d56"/>
      <path id="Path_2873" data-name="Path 2873" d="M73.338,115.8,58.714,65.613a1.461,1.461,0,0,1,.994-1.812L156.52,35.594a1.463,1.463,0,0,1,1.812.994l12.956,44.466-.4.117L157.931,36.705a1.046,1.046,0,0,0-1.294-.71L59.825,64.2a1.044,1.044,0,0,0-.71,1.294l14.624,50.192Z" transform="translate(-58.655 -35.536)" fill="#3f3d56"/>
      <path id="Path_2874" data-name="Path 2874" d="M140.15,77.69a1.36,1.36,0,0,1-1.3-.978l-2.453-8.418a1.359,1.359,0,0,1,.923-1.682l8.418-2.453a1.359,1.359,0,0,1,1.682.923L149.87,73.5a1.358,1.358,0,0,1-.923,1.682l-8.418,2.453a1.352,1.352,0,0,1-.379.054Z" transform="translate(-48.945 -31.965)" fill="#6c63ff"/>
      <path id="Path_2875" data-name="Path 2875" d="M72.051,62.61a2.44,2.44,0,0,0-.09-.255,2.505,2.505,0,0,0-4.783,1.393,2.372,2.372,0,0,0,.061.263,2.509,2.509,0,0,0,2.407,1.8,2.452,2.452,0,0,0,.7-.1A2.508,2.508,0,0,0,72.051,62.61Zm-1.823,2.7a2.09,2.09,0,0,1-2.589-1.42,2.385,2.385,0,0,1-.059-.263,2.087,2.087,0,0,1,3.975-1.157,1.743,1.743,0,0,1,.094.253,2.089,2.089,0,0,1-1.422,2.587Z" transform="translate(-57.595 -32.377)" fill="#6c63ff"/>
      <path id="Path_2876" data-name="Path 2876" d="M66.214,64.28a2.3,2.3,0,0,1,.879-2.517,2.3,2.3,0,1,0,1.215,4.169,2.3,2.3,0,0,1-2.093-1.651Z" transform="translate(-57.902 -32.258)" fill="#6c63ff"/>
      <path id="Path_2877" data-name="Path 2877" d="M125.611,73.3a1.261,1.261,0,0,0-1.555-.877L110.2,76.3l-1.493.418h9.374l1.493-.418,5.167-1.445a1.263,1.263,0,0,0,.875-1.555Z" transform="translate(-52.4 -30.931)" fill="#ccc"/>
      <path id="Path_2878" data-name="Path 2878" d="M117.6,70.725a1.262,1.262,0,0,0-1.555-.875l-20.8,5.816a1.267,1.267,0,0,0-.912,1.372H99.72l1.495-.418,15.512-4.338a1.264,1.264,0,0,0,.875-1.557Z" transform="translate(-54.197 -31.252)" fill="#ccc"/>
      <path id="Path_2879" data-name="Path 2879" d="M173.976,75.863H73.138a1.463,1.463,0,0,0-1.461,1.461v59.709a1.463,1.463,0,0,0,1.461,1.461H173.976a1.463,1.463,0,0,0,1.461-1.461V77.324a1.463,1.463,0,0,0-1.461-1.461Zm1.044,61.17a1.044,1.044,0,0,1-1.044,1.044H73.138a1.044,1.044,0,0,1-1.044-1.044V77.324a1.044,1.044,0,0,1,1.044-1.044H173.976a1.044,1.044,0,0,1,1.044,1.044Z" transform="translate(-57.028 -30.495)" fill="#3f3d56"/>
      <path id="Path_2880" data-name="Path 2880" d="M81.976,83.658a2.505,2.505,0,1,1,2.505-2.505,2.505,2.505,0,0,1-2.505,2.505Zm0-4.593a2.088,2.088,0,1,0,2.088,2.088,2.088,2.088,0,0,0-2.088-2.088Z" transform="translate(-56.054 -30.147)" fill="#6c63ff"/>
      <path id="Path_2881" data-name="Path 2881" d="M78.4,81.129a2.3,2.3,0,0,1,1.547-2.171,2.3,2.3,0,1,0,0,4.342A2.3,2.3,0,0,1,78.4,81.129Z" transform="translate(-56.374 -30.124)" fill="#6c63ff"/>
      <path id="Path_2882" data-name="Path 2882" d="M90.933,108.228a1.881,1.881,0,0,1-1.879-1.879v-5.637a1.879,1.879,0,0,1,3.758,0v5.637A1.881,1.881,0,0,1,90.933,108.228Z" transform="translate(-54.856 -27.624)" fill="#6c63ff"/>
      <path id="Path_2883" data-name="Path 2883" d="M95.387,108.228a1.881,1.881,0,0,1-1.879-1.879v-5.637a1.879,1.879,0,1,1,3.758,0v5.637A1.881,1.881,0,0,1,95.387,108.228Z" transform="translate(-54.299 -27.624)" fill="#6c63ff"/>
      <path id="Path_2884" data-name="Path 2884" d="M99.841,108.228a1.881,1.881,0,0,1-1.879-1.879v-5.637a1.879,1.879,0,0,1,3.758,0v5.637A1.881,1.881,0,0,1,99.841,108.228Z" transform="translate(-53.742 -27.624)" fill="#6c63ff"/>
      <path id="Path_2885" data-name="Path 2885" d="M106.707,108.228a1.881,1.881,0,0,1-1.879-1.879v-5.637a1.879,1.879,0,0,1,3.758,0v5.637a1.881,1.881,0,0,1-1.879,1.879Z" transform="translate(-52.884 -27.624)" fill="#6c63ff"/>
      <path id="Path_2886" data-name="Path 2886" d="M111.161,108.228a1.881,1.881,0,0,1-1.879-1.879v-5.637a1.879,1.879,0,1,1,3.758,0v5.637A1.881,1.881,0,0,1,111.161,108.228Z" transform="translate(-52.327 -27.624)" fill="#6c63ff"/>
      <path id="Path_2887" data-name="Path 2887" d="M115.615,108.228a1.881,1.881,0,0,1-1.879-1.879v-5.637a1.879,1.879,0,1,1,3.758,0v5.637A1.881,1.881,0,0,1,115.615,108.228Z" transform="translate(-51.77 -27.624)" fill="#6c63ff"/>
      <path id="Path_2888" data-name="Path 2888" d="M122.481,108.228a1.881,1.881,0,0,1-1.879-1.879v-5.637a1.879,1.879,0,0,1,3.758,0v5.637A1.881,1.881,0,0,1,122.481,108.228Z" transform="translate(-50.912 -27.624)" fill="#6c63ff"/>
      <path id="Path_2889" data-name="Path 2889" d="M126.935,108.228a1.881,1.881,0,0,1-1.879-1.879v-5.637a1.879,1.879,0,0,1,3.758,0v5.637A1.881,1.881,0,0,1,126.935,108.228Z" transform="translate(-50.355 -27.624)" fill="#6c63ff"/>
      <path id="Path_2890" data-name="Path 2890" d="M131.389,108.228a1.881,1.881,0,0,1-1.879-1.879v-5.637a1.879,1.879,0,0,1,3.758,0v5.637A1.881,1.881,0,0,1,131.389,108.228Z" transform="translate(-49.799 -27.624)" fill="#6c63ff"/>
      <path id="Path_2891" data-name="Path 2891" d="M138.255,108.228a1.881,1.881,0,0,1-1.879-1.879v-5.637a1.879,1.879,0,0,1,3.758,0v5.637A1.881,1.881,0,0,1,138.255,108.228Z" transform="translate(-48.94 -27.624)" fill="#6c63ff"/>
      <path id="Path_2892" data-name="Path 2892" d="M142.709,108.228a1.881,1.881,0,0,1-1.879-1.879v-5.637a1.879,1.879,0,1,1,3.758,0v5.637A1.881,1.881,0,0,1,142.709,108.228Z" transform="translate(-48.384 -27.624)" fill="#6c63ff"/>
      <path id="Path_2893" data-name="Path 2893" d="M147.163,108.228a1.881,1.881,0,0,1-1.879-1.879v-5.637a1.879,1.879,0,0,1,3.758,0v5.637A1.881,1.881,0,0,1,147.163,108.228Z" transform="translate(-47.827 -27.624)" fill="#6c63ff"/>
      <path id="Path_2894" data-name="Path 2894" d="M105.191,126.054H78.167a1.263,1.263,0,1,1,0-2.525h27.024a1.263,1.263,0,1,1,0,2.525Z" transform="translate(-56.374 -24.537)" fill="#e6e6e6"/>
      <path id="Path_2895" data-name="Path 2895" d="M95.564,121.229h-9.7a1.263,1.263,0,1,1,0-2.525h9.7a1.263,1.263,0,1,1,0,2.525Z" transform="translate(-55.412 -25.14)" fill="#e6e6e6"/>
      <rect id="Rectangle_980" data-name="Rectangle 980" width="102.925" height="0.418" transform="translate(14.992 57.849)" fill="#3f3d56"/>
    </g>
  </g>
</svg>
