<svg xmlns="http://www.w3.org/2000/svg" xmlns:xlink="http://www.w3.org/1999/xlink" width="112" height="112" viewBox="0 0 112 112"><defs><style>.a,.k{fill:#fff;}.a{stroke:#707070;}.b{opacity:0.5;clip-path:url(#a);}.c,.f{fill:#6c63ff;}.c,.d,.g,.k{opacity:0.1;}.e{fill:#3f3d56;}.h{fill:#be6f72;}.i{fill:#e3e8f4;}.j{opacity:0.2;}</style><clipPath id="a"><rect class="a" width="112" height="112" transform="translate(848 712)"/></clipPath></defs><g class="b" transform="translate(-848 -712)"><g transform="translate(848.002 722.828)"><path class="c" d="M123.645,58.105a30.061,30.061,0,0,0-3.091-10.051A40.357,40.357,0,0,0,106.283,32.37c-.054-.036-.113-.07-.164-.105a6.3,6.3,0,0,0,1.3-2.541c1.731-7.094-9.946-16.037-26.074-19.971C68.4,6.6,56.522,7.627,51.438,11.822c-11.858-.746-24.23,6.551-32.451,17.79a36.451,36.451,0,0,0-6.516,14.146c-1.327,6.506-.533,13.507,1.328,19.786a47.972,47.972,0,0,0,6.164,13.245q.281.414.571.818.5.7,1.017,1.356a31.1,31.1,0,0,0,7.358,6.885,23.538,23.538,0,0,0,4.938,2.464,20.44,20.44,0,0,0,14.186,0A19.864,19.864,0,0,0,50.276,87.3q.6-.315,1.194-.678c.758-.466,1.5-.986,2.242-1.526,1.025-.75,2.034-1.542,3.064-2.281l.088-.064a21.747,21.747,0,0,1,3.709-2.234,10.21,10.21,0,0,1,2.674-.81,9.434,9.434,0,0,1,4.083.318c.251.072.5.155.75.245a16.086,16.086,0,0,1,2.342,1.086c3.26,1.808,6.379,4.692,9.58,6.952.452.323.917.634,1.378.927,4.083,2.592,8.575,3.855,13.019,5.08,5.038,1.39,10.371,2.74,15.245.575a17.664,17.664,0,0,0,7.233-6.582,29.225,29.225,0,0,0,2.254-4.09q.478-1.054.894-2.147a62.538,62.538,0,0,0,3.2-13.563A42.2,42.2,0,0,0,123.645,58.105Z" transform="translate(-11.814 -5.689)"/><g class="d"><path class="e" d="M47.007,65.95c.035.1.071.2.113.293q1.118-.876,2.165-1.808a2.1,2.1,0,0,0,.983-.9c.2-.19.4-.384.6-.578a2.944,2.944,0,0,0-.275-.27,2.148,2.148,0,0,0-3.714,1.225,3.892,3.892,0,0,0,.128,2.042Z" transform="translate(-11.814 -5.689)"/><path class="e" d="M45.766,62.2a3.9,3.9,0,0,0,1.111,1.712,2.324,2.324,0,0,0,2.253.581c.052-.018.1-.037.154-.058a2.1,2.1,0,0,0,.983-.9,2.923,2.923,0,0,0,.324-.848,4.053,4.053,0,0,0-1.243-3.755,2.148,2.148,0,0,0-3.714,1.225,3.892,3.892,0,0,0,.132,2.046Z" transform="translate(-11.814 -5.689)"/><ellipse class="e" cx="2.472" cy="3.236" rx="2.472" ry="3.236" transform="translate(31.692 49.683) rotate(-18.29)"/><ellipse class="e" cx="2.472" cy="3.236" rx="2.472" ry="3.236" transform="translate(30.451 45.928) rotate(-18.29)"/><ellipse class="e" cx="2.472" cy="3.236" rx="2.472" ry="3.236" transform="translate(29.21 42.174) rotate(-18.29)"/><path class="f" d="M44.68,21.559a11.993,11.993,0,0,0,.452-1.576l-6.5,1.026,6.685-2.155a11.867,11.867,0,0,0-2.731-8.977l-7.412,7.6,6.246-8.793A11.839,11.839,0,1,0,27.012,27.4a11.826,11.826,0,0,0-.6,2.474l9.381,1.512-9.481-.043a11.845,11.845,0,0,0,5.3,9.956,11.838,11.838,0,1,0,17.669-5.842,11.838,11.838,0,0,0-4.594-13.9Z" transform="translate(-11.814 -5.689)"/><path class="g" d="M26.9,35.15A11.79,11.79,0,0,0,31.6,41.3a11.838,11.838,0,1,0,17.675-5.847C50.149,33.046,26.485,33.883,26.9,35.15Z" transform="translate(-11.814 -5.689)"/></g><path class="e" d="M55.677,33.967a6.526,6.526,0,0,1-.488-1.857c-.6-3.75-1.155-7.8.466-11.2a3.979,3.979,0,0,1,1.017-1.42,7.241,7.241,0,0,1,1.644-.828,23.847,23.847,0,0,0,4.369-3.137c1.431-1.091,3.158-2,4.911-1.722a17.989,17.989,0,0,1,2.618.879c2.477.8,5.337.279,7.562,1.67a10.492,10.492,0,0,1,2.1,1.93l2.874,3.165A10.758,10.758,0,0,1,84.8,24.259a3.792,3.792,0,0,1-.029,3.4c-.3.505-.779.943-.831,1.536-.057.644.411,1.2.582,1.82.452,1.642-1.206,3.052-2.718,3.7-4.569,1.955-9.6,1.73-14.434,1.65C63.764,36.3,57.754,38.192,55.677,33.967Z" transform="translate(-11.814 -5.689)"/><path class="h" d="M63.8,42.095a4.408,4.408,0,0,1-1.675,1.765,4.355,4.355,0,0,1-2.207.958,23.094,23.094,0,0,0,5.305,4.521,11.814,11.814,0,0,0,2.813,1.579,15.316,15.316,0,0,0,2.9.531,21.141,21.141,0,0,0,3.73.382,8.409,8.409,0,0,0,5.83-2.883,10.826,10.826,0,0,0,2.55-6.061,3.862,3.862,0,0,1-2.16-.931,7.621,7.621,0,0,1-2.017-2.1,10.4,10.4,0,0,1-1.04-2.98c-2.635-.079-5.269-.157-7.9-.106a12.447,12.447,0,0,0-2.857.294c-.892.226-2.754.809-3.3,1.613-.313.463,0,.94.113,1.44A3.245,3.245,0,0,1,63.8,42.095Z" transform="translate(-11.814 -5.689)"/><path class="g" d="M63.8,42.095a4.408,4.408,0,0,1-1.675,1.765,4.355,4.355,0,0,1-2.207.958,23.094,23.094,0,0,0,5.305,4.521,11.814,11.814,0,0,0,2.813,1.579,15.316,15.316,0,0,0,2.9.531,21.141,21.141,0,0,0,3.73.382,8.409,8.409,0,0,0,5.83-2.883,10.826,10.826,0,0,0,2.55-6.061,3.862,3.862,0,0,1-2.16-.931,7.621,7.621,0,0,1-2.017-2.1,10.4,10.4,0,0,1-1.04-2.98c-2.635-.079-5.269-.157-7.9-.106a12.447,12.447,0,0,0-2.857.294c-.892.226-2.754.809-3.3,1.613-.313.463,0,.94.113,1.44A3.245,3.245,0,0,1,63.8,42.095Z" transform="translate(-11.814 -5.689)"/><path class="i" d="M66.783,45.218a10.155,10.155,0,0,0,2.563,2.508,1.951,1.951,0,0,0,1.034.327,2.329,2.329,0,0,0,1.389-.78,76.321,76.321,0,0,0,5.651-5.852,6.412,6.412,0,0,1,1.893-1.687,114.9,114.9,0,0,1,.538,18.737.678.678,0,0,1-.079.339.7.7,0,0,1-.583.214c-6.38.24-13.016.432-18.859-2.147a13.008,13.008,0,0,0,.379-3.776,29.548,29.548,0,0,1,.926-6.165c.245-.991.524-1.973.821-2.95A8.817,8.817,0,0,1,63.44,41.1,33.714,33.714,0,0,1,66.783,45.218Z" transform="translate(-11.814 -5.689)"/><path class="e" d="M57.866,42.557h.791l2.034,3.391L58.544,51.26l-2.6-5.2Z"/><path class="f" d="M69.609,53.6a9.494,9.494,0,0,1-1.49-3.565,7.659,7.659,0,0,0-.277-1.217,6.768,6.768,0,0,0-.984-1.566,13.89,13.89,0,0,1-2.537-6.3c-.14-1.033-.234-2.216-1.068-2.841a3.014,3.014,0,0,0-1.878-.441,10.581,10.581,0,0,0-6.842,2.739,11.3,11.3,0,0,1-.989.873,6.346,6.346,0,0,1-1.13.615,10.311,10.311,0,0,1-3.139.941,3.44,3.44,0,0,0-.827.137,3.212,3.212,0,0,0-.868.565,8.009,8.009,0,0,1-2.96,1.429,59.593,59.593,0,0,0-3.5,10.93c-.2.932-.388,1.872-.667,2.785-.385,1.266-.953,2.473-1.331,3.741-1.505,5.046.076,10.544-.938,15.71l54.37.075c-.854-1.326-.547-3.01-.62-4.585a33.794,33.794,0,0,0-.693-4.3,46.032,46.032,0,0,1-.581-7.262,7.463,7.463,0,0,1,.377-3.032c.745-1.776,2.677-2.713,4.507-3.315a6.8,6.8,0,0,0,2.486-1.163,4.79,4.79,0,0,0,1.3-2.486,22.515,22.515,0,0,0-4.86-6.57,18.885,18.885,0,0,1-2.215-2.108c-.391-.485-.715-1.025-1.147-1.469a6.2,6.2,0,0,0-4.268-1.607,6.819,6.819,0,0,1-1.433-.13c-1.336-.339-2.187-1.644-3.391-2.32a3.99,3.99,0,0,0-2.754-.423,1.846,1.846,0,0,0-1.525,1.213,3.582,3.582,0,0,0,.059,1.148,5.722,5.722,0,0,1-.96,3.36C74.707,46.827,71.227,49.685,69.609,53.6Z" transform="translate(-11.814 -5.689)"/><path class="h" d="M81.488,31.011a11.415,11.415,0,1,1-5.3-9.64A11.414,11.414,0,0,1,81.488,31.011Z" transform="translate(-11.814 -5.689)"/><path class="e" d="M120.029,82.072V76.784H19.966q.281.414.571.818a3.552,3.552,0,0,0,.591.948,3.432,3.432,0,0,0,.429.413,31.1,31.1,0,0,0,7.358,6.885,23.538,23.538,0,0,0,4.938,2.464h83.03Z" transform="translate(-11.814 -5.689)"/><path class="h" d="M72.21,70.738c-1.534-.122-3.128-.5-4.573.025a6.628,6.628,0,0,0-1.391.759,24.978,24.978,0,0,0-4.283,3.637,5.07,5.07,0,0,0-.964,1.3,15.4,15.4,0,0,0-.565,2.223,2.917,2.917,0,0,0-.236,1.282c.075.433.574.821.948.59h0a.83.83,0,0,0,.849.956,2.8,2.8,0,0,0,1.582-.557h0a.536.536,0,0,0,.565.478,5.962,5.962,0,0,0,2.752-1.112,9.143,9.143,0,0,1,3.115-1.582,5.051,5.051,0,0,0-1.825,1.412.7.7,0,0,0-.157.861,1,1,0,0,0,.54.426,3.4,3.4,0,0,0,3.555-1.334,4.231,4.231,0,0,1,1.13-1.158c.767-.413,1.713-.123,2.577-.243a9.952,9.952,0,0,0,2.645-1.16,21.637,21.637,0,0,1,3.73-1,.678.678,0,0,0,.393-.2.7.7,0,0,0,.1-.434,32.323,32.323,0,0,0-.349-4.625,1.611,1.611,0,0,0-.22-.7,1.649,1.649,0,0,0-1.136-.522,13.522,13.522,0,0,0-2.121-.364,7.24,7.24,0,0,0-1.912.553A13.263,13.263,0,0,1,72.21,70.738Z" transform="translate(-11.814 -5.689)"/><path class="i" d="M79.36,68.7a8.024,8.024,0,0,0-4.55,2.034,7.223,7.223,0,0,1,4.285-.192,3.574,3.574,0,0,1,.188,6.6,2.221,2.221,0,0,0,1.079.576c2.9.845,6,.339,8.967-.237A2.257,2.257,0,0,0,90.79,76.8a2.227,2.227,0,0,0,.26-1.448,10.446,10.446,0,0,0-.857-4.226,3.963,3.963,0,0,0-4.289-2.2C83.718,69.159,81.548,68.479,79.36,68.7Z" transform="translate(-11.814 -5.689)"/><path class="f" d="M97.805,50.181a12.552,12.552,0,0,1,2.233,3.152,52.245,52.245,0,0,1,4.794,12.177,3.533,3.533,0,0,0,.46,1.2c.362.51.975.791,1.37,1.273a2.584,2.584,0,0,1,.409,2.147,7.205,7.205,0,0,1-.9,2.062c-1.03,1.783-2.245,3.625-4.135,4.439a9.45,9.45,0,0,1-2.511.591,49.292,49.292,0,0,1-9.695.313,2.8,2.8,0,0,0,.419-2.465,24.613,24.613,0,0,0-.9-2.429,7.116,7.116,0,0,0-.782-1.861,3.794,3.794,0,0,0-1.062-.935,7.693,7.693,0,0,0-3.07-1.126,8.161,8.161,0,0,1,2.848-1.13,4.115,4.115,0,0,0,2.538-1.616,4.036,4.036,0,0,0,.439-1.779,15.082,15.082,0,0,0-.637-5.479,6.719,6.719,0,0,1-.565-3.6,5.374,5.374,0,0,1,.875-1.637,9.692,9.692,0,0,1,2.41-2.684,6.007,6.007,0,0,1,2.933-.925C96.041,49.814,97.218,49.627,97.805,50.181Z" transform="translate(-11.814 -5.689)"/><path class="e" d="M57.135,84.823c-.009,1.18-3.218,2.486-6.93,2.486s-6.812-1.3-6.862-2.486c-.173-4.1,3.148-1.794,6.862-1.794S57.168,80.1,57.135,84.823Z" transform="translate(-11.814 -5.689)"/><path class="j" d="M57.135,84.823c-.009,1.18-3.218,2.486-6.93,2.486s-6.812-1.3-6.862-2.486c-.173-4.1,3.148-1.794,6.862-1.794S57.168,80.1,57.135,84.823Z" transform="translate(-11.814 -5.689)"/><path class="e" d="M56.928,83.029c0,1.181-3.011,2.486-6.724,2.486s-6.724-1.3-6.724-2.486,3.01-1.793,6.724-1.793S56.928,81.849,56.928,83.029Z" transform="translate(-11.814 -5.689)"/><path class="k" d="M56.928,83.029c0,1.181-3.011,2.486-6.724,2.486s-6.724-1.3-6.724-2.486,3.01-1.793,6.724-1.793S56.928,81.849,56.928,83.029Z" transform="translate(-11.814 -5.689)"/><path class="e" d="M55.617,82.563c-.007.921-2.509,1.936-5.406,1.936s-5.312-1.017-5.353-1.936c-.134-3.2,2.456-1.4,5.353-1.4S55.644,78.879,55.617,82.563Z" transform="translate(-11.814 -5.689)"/><path class="j" d="M55.617,82.563c-.007.921-2.509,1.936-5.406,1.936s-5.312-1.017-5.353-1.936c-.134-3.2,2.456-1.4,5.353-1.4S55.644,78.879,55.617,82.563Z" transform="translate(-11.814 -5.689)"/><path class="e" d="M55.455,80.937c0,1.03-2.347,2.164-5.244,2.164s-5.245-1.13-5.245-2.164,2.349-1.562,5.245-1.562S55.455,79.906,55.455,80.937Z" transform="translate(-11.814 -5.689)"/><path class="k" d="M55.455,80.937c0,1.03-2.347,2.164-5.244,2.164s-5.245-1.13-5.245-2.164,2.349-1.562,5.245-1.562S55.455,79.906,55.455,80.937Z" transform="translate(-11.814 -5.689)"/><path class="e" d="M37.642,87.763A5.1,5.1,0,0,0,38.8,85.44c.171-1.23-4.849-3.118-4.849-3.118s-1.741,1.017-1.8,1.97C32.157,84.291,35.489,87.872,37.642,87.763Z" transform="translate(-11.814 -5.689)"/><path class="j" d="M37.642,87.763A5.1,5.1,0,0,0,38.8,85.44c.171-1.23-4.849-3.118-4.849-3.118s-1.741,1.017-1.8,1.97C32.157,84.291,35.489,87.872,37.642,87.763Z" transform="translate(-11.814 -5.689)"/><ellipse class="e" cx="1.092" cy="3.253" rx="1.092" ry="3.253" transform="matrix(0.515, -0.857, 0.857, 0.515, 19.643, 79.712)"/><ellipse class="k" cx="1.092" cy="3.253" rx="1.092" ry="3.253" transform="matrix(0.515, -0.857, 0.857, 0.515, 19.643, 79.712)"/><path class="e" d="M27.061,79.374l2.855-4.759-2.9-2.466-2.264-.424L24.042,73l-1.987,3.687Z"/><path class="k" d="M27.061,79.374l2.855-4.759-2.9-2.466-2.264-.424L24.042,73l-1.987,3.687Z"/><path class="e" d="M41.768,80.773S43.7,78.724,43.2,77.616s-3.109-3.327-4.774-2.989S36.5,77.42,36.5,77.42Z" transform="translate(-11.814 -5.689)"/><path class="j" d="M41.768,80.773S43.7,78.724,43.2,77.616s-3.109-3.327-4.774-2.989S36.5,77.42,36.5,77.42Z" transform="translate(-11.814 -5.689)"/><path class="e" d="M19.836,71.769,34.6,80.752s1.4-.182,1.251-2.062L21.229,69.61a1.513,1.513,0,0,0-1-.215,1.22,1.22,0,0,0-1.027.581,1.287,1.287,0,0,0-.081.3,1.491,1.491,0,0,0,.714,1.491Z" transform="translate(-11.814 -5.689)"/><path class="j" d="M19.836,71.769,34.6,80.752s1.4-.182,1.251-2.062L21.229,69.61a1.513,1.513,0,0,0-1-.215,1.22,1.22,0,0,0-1.027.581,1.287,1.287,0,0,0-.081.3,1.491,1.491,0,0,0,.714,1.491Z" transform="translate(-11.814 -5.689)"/><path class="e" d="M38.873,85.733a.363.363,0,0,0,.331-.274.857.857,0,0,0-.2-.7,3.771,3.771,0,0,0-.915-.936,11.845,11.845,0,0,0-1.865-1.243,5.7,5.7,0,0,0-1.23-.388,4.182,4.182,0,0,0-.967-.106.285.285,0,0,0-.175.5h0a1.436,1.436,0,0,0,.5.208,9.106,9.106,0,0,1,2.458,1.217,7.719,7.719,0,0,1,1.149.9C38.19,85.15,38.491,85.743,38.873,85.733Z" transform="translate(-11.814 -5.689)"/><path class="j" d="M38.873,85.733a.363.363,0,0,0,.331-.274.857.857,0,0,0-.2-.7,3.771,3.771,0,0,0-.915-.936,11.845,11.845,0,0,0-1.865-1.243,5.7,5.7,0,0,0-1.23-.388,4.182,4.182,0,0,0-.967-.106.285.285,0,0,0-.175.5h0a1.436,1.436,0,0,0,.5.208,9.106,9.106,0,0,1,2.458,1.217,7.719,7.719,0,0,1,1.149.9C38.19,85.15,38.491,85.743,38.873,85.733Z" transform="translate(-11.814 -5.689)"/><path class="e" d="M41.23,81.137s1.449.035.25-1.422-3.344-2.9-4.871-2.576c0,0-.633.524-.086.615.519.086,2.939.565,4.051,1.913a2.888,2.888,0,0,0,.406.4C41.24,80.28,41.592,80.683,41.23,81.137Z" transform="translate(-11.814 -5.689)"/><path class="j" d="M41.23,81.137s1.449.035.25-1.422-3.344-2.9-4.871-2.576c0,0-.633.524-.086.615.519.086,2.939.565,4.051,1.913a2.888,2.888,0,0,0,.406.4C41.24,80.28,41.592,80.683,41.23,81.137Z" transform="translate(-11.814 -5.689)"/><ellipse class="e" cx="1.092" cy="3.253" rx="1.092" ry="3.253" transform="matrix(0.515, -0.857, 0.857, 0.515, 25.638, 69.826)"/><ellipse class="k" cx="1.092" cy="3.253" rx="1.092" ry="3.253" transform="matrix(0.515, -0.857, 0.857, 0.515, 25.638, 69.826)"/><path class="h" d="M34.027,77.553a1.616,1.616,0,0,1-.807,1.282,1.645,1.645,0,0,1-2.18-.738,3.891,3.891,0,0,1-.226-1.312,4.305,4.305,0,0,0-.059-.436c-.113-.582-.594-1.2-1.177-1.085-.48.094-.734.633-.791,1.119a3.677,3.677,0,0,0-.023.4c0,.14.006.28.014.42.016.287.041.575.04.862a2.107,2.107,0,0,1-.53,1.553,2.7,2.7,0,0,1-1.939.485c-1.672-.017-3.532-.113-4.79-1.142a3.432,3.432,0,0,1-.429-.413,3.553,3.553,0,0,1-.591-.948,4.385,4.385,0,0,1-.257-.818,7.286,7.286,0,0,1,.008-2.719,2.711,2.711,0,0,1,.717-1.588,1.29,1.29,0,0,1,.339-.214,2.657,2.657,0,0,0,.611-.248c.177-.134.293-.379.48-.526.376-.295.948-.168,1.389-.268h.019l.024-.007a8.722,8.722,0,0,0,1.364-.565c.193-.083.387-.162.581-.232a3.341,3.341,0,0,1,1.526-.226,8.751,8.751,0,0,1,4.89,2.456,2.856,2.856,0,0,1,.653,1,3.709,3.709,0,0,1,.156.971,2.956,2.956,0,0,0,.286,1.325c.14.24.346.435.492.678a1.284,1.284,0,0,1,.088.171A1.552,1.552,0,0,1,34.027,77.553Z" transform="translate(-11.814 -5.689)"/><path class="i" d="M30.3,71.974a7.3,7.3,0,0,1,1.912,1.317,3.221,3.221,0,0,1,.974,2.063A9.748,9.748,0,0,0,34.4,73.488a2.061,2.061,0,0,0,.245-1.687,1.881,1.881,0,0,0-.46-.6,7.04,7.04,0,0,0-3.768-1.713c-1.5-.236-4.482-.752-4.712,1.425A8.7,8.7,0,0,1,30.3,71.974Z" transform="translate(-11.814 -5.689)"/><path class="f" d="M48.825,44.142c-1.106.478-2.4.14-3.571.429a6.37,6.37,0,0,0-2.307,1.3,11.325,11.325,0,0,0-3.521,3.921c-.244.527-.418,1.086-.711,1.582A6.048,6.048,0,0,1,36.7,53.3c-2.013,1.3-4.35,2.109-6.142,3.7a14.014,14.014,0,0,0-2.012,2.311,5.9,5.9,0,0,0-1.394,3.257,7.161,7.161,0,0,1,0,1.409c-.2,1.034-1.243,1.676-1.715,2.619-.452.9-.345,2.008-.848,2.876-.33.565-.928,1.13-.739,1.754a5.877,5.877,0,0,1,4.747-1.13,8.56,8.56,0,0,1,2.4.962,7.822,7.822,0,0,1,2.385,1.808,3.348,3.348,0,0,1,.791,2.8,4.223,4.223,0,0,0,1.835-2.367A10.874,10.874,0,0,1,37.3,70.525a10.32,10.32,0,0,1,1.1-1.12,32.107,32.107,0,0,0,5.136-7.034q2.315-3.863,4.627-7.731a15.787,15.787,0,0,0,1.165-2.208C50.365,49.832,49.693,46.8,48.825,44.142Z" transform="translate(-11.814 -5.689)"/><ellipse class="f" cx="6.443" cy="1.239" rx="6.443" ry="1.239" transform="translate(95.129 70.499)"/><ellipse class="e" cx="0.75" cy="0.982" rx="0.75" ry="0.982" transform="translate(100.713 70.23)"/><ellipse class="e" cx="0.75" cy="0.982" rx="0.75" ry="0.982" transform="translate(100.713 69.029)"/><ellipse class="e" cx="0.75" cy="0.982" rx="0.75" ry="0.982" transform="translate(100.713 67.829)"/><ellipse class="e" cx="0.75" cy="0.982" rx="0.75" ry="0.982" transform="translate(100.713 66.628)"/><ellipse class="e" cx="0.75" cy="0.982" rx="0.75" ry="0.982" transform="translate(100.713 65.428)"/><ellipse class="e" cx="0.75" cy="0.982" rx="0.75" ry="0.982" transform="translate(100.713 64.228)"/><ellipse class="e" cx="0.75" cy="0.982" rx="0.75" ry="0.982" transform="translate(100.713 63.027)"/><path class="f" d="M116.088,61.484a3.642,3.642,0,0,0,.279-.41l-1.971-.324,2.132.016a3.6,3.6,0,0,0,.069-2.847L113.736,59.4l2.638-1.939a3.594,3.594,0,1,0-5.936,4.021,3.662,3.662,0,0,0-.409.656l2.559,1.33-2.731-.917a3.6,3.6,0,0,0,.579,3.375,3.594,3.594,0,1,0,5.651,0,3.6,3.6,0,0,0,0-4.444Z" transform="translate(-11.814 -5.689)"/><path class="g" d="M109.669,63.706a3.579,3.579,0,0,0,.769,2.222,3.594,3.594,0,1,0,5.651,0C116.569,65.316,109.669,63.3,109.669,63.706Z" transform="translate(-11.814 -5.689)"/><path class="e" d="M64.422,26.027a8.555,8.555,0,0,0,2.412.8A15.754,15.754,0,0,0,70,26.2c1.961-.277,3.822.791,5.665,1.517s4.216,1.026,5.566-.422a3.91,3.91,0,0,0,.067-4.679,10.053,10.053,0,0,0-3.918-3.089,17.536,17.536,0,0,0-5.187-1.948c-3.883-.643-7.829.963-11.051,3.224A7.1,7.1,0,0,0,58.5,23.628a3.232,3.232,0,0,0-.128,2.253c.414,1.162.685,1.024,1.543.721C61.557,26.025,62.526,25.3,64.422,26.027Z" transform="translate(-11.814 -5.689)"/></g></g></svg>