<svg xmlns="http://www.w3.org/2000/svg" xmlns:xlink="http://www.w3.org/1999/xlink" width="119" height="88" viewBox="0 0 119 88"><defs><style>.a,.d{fill:#fff;}.a{stroke:#c3c3c3;}.b{clip-path:url(#a);}.c{fill:#f1f1f1;}.e{fill:#3f3d56;}.f{fill:#f2f2f2;}.g{fill:#6c63ff;}.h{fill:#ccc;}.i{fill:#ffb7b7;}.j{fill:#2f2e41;}.k{fill:#9f616a;}.l{opacity:0.2;}.m{fill:#cbcbcb;}</style><clipPath id="a"><rect class="a" width="119" height="88" transform="translate(640 464)"/></clipPath></defs><g class="b" transform="translate(-640 -464)"><g transform="translate(653.996 464)"><path class="c" d="M110.723,98.81V89.985S114.162,96.241,110.723,98.81Z" transform="translate(-27.693 -10.898)"/><path class="c" d="M110.935,98.808l-6.5-5.968S111.369,94.538,110.935,98.808Z" transform="translate(-27.693 -10.898)"/><path class="d" d="M88.005,49.837,53.507,70a.528.528,0,0,1-.721-.189L30.6,31.854a.528.528,0,0,1,.189-.721l34.5-20.163a.528.528,0,0,1,.721.189L88.194,49.116a.528.528,0,0,1-.189.721Z" transform="translate(-27.693 -10.898)"/><path class="e" d="M88.005,49.837,53.507,70a.528.528,0,0,1-.721-.189L30.6,31.854a.528.528,0,0,1,.189-.721l34.5-20.163a.528.528,0,0,1,.721.189L88.194,49.116a.528.528,0,0,1-.189.721ZM30.9,31.315a.317.317,0,0,0-.113.433L52.968,69.7a.317.317,0,0,0,.433.113L87.9,49.655a.317.317,0,0,0,.113-.433L65.828,11.265a.317.317,0,0,0-.433-.113Z" transform="translate(-27.693 -10.898)"/><path class="f" d="M53.073,35.095l-8.556,5a.528.528,0,0,1-.721-.189l-5-8.556a.528.528,0,0,1,.189-.721l8.556-5a.528.528,0,0,1,.721.189l5,8.556A.528.528,0,0,1,53.073,35.095ZM39.09,30.811a.317.317,0,0,0-.113.433l5,8.556a.317.317,0,0,0,.433.113l8.556-5a.317.317,0,0,0,.113-.433l-5-8.556a.317.317,0,0,0-.433-.113Z" transform="translate(-27.693 -10.898)"/><path class="g" d="M51.227,37.578l-8.556,5a.475.475,0,0,1-.649-.17l-5-8.556a.475.475,0,0,1,.17-.649l8.556-5a.475.475,0,0,1,.649.17l5,8.556A.475.475,0,0,1,51.227,37.578Z" transform="translate(-27.693 -10.898)"/><path class="h" d="M71.879,31.125,45.118,46.766a.474.474,0,1,1-.479-.819L71.4,30.306a.474.474,0,0,1,.479.819Z" transform="translate(-27.693 -10.898)"/><path class="h" d="M67.065,37.724l-20.3,11.864a.474.474,0,1,1-.479-.819L66.587,36.9a.474.474,0,1,1,.479.819Z" transform="translate(-27.693 -10.898)"/><path class="h" d="M65.723,20.8,53.89,27.717a.474.474,0,0,1-.479-.819l11.833-6.916a.474.474,0,0,1,.479.819Z" transform="translate(-27.693 -10.898)"/><path class="h" d="M64.419,25.349l-8.88,5.19a.474.474,0,1,1-.479-.819l8.88-5.19a.474.474,0,0,1,.479.819Z" transform="translate(-27.693 -10.898)"/><path class="h" d="M75.177,36.768,48.416,52.409a.474.474,0,1,1-.479-.819L74.7,35.949a.474.474,0,0,1,.479.819Z" transform="translate(-27.693 -10.898)"/><path class="h" d="M70.364,43.367l-20.3,11.864a.474.474,0,1,1-.479-.819l20.3-11.864a.474.474,0,0,1,.479.819Z" transform="translate(-27.693 -10.898)"/><path class="h" d="M78.476,42.412,51.714,58.053a.474.474,0,1,1-.479-.819L78,41.593a.474.474,0,0,1,.479.819Z" transform="translate(-27.693 -10.898)"/><path class="h" d="M80.125,45.234,53.364,60.875a.474.474,0,0,1-.479-.819L79.646,44.414a.474.474,0,0,1,.479.819Z" transform="translate(-27.693 -10.898)"/><path class="g" d="M71.471,56.218a10.332,10.332,0,0,0,1-1.4,3.717,3.717,0,0,0,.581-1.443,1.425,1.425,0,0,0-.427-1.218,1,1,0,0,0-1.177-.134,1.2,1.2,0,0,0-.6,1.069,1.581,1.581,0,0,0,.675,1.2,2.909,2.909,0,0,0,2.869.107,1.771,1.771,0,0,0,.694-2.656c-.155-.183-.413.022-.375.219A1.064,1.064,0,0,0,76.82,51.7l-.335.2a2.561,2.561,0,0,0,2.547-.273,2.375,2.375,0,0,0,.477-.461,2.8,2.8,0,0,1,.663-.507l1.609-1.112c.237-.164.012-.553-.227-.388L80.1,50.161c-.243.168-.487.334-.729.5a4.992,4.992,0,0,0-.436.462,2.109,2.109,0,0,1-2.227.377.228.228,0,0,0-.335.2.616.616,0,1,1-1.223.145l-.375.219a1.3,1.3,0,0,1-.394,1.819,2.553,2.553,0,0,1-2.235.235,1.319,1.319,0,0,1-.776-.712.786.786,0,0,1,.178-.9.564.564,0,0,1,.784-.008,1.009,1.009,0,0,1,.267.91,3.646,3.646,0,0,1-.553,1.251,9.613,9.613,0,0,1-.9,1.246c-.186.22.135.536.322.314Z" transform="translate(-27.693 -10.898)"/><path class="i" d="M75.465,66.915a1.057,1.057,0,0,1,.106.128l4.983-.122.581-1.062,1.718.668-.846,1.981a.8.8,0,0,1-.836.482l-5.63-.68a1.055,1.055,0,1,1-.076-1.395Z" transform="translate(-27.693 -10.898)"/><path class="i" d="M64.017,86.281H62.379l-.78-6.32h2.418Z"/><path class="j" d="M92.128,98.767H86.844V98.7A2.057,2.057,0,0,1,88.9,96.644h3.227Z" transform="translate(-27.693 -10.898)"/><path class="i" d="M49.138,86.245,47.632,85.6,49.4,79.483l2.224.95Z"/><path class="j" d="M76.592,98.767l-4.859-2.076.026-.061a2.057,2.057,0,0,1,2.7-1.083h0l2.967,1.268Z" transform="translate(-27.693 -10.898)"/><path class="i" d="M56.053,57.387l-.119,1.92,3.464.371,3.624.388-1.067-2.916Z"/><path class="j" d="M83.518,70.229l-1.345-9.38,2.332-.764.685-.939,3.333.2.489,1.1,1.777.84-.273,5.073.2,4.244Z" transform="translate(-27.693 -10.898)"/><path class="j" d="M82.671,67.715,80.3,66.766l.01-.042c.01-.043,1.02-4.262,1.154-4.94a1.182,1.182,0,0,1,.672-.91l.016-.006.939.286.412,3.24Z" transform="translate(-27.693 -10.898)"/><path class="j" d="M78.052,96.032l-3.158-.648,5.047-13.926,1.727-4.75s1.1-3.809,1.591-5.282l.3-1.978,7.071.783A11.694,11.694,0,0,1,92,77.858l.271,17.769-3.158.162L86.472,77.868,81.83,87.692s-1.463,4.192-2.51,5.1Z" transform="translate(-27.693 -10.898)"/><path class="i" d="M87.793,70.89a1.059,1.059,0,0,1,.166.009l3.3-3.737-.384-1.149,1.658-.806.877,1.967a.8.8,0,0,1-.215.941l-4.327,3.666a1.055,1.055,0,1,1-1.075-.892Z" transform="translate(-27.693 -10.898)"/><path class="j" d="M90.995,67.526l-1.376-3.237.537-2.255.578-.731a.333.333,0,0,1,.268,0c.213.086.395.349.54.782l1.29,3.673Z" transform="translate(-27.693 -10.898)"/><path class="j" d="M83.855,57.946v-2.44a3.27,3.27,0,1,1,6.54,0v2.44a.44.44,0,0,1-.439.439H84.294a.44.44,0,0,1-.439-.439Z" transform="translate(-27.693 -10.898)"/><circle class="i" cx="2.397" cy="2.397" r="2.397" transform="translate(56.363 42.636)"/><path class="j" d="M83.081,55.7a2.59,2.59,0,0,1,2.587-2.587h.488A2.59,2.59,0,0,1,88.743,55.7v.049H87.712l-.352-.985-.07.985h-.533l-.177-.5-.036.5H83.081Z" transform="translate(-27.693 -10.898)"/><path class="j" d="M86.217,58.66a.433.433,0,0,1-.034-.459c.517-.984,1.241-2.8.28-3.922l-.069-.081h2.79v4.189l-2.535.447a.449.449,0,0,1-.078.007.437.437,0,0,1-.354-.181Z" transform="translate(-27.693 -10.898)"/><path class="k" d="M25.973,84.9l1.481.529L30.2,79.97l-2.186-.781Z"/><path class="j" d="M52.775,97.1l.686-1.919,2.916,1.042a1.976,1.976,0,0,1,1.194,2.523l-.022.06Z" transform="translate(-27.693 -10.898)"/><path class="k" d="M35.6,86.366h1.573l.748-6.065H35.6Z"/><path class="j" d="M62.894,96.75h3.1a1.974,1.974,0,0,1,1.974,1.974v.064H62.894Z" transform="translate(-27.693 -10.898)"/><path class="c" d="M59.711,58.512l.684-1.351s2.548.638,2.779,2.115Z" transform="translate(-27.693 -10.898)"/><path class="j" d="M29.2,63.066l1.86,10.379-4.938,8.733,2.95,1.154,5-8.466.641-2.309L35.1,84.615l2.661-.081,1.22-11.259L37.021,62.81Z"/><path class="e" d="M60.42,76.417a17.164,17.164,0,0,1-4.506-.531l-.063-.013,1.423-6.6.064-6.086a6.95,6.95,0,0,1,1.933-4.656,1.11,1.11,0,0,1,.59-.725,1.76,1.76,0,0,1,1.287.065l2.077.779.01.029c.025.074,2.76,9.054,2.76,9.054s-.166,7.846-.223,8.1C65.772,75.836,61.938,76.417,60.42,76.417Z" transform="translate(-27.693 -10.898)"/><circle class="k" cx="2.807" cy="2.807" r="2.807" transform="translate(32.02 40.224)"/><path class="l" d="M31.7,52.789l4.911,6.851.725-3.2Z"/><path class="k" d="M74.785,68.348a1.2,1.2,0,0,1-1.809-.375l-4.227.677.916-2.027,3.873-.332a1.211,1.211,0,0,1,1.246,2.057Z" transform="translate(-27.693 -10.898)"/><path class="c" d="M42.191,55.61l1.519-.149.421,2.119-1.911.034Z"/><path class="e" d="M71.129,69.215l-7.438-.662L59.935,62.58l-.012-.053a2.056,2.056,0,0,1,3.839-1.377l2.2,4.3,4.449.673Z" transform="translate(-27.693 -10.898)"/><path class="j" d="M60.129,56.365l2.33.084a6.733,6.733,0,0,0,.578-1.845.868.868,0,0,1,.905-.7c.174.016.614-.309,1.068-.7a1.711,1.711,0,0,0-.13-2.727q-.039-.025-.076-.046a4.146,4.146,0,0,0-1.98-.455,3.7,3.7,0,0,0-1.8.364,3.284,3.284,0,0,0-1.547,2.787,8.108,8.108,0,0,0,.715,3.233" transform="translate(-27.693 -10.898)"/><path class="m" d="M118.53,98.9H27.815a.122.122,0,1,1,0-.244h90.764a.122.122,0,0,1,.122.122C118.7,98.843,118.6,98.9,118.53,98.9Z" transform="translate(-27.693 -10.898)"/></g></g></svg>