<svg xmlns="http://www.w3.org/2000/svg" xmlns:xlink="http://www.w3.org/1999/xlink" width="128" height="80" viewBox="0 0 128 80"><defs><style>.a{fill:#fff;}.b{opacity:0.51;clip-path:url(#a);}.c{fill:#f2f2f2;}.d{fill:#ccc;}.e{fill:#6c63ff;}.f{fill:#3f3d56;}.g{fill:#ffb8b8;}.h{fill:#2f2e41;}.i{opacity:0.2;}.j{fill:#e6e6e6;}.k{fill:#a0616a;}.l{fill:#ff6584;}</style><clipPath id="a"><rect class="a" width="128" height="80" transform="translate(616 984)"/></clipPath></defs><g class="b" transform="translate(-616 -984)"><g transform="translate(622.953 984)"><path class="c" d="M104.941,61.771H31.458a1.894,1.894,0,0,1-1.892-1.892V14.569a1.388,1.388,0,0,1,1.386-1.386h74.47a1.412,1.412,0,0,1,1.41,1.41V59.879A1.894,1.894,0,0,1,104.941,61.771Z" transform="translate(-11.753 -11.599)"/><path class="a" d="M102.26,59.092H33.777a1.768,1.768,0,0,1-1.821-1.7V17.93a1.31,1.31,0,0,1,1.349-1.264h69.4a1.332,1.332,0,0,1,1.371,1.285V57.387A1.768,1.768,0,0,1,102.26,59.092Z" transform="translate(-11.753 -11.599)"/><path class="d" d="M106.806,14.46H29.54V13.5a1.9,1.9,0,0,1,1.9-1.9h73.469a1.9,1.9,0,0,1,1.9,1.9Z" transform="translate(-11.753 -11.599)"/><circle class="a" cx="0.491" cy="0.491" r="0.491" transform="translate(20.746 0.942)"/><circle class="a" cx="0.491" cy="0.491" r="0.491" transform="translate(22.611 0.942)"/><circle class="a" cx="0.491" cy="0.491" r="0.491" transform="translate(24.475 0.942)"/><path class="d" d="M94.722,52.474H41.65a2.009,2.009,0,0,1-2.007-2.007V24.88a1.5,1.5,0,0,1,1.5-1.5H95.2A1.526,1.526,0,0,1,96.729,24.9V50.468a2.009,2.009,0,0,1-2.007,2.007ZM41.144,23.608a1.273,1.273,0,0,0-1.271,1.271V50.468a1.779,1.779,0,0,0,1.777,1.777H94.722A1.779,1.779,0,0,0,96.5,50.468V24.9a1.3,1.3,0,0,0-1.3-1.3Z" transform="translate(-11.753 -11.599)"/><path class="c" d="M43.485,50.468h49.4a1.835,1.835,0,0,0,1.835-1.835V27.242a1.835,1.835,0,0,0-1.835-1.835h-49.4a1.835,1.835,0,0,0-1.835,1.835V48.633A1.835,1.835,0,0,0,43.485,50.468Z" transform="translate(-11.753 -11.599)"/><circle class="d" cx="1.032" cy="1.032" r="1.032" transform="translate(36.309 17.968)"/><circle class="d" cx="1.032" cy="1.032" r="1.032" transform="translate(36.309 21.866)"/><circle class="d" cx="1.032" cy="1.032" r="1.032" transform="translate(36.309 25.765)"/><circle class="d" cx="1.032" cy="1.032" r="1.032" transform="translate(36.309 29.663)"/><path class="d" d="M88.2,30.714H54.254a.115.115,0,1,1,0-.229H88.2a.115.115,0,0,1,0,.229Z" transform="translate(-11.753 -11.599)"/><path class="d" d="M88.2,34.612H54.254a.115.115,0,1,1,0-.229H88.2a.115.115,0,0,1,0,.229Z" transform="translate(-11.753 -11.599)"/><path class="d" d="M88.2,38.511H54.254a.115.115,0,1,1,0-.229H88.2a.115.115,0,0,1,0,.229Z" transform="translate(-11.753 -11.599)"/><path class="d" d="M88.2,42.41H54.254a.115.115,0,0,1,0-.229H88.2a.115.115,0,0,1,0,.229Z" transform="translate(-11.753 -11.599)"/><path class="e" d="M60.676,46.308H57.35a.574.574,0,0,1-.573-.573v-3.1a.574.574,0,0,1,.573-.573h3.325a.574.574,0,0,1,.573.573v3.1a.574.574,0,0,1-.573.573Z" transform="translate(-11.753 -11.599)"/><path class="e" d="M68.129,46.308H64.8a.574.574,0,0,1-.573-.573V38.74a.574.574,0,0,1,.573-.573h3.325a.574.574,0,0,1,.573.573v6.995A.574.574,0,0,1,68.129,46.308Z" transform="translate(-11.753 -11.599)"/><path class="e" d="M75.7,46.308H72.372a.574.574,0,0,1-.573-.573V34.842a.574.574,0,0,1,.573-.573H75.7a.574.574,0,0,1,.573.573V45.735a.574.574,0,0,1-.573.573Z" transform="translate(-11.753 -11.599)"/><path class="e" d="M83.494,46.308H80.169a.574.574,0,0,1-.573-.573V31.058a.574.574,0,0,1,.573-.573h3.325a.574.574,0,0,1,.573.573V45.735a.574.574,0,0,1-.573.573Z" transform="translate(-11.753 -11.599)"/><path class="f" d="M88.2,46.308H54.254a.115.115,0,1,1,0-.229H88.2a.115.115,0,0,1,0,.229Z" transform="translate(-11.753 -11.599)"/><path class="g" d="M103.107,67.7a1.153,1.153,0,0,1,1.757-.2l3.641-1.879-.226,2.117-3.423,1.46a1.159,1.159,0,0,1-1.748-1.5Z" transform="translate(-11.753 -11.599)"/><path class="f" d="M106.24,68.488a.517.517,0,0,1-.175-.254l-.29-.936a.518.518,0,0,1,.182-.564l2.951-2.229,3.2-5.93a1.662,1.662,0,0,1,2.626,2.039l-1.818,3.838a5.317,5.317,0,0,1-2.69,2.6l-3.459,1.5a.517.517,0,0,1-.421,0,.511.511,0,0,1-.1-.063Z" transform="translate(-11.753 -11.599)"/><circle class="g" cx="2.816" cy="2.816" r="2.816" transform="translate(100.242 38.869)"/><path class="g" d="M101.916,78.63H100.51l-.669-5.422h2.075Z"/><path class="h" d="M99.506,78.229h2.711v1.707H97.8A1.707,1.707,0,0,1,99.506,78.229Z"/><path class="g" d="M106.5,78.631H105.1l-.669-5.422H106.5Z"/><path class="h" d="M104.093,78.229H106.8v1.707h-4.418a1.707,1.707,0,0,1,1.707-1.707Z"/><path class="h" d="M118.359,88.854h-1.647a.517.517,0,0,1-.5-.382l-2.371-8.795a.057.057,0,0,0-.113.018l.479,8.341a.516.516,0,0,1-.558.544l-1.852-.154a.517.517,0,0,1-.47-.455l-1.687-17.515.653.392,6.115-1.038,2.461,18.46a.516.516,0,0,1-.512.584Z" transform="translate(-11.753 -11.599)"/><path class="f" d="M111.687,72.306a3.777,3.777,0,0,1-1.914-.539.514.514,0,0,1-.245-.526c.215-1.317,1.34-8.073,2.363-11.757a2.909,2.909,0,0,1,2.739-2.4,3.9,3.9,0,0,1,4.06,3.578c.335,3.721-1.024,9.007-1.624,11.107a.516.516,0,0,1-.813.264l-1.223-.951a.405.405,0,0,0-.518.022A4.2,4.2,0,0,1,111.687,72.306Z" transform="translate(-11.753 -11.599)"/><path class="i" d="M103.977,50.881l1.032,4.357-1.491,3.669,1.032-3.555Z"/><path class="h" d="M116.419,55.6a1.9,1.9,0,0,0,.732-.132c.1-.04.209-.072.311-.112a2.525,2.525,0,0,0,1.521-2.28,3.284,3.284,0,0,0-1.225-2.528,4.741,4.741,0,0,0-2.676-1.011,3.032,3.032,0,0,0-2.794,1.051.913.913,0,0,0-.171.789.5.5,0,0,0,.142.219c.26.231.519.057.783.042a.866.866,0,0,1,.808.618,1.864,1.864,0,0,1-.029,1.077,2.691,2.691,0,0,0-.136.655.658.658,0,0,0,.273.58.751.751,0,0,0,.753-.079,5.233,5.233,0,0,1,.67-.429.592.592,0,0,1,.719.145.8.8,0,0,1,.091.262c.128.584.1.55.227,1.134Z" transform="translate(-11.753 -11.599)"/><path class="j" d="M112.053,86.3,94.418,80.155a1.21,1.21,0,0,1-.744-1.539l4.583-13.159a.887.887,0,0,1,1.128-.545l18.231,6.349a.9.9,0,0,1,.555,1.147l-4.577,13.144A1.21,1.21,0,0,1,112.053,86.3Z" transform="translate(-11.753 -11.599)"/><path class="a" d="M95.923,79.4l15.421,5.37a1.172,1.172,0,0,0,1.493-.722l3.7-10.626a1.172,1.172,0,0,0-.722-1.493l-15.421-5.37a1.172,1.172,0,0,0-1.493.722L95.2,77.906a1.172,1.172,0,0,0,.722,1.493Z" transform="translate(-11.753 -11.599)"/><path class="e" d="M99.8,71.933l-.764-.266a.166.166,0,0,1-.1-.211l.266-.764a.166.166,0,0,1,.211-.1l.764.266a.166.166,0,0,1,.1.211l-.266.764A.166.166,0,0,1,99.8,71.933Z" transform="translate(-11.753 -11.599)"/><path class="f" d="M99.106,73.912l-.764-.266a.166.166,0,0,1-.1-.211l.266-.764a.166.166,0,0,1,.211-.1l.764.266a.166.166,0,0,1,.1.211l-.266.764a.166.166,0,0,1-.211.1Z" transform="translate(-11.753 -11.599)"/><path class="d" d="M98.417,75.89l-.764-.266a.166.166,0,0,1-.1-.211l.266-.764a.166.166,0,0,1,.211-.1l.764.266a.166.166,0,0,1,.1.211l-.266.764A.166.166,0,0,1,98.417,75.89Z" transform="translate(-11.753 -11.599)"/><path class="d" d="M104.927,73.292l-3.68-1.281a.165.165,0,0,1,.109-.312l3.68,1.281a.165.165,0,1,1-.109.312Z" transform="translate(-11.753 -11.599)"/><path class="d" d="M104.238,75.271l-3.68-1.281a.165.165,0,0,1,.109-.312l3.68,1.281a.165.165,0,1,1-.109.312Z" transform="translate(-11.753 -11.599)"/><path class="d" d="M103.549,77.249l-3.68-1.281a.165.165,0,0,1,.109-.312l3.68,1.281a.165.165,0,1,1-.109.312Z" transform="translate(-11.753 -11.599)"/><path class="e" d="M113.342,78.321c.027-.064.052-.13.075-.2a3.467,3.467,0,0,0-2.134-4.415l-1.209,3.473Z" transform="translate(-11.753 -11.599)"/><path class="f" d="M109.722,77.394l1.209-3.473a3.467,3.467,0,1,0,2.059,4.611Z" transform="translate(-11.753 -11.599)"/><path class="g" d="M114.051,72.413a1.153,1.153,0,0,1,1.259-1.241l1.705-3.726,1.128,1.806-1.793,3.261a1.159,1.159,0,0,1-2.3-.1Z" transform="translate(-11.753 -11.599)"/><path class="f" d="M117,71.1a.517.517,0,0,1-.294-.092l-.805-.557a.518.518,0,0,1-.205-.556l.947-3.575L115.5,59.681a1.662,1.662,0,0,1,3.324-.016l.938,4.142a5.317,5.317,0,0,1-.511,3.708l-1.8,3.315a.517.517,0,0,1-.334.256A.51.51,0,0,1,117,71.1Z" transform="translate(-11.753 -11.599)"/><path class="d" d="M125.731,91.6H103.944a.115.115,0,0,1,0-.229h21.786a.115.115,0,0,1,0,.229Z" transform="translate(-11.753 -11.599)"/><path class="k" d="M56.248,78.573h1.406l.669-5.422H56.248Z"/><path class="h" d="M67.643,89.714h2.769a1.764,1.764,0,0,1,1.764,1.764v.057H67.643Z" transform="translate(-11.753 -11.599)"/><path class="k" d="M50.629,78.573h1.406l.669-5.422H50.629Z"/><path class="h" d="M62.024,89.714h2.769a1.764,1.764,0,0,1,1.764,1.764v.057H62.024Z" transform="translate(-11.753 -11.599)"/><circle class="k" cx="2.816" cy="2.816" r="2.816" transform="translate(53.712 35.401)"/><path class="h" d="M70.176,89H67.567a.516.516,0,0,1-.516-.522L67.2,76.093a.172.172,0,0,0-.343-.023L65.342,88.549A.516.516,0,0,1,64.83,89H62.2a.516.516,0,0,1-.514-.556L63.42,66.193l.047-.005,8.328-.9-1.1,23.223A.515.515,0,0,1,70.176,89Z" transform="translate(-11.753 -11.599)"/><path class="f" d="M63.522,67.559a.516.516,0,0,1-.514-.5,40.861,40.861,0,0,1,.782-9.85,4.693,4.693,0,0,1,4.334-3.536h0a4.722,4.722,0,0,1,4.651,2.984c1.522,3.865,2.96,8.628,1.167,9.375-2.35.979-8.545,1.416-10.388,1.526Z" transform="translate(-11.753 -11.599)"/><path class="k" d="M74.286,46.971a1.206,1.206,0,0,0,.143.125l-.3,5.679-1.23.63.708,1.98,2.285-.9a.917.917,0,0,0,.576-.938l-.6-6.442a1.2,1.2,0,1,0-1.588-.131Z" transform="translate(-11.753 -11.599)"/><path class="f" d="M74.156,52.986l.865,2.458a.516.516,0,0,1-.389.678l-2.551.494a1.433,1.433,0,0,1-.943-2.706l2.29-1.209a.516.516,0,0,1,.727.285Z" transform="translate(-11.753 -11.599)"/><path class="k" d="M62.087,46.971a1.207,1.207,0,0,1-.143.125l.3,5.679,1.23.63-.708,1.98-2.285-.9a.917.917,0,0,1-.576-.938l.6-6.442a1.2,1.2,0,1,1,1.588-.131Z" transform="translate(-11.753 -11.599)"/><path class="f" d="M62.515,52.677a.515.515,0,0,1,.429.024l2.29,1.209a1.433,1.433,0,0,1-.943,2.706l-2.551-.494a.516.516,0,0,1-.389-.678l.865-2.458A.515.515,0,0,1,62.515,52.677Z" transform="translate(-11.753 -11.599)"/><path class="h" d="M69.376,50.3a1.851,1.851,0,0,1,1.037-1.739,2.046,2.046,0,0,0,1.158-2.245,2.473,2.473,0,0,0-3.016-1.437,5.568,5.568,0,0,0-.947.44l-.794.426a8.225,8.225,0,0,0-.979.578,3.247,3.247,0,0,0-1.292,3.042,4.341,4.341,0,0,0,1.894,2.851,3.2,3.2,0,0,0,1.3.577,1.725,1.725,0,0,0,1.369-.31,1.8,1.8,0,0,0,.315-1.905,1.386,1.386,0,0,1-.043-.276Z" transform="translate(-11.753 -11.599)"/><path class="d" d="M78.947,91.6H57.161a.115.115,0,0,1,0-.229H78.947a.115.115,0,1,1,0,.229Z" transform="translate(-11.753 -11.599)"/><path class="j" d="M43.391,70.681,25.414,78.056a1.26,1.26,0,0,1-1.641-.686l-5.5-13.414a.923.923,0,0,1,.5-1.2l18.585-7.624a.939.939,0,0,1,1.223.512l5.5,13.4a1.26,1.26,0,0,1-.686,1.641Z" transform="translate(-11.753 -11.599)"/><path class="a" d="M26.065,76.429l15.72-6.449a1.22,1.22,0,0,0,.666-1.592L38.006,57.557a1.22,1.22,0,0,0-1.592-.666L20.7,63.34a1.22,1.22,0,0,0-.666,1.592l4.444,10.832a1.22,1.22,0,0,0,1.592.666Z" transform="translate(-11.753 -11.599)"/><rect class="j" width="0.25" height="0.042" transform="matrix(0.925, -0.38, 0.38, 0.925, 25.935, 49.006)"/><path class="j" d="M37.237,60.836l-.467.192-.016-.039.467-.192Zm-.934.383-.467.192-.016-.039.467-.192Zm-.934.383-.467.192-.016-.039.467-.192Zm-.934.383-.467.192-.016-.039.467-.192Zm-.934.383-.467.192-.016-.039.467-.192Zm-.934.383-.467.192-.016-.039.467-.192Zm-.934.383-.467.192-.016-.039.467-.192Zm-.934.383-.467.192-.016-.039.467-.192Zm-.934.383-.467.192-.016-.039.467-.192Zm-.934.383-.467.192-.016-.039.467-.192Zm-.934.383-.467.192-.016-.039.467-.192Zm-.934.383-.467.192-.016-.039.467-.192Zm-.934.383-.467.192-.016-.039.467-.192Zm-.934.383-.467.192-.016-.039.467-.192Zm-.934.383-.467.192-.016-.039.467-.192Zm-.934.383-.467.192-.016-.039.467-.192Z" transform="translate(-11.753 -11.599)"/><rect class="j" width="0.25" height="0.042" transform="matrix(0.925, -0.38, 0.38, 0.925, 10.297, 55.422)"/><rect class="j" width="0.25" height="0.042" transform="matrix(0.925, -0.38, 0.38, 0.925, 19.817, 55.701)"/><path class="j" d="M31.126,67.528l-.46.189-.016-.039.46-.189Zm-.92.377-.46.189-.016-.039.46-.189Zm-.92.377-.46.189-.016-.039.46-.189Zm-.92.377-.46.189-.016-.039.46-.189Zm-.92.377-.46.189-.016-.039L27.43,69Zm-.92.377-.46.189-.016-.039.46-.189Zm-.92.377-.46.189-.016-.039.46-.189Zm-.92.377-.46.189-.016-.039.46-.189Z" transform="translate(-11.753 -11.599)"/><rect class="j" width="0.25" height="0.042" transform="matrix(0.925, -0.38, 0.38, 0.925, 11.766, 59.004)"/><rect class="j" width="0.25" height="0.042" transform="matrix(0.925, -0.38, 0.38, 0.925, 16.005, 59.245)"/><path class="j" d="M27.3,71.077l-.473.194-.016-.039.473-.194Zm-.946.388-.473.194-.016-.039.473-.194Zm-.946.388-.473.194-.016-.039.473-.194Z" transform="translate(-11.753 -11.599)"/><rect class="j" width="0.25" height="0.042" transform="matrix(0.925, -0.38, 0.38, 0.925, 12.462, 60.699)"/><rect class="j" width="0.25" height="0.042" transform="matrix(0.925, -0.38, 0.38, 0.925, 17.192, 62.137)"/><path class="j" d="M28.488,73.97l-.473.194L28,74.125l.473-.194Zm-.946.388-.473.194-.016-.039.473-.194Zm-.946.388-.473.194-.016-.039.473-.194Z" transform="translate(-11.753 -11.599)"/><rect class="j" width="0.25" height="0.042" transform="matrix(0.925, -0.38, 0.38, 0.925, 13.648, 63.591)"/><path class="e" d="M26.732,74.724l13.321-5.465a1.316,1.316,0,0,0,.717-1.716l-2.691-6.561-.026.012-3.269,7.816L32.36,67.8a.314.314,0,0,0-.279.017.335.335,0,0,0-.139.164l-1.713,4.1-1.773-.741a.316.316,0,0,0-.413.169C28.031,71.531,26.938,74.213,26.732,74.724Z" transform="translate(-11.753 -11.599)"/><path class="f" d="M26.691,74.786l-.038-.016,1.371-3.278a.354.354,0,0,1,.463-.19l1.738.727,1.7-4.073a.354.354,0,0,1,.463-.19l2.39,1,3.286-7.857.038.016-3.3,7.9L32.375,67.8a.312.312,0,0,0-.409.168l-1.72,4.112-1.776-.743a.313.313,0,0,0-.409.168Z" transform="translate(-11.753 -11.599)"/><circle class="f" cx="0.291" cy="0.291" r="0.291" transform="translate(15.953 58.878)"/><circle class="f" cx="0.291" cy="0.291" r="0.291" transform="translate(19.764 55.334)"/><circle class="f" cx="0.291" cy="0.291" r="0.291" transform="translate(25.699 48.629)"/><path class="g" d="M21.431,70.438a1.158,1.158,0,0,0,.414-1.726l.866-8.463H20.84l-.688,8.263a1.164,1.164,0,0,0,1.279,1.925Z" transform="translate(-11.753 -11.599)"/><circle class="g" cx="2.646" cy="2.646" r="2.646" transform="translate(8.749 38.687)"/><path class="l" d="M23.647,65.178a.484.484,0,0,1-.466-.355,26.764,26.764,0,0,0-1.64-3.871,3.207,3.207,0,0,1,1.821-4.428h0a3.205,3.205,0,0,1,4.119,2.042,15.863,15.863,0,0,1,.6,5.29.486.486,0,0,1-.381.449l-3.95.863A.483.483,0,0,1,23.647,65.178Z" transform="translate(-11.753 -11.599)"/><path class="g" d="M15.719,78.709H17.04l.628-5.1h-1.95Z"/><path class="h" d="M27.189,89.931H31.34v1.6H28.793a1.6,1.6,0,0,1-1.6-1.6h0Z" transform="translate(46.78 169.866) rotate(179.997)"/><path class="g" d="M2.509,77l1.158.636,3.006-4.162-1.708-.939Z"/><path class="h" d="M13.553,89.031H17.7v1.6H15.157a1.6,1.6,0,0,1-1.6-1.6h0Z" transform="matrix(-0.876, -0.482, 0.482, -0.876, -25.707, 164.483)"/><path class="h" d="M27.41,87.481a.485.485,0,0,1-.48-.422L25.278,74.327a.269.269,0,0,0-.5-.1L17.889,86.724a.488.488,0,0,1-.6.219l-1.5-.572a.485.485,0,0,1-.276-.636l4.77-11.717a.374.374,0,0,0,.024-.093c.646-5,2.29-7.543,2.778-8.2a.376.376,0,0,0,.053-.342l-.067-.2a.485.485,0,0,1,.093-.472c1.76-2,4.827-.911,4.858-.9l.015.006.01.013c3.439,4.717,2.168,20.036,1.878,23.059a.484.484,0,0,1-.445.436l-2.034.157Z" transform="translate(-11.753 -11.599)"/><path class="g" d="M33.437,56.007a1.135,1.135,0,0,0-.026.177l-4.629,2.67-1.125-.648-1.2,1.57,1.88,1.34a.862.862,0,0,0,1.034-.025l4.773-3.765a1.131,1.131,0,1,0-.709-1.319Z" transform="translate(-11.753 -11.599)"/><path class="l" d="M28.628,58.98l-1.5,1.939a.485.485,0,0,1-.733.04L24.705,59.2a1.347,1.347,0,0,1,1.651-2.127l2.124,1.188a.485.485,0,0,1,.147.719Z" transform="translate(-11.753 -11.599)"/><path class="l" d="M22.83,62.349l-2.41-.435a.485.485,0,0,1-.373-.632l.781-2.313a1.347,1.347,0,1,1,2.649.486L23.4,61.887a.485.485,0,0,1-.571.462Z" transform="translate(-11.753 -11.599)"/><path class="h" d="M23.568,52.324c.68.466,1.573.944,2.268.448a1.264,1.264,0,0,0,.415-1.457,3.109,3.109,0,0,0-2.121-1.691,6.09,6.09,0,0,0-3.546-.45,2.516,2.516,0,0,0-2,2.626c.17.958,1.074,1.756.946,2.721S18.311,56,17.346,56.176a4.909,4.909,0,0,0-2.736.922,2.571,2.571,0,0,0,.169,3.4,6.2,6.2,0,0,0,3.3,1.643,8.036,8.036,0,0,0,4.885-.051,3.547,3.547,0,0,0,2.278-3.929,5.481,5.481,0,0,0-1.055-1.8,5.01,5.01,0,0,1-1.021-1.814,1.886,1.886,0,0,1,.341-1.65.478.478,0,0,0,.064-.559Z" transform="translate(-11.753 -11.599)"/><path class="d" d="M33.654,91.6H11.868a.115.115,0,1,1,0-.229H33.654a.115.115,0,1,1,0,.229Z" transform="translate(-11.753 -11.599)"/></g></g></svg>