<svg xmlns="http://www.w3.org/2000/svg" xmlns:xlink="http://www.w3.org/1999/xlink" width="137" height="88" viewBox="0 0 137 88"><defs><style>.a,.h{fill:#fff;}.a{mix-blend-mode:screen;isolation:isolate;}.b{opacity:0.5;clip-path:url(#a);}.c{fill:#e6e6e6;}.d{fill:#f2f2f2;}.e{fill:#6c63ff;}.f{fill:#2f2e41;}.g{fill:#f1f1f1;}.i{fill:#e5e5e5;}.j{fill:#cbcbcb;}.k{fill:#3f3d56;}</style><clipPath id="a"><rect class="a" width="137" height="88" transform="translate(1080 464)"/></clipPath></defs><g class="b" transform="translate(-1080 -464)"><g transform="translate(1080 465.584)"><path class="c" d="M42.809,112.519a3.856,3.856,0,0,0,3.724-.656c1.3-1.095,1.714-2.9,2.046-4.568l.984-4.939-2.06,1.419a15.008,15.008,0,0,0-4.023,3.551,5.1,5.1,0,0,0-.649,5.094" transform="translate(-33.302 -33.935)"/><path class="d" d="M42.985,118.5a19.938,19.938,0,0,1-.277-4.593,7.223,7.223,0,0,1,1.393-3.787,6.3,6.3,0,0,1,1.616-1.465c.162-.1.31.154.149.256a5.989,5.989,0,0,0-2.369,2.858,9.589,9.589,0,0,0-.509,4.136c.054.843.168,1.68.282,2.516a.153.153,0,0,1-.1.182.149.149,0,0,1-.182-.1Z" transform="translate(-33.302 -33.935)"/><path class="e" d="M84.3,85.772a1.178,1.178,0,0,1-.484.114l-15.543.427a2.44,2.44,0,0,1-.106-4.878l15.543-.427a1.189,1.189,0,0,1,1.213,1.161l.054,2.5a1.191,1.191,0,0,1-.678,1.1Z" transform="translate(-33.302 -33.935)"/><path class="e" d="M64.361,118.531h-2.5a1.189,1.189,0,0,1-1.188-1.188V96.471a1.189,1.189,0,0,1,1.188-1.188h2.5a1.189,1.189,0,0,1,1.188,1.188v20.872a1.189,1.189,0,0,1-1.188,1.188Z" transform="translate(-33.302 -33.935)"/><path class="e" d="M71.011,118.531h-2.5a1.189,1.189,0,0,1-1.188-1.188V96.471a1.189,1.189,0,0,1,1.188-1.188h2.5A1.189,1.189,0,0,1,72.2,96.471v20.872a1.189,1.189,0,0,1-1.188,1.188Z" transform="translate(-33.302 -33.935)"/><circle class="e" cx="8.653" cy="8.653" r="8.653" transform="translate(24.724 22.345)"/><path class="f" d="M69.616,102.685H63.39a7.343,7.343,0,0,1-6.373-11.038l8.706-15.079a1.1,1.1,0,0,1,1.91,0l8.53,14.775a7.561,7.561,0,0,1-6.548,11.342Z" transform="translate(-33.302 -33.935)"/><path class="f" d="M68.721,68.566a3.122,3.122,0,0,0,1.8-.428,1.38,1.38,0,0,0,.543-1.03.928.928,0,0,0-.316-.762,1.2,1.2,0,0,0-1.133-.163l.458-3.347-.336-.046L69.2,66.724l.281-.129a1.027,1.027,0,0,1,1.05.009.6.6,0,0,1,.2.491,1.043,1.043,0,0,1-.4.768,2.807,2.807,0,0,1-1.606.363Z" transform="translate(-33.302 -33.935)"/><rect class="f" width="1.828" height="0.339" transform="translate(38.431 29.189)"/><rect class="f" width="1.828" height="0.339" transform="translate(32.662 29.189)"/><path class="e" d="M64.643,100.749a1.178,1.178,0,0,1-.114-.484L64.1,84.723a2.44,2.44,0,0,1,4.878-.106l.427,15.543a1.189,1.189,0,0,1-1.161,1.213l-2.5.054a1.19,1.19,0,0,1-1.1-.678Z" transform="translate(-33.302 -33.935)"/><path class="f" d="M65.875,58.537a4.993,4.993,0,0,0,4.484,2.079,3.9,3.9,0,0,0,3.413-3.055,5.034,5.034,0,0,0-1.323-4.444,7.73,7.73,0,0,0-4.575-2.154A11.39,11.39,0,0,0,59,53.746a10.878,10.878,0,0,0-2.832,3.8,10.642,10.642,0,0,0-.878,4.594,11.607,11.607,0,0,0,3.815,8.3,10.751,10.751,0,0,0,.918.719c.269.189.523-.253.257-.44A10.907,10.907,0,0,1,55.9,63.371a10.167,10.167,0,0,1,2.384-8.2,11.162,11.162,0,0,1,7.765-3.785c2.978-.13,6.7,1.2,7.256,4.514a3.556,3.556,0,0,1-1.667,3.791,4.073,4.073,0,0,1-4.5-.56,5.166,5.166,0,0,1-.825-.85c-.2-.257-.639,0-.44.257Z" transform="translate(-33.302 -33.935)"/><rect class="g" width="74.179" height="35.199" transform="translate(46.719 12.614) rotate(-8.22)"/><rect class="h" width="69.937" height="29.368" transform="translate(49.25 15.298) rotate(-8.22)"/><rect class="i" width="74.179" height="3.151" transform="translate(46.397 10.606) rotate(-8.22)"/><circle class="h" cx="0.584" cy="0.584" r="0.584" transform="translate(48.395 11.521)"/><circle class="h" cx="0.584" cy="0.584" r="0.584" transform="translate(50.589 11.204)"/><circle class="h" cx="0.584" cy="0.584" r="0.584" transform="translate(52.784 10.887)"/><rect class="c" width="74.179" height="35.199" transform="translate(62.821 16.998)"/><rect class="h" width="69.936" height="29.368" transform="translate(64.943 20.016)"/><rect class="j" width="74.179" height="3.151" transform="translate(62.79 14.964)"/><circle class="h" cx="0.584" cy="0.584" r="0.584" transform="translate(64.548 16.233)"/><circle class="h" cx="0.584" cy="0.584" r="0.584" transform="translate(66.764 16.233)"/><circle class="h" cx="0.584" cy="0.584" r="0.584" transform="translate(68.982 16.233)"/><rect class="c" width="9.85" height="0.74" transform="translate(105.242 24.481)"/><rect class="c" width="15.21" height="0.74" transform="translate(105.242 26.655)"/><rect class="c" width="12.396" height="0.74" transform="translate(105.4 28.725)"/><rect class="c" width="7.236" height="0.74" transform="translate(105.242 30.996)"/><rect class="c" width="10.922" height="0.74" transform="translate(105.242 33.214)"/><rect class="c" width="1.206" height="1.206" transform="translate(100.753 24.248)"/><rect class="c" width="1.206" height="1.206" transform="translate(100.753 26.422)"/><rect class="c" width="1.206" height="1.206" transform="translate(100.753 28.492)"/><rect class="c" width="1.206" height="1.206" transform="translate(100.753 30.763)"/><rect class="c" width="1.206" height="1.206" transform="translate(100.753 32.981)"/><rect class="c" width="9.85" height="0.74" transform="translate(105.242 35.446)"/><rect class="c" width="15.21" height="0.74" transform="translate(105.242 37.619)"/><rect class="c" width="12.396" height="0.74" transform="translate(105.4 39.689)"/><rect class="c" width="7.236" height="0.74" transform="translate(105.242 41.96)"/><rect class="c" width="10.922" height="0.74" transform="translate(105.242 44.179)"/><rect class="c" width="1.206" height="1.206" transform="translate(100.753 35.213)"/><rect class="c" width="1.206" height="1.206" transform="translate(100.753 37.387)"/><rect class="c" width="1.206" height="1.206" transform="translate(100.753 39.456)"/><rect class="c" width="1.206" height="1.206" transform="translate(100.753 41.727)"/><rect class="c" width="1.206" height="1.206" transform="translate(100.753 43.946)"/><rect class="c" width="9.85" height="0.74" transform="translate(74.083 41.253)"/><rect class="c" width="12.396" height="0.74" transform="translate(72.765 43.177)"/><path class="c" d="M118.711,65.85a6.434,6.434,0,0,1-9.481,5.664h0a6.432,6.432,0,1,1,9.482-5.663Z" transform="translate(-33.302 -33.935)"/><circle class="h" cx="1.748" cy="1.748" r="1.748" transform="translate(77.263 28.106)"/><path class="h" d="M115.3,69.15a9.011,9.011,0,0,1-6.035-.023h0l1.3-2.571h3.5Z" transform="translate(-33.302 -33.935)"/><path class="e" d="M92.956,81.813a5.881,5.881,0,1,1,5.526-5.871A5.713,5.713,0,0,1,92.956,81.813Zm0-10.258A4.4,4.4,0,1,0,97,75.943a4.231,4.231,0,0,0-4.043-4.387Z" transform="translate(-33.302 -33.935)"/><path class="k" d="M98.189,92.044H87.722a3.485,3.485,0,0,1-3.481-3.481V78.3a2.386,2.386,0,0,1,2.383-2.383H99.287A2.386,2.386,0,0,1,101.67,78.3V88.563A3.485,3.485,0,0,1,98.189,92.044Z" transform="translate(-33.302 -33.935)"/><path class="h" d="M95,81.754a2.04,2.04,0,1,0-2.967,1.815V86.76h1.854V83.569A2.038,2.038,0,0,0,95,81.754Z" transform="translate(-33.302 -33.935)"/><path class="k" d="M98.115,118.767H33.471a.17.17,0,0,1,0-.339H98.115a.17.17,0,1,1,0,.339Z" transform="translate(-33.302 -33.935)"/></g></g></svg>