<svg xmlns="http://www.w3.org/2000/svg" xmlns:xlink="http://www.w3.org/1999/xlink" width="112" height="80" viewBox="0 0 112 80"><defs><style>.a{fill:#fff;}.b{opacity:0.52;clip-path:url(#a);}.c{fill:#2f2e41;}.d{fill:#ffb8b8;}.e{fill:#3f3d56;}.f{fill:#6c63ff;}.g{fill:#f2f2f2;}.h{fill:#a0616a;}.i{fill:#cacaca;}</style><clipPath id="a"><rect class="a" width="112" height="80" transform="translate(640 984)"/></clipPath></defs><g class="b" transform="translate(-640 -984)"><g transform="translate(640 986.338)"><path class="c" d="M116.232,33.932l.359-2.88a3.889,3.889,0,1,1,7.719.963l-.359,2.88a.523.523,0,0,1-.583.454l-6.682-.834A.523.523,0,0,1,116.232,33.932Z" transform="translate(-26.353 -24.103)"/><circle class="d" cx="2.851" cy="2.851" r="2.851" transform="translate(90.228 4.985)"/><path class="c" d="M115.649,31.168a3.08,3.08,0,0,1,3.434-2.672l.576.072A3.08,3.08,0,0,1,122.331,32l-.007.058-1.217-.152-.27-1.214-.228,1.152-.629-.078-.136-.613-.115.581-4.086-.51Z" transform="translate(-26.353 -24.103)"/><path class="d" d="M105.486,42.111a1.314,1.314,0,0,0,1.963.451l2.59,1.517,1.306-1.349-3.688-2.091a1.321,1.321,0,0,0-2.171,1.472Z" transform="translate(-26.353 -24.103)"/><path class="e" d="M113.974,44.838a29.484,29.484,0,0,1-5.458-.9l-.059-.015.529-2.679,5.135,1.014,2.789-3.928,3.2-.326-.089.118c-.042.055-4.17,5.489-4.812,6.4C115.049,44.75,114.586,44.838,113.974,44.838Z" transform="translate(-26.353 -24.103)"/><path class="e" d="M114.486,54.892l-.076-.036a6.244,6.244,0,0,1-2.48-2.338c-.837-1.534,3.08-8.041,3.354-8.492l0-2.066,1.409-3.8,1.8-1.016-1.543,3.6Z" transform="translate(-26.353 -24.103)"/><path class="d" d="M86.333,53H84.616L83.8,46.375h2.535Z"/><path class="c" d="M113.124,78.767h-5.537V78.7a2.155,2.155,0,0,1,2.155-2.155h3.382Z" transform="translate(-26.353 -24.103)"/><path class="d" d="M104.779,51.494l-1.632.535-2.839-6.04,2.409-.789Z"/><path class="c" d="M132.067,77.043,126.8,78.767l-.022-.067a2.155,2.155,0,0,1,1.377-2.719h0l3.214-1.053Z" transform="translate(-26.353 -24.103)"/><path class="c" d="M127.807,74.514l-4.9-8.173-4.133-8.732-3.719,7.713-1.477,9.99-5.181.072.02-.081,7.929-31.5,6.21.928-.283,4.1.168.239c1.4,1.993,2.853,4.053,2.021,6.274l2.358,7L132.045,74Z" transform="translate(-26.353 -24.103)"/><path class="f" d="M116.634,50.627c-.9,0-1.926-1.027-1.394-2.781l-.034-.025,1.279-5.652a2.257,2.257,0,0,1,.493-3.032l.7-1.265,3.1-1.966,1.568,13.032-.023.022C121.193,50.044,117.389,50.627,116.634,50.627Z" transform="translate(-26.353 -24.103)"/><path class="e" d="M122.983,53.568a1.526,1.526,0,0,1-.366-.039c-.121-.03-.316-.184-.617-1.166-1.2-3.9-2.615-15.65-1.586-16.8l.024-.026,1.689.281a2.5,2.5,0,0,1,1.557-.528,1.032,1.032,0,0,1,.706.417l.012.015.538,7.653,1.971,9.007-.047.021A13.441,13.441,0,0,1,122.983,53.568Z" transform="translate(-26.353 -24.103)"/><path class="d" d="M121.847,50.576a1.314,1.314,0,0,0,1.241-1.586l2.472-1.7-.668-1.755-3.457,2.453a1.321,1.321,0,0,0,.413,2.59Z" transform="translate(-26.353 -24.103)"/><path class="e" d="M124.744,48.652l-2.2-1.615,3.1-4.221-2.375-4.192,1.063-3.039.069.131c.032.061,3.2,6.1,3.757,7.072.576,1.007-3.207,5.62-3.368,5.816Z" transform="translate(-26.353 -24.103)"/><path class="a" d="M103.125,57.65,62.666,59.022a3.778,3.778,0,0,1-3.9-3.644L58.1,35.72a3.778,3.778,0,0,1,3.644-3.9L102.2,30.449a3.778,3.778,0,0,1,3.9,3.644l.666,19.658A3.778,3.778,0,0,1,103.125,57.65Z" transform="translate(-26.353 -24.103)"/><path class="g" d="M106.769,53.751l0,.1a3.6,3.6,0,0,1-3.48,3.723L62.631,58.957a3.6,3.6,0,0,1-3.723-3.479l0-.1Z" transform="translate(-26.353 -24.103)"/><path class="f" d="M66.827,37.941a5.156,5.156,0,0,1-6.16-3.428l.2-.044A5.14,5.14,0,0,1,66.827,37.941Z" transform="translate(-26.353 -24.103)"/><path class="e" d="M95.635,51.994a2.071,2.071,0,0,1-1.571-.528c-.873-.842-.877-2.521-.88-3.871,0-.393,0-.763-.024-1.073v0A2.3,2.3,0,0,1,95.37,44.15l5.442-.184a2.069,2.069,0,0,1,1.57.527c.873.841.878,2.52.881,3.869,0,.393,0,.765.025,1.075a2.3,2.3,0,0,1-2.212,2.372Zm-2.248-5.486c.023.317.024.691.025,1.087,0,1.306.007,2.932.81,3.706a1.828,1.828,0,0,0,1.4.464l5.44-.184a2.074,2.074,0,0,0,1.992-2.132c-.023-.314-.024-.689-.025-1.087,0-1.306-.008-2.931-.811-3.7a1.827,1.827,0,0,0-1.4-.463l-5.442.184a2.073,2.073,0,0,0-1.991,2.13Z" transform="translate(-26.353 -24.103)"/><path class="e" d="M65.632,38.193A5.329,5.329,0,0,1,60.478,34.5l-.029-.115.317-.068a5.259,5.259,0,0,1,6.093,3.551l.03.11-.109.031a4.8,4.8,0,0,1-1.148.18Zm-4.9-3.63A4.974,4.974,0,0,0,63.025,37.3a4.767,4.767,0,0,0,3.582.527,5.027,5.027,0,0,0-5.785-3.279Z" transform="translate(-26.353 -24.103)"/><path class="e" d="M62.9,51.288a1.9,1.9,0,0,1-1.744-.887,2.374,2.374,0,0,1-.08-2.327,1.9,1.9,0,0,1,1.72-1.005l7.251-.246a1.908,1.908,0,0,1,1.783.888,2.374,2.374,0,0,1,.079,2.326,1.913,1.913,0,0,1-1.72,1l-7.251.246ZM62.77,47.3a1.681,1.681,0,0,0-1.491.884,2.139,2.139,0,0,0,.072,2.1,1.683,1.683,0,0,0,1.579.779l7.255-.246a1.685,1.685,0,0,0,1.525-.883,2.139,2.139,0,0,0-.071-2.1,1.69,1.69,0,0,0-1.58-.781L62.8,47.3H62.77Z" transform="translate(-26.353 -24.103)"/><path class="f" d="M97.322,46.805l-2.286.077A.572.572,0,0,1,95,45.74l2.286-.077a.572.572,0,1,1,.039,1.143Z" transform="translate(-26.353 -24.103)"/><path class="f" d="M97.384,48.634l-2.286.077a.572.572,0,0,1-.039-1.143l2.286-.077a.572.572,0,0,1,.039,1.143Z" transform="translate(-26.353 -24.103)"/><path class="f" d="M97.446,50.463l-2.286.077a.572.572,0,1,1-.039-1.143l2.286-.077a.572.572,0,1,1,.039,1.143Z" transform="translate(-26.353 -24.103)"/><path class="f" d="M101.322,46.67l-2.286.077A.572.572,0,1,1,99,45.6h0l2.286-.077a.572.572,0,0,1,.039,1.143Z" transform="translate(-26.353 -24.103)"/><path class="f" d="M101.384,48.5l-2.286.077a.572.572,0,1,1-.039-1.143h0l2.286-.077a.572.572,0,0,1,.039,1.143h0Z" transform="translate(-26.353 -24.103)"/><path class="f" d="M101.446,50.327l-2.286.077a.572.572,0,0,1-.039-1.143l2.286-.077a.572.572,0,1,1,.039,1.143Z" transform="translate(-26.353 -24.103)"/><rect class="e" width="47.893" height="0.229" transform="translate(32.03 15.892) rotate(-1.942)"/><path class="e" d="M103.125,57.65,62.666,59.022a3.778,3.778,0,0,1-3.9-3.644L58.1,35.72a3.778,3.778,0,0,1,3.644-3.9L102.2,30.449a3.778,3.778,0,0,1,3.9,3.644l.666,19.658A3.778,3.778,0,0,1,103.125,57.65Zm-41.373-25.6a3.549,3.549,0,0,0-3.423,3.663l.666,19.658a3.549,3.549,0,0,0,3.663,3.423l40.459-1.371a3.549,3.549,0,0,0,3.423-3.663L105.874,34.1a3.549,3.549,0,0,0-3.663-3.423Z" transform="translate(-26.353 -24.103)"/><path class="h" d="M45.156,52.787a1.377,1.377,0,0,0-1.681-1.277l-1.821-2.566-1.829.726,2.622,3.588a1.384,1.384,0,0,0,2.709-.47Z" transform="translate(-26.353 -24.103)"/><path class="e" d="M41.607,52.6,36.1,45.449l2.064-6.488a2.406,2.406,0,0,1,1.215-2.105l.066-.028,1.8,4.791-1.319,3.517,3.237,5.445Z" transform="translate(-26.353 -24.103)"/><path class="h" d="M60.741,30.562A1.377,1.377,0,0,0,59.6,32.337L57.18,34.351l.865,1.768,3.374-2.892a1.384,1.384,0,0,0-.678-2.664Z" transform="translate(-26.353 -24.103)"/><path class="e" d="M60.826,34.115l-6.7,6.046L47.5,38.6A2.406,2.406,0,0,1,45.3,37.556l-.033-.064,4.637-2.161,3.609,1.043L58.7,32.725Z" transform="translate(-26.353 -24.103)"/><path class="h" d="M22.867,52.992h1.8l.856-6.944H22.867Z"/><path class="c" d="M48.834,76.581h5.658v2.186h-3.72a1.938,1.938,0,0,1-1.938-1.938v-.248Z" transform="translate(76.977 131.242) rotate(179.997)"/><path class="h" d="M15.672,52.992h1.8l.856-6.944H15.672Z"/><path class="c" d="M41.639,76.581H47.3v2.186h-3.72a1.938,1.938,0,0,1-1.938-1.938v-.248Z" transform="translate(62.587 131.242) rotate(179.997)"/><path class="c" d="M15.032,27.647l.147,10.279.147,13.509,3.231-.294,1.615-18.649,2.056,18.649h3.335l.336-18.8-1.175-4.112Z"/><path class="e" d="M47.708,53.13a17.357,17.357,0,0,1-6.794-1.612l-.036-.018-.295-7.079c-.086-.25-1.77-5.186-2.055-6.755-.289-1.59,3.9-2.985,4.408-3.148l.115-1.279,4.694-.506.595,1.636L50.024,35a.833.833,0,0,1,.516.979L49.6,39.785,51.89,52.378,51.4,52.4A8.937,8.937,0,0,1,47.708,53.13Z" transform="translate(-26.353 -24.103)"/><circle class="h" cx="3.38" cy="3.38" r="3.38" transform="translate(15.849 1.061)"/><path class="c" d="M42.844,31.815a1.115,1.115,0,0,0,1.924-.62,1.132,1.132,0,0,0,0-.219,5.069,5.069,0,0,1-.226-1.231.645.645,0,0,1,.118-.3c.513-.687,1.718.307,2.2-.315.3-.382-.052-.982.176-1.409.3-.563,1.192-.285,1.751-.593.622-.343.585-1.3.175-1.877a2.953,2.953,0,0,0-2.238-1.14A6,6,0,0,0,44.2,24.6a5.055,5.055,0,0,0-2.39,1.657,4.045,4.045,0,0,0-.409,3.444A6.494,6.494,0,0,0,42.844,31.815Z" transform="translate(-26.353 -24.103)"/><path class="i" d="M138.216,78.95H26.49a.137.137,0,1,1,0-.275H138.216a.137.137,0,0,1,0,.275Z" transform="translate(-26.353 -24.103)"/><path class="d" d="M62.3,73.752h1.622L64.7,67.5H62.3Z"/><path class="c" d="M88.243,97.325h3.193a2.035,2.035,0,0,1,2.035,2.035v.066H88.243Z" transform="translate(-26.353 -24.103)"/><path class="d" d="M47.226,73.752h1.622l.771-6.254H47.225Z"/><path class="c" d="M73.165,97.325h3.193a2.035,2.035,0,0,1,2.035,2.035v.066H73.165Z" transform="translate(-26.353 -24.103)"/><path class="c" d="M89.3,66.115s1.361,3.694,1.167,5.25,1.361,12.444,1.167,13.416.194,5.833,0,6.611.546,1.707.157,2.484-.935,2.376-.935,2.376l-2.528-.194-.389-2.139a1.158,1.158,0,0,1-.972-1.361c.194-1.167-.972-8.944-.972-8.944L82.692,72.726l-4.666,9.916s-.194,7-.778,7.777.583,2.917,0,3.694a12.956,12.956,0,0,0-1.167,2.139H73.165V94.7s-1.75-.972,0-3.889l1.182-17.515,1.167-7.972Z" transform="translate(-26.353 -24.103)"/><circle class="d" cx="3.632" cy="3.632" r="3.632" transform="translate(52.07 10.3)"/><path class="c" d="M85.145,37.784l-.769,1.964a4.028,4.028,0,0,1-1.414,2.115,2.867,2.867,0,0,1-3.011-.317,4.7,4.7,0,0,1,2.117-8.559l.037.657.807-.676a.784.784,0,0,0,1.219.172,1.2,1.2,0,0,0,.386,1.311c.434.413,1.675.91,1.623,1.649C86.1,36.6,85.345,37.273,85.145,37.784Z" transform="translate(-26.353 -24.103)"/><path class="d" d="M72.058,71.487a1.538,1.538,0,0,1,.659-2.264l-.073-3.513,2.124-.565.033,4.963a1.546,1.546,0,0,1-2.743,1.379Z" transform="translate(-26.353 -24.103)"/><path class="e" d="M79.357,43.911a7.868,7.868,0,0,1,5.472-.469,15.6,15.6,0,0,1,4.065,2.032l-1.72,9.068,2.345,12.195s-12.039-.938-13.133,0-1.094-1.094-1.094-1.094l.938-11.569-1.72-7.348Z" transform="translate(-26.353 -24.103)"/><path class="d" d="M91.235,71.7a1.538,1.538,0,0,1,0-2.358l-1.056-3.351,1.88-1.138L93.48,69.6A1.546,1.546,0,0,1,91.235,71.7Z" transform="translate(-26.353 -24.103)"/><path class="e" d="M87.8,45.474h1.094a3.745,3.745,0,0,1,1.72,2.658c0,1.563,2.5,19.856,2.5,19.856l-2.658.469-2.345-12.82-1.72-3.44Z" transform="translate(-26.353 -24.103)"/><path class="e" d="M77.481,46.725H74.51A6.561,6.561,0,0,0,73.1,49.852c-.469,2.189-.938,10.788-.938,10.788l.313,7.817h2.345l.313-10.162L76.7,51.728Z" transform="translate(-26.353 -24.103)"/></g></g></svg>