<svg xmlns="http://www.w3.org/2000/svg" xmlns:xlink="http://www.w3.org/1999/xlink" width="129" height="88" viewBox="0 0 129 88"><defs><style>.a,.g{fill:#fff;}.a{stroke:#707070;}.b{clip-path:url(#a);}.c{fill:#f2f2f2;}.d{fill:#3f3d56;}.e{fill:#ffb8b8;}.f{fill:#ccc;}.h{fill:#2f2e41;}.i{fill:#6c63ff;}</style><clipPath id="a"><rect class="a" width="129" height="88" transform="translate(1088 472)"/></clipPath></defs><g class="b" transform="translate(-1088 -472)"><g transform="translate(1091.045 472)"><path class="c" d="M186.263,78.118H119a3.574,3.574,0,0,0-3.571,3.571v10.9A3.574,3.574,0,0,0,119,96.16h67.259a3.574,3.574,0,0,0,3.571-3.571v-10.9A3.574,3.574,0,0,0,186.263,78.118Z" transform="translate(-66.985 -52.331)"/><path class="d" d="M93.958,140.331H67.2a.214.214,0,0,1,0-.428H93.958a.214.214,0,1,1,0,.428Z" transform="translate(-66.985 -52.331)"/><path class="e" d="M90.029,73.3a2.007,2.007,0,0,0-.411,3.05l-1.945,4.154,2.236,1.8L92.573,76.4a2.018,2.018,0,0,0-2.544-3.1Z" transform="translate(-66.985 -52.331)"/><path class="f" d="M78.85,74.99h0a2.8,2.8,0,0,1,3.764.844l3.981,5.96,1.382-3.046a.856.856,0,0,1,1.035-.464l2.086.652a.856.856,0,0,1,.556,1.092l-1.428,4.216a3.643,3.643,0,0,1-5.514,1.834h0a3.643,3.643,0,0,1-.6-.513L78.248,79.3a2.8,2.8,0,0,1,.6-4.306Z" transform="translate(-66.985 -52.331)"/><path class="d" d="M91.727,68.832a.4.4,0,0,1,.393.413l-.034,1.383.069.006-.025.94-.068-.008-.123,4.956a.7.7,0,0,1-.625.678l-3.151.332a.529.529,0,0,1-.583-.562l.478-7.057a.654.654,0,0,1,.553-.6l3.042-.473h0a.4.4,0,0,1,.075-.005Z" transform="translate(-66.985 -52.331)"/><path class="g" d="M89.288,69.567l1.6-.248A.132.132,0,0,0,91,69.2h0a.15.15,0,0,1,.126-.132l.337-.052a.318.318,0,0,1,.367.322l-.173,7.186a.363.363,0,0,1-.331.353l-3.149.28a.28.28,0,0,1-.3-.3l.425-6.992a.452.452,0,0,1,.382-.42l.355-.055A.226.226,0,0,0,89.288,69.567Z" transform="translate(-66.985 -52.331)"/><path class="e" d="M14.882,85.4H17.33l1.164-9.44H14.882Z"/><path class="h" d="M81.343,137.033h7.691V140h-4.72a2.972,2.972,0,0,1-2.972-2.972h0Z" transform="translate(103.405 224.699) rotate(179.995)"/><path class="e" d="M7.361,85.4H9.808l1.164-9.44H7.36Z"/><path class="h" d="M73.822,137.033h7.691V140h-4.72a2.972,2.972,0,0,1-2.972-2.972h0Z" transform="translate(88.362 224.7) rotate(179.995)"/><circle class="e" cx="5.258" cy="5.258" r="5.258" transform="translate(9.27 8.936)"/><path class="h" d="M84.219,80.592a8.1,8.1,0,0,0-3.913-6.682c-1.358-.8-2.845-1.113-4.028.07A8.211,8.211,0,0,0,74.6,76.5a10.811,10.811,0,0,0-.2,8.025L77.216,92.3l6.516.706a.856.856,0,0,0,.948-.885Z" transform="translate(-66.985 -52.331)"/><path class="h" d="M77.629,91.344s-4.868,1.817-3.6,9.513c1.142,6.906.234,29.826.036,34.459a.855.855,0,0,0,.784.889l2.842.237a.856.856,0,0,0,.922-.761L80.086,122.2a.214.214,0,0,1,.426.005l1.094,12.972a.856.856,0,0,0,.88.784l2.387-.076A.856.856,0,0,0,85.7,135L84.3,92.242Z" transform="translate(-66.985 -52.331)"/><path class="h" d="M82.568,66.178A3.811,3.811,0,1,0,80.9,60.46a3.632,3.632,0,0,0-4.819-1.117,5.578,5.578,0,0,0-2.574,4.6,12.674,12.674,0,0,0,1.131,5.334A5.821,5.821,0,0,0,82,72.364,5.066,5.066,0,0,1,82.568,66.178Z" transform="translate(-66.985 -52.331)"/><path class="i" d="M89.654,73.942a.216.216,0,0,1-.13-.043l0,0-.489-.374a.217.217,0,1,1,.264-.345l.317.243.748-.976a.217.217,0,0,1,.3-.04h0l0,.006,0-.006a.217.217,0,0,1,.04.3l-.88,1.148a.217.217,0,0,1-.173.085Z" transform="translate(-66.985 -52.331)"/><path class="d" d="M186.326,52.331H119.067A3.574,3.574,0,0,0,115.5,55.9V66.8a3.574,3.574,0,0,0,3.571,3.571h67.259A3.574,3.574,0,0,0,189.9,66.8V55.9A3.574,3.574,0,0,0,186.326,52.331ZM189.521,66.8A3.2,3.2,0,0,1,186.326,70H119.067a3.2,3.2,0,0,1-3.195-3.195V55.9a3.2,3.2,0,0,1,3.195-3.195h67.259a3.2,3.2,0,0,1,3.195,3.195Z" transform="translate(-66.985 -52.331)"/><path class="i" d="M132.754,67.566a6.215,6.215,0,1,1,6.215-6.215A6.215,6.215,0,0,1,132.754,67.566Z" transform="translate(-66.985 -52.331)"/><path class="f" d="M177.149,66.426h-32.3a1.5,1.5,0,1,1,0-3.007h32.3a1.5,1.5,0,0,1,0,3.007Z" transform="translate(-66.985 -52.331)"/><path class="f" d="M155.537,60.036H144.846a1.5,1.5,0,1,1,0-3.007h10.691a1.5,1.5,0,0,1,0,3.007Z" transform="translate(-66.985 -52.331)"/><path class="g" d="M132.437,63.537a.711.711,0,0,1-.428-.142L132,63.389l-1.611-1.232a.716.716,0,0,1,.871-1.136l1.043.8,2.466-3.217a.716.716,0,0,1,1-.133h0l-.015.021.016-.021a.716.716,0,0,1,.132,1l-2.9,3.782a.716.716,0,0,1-.569.279Z" transform="translate(-66.985 -52.331)"/><path class="g" d="M157.427,81.658H90.168A3.574,3.574,0,0,0,86.6,85.229v10.9A3.574,3.574,0,0,0,90.168,99.7h67.259A3.574,3.574,0,0,0,161,96.129v-10.9a3.574,3.574,0,0,0-3.571-3.571Z" transform="translate(-66.985 -52.331)"/><path class="d" d="M157.427,81.658H90.168A3.574,3.574,0,0,0,86.6,85.229v10.9A3.574,3.574,0,0,0,90.168,99.7h67.259A3.574,3.574,0,0,0,161,96.129v-10.9a3.574,3.574,0,0,0-3.571-3.571Zm3.195,14.471a3.2,3.2,0,0,1-3.195,3.195H90.168a3.2,3.2,0,0,1-3.195-3.195v-10.9a3.2,3.2,0,0,1,3.195-3.195h67.259a3.2,3.2,0,0,1,3.195,3.195Z" transform="translate(-66.985 -52.331)"/><path class="i" d="M103.855,96.894a6.215,6.215,0,1,1,6.215-6.215,6.215,6.215,0,0,1-6.215,6.215Z" transform="translate(-66.985 -52.331)"/><path class="f" d="M148.25,95.753h-32.3a1.5,1.5,0,1,1,0-3.007h32.3a1.5,1.5,0,0,1,0,3.007Z" transform="translate(-66.985 -52.331)"/><path class="f" d="M126.638,89.363H115.947a1.5,1.5,0,0,1,0-3.007h10.691a1.5,1.5,0,1,1,0,3.007Z" transform="translate(-66.985 -52.331)"/><path class="g" d="M103.538,92.865a.711.711,0,0,1-.428-.142l-.008-.006-1.611-1.232a.716.716,0,0,1,.871-1.136l1.043.8,2.466-3.217a.716.716,0,0,1,1-.133h0l-.015.021.016-.021a.716.716,0,0,1,.132,1l-2.9,3.782a.716.716,0,0,1-.569.279Z" transform="translate(-66.985 -52.331)"/><path class="e" d="M87.987,84.117a2.007,2.007,0,0,0-2.739,1.4l-4.521.775-.2,2.862L86.9,87.974a2.018,2.018,0,0,0,1.09-3.857Z" transform="translate(-66.985 -52.331)"/><path class="f" d="M80.221,75.9h0a2.8,2.8,0,0,1,1.456,3.572l-2.621,6.671,3.29-.6a.856.856,0,0,1,.972.585l.656,2.084a.856.856,0,0,1-.579,1.08l-4.276,1.235a3.643,3.643,0,0,1-4.654-3.48h0a3.643,3.643,0,0,1,.081-.783l1.8-8.394A2.8,2.8,0,0,1,80.221,75.9Z" transform="translate(-66.985 -52.331)"/></g></g></svg>