<svg xmlns="http://www.w3.org/2000/svg" xmlns:xlink="http://www.w3.org/1999/xlink" width="152" height="96" viewBox="0 0 152 96"><defs><style>.a{fill:#fff;}.b{opacity:0.5;clip-path:url(#a);}.c{fill:#e6e6e6;}.d{fill:#3f3d56;}.e{fill:#6c63ff;}.f{fill:#f2f2f2;}.g{fill:#a0616a;}.h{fill:#2f2e41;}.i{fill:#ccc;}.j{fill:#ff6584;}.k{fill:#e5e5e5;}</style><clipPath id="a"><rect class="a" width="152" height="96"/></clipPath></defs><g class="b"><g transform="translate(0 3.032)"><path class="c" d="M48.621,67.151l-.162-.037a36.928,36.928,0,0,1,72.015-.1l-.162.037A36.549,36.549,0,0,0,84.478,38.5,36.992,36.992,0,0,0,48.621,67.151Z" transform="translate(-8.444 -18.366)"/><path class="d" d="M160.444,104.78h-152V18.366h152ZM8.726,104.5H160.163V18.647H8.726Z" transform="translate(-8.444 -18.366)"/><circle class="e" cx="1.267" cy="1.267" r="1.267" transform="translate(9.148 7.6)"/><circle class="f" cx="1.267" cy="1.267" r="1.267" transform="translate(12.948 7.6)"/><circle class="f" cx="1.267" cy="1.267" r="1.267" transform="translate(16.748 7.6)"/><path class="c" d="M154.393,90.455v9.4H144.383a12.209,12.209,0,0,1,10.009-9.4Z" transform="translate(-8.444 -18.366)"/><path class="c" d="M136.775,44.135l-.09-.108L102.993,71.968l-.108.09,23.345,28.148h.366L103.281,72.095l33.367-27.671,17.745,21.4v-.442Z" transform="translate(-8.444 -18.366)"/><circle class="g" cx="8.683" cy="8.683" r="8.683" transform="translate(90.474 22.677)"/><path class="e" d="M122.034,68.044,117.2,82.053h0l-2.329,6.754s-.238,10.739-.477,10.739c-.05,0-.12.155-.2.4H91.061l1.857-19.73L92.8,79.3,91.352,67.512a5.906,5.906,0,0,1,3.9-6.294l2.427-.853a19.214,19.214,0,0,1,9.924-.757h0a19.215,19.215,0,0,1,8.108,3.61Z" transform="translate(-8.444 -18.366)"/><path class="h" d="M115.131,42.73s-2.757-5.973-8.041-4.594-8.27,3.446-8.5,5.513a29.5,29.5,0,0,0,.115,5.169s.574-4.25,4.25-3.331,9.419.23,9.419.23l.919,8.27s1.034-1.493,2.182-.574S118.806,44.567,115.131,42.73Z" transform="translate(-8.444 -18.366)"/><path class="e" d="M126.569,89.762a29.852,29.852,0,0,1-2,10.183h-6.887l.061-.16,1.909-8.354-.716-2.863L117.2,82.054h0a19.046,19.046,0,0,1,.153-10.314l.078-.263a4.8,4.8,0,0,1,4.6-3.432h0a9.7,9.7,0,0,1,2.863,7.637Z" transform="translate(-8.444 -18.366)"/><path class="i" d="M146.425,35.542a4.7,4.7,0,1,1,4.7-4.7h0a4.7,4.7,0,0,1-4.7,4.7Zm0-9.176a4.479,4.479,0,1,0,4.479,4.479h0a4.479,4.479,0,0,0-4.479-4.479Z" transform="translate(-8.444 -18.366)"/><path class="i" d="M154.393,100.206H14.5V22.94h139.9ZM14.755,99.955H154.133V23.191H14.755Z" transform="translate(-8.444 -18.366)"/><path class="d" d="M148.4,29.058l-.1-.1-1.908,1.908-1.908-1.908-.1.1,1.908,1.908-1.654,1.654.1.1,1.654-1.654,1.654,1.654.1-.1L146.5,30.965Z" transform="translate(-8.444 -18.366)"/><path class="d" d="M66.968,67.265H19.275a1.685,1.685,0,0,0-1.682,1.682v18.4a1.685,1.685,0,0,0,1.682,1.683H66.968a1.685,1.685,0,0,0,1.682-1.682V68.948a1.685,1.685,0,0,0-1.682-1.682Zm1.484,20.087a1.486,1.486,0,0,1-1.484,1.484H19.275a1.486,1.486,0,0,1-1.484-1.484v-18.4a1.486,1.486,0,0,1,1.484-1.484H66.968a1.486,1.486,0,0,1,1.484,1.484Z" transform="translate(-8.444 -18.366)"/><path class="e" d="M64.178,72.613H39.194a1.266,1.266,0,0,0-1.35,1.082.3.3,0,0,0,0,.044,1.256,1.256,0,0,0,1.352,1.126H64.178a1.145,1.145,0,1,0,0-2.252Z" transform="translate(-8.444 -18.366)"/><path class="e" d="M64.178,77.117H39.194a1.266,1.266,0,0,0-1.35,1.082.3.3,0,0,0,0,.044,1.256,1.256,0,0,0,1.352,1.126H64.178a1.145,1.145,0,1,0,0-2.252Z" transform="translate(-8.444 -18.366)"/><path class="e" d="M64.178,81.621H39.194a1.266,1.266,0,0,0-1.35,1.082.3.3,0,0,0,0,.044,1.256,1.256,0,0,0,1.352,1.126H64.178a1.145,1.145,0,1,0,0-2.252Z" transform="translate(-8.444 -18.366)"/><path class="d" d="M27.443,84.154A5.961,5.961,0,1,1,33.4,78.193,5.961,5.961,0,0,1,27.443,84.154Zm0-11.716A5.755,5.755,0,1,0,33.2,78.193h0A5.755,5.755,0,0,0,27.443,72.438Z" transform="translate(-8.444 -18.366)"/><path class="j" d="M50.1,97.6H45.037V92.536H50.1Zm-4.785-.281h4.5v-4.5h-4.5Z" transform="translate(-8.444 -18.366)"/><path class="d" d="M39.011,95.988,37.2,94.329l.19-.207,1.568,1.437,3.568-5.352.234.156Z" transform="translate(-8.444 -18.366)"/><path class="k" d="M40.815,93.8v3.519h-4.5v-4.5H39.83v-.281h-3.8V97.6H41.1V93.8Z" transform="translate(-8.444 -18.366)"/><circle class="e" cx="3.307" cy="3.307" r="3.307" transform="translate(13.511 58.407)"/><path class="g" d="M68.527,105.5a2.635,2.635,0,0,1,3.228-2.43l4.993-7.922,2.008,4.433-5.05,6.844a2.649,2.649,0,0,1-5.18-.924Z" transform="translate(-8.444 -18.366)"/><path class="e" d="M94.6,62.117l-.276.049a8.86,8.86,0,0,0-6.8,5.612q-.049.133-.094.267l-1.909,8.591L72.393,101.7l4.058,2.386S87.668,90.956,89.1,86.421l5.766-11.088a3.593,3.593,0,0,0,.4-1.8l-.432-11.231a.2.2,0,0,0-.233-.188Z" transform="translate(-8.444 -18.366)"/></g></g></svg>