<svg xmlns="http://www.w3.org/2000/svg" xmlns:xlink="http://www.w3.org/1999/xlink" width="111.199" height="107.649" viewBox="0 0 111.199 107.649">
  <defs>
    <linearGradient id="linear-gradient" y1="0.827" x2="1" y2="0.864" gradientUnits="objectBoundingBox">
      <stop offset="0" stop-color="#051a2d"/>
      <stop offset="1" stop-color="#004c97"/>
    </linearGradient>
  </defs>
  <path id="image_331_Traced_" data-name="image 331 (Traced)" d="M52.349.308a18.888,18.888,0,0,0-8.3,3.992A19.575,19.575,0,0,0,37,17.941c-.217,3.29.228,3.622,4.668,3.491,3.3-.1,3.431-.194,3.729-2.694.386-3.241,1.073-4.8,3.053-6.914A10.412,10.412,0,0,1,55.292,8.34,11.838,11.838,0,0,1,61,9.442a12.333,12.333,0,0,1,4.909,4.945c.988,2.068,1.2,3.454,1.2,7.759v3.642l-15.9.062c-17.535.069-16.569-.008-18.228,1.449-1.636,1.436-1.573.784-1.642,17.05-.043,10.026.013,14.888.179,15.689A5.2,5.2,0,0,0,34.111,63.5l.973.515H76.83l1.161-.607a4.206,4.206,0,0,0,1.816-1.665l.655-1.059V29.137l-.6-.9a4.936,4.936,0,0,0-3.342-2.174l-1.052-.15-.119-4.882c-.129-5.282-.279-6.18-1.532-9.147a21.261,21.261,0,0,0-7.65-9.049A22.344,22.344,0,0,0,59.9.311,23.173,23.173,0,0,0,52.349.308Zm6.377,38.168a4.679,4.679,0,0,1,.878,7.272l-.96,1.068v3.517c0,3.966-.2,4.755-1.342,5.227a2.369,2.369,0,0,1-3.368-1.339,20.778,20.778,0,0,1-.271-4.121c-.012-3.353-.017-3.386-.575-3.907a6.575,6.575,0,0,1-1.721-3.059,5.84,5.84,0,0,1,.929-3.551A4.806,4.806,0,0,1,58.726,38.476ZM9.98,78.585c-.8.294-1.048,1.16-1.048,3.693a11.383,11.383,0,0,1-.1,2.138c-.056,0-.932-.49-1.946-1.089a13.4,13.4,0,0,0-2.457-1.212A1.518,1.518,0,0,0,2.742,83.34c-.194.824.465,1.5,2.729,2.808l1.986,1.146L5.267,88.579c-2.285,1.339-2.752,1.833-2.539,2.681.389,1.55,1.527,1.554,4.156.015l2-1.174.076,2.562c.087,2.917.344,3.476,1.6,3.476s1.5-.561,1.628-3.474L12.3,90.1l1.954,1.165c2.155,1.285,3.078,1.466,3.8.745a1.4,1.4,0,0,0,.21-1.75,11.3,11.3,0,0,0-2.405-1.7l-2.181-1.277,2.01-1.15A19.493,19.493,0,0,0,18.088,84.6a1.405,1.405,0,0,0-.161-2.058c-.732-.732-1.267-.617-3.638.784a22.432,22.432,0,0,1-1.978,1.1,10.634,10.634,0,0,1-.123-2.269c0-2.477-.2-3.2-1.011-3.568a3.132,3.132,0,0,0-.573-.224Zm29.714.191c-.58.456-.588.5-.588,3.052a13.056,13.056,0,0,1-.13,2.589c-.072,0-1.079-.537-2.239-1.194a11.35,11.35,0,0,0-2.583-1.194,1.644,1.644,0,0,0-.963,2.657,25.991,25.991,0,0,0,2.279,1.453,19.633,19.633,0,0,1,1.9,1.194,24.178,24.178,0,0,1-2.147,1.293,9.946,9.946,0,0,0-2.279,1.56,1.92,1.92,0,0,0,.265,1.9c.681.616,1.558.418,3.7-.837,1.118-.655,2.07-1.192,2.117-1.192a20.378,20.378,0,0,1,.084,2.605c0,2.316.048,2.653.434,3.039a1.483,1.483,0,0,0,2.126-.061c.411-.438.472-.786.526-3.036l.062-2.542,2.062,1.19a9.952,9.952,0,0,0,2.659,1.191,1.468,1.468,0,0,0,.977-2.54,19.659,19.659,0,0,0-2.279-1.478,10.3,10.3,0,0,1-1.786-1.165,13.93,13.93,0,0,1,2.068-1.3,10.275,10.275,0,0,0,2.275-1.56,1.619,1.619,0,0,0-1.156-2.377,11.392,11.392,0,0,0-2.6,1.194c-1.166.657-2.166,1.194-2.224,1.194a14.843,14.843,0,0,1-.1-2.472c0-2.039-.067-2.551-.38-2.922A1.405,1.405,0,0,0,39.695,78.776ZM70,78.557c-.771.311-.937.923-.937,3.457a14.017,14.017,0,0,1-.1,2.4c-.058,0-1.058-.537-2.224-1.194a11.392,11.392,0,0,0-2.6-1.194,1.619,1.619,0,0,0-1.156,2.377,10.275,10.275,0,0,0,2.275,1.56,13.932,13.932,0,0,1,2.068,1.3,10.287,10.287,0,0,1-1.786,1.165,19.64,19.64,0,0,0-2.279,1.478,1.468,1.468,0,0,0,.977,2.54,9.953,9.953,0,0,0,2.659-1.191l2.062-1.19.062,2.542c.054,2.25.115,2.6.526,3.036a1.483,1.483,0,0,0,2.126.061c.386-.386.434-.724.434-3.039a20.382,20.382,0,0,1,.084-2.605c.046,0,1,.536,2.117,1.192,2.179,1.278,3.12,1.479,3.736.8a1.99,1.99,0,0,0,.229-1.86A10.233,10.233,0,0,0,76,88.613a8.4,8.4,0,0,1-2.039-1.4,16.123,16.123,0,0,1,1.886-1.18C78.181,84.7,78.4,84.5,78.4,83.623a1.536,1.536,0,0,0-1.343-1.594,11.35,11.35,0,0,0-2.583,1.194c-1.16.657-2.167,1.194-2.239,1.194a13.055,13.055,0,0,1-.13-2.589c0-2.539-.011-2.6-.572-3.039A1.166,1.166,0,0,0,70,78.557Zm30.049-.068c-.739.193-1.028,1.215-1.028,3.638a13.042,13.042,0,0,1-.1,2.29c-.056,0-.932-.49-1.946-1.089-2.369-1.4-2.955-1.525-3.69-.79a1.354,1.354,0,0,0-.085,2.085A18.8,18.8,0,0,0,95.477,86.1a9.848,9.848,0,0,1,1.808,1.182,11.486,11.486,0,0,1-1.964,1.282,11.535,11.535,0,0,0-2.279,1.583,1.439,1.439,0,0,0,1.2,2.306A8.394,8.394,0,0,0,96.9,91.262l2.018-1.187.109,2.575c.09,2.129.18,2.654.522,3.032a1.539,1.539,0,0,0,2.108.046c.466-.378.516-.618.621-3.017l.114-2.607,1.954,1.17c2.276,1.364,3.131,1.467,3.874.468.763-1.027.364-1.593-2.209-3.126l-2.239-1.335,2.066-1.216c2.811-1.655,3.294-2.421,2.209-3.505a1.8,1.8,0,0,0-1.031-.531,10.449,10.449,0,0,0-2.531,1.194c-1.118.655-2.07,1.192-2.117,1.192a13.758,13.758,0,0,1-.084-2.138c0-2.467-.237-3.346-1-3.693A1.276,1.276,0,0,0,100.05,78.488ZM.373,102.993c-.527.527-.484,3.8.056,4.293.357.323,1.382.359,10.187.359,8.611,0,9.831-.041,10.132-.341.253-.253.341-.788.341-2.077,0-2.851,1.116-2.575-10.412-2.575C1.909,102.651.673,102.692.373,102.993Zm30.023.018a7.818,7.818,0,0,0,0,4.275c.269.324,1.255.359,10.214.359,7.423,0,9.981-.066,10.176-.261.353-.353.353-4.119,0-4.472-.195-.195-2.753-.26-10.176-.26C31.651,102.651,30.665,102.686,30.4,103.011Zm30.029-.1c-.353.353-.353,4.119,0,4.472.195.195,2.757.261,10.191.261h9.93l.338-.483a6.168,6.168,0,0,0,0-4.028l-.338-.483h-9.93C63.181,102.651,60.619,102.717,60.424,102.912Zm29.922.159c-.371.694-.285,3.831.116,4.232.3.3,1.524.341,10.169.341,11.52,0,10.547.236,10.547-2.552,0-1.309-.087-1.846-.341-2.1-.3-.3-1.536-.341-10.3-.341C90.906,102.651,90.563,102.666,90.346,103.071Z" fill-rule="evenodd" fill="url(#linear-gradient)"/>
</svg>
