<svg xmlns="http://www.w3.org/2000/svg" xmlns:xlink="http://www.w3.org/1999/xlink" width="144" height="87" viewBox="0 0 144 87">
  <defs>
    <clipPath id="clip-path">
      <rect id="Rectangle_1287" data-name="Rectangle 1287" width="144" height="87" transform="translate(626 728)" fill="#fff" stroke="#707070" stroke-width="1"/>
    </clipPath>
  </defs>
  <g id="Mask_Group_25" data-name="Mask Group 25" transform="translate(-626 -728)" clip-path="url(#clip-path)">
    <g id="undraw_Post_re_mtr4" transform="translate(640.957 728)">
      <path id="Path_4053" data-name="Path 4053" d="M78.827,15.6H27.932a6.516,6.516,0,0,0-6.509,6.509v59.76a6.516,6.516,0,0,0,6.509,6.509H78.827a6.516,6.516,0,0,0,6.509-6.509V22.106A6.516,6.516,0,0,0,78.827,15.6Z" transform="translate(-21.424 -15.597)" fill="#f2f2f2"/>
      <path id="Path_4054" data-name="Path 4054" d="M78.618,17.263H27.724A4.64,4.64,0,0,0,23.089,21.9v59.76a4.64,4.64,0,0,0,4.635,4.635H78.618a4.64,4.64,0,0,0,4.635-4.635V21.9A4.64,4.64,0,0,0,78.618,17.263Z" transform="translate(-21.215 -15.389)" fill="#fff"/>
      <path id="Path_4055" data-name="Path 4055" d="M68.62,32.949H42.883a1.084,1.084,0,1,1,0-2.168H68.62a1.084,1.084,0,1,1,0,2.168Z" transform="translate(-18.877 -13.699)" fill="#f2f2f2"/>
      <path id="Path_4056" data-name="Path 4056" d="M73.091,36.2H42.883a1.084,1.084,0,1,1,0-2.168H73.091a1.084,1.084,0,0,1,0,2.168Z" transform="translate(-18.877 -13.293)" fill="#f2f2f2"/>
      <path id="Path_4057" data-name="Path 4057" d="M68.62,47.521H42.883a1.084,1.084,0,1,1,0-2.168H68.62a1.084,1.084,0,0,1,0,2.168Z" transform="translate(-18.877 -11.877)" fill="#f2f2f2"/>
      <path id="Path_4058" data-name="Path 4058" d="M73.091,50.773H42.883a1.084,1.084,0,1,1,0-2.168H73.091a1.084,1.084,0,0,1,0,2.168Z" transform="translate(-18.877 -11.471)" fill="#f2f2f2"/>
      <path id="Path_4059" data-name="Path 4059" d="M68.62,62.093H42.883a1.084,1.084,0,1,1,0-2.168H68.62a1.084,1.084,0,0,1,0,2.168Z" transform="translate(-18.877 -10.056)" fill="#f2f2f2"/>
      <path id="Path_4060" data-name="Path 4060" d="M73.091,65.344H42.883a1.084,1.084,0,1,1,0-2.168H73.091a1.084,1.084,0,0,1,0,2.168Z" transform="translate(-18.877 -9.65)" fill="#f2f2f2"/>
      <path id="Path_4061" data-name="Path 4061" d="M38.708,38.453H29.6a.52.52,0,0,1-.52-.52V29.825a.52.52,0,0,1,.52-.52h9.108a.52.52,0,0,1,.52.52v8.107A.52.52,0,0,1,38.708,38.453Z" transform="translate(-20.467 -13.883)" fill="#e6e6e6"/>
      <path id="Path_4062" data-name="Path 4062" d="M38.708,53.024H29.6a.52.52,0,0,1-.52-.52V44.4a.52.52,0,0,1,.52-.52h9.108a.52.52,0,0,1,.52.52V52.5A.52.52,0,0,1,38.708,53.024Z" transform="translate(-20.467 -12.062)" fill="#e6e6e6"/>
      <path id="Path_4063" data-name="Path 4063" d="M38.708,67.6H29.6a.52.52,0,0,1-.52-.52V58.969a.52.52,0,0,1,.52-.52h9.108a.52.52,0,0,1,.52.52v8.108A.52.52,0,0,1,38.708,67.6Z" transform="translate(-20.467 -10.241)" fill="#e6e6e6"/>
      <path id="Path_4064" data-name="Path 4064" d="M118.847,69.977l.4-3.531,2.024-17.7.4-3.531A6.516,6.516,0,0,0,115.952,38L70.015,32.752a6.516,6.516,0,0,0-7.206,5.727v.009l-2.83,24.748v.009A6.516,6.516,0,0,0,65.7,70.451L111.641,75.7a6.516,6.516,0,0,0,7.206-5.727Z" transform="translate(-16.61 -13.458)" fill="#e6e6e6"/>
      <path id="Path_4065" data-name="Path 4065" d="M116.778,69.556l.478-4.182,1.876-16.4.478-4.182a4.64,4.64,0,0,0-4.078-5.131L69.594,34.406a4.64,4.64,0,0,0-5.131,4.078v.009l-2.83,24.748v.009a4.64,4.64,0,0,0,4.078,5.131l45.937,5.253a4.64,4.64,0,0,0,5.132-4.078Z" transform="translate(-16.402 -13.25)" fill="#fff"/>
      <path id="Path_4066" data-name="Path 4066" d="M106.911,46.266l-25.57-2.924a1.084,1.084,0,0,1,.246-2.154l25.57,2.924a1.084,1.084,0,1,1-.246,2.154Z" transform="translate(-14.054 -12.399)" fill="#e6e6e6"/>
      <path id="Path_4067" data-name="Path 4067" d="M110.984,50,80.971,46.573a1.084,1.084,0,1,1,.246-2.154l30.012,3.432A1.084,1.084,0,1,1,110.984,50Z" transform="translate(-14.1 -11.995)" fill="#e6e6e6"/>
      <path id="Path_4068" data-name="Path 4068" d="M111.821,56.628l-44.247-5.06a1.084,1.084,0,1,1,.246-2.154l44.247,5.06a1.084,1.084,0,1,1-.246,2.154Z" transform="translate(-15.775 -11.371)" fill="#e6e6e6"/>
      <path id="Path_4069" data-name="Path 4069" d="M111.594,59.875,67.2,54.8a1.084,1.084,0,0,1,.246-2.154l44.39,5.076a1.084,1.084,0,0,1-.246,2.154Z" transform="translate(-15.821 -10.967)" fill="#e6e6e6"/>
      <path id="Path_4070" data-name="Path 4070" d="M111.1,62.959,66.85,57.9a1.084,1.084,0,1,1,.246-2.154l44.247,5.06a1.084,1.084,0,1,1-.246,2.154Z" transform="translate(-15.865 -10.579)" fill="#e6e6e6"/>
      <path id="Path_4071" data-name="Path 4071" d="M110.87,66.205l-44.39-5.076a1.084,1.084,0,0,1,.246-2.154l44.39,5.076a1.084,1.084,0,0,1-.246,2.154Z" transform="translate(-15.912 -10.176)" fill="#e6e6e6"/>
      <path id="Path_4072" data-name="Path 4072" d="M76.662,48.342l-9.049-1.035a.52.52,0,0,1-.457-.575l.921-8.055a.52.52,0,0,1,.575-.457L77.7,39.254a.52.52,0,0,1,.457.575l-.921,8.055A.52.52,0,0,1,76.662,48.342Z" transform="translate(-15.708 -12.77)" fill="#6c63ff"/>
      <path id="Path_4073" data-name="Path 4073" d="M126.021,92.608H96.4a.135.135,0,1,1,0-.27h29.618a.135.135,0,0,1,0,.27Z" transform="translate(-12.068 -6.004)" fill="#3f3d56"/>
      <path id="Path_4074" data-name="Path 4074" d="M112.834,46.759a1.268,1.268,0,0,0,1.139,1.576l.916,2.749,1.807-.149-1.348-3.864a1.275,1.275,0,0,0-2.513-.312Z" transform="translate(-10.002 -11.823)" fill="#ffb8b8"/>
      <path id="Path_4075" data-name="Path 4075" d="M114.118,64.469h0a1.634,1.634,0,0,0,2.7-.855l1.431-6.556a6.475,6.475,0,0,0-.167-3.378l-1.675-5.163a.541.541,0,0,0-.757-.317l-1.093.547a.541.541,0,0,0-.277.635l.11.379a18.218,18.218,0,0,1,.139,9.668l-.89,3.426a1.634,1.634,0,0,0,.476,1.615Z" transform="translate(-9.903 -11.529)" fill="#6c63ff"/>
      <path id="Path_4076" data-name="Path 4076" d="M87.8,76.387H86.254l-.735-5.964H87.8Z" transform="translate(10.69 8.803)" fill="#ffb8b8"/>
      <path id="Path_4077" data-name="Path 4077" d="M85.4,75.331h2.982v1.877H83.521A1.877,1.877,0,0,1,85.4,75.331Z" transform="translate(10.44 9.416)" fill="#2f2e41"/>
      <path id="Path_4078" data-name="Path 4078" d="M95.208,76.387H93.662l-.735-5.964h2.282Z" transform="translate(11.616 8.803)" fill="#ffb8b8"/>
      <path id="Path_4079" data-name="Path 4079" d="M92.807,75.331h2.982v1.877H90.929a1.877,1.877,0,0,1,1.877-1.877Z" transform="translate(11.366 9.416)" fill="#2f2e41"/>
      <circle id="Ellipse_293" data-name="Ellipse 293" cx="3.322" cy="3.322" r="3.322" transform="translate(98.974 36.151)" fill="#ffb8b8"/>
      <path id="Path_4080" data-name="Path 4080" d="M102.258,70.3a1.268,1.268,0,0,1,1.635-1.052l1.856-2.225,1.627.8-2.666,3.106a1.275,1.275,0,0,1-2.454-.627Z" transform="translate(-11.321 -9.168)" fill="#ffb8b8"/>
      <path id="Path_4081" data-name="Path 4081" d="M113.652,54.49a3.544,3.544,0,1,0-.664-7.009,4.074,4.074,0,0,0-2.431-.666,2.383,2.383,0,0,0-2.011,1.374,1.7,1.7,0,0,0,.815,2.161,3.074,3.074,0,0,0,1.622.023,2.419,2.419,0,0,1,1.6.142c.471.279.683,1.029.261,1.378a1.452,1.452,0,0,0-.417,1.6A1.588,1.588,0,0,0,113.652,54.49Z" transform="translate(-10.548 -11.696)" fill="#2f2e41"/>
      <path id="Path_4082" data-name="Path 4082" d="M118,69.846l.589,22.361a.541.541,0,0,1-.568.555l-1.941-.1a.541.541,0,0,1-.507-.455l-2.309-14.524a.27.27,0,0,0-.531-.017l-3.125,13.984a.541.541,0,0,1-.709.392l-1.926-.118a.541.541,0,0,1-.358-.548L108.3,69.635Z" transform="translate(-10.775 -8.842)" fill="#2f2e41"/>
      <path id="Path_4083" data-name="Path 4083" d="M118.839,61.131a6.1,6.1,0,0,0-5.562-6.695c-1.463-.1-3.734-.141-4.483,1.777-2.256,5.777,1.693,5.636.333,10.641s-2.562,5.292-.7,5.653,10.26,2.495,9.916-1.028A74.388,74.388,0,0,1,118.839,61.131Z" transform="translate(-10.668 -10.747)" fill="#6c63ff"/>
      <path id="Path_4084" data-name="Path 4084" d="M109.849,55.5h0a1.634,1.634,0,0,1,2.2,1.782l-1.06,6.626a6.475,6.475,0,0,1-1.388,3.084l-3.443,4.2a.541.541,0,0,1-.82.019l-.818-.908a.541.541,0,0,1-.026-.692l.241-.313a18.218,18.218,0,0,0,3.658-8.95l.421-3.514A1.634,1.634,0,0,1,109.849,55.5Z" transform="translate(-11.054 -10.623)" fill="#6c63ff"/>
    </g>
  </g>
</svg>
