<svg xmlns="http://www.w3.org/2000/svg" width="34.42" height="32.494" viewBox="0 0 34.42 32.494">
  <g id="Group_1135" data-name="Group 1135" transform="translate(0 0)">
    <path id="Path_4784" data-name="Path 4784" d="M261.221,167.121l-.195-10.63a6.223,6.223,0,0,0-6.223-6.223h-2.279l-1.727-2.59a4.665,4.665,0,0,0-3.889-2.076h-6a4.666,4.666,0,0,0-3.889,2.076l-1.719,2.59h-2.279a6.222,6.222,0,0,0-6.223,6.223l.195,10.63a6.223,6.223,0,0,0,6.223,6.223h4.022l-2.007,2.015a1.556,1.556,0,1,0,2.193,2.194l4.667-4.667a1.556,1.556,0,0,0,0-2.194l-4.667-4.667h0a1.555,1.555,0,0,0-2.193,2.193l2.006,2.015h-4.021a3.111,3.111,0,0,1-3.112-3.111l-.195-10.63a3.111,3.111,0,0,1,3.112-3.111h3.111a1.557,1.557,0,0,0,1.291-.692l2.194-3.283a1.554,1.554,0,0,1,1.291-.692h6.005a1.555,1.555,0,0,1,1.291.692l2.194,3.283a1.557,1.557,0,0,0,1.291.692H254.8a3.111,3.111,0,0,1,3.112,3.111l.195,10.63A3.111,3.111,0,0,1,255,170.232h-7.732a1.556,1.556,0,0,0,0,3.112H255a6.222,6.222,0,0,0,6.223-6.223Z" transform="translate(-226.801 -145.601)" fill="#f33"/>
    <path id="Path_4778" data-name="Path 4778" d="M123.162,115.365a6.647,6.647,0,0,0-5.443,3.527,6.265,6.265,0,0,0,4.3,8.91,8.078,8.078,0,0,0,3.219,0,6.2,6.2,0,0,0,3.049-10.591A6.827,6.827,0,0,0,123.162,115.365Zm1.371,2.658a4.177,4.177,0,0,1,2.429,1.678,3.393,3.393,0,0,1,.563,1.966,3.179,3.179,0,0,1-.519,1.891,4.006,4.006,0,0,1-5.359,1.339,4.067,4.067,0,0,1-1.772-2.14,4.141,4.141,0,0,1,0-2.179,3.975,3.975,0,0,1,4.658-2.554Z" transform="translate(-106.416 -106.549)" fill="#f33" fill-rule="evenodd"/>
  </g>
</svg>
