<svg xmlns="http://www.w3.org/2000/svg" width="246.885" height="246.884" viewBox="0 0 246.885 246.884">
  <g id="Group_1000004573" data-name="Group 1000004573" transform="translate(1.5 1.5)">
    <circle id="Ellipse_49" data-name="Ellipse 49" cx="9.085" cy="9.085" r="9.085" transform="translate(174.695 11.513) rotate(30)" fill="#fff" stroke="#023362" stroke-width="3"/>
    <circle id="Ellipse_50" data-name="Ellipse 50" cx="7.355" cy="7.355" r="7.355" transform="translate(161.101 38.52) rotate(30)" fill="#fff" stroke="#023362" stroke-width="3"/>
    <circle id="Ellipse_51" data-name="Ellipse 51" cx="5.624" cy="5.624" r="5.624" transform="translate(149.52 62.041) rotate(30)" fill="#fff" stroke="#023362" stroke-width="3"/>
    <circle id="Ellipse_52" data-name="Ellipse 52" cx="3.894" cy="3.894" r="3.894" transform="translate(139.447 82.948) rotate(30)" fill="#fff" stroke="#023362" stroke-width="3"/>
    <circle id="Ellipse_53" data-name="Ellipse 53" cx="9.085" cy="9.085" r="9.085" transform="translate(232.064 174.952) rotate(120)" fill="#fff" stroke="#023362" stroke-width="3"/>
    <circle id="Ellipse_54" data-name="Ellipse 54" cx="7.355" cy="7.355" r="7.355" transform="translate(205.057 161.358) rotate(120)" fill="#fff" stroke="#023362" stroke-width="3"/>
    <circle id="Ellipse_55" data-name="Ellipse 55" cx="5.624" cy="5.624" r="5.624" transform="translate(181.536 149.777) rotate(120)" fill="#fff" stroke="#023362" stroke-width="3"/>
    <circle id="Ellipse_56" data-name="Ellipse 56" cx="3.894" cy="3.894" r="3.894" transform="translate(160.629 139.704) rotate(120)" fill="#fff" stroke="#023362" stroke-width="3"/>
    <circle id="Ellipse_57" data-name="Ellipse 57" cx="9.085" cy="9.085" r="9.085" transform="translate(68.488 231.807) rotate(-150)" fill="#fff" stroke="#023362" stroke-width="3"/>
    <circle id="Ellipse_58" data-name="Ellipse 58" cx="7.355" cy="7.355" r="7.355" transform="translate(82.082 204.8) rotate(-150)" fill="#fff" stroke="#023362" stroke-width="3"/>
    <circle id="Ellipse_59" data-name="Ellipse 59" cx="5.624" cy="5.624" r="5.624" transform="translate(93.664 181.28) rotate(-150)" fill="#fff" stroke="#023362" stroke-width="3"/>
    <circle id="Ellipse_60" data-name="Ellipse 60" cx="3.894" cy="3.894" r="3.894" transform="translate(103.736 160.372) rotate(-150)" fill="#fff" stroke="#023362" stroke-width="3"/>
    <circle id="Ellipse_61" data-name="Ellipse 61" cx="9.085" cy="9.085" r="9.085" transform="translate(11.77 68.745) rotate(-60)" fill="#fff" stroke="#023362" stroke-width="3"/>
    <circle id="Ellipse_62" data-name="Ellipse 62" cx="7.355" cy="7.355" r="7.355" transform="translate(38.776 82.339) rotate(-60)" fill="#fff" stroke="#023362" stroke-width="3"/>
    <circle id="Ellipse_63" data-name="Ellipse 63" cx="5.624" cy="5.624" r="5.624" transform="translate(62.298 93.921) rotate(-60)" fill="#fff" stroke="#023362" stroke-width="3"/>
    <circle id="Ellipse_64" data-name="Ellipse 64" cx="3.894" cy="3.894" r="3.894" transform="translate(83.205 103.993) rotate(-60)" fill="#fff" stroke="#023362" stroke-width="3"/>
    <circle id="Ellipse_65" data-name="Ellipse 65" cx="9.085" cy="9.085" r="9.085" transform="translate(222.816 52.779) rotate(60)" fill="#fff" stroke="#023362" stroke-width="3"/>
    <circle id="Ellipse_66" data-name="Ellipse 66" cx="7.355" cy="7.355" r="7.355" transform="translate(197.54 69.37) rotate(60)" fill="#fff" stroke="#023362" stroke-width="3"/>
    <circle id="Ellipse_67" data-name="Ellipse 67" cx="5.624" cy="5.624" r="5.624" transform="translate(175.749 83.949) rotate(60)" fill="#fff" stroke="#023362" stroke-width="3"/>
    <circle id="Ellipse_68" data-name="Ellipse 68" cx="3.894" cy="3.894" r="3.894" transform="translate(156.573 97.018) rotate(60)" fill="#fff" stroke="#023362" stroke-width="3"/>
    <circle id="Ellipse_69" data-name="Ellipse 69" cx="9.085" cy="9.085" r="9.085" transform="translate(190.781 223.004) rotate(150)" fill="#fff" stroke="#023362" stroke-width="3"/>
    <circle id="Ellipse_70" data-name="Ellipse 70" cx="7.355" cy="7.355" r="7.355" transform="translate(174.189 197.728) rotate(150)" fill="#fff" stroke="#023362" stroke-width="3"/>
    <circle id="Ellipse_71" data-name="Ellipse 71" cx="5.624" cy="5.624" r="5.624" transform="translate(159.61 175.937) rotate(150)" fill="#fff" stroke="#023362" stroke-width="3"/>
    <circle id="Ellipse_72" data-name="Ellipse 72" cx="3.894" cy="3.894" r="3.894" transform="translate(146.541 156.761) rotate(150)" fill="#fff" stroke="#023362" stroke-width="3"/>
    <circle id="Ellipse_73" data-name="Ellipse 73" cx="9.085" cy="9.085" r="9.085" transform="translate(20.693 190.456) rotate(-120)" fill="#fff" stroke="#023362" stroke-width="3"/>
    <circle id="Ellipse_74" data-name="Ellipse 74" cx="7.355" cy="7.355" r="7.355" transform="translate(45.969 173.864) rotate(-120)" fill="#fff" stroke="#023362" stroke-width="3"/>
    <circle id="Ellipse_75" data-name="Ellipse 75" cx="5.624" cy="5.624" r="5.624" transform="translate(67.759 159.285) rotate(-120)" fill="#fff" stroke="#023362" stroke-width="3"/>
    <circle id="Ellipse_76" data-name="Ellipse 76" cx="3.894" cy="3.894" r="3.894" transform="translate(86.936 146.215) rotate(-120)" fill="#fff" stroke="#023362" stroke-width="3"/>
    <circle id="Ellipse_77" data-name="Ellipse 77" cx="9.085" cy="9.085" r="9.085" transform="translate(53.103 20.88) rotate(-30)" fill="#fff" stroke="#023362" stroke-width="3"/>
    <circle id="Ellipse_78" data-name="Ellipse 78" cx="7.355" cy="7.355" r="7.355" transform="translate(69.695 46.156) rotate(-30)" fill="#fff" stroke="#023362" stroke-width="3"/>
    <circle id="Ellipse_79" data-name="Ellipse 79" cx="5.624" cy="5.624" r="5.624" transform="translate(84.274 67.947) rotate(-30)" fill="#fff" stroke="#023362" stroke-width="3"/>
    <circle id="Ellipse_80" data-name="Ellipse 80" cx="3.894" cy="3.894" r="3.894" transform="translate(97.344 87.123) rotate(-30)" fill="#fff" stroke="#023362" stroke-width="3"/>
    <circle id="Ellipse_81" data-name="Ellipse 81" cx="9.085" cy="9.085" r="9.085" transform="translate(112.482 0)" fill="#fff" stroke="#023362" stroke-width="3"/>
    <circle id="Ellipse_82" data-name="Ellipse 82" cx="7.355" cy="7.355" r="7.355" transform="translate(114.212 30.186)" fill="#fff" stroke="#023362" stroke-width="3"/>
    <circle id="Ellipse_83" data-name="Ellipse 83" cx="5.624" cy="5.624" r="5.624" transform="translate(115.943 56.346)" fill="#fff" stroke="#023362" stroke-width="3"/>
    <circle id="Ellipse_84" data-name="Ellipse 84" cx="3.894" cy="3.894" r="3.894" transform="translate(117.673 79.489)" fill="#fff" stroke="#023362" stroke-width="3"/>
    <circle id="Ellipse_85" data-name="Ellipse 85" cx="9.085" cy="9.085" r="9.085" transform="translate(243.885 112.858) rotate(90)" fill="#fff" stroke="#023362" stroke-width="3"/>
    <circle id="Ellipse_86" data-name="Ellipse 86" cx="7.355" cy="7.355" r="7.355" transform="translate(213.699 114.588) rotate(90)" fill="#fff" stroke="#023362" stroke-width="3"/>
    <circle id="Ellipse_87" data-name="Ellipse 87" cx="5.624" cy="5.624" r="5.624" transform="translate(187.538 116.318) rotate(90)" fill="#fff" stroke="#023362" stroke-width="3"/>
    <circle id="Ellipse_88" data-name="Ellipse 88" cx="3.894" cy="3.894" r="3.894" transform="translate(164.396 118.049) rotate(90)" fill="#fff" stroke="#023362" stroke-width="3"/>
    <circle id="Ellipse_89" data-name="Ellipse 89" cx="9.085" cy="9.085" r="9.085" transform="translate(130.652 243.884) rotate(180)" fill="#fff" stroke="#023362" stroke-width="3"/>
    <circle id="Ellipse_90" data-name="Ellipse 90" cx="7.355" cy="7.355" r="7.355" transform="translate(128.921 213.699) rotate(180)" fill="#fff" stroke="#023362" stroke-width="3"/>
    <circle id="Ellipse_91" data-name="Ellipse 91" cx="5.624" cy="5.624" r="5.624" transform="translate(127.191 187.538) rotate(180)" fill="#fff" stroke="#023362" stroke-width="3"/>
    <circle id="Ellipse_92" data-name="Ellipse 92" cx="3.894" cy="3.894" r="3.894" transform="translate(125.46 164.396) rotate(180)" fill="#fff" stroke="#023362" stroke-width="3"/>
    <circle id="Ellipse_93" data-name="Ellipse 93" cx="9.085" cy="9.085" r="9.085" transform="translate(0 131.028) rotate(-90)" fill="#fff" stroke="#023362" stroke-width="3"/>
    <circle id="Ellipse_94" data-name="Ellipse 94" cx="7.355" cy="7.355" r="7.355" transform="translate(30.186 129.297) rotate(-90)" fill="#fff" stroke="#023362" stroke-width="3"/>
    <circle id="Ellipse_95" data-name="Ellipse 95" cx="5.624" cy="5.624" r="5.624" transform="translate(56.346 127.567) rotate(-90)" fill="#fff" stroke="#023362" stroke-width="3"/>
    <circle id="Ellipse_96" data-name="Ellipse 96" cx="3.894" cy="3.894" r="3.894" transform="translate(79.489 125.836) rotate(-90)" fill="#fff" stroke="#023362" stroke-width="3"/>
    <path id="Path_4778" data-name="Path 4778" d="M123.288,106.406a6.89,6.89,0,0,0-4.642,2.881c-.176.265-.659,1.137-1.073,1.939l-.752,1.458-2.571.03c-2.407.029-2.609.043-3.16.216a6.694,6.694,0,0,0-4.123,3.354c-.717,1.412-.663.615-.7,10.32-.022,6.318,0,8.789.069,9.231a6.3,6.3,0,0,0,2,3.645,6.725,6.725,0,0,0,3.634,1.752c.756.117,30.874.118,31.636,0a6.8,6.8,0,0,0,3.8-1.909,6.218,6.218,0,0,0,1.837-3.489c.072-.443.09-2.914.069-9.231-.027-8.032-.04-8.66-.181-9.111a6.828,6.828,0,0,0-4.638-4.563c-.551-.173-.753-.188-3.159-.216l-2.57-.03-.826-1.586a8.955,8.955,0,0,0-2.1-3.056,6.554,6.554,0,0,0-3.374-1.592,36.075,36.075,0,0,0-4.747-.113C125.514,106.343,123.52,106.374,123.288,106.406Zm8.84,3.271a4.205,4.205,0,0,1,.87.332c.753.423,1.046.825,2.21,3.047a24.608,24.608,0,0,0,1.323,2.328c.483.5.441.492,3.839.537l3.114.041.478.214a3.758,3.758,0,0,1,1.492,1.265c.533.8.518.5.493,9.776l-.023,8.416-.269.544A3.39,3.39,0,0,1,143.291,138c-.321.066-4.682.09-15.527.09-16.275,0-15.516.019-16.394-.409a3.633,3.633,0,0,1-1.442-1.505l-.269-.544-.023-8.416c-.026-9.287-.041-8.979.5-9.784a3.84,3.84,0,0,1,1.5-1.262l.463-.21,3.114-.041c3.4-.045,3.357-.038,3.839-.537a24.471,24.471,0,0,0,1.324-2.331c1.165-2.222,1.458-2.622,2.234-3.058.734-.412.973-.432,5.144-.438A26.263,26.263,0,0,1,132.128,109.677Zm-4.926,7.749a8.363,8.363,0,0,0-6.848,4.437,7.882,7.882,0,0,0,5.407,11.209,10.162,10.162,0,0,0,4.05,0,7.8,7.8,0,0,0,3.835-13.325A8.588,8.588,0,0,0,127.2,117.426Zm1.725,3.344a5.255,5.255,0,0,1,3.056,2.111,4.269,4.269,0,0,1,.708,2.474,4,4,0,0,1-.653,2.379,5.04,5.04,0,0,1-6.742,1.684,5.117,5.117,0,0,1-2.229-2.693,5.21,5.21,0,0,1,0-2.741,5,5,0,0,1,5.861-3.214Z" transform="translate(-5.908 -5.084)" fill="#fff" fill-rule="evenodd"/>
  </g>
</svg>
