<svg xmlns="http://www.w3.org/2000/svg" width="101.412" height="77" viewBox="0 0 101.412 77"><defs><style>.a{opacity:0.53;}.b{fill:#f2f2f2;}.c{fill:#fff;}.d{fill:#e6e6e6;}.e{fill:#6c63ff;}.f{fill:#3f3d56;}.g{fill:#ffb8b8;}.h{fill:#2f2e41;}</style></defs><g class="a" transform="translate(0 0)"><path class="b" d="M72.449,15.6H27.209a5.792,5.792,0,0,0-5.785,5.785V74.5a5.792,5.792,0,0,0,5.785,5.785h45.24A5.792,5.792,0,0,0,78.234,74.5V21.382A5.792,5.792,0,0,0,72.449,15.6Z" transform="translate(-21.424 -15.597)"/><path class="c" d="M72.449,17.263H27.209a4.125,4.125,0,0,0-4.12,4.12V74.5a4.125,4.125,0,0,0,4.12,4.12h45.24a4.125,4.125,0,0,0,4.12-4.12V21.382A4.125,4.125,0,0,0,72.449,17.263Z" transform="translate(-21.424 -15.597)"/><path class="b" d="M65.64,32.708H42.763a.963.963,0,0,1,0-1.927H65.64a.963.963,0,1,1,0,1.927Z" transform="translate(-21.424 -15.597)"/><path class="b" d="M69.614,35.96H42.763a.963.963,0,1,1,0-1.927H69.614a.963.963,0,0,1,0,1.927Z" transform="translate(-21.424 -15.597)"/><path class="b" d="M65.64,47.28H42.763a.963.963,0,0,1,0-1.927H65.64a.963.963,0,1,1,0,1.927Z" transform="translate(-21.424 -15.597)"/><path class="b" d="M69.614,50.532H42.763a.963.963,0,1,1,0-1.927H69.614a.963.963,0,0,1,0,1.927Z" transform="translate(-21.424 -15.597)"/><path class="b" d="M65.64,61.852H42.763a.963.963,0,0,1,0-1.927H65.64a.963.963,0,1,1,0,1.927Z" transform="translate(-21.424 -15.597)"/><path class="b" d="M69.614,65.1H42.763a.963.963,0,1,1,0-1.927H69.614a.963.963,0,0,1,0,1.927Z" transform="translate(-21.424 -15.597)"/><path class="d" d="M37.638,37.436h-8.1a.462.462,0,0,1-.462-.462V29.767a.462.462,0,0,1,.462-.462h8.1a.462.462,0,0,1,.462.462v7.207A.462.462,0,0,1,37.638,37.436Z" transform="translate(-21.424 -15.597)"/><path class="d" d="M37.638,52.008h-8.1a.462.462,0,0,1-.462-.462V44.339a.462.462,0,0,1,.462-.462h8.1a.462.462,0,0,1,.462.462v7.207A.462.462,0,0,1,37.638,52.008Z" transform="translate(-21.424 -15.597)"/><path class="d" d="M37.638,66.58h-8.1a.462.462,0,0,1-.462-.462V58.911a.462.462,0,0,1,.462-.462h8.1a.462.462,0,0,1,.462.462v7.207A.462.462,0,0,1,37.638,66.58Z" transform="translate(-21.424 -15.597)"/><path class="d" d="M112.3,65.836l.359-3.139,1.8-15.737.359-3.139a5.792,5.792,0,0,0-5.091-6.405L68.9,32.748a5.792,5.792,0,0,0-6.405,5.091v.008l-2.515,22v.008a5.792,5.792,0,0,0,5.091,6.405L105.9,70.927a5.792,5.792,0,0,0,6.405-5.091Z" transform="translate(-21.424 -15.597)"/><path class="c" d="M110.647,65.647l.425-3.718,1.667-14.58.425-3.717a4.125,4.125,0,0,0-3.625-4.561L68.706,34.4a4.125,4.125,0,0,0-4.561,3.625v.008l-2.515,22v.008A4.125,4.125,0,0,0,65.253,64.6l40.833,4.669a4.125,4.125,0,0,0,4.561-3.625Z" transform="translate(-21.424 -15.597)"/><path class="d" d="M103.963,45.7,81.234,43.1a.963.963,0,0,1,.219-1.914l22.729,2.6a.963.963,0,1,1-.219,1.914Z" transform="translate(-21.424 -15.597)"/><path class="d" d="M107.542,49.383l-26.678-3.05a.963.963,0,0,1,.219-1.914l26.678,3.051a.963.963,0,1,1-.219,1.914Z" transform="translate(-21.424 -15.597)"/><path class="d" d="M106.8,55.826l-39.331-4.5a.963.963,0,1,1,.219-1.914l39.331,4.5a.963.963,0,1,1-.219,1.914Z" transform="translate(-21.424 -15.597)"/><path class="d" d="M106.555,59.071,67.1,54.559a.963.963,0,0,1,.219-1.914l39.457,4.512a.963.963,0,0,1-.219,1.914Z" transform="translate(-21.424 -15.597)"/><path class="d" d="M106.074,62.156l-39.331-4.5a.963.963,0,1,1,.219-1.914l39.331,4.5a.963.963,0,1,1-.219,1.914Z" transform="translate(-21.424 -15.597)"/><path class="d" d="M105.831,65.4,66.374,60.889a.963.963,0,0,1,.219-1.914l39.457,4.512a.963.963,0,0,1-.219,1.914Z" transform="translate(-21.424 -15.597)"/><path class="e" d="M75.605,47.217l-8.044-.92a.462.462,0,0,1-.406-.511l.819-7.16a.462.462,0,0,1,.511-.406l8.044.92a.462.462,0,0,1,.407.511l-.819,7.16A.462.462,0,0,1,75.605,47.217Z" transform="translate(-21.424 -15.597)"/><path class="f" d="M122.715,92.578H96.388a.12.12,0,0,1,0-.24h26.327a.12.12,0,0,1,0,.24Z" transform="translate(-21.424 -15.597)"/><path class="g" d="M112.829,46.651a1.127,1.127,0,0,0,1.012,1.4l.814,2.444,1.606-.133-1.2-3.435a1.133,1.133,0,0,0-2.234-.277Z" transform="translate(-21.424 -15.597)"/><path class="e" d="M114.059,62.655h0a1.453,1.453,0,0,0,2.4-.76l1.272-5.827a5.755,5.755,0,0,0-.148-3L116.1,48.475a.481.481,0,0,0-.673-.282l-.971.486a.481.481,0,0,0-.246.564l.1.337a16.194,16.194,0,0,1,.124,8.594l-.791,3.045a1.453,1.453,0,0,0,.423,1.435Z" transform="translate(-21.424 -15.597)"/><path class="g" d="M87.546,75.724H86.172l-.654-5.3h2.028Z"/><path class="h" d="M85.19,75.331h2.651V77H83.521a1.669,1.669,0,0,1,1.669-1.669Z"/><path class="g" d="M94.954,75.724H93.58l-.654-5.3h2.028Z"/><path class="h" d="M92.6,75.331h2.65V77H90.929A1.669,1.669,0,0,1,92.6,75.331Z"/><circle class="g" cx="2.953" cy="2.953" r="2.953" transform="translate(87.977 32.134)"/><path class="g" d="M102.257,69.94A1.127,1.127,0,0,1,103.711,69l1.65-1.978,1.447.71-2.37,2.761a1.133,1.133,0,0,1-2.181-.557Z" transform="translate(-21.424 -15.597)"/><path class="h" d="M113.072,53.636a3.15,3.15,0,1,0-.59-6.23,3.621,3.621,0,0,0-2.161-.592,2.118,2.118,0,0,0-1.788,1.222,1.512,1.512,0,0,0,.725,1.921,2.732,2.732,0,0,0,1.442.021,2.15,2.15,0,0,1,1.425.126c.419.248.607.914.232,1.225a1.291,1.291,0,0,0-.371,1.421A1.412,1.412,0,0,0,113.072,53.636Z" transform="translate(-21.424 -15.597)"/><path class="h" d="M116.735,69.823l.524,19.876a.481.481,0,0,1-.505.493l-1.725-.088a.481.481,0,0,1-.45-.4l-2.052-12.91a.24.24,0,0,0-.472-.015L109.276,89.2a.481.481,0,0,1-.63.348l-1.712-.1a.481.481,0,0,1-.319-.487l1.495-19.326Z" transform="translate(-21.424 -15.597)"/><path class="e" d="M117.576,60.382a5.418,5.418,0,0,0-4.944-5.951c-1.3-.092-3.319-.125-3.985,1.579-2,5.135,1.5,5.01.3,9.459s-2.277,4.7-.618,5.025,9.12,2.218,8.814-.914A66.122,66.122,0,0,1,117.576,60.382Z" transform="translate(-21.424 -15.597)"/><path class="e" d="M109.242,55.489h0a1.453,1.453,0,0,1,1.959,1.584l-.942,5.889a5.755,5.755,0,0,1-1.234,2.742l-3.061,3.73a.481.481,0,0,1-.729.017l-.727-.807a.481.481,0,0,1-.024-.615l.214-.278a16.193,16.193,0,0,0,3.251-7.956l.375-3.124A1.453,1.453,0,0,1,109.242,55.489Z" transform="translate(-21.424 -15.597)"/></g></svg>