<svg xmlns="http://www.w3.org/2000/svg" width="56.171" height="55.427" viewBox="0 0 56.171 55.427">
  <g id="Group_1658" data-name="Group 1658" transform="translate(0.2 0.2)" opacity="0.204" style="mix-blend-mode: normal;isolation: isolate">
    <path id="Path_4785" data-name="Path 4785" d="M12.564,38.47a1.711,1.711,0,0,0,1.711-1.711V5.954l7.906,8.274a1.711,1.711,0,1,0,2.473-2.364L13.8.506a1.764,1.764,0,0,0-2.474,0L.474,11.864a1.711,1.711,0,1,0,2.474,2.364l7.906-8.274v30.8a1.711,1.711,0,0,0,1.711,1.711Z" transform="translate(15.32 16.558)" fill="#051a2d" stroke="#051a2d" stroke-width="0.4"/>
    <path id="Path_4786" data-name="Path 4786" d="M8.992,48.393q.441.406.9.795a1.711,1.711,0,1,0,2.212-2.61q-.4-.341-.791-.7a24.465,24.465,0,1,1,33.144,0A1.71,1.71,0,1,0,46.774,48.4a27.886,27.886,0,1,0-37.781,0Z" transform="translate(0 0)" fill="#051a2d" stroke="#051a2d" stroke-width="0.4"/>
  </g>
</svg>
