<svg xmlns="http://www.w3.org/2000/svg" width="67" height="67" viewBox="0 0 67 67">
  <g id="Group_1632" data-name="Group 1632" transform="translate(-21 -87)">
    <rect id="Rectangle_1779" data-name="Rectangle 1779" width="67" height="67" rx="12" transform="translate(21 87)" fill="#e9ecf5"/>
    <g id="Black" transform="translate(37 102)">
      <path id="Path_4865" data-name="Path 4865" d="M10.236.357A2.809,2.809,0,0,0,8.733,1.5c-.48.709-.465.537-.465,6.25v5.176H2.132l-.437.215A2.192,2.192,0,0,0,.65,14.21C.5,14.539.5,14.6.5,20.3c0,5.484.007,5.777.136,6.114a2.313,2.313,0,0,0,.966,1.1l.329.193,3.171.021,3.164.021v3.422c0,3.15.007,3.451.136,3.823a2.852,2.852,0,0,0,1.511,1.69l.394.186H33l.43-.2a3.185,3.185,0,0,0,1.274-1.16c.394-.73.365.107.394-12.815.014-8.319,0-12.034-.057-12.22s-1.1-1.332-4.854-5.226L25.406.293,17.968.279C12.148.271,10.458.286,10.236.357ZM23.745,6.414l.021,4.725.2.193.193.2,4.725.021,4.725.014L33.6,23.044,33.575,34.52l-.2.308a1.359,1.359,0,0,1-.573.48l-.372.172h-10.7c-7.624,0-10.789-.021-10.989-.079a1.708,1.708,0,0,1-.959-.959c-.05-.193-.079-1.367-.079-3.494v-3.2H22.192l.372-.172a2.205,2.205,0,0,0,1.1-1.167c.143-.387.143-.487.129-6.164l-.021-5.777-.165-.329a2.285,2.285,0,0,0-1.138-1.067c-.372-.136-.566-.143-6.572-.143H9.7V7.967c0-3.315.029-5.047.079-5.233a1.654,1.654,0,0,1,.888-.938,62.368,62.368,0,0,1,6.672-.107h6.393Zm5.011-.487c1.9,1.983,3.572,3.723,3.7,3.866l.236.272h-7.46V6.2c0-2.126.014-3.866.029-3.866S26.845,3.951,28.757,5.927Zm-6.951,8.5a.755.755,0,0,1,.394.272c.129.186.136.472.157,5.5.021,5.878.029,5.77-.415,5.985-.236.122-.852.129-9.794.129-10.431,0-9.908.021-10.1-.4-.057-.129-.079-1.7-.079-5.613V14.876l.179-.222a.806.806,0,0,1,.344-.243C2.848,14.339,21.555,14.36,21.805,14.432Z" transform="translate(-0.5 -0.277)" fill="#004c97"/>
      <path id="Path_4866" data-name="Path 4866" d="M192.588,238.588a3.3,3.3,0,0,0-1.145,5.792,3.9,3.9,0,0,0,4-.158l.394-.236.021-1.274.014-1.267h-2.72v1.074h1.439l-.021.372-.021.379-.422.208a1.659,1.659,0,0,1-2.477-.8,3.547,3.547,0,0,1-.043-1.933,1.6,1.6,0,0,1,2.513-.716.934.934,0,0,1,.294.387c.036.129.093.172.236.172a5.345,5.345,0,0,0,1.131-.236,2.694,2.694,0,0,0-.537-1.074A3.091,3.091,0,0,0,192.588,238.588Z" transform="translate(-176.58 -221.491)" fill="#004c97"/>
      <path id="Path_4867" data-name="Path 4867" d="M44.642,242.055c0,2.305-.043,2.706-.279,2.9a.855.855,0,0,1-.8.05,1.041,1.041,0,0,1-.344-.78c0-.179-.029-.215-.122-.186-.072.014-.344.057-.609.086l-.487.043v.265a2.061,2.061,0,0,0,.415,1.2,1.748,1.748,0,0,0,1.446.558,1.8,1.8,0,0,0,1.561-.573c.451-.508.458-.6.494-3.243L45.952,240h-1.3Z" transform="translate(-39.029 -222.838)" fill="#004c97"/>
      <path id="Path_4868" data-name="Path 4868" d="M114,242.85v3.05h1.289v-2.2l.916-.05a7.856,7.856,0,0,0,1.289-.15,1.959,1.959,0,0,0,.3-3.465c-.315-.172-.358-.179-2.055-.2L114,239.8Zm3-1.775a.766.766,0,0,1,.014,1.3,2.025,2.025,0,0,1-.952.15l-.773.029v-1.682l.752.043A2.438,2.438,0,0,1,117,241.074Z" transform="translate(-105.875 -222.653)" fill="#004c97"/>
    </g>
  </g>
</svg>
