<svg xmlns="http://www.w3.org/2000/svg" width="20.256" height="22.366" viewBox="0 0 20.256 22.366">
  <path id="Icon_ionic-md-share" data-name="Icon ionic-md-share" d="M21.37,18.941a3.075,3.075,0,0,0-2.2.843L11.1,15.12a3.779,3.779,0,0,0,.113-.787,3.777,3.777,0,0,0-.113-.787l7.956-4.608a3.376,3.376,0,1,0-1.072-2.473,3.756,3.756,0,0,0,.113.787L10.142,11.86a3.4,3.4,0,0,0-2.313-.9A3.341,3.341,0,0,0,4.5,14.333a3.4,3.4,0,0,0,5.7,2.473l8.012,4.664a2.819,2.819,0,0,0-.113.73,3.272,3.272,0,1,0,3.272-3.259Z" transform="translate(-4.5 -3.094)" fill="#fff"/>
</svg>
