<svg xmlns="http://www.w3.org/2000/svg" width="54" height="44" viewBox="0 0 54 44">
  <g id="Group_707" data-name="Group 707" transform="translate(-159 -760)">
    <g id="Group_234" data-name="Group 234" transform="translate(139)">
      <text id="My_Transactions" data-name="My
Transactions" transform="translate(47 792)" fill="#b1b1b1" font-size="8" font-family="Montserrat-SemiBold, Montserrat" font-weight="600"><tspan x="-6" y="0">My</tspan><tspan x="-26" y="10">Transactions</tspan></text>
    </g>
    <g id="payments-24px_1_" data-name="payments-24px (1)" transform="translate(174 760)">
      <rect id="Rectangle_631" data-name="Rectangle 631" width="24" height="24" fill="none"/>
      <path id="Path_1207" data-name="Path 1207" d="M19,14V6a2.006,2.006,0,0,0-2-2H3A2.006,2.006,0,0,0,1,6v8a2.006,2.006,0,0,0,2,2H17A2.006,2.006,0,0,0,19,14Zm-2,0H3V6H17ZM10,7a3,3,0,1,0,3,3A3,3,0,0,0,10,7ZM23,7V18a2.006,2.006,0,0,1-2,2H4V18H21V7Z" fill="#b1b1b1"/>
    </g>
  </g>
</svg>
