<svg xmlns="http://www.w3.org/2000/svg" width="27.814" height="27.456" viewBox="0 0 27.814 27.456">
  <g id="Group_1175" data-name="Group 1175" transform="translate(6583.582 6802.5)">
    <path id="Path_4785" data-name="Path 4785" d="M273.786,242.645a.823.823,0,0,0,.822-.822v-14.81l3.8,3.978a.822.822,0,1,0,1.189-1.137l-5.218-5.46a.848.848,0,0,0-1.189,0l-5.218,5.46a.823.823,0,1,0,1.189,1.137l3.8-3.978v14.81a.823.823,0,0,0,.822.822Z" transform="translate(-6843.462 -7018.189)" fill="#004c97" stroke="#004c97" stroke-width="1"/>
    <path id="Path_4786" data-name="Path 4786" d="M171.772,139.018q.212.2.432.382a.822.822,0,0,0,1.063-1.255q-.194-.164-.38-.336a11.762,11.762,0,1,1,15.935,0,.822.822,0,1,0,1.114,1.209,13.407,13.407,0,1,0-18.164,0Z" transform="translate(-6750.531 -6917.751)" fill="#004c97" stroke="#004c97" stroke-width="1"/>
  </g>
</svg>
