<svg xmlns="http://www.w3.org/2000/svg" xmlns:xlink="http://www.w3.org/1999/xlink" width="339" height="371" viewBox="0 0 339 371">
  <defs>
    <linearGradient id="linear-gradient" y1="0.827" x2="1" y2="0.864" gradientUnits="objectBoundingBox">
      <stop offset="0" stop-color="#051a2d"/>
      <stop offset="1" stop-color="#004c97"/>
    </linearGradient>
    <linearGradient id="linear-gradient-4" y1="0.5" x2="1" y2="0.5" gradientUnits="objectBoundingBox">
      <stop offset="0.494" stop-color="#ebeff2"/>
      <stop offset="1" stop-color="#fff"/>
    </linearGradient>
    <clipPath id="clip-path">
      <path id="Path_63" data-name="Path 63" d="M516.789,2219.015l72.283-5.117,33.065-23.98,1.224-42.149-50.6-9.009-5.374-17.5-24.23,4.485L502.3,2190.389Z" transform="translate(-502.302 -2121.258)" fill="none"/>
    </clipPath>
    <linearGradient id="linear-gradient-5" x1="-0.899" y1="0.126" x2="2.72" y2="1.733" gradientUnits="objectBoundingBox">
      <stop offset="0" stop-color="#ffc444"/>
      <stop offset="0.996" stop-color="#f36f56"/>
    </linearGradient>
    <linearGradient id="linear-gradient-6" x1="4.476" y1="0.314" x2="5.097" y2="1.67" gradientUnits="objectBoundingBox">
      <stop offset="0" stop-color="#311944"/>
      <stop offset="1" stop-color="#893976"/>
    </linearGradient>
    <linearGradient id="linear-gradient-7" x1="-12.049" y1="0.53" x2="-10.771" y2="0.53" xlink:href="#linear-gradient-6"/>
    <linearGradient id="linear-gradient-8" x1="-6.389" y1="0.513" x2="-5.18" y2="0.513" xlink:href="#linear-gradient-6"/>
    <linearGradient id="linear-gradient-11" x1="-1.714" y1="1.592" x2="-3.043" y2="0.131" xlink:href="#linear-gradient-5"/>
    <linearGradient id="linear-gradient-12" x1="14.491" y1="-2.638" x2="13.335" y2="1.127" xlink:href="#linear-gradient-5"/>
    <linearGradient id="linear-gradient-14" x1="-14.721" y1="12.729" x2="-14.721" y2="11.332" xlink:href="#linear-gradient-5"/>
    <linearGradient id="linear-gradient-15" x1="-32.115" y1="19.362" x2="-30.987" y2="16.986" xlink:href="#linear-gradient-5"/>
    <linearGradient id="linear-gradient-16" x1="0.617" y1="0.5" x2="1.617" y2="0.5" xlink:href="#linear-gradient-4"/>
    <clipPath id="clip-path-2">
      <path id="Path_116" data-name="Path 116" d="M1903.357,1322.3l79.407,5.825a2.394,2.394,0,0,0,2.569-2.351l.023-1.485,17.022-7.344-17.075-23.5-18.005-31.153-16.495-1.5-12.989-21.058h-47.052v38.284H1867.1v41.189l24.585,9.706Z" transform="translate(-1867.096 -1239.74)" fill="none"/>
    </clipPath>
    <linearGradient id="linear-gradient-17" x1="2.375" y1="-6.693" x2="3.233" y2="-4.213" xlink:href="#linear-gradient-5"/>
    <linearGradient id="linear-gradient-18" x1="-1.01" y1="1.259" x2="0.01" y2="1.259" gradientUnits="objectBoundingBox">
      <stop offset="0" stop-color="#aa80f9"/>
      <stop offset="0.996" stop-color="#6165d7"/>
    </linearGradient>
    <linearGradient id="linear-gradient-19" x1="-1.023" y1="1.319" x2="-0.003" y2="1.319" xlink:href="#linear-gradient-18"/>
    <linearGradient id="linear-gradient-20" x1="-0.08" y1="0.586" x2="0.936" y2="0.586" gradientUnits="objectBoundingBox">
      <stop offset="0" stop-color="#444b8c"/>
      <stop offset="0.996" stop-color="#26264f"/>
    </linearGradient>
    <linearGradient id="linear-gradient-21" x1="0.056" y1="0.427" x2="1.052" y2="0.427" xlink:href="#linear-gradient-20"/>
    <linearGradient id="linear-gradient-22" y1="0.827" x2="1" y2="0.864" gradientUnits="objectBoundingBox">
      <stop offset="0" stop-color="#e9ecf5"/>
      <stop offset="1" stop-color="#004c97"/>
    </linearGradient>
    <linearGradient id="linear-gradient-24" x1="-7.934" y1="1.492" x2="-7.857" y2="-0.299" xlink:href="#linear-gradient-5"/>
    <linearGradient id="linear-gradient-25" x1="0.41" y1="1.387" x2="0.495" y2="-0.404" xlink:href="#linear-gradient-5"/>
    <linearGradient id="linear-gradient-26" x1="-21.336" y1="0.014" x2="-21.384" y2="3.038" xlink:href="#linear-gradient-5"/>
    <linearGradient id="linear-gradient-28" x1="0.086" y1="0.11" x2="0.842" y2="1.267" gradientUnits="objectBoundingBox">
      <stop offset="0" stop-color="#ff9085"/>
      <stop offset="1" stop-color="#fb6fbb"/>
    </linearGradient>
    <linearGradient id="linear-gradient-29" x1="7.138" y1="0.76" x2="6.623" y2="0.412" gradientUnits="objectBoundingBox">
      <stop offset="0.004" stop-color="#26264f"/>
      <stop offset="1" stop-color="#444b8c"/>
    </linearGradient>
    <linearGradient id="linear-gradient-30" x1="0" y1="0.5" x2="1" y2="0.5" xlink:href="#linear-gradient-5"/>
    <linearGradient id="linear-gradient-31" x1="5.982" y1="0.085" x2="6.664" y2="1.619" xlink:href="#linear-gradient-6"/>
    <linearGradient id="linear-gradient-32" x1="6.052" y1="0.085" x2="6.735" y2="1.619" xlink:href="#linear-gradient-28"/>
    <linearGradient id="linear-gradient-34" x1="8.089" y1="-0.019" x2="9.068" y2="1.992" xlink:href="#linear-gradient-28"/>
  </defs>
  <g id="Group_2626" data-name="Group 2626" transform="translate(-523 -247)">
    <rect id="Rectangle_2055" data-name="Rectangle 2055" width="339" height="371" rx="8" transform="translate(523 247)" fill="#fff"/>
    <text id="Video_Verification" data-name="Video Verification" transform="translate(693 589)" font-size="18" font-family="Poppins-Medium, Poppins" font-weight="500"><tspan x="-80" y="0">Video Verification</tspan></text>
    <g id="Group_1844" data-name="Group 1844" transform="translate(556 296)">
      <g id="Group_2609" data-name="Group 2609" transform="translate(0)">
        <path id="Path_1" data-name="Path 1" d="M559.925,479.247c-3.54-4.845-33.843-44.911-82.963-42.96-2.454.1-50.36,2.628-68.03,34.035-13.071,23.233.767,43.846-15.178,59.675-13.894,13.792-30.969,4.663-39.507,15.816-13.006,16.989,7.706,62.874,39.529,88.463,32.859,26.422,95.722,45.807,144.581,10.554C593.213,605.252,592.657,524.049,559.925,479.247Z" transform="translate(-341.445 -436.218)" fill="#f4f7fa"/>
        <g id="Group_4" data-name="Group 4" transform="translate(3.422 44.059)">
          <g id="Group_3" data-name="Group 3">
            <path id="Path_2" data-name="Path 2" d="M529.047,1714.435l-1.836-.723a14.864,14.864,0,0,0,.211-2.628l1.92-.272a.919.919,0,0,0,.774-1.088l-.6-3.3a1.017,1.017,0,0,0-1.124-.826l-1.945.268a16.12,16.12,0,0,0-1.145-2.443l1.513-1.214a.96.96,0,0,0,.109-1.361l-2.179-2.664a.991.991,0,0,0-1.376-.181l-1.524,1.217a16.525,16.525,0,0,0-2.211-1.619l.673-1.859a1.03,1.03,0,0,0-.6-1.281l-3.212-1.311a.941.941,0,0,0-1.262.527l-.676,1.867a15.933,15.933,0,0,0-2.7-.366l-.378-2.006a1.068,1.068,0,0,0-1.165-.856l-3.4.428a.925.925,0,0,0-.8,1.108l.384,2.011a15.013,15.013,0,0,0-2.478,1.026l-1.346-1.61a1.04,1.04,0,0,0-1.426-.188l-2.648,2.084a.967.967,0,0,0-.1,1.394l1.342,1.592a14.275,14.275,0,0,0-1.563,2.163l-1.94-.763a.975.975,0,0,0-1.3.541l-1.151,3.176a1.036,1.036,0,0,0,.631,1.294l1.928.749a14.864,14.864,0,0,0-.212,2.708l-1.989.274a.937.937,0,0,0-.807,1.119l.669,3.382a1.07,1.07,0,0,0,1.191.835l1.974-.28a16.2,16.2,0,0,0,1.218,2.5l-1.511,1.207a.954.954,0,0,0-.1,1.38l2.283,2.649a1.035,1.035,0,0,0,1.419.154l1.491-1.2a16.528,16.528,0,0,0,2.3,1.605l-.647,1.786a1,1,0,0,0,.615,1.26l3.247,1.214a.969.969,0,0,0,1.264-.553l.644-1.777a15.889,15.889,0,0,0,2.735.3l.358,1.876a1.019,1.019,0,0,0,1.149.806l3.329-.511a.93.93,0,0,0,.782-1.1l-.355-1.883a15.032,15.032,0,0,0,2.436-1.074l1.254,1.488a.986.986,0,0,0,1.369.149l2.544-2.07a.947.947,0,0,0,.108-1.348l-1.251-1.5a14.3,14.3,0,0,0,1.5-2.138l1.825.709a.935.935,0,0,0,1.231-.539l1.116-3.08A.994.994,0,0,0,529.047,1714.435Zm-13.714-12.976a10.246,10.246,0,0,1,6.051,12.8,9.64,9.64,0,0,1-12.675,5.484,10.244,10.244,0,0,1-6.21-12.867A9.642,9.642,0,0,1,515.333,1701.459Z" transform="translate(-493.422 -1692.309)" stroke="rgba(0,0,0,0)" stroke-width="1" fill="url(#linear-gradient)"/>
          </g>
          <path id="Path_3" data-name="Path 3" d="M949.787,1881.534l-1.332-.47a10.182,10.182,0,0,0,.139-1.847l1.387-.232a.664.664,0,0,0,.555-.78l-.452-2.3a.713.713,0,0,0-.817-.553l-1.4.231a10.832,10.832,0,0,0-.837-1.682l1.085-.884a.658.658,0,0,0,.072-.953l-1.583-1.808a.723.723,0,0,0-.99-.092l-1.089.885a11.38,11.38,0,0,0-1.593-1.074l.475-1.31a.69.69,0,0,0-.435-.876l-2.3-.829a.7.7,0,0,0-.9.4l-.476,1.313a11.535,11.535,0,0,0-1.928-.186l-.276-1.381a.731.731,0,0,0-.831-.563l-2.41.385a.665.665,0,0,0-.563.787l.278,1.381a11.128,11.128,0,0,0-1.752.772l-.956-1.08a.74.74,0,0,0-1.008-.094l-1.863,1.5a.662.662,0,0,0-.07.965l.949,1.067a10.3,10.3,0,0,0-1.1,1.531l-1.368-.483a.709.709,0,0,0-.91.4l-.8,2.219a.694.694,0,0,0,.446.88l1.358.476a10.156,10.156,0,0,0-.145,1.878l-1.4.231a.669.669,0,0,0-.566.79l.475,2.327a.732.732,0,0,0,.84.556l1.391-.232a10.867,10.867,0,0,0,.865,1.713l-1.065.865a.657.657,0,0,0-.069.96l1.618,1.8a.738.738,0,0,0,1.005.083l1.054-.859a11.4,11.4,0,0,0,1.637,1.079l-.455,1.255a.682.682,0,0,0,.44.87l2.314.8a.706.706,0,0,0,.9-.407l.454-1.253a11.5,11.5,0,0,0,1.955.164l.263,1.307a.715.715,0,0,0,.826.547l2.386-.412a.667.667,0,0,0,.557-.783l-.263-1.314a11.1,11.1,0,0,0,1.747-.795l.91,1.024a.721.721,0,0,0,.988.082l1.828-1.5a.656.656,0,0,0,.072-.949l-.911-1.029a10.314,10.314,0,0,0,1.076-1.528l1.323.463a.694.694,0,0,0,.888-.4l.792-2.186A.679.679,0,0,0,949.787,1881.534Zm-9.922-8.771a6.929,6.929,0,0,1,4.391,8.8,7.087,7.087,0,0,1-9.055,4.075,6.93,6.93,0,0,1-4.445-8.823A7.087,7.087,0,0,1,939.866,1872.762Z" transform="translate(-882.409 -1849.572)" fill="url(#linear-gradient)"/>
        </g>
        <path id="Path_4" data-name="Path 4" d="M2172.084,2546.983v46.3a2.578,2.578,0,0,1-2.267,2.719l-85.426,4.21a2.677,2.677,0,0,1-2.8-2.658v-49.6a2.742,2.742,0,0,1,2.646-2.818l3.548-.031,82.038-.715A2.4,2.4,0,0,1,2172.084,2546.983Z" transform="translate(-1923.561 -2417.383)" fill="#bfc8d6"/>
        <path id="Path_5" data-name="Path 5" d="M2087.806,2551.74l-4.824,7.608-1.386-.161v-4.6a2.743,2.743,0,0,1,2.646-2.818Z" transform="translate(-1923.561 -2424.015)" fill="#001b30"/>
        <path id="Path_6" data-name="Path 6" d="M2096.191,2601.92v46.456a2.578,2.578,0,0,0,2.668,2.662l85.406-4.211a2.633,2.633,0,0,0,2.333-2.721v-43.367Z" transform="translate(-1936.737 -2468.243)" fill="#ebeff2"/>
        <path id="Path_7" data-name="Path 7" d="M2184.266,2544.4l-85.406.746a2.763,2.763,0,0,0-2.668,2.816v4.76l90.407-1.292v-4.444A2.456,2.456,0,0,0,2184.266,2544.4Z" transform="translate(-1936.737 -2417.384)" fill="url(#linear-gradient)"/>
        <path id="Path_14" data-name="Path 14" d="M2564.266,2706.582l-42.956,1.038v-4.495l42.956-.891Z" transform="translate(-2320.469 -2559.857)" fill="#fff"/>
        <path id="Path_15" data-name="Path 15" d="M2564.266,2787.393l-42.956,1.3V2784.2l42.956-1.157Z" transform="translate(-2320.469 -2632.802)" fill="#fff"/>
        <path id="Path_16" data-name="Path 16" d="M2564.266,2868.205l-42.956,1.567v-4.493l42.956-1.422Z" transform="translate(-2320.469 -2705.745)" fill="#fff"/>
        <path id="Path_17" data-name="Path 17" d="M2564.266,2949.016l-42.956,1.833v-4.494l42.956-1.687Z" transform="translate(-2320.469 -2778.69)" fill="#fff"/>
        <path id="Path_18" data-name="Path 18" d="M2137.117,2578.49a1.227,1.227,0,0,1-1.179,1.251,1.193,1.193,0,0,1-1.181-1.224,1.227,1.227,0,0,1,1.181-1.251A1.194,1.194,0,0,1,2137.117,2578.49Z" transform="translate(-1971.548 -2447.055)" fill="#fff"/>
        <g id="Group_19" data-name="Group 19" transform="translate(0 85.817)">
          <g id="Group_13" data-name="Group 13" transform="translate(0 25.013)">
            <path id="Path_19" data-name="Path 19" d="M624.917,3169.755l-151.135-1.328v3.93a2.082,2.082,0,0,0,1.552,2.136l42.736,7.74a5.873,5.873,0,0,0,1.533.073l103.671-8.825a1.979,1.979,0,0,0,1.642-2.085Z" transform="translate(-472.272 -3091.496)" fill="#bfc8d6"/>
            <g id="Group_11" data-name="Group 11">
              <path id="Path_20" data-name="Path 20" d="M556.066,2450.079l-94.726,7.191a2.913,2.913,0,0,1-3.073-3.054v-72.737a3.187,3.187,0,0,1,3.073-3.288h94.726a2.775,2.775,0,0,1,2.526,2.972v65.752A3.042,3.042,0,0,1,556.066,2450.079Z" transform="translate(-458.267 -2378.191)" fill="#bfc8d6"/>
              <path id="Path_21" data-name="Path 21" d="M571.581,2450.079l-94.726,7.191a2.913,2.913,0,0,1-3.073-3.054v-72.737a3.187,3.187,0,0,1,3.073-3.288h94.726a2.775,2.775,0,0,1,2.525,2.972v65.752A3.042,3.042,0,0,1,571.581,2450.079Z" transform="translate(-472.272 -2378.191)" fill="#fff"/>
              <path id="Path_22" data-name="Path 22" d="M606.836,2484.6l-88.227,6.246a2.388,2.388,0,0,1-2.5-2.506v-63.681a2.613,2.613,0,0,1,2.5-2.695l88.227-.392a2.272,2.272,0,0,1,2.084,2.435v58A2.489,2.489,0,0,1,606.836,2484.6Z" transform="translate(-510.477 -2417.348)" fill="#d8dee8"/>
              <path id="Path_23" data-name="Path 23" d="M1006,2387.289a1.1,1.1,0,1,1-1.09-1.223A1.168,1.168,0,0,1,1006,2387.289Z" transform="translate(-950.707 -2385.299)" fill="#fff"/>
              <path id="Path_24" data-name="Path 24" d="M548.759,2430.129c-7.3-4.22-13.045,1.127-18.586-4.148-3.359-3.2-1.71-5.584-5.844-10.365-4.579-5.294-7.559-3.514-12.161-8.28-5.818-6.026-2.908-10.713-7.92-15.039-6.08-5.249-12.636-.391-18.424-5.424a15.485,15.485,0,0,1-4.581-8.683H475.58a1.868,1.868,0,0,0-1.8,1.93v75.4a1.706,1.706,0,0,0,1.8,1.792l96.541-7.361a1.541,1.541,0,0,0,1.163-.764c-7.067-.276-11.409-2.821-14.184-5.452C553.672,2438.588,554.613,2433.513,548.759,2430.129Z" transform="translate(-472.272 -2378.191)" fill="#fff" opacity="0.48" style="mix-blend-mode: soft-light;isolation: isolate"/>
            </g>
            <path id="Path_25" data-name="Path 25" d="M575.357,3113.078l-101.575,7.568,44.288,8.021a5.831,5.831,0,0,0,1.533.073l105.313-8.965-47.945-6.646A7.645,7.645,0,0,0,575.357,3113.078Z" transform="translate(-472.272 -3041.516)" fill="url(#linear-gradient-4)"/>
            <path id="Path_26" data-name="Path 26" d="M626.027,3133.679l84.564-6.395,26.172,3.6-83.836,6.836Z" transform="translate(-609.695 -3054.359)" fill="#d8dee8"/>
            <g id="Group_12" data-name="Group 12" transform="translate(13.916 6.506)" opacity="0.75">
              <path id="Path_27" data-name="Path 27" d="M610.929,2448.127l-9.715.034v-3.145h9.715Z" transform="translate(-601.214 -2445.017)" fill="#fff"/>
              <path id="Path_28" data-name="Path 28" d="M809.131,2447.949l-44.733.157v-3.089h44.733Z" transform="translate(-748.512 -2445.017)" fill="#fff"/>
              <path id="Path_29" data-name="Path 29" d="M773.776,2501.691l-9.377.089v-3.089l9.377-.056Z" transform="translate(-748.512 -2493.415)" fill="#fff"/>
              <path id="Path_30" data-name="Path 30" d="M965.159,2498.506l-43.233.408v-3.035l43.233-.258Z" transform="translate(-890.704 -2490.695)" fill="#fff"/>
              <path id="Path_31" data-name="Path 31" d="M773.776,2555.309l-9.377.145v-3.088l9.377-.112Z" transform="translate(-748.512 -2541.814)" fill="#fff"/>
              <path id="Path_32" data-name="Path 32" d="M965.159,2549.111l-43.233.666v-3.035l43.233-.516Z" transform="translate(-890.704 -2536.374)" fill="#fff"/>
              <path id="Path_33" data-name="Path 33" d="M610.929,2611.839l-9.715.208V2608.9l9.715-.174Z" transform="translate(-601.214 -2592.791)" fill="#fff"/>
              <path id="Path_34" data-name="Path 34" d="M809.131,2602.306l-44.733.957v-3.089l44.733-.8Z" transform="translate(-748.512 -2584.348)" fill="#fff"/>
              <path id="Path_35" data-name="Path 35" d="M773.776,2662.545l-9.377.256v-3.089l9.377-.223Z" transform="translate(-748.512 -2638.61)" fill="#fff"/>
              <path id="Path_36" data-name="Path 36" d="M965.159,2650.32l-43.233,1.183v-3.036l43.233-1.031Z" transform="translate(-890.704 -2627.73)" fill="#fff"/>
              <path id="Path_37" data-name="Path 37" d="M773.776,2716.163l-9.377.313v-3.088l9.377-.28Z" transform="translate(-748.512 -2687.009)" fill="#fff"/>
              <path id="Path_38" data-name="Path 38" d="M965.159,2700.925l-43.233,1.439v-3.035l43.233-1.29Z" transform="translate(-890.704 -2673.408)" fill="#fff"/>
              <path id="Path_39" data-name="Path 39" d="M773.776,2769.781l-9.377.368v-3.088l9.377-.335Z" transform="translate(-748.512 -2735.407)" fill="#fff"/>
              <path id="Path_40" data-name="Path 40" d="M965.159,2751.529l-43.233,1.7v-3.035l43.233-1.546Z" transform="translate(-890.704 -2719.086)" fill="#fff"/>
              <path id="Path_41" data-name="Path 41" d="M932.452,2816.849l-9.054.409v-3.034l9.054-.377Z" transform="translate(-892.033 -2777.94)" fill="#fff"/>
              <path id="Path_42" data-name="Path 42" d="M1110.391,2799.28l-34.884,1.578v-2.983l34.884-1.456Z" transform="translate(-1029.334 -2762.209)" fill="#fff"/>
              <path id="Path_43" data-name="Path 43" d="M610.929,2884.692l-9.715.5v-3.144l9.715-.464Z" transform="translate(-601.214 -2839.082)" fill="#fff"/>
              <path id="Path_44" data-name="Path 44" d="M809.131,2859.567l-44.733,2.291v-3.088l44.733-2.135Z" transform="translate(-748.512 -2816.563)" fill="#fff"/>
              <path id="Path_45" data-name="Path 45" d="M773.776,2930.636l-9.377.536v-3.088l9.377-.5Z" transform="translate(-748.512 -2880.602)" fill="#fff"/>
              <path id="Path_46" data-name="Path 46" d="M965.159,2903.343l-43.233,2.471v-3.035l43.233-2.32Z" transform="translate(-890.704 -2856.121)" fill="#fff"/>
              <path id="Path_47" data-name="Path 47" d="M773.776,2984.254l-9.377.593v-3.089l9.377-.559Z" transform="translate(-748.512 -2929)" fill="#fff"/>
              <path id="Path_48" data-name="Path 48" d="M965.159,2953.948l-43.233,2.729v-3.035l43.233-2.578Z" transform="translate(-890.704 -2901.8)" fill="#fff"/>
              <path id="Path_49" data-name="Path 49" d="M610.929,3048.4l-9.715.671v-3.144l9.715-.637Z" transform="translate(-601.214 -2986.856)" fill="#fff"/>
              <path id="Path_50" data-name="Path 50" d="M809.131,3013.924l-44.733,3.091v-3.089l44.733-2.935Z" transform="translate(-748.512 -2955.893)" fill="#fff"/>
            </g>
          </g>
          <g id="Group_18" data-name="Group 18" transform="translate(4.287)">
            <g id="Group_17" data-name="Group 17" clip-path="url(#clip-path)">
              <g id="Group_16" data-name="Group 16" transform="translate(8.994 2.139)">
                <g id="Group_15" data-name="Group 15">
                  <path id="Path_51" data-name="Path 51" d="M1670.585,2405.835s-1.493-5.178-.434-6.652,3.061-6.652,3.266-5.4-1,4.286-1,4.286,3.75,1.294,2.545,3.438-1.748,3.17-1.544,3.795S1670.853,2406.281,1670.585,2405.835Z" transform="translate(-1565.11 -2369.215)" fill="url(#linear-gradient-5)"/>
                  <path id="Path_52" data-name="Path 52" d="M1087.664,3108.272h12.919c-.021-15.446-.6-30.057-1.549-43.734l-4.539-9.2-16.82-1.755a91.794,91.794,0,0,0,1.063,25.511C1081.423,3093.551,1086.094,3098.521,1087.664,3108.272Z" transform="translate(-1030.266 -2964.955)" fill="url(#linear-gradient-6)"/>
                  <path id="Path_53" data-name="Path 53" d="M1087.664,3108.272h6.687c-.065-.231-.134-.462-.208-.695-2.294-7.235-5.91-8.826-6.1-14.964-.2-6.2,3.383-8.182,4.736-14.361.956-4.367-.565-14.239-6.016-23.724l-9.084-.948a91.793,91.793,0,0,0,1.063,25.511C1081.423,3093.551,1086.094,3098.521,1087.664,3108.272Z" transform="translate(-1030.266 -2964.955)" opacity="0.3" fill="url(#linear-gradient-7)" style="mix-blend-mode: multiply;isolation: isolate"/>
                  <path id="Path_54" data-name="Path 54" d="M891.389,3126.651c.271,3.111.512,5.931.635,8.874h17.155c1.919-16.752,4.334-32.582,7.054-47.414-1.3-.6-18.487-8.377-25.092-1.543-2.507,2.594-2.471,7.037-2.3,15.82C889.03,3111.746,890.324,3114.416,891.389,3126.651Z" transform="translate(-860.145 -2992.209)" fill="url(#linear-gradient-8)"/>
                  <path id="Path_55" data-name="Path 55" d="M1259.565,2409.931l4.493-.313c3.533,14.276,1,28.124-6.975,33.217-12.458,7.957-35.61-7.035-40.627-23.358-2.2-7.165-1.7-17.5,2.7-19.514,1.222-.557,3.118-.644,7.225,1.662,12.266,6.887,12.589,19.9,18.824,21C1247.978,2423.119,1252.455,2421.352,1259.565,2409.931Z" transform="translate(-1154.776 -2374.671)" fill="url(#linear-gradient)"/>
                  <path id="Path_56" data-name="Path 56" d="M809.2,2463.4c2.157-3.58-.552-7.032-1.169-13.815-.7-7.687,2.262-8.967,5.191-21.706,1.948-8.473,3.817-16.607,1.586-26.127-1.069-4.563-2.883-12.3-9.288-16.04-3.305-1.929-7.818-1.737-16.709-1.271-10.995.575-16.492.862-20.592,3.021-.6.316-13.073,7.1-13.931,18.158-.874,11.256,11.383,12.769,13.018,27.777.734,6.738-.574,17.1-1.423,23.822-.815,6.454-1.375,8.107-.1,10.061,3.07,4.71,12.468,3.367,31.263.683C804.419,2466.913,807.592,2466.074,809.2,2463.4Z" transform="translate(-738.711 -2360.68)" fill="url(#linear-gradient)"/>
                  <path id="Path_57" data-name="Path 57" d="M780.6,2555.889c-.795,2.925-3.653,5.111-5.643,12.226-.429,1.536-3.489,12.477.48,15.17,2.293,1.555,4.35-1.392,9.914-1.777,9.641-.667,14.234,7.436,20.532,5.223a8.624,8.624,0,0,0,3.976-3.083,6.363,6.363,0,0,1-.661,4.657c-1.61,2.672-4.784,3.51-12.156,4.564-18.8,2.683-28.194,4.026-31.263-.684-1.273-1.954-.713-3.606.1-10.06.848-6.721,2.156-17.084,1.423-23.822-1.635-15.009-13.892-16.522-13.018-27.777a17.457,17.457,0,0,1,2.82-8.02C772.659,2528.8,783.1,2546.7,780.6,2555.889Z" transform="translate(-738.711 -2485.583)" opacity="0.3" fill="url(#linear-gradient-11)" style="mix-blend-mode: multiply;isolation: isolate"/>
                  <path id="Path_58" data-name="Path 58" d="M823.277,3087.543l3.111,1.987a7.278,7.278,0,0,1,3.871-2.391c2.275-.5,4.886.217,4.947.943.049.581-1.542,1.168-1.787,1.259-1.985.733-3.458.124-4.26.922a6.078,6.078,0,0,1-1.451,1.294,4.349,4.349,0,0,1-.555.286c-1.325.515-3.6-1.791-3.793-1.992Z" transform="translate(-801.023 -2995.097)" fill="url(#linear-gradient-12)"/>
                  <path id="Path_59" data-name="Path 59" d="M626.132,2433.581c2.251-5.39,3.81-13.642.255-25.9-23.422,9.229-35.367,31.108-30.7,48.452,3.845,14.3,17.833,21.261,20.954,22.727l2.178-4.957c-3.616-4.027-7.691-9.981-7.115-16.776C612.5,2447.709,621.576,2444.493,626.132,2433.581Z" transform="translate(-594.688 -2381.938)" fill="url(#linear-gradient)"/>
                  <path id="Path_60" data-name="Path 60" d="M1009.528,2273.426a25.074,25.074,0,0,1-1.457,7.166c-1.149,2.773-7.195,4.516-8.42,5.135s2.3,2.428,5.832,2.784,13.635-.447,15.455-1.788-1.463-1.24-3.987-2.166-3.983-5.863-3.537-8.1S1009.528,2273.426,1009.528,2273.426Z" transform="translate(-960.002 -2260.751)" fill="url(#linear-gradient-14)"/>
                  <path id="Path_61" data-name="Path 61" d="M1041.116,2155.047c2.249-2.21,2.563-2.469,2.808-3.232.983-3.067-1.4-7.266-4.514-8.3-.162-.053-2.254-.723-3.053.185-.678.771.32,1.836-.155,3.32-.444,1.391-1.649,1.5-3.884,3.319-1.84,1.5-2.984,2.435-3.248,3.749-.544,2.708,2.733,6.632,5.635,6.525C1035.749,2160.575,1036.033,2160.042,1041.116,2155.047Z" transform="translate(-986.729 -2143.228)" fill="#001e37"/>
                  <g id="Group_14" data-name="Group 14" transform="translate(45.682 9.863)">
                    <path id="Path_62" data-name="Path 62" d="M1066.508,2252.48a6.39,6.39,0,0,0,6.034,1.812c3.261-.8,2.429-8.286.042-9.482a4.229,4.229,0,0,0-3.331.158c-.643.31-.821.632-1.881,1.117-.978.448-1.288.386-1.551.7-.329.395-.47,1.243.56,3.292a1.822,1.822,0,0,0-2.032-.289,1.145,1.145,0,0,0-.363.506C1063.675,2251.224,1064.639,2252.166,1066.508,2252.48Z" transform="translate(-1063.929 -2244.54)" fill="url(#linear-gradient-15)"/>
                  </g>
                </g>
              </g>
            </g>
          </g>
        </g>
        <g id="Group_29" data-name="Group 29" transform="translate(108.336)">
          <g id="Group_22" data-name="Group 22" transform="translate(0 14.85)">
            <path id="Path_64" data-name="Path 64" d="M1571.086,2183.846l151.135-1.329v3.93a2.082,2.082,0,0,1-1.552,2.135l-42.736,7.74a5.8,5.8,0,0,1-1.534.072l-103.671-8.824a1.98,1.98,0,0,1-1.642-2.085Z" transform="translate(-1571.086 -2105.587)" fill="#bfc8d6"/>
            <g id="Group_20" data-name="Group 20" transform="translate(50.81)">
              <path id="Path_65" data-name="Path 65" d="M2111.051,1464.17l94.727,7.19a2.913,2.913,0,0,0,3.073-3.054v-72.737a3.187,3.187,0,0,0-3.073-3.287h-94.727a2.775,2.775,0,0,0-2.525,2.972v65.753A3.043,3.043,0,0,0,2111.051,1464.17Z" transform="translate(-2107.015 -1392.282)" fill="#bfc8d6"/>
              <path id="Path_66" data-name="Path 66" d="M2095.537,1464.17l94.726,7.19a2.913,2.913,0,0,0,3.073-3.054v-72.737a3.187,3.187,0,0,0-3.073-3.287h-94.726a2.775,2.775,0,0,0-2.526,2.972v65.753A3.043,3.043,0,0,0,2095.537,1464.17Z" transform="translate(-2093.011 -1392.282)" fill="#fff"/>
              <path id="Path_67" data-name="Path 67" d="M2129.947,1498.691l88.227,6.246a2.388,2.388,0,0,0,2.5-2.507v-63.681a2.612,2.612,0,0,0-2.5-2.695l-88.227-.392a2.273,2.273,0,0,0-2.084,2.435v58A2.49,2.49,0,0,0,2129.947,1498.691Z" transform="translate(-2124.47 -1431.439)" fill="#d8dee8"/>
              <path id="Path_68" data-name="Path 68" d="M2571.1,1401.379a1.1,1.1,0,1,0,1.09-1.223A1.167,1.167,0,0,0,2571.1,1401.379Z" transform="translate(-2524.56 -1399.389)" fill="#fff"/>
              <path id="Path_69" data-name="Path 69" d="M2125.981,1444.221c7.3-4.22,13.044,1.127,18.586-4.149,3.359-3.2,1.71-5.584,5.844-10.364,4.579-5.295,7.56-3.515,12.161-8.28,5.818-6.025,2.909-10.713,7.92-15.039,6.08-5.248,12.636-.391,18.424-5.423a15.488,15.488,0,0,0,4.58-8.683h5.663a1.867,1.867,0,0,1,1.8,1.93v75.4a1.705,1.705,0,0,1-1.8,1.792l-96.541-7.36a1.544,1.544,0,0,1-1.164-.764c7.067-.277,11.409-2.822,14.184-5.453C2121.067,1452.679,2120.126,1447.6,2125.981,1444.221Z" transform="translate(-2100.632 -1392.282)" fill="#fff" opacity="0.48" style="mix-blend-mode: soft-light;isolation: isolate"/>
            </g>
            <path id="Path_70" data-name="Path 70" d="M1620.647,2127.169l101.575,7.569-44.288,8.021a5.811,5.811,0,0,1-1.534.073l-105.313-8.964,47.945-6.647A7.708,7.708,0,0,1,1620.647,2127.169Z" transform="translate(-1571.086 -2055.607)" fill="url(#linear-gradient-16)"/>
            <path id="Path_71" data-name="Path 71" d="M1944.56,2147.77,1860,2141.376l-26.172,3.6,83.836,6.836Z" transform="translate(-1808.246 -2068.45)" fill="#d8dee8"/>
            <g id="Group_21" data-name="Group 21" transform="translate(57.673 6.506)" opacity="0.75">
              <path id="Path_72" data-name="Path 72" d="M2896.321,1462.218l9.715.034v-3.144h-9.715Z" transform="translate(-2824.979 -1459.108)" fill="#fff"/>
              <path id="Path_73" data-name="Path 73" d="M2373.437,1462.04l44.733.156v-3.089h-44.733Z" transform="translate(-2352.999 -1459.108)" fill="#fff"/>
              <path id="Path_74" data-name="Path 74" d="M2736.609,1515.782l9.377.089v-3.089l-9.377-.056Z" transform="translate(-2680.815 -1507.506)" fill="#fff"/>
              <path id="Path_75" data-name="Path 75" d="M2231.313,1512.6l43.233.409v-3.035l-43.233-.258Z" transform="translate(-2224.711 -1504.786)" fill="#fff"/>
              <path id="Path_76" data-name="Path 76" d="M2736.609,1569.4l9.377.145v-3.089l-9.377-.112Z" transform="translate(-2680.815 -1555.904)" fill="#fff"/>
              <path id="Path_77" data-name="Path 77" d="M2231.313,1563.2l43.233.667v-3.035l-43.233-.516Z" transform="translate(-2224.711 -1550.464)" fill="#fff"/>
              <path id="Path_78" data-name="Path 78" d="M2896.321,1625.93l9.715.208v-3.144l-9.715-.174Z" transform="translate(-2824.979 -1606.882)" fill="#fff"/>
              <path id="Path_79" data-name="Path 79" d="M2373.437,1616.4l44.733.956v-3.088l-44.733-.8Z" transform="translate(-2352.999 -1598.438)" fill="#fff"/>
              <path id="Path_80" data-name="Path 80" d="M2736.609,1676.636l9.377.256V1673.8l-9.377-.224Z" transform="translate(-2680.815 -1652.701)" fill="#fff"/>
              <path id="Path_81" data-name="Path 81" d="M2231.313,1664.41l43.233,1.183v-3.035l-43.233-1.031Z" transform="translate(-2224.711 -1641.821)" fill="#fff"/>
              <path id="Path_82" data-name="Path 82" d="M2736.609,1730.255l9.377.312v-3.088l-9.377-.28Z" transform="translate(-2680.815 -1701.099)" fill="#fff"/>
              <path id="Path_83" data-name="Path 83" d="M2231.313,1715.015l43.233,1.44v-3.035l-43.233-1.289Z" transform="translate(-2224.711 -1687.499)" fill="#fff"/>
              <path id="Path_84" data-name="Path 84" d="M2736.609,1783.872l9.377.369v-3.089l-9.377-.335Z" transform="translate(-2680.815 -1749.498)" fill="#fff"/>
              <path id="Path_85" data-name="Path 85" d="M2231.313,1765.62l43.233,1.7v-3.035l-43.233-1.547Z" transform="translate(-2224.711 -1733.177)" fill="#fff"/>
              <path id="Path_86" data-name="Path 86" d="M2580.933,1830.939l9.053.409v-3.034l-9.053-.378Z" transform="translate(-2540.296 -1792.03)" fill="#fff"/>
              <path id="Path_87" data-name="Path 87" d="M2163.5,1813.371l34.884,1.578v-2.983l-34.884-1.456Z" transform="translate(-2163.5 -1776.3)" fill="#fff"/>
              <path id="Path_88" data-name="Path 88" d="M2896.321,1898.783l9.715.5v-3.144l-9.715-.463Z" transform="translate(-2824.979 -1853.173)" fill="#fff"/>
              <path id="Path_89" data-name="Path 89" d="M2373.437,1873.658l44.733,2.29v-3.088l-44.733-2.135Z" transform="translate(-2352.999 -1830.654)" fill="#fff"/>
              <path id="Path_90" data-name="Path 90" d="M2736.609,1944.727l9.377.536v-3.088l-9.377-.5Z" transform="translate(-2680.815 -1894.693)" fill="#fff"/>
              <path id="Path_91" data-name="Path 91" d="M2231.313,1917.434l43.233,2.471v-3.035l-43.233-2.321Z" transform="translate(-2224.711 -1870.211)" fill="#fff"/>
              <path id="Path_92" data-name="Path 92" d="M2736.609,1998.345l9.377.593v-3.089l-9.377-.559Z" transform="translate(-2680.815 -1943.092)" fill="#fff"/>
              <path id="Path_93" data-name="Path 93" d="M2231.313,1968.039l43.233,2.73v-3.035l-43.233-2.579Z" transform="translate(-2224.711 -1915.89)" fill="#fff"/>
              <path id="Path_94" data-name="Path 94" d="M2896.321,2062.5l9.715.672v-3.145l-9.715-.637Z" transform="translate(-2824.979 -2000.947)" fill="#fff"/>
              <path id="Path_95" data-name="Path 95" d="M2373.437,2028.015l44.733,3.091v-3.089l-44.733-2.935Z" transform="translate(-2352.999 -1969.984)" fill="#fff"/>
            </g>
          </g>
          <g id="Group_28" data-name="Group 28" transform="translate(28.817)">
            <g id="Group_27" data-name="Group 27" clip-path="url(#clip-path-2)">
              <g id="Group_26" data-name="Group 26" transform="translate(1.504 9.723)">
                <g id="Group_24" data-name="Group 24" transform="translate(2.916)">
                  <path id="Path_96" data-name="Path 96" d="M3083.662,2006.242a12,12,0,0,0,4.341.789c3.335-.032,4.283-1.516,6.811-.913a14.659,14.659,0,0,1,4.163,2.03h0a25.251,25.251,0,0,1-5.143,2.286,15.043,15.043,0,0,1-4.679.529c-2.541-.041-5.173-.083-5.936-1.615C3083.075,2009.06,3082.681,2008.082,3083.662,2006.242Z" transform="translate(-2969.066 -1941.103)" fill="url(#linear-gradient-17)"/>
                  <g id="Group_23" data-name="Group 23" transform="translate(26.387 83.678)">
                    <path id="Path_97" data-name="Path 97" d="M2368.925,3355.3a10.981,10.981,0,0,1,1.6,3.608,10.788,10.788,0,0,1,.28,1.894,9.9,9.9,0,0,1-4.863,4.4c-1.713.634-4.82-.406-1.9-2.956s3.329-3.117,1.543-8.151c-.46-1.295-.442-1.8-.248-1.926C2365.8,3351.863,2367.521,3353.685,2368.925,3355.3Z" transform="translate(-2345.39 -3239.885)" fill="url(#linear-gradient-18)"/>
                    <path id="Path_98" data-name="Path 98" d="M2529.313,3371.308a10.828,10.828,0,0,1,1.884,5.5,9.91,9.91,0,0,1-4.863,4.4c-1.712.634-4.82-.406-1.9-2.956s3.33-3.117,1.543-8.151c-.46-1.294-.442-1.8-.247-1.926C2526.186,3367.875,2527.908,3369.7,2529.313,3371.308Z" transform="translate(-2490.164 -3254.338)" fill="url(#linear-gradient-19)"/>
                    <path id="Path_99" data-name="Path 99" d="M2228.264,2207.765q1.969,9.872,3.94,19.746a188.3,188.3,0,0,0-5.771,20.673,193.815,193.815,0,0,0-2.308,68.961l-4.164,2.309a172.809,172.809,0,0,1-12.565-41.7c-3.535-21.161-2.193-37.844-3.173-37.87-.938-.024-3.041,15.279-2.452,32.653a175.279,175.279,0,0,0,7.09,43.648l-5.246,1.167a160.4,160.4,0,0,1-17.878-53.067c-2.264-15.3-5.015-35.63,4.525-57.031.953-2.136,4.37-6.925,5-8.1C2207.107,2201.008,2216.422,2205.917,2228.264,2207.765Z" transform="translate(-2183.549 -2199.159)" fill="url(#linear-gradient-20)"/>
                    <path id="Path_100" data-name="Path 100" d="M2233.587,2248.184a188.191,188.191,0,0,1,5.77-20.673q-1.97-9.873-3.94-19.746c-11.843-1.849-21.156-6.757-33-8.606-.631,1.176-4.049,5.964-5,8.1a76.356,76.356,0,0,0-5.944,21.125c22.754-1.027,29.5,3.488,31.467,7.795,3.125,6.856-5.415,14.209-1.826,28.181,1.079,4.2,2.545,6.24,2.89,11.536.453,6.953-1.795,7.706-1.908,14.8-.125,7.76,2.45,14.127,4.563,19.351a67.682,67.682,0,0,0,3.658,7.635l.961-.533A193.823,193.823,0,0,1,2233.587,2248.184Z" transform="translate(-2190.702 -2199.159)" opacity="0.25" fill="url(#linear-gradient-21)" style="mix-blend-mode: multiply;isolation: isolate"/>
                  </g>
                  <path id="Path_101" data-name="Path 101" d="M2262.258,1340.646c.827.9-.117,2.31.158,7.073a33.723,33.723,0,0,0,.725,5.26c.162,1.164.341,2.241.531,3.189.14.7.269,1.236.43,1.81a22.544,22.544,0,0,0,1.127,3.111.139.139,0,0,1-.059.178l-.011.006a.138.138,0,0,1-.183-.07,22.815,22.815,0,0,1-1.141-3.15c-.164-.581-.293-1.128-.435-1.831-.1-.5-.2-1.037-.29-1.6a15,15,0,0,0,.9,5.314A8.946,8.946,0,0,1,2257.5,1372c-4.7.693-8.286-2.716-9.4-3.837a16.819,16.819,0,0,1-2.958-18.75C2249.258,1341.2,2260.231,1338.451,2262.258,1340.646Z" transform="translate(-2211.282 -1339.891)" fill="#174571"/>
                  <path id="Path_102" data-name="Path 102" d="M1912.5,1674.034c.445,2.736,2.271,11.987,9.363,15.842,11.683,6.35,32.191-5.327,34.608-20.6,1.847-11.673-7.056-24.239-11.974-23.52-6.175.9-3.387,22.355-15.55,28.545C1923.381,1677.134,1916.916,1675.632,1912.5,1674.034Z" transform="translate(-1912.501 -1615.925)" fill="url(#linear-gradient-22)"/>
                  <path id="Path_103" data-name="Path 103" d="M2319.156,1348.05a10.413,10.413,0,0,1,3.315-6.114c4.919-4.176,13.709-2.145,19.019,1.622,5.556,3.941,3.758,7.253,9.279,11.7,6,4.827,9.567,2.077,17.664,6.5,3.185,1.74,11.768,6.429,13.195,14.984,1.234,7.392-3.256,15.388-9.4,18.929-10.512,6.064-25.226-1.295-32.576-8.7-7.049-7.1-3.031-9.439-13.464-23.489C2322.418,1358.4,2318.226,1353.795,2319.156,1348.05Z" transform="translate(-2279.449 -1339.617)" fill="#00274f"/>
                  <path id="Path_104" data-name="Path 104" d="M2254.081,1673.586c-1.2,2.4-8.263-2.075-15.091,2.08-6.3,3.835-4.305,10.1-10.427,14.992-7.021,5.614-17.5,3.628-22.079,2.757-9.943-1.882-10.225-5.854-21.778-8.894a65.414,65.414,0,0,0-20.545-1.84c-14.86.8-20.06,5.741-22.7,3.068a2.815,2.815,0,0,1-.8-1.769c-.178-1.708.767-4.033,2.2-6.851,4.141-8.169,12.347-20.47,9-33.961-1.826-7.35-5.685-10.588-5.812-19.985a38.028,38.028,0,0,1,4.372-17.712,50.328,50.328,0,0,1,17.1-4.061c7.468-.419,12.677-.913,16.254,2.146,5.877,5.03,2.579,13.387,4.249,24.206a36.053,36.053,0,0,0,3.11,10.141c.951,2,7.454,15.2,19.322,17.792,6.71,1.463,8.465-1.915,16.253-1.534,14.447.706,26.725,13.223,27.482,18.187,0,0,0,.005,0,.01A2.061,2.061,0,0,1,2254.081,1673.586Z" transform="translate(-2118.438 -1575.643)" fill="url(#linear-gradient-22)"/>
                  <path id="Path_105" data-name="Path 105" d="M2314.613,1497.346c-.911,2.461-1.582,5.491-.108,7.324a7.845,7.845,0,0,0,3.578,2.148c3.143,1.175,4.468.428,5.151,1.268,1.5,1.849-1.389,9.8-7.32,11.075-5.9,1.272-11.977-4.672-11.364-7.512.554-2.563,6.511-2.395,7.237-5.636.365-1.632-.784-3.283-1.756-4.381l-.7.134Z" transform="translate(-2266.345 -1481.991)" fill="url(#linear-gradient-24)"/>
                  <path id="Path_106" data-name="Path 106" d="M2367.984,1508.086c-.683-.84-2.008-.093-5.151-1.268a7.842,7.842,0,0,1-3.578-2.148c-1.473-1.833-.8-4.863.108-7.324l-5.279,4.421.7-.134a6.686,6.686,0,0,1,1.791,3.374,4.955,4.955,0,0,1,1.1.8,13.049,13.049,0,0,0-.727,4.209c-.007,1.487-.011,2.591.727,3.557a4.875,4.875,0,0,0,3.085,1.565,10.635,10.635,0,0,0,5.84-.427C2368.286,1512.085,2368.829,1509.124,2367.984,1508.086Z" transform="translate(-2311.095 -1481.991)" opacity="0.4" fill="url(#linear-gradient-25)" style="mix-blend-mode: multiply;isolation: isolate"/>
                  <path id="Path_107" data-name="Path 107" d="M2329.024,1452.724a3.337,3.337,0,0,1-3.285,3.03c-3.677.019-4.086-9.685-3.191-10.239,1.037-.643,1.945.932,4.358.383,1.016-.231,1.895-1.539,2.41-.13a11.117,11.117,0,0,1,.092,4.44s.874-.72,1.008.146A2.541,2.541,0,0,1,2329.024,1452.724Z" transform="translate(-2282.266 -1434.852)" fill="url(#linear-gradient-26)"/>
                  <path id="Path_108" data-name="Path 108" d="M2320.4,1404.226c-1.168,1.19-1.811,3.5-1,4.66,1.162,1.667,4.6-.073,6.005,1.966.616.895.58,2.136.9,2.116.265-.017.421-.876.573-1.584.84-3.9,1.813-4.339,1.517-5.456C2327.791,1403.657,2322.8,1401.782,2320.4,1404.226Z" transform="translate(-2279.459 -1396.899)" fill="#002652"/>
                  <path id="Path_109" data-name="Path 109" d="M2510.149,1613.443c-.507-5.671-2.34-8.162-1.008-9.384,2.061-1.891,8.593,2.1,10.531,3.3,10.78,6.688,14.493,14.192,20.022,20.091,4.787,5.105,13,11.21,27.808,14.313q-.818,3.476-1.635,6.952c-13.243,3.295-20.873.878-25.354-1.84-8.951-5.428-11.279-15.65-21.47-17.175-4.289-.642-7.05.694-9.025-1.47C2507.607,1625.585,2510.9,1621.839,2510.149,1613.443Z" transform="translate(-2450.627 -1577.862)" fill="url(#linear-gradient-22)"/>
                  <path id="Path_110" data-name="Path 110" d="M2253.772,1914.4c-1.19,2.4-8.259-2.075-15.086,2.08-6.306,3.835-4.311,10.1-10.428,14.992-7.025,5.609-17.5,3.629-22.084,2.758-9.943-1.882-10.225-5.854-21.777-8.894a65.424,65.424,0,0,0-20.545-1.84c-14.861.8-20.061,5.741-22.7,3.068a2.8,2.8,0,0,1-.767-1.529c-.287-1.7.645-4.061,2.094-6.941.038.033.071.062.109.09a9.519,9.519,0,0,0,3.929,2.094c8.692,2.1,13.586-11.431,26.531-12.118,8.409-.442,10.117,5.059,22.083,4.908,5.623-.071,13.887-1.4,14.413-4.447.673-3.882-12.127-5.252-17.021-16.254-2.141-4.8-.738-6.88-3.834-11.656-3.774-5.816-9.242-7.04-8.744-9.661.354-1.831,3.341-3.2,5.9-2.846a5.756,5.756,0,0,1,1.91.611,36.026,36.026,0,0,0,3.111,10.141c.95,2,7.453,15.2,19.322,17.792,6.71,1.463,8.465-1.915,16.253-1.534,14.446.706,26.723,13.223,27.481,18.187,0,0,0,0,0,.009A1.864,1.864,0,0,1,2253.772,1914.4Z" transform="translate(-2118.157 -1816.696)" opacity="0.3" fill="url(#linear-gradient-28)" style="mix-blend-mode: multiply;isolation: isolate"/>
                </g>
                <g id="Group_25" data-name="Group 25" transform="translate(0 37.732)">
                  <path id="Path_111" data-name="Path 111" d="M1884.675,1735.251l22.75,1.909a.535.535,0,0,1,.481.436l6.454,30.663c.092.439-.5,1.55-.925,1.507l-21.9-2.915a.526.526,0,0,1-.467-.414l-7.539-29.879C1883.429,1736.113,1884.217,1735.213,1884.675,1735.251Z" transform="translate(-1883.43 -1734.465)" fill="url(#linear-gradient-29)"/>
                  <path id="Path_112" data-name="Path 112" d="M1883.316,1743.012l22.792,1.881a.535.535,0,0,1,.482.435l6.462,30.692a.723.723,0,0,1-.717.858l-22.145-2.235a.528.528,0,0,1-.468-.413l-7.156-30.357A.724.724,0,0,1,1883.316,1743.012Z" transform="translate(-1882.549 -1741.471)" fill="#00274c"/>
                  <path id="Path_113" data-name="Path 113" d="M1949.809,1730.178l-.559-2.53a.38.38,0,0,1,.379-.449l8.371.383a.294.294,0,0,1,.28.25l.47,2.749a.373.373,0,0,1-.379.429l-8.287-.594A.3.3,0,0,1,1949.809,1730.178Z" transform="translate(-1942.75 -1727.198)" fill="#00458f"/>
                  <path id="Path_114" data-name="Path 114" d="M1900.464,1769.491c-.818-5.042,2.013-8.287.064-12.2-2.774-5.573-10.733-3.428-12.536-8-.487-1.235-.552-3.053.715-5.83l-5.39-.445a.724.724,0,0,0-.751.86l7.156,30.357a.528.528,0,0,0,.468.414l13.664,1.38A12.052,12.052,0,0,1,1900.464,1769.491Z" transform="translate(-1882.549 -1741.472)" fill="#fff" opacity="0.3" style="mix-blend-mode: soft-light;isolation: isolate"/>
                </g>
                <path id="Path_115" data-name="Path 115" d="M1907.725,1903.336c-.051-.38-1.579-4.2,1.528-5.73s1.429,2.706,1.428,4.181.033,4.787-1.461,3.921A2.925,2.925,0,0,1,1907.725,1903.336Z" transform="translate(-1904.895 -1842.989)" fill="url(#linear-gradient-30)"/>
              </g>
            </g>
          </g>
        </g>
        <g id="Group_34" data-name="Group 34" transform="translate(75.619 56.505)">
          <g id="Group_31" data-name="Group 31" transform="translate(0 0)">
            <path id="Path_117" data-name="Path 117" d="M1260.815,1861.8c0,11.672,11.363,21.162,25.59,21.2,14.465.036,26.37-9.684,26.37-21.711s-11.9-21.512-26.37-21.189C1272.178,1840.418,1260.815,1850.133,1260.815,1861.8Z" transform="translate(-1258.306 -1838.151)" fill="url(#linear-gradient-31)"/>
            <path id="Path_118" data-name="Path 118" d="M1260.815,1861.8c0,11.672,11.363,21.162,25.59,21.2,14.465.036,26.37-9.684,26.37-21.711s-11.9-21.512-26.37-21.189C1272.178,1840.418,1260.815,1850.133,1260.815,1861.8Z" transform="translate(-1258.306 -1838.151)" fill="#00274f"/>
            <path id="Path_119" data-name="Path 119" d="M1252.177,2158.878s-6.235,6.92-15.31,1.133l-1.829-1.94s9.215-4.7,9.428-8.7Z" transform="translate(-1235.038 -2117.319)" fill="#002652"/>
            <path id="Path_120" data-name="Path 120" d="M1242.027,1841.87c0,11.671,11.362,21.161,25.59,21.2,14.465.036,26.37-9.685,26.37-21.711s-11.905-21.511-26.37-21.189C1253.39,1820.483,1242.027,1830.2,1242.027,1841.87Z" transform="translate(-1241.347 -1820.157)" fill="url(#linear-gradient-32)"/>
            <path id="Union_1" data-name="Union 1" d="M0,40.751a21.479,21.479,0,0,0,6.049-6.042,18.923,18.923,0,0,1-5.369-13C.68,10.041,12.043.326,26.27.008,40.735-.315,52.64,9.169,52.64,21.2s-11.9,21.747-26.37,21.712a30.03,30.03,0,0,1-11.906-2.433A11.6,11.6,0,0,1,7.2,43.059,13.287,13.287,0,0,1,0,40.751Z" fill="url(#linear-gradient)"/>
            <g id="Group_30" data-name="Group 30" transform="translate(16.996 8.08)" opacity="0.2" style="mix-blend-mode: multiply;isolation: isolate">
              <path id="Path_123" data-name="Path 123" d="M1412.615,1932.528c3.116-6.325-.034-12.212,4.182-16.333,4.3-4.208,9.929-.395,16.025-3.871,2.368-1.351,5.008-3.917,6.976-9.165a18.936,18.936,0,0,1,5.471,13.116c0,12.027-11.9,21.747-26.37,21.711a30.613,30.613,0,0,1-9.274-1.439A14.077,14.077,0,0,0,1412.615,1932.528Z" transform="translate(-1409.625 -1903.16)" fill="url(#linear-gradient-34)"/>
            </g>
          </g>
          <g id="Group_33" data-name="Group 33" transform="translate(12.993 8.79)">
            <g id="Group_32" data-name="Group 32" transform="translate(1.249)">
              <rect id="Rectangle_2" data-name="Rectangle 2" width="6.246" height="10.201" transform="translate(0 9.368)" fill="#fff" opacity="0.7"/>
              <rect id="Rectangle_3" data-name="Rectangle 3" width="6.246" height="15.197" transform="translate(8.536 4.372)" fill="#fff" opacity="0.7"/>
              <rect id="Rectangle_4" data-name="Rectangle 4" width="6.246" height="19.569" transform="translate(17.071)" fill="#fff" opacity="0.7"/>
            </g>
            <rect id="Rectangle_5" data-name="Rectangle 5" width="25.607" height="2.29" transform="translate(0 21.651)" fill="#fff" opacity="0.7"/>
          </g>
        </g>
        <g id="Group_2605" data-name="Group 2605" transform="translate(161.802 139.565)">
          <g id="Group_13-2" data-name="Group 13">
            <path id="Path_15-2" data-name="Path 15" d="M15.236,30.576a14.9,14.9,0,0,1-5.764-1.322A15.714,15.714,0,0,1,4.71,25.912,15.963,15.963,0,0,1,1.449,21.04,15.49,15.49,0,0,1,.2,15.139,14.762,14.762,0,0,1,1.3,9.3,14.229,14.229,0,0,1,4.449,4.6,14,14,0,0,1,9.154,1.535,14.2,14.2,0,0,1,14.92.564a14.922,14.922,0,0,1,5.762,1.4A15.733,15.733,0,0,1,25.39,5.357a15.962,15.962,0,0,1,3.185,4.868,15.479,15.479,0,0,1,1.2,5.843,14.758,14.758,0,0,1-1.1,5.76,14.234,14.234,0,0,1-3.095,4.646,14,14,0,0,1-4.63,3.073A14.186,14.186,0,0,1,15.236,30.576Zm-.3-28.7a12.965,12.965,0,0,0-5.262.889,12.784,12.784,0,0,0-4.293,2.8A12.992,12.992,0,0,0,2.505,9.852,13.477,13.477,0,0,0,1.5,15.18,14.142,14.142,0,0,0,2.64,20.566a14.574,14.574,0,0,0,2.974,4.448A14.348,14.348,0,0,0,9.96,28.066a13.6,13.6,0,0,0,5.263,1.211,12.953,12.953,0,0,0,5.217-.938,12.784,12.784,0,0,0,4.23-2.806A13,13,0,0,0,27.5,21.29,13.475,13.475,0,0,0,28.5,16.028a14.133,14.133,0,0,0-1.1-5.337A14.573,14.573,0,0,0,24.5,6.247a14.363,14.363,0,0,0-4.3-3.095A13.623,13.623,0,0,0,14.933,1.876Z" fill="#aec1d5"/>
          </g>
          <g id="Group_14-2" data-name="Group 14" transform="translate(6.008 10.273)">
            <path id="Ellipse_2" data-name="Ellipse 2" d="M1.9.064A1.927,1.927,0,0,1,2.643.24a2.023,2.023,0,0,1,.608.432,2.048,2.048,0,0,1,.414.625,1.988,1.988,0,0,1,.158.753,1.889,1.889,0,0,1-.141.743,1.814,1.814,0,0,1-.4.6,1.789,1.789,0,0,1-.6.392,1.829,1.829,0,0,1-.737.127,1.927,1.927,0,0,1-.741-.175A2.023,2.023,0,0,1,.6,3.3a2.048,2.048,0,0,1-.415-.625,1.988,1.988,0,0,1-.159-.754,1.889,1.889,0,0,1,.141-.744,1.813,1.813,0,0,1,.4-.6,1.789,1.789,0,0,1,.6-.392A1.83,1.83,0,0,1,1.9.064Z" fill="#aec1d5"/>
            <path id="Ellipse_3" data-name="Ellipse 3" d="M1.879.063a1.892,1.892,0,0,1,.732.175,1.992,1.992,0,0,1,.6.43,2.03,2.03,0,0,1,.407.621,1.983,1.983,0,0,1,.154.748,1.89,1.89,0,0,1-.14.739,1.809,1.809,0,0,1-.4.594,1.773,1.773,0,0,1-.592.39,1.8,1.8,0,0,1-.729.127,1.892,1.892,0,0,1-.732-.173,1.992,1.992,0,0,1-.6-.429,2.03,2.03,0,0,1-.409-.621,1.983,1.983,0,0,1-.155-.749,1.89,1.89,0,0,1,.141-.74,1.809,1.809,0,0,1,.4-.595A1.773,1.773,0,0,1,1.15.189,1.8,1.8,0,0,1,1.879.063Z" transform="translate(14.068 0.472)" fill="#aec1d5"/>
          </g>
          <path id="Path_16-2" data-name="Path 16" d="M14.5.44a4.678,4.678,0,0,1-.545,2.248,5.424,5.424,0,0,1-1.527,1.769A7.15,7.15,0,0,1,10.143,5.6a8.929,8.929,0,0,1-2.811.359A9.28,9.28,0,0,1,4.5,5.439,7.927,7.927,0,0,1,2.181,4.164,6.126,6.126,0,0,1,.6,2.3,4.955,4.955,0,0,1,0,0Z" transform="translate(7.895 17.824)" fill="#aec1d5"/>
        </g>
      </g>
    </g>
  </g>
</svg>
