<svg xmlns="http://www.w3.org/2000/svg" xmlns:xlink="http://www.w3.org/1999/xlink" width="48" height="49" viewBox="0 0 48 49">
  <defs>
    <filter id="Exclusion_5" x="0" y="0" width="48" height="49" filterUnits="userSpaceOnUse">
      <feOffset dy="3" input="SourceAlpha"/>
      <feGaussianBlur stdDeviation="5" result="blur"/>
      <feFlood flood-opacity="0.09"/>
      <feComposite operator="in" in2="blur"/>
      <feComposite in="SourceGraphic"/>
    </filter>
  </defs>
  <g transform="matrix(1, 0, 0, 1, 0, 0)" filter="url(#Exclusion_5)">
    <path id="Exclusion_5-2" data-name="Exclusion 5" d="M-8013.2,11800h-11.68a3.1,3.1,0,0,1-3.166-3.012v-8.976a2.922,2.922,0,0,1,.878-2.077,3.219,3.219,0,0,1,2.122-.931v5.587a2.277,2.277,0,0,0,2.111,2.408h7.786a1.957,1.957,0,0,0,1.386-.6,2.562,2.562,0,0,0,.717-1.815V11785h0c-.044,0-.093,0-.159,0h-11.68c-.066,0-.115,0-.16,0v-1.595a2.276,2.276,0,0,1,2.105-2.41h7.789a2.276,2.276,0,0,1,2.105,2.41V11785h0a3.077,3.077,0,0,1,3,3.008v8.97a2.913,2.913,0,0,1-.87,2.079A3.194,3.194,0,0,1-8013.2,11800Z" transform="translate(8043.05 -11769)"/>
  </g>
</svg>
